<?xml version="1.0" encoding="UTF-8" standalone="no"?>
<svg version="1.1" xmlns="http://www.w3.org/2000/svg" xmlns:xlink="http://www.w3.org/1999/xlink" x="0px" y="0px" width="477.688px" height="670.725px" viewBox="0 0 477.688 670.725">
	<g fill="#336">
		<path d="M238.688,0.021c0,0-197.877-6.5-238.688,213v149.5c0,0,1.688,16,46.688,48.5s161.5,124,192,124s147-91.5,192-124 s46.688-48.5,46.688-48.5v-149.5C436.565-6.479,238.688,0.021,238.688,0.021z M374.188,294.521h-135.5h-135.5v-81.5 c27.5-109,135.5-110.5,135.5-110.5s108,1.5,135.5,110.5V294.521z"/>
		<path d="M238.688,568.688c0,0-30.667-3.001-54.667-19.667S0,418.021,0,418.021v226.334c0,0,1.355,26.333,30.355,26.333 s208.333,0,208.333,0s179.333,0,208.333,0s30.355-26.333,30.355-26.333V418.021c0,0-160.022,114.334-184.022,131 S238.688,568.688,238.688,568.688z"/>
	</g>
</svg>
