<?xml version="1.0" encoding="utf-8"?>
<!-- Generator: Adobe Illustrator 16.0.0, SVG Export Plug-In . SVG Version: 6.00 Build 0)  -->
<!DOCTYPE svg PUBLIC "-//W3C//DTD SVG 1.1//EN" "http://www.w3.org/Graphics/SVG/1.1/DTD/svg11.dtd">
<svg version="1.1" id="Layer_1" xmlns="http://www.w3.org/2000/svg" xmlns:xlink="http://www.w3.org/1999/xlink" x="0px" y="0px"
	 width="255.21px" height="267.153px" viewBox="0 0 255.21 267.153" enable-background="new 0 0 255.21 267.153"
	 xml:space="preserve">
<g>
	<path fill-rule="evenodd" clip-rule="evenodd" fill="#6441A4" d="M255.21,5.351c0.017-4.656-1.51-5.367-5.656-5.351
		c-37.656,0.148-75.313,0.087-112.969,0.087c-37.99,0-75.98,0.045-113.97-0.079c-3.343-0.011-5.013,0.911-6.235,4.102
		C11.56,16.697,6.473,29.183,1.415,41.677c-0.958,2.366-1.352,4.734-1.35,7.279C0.099,107.94,0.134,166.924,0,225.907
		c-0.009,4.117,1.005,5.332,5.213,5.28c18.825-0.231,37.656-0.014,56.482-0.177c3.511-0.029,4.559,0.981,4.472,4.484
		c-0.229,9.158,0.061,18.329-0.146,27.488c-0.076,3.342,1.066,4.24,4.27,4.166c8.327-0.191,16.662-0.162,24.99-0.007
		c2.731,0.051,4.667-0.809,6.569-2.739c10.055-10.209,20.278-20.252,30.32-30.473c2.032-2.068,4.099-2.93,7.004-2.903
		c14.161,0.132,28.325-0.017,42.487,0.12c3.057,0.029,5.271-0.785,7.469-3c20.891-21.053,41.867-42.02,62.909-62.921
		c2.177-2.162,3.122-4.313,3.117-7.418C255.064,106.989,255.02,56.169,255.21,5.351z M231.133,149.802
		c0.003,2.365-0.739,4.054-2.397,5.697c-11.479,11.373-22.919,22.785-34.266,34.289c-1.833,1.859-3.768,2.344-6.227,2.334
		c-17.824-0.066-35.65,0.093-53.473-0.133c-4.007-0.051-6.833,1.053-9.607,3.916c-10.189,10.518-20.609,20.813-32.073,32.326
		c0-11.346-0.195-21.138,0.094-30.916c0.12-4.063-0.885-5.411-5.167-5.333c-14.821,0.271-29.651,0.005-44.475,0.177
		c-3.43,0.04-4.533-0.852-4.525-4.42c0.109-53.141,0.099-106.281,0.018-159.421c-0.005-3.148,0.744-4.303,4.124-4.298
		c61.303,0.094,122.606,0.096,183.909-0.002c3.447-0.005,4.084,1.258,4.077,4.345C231.062,68.842,231.074,109.323,231.133,149.802z"
		/>
	<path fill-rule="evenodd" clip-rule="evenodd" fill="#6441A4" d="M126.091,103.574c0,9.822-0.228,19.651,0.105,29.461
		c0.146,4.317-1.313,5.488-5.354,5.121c-3.632-0.33-7.335-0.285-10.976-0.009c-3.563,0.27-4.911-0.649-4.87-4.584
		c0.208-19.974,0.204-39.953,0.002-59.927c-0.04-3.892,1.237-4.885,4.841-4.613c3.807,0.287,7.682,0.359,11.474-0.015
		c4.187-0.414,4.936,1.388,4.852,5.102C125.944,83.927,126.091,93.752,126.091,103.574z"/>
	<path fill-rule="evenodd" clip-rule="evenodd" fill="#6441A4" d="M189.088,103.242c0.001,10.321-0.106,20.644,0.065,30.962
		c0.053,3.093-0.925,4.092-3.978,3.938c-4.483-0.225-8.993-0.204-13.479-0.007c-2.887,0.127-3.664-0.975-3.652-3.74
		c0.092-20.642,0.089-41.284,0.007-61.926c-0.011-2.624,0.865-3.508,3.454-3.421c4.656,0.156,9.327,0.187,13.98-0.01
		c2.886-0.122,3.688,0.973,3.653,3.741C189.011,82.932,189.088,93.087,189.088,103.242z"/>
</g>
</svg>
