<?xml version="1.0" encoding="utf-8"?>
<!-- Generator: Adobe Illustrator 19.1.0, SVG Export Plug-In . SVG Version: 6.00 Build 0)  -->
<svg version="1.1" xmlns="http://www.w3.org/2000/svg" xmlns:xlink="http://www.w3.org/1999/xlink" x="0px" y="0px"
	 viewBox="0 0 58 58" style="enable-background:new 0 0 58 58;" xml:space="preserve">
<style type="text/css">
	.st0{display:none;}
	.st1{display:inline;}
	.st2{fill:#00B4A0;}
	.st3{fill:#F05A2A;}
	.st4{fill:#82D0C4;}
	.st5{fill:#00AF9B;}
	.st6{fill:#6ED3FD;}
	.st7{fill:#FFFFFF;}
	.st8{fill:#6AD839;}
</style>
<g id="Políticas" class="st0">
	<g class="st1">
		<g>
			<path class="st2" d="M0.7,0C0.3,0,0,0.3,0,0.7v6.2L6.9,0H0.7z"/>
			<path class="st2" d="M32.5,0h-22L0,10.6v34.1c0,0.4,0.3,0.7,0.7,0.7h21.4V30.3h-15c-0.7,0-1.3-0.6-1.3-1.3c0-0.7,0.6-1.3,1.3-1.3
				h15V24h-15c-0.7,0-1.3-0.6-1.3-1.3c0-0.7,0.6-1.3,1.3-1.3h15v-3.7h-15c-0.7,0-1.3-0.6-1.3-1.3c0-0.7,0.6-1.3,1.3-1.3h15v-1.7
				c0-1.8,1.5-3.3,3.3-3.3h7.8V0.7C33.3,0.3,32.9,0,32.5,0z"/>
		</g>
		<g>
			<path class="st3" d="M57.3,12.6H35.8h-0.7l-0.5,0.5l-1.3,1.3l-7,7L25,22.7L24.7,23v1v3.7V29v1.3v15.1v1.3v1.3v9.3
				c0,0.4,0.3,0.7,0.7,0.7h31.8c0.4,0,0.7-0.3,0.7-0.7V13.4C58,13,57.7,12.6,57.3,12.6z M50.8,42.9h-15h-1.3h-1.3h-1.3
				c-0.7,0-1.3-0.6-1.3-1.3c0-0.7,0.6-1.3,1.3-1.3h1.3h1.3h1.3h15c0.7,0,1.3,0.6,1.3,1.3C52.1,42.3,51.5,42.9,50.8,42.9z M50.8,36.6
				h-15h-1.3h-1.3h-1.3c-0.7,0-1.3-0.6-1.3-1.3c0-0.7,0.6-1.3,1.3-1.3h1.3h1.3h1.3h15c0.7,0,1.3,0.6,1.3,1.3
				C52.1,36,51.5,36.6,50.8,36.6z M50.8,30.3h-15h-1.3h-1.3h-1.3c-0.7,0-1.3-0.6-1.3-1.3c0-0.7,0.6-1.3,1.3-1.3h1.3h1.3h1.3h15
				c0.7,0,1.3,0.6,1.3,1.3C52.1,29.7,51.5,30.3,50.8,30.3z"/>
			<path class="st3" d="M27.2,16.9l4.2-4.2h-6c-0.4,0-0.7,0.3-0.7,0.7v1.7v1.3v1.3v1.7l1.8-1.8L27.2,16.9z"/>
		</g>
	</g>
</g>
<g id="Correo" class="st0">
	<g class="st1">
		<g transform="translate(0,-952.36218)">
			<path class="st3" d="M0,964.7V998l19-16.6L0,964.7z M58,964.7l-19,16.6L58,998V964.7z M21.8,983.8l-19,16.6h52.5l-19-16.6
				l-6.1,5.3c-0.7,0.6-1.7,0.6-2.4,0L21.8,983.8z"/>
		</g>
		<polygon class="st2" points="2.8,10 29,32.9 55.2,10 		"/>
	</g>
</g>
<g id="Nómina" class="st0">
	<g class="st1">
		<g>
			<path class="st2" d="M57.3,12.6H35.8h-0.7l-0.5,0.5l-1.3,1.3l-7,7L25,22.7L24.7,23v1v3.7V29v1.3v15.1v1.3v1.3v9.3
				c0,0.4,0.3,0.7,0.7,0.7h31.8c0.4,0,0.7-0.3,0.7-0.7V13.4C58,13,57.7,12.6,57.3,12.6z M50.8,48.1h-15h-1.3h-1.3h-1.3
				c-0.7,0-1.3-0.6-1.3-1.3s0.6-1.3,1.3-1.3h1.3h1.3h1.3h15c0.7,0,1.3,0.6,1.3,1.3S51.5,48.1,50.8,48.1z M50.8,41.8h-15h-1.3h-1.3
				h-1.3c-0.7,0-1.3-0.6-1.3-1.3c0-0.7,0.6-1.3,1.3-1.3h1.3h1.3h1.3h15c0.7,0,1.3,0.6,1.3,1.3C52.1,41.3,51.5,41.8,50.8,41.8z
				 M50.8,35.5h-4.6h-1.3h-1.3h-1.3c-0.7,0-1.3-0.6-1.3-1.3c0-0.7,0.6-1.3,1.3-1.3h1.3h1.3h1.3h4.6c0.7,0,1.3,0.6,1.3,1.3
				C52.1,35,51.5,35.5,50.8,35.5z M50.8,29.3h-4.6h-1.3h-1.3h-1.3c-0.7,0-1.3-0.6-1.3-1.3c0-0.7,0.6-1.3,1.3-1.3h1.3h1.3h1.3h4.6
				c0.7,0,1.3,0.6,1.3,1.3C52.1,28.7,51.5,29.3,50.8,29.3z M33.7,32.4v-2.8c-1-0.3-1.7-0.6-2.1-1.1c-0.4-0.5-0.7-1.1-0.7-1.9
				c0-0.7,0.3-1.4,0.8-1.9c0.5-0.5,1.2-0.8,2-0.9v-0.7h1.1v0.7c0.8,0.1,1.4,0.3,1.8,0.7c0.5,0.4,0.7,0.9,0.9,1.6l-1.8,0.2
				c-0.1-0.5-0.4-0.9-0.9-1.1V28c1.2,0.3,2,0.7,2.4,1.1c0.4,0.5,0.6,1.1,0.6,1.8c0,0.8-0.3,1.5-0.8,2.1c-0.5,0.6-1.3,0.9-2.2,1v1.3
				h-1.1v-1.2c-0.8-0.1-1.5-0.4-2.1-0.9c-0.5-0.5-0.9-1.2-1-2.1l1.9-0.2c0.1,0.4,0.2,0.7,0.4,0.9C33.2,32.1,33.5,32.3,33.7,32.4z
				 M33.7,25.3c-0.3,0.1-0.5,0.2-0.7,0.5c-0.2,0.2-0.3,0.5-0.3,0.7c0,0.2,0.1,0.5,0.2,0.7c0.2,0.2,0.4,0.4,0.7,0.5V25.3z M34.8,32.5
				c0.4-0.1,0.7-0.2,0.9-0.5c0.2-0.3,0.3-0.5,0.3-0.9c0-0.3-0.1-0.6-0.3-0.8c-0.2-0.2-0.5-0.4-0.9-0.5V32.5z"/>
			<path class="st2" d="M27.2,16.9l4.2-4.2h-6c-0.4,0-0.7,0.3-0.7,0.7v1.7v1.3v1.3v1.7l1.8-1.8L27.2,16.9z"/>
		</g>
		<g>
			<g>
				<path class="st3" d="M0.7,0C0.3,0,0,0.3,0,0.7v6.2L6.9,0H0.7z"/>
				<path class="st3" d="M32.5,0h-22L0,10.6v34.1c0,0.4,0.3,0.7,0.7,0.7h21.4V30.3h-15c-0.7,0-1.3-0.6-1.3-1.3
					c0-0.7,0.6-1.3,1.3-1.3h15V24h-15c-0.7,0-1.3-0.6-1.3-1.3c0-0.7,0.6-1.3,1.3-1.3h15v-3.7h-15c-0.7,0-1.3-0.6-1.3-1.3
					c0-0.7,0.6-1.3,1.3-1.3h15v-1.7c0-1.8,1.5-3.3,3.3-3.3h7.8V0.7C33.3,0.3,32.9,0,32.5,0z"/>
			</g>
		</g>
	</g>
</g>
<g id="Vacaciones" class="st0">
	<g class="st1">
		<g>
			<path class="st2" d="M11.1,11.1H2.4c-1.3,0-2.4,1.1-2.4,2.4v34.1C0,48.9,1.1,50,2.4,50h8.6L11.1,11.1z"/>
			<path class="st2" d="M55.6,11.1h-8.6V50h8.6c1.3,0,2.4-1.1,2.4-2.4V13.5C58,12.2,56.9,11.1,55.6,11.1z"/>
			<g>
				<circle class="st3" cx="23.5" cy="19.7" r="1.2"/>
				<path class="st3" d="M14.3,11.1V50h29.4V11.1H14.3z M30.2,33.5L19.1,22.5l1.3-6l6-1.3l11.1,11.1L30.2,33.5z"/>
			</g>
		</g>
		<path class="st3" d="M19.6,9.5V6.9c0-1.3,1.1-2.4,2.4-2.4H36c1.3,0,2.4,1.1,2.4,2.4v2.6h4.5V6.9C42.9,3.1,39.8,0,36,0H22
			c-3.8,0-6.9,3.1-6.9,6.9v2.6H19.6z"/>
	</g>
</g>
<g id="qdoc" class="st0">
	<g class="st1">
		<g>
			<g>
				<path class="st4" d="M28.6,4c0.6,0,1.3,0,1.9,0.1l0,0l-4.5-3.9C11.4,1.6,0.1,14,0,28.8l4.7-4.6l0.1,0.2C6.9,13,16.7,4.2,28.6,4z
					"/>
				<path class="st4" d="M4.5,29.3c0-0.6,0-1.2,0.1-1.8l0,0l-4.4,4.5C1.6,46.6,14,57.9,28.8,58l-4.6-4.4l0.1-0.1
					C13.2,51.3,4.6,41.4,4.5,29.3z"/>
				<path class="st4" d="M53,33.7L53,33.7C50.9,45,41.2,53.7,29.3,53.9c-0.6,0-1.2,0-1.9-0.1l0,0l4.5,4C46.6,56.4,57.9,44,58,29.2
					L53,33.7z"/>
				<path class="st4" d="M53.5,28.6c0,0.6,0,1.2-0.1,1.9l0.1,0.1l4.4-4.5C56.4,11.4,44,0.1,29.2,0l4.6,4.4l0,0.1
					C44.8,6.7,53.3,16.6,53.5,28.6z"/>
				<path class="st5" d="M25.9,9.3l4.6-5.2c-0.6,0-1.3-0.1-1.9-0.1C16.7,4.2,6.9,13,4.9,24.4l4.2,4.3C9.2,18.9,16.4,10.8,25.9,9.3z"
					/>
				<path class="st5" d="M9.3,32.1l-4.8-4.6c0,0.6-0.1,1.2-0.1,1.8c0.2,12,8.7,21.9,19.9,24.1l4.4-4.5C18.9,48.8,10.8,41.6,9.3,32.1
					z"/>
				<path class="st5" d="M53,33.7l-4.1-4.4c-0.1,9.8-7.4,17.9-16.8,19.4l-4.6,5.1c0.6,0,1.2,0.1,1.9,0.1C41.2,53.7,50.9,45,53,33.7z
					"/>
				<path class="st5" d="M48.7,25.9l4.7,4.6c0-0.6,0.1-1.2,0.1-1.9c-0.2-12-8.7-21.9-19.8-24.1l-4.4,4.6
					C39.1,9.2,47.2,16.4,48.7,25.9z"/>
			</g>
			<polygon class="st3" points="25.5,30.7 20.5,26.3 17.8,29.9 17.8,29.9 26.3,38.1 40.1,22.7 37.3,19.8 			"/>
		</g>
	</g>
</g>
<g id="RH" class="st0">
	<g class="st1">
		<path class="st3" d="M20,36.7c-2.4,1.2-5.1,2-7.9,2c-2.9,0-5.5-0.7-7.9-2C1.6,38.9,0,42.2,0,45.9V58h24.2V45.9
			C24.2,42.2,22.6,38.9,20,36.7z"/>
		<path class="st2" d="M52.2,31.9c-2.7,1.3-5.6,2-8.7,2c-3.1,0-6-0.7-8.7-2c-3.5,2.6-5.8,6.9-5.8,11.6V58h29V43.5
			C58,38.7,55.7,34.5,52.2,31.9z"/>
		<path class="st2" d="M12.1,9.5C5.4,9.5,0,14.9,0,21.6c0,4.7,2.7,8.8,6.6,10.8c0.5,0.3,1.1,0.5,1.7,0.7c1.2,0.4,2.5,0.6,3.9,0.6
			c1.4,0,2.7-0.2,3.9-0.6c0.6-0.2,1.1-0.4,1.7-0.7c3.9-2,6.6-6.1,6.6-10.8C24.2,14.9,18.8,9.5,12.1,9.5z"/>
		<path class="st3" d="M37.4,27.7c0.6,0.3,1.2,0.5,1.8,0.7c1.3,0.4,2.8,0.6,4.3,0.6c1.5,0,2.9-0.2,4.3-0.6c0.6-0.2,1.2-0.4,1.8-0.7
			c5-2.3,8.4-7.3,8.4-13.2C58,6.5,51.5,0,43.5,0C35.5,0,29,6.5,29,14.5C29,20.3,32.5,25.4,37.4,27.7z"/>
	</g>
</g>
<g id="_x39_11" class="st0">
	<g class="st1">
		<g>
			<path class="st3" d="M5.5,45l3.4-5.1c1.8,1.4,3.5,2.1,5.6,2.1c3,0,4.6-2.1,4.9-5.6c-1.3,1.3-3.2,2.2-5.5,2.2
				c-5,0-8.7-3.2-8.7-8.4v-0.1c0-5.9,4.4-9.7,10.3-9.7c3.8,0,6,1.1,8,3.1c1.9,1.9,3.1,4.9,3.1,9.9v0.1c0,8.7-4.2,14.7-12,14.7
				C10.7,48.1,7.9,46.9,5.5,45z M19.4,29.9L19.4,29.9c0-2.1-1.4-3.7-3.7-3.7c-2.3,0-3.6,1.5-3.6,3.6v0.1c0,2,1.4,3.5,3.7,3.5
				C18,33.3,19.4,31.8,19.4,29.9z"/>
			<path class="st3" d="M32,27.7l-4.4,1L26.3,23l7.6-2.2h5.2v26.8H32V27.7z"/>
			<path class="st3" d="M45.8,27.7l-4.4,1L40.1,23l7.6-2.2h5.2v26.8h-7.1V27.7z"/>
		</g>
	</g>
</g>
<g id="_x39_12" class="st0">
	<g class="st1">
		<path class="st2" d="M1.2,45.1L4.5,40c1.8,1.4,3.5,2.1,5.6,2.1c3,0,4.6-2.1,4.9-5.6c-1.3,1.3-3.2,2.2-5.5,2.2
			c-5,0-8.7-3.2-8.7-8.4v-0.1c0-5.9,4.4-9.7,10.3-9.7c3.8,0,6,1.1,8,3.1c1.9,1.9,3.1,4.9,3.1,9.9v0.1c0,8.7-4.2,14.7-12,14.7
			C6.4,48.2,3.5,47,1.2,45.1z M15.1,29.9L15.1,29.9c0-2.1-1.4-3.7-3.7-3.7c-2.3,0-3.6,1.5-3.6,3.6v0.1c0,2,1.4,3.5,3.7,3.5
			C13.7,33.4,15.1,31.9,15.1,29.9z"/>
		<path class="st2" d="M27.7,27.7l-4.4,1L22,23.1l7.6-2.2h5.2v26.8h-7.1V27.7z"/>
		<path class="st2" d="M36.7,42.1l9.7-7.6c2.4-1.9,3.3-3.2,3.3-4.8c0-1.7-1.1-2.7-2.9-2.7s-3.1,1-5.1,3.4l-4.9-4.1
			c2.8-3.7,5.5-5.7,10.6-5.7c5.7,0,9.6,3.5,9.6,8.5v0.1c0,4.3-2.1,6.5-6,9.3l-4.4,3.2h10.7v6H36.7V42.1z"/>
	</g>
</g>
<g id="Bitrix">
	<g>
		<path class="st6" d="M33.2,13.9c0,0,5.6-2.2,10.4,1.3c4.8,3.4,4.5,8.2,4.5,8.2s10.2,2.4,9.9,12C57.7,46.9,46.6,48,46.6,48l-35.1,0
			c0,0-11.4-1.9-11.4-12.4c0,0-1.2-9.1,8.2-12.6c0,0-0.8-10.8,8.7-14.2C17,8.8,27.1,4.8,33.2,13.9z"/>
		<circle class="st7" cx="29.2" cy="30.5" r="10.7"/>
		<g>
			<path class="st8" d="M33.9,33h-6c-0.7,0-1.3-0.6-1.3-1.3v-6.4c0-0.7,0.6-1.3,1.3-1.3s1.3,0.6,1.3,1.3v5.1h4.7
				c0.7,0,1.3,0.6,1.3,1.3C35.3,32.4,34.7,33,33.9,33z"/>
		</g>
	</g>
</g>
<g id="Quejas" class="st0">
	<g class="st1">
		<path class="st2" d="M48.3,0H9.7C4.3,0,0,4.3,0,9.7v29c0,5.3,4.3,9.7,9.7,9.7h9.7L29,58l9.7-9.7l6.9,0h2.7c5.3,0,9.7-4.3,9.7-9.7
			v-29C58,4.3,53.7,0,48.3,0z"/>
		<g>
			<path class="st7" d="M25.8,13.2c-0.1-1.1,0.5-1.9,1.4-1.9h3.5c1,0,1.5,0.8,1.4,1.9l-1.5,13.9c-0.1,1-0.8,1.6-1.7,1.6
				s-1.5-0.6-1.7-1.6L25.8,13.2z M29,31.2c1.8,0,3.1,1.4,3.1,3.1v0.1c0,1.8-1.3,3.1-3.1,3.1c-1.8,0-3.1-1.4-3.1-3.1v-0.1
				C25.9,32.6,27.2,31.2,29,31.2z"/>
		</g>
	</g>
</g>
</svg>
