<svg id="svg" version="1.1" width="500" height="500" xmlns="http://www.w3.org/2000/svg" xmlns:xlink="http://www.w3.org/1999/xlink" style="display: block;"><g id="svgg"><path id="path0" d="M115.600 79.720 C 236.195 197.511,238.400 199.683,238.400 200.700 C 238.400 201.046,235.610 203.987,232.200 207.234 C 228.790 210.482,211.960 226.855,194.800 243.620 C 177.640 260.384,157.340 280.198,149.688 287.650 C 142.036 295.103,128.356 308.481,119.288 317.379 L 102.800 333.559 140.400 333.571 L 178.000 333.584 185.600 326.283 C 189.780 322.268,201.151 311.201,210.868 301.691 C 270.311 243.518,289.050 225.196,301.065 213.501 L 314.530 200.394 287.105 173.597 C 237.711 125.335,223.904 111.828,206.436 94.684 C 196.956 85.380,186.501 75.210,183.201 72.084 L 177.202 66.400 139.601 66.418 L 102.000 66.436 115.600 79.720 " stroke="none" fill="#ffffff" fill-rule="evenodd"></path><path id="path1" d="M0.000 200.000 L 0.000 400.000 200.000 400.000 L 400.000 400.000 400.000 200.000 L 400.000 0.000 200.000 0.000 L 0.000 0.000 0.000 200.000 M189.211 74.872 C 195.365 80.852,212.971 98.042,228.336 113.072 C 243.700 128.103,263.829 147.780,273.066 156.800 C 300.585 183.673,316.800 199.935,316.800 200.662 C 316.800 201.039,313.110 204.888,308.600 209.217 C 304.090 213.545,285.280 231.898,266.800 250.001 C 248.320 268.104,228.205 287.750,222.099 293.658 C 215.994 299.566,206.051 309.260,200.004 315.200 C 193.958 321.140,186.660 328.250,183.788 331.000 L 178.566 336.000 139.776 336.000 C 101.758 336.000,100.978 335.968,100.571 334.412 C 100.244 333.160,103.886 329.227,117.795 315.812 C 127.496 306.455,140.727 293.580,147.196 287.200 C 160.856 273.730,185.420 249.713,215.110 220.800 L 236.058 200.400 223.829 188.526 C 217.103 181.995,198.100 163.426,181.600 147.261 C 165.100 131.097,145.532 111.960,138.115 104.736 C 98.987 66.623,98.724 66.342,100.533 64.533 C 100.827 64.240,118.382 64.000,139.544 64.000 L 178.022 64.000 189.211 74.872 " stroke="none" fill="#dc0d17" fill-rule="evenodd"></path><path id="path2" d="M100.533 64.533 C 99.461 65.606,100.044 67.790,101.800 69.276 C 103.598 70.798,103.599 70.798,102.200 69.137 C 98.439 64.669,97.321 64.800,139.285 64.800 L 177.771 64.800 183.685 70.535 C 186.938 73.690,189.600 76.012,189.600 75.697 C 189.600 75.381,186.990 72.630,183.800 69.584 L 178.000 64.044 139.533 64.022 C 118.377 64.010,100.827 64.240,100.533 64.533 M190.400 76.333 C 190.400 77.177,192.810 79.457,193.243 79.024 C 193.445 78.822,192.888 78.003,192.005 77.204 C 191.122 76.406,190.400 76.014,190.400 76.333 M211.190 97.001 C 218.005 103.930,223.867 109.600,224.217 109.600 C 224.567 109.600,223.635 108.430,222.146 107.000 C 220.657 105.570,214.795 99.900,209.119 94.401 C 199.558 85.136,199.710 85.327,211.190 97.001 M122.082 88.800 C 124.145 91.518,144.711 111.589,144.983 111.150 C 145.102 110.958,139.657 105.400,132.882 98.800 C 126.106 92.200,121.246 87.700,122.082 88.800 M236.800 122.400 C 237.815 123.280,238.826 124.000,239.046 124.000 C 239.267 124.000,238.796 123.280,238.000 122.400 C 237.204 121.520,236.193 120.800,235.754 120.800 C 235.314 120.800,235.785 121.520,236.800 122.400 M160.800 126.800 C 163.190 129.220,165.325 131.200,165.545 131.200 C 165.765 131.200,163.990 129.220,161.600 126.800 C 159.210 124.380,157.075 122.400,156.855 122.400 C 156.635 122.400,158.410 124.380,160.800 126.800 M252.359 137.376 C 256.737 141.871,260.465 145.402,260.644 145.223 C 260.823 145.044,260.089 144.065,259.013 143.048 C 257.938 142.032,254.209 138.501,250.729 135.202 C 245.518 130.264,245.806 130.648,252.359 137.376 M169.600 135.450 C 169.600 135.588,170.770 136.758,172.200 138.050 L 174.800 140.400 172.450 137.800 C 170.260 135.376,169.600 134.832,169.600 135.450 M263.200 147.351 C 263.200 147.950,294.317 178.746,295.253 179.072 C 295.682 179.222,288.796 172.202,279.950 163.472 C 271.105 154.742,263.718 147.450,263.534 147.267 C 263.350 147.083,263.200 147.121,263.200 147.351 M202.800 168.000 C 208.066 173.280,212.555 177.600,212.775 177.600 C 212.995 177.600,208.866 173.280,203.600 168.000 C 198.334 162.720,193.845 158.400,193.625 158.400 C 193.405 158.400,197.534 162.720,202.800 168.000 M220.800 185.236 C 220.800 185.476,221.642 186.466,222.671 187.436 C 223.699 188.406,227.209 191.719,230.471 194.798 C 235.153 199.218,234.805 198.755,228.816 192.598 C 221.263 184.832,220.800 184.407,220.800 185.236 M315.200 200.528 C 315.200 201.539,312.855 204.412,309.136 207.957 C 305.800 211.137,303.209 213.876,303.378 214.045 C 303.546 214.213,306.712 211.307,310.413 207.587 C 315.690 202.282,316.933 200.613,316.171 199.851 C 315.410 199.090,315.200 199.236,315.200 200.528 M230.594 205.623 C 227.841 208.250,225.872 210.400,226.219 210.400 C 226.566 210.400,228.988 208.240,231.600 205.600 C 237.715 199.420,237.078 199.434,230.594 205.623 M292.385 224.200 L 284.400 232.400 292.600 224.415 C 300.216 216.999,301.164 216.000,300.585 216.000 C 300.467 216.000,296.777 219.690,292.385 224.200 M212.400 223.200 C 211.604 224.080,211.133 224.800,211.354 224.800 C 211.574 224.800,212.585 224.080,213.600 223.200 C 214.615 222.320,215.086 221.600,214.646 221.600 C 214.207 221.600,213.196 222.320,212.400 223.200 M197.366 238.114 C 193.058 242.341,189.656 245.923,189.807 246.074 C 189.958 246.225,193.656 242.760,198.026 238.374 C 202.395 233.988,205.797 230.406,205.585 230.414 C 205.373 230.422,201.675 233.887,197.366 238.114 M279.550 237.000 L 277.200 239.600 279.800 237.250 C 281.230 235.958,282.400 234.788,282.400 234.650 C 282.400 234.032,281.740 234.576,279.550 237.000 M186.804 247.995 C 186.006 248.878,185.614 249.600,185.933 249.600 C 186.777 249.600,189.057 247.190,188.624 246.757 C 188.422 246.555,187.603 247.112,186.804 247.995 M261.996 253.605 C 259.917 255.902,260.839 256.159,263.028 253.893 C 264.034 252.852,264.540 252.000,264.152 252.000 C 263.765 252.000,262.794 252.722,261.996 253.605 M168.705 266.013 C 161.833 272.826,156.438 278.400,156.715 278.400 C 156.992 278.400,162.791 272.820,169.600 266.000 C 176.409 259.180,181.805 253.606,181.590 253.613 C 181.376 253.620,175.577 259.200,168.705 266.013 M244.987 270.533 C 237.829 277.632,232.086 283.553,232.225 283.691 C 232.363 283.829,238.395 278.015,245.629 270.771 C 252.863 263.527,258.606 257.606,258.391 257.613 C 258.176 257.620,252.144 263.434,244.987 270.533 M219.560 295.400 C 214.302 300.761,210.261 304.958,210.580 304.727 C 212.267 303.506,229.627 286.161,229.395 285.928 C 229.244 285.778,224.819 290.040,219.560 295.400 M127.585 306.600 L 119.600 314.800 127.800 306.815 C 135.416 299.399,136.364 298.400,135.785 298.400 C 135.667 298.400,131.977 302.090,127.585 306.600 M108.689 324.627 C 103.002 330.409,100.365 333.656,100.587 334.600 C 100.936 336.078,179.200 336.875,179.200 335.400 C 179.200 335.070,161.781 334.897,140.492 335.015 C 107.476 335.198,101.718 335.061,101.342 334.083 C 101.062 333.351,103.950 329.989,109.316 324.800 C 113.944 320.325,117.593 316.526,117.425 316.359 C 117.257 316.191,113.326 319.911,108.689 324.627 M183.200 330.800 C 181.257 332.780,179.847 334.400,180.067 334.400 C 180.287 334.400,182.057 332.780,184.000 330.800 C 185.943 328.820,187.353 327.200,187.133 327.200 C 186.913 327.200,185.143 328.820,183.200 330.800 " stroke="none" fill="#e12f37" fill-rule="evenodd"></path><path id="path3" d="M100.800 65.400 C 100.799 65.945,129.568 65.935,164.400 65.377 C 171.880 65.258,160.630 65.079,139.400 64.980 C 118.170 64.881,100.800 65.070,100.800 65.400 M203.497 90.400 C 217.096 103.820,228.622 114.949,229.111 115.132 C 229.600 115.314,228.380 113.924,226.400 112.043 C 224.420 110.162,215.240 101.212,206.000 92.155 C 196.760 83.098,186.854 73.508,183.986 70.844 C 181.119 68.180,189.899 76.980,203.497 90.400 M105.200 72.000 C 107.812 74.640,110.130 76.800,110.350 76.800 C 110.570 76.800,108.612 74.640,106.000 72.000 C 103.388 69.360,101.070 67.200,100.850 67.200 C 100.630 67.200,102.588 69.360,105.200 72.000 M127.541 93.691 C 136.668 102.661,144.450 110.115,144.835 110.256 C 145.220 110.397,138.150 103.197,129.122 94.256 C 120.095 85.315,112.313 77.861,111.828 77.691 C 111.343 77.521,118.414 84.721,127.541 93.691 M162.471 127.784 C 171.728 136.905,179.548 144.541,179.850 144.754 C 180.153 144.967,172.843 137.504,163.607 128.170 C 154.371 118.837,146.550 111.200,146.228 111.200 C 145.906 111.200,153.215 118.663,162.471 127.784 M230.568 117.000 C 234.039 120.208,235.515 121.082,233.250 118.587 C 231.958 117.164,230.582 116.000,230.193 116.000 C 229.804 116.000,229.973 116.450,230.568 117.000 M250.391 136.229 C 257.646 143.583,263.826 149.600,264.125 149.600 C 264.588 149.600,239.253 124.284,237.735 123.229 C 237.441 123.024,243.136 128.874,250.391 136.229 M185.600 149.805 C 185.600 150.339,203.758 168.304,227.000 190.765 C 237.815 201.217,237.704 199.737,228.350 208.683 C 224.142 212.707,220.999 216.000,221.366 216.000 C 222.343 216.000,236.800 201.318,236.800 200.325 C 236.800 199.861,231.310 194.137,224.600 187.606 C 217.890 181.075,206.370 169.766,199.000 162.475 C 191.630 155.183,185.600 149.482,185.600 149.805 M282.048 167.332 C 291.539 176.719,299.642 184.521,300.055 184.668 C 300.469 184.815,293.042 177.255,283.552 167.868 C 274.061 158.481,265.958 150.679,265.545 150.532 C 265.131 150.385,272.558 157.945,282.048 167.332 M307.943 192.600 C 311.714 196.450,314.961 199.499,315.158 199.375 C 315.583 199.109,302.250 185.600,301.561 185.600 C 301.300 185.600,304.172 188.750,307.943 192.600 M309.738 206.420 C 306.954 209.049,304.985 211.200,305.363 211.200 C 305.741 211.200,308.188 209.040,310.800 206.400 C 316.905 200.230,316.280 200.242,309.738 206.420 M286.793 228.970 C 277.557 238.304,270.243 245.774,270.540 245.570 C 271.968 244.591,304.551 212.000,304.102 212.000 C 303.818 212.000,296.029 219.637,286.793 228.970 M217.150 219.387 C 215.265 221.463,215.191 221.661,216.775 220.387 C 220.012 217.786,220.955 216.800,220.207 216.800 C 219.818 216.800,218.442 217.964,217.150 219.387 M198.000 238.172 C 190.080 245.945,176.337 259.436,167.460 268.152 C 158.582 276.869,151.562 283.985,151.860 283.967 C 152.499 283.929,213.384 224.067,212.800 224.050 C 212.580 224.044,205.920 230.399,198.000 238.172 M233.514 281.068 C 214.766 299.621,199.527 314.800,199.650 314.800 C 199.772 314.800,207.746 307.060,217.369 297.600 C 226.993 288.140,242.343 273.071,251.480 264.113 C 260.617 255.155,267.982 247.716,267.846 247.581 C 267.711 247.447,252.261 262.516,233.514 281.068 M147.550 287.387 C 145.665 289.463,145.591 289.661,147.175 288.387 C 150.412 285.786,151.355 284.800,150.607 284.800 C 150.218 284.800,148.842 285.964,147.550 287.387 M128.647 306.020 C 120.863 313.709,114.747 320.000,115.056 320.000 C 115.365 320.000,121.909 313.700,129.600 306.000 C 137.291 298.300,143.407 292.009,143.191 292.020 C 142.976 292.030,136.431 298.330,128.647 306.020 M187.987 325.392 C 182.934 330.557,180.741 332.987,183.113 330.792 C 190.858 323.624,198.424 316.000,197.793 316.000 C 197.452 316.000,193.040 320.226,187.987 325.392 M107.073 327.000 C 103.724 330.410,101.152 333.650,101.359 334.200 C 101.653 334.985,110.031 335.159,140.267 335.008 L 178.800 334.816 140.600 334.600 C 96.740 334.353,99.424 335.028,108.449 326.510 C 111.775 323.369,114.197 320.800,113.830 320.800 C 113.463 320.800,110.422 323.590,107.073 327.000 " stroke="none" fill="#e54c53" fill-rule="evenodd"></path><path id="path4" d="M101.270 66.287 C 101.036 66.665,103.625 69.624,107.023 72.864 C 112.661 78.240,160.308 124.725,196.800 160.451 C 204.940 168.421,217.270 180.455,224.200 187.196 C 231.130 193.936,236.800 199.879,236.800 200.403 C 236.800 200.926,232.390 205.610,227.000 210.811 C 221.610 216.012,209.098 228.218,199.196 237.934 C 161.163 275.254,116.104 319.245,109.400 325.602 C 99.275 335.203,96.432 334.400,140.561 334.400 L 178.722 334.400 188.761 324.617 C 194.282 319.236,207.980 305.840,219.200 294.848 C 230.420 283.856,246.080 268.536,254.000 260.802 C 313.451 202.749,315.297 200.876,314.515 199.414 C 314.095 198.631,310.388 194.771,306.276 190.837 C 299.171 184.039,251.847 137.855,215.600 102.345 C 206.360 93.293,194.120 81.331,188.400 75.763 L 178.000 65.640 139.847 65.620 C 118.863 65.609,101.503 65.909,101.270 66.287 M183.201 72.084 C 186.501 75.210,196.956 85.380,206.436 94.684 C 223.904 111.828,237.711 125.335,287.105 173.597 L 314.530 200.394 301.065 213.501 C 289.050 225.196,270.311 243.518,210.868 301.691 C 201.151 311.201,189.780 322.268,185.600 326.283 L 178.000 333.584 140.400 333.571 L 102.800 333.559 119.288 317.379 C 128.356 308.481,142.036 295.103,149.688 287.650 C 157.340 280.198,177.640 260.384,194.800 243.620 C 211.960 226.855,228.790 210.482,232.200 207.234 C 235.610 203.987,238.400 201.046,238.400 200.700 C 238.400 199.683,236.195 197.511,115.600 79.720 L 102.000 66.436 139.601 66.418 L 177.202 66.400 183.201 72.084 " stroke="none" fill="#f19da1" fill-rule="evenodd"></path></g></svg>