<?xml version="1.0" standalone="no"?>
<!DOCTYPE svg PUBLIC "-//W3C//DTD SVG 20010904//EN"
 "http://www.w3.org/TR/2001/REC-SVG-20010904/DTD/svg10.dtd">
<svg version="1.0" xmlns="http://www.w3.org/2000/svg"
 width="512.000000pt" height="512.000000pt" viewBox="0 0 512.000000 512.000000"
 preserveAspectRatio="xMidYMid meet">

<g transform="translate(0.000000,512.000000) scale(0.100000,-0.100000)"
fill="#000000" stroke="none">
<path d="M1830 4016 l0 -93 83 -7 c166 -13 245 -48 274 -124 17 -44 18 -111
18 -1232 0 -934 -3 -1193 -13 -1221 -27 -78 -91 -109 -260 -130 l-102 -12 0
-94 0 -93 735 0 735 0 0 93 0 94 -102 12 c-169 21 -233 52 -260 130 -10 28
-13 287 -13 1221 0 1121 1 1188 18 1232 29 76 108 111 275 124 l82 7 0 93 0
94 -735 0 -735 0 0 -94z"/>
</g>
</svg>
