<svg width="180" height="65" viewBox="0 0 180 65" xmlns="http://www.w3.org/2000/svg"><title>logo disruptive</title><path d="M26.137 12.148c14.412 0 26.136 11.724 26.136 26.134 0 14.413-11.724 26.138-26.136 26.138C11.724 64.42 0 52.695 0 38.282c0-14.41 11.724-26.134 26.137-26.134zm0 47.278c11.657 0 21.142-9.485 21.142-21.144 0-11.656-9.485-21.14-21.142-21.14-11.658 0-21.143 9.484-21.143 21.14 0 11.659 9.485 21.144 21.143 21.144zm-8.77-27.257a4.435 4.435 0 1 1-.004 8.871 4.435 4.435 0 0 1 .003-8.87zm17.518 0a4.436 4.436 0 1 1 0 8.872 4.436 4.436 0 0 1 0-8.872zM10.146 6.848c-1.689-.357-3.472-.915-3.9-2.356-.181-.612-.324-2.13 2.27-3.017C12.332.17 21.886-.116 28.911.038c15.994.347 16.751 2.296 17.074 3.128.25.643.123 1.352-.339 1.896-1.631 1.919-11.697 2.702-20.944 2.702-6.088 0-11.82-.339-14.556-.916zm30.677-3.014c-6.964 1.259-24.388 1.355-30.175.107C16.492 2.67 33.9 2.643 40.823 3.834zm31.244 23.838c0 4.112-2.563 6.809-6.561 6.809h-4.705V20.9h4.705c4.362 0 6.561 3.022 6.561 6.77zm-9.545-5.241h2.984c3.08 0 4.82 2.18 4.82 5.24 0 3.003-1.683 5.28-4.82 5.28h-2.984V22.43zm13.164 12.05V20.92h1.72v13.56h-1.72zm10.96-7.536c2.83.631 4.59 1.434 4.59 3.883 0 2.62-2.142 3.787-4.935 3.787-2.084 0-3.997-.669-5.527-1.913l.822-1.453c.823.86 2.678 1.817 4.743 1.817 1.933 0 3.06-.708 3.06-2.066 0-1.53-1.396-1.99-3.92-2.602-2.755-.669-4.189-1.415-4.189-3.575 0-2.602 2.066-4.018 4.877-4.018 1.817 0 3.31.613 4.457 1.55l-.803 1.396c-.631-.708-2.066-1.416-3.692-1.416-2.104 0-3.06.842-3.06 2.219 0 1.454 1.129 1.836 3.577 2.391zm18.44-1.702c0 1.894-1.128 3.596-2.85 4.035l3.29 5.203h-1.95l-3.099-4.877h-3.596v4.877H95.16v-13.58h5.816c2.39 0 4.112 2.2 4.112 4.342zm-8.205 2.83v-5.642h3.998c1.32 0 2.468 1.282 2.468 2.812 0 1.491-.938 2.83-2.353 2.83H96.88zm21.502-.306V20.9h1.722v6.867c0 3.673-1.607 6.81-5.778 6.81-4.322 0-5.795-3.329-5.795-6.81V20.9h1.721v6.867c0 2.678.956 5.261 4.055 5.261 3.157 0 4.075-2.66 4.075-5.26zm11.574-6.866c2.39 0 4.113 2.2 4.113 4.342 0 2.237-1.607 4.36-3.997 4.36h-4.056v4.878h-1.72v-13.58h5.66zm.02 7.173h-3.96V22.43h3.845c1.32 0 2.467 1.205 2.467 2.812 0 1.55-.937 2.83-2.352 2.83zm6.007-5.643V20.9h11.093v1.53h-4.685v12.05h-1.722V22.43h-4.686zm14.214 12.05V20.92h1.722v13.56h-1.722zm11.44-2.161l4.475-11.42h1.817l-5.547 13.581h-1.492l-5.566-13.58h1.817l4.495 11.419zm10.865.63h7.499v1.531h-9.22v-13.58h9.047v1.53h-7.326v4.399h6.37v1.435h-6.37v4.686zM86.345 50.665v-9.207h2.73v14.037H86.86l-7.227-9.009v9.009H76.9V41.437h2.118l7.326 9.227zm13.642-.396v-2h5.09v7.225h-2.258V53.91c-1.109 1.149-2.316 1.683-3.743 1.683-3.604 0-6.492-3.444-6.492-7.206 0-3.84 2.87-7.047 6.672-7.047 2.553 0 4.434 1.208 5.344 3.068l-2.039 1.505c-.673-1.386-1.96-2.158-3.405-2.158-2.296 0-3.821 2.178-3.821 4.712 0 2.653 1.683 4.711 3.979 4.711 1.287 0 2.455-.633 3.505-1.92v-.99h-2.832zm12.159-.832v3.662h7.028v2.395h-9.76V41.437h9.582v2.396h-6.85v3.385h5.92v2.218h-5.92zm13.94-8v11.662h7.166v2.396h-9.898V41.437h2.732zm15.661 5.88c2.77.714 4.514 1.585 4.514 4.16 0 3.028-2.435 4.176-5.207 4.176-2.099 0-4.277-.673-5.9-1.822l1.207-2.355c.476.476 2.594 1.723 4.733 1.723 1.484 0 2.256-.515 2.256-1.446 0-1.248-1.445-1.603-3.642-2.198-2.673-.732-3.98-1.643-3.98-3.8 0-2.87 2.278-4.415 5.127-4.415 1.96 0 3.684.732 4.91 1.563l-1.207 2.217c-.356-.395-2.099-1.385-3.782-1.385-1.484 0-2.236.573-2.236 1.583 0 1.149 1.089 1.446 3.207 2zm-75.677-5.88h2.217l5.524 14.058h-2.892l-3.742-11.107-3.76 11.107h-2.892l5.545-14.057z" fill="#3899B5" fill-rule="evenodd"/></svg>