<svg id="svg" version="1.1" width="500" height="500" xmlns="http://www.w3.org/2000/svg" xmlns:xlink="http://www.w3.org/1999/xlink" style="display: block;"><g id="svgg"><path id="path0" d="" stroke="none" fill="#3795b7" fill-rule="evenodd"></path><path id="path1" d="M110.750 142.600 L 108.400 145.200 111.000 142.850 C 113.424 140.660,113.968 140.000,113.350 140.000 C 113.212 140.000,112.042 141.170,110.750 142.600 M110.800 316.000 C 112.519 317.760,114.105 319.200,114.325 319.200 C 114.545 319.200,113.319 317.760,111.600 316.000 C 109.881 314.240,108.295 312.800,108.075 312.800 C 107.855 312.800,109.081 314.240,110.800 316.000 " stroke="none" fill="#3898b3" fill-rule="evenodd"></path><path id="path2" d="M168.800 48.846 C 139.461 50.005,120.032 52.660,112.540 56.534 C 101.005 62.500,103.242 74.111,116.800 78.640 C 144.922 88.035,261.096 85.926,283.779 75.609 C 298.312 68.998,290.829 56.090,270.800 53.221 C 269.040 52.969,267.060 52.611,266.400 52.427 C 265.740 52.242,263.040 51.883,260.400 51.629 C 257.760 51.374,254.520 51.003,253.200 50.805 C 239.505 48.746,196.561 47.749,168.800 48.846 M236.400 63.622 C 250.905 64.749,260.867 65.800,260.501 66.165 C 259.958 66.709,250.522 67.938,242.800 68.472 C 238.840 68.745,232.540 69.233,228.800 69.555 C 217.876 70.495,166.252 70.541,153.600 69.622 C 142.020 68.780,127.748 67.178,128.175 66.767 C 128.570 66.387,133.825 65.652,139.600 65.170 C 142.680 64.913,145.705 64.535,146.323 64.329 C 146.940 64.124,153.420 63.738,160.723 63.472 C 168.025 63.205,174.180 62.809,174.400 62.591 C 174.819 62.176,229.477 63.085,236.400 63.622 M187.200 106.946 C 181.072 107.579,171.941 109.163,167.200 110.415 C 165.660 110.821,164.040 111.205,163.600 111.266 C 145.166 113.855,110.925 138.973,96.621 160.400 C 91.515 168.049,83.200 184.269,83.200 186.581 C 83.200 187.186,82.862 188.022,82.448 188.440 C 82.034 188.858,81.511 190.100,81.285 191.200 C 81.059 192.300,80.333 194.915,79.672 197.011 C 79.011 199.106,78.482 201.002,78.496 201.224 C 78.510 201.445,78.321 202.611,78.077 203.813 C 74.655 220.657,74.658 239.790,78.086 254.400 C 78.344 255.500,78.720 257.300,78.922 258.400 C 79.617 262.195,81.779 269.202,82.489 269.960 C 82.880 270.378,83.205 271.278,83.212 271.960 C 83.324 284.131,117.229 326.138,132.400 332.904 C 133.280 333.296,135.440 334.527,137.200 335.640 C 139.950 337.378,144.531 339.636,150.800 342.345 C 151.680 342.726,153.785 343.647,155.478 344.393 C 172.145 351.736,203.510 353.898,224.000 349.117 C 227.932 348.199,228.823 347.995,230.538 347.619 C 255.699 342.109,283.610 321.791,300.352 296.800 C 308.456 284.703,316.233 266.526,317.935 255.707 C 318.202 254.005,318.559 252.385,318.727 252.107 C 321.335 247.784,320.807 215.135,317.922 202.400 C 304.400 142.709,246.961 100.767,187.200 106.946 M216.400 134.013 C 224.404 135.623,223.589 135.418,228.800 137.129 C 245.398 142.576,261.276 153.745,274.423 169.219 C 299.065 198.225,301.698 246.752,280.457 280.400 C 266.490 302.525,241.609 320.034,218.000 324.352 C 203.129 327.072,191.575 326.884,175.600 323.661 C 173.196 323.176,164.765 320.505,162.000 319.353 C 103.396 294.933,82.854 224.458,119.283 172.800 C 131.274 155.797,153.824 139.965,172.400 135.506 C 173.720 135.190,174.980 134.880,175.200 134.819 C 175.732 134.670,186.162 132.929,189.200 132.481 C 193.744 131.812,210.012 132.728,216.400 134.013 M145.200 202.322 C 132.161 208.382,129.267 226.190,139.702 236.161 C 152.866 248.741,174.607 239.456,174.597 221.259 C 174.591 209.228,166.126 200.835,154.000 200.835 C 150.223 200.835,147.358 201.319,145.200 202.322 M230.000 202.322 C 216.961 208.382,214.067 226.190,224.502 236.161 C 237.709 248.782,259.300 239.540,259.300 221.266 C 259.300 209.106,251.001 200.835,238.800 200.835 C 235.023 200.835,232.158 201.319,230.000 202.322 " stroke="none" fill="#389ab5" fill-rule="evenodd"></path><path id="path3" d="M127.200 295.450 C 127.200 295.588,128.370 296.758,129.800 298.050 L 132.400 300.400 130.050 297.800 C 127.860 295.376,127.200 294.832,127.200 295.450 " stroke="none" fill="#3a9cad" fill-rule="evenodd"></path><path id="path4" d="M176.614 48.580 C 178.052 48.758,180.212 48.754,181.414 48.572 C 182.616 48.389,181.440 48.243,178.800 48.248 C 176.160 48.252,175.176 48.402,176.614 48.580 M208.614 48.580 C 210.052 48.758,212.212 48.754,213.414 48.572 C 214.616 48.389,213.440 48.243,210.800 48.248 C 208.160 48.252,207.176 48.402,208.614 48.580 M176.614 62.980 C 178.052 63.158,180.212 63.154,181.414 62.972 C 182.616 62.789,181.440 62.643,178.800 62.648 C 176.160 62.652,175.176 62.802,176.614 62.980 M208.614 62.980 C 210.052 63.158,212.212 63.154,213.414 62.972 C 214.616 62.789,213.440 62.643,210.800 62.648 C 208.160 62.652,207.176 62.802,208.614 62.980 M214.600 70.151 C 215.370 70.353,216.630 70.353,217.400 70.151 C 218.170 69.950,217.540 69.786,216.000 69.786 C 214.460 69.786,213.830 69.950,214.600 70.151 M215.400 84.551 C 216.170 84.753,217.430 84.753,218.200 84.551 C 218.970 84.350,218.340 84.186,216.800 84.186 C 215.260 84.186,214.630 84.350,215.400 84.551 M152.609 200.566 C 153.604 200.757,155.044 200.750,155.809 200.550 C 156.574 200.349,155.760 200.193,154.000 200.202 C 152.240 200.211,151.614 200.374,152.609 200.566 M237.409 200.566 C 238.404 200.757,239.844 200.750,240.609 200.550 C 241.374 200.349,240.560 200.193,238.800 200.202 C 237.040 200.211,236.414 200.374,237.409 200.566 M101.063 229.200 C 101.066 232.280,101.211 233.442,101.384 231.782 C 101.557 230.122,101.554 227.602,101.377 226.182 C 101.201 224.762,101.059 226.120,101.063 229.200 " stroke="none" fill="#379bb2" fill-rule="evenodd"></path></g></svg>