<?xml version="1.0" encoding="UTF-8" standalone="no"?>
<!-- Created with Inkscape (http://www.inkscape.org/) -->

<svg
   xmlns:dc="http://purl.org/dc/elements/1.1/"
   xmlns:cc="http://creativecommons.org/ns#"
   xmlns:rdf="http://www.w3.org/1999/02/22-rdf-syntax-ns#"
   xmlns:svg="http://www.w3.org/2000/svg"
   xmlns="http://www.w3.org/2000/svg"
   xmlns:sodipodi="http://sodipodi.sourceforge.net/DTD/sodipodi-0.dtd"
   xmlns:inkscape="http://www.inkscape.org/namespaces/inkscape"
   id="svg3355"
   version="1.1"
   inkscape:version="0.91 r13725"
   xml:space="preserve"
   width="1024px"
   height="1024px"
   viewBox="0 0 275.02499 275.02499"
   sodipodi:docname="Teamwork.com TW Icon Dark.eps"><metadata
     id="metadata3361"><rdf:RDF><cc:Work
         rdf:about=""><dc:format>image/svg+xml</dc:format><dc:type
           rdf:resource="http://purl.org/dc/dcmitype/StillImage" /><dc:title></dc:title></cc:Work></rdf:RDF></metadata><defs
     id="defs3359" /><sodipodi:namedview
     pagecolor="#ffffff"
     bordercolor="#666666"
     borderopacity="1"
     objecttolerance="10"
     gridtolerance="10"
     guidetolerance="10"
     inkscape:pageopacity="0"
     inkscape:pageshadow="2"
     inkscape:window-width="1920"
     inkscape:window-height="1025"
     id="namedview3357"
     showgrid="false"
     inkscape:zoom="3.0324517"
     inkscape:cx="137.5125"
     inkscape:cy="137.5125"
     inkscape:window-x="0"
     inkscape:window-y="27"
     inkscape:window-maximized="1"
     inkscape:current-layer="g3363" /><g
     id="g3363"
     inkscape:groupmode="layer"
     inkscape:label="ink_ext_XXXXXX"
     transform="matrix(1.25,0,0,-1.25,0,275.025)"><g
       id="g3365"
       transform="scale(0.1,0.1)"><path
         d="m 2199.8,1589.49 c -0.33,35.1 -0.54,49.4 -0.85,66.02 -0.96,49.37 -4.15,99.32 -12.52,143.93 -9.16,48.65 -21.56,92.85 -43.97,137.07 -22.73,44.87 -53.92,83.66 -87.69,118.26 -34.6,33.77 -73.38,64.96 -118.27,87.69 -44.21,22.42 -88.4,34.81 -137.07,43.96 -44.61,8.38 -94.57,11.57 -143.91,12.52 -16.62,0.32 -30.93,0.54 -66.05,0.86 -33.32,0.31 -60.68,0.43 -80.84,0.43 l -817.032,0 c -20.16,0 -47.52,-0.12 -80.852,-0.43 -35.117,-0.32 -49.414,-0.54 -66.039,-0.86 -49.352,-0.95 -99.301,-4.14 -143.914,-12.52 -48.66,-9.15 -92.855,-21.54 -137.078,-43.96 -44.871,-22.73 -83.656,-53.92 -118.25,-87.69 -33.781,-34.6 -64.9689,-73.39 -87.7072,-118.26 C 35.3555,1892.29 22.9531,1848.09 13.8086,1799.44 5.42578,1754.83 2.23047,1704.88 1.28516,1655.51 0.972656,1638.89 0.75,1624.59 0.425781,1589.49 0.117188,1556.16 0,1528.79 0,1508.64 L 0,691.602 C 0,671.441 0.117188,644.078 0.425781,610.75 0.75,575.629 0.972656,561.328 1.28516,544.711 2.23047,495.359 5.42578,445.41 13.8086,400.801 22.9531,352.129 35.3555,307.941 57.7578,263.73 80.4961,218.84 111.684,180.059 145.465,145.461 180.059,111.691 218.844,80.5 263.715,57.7617 307.938,35.3594 352.133,22.9492 400.793,13.8086 445.406,5.42969 495.355,2.23047 544.707,1.28125 561.332,0.960938 575.629,0.761719 610.746,0.429688 644.078,0.109375 671.438,0 691.598,0 l 817.032,0 c 20.16,0 47.52,0.109375 80.84,0.429688 35.12,0.332031 49.43,0.53125 66.05,0.851562 49.34,0.94922 99.3,4.14844 143.91,12.52735 48.67,9.1406 92.86,21.5508 137.07,43.9531 44.89,22.7383 83.67,53.9293 118.27,87.6993 33.77,34.598 64.96,73.379 87.69,118.269 22.41,44.211 34.81,88.399 43.97,137.071 8.37,44.609 11.56,94.558 12.52,143.91 0.31,16.617 0.52,30.918 0.85,66.039 0.32,33.328 0.43,60.691 0.43,80.852 l 0,817.038 c 0,20.15 -0.11,47.52 -0.43,80.85"
         style="fill:#303f5c;fill-opacity:1;fill-rule:nonzero;stroke:none"
         id="path3367"
         inkscape:connector-curvature="0" /><path
         d="m 1054.78,1459.03 c 7.01,-13.33 16.2,-25.54 26.92,-36 10.68,-10.4 22.86,-19.08 35.9,-25.39 12.97,-6.29 26.77,-10.23 40.77,-11.26 13.93,-1 26.75,0.97 38.02,5.38 11.21,4.41 20.89,11.22 28.61,19.95 7.68,8.71 13.43,19.3 16.79,31.31 3.36,11.98 4.34,25.36 2.51,39.68 -1.83,14.33 -6.31,28.24 -12.85,41.18 -6.58,12.96 -15.23,24.96 -25.39,35.36 -10.2,10.46 -21.92,19.34 -34.6,26.01 -12.73,6.71 -26.43,11.18 -40.48,12.79 -14.12,1.62 -27.27,0.19 -38.95,-3.82 -11.73,-4.03 -21.94,-10.64 -30.15,-19.33 -8.24,-8.73 -14.44,-19.53 -18.1,-31.91 -3.66,-12.38 -4.76,-26.3 -2.8,-41.22 1.95,-14.91 6.77,-29.37 13.8,-42.73 z m 778.68,-651.901 c -0.1,2.473 -0.22,4.91 -0.35,7.359 -0.63,11.203 -1.7,22.313 -3.02,33.434 -1.32,11.109 -2.88,22.207 -4.51,33.398 -1.63,11.2 -3.31,22.469 -4.87,33.91 l -21.16,165.89 -21.85,171.42 c -0.81,6.12 -1.94,11.85 -3.36,17.22 -1.43,5.37 -3.17,10.38 -5.2,15.04 -2.03,4.67 -4.36,8.97 -6.97,12.97 -2.62,3.98 -5.52,7.65 -8.69,10.98 -3.28,3.46 -6.87,6.59 -10.73,9.38 -3.88,2.8 -8.03,5.29 -12.47,7.47 -4.44,2.18 -9.17,4.05 -14.15,5.65 -5.01,1.58 -10.28,2.88 -15.82,3.88 -2.17,0.4 -4.35,0.75 -6.54,1.1 -2.18,0.34 -4.37,0.66 -6.55,0.98 -2.2,0.31 -4.39,0.64 -6.59,0.97 -2.19,0.33 -4.4,0.68 -6.59,1.06 -1.52,0.26 -3.01,0.49 -4.48,0.72 -1.46,0.21 -2.9,0.42 -4.31,0.59 -1.4,0.18 -2.77,0.33 -4.12,0.47 -1.34,0.13 -2.66,0.25 -3.95,0.34 -5.23,0.37 -9.97,0.37 -14.27,-0.04 -4.3,-0.41 -8.15,-1.23 -11.56,-2.53 -3.43,-1.27 -6.42,-3.03 -9.01,-5.3 -2.57,-2.26 -4.76,-5.05 -6.55,-8.39 -1.36,-2.53 -2.51,-5.38 -3.44,-8.57 -0.92,-3.19 -1.65,-6.73 -2.17,-10.63 -0.53,-3.88 -0.86,-8.14 -1,-12.78 -0.14,-4.63 -0.09,-9.65 0.14,-15.06 l 19.29,-204.45 c 0,0 1.7,-17.4 4.28,-43.87 2.58,-26.45 6.05,-61.951 9.57,-98.201 3.53,-36.211 7.11,-73.168 9.96,-102.578 2.84,-29.402 4.94,-51.289 5.5,-57.402 0.78,-8.688 1.8,-16.399 2.55,-23.137 0.75,-6.731 1.25,-12.512 1.01,-17.34 -0.23,-4.82 -1.19,-8.711 -3.36,-11.684 -2.18,-2.968 -5.58,-5.019 -10.67,-6.168 -0.09,-0.019 -0.17,-0.039 -0.26,-0.05 -0.1,-0.02 -0.18,-0.032 -0.28,-0.039 -0.07,-0.02 -0.16,-0.032 -0.25,-0.039 -0.09,-0.012 -0.18,-0.02 -0.25,-0.02 -3.97,-0.273 -7.16,3.109 -9.73,8.316 -2.56,5.243 -4.49,12.313 -5.92,19.422 -1.44,7.121 -2.37,14.25 -2.95,19.621 -0.58,5.368 -0.8,8.957 -0.8,8.957 -1.8,15.563 -3.94,34.161 -6.35,55.262 -2.4,21.121 -5.07,44.75 -7.95,70.32 -2.87,25.602 -5.95,53.141 -9.16,82.098 -3.2,28.982 -6.54,59.362 -9.94,90.602 -1.21,11.18 -2.42,22.28 -3.61,33.22 -1.19,10.95 -2.38,21.74 -3.54,32.31 -1.15,10.56 -2.28,20.9 -3.37,30.94 -1.11,10.04 -2.18,19.76 -3.22,29.13 -1,9.13 -2.52,17.88 -4.67,26.14 -2.17,8.27 -4.99,16.07 -8.62,23.3 -3.62,7.23 -8.06,13.9 -13.49,19.89 -5.43,6.01 -11.86,11.36 -19.43,15.95 -0.83,0.5 -1.67,0.99 -2.51,1.48 -0.85,0.48 -1.71,0.96 -2.58,1.44 -0.87,0.47 -1.75,0.93 -2.66,1.38 -0.91,0.44 -1.83,0.87 -2.77,1.3 -6.15,2.8 -12.37,5.02 -18.63,6.84 -6.28,1.83 -12.6,3.26 -18.96,4.5 -6.37,1.24 -12.78,2.29 -19.2,3.34 -6.45,1.04 -12.9,2.07 -19.37,3.32 -1.88,0.36 -3.76,0.7 -5.59,1 -1.84,0.29 -3.65,0.57 -5.42,0.79 -1.79,0.23 -3.55,0.44 -5.27,0.6 -1.73,0.17 -3.42,0.31 -5.09,0.41 -6.1,0.36 -11.8,0.28 -17.13,-0.25 -5.34,-0.53 -10.28,-1.5 -14.83,-2.94 -4.57,-1.44 -8.73,-3.33 -12.48,-5.68 -3.77,-2.36 -7.13,-5.17 -10.07,-8.45 -3.23,-3.57 -5.95,-7.7 -8.19,-12.39 -2.23,-4.69 -3.95,-9.93 -5.18,-15.73 -1.21,-5.81 -1.93,-12.17 -2.12,-19.09 -0.2,-6.92 0.12,-14.4 0.97,-22.43 1.33,-12.7 2.61,-25.4 3.81,-38.1 1.21,-12.7 2.35,-25.4 3.44,-38.09 1.09,-12.69 2.13,-25.39 3.13,-38.08 1,-12.69 1.96,-25.38 2.88,-38.07 1.05,-14.27 3.3,-39.39 6.39,-70.09 3.08,-30.672 6.97,-66.898 11.33,-103.41 4.32,-36.449 9.1,-73.172 13.92,-104.898 4.83,-31.672 9.69,-58.364 14.24,-74.821 1.58,-5.742 2.93,-11.011 4.48,-16.691 1.54,-5.691 3.26,-11.781 5.55,-19.148 2.3,-7.372 5.17,-16.012 9.02,-26.801 3.84,-10.77 8.65,-23.68 14.8,-39.563 -4.89,1.774 -11.13,2.403 -18.24,4.571 -7.11,2.171 -15.1,5.902 -23.46,13.863 -8.4,7.988 -17.17,20.258 -25.8,39.508 -8.67,19.332 -17.2,45.672 -25.08,81.781 -2.32,14.617 -4.63,31.609 -6.89,50.211 -2.28,18.609 -4.51,38.828 -6.7,59.918 -2.19,21.101 -4.32,43.058 -6.37,65.129 -2.05,22.082 -4.02,44.281 -5.9,65.84 -0.61,7.05 -1.22,14.111 -1.81,21.171 -0.6,7.06 -1.19,14.11 -1.78,21.17 -0.59,7.06 -1.17,14.12 -1.75,21.19 -0.58,7.06 -1.16,14.13 -1.75,21.19 -1.06,12.9 -2.15,25.8 -3.24,38.7 -1.1,12.9 -2.23,25.81 -3.38,38.71 -1.17,12.9 -2.38,25.81 -3.63,38.71 -1.27,12.91 -2.6,25.82 -4,38.72 -0.75,6.92 -1.66,13.46 -2.76,19.61 -1.11,6.17 -2.4,11.96 -3.91,17.42 -1.52,5.47 -3.24,10.6 -5.19,15.41 -1.95,4.83 -4.14,9.33 -6.58,13.58 l -0.13,-0.04 c -3.8,6.59 -8.21,12.51 -13.31,17.87 -5.12,5.37 -10.94,10.19 -17.54,14.56 -6.62,4.38 -14.03,8.32 -22.32,11.91 -8.31,3.61 -17.52,6.88 -27.72,9.92 -6.29,1.88 -12.62,3.65 -18.98,5.34 -6.39,1.68 -12.81,3.27 -19.26,4.75 -6.48,1.5 -12.99,2.89 -19.51,4.18 -6.54,1.31 -13.12,2.5 -19.7,3.6 -2.1,0.36 -4.15,0.68 -6.18,0.97 -2.05,0.3 -4.05,0.57 -6.04,0.81 -1.98,0.24 -3.93,0.45 -5.86,0.64 -1.93,0.19 -3.83,0.34 -5.71,0.47 -11.71,0.81 -22.36,0.53 -32,-0.88 -9.67,-1.42 -18.31,-3.98 -25.97,-7.73 -7.68,-3.76 -14.37,-8.71 -20.1,-14.9 -5.76,-6.21 -10.56,-13.65 -14.45,-22.36 l 0.04,-0.01 c -1.84,-4.13 -3.48,-8.56 -4.92,-13.28 -1.44,-4.71 -2.68,-9.72 -3.73,-15.02 -1.06,-5.31 -1.91,-10.91 -2.58,-16.82 -0.68,-5.91 -1.16,-12.11 -1.46,-18.62 -0.09,-1.93 -0.12,-3.86 -0.17,-5.79 l -0.1,-13.17 c 0.01,-0.12 0,-0.25 0,-0.38 0.05,-3.23 0.15,-6.46 0.29,-9.69 0.13,-3.22 0.31,-6.43 0.51,-9.63 0.77,-11.91 1.49,-23.76 2.16,-35.55 0.67,-11.79 1.3,-23.52 1.9,-35.22 0.6,-11.69 1.16,-23.35 1.72,-34.98 0.56,-11.62 1.1,-23.23 1.65,-34.83 0.7,-15.13 1.4,-30.23 2.13,-45.35 0.74,-15.12 1.51,-30.26 2.34,-45.441 0.83,-15.188 1.74,-30.418 2.73,-45.719 1,-15.32 2.1,-30.699 3.32,-46.191 1.4,-17.797 2.52,-35.59 3.7,-53.368 1.17,-17.781 2.4,-35.519 4.03,-53.211 1.62,-17.679 3.63,-35.289 6.39,-52.769 2.75,-17.481 6.23,-34.832 10.78,-51.992 4.66,-17.668 10.98,-33.149 18.9,-46.528 7.9,-13.339 17.39,-24.57 28.44,-33.793 11,-9.179 23.52,-16.347 37.55,-21.617 13.94,-5.23 29.35,-8.582 46.16,-10.152 4.81,-0.438 9.27,-0.777 13.53,-1.039 4.23,-0.231 8.27,-0.379 12.2,-0.418 3.95,-0.043 7.8,0.019 11.68,0.187 3.89,0.161 7.81,0.43 11.9,0.801 4.02,0.36 8.2,0.828 12.65,1.391 4.46,0.558 9.18,1.219 14.28,1.988 5.11,0.762 10.59,1.621 16.56,2.582 5.97,0.961 12.43,2.02 19.49,3.18 20.18,3.301 38.73,6.211 56.22,8.898 17.34,2.68 33.67,5.153 49.52,7.582 15.74,2.41 31.02,4.797 46.37,7.309 15.26,2.5 30.59,5.121 46.49,8.031 22.96,4.219 45.7,8.238 68.22,12.16 22.31,3.879 44.41,7.68 66.29,11.457 21.66,3.75 43.11,7.5 64.36,11.352 21.03,3.789 41.86,7.691 62.48,11.75 13.77,2.73 25.68,7.211 35.86,13.469 10.11,6.211 18.51,14.191 25.27,23.921 6.75,9.692 11.87,21.149 15.49,34.36 3.59,13.18 5.66,28.148 6.29,44.879 l -0.04,26.66 z m -219.11,600.711 c 4.75,-10.01 10.98,-19.17 18.25,-27 7.23,-7.82 15.49,-14.3 24.31,-19.01 8.79,-4.69 18.16,-7.61 27.66,-8.31 9.45,-0.7 18.16,0.86 25.8,4.28 7.63,3.4 14.2,8.64 19.43,15.33 5.22,6.67 9.12,14.78 11.37,23.94 2.25,9.16 2.87,19.37 1.56,30.27 -1.3,10.9 -4.42,21.47 -8.94,31.27 -4.53,9.8 -10.49,18.84 -17.46,26.65 -6.99,7.83 -15,14.44 -23.64,19.35 -8.69,4.94 -17.98,8.17 -27.51,9.2 -9.57,1.06 -18.45,-0.2 -26.31,-3.38 -7.89,-3.19 -14.74,-8.32 -20.23,-14.98 -5.5,-6.7 -9.62,-14.93 -12.02,-24.3 -2.4,-9.4 -3.08,-19.92 -1.7,-31.17 1.36,-11.23 4.65,-22.11 9.43,-32.14 z m -232.67,-29.86 c 5.57,-11.18 12.87,-21.38 21.39,-30.1 8.49,-8.7 18.16,-15.89 28.53,-21.08 10.31,-5.17 21.29,-8.36 32.44,-9.06 11.1,-0.7 21.3,1.14 30.28,5.02 8.92,3.87 16.64,9.78 22.78,17.3 6.12,7.49 10.69,16.58 13.36,26.84 2.66,10.23 3.41,21.63 1.92,33.78 -1.5,12.16 -5.11,23.95 -10.39,34.85 -5.28,10.93 -12.22,20.99 -20.36,29.68 -8.17,8.71 -17.55,16.06 -27.66,21.51 -10.15,5.48 -21.06,9.05 -32.23,10.17 -11.23,1.13 -21.68,-0.31 -30.92,-3.91 -9.28,-3.6 -17.36,-9.37 -23.84,-16.86 -6.5,-7.52 -11.37,-16.77 -14.23,-27.28 -2.85,-10.54 -3.69,-22.33 -2.11,-34.93 1.6,-12.57 5.44,-24.73 11.04,-35.93"
         style="fill:#5fa3de;fill-opacity:1;fill-rule:nonzero;stroke:none"
         id="path3369"
         inkscape:connector-curvature="0" /><path
         d="m 976.863,563.281 c -2.121,0.899 -3.789,1.559 -5.254,2.149 -1.468,0.57 -2.738,1.058 -4.074,1.609 -1.344,0.531 -2.75,1.121 -4.504,1.902 -0.242,0.11 -1.246,0.539 -2.621,1.118 -1.379,0.601 -3.137,1.351 -4.89,2.101 -1.766,0.77 -3.528,1.52 -4.915,2.102 -1.386,0.597 -2.386,1.019 -2.632,1.117 -12.918,5.262 -24.067,11.152 -33.614,18.172 -9.578,7.051 -17.523,15.219 -24.004,25.008 -6.503,9.8 -11.527,21.222 -15.242,34.722 -3.726,13.52 -6.144,29.129 -7.441,47.289 -0.621,12.121 -1.203,24.192 -1.75,36.231 -0.547,12.027 -1.059,24.039 -1.551,36 -0.484,11.949 -0.949,23.871 -1.387,35.738 -0.445,11.883 -0.875,23.699 -1.289,35.5 -0.609,17.231 -1.187,34.359 -1.769,51.391 -0.578,17.019 -1.16,33.941 -1.762,50.75 -0.601,16.8 -1.223,33.492 -1.891,50.07 -0.664,16.57 -1.371,33.01 -2.156,49.33 -0.605,8.46 -0.527,15.43 0.348,21.11 0.879,5.69 2.547,10.08 5.125,13.41 2.574,3.33 6.047,5.6 10.531,7.01 4.469,1.42 9.938,1.99 16.504,1.94 0.617,-0.01 1.242,-0.02 1.871,-0.03 0.629,-0.02 1.274,-0.04 1.93,-0.07 0.648,-0.02 1.312,-0.06 1.98,-0.09 0.668,-0.04 1.356,-0.08 2.043,-0.12 2.891,-0.19 5.789,-0.31 8.68,-0.39 2.891,-0.07 5.777,-0.11 8.656,-0.16 2.879,-0.05 5.754,-0.1 8.621,-0.2 2.864,-0.08 5.723,-0.22 8.571,-0.44 0.304,-0.03 0.609,-0.04 0.918,-0.06 0.3,-0.01 0.601,-0.03 0.91,-0.04 0.3,-0.01 0.597,-0.02 0.898,-0.03 0.305,-0.01 0.598,-0.01 0.895,-0.02 5.101,-0.04 9.8,0.67 14.082,2.11 4.277,1.42 8.14,3.57 11.566,6.41 3.426,2.84 6.418,6.36 8.949,10.54 2.535,4.17 4.621,9 6.235,14.46 1.547,5.28 2.539,10.44 2.941,15.49 0.406,5.04 0.223,9.97 -0.574,14.77 -0.793,4.8 -2.203,9.48 -4.242,14.01 -2.051,4.54 -4.735,8.95 -8.086,13.2 -0.356,0.45 -0.719,0.9 -1.086,1.36 -0.371,0.45 -0.746,0.9 -1.129,1.35 -0.387,0.45 -0.774,0.89 -1.172,1.34 -0.398,0.45 -0.809,0.89 -1.227,1.33 -3.796,3.99 -7.742,7.38 -11.82,10.26 -4.086,2.88 -8.308,5.27 -12.664,7.24 -4.359,2 -8.859,3.58 -13.488,4.86 -4.637,1.29 -9.406,2.27 -14.313,3.07 -14.324,2.31 -25.433,4.47 -34.047,7.5 -8.644,3.03 -14.75,6.93 -19.07,12.7 -4.332,5.78 -6.859,13.43 -8.359,23.96 -1.496,10.54 -1.957,23.96 -2.164,41.27 -0.02,1.55 -0.035,3.1 -0.055,4.65 -0.016,1.56 -0.027,3.1 -0.047,4.66 -0.012,1.55 -0.031,3.11 -0.055,4.66 -0.019,1.55 -0.046,3.11 -0.082,4.67 -0.128,5.23 -0.496,10.39 -1.093,15.48 -0.606,5.07 -1.438,10.09 -2.493,15 -1.054,4.91 -2.332,9.73 -3.828,14.43 -1.492,4.73 -3.203,9.32 -5.121,13.81 -3.285,7.67 -7.187,15 -11.676,21.87 -4.496,6.89 -9.574,13.32 -15.21,19.24 -5.641,5.92 -11.848,11.32 -18.575,16.1 -6.746,4.79 -14.019,8.97 -21.797,12.44 -12.601,5.62 -25.355,10.86 -38.265,15.61 -12.985,4.79 -26.117,9.09 -39.414,12.84 -13.367,3.79 -26.906,7 -40.61,9.6 -13.785,2.61 -27.734,4.59 -41.867,5.87 -1.558,0.15 -3.133,0.28 -4.707,0.4 -1.566,0.13 -3.14,0.24 -4.715,0.34 -1.582,0.11 -3.16,0.21 -4.742,0.31 -1.582,0.07 -3.164,0.16 -4.75,0.23 -4.133,0.2 -8.168,0.14 -12.117,-0.14 -3.969,-0.3 -7.828,-0.82 -11.594,-1.57 -3.773,-0.73 -7.441,-1.71 -11,-2.89 -3.566,-1.18 -7.015,-2.59 -10.347,-4.18 -3.122,-1.5 -6.125,-3.18 -9.02,-5.03 -2.895,-1.84 -5.672,-3.86 -8.324,-6.06 -2.656,-2.2 -5.188,-4.55 -7.574,-7.06 -2.391,-2.52 -4.649,-5.2 -6.758,-8.03 -2.848,-3.82 -5.434,-7.91 -7.735,-12.25 -2.304,-4.36 -4.32,-8.95 -6.031,-13.79 -1.707,-4.83 -3.101,-9.9 -4.168,-15.18 -1.062,-5.29 -1.805,-10.78 -2.183,-16.46 -0.372,-5.53 -0.649,-11.08 -0.86,-16.63 -0.219,-5.55 -0.371,-11.12 -0.504,-16.69 -0.125,-5.56 -0.23,-11.13 -0.355,-16.7 -0.117,-5.56 -0.242,-11.13 -0.422,-16.7 -0.184,-5.3 -0.344,-10.03 -0.555,-14.25 -0.215,-4.22 -0.48,-7.93 -0.859,-11.18 -0.371,-3.25 -0.863,-6.05 -1.527,-8.44 -0.661,-2.4 -1.497,-4.41 -2.563,-6.09 -1.383,-2.15 -3.156,-3.75 -5.453,-4.93 -2.301,-1.19 -5.129,-1.95 -8.629,-2.41 -3.496,-0.47 -7.672,-0.64 -12.652,-0.64 -4.993,-0.01 -10.789,0.15 -17.555,0.36 -5.441,0.15 -10.703,-0.27 -15.723,-1.25 -5.023,-0.98 -9.8,-2.49 -14.285,-4.51 -4.492,-2.01 -8.683,-4.53 -12.523,-7.46 -3.852,-2.95 -7.34,-6.34 -10.426,-10.11 -1.41,-1.71 -2.731,-3.52 -3.961,-5.38 -1.23,-1.88 -2.371,-3.82 -3.422,-5.82 -1.047,-2.01 -2,-4.1 -2.863,-6.23 -0.848,-2.15 -1.61,-4.35 -2.266,-6.62 -0.574,-2.01 -1.074,-4.07 -1.492,-6.18 -0.414,-2.1 -0.742,-4.25 -0.988,-6.42 -0.117,-1.08 -0.141,-2.2 -0.215,-3.3 l -0.059,-10.27 c 0.657,-10.2 2.985,-19.85 6.879,-28.71 3.895,-8.86 9.348,-16.89 16.242,-23.87 6.875,-6.97 15.172,-12.89 24.778,-17.5 9.566,-4.6 20.414,-7.92 32.426,-9.71 7.953,-1.19 14.496,-3.06 19.828,-5.68 5.316,-2.6 9.437,-5.96 12.562,-10.15 3.117,-4.18 5.235,-9.19 6.551,-15.11 1.312,-5.92 1.824,-12.74 1.723,-20.56 -0.282,-20.62 -0.536,-41.27 -0.754,-61.91 -0.219,-20.662 -0.399,-41.341 -0.539,-62.009 -0.145,-20.7 -0.243,-41.403 -0.286,-62.09 -0.042,-20.711 -0.039,-41.43 0.032,-62.153 0.023,-5.738 0.047,-11.488 0.07,-17.238 0.031,-5.738 0.059,-11.488 0.094,-17.23 0.035,-5.739 0.066,-11.489 0.113,-17.239 0.043,-5.742 0.098,-11.48 0.149,-17.23 0.16,-14.652 0.691,-29.262 1.71,-43.77 1.004,-14.531 2.5,-28.953 4.582,-43.222 2.079,-14.27 4.739,-28.391 8.094,-42.309 3.352,-13.91 7.387,-27.609 12.219,-41.082 3.898,-10.859 8.633,-20.656 14.172,-29.457 5.539,-8.781 11.883,-16.543 19,-23.371 7.098,-6.809 14.973,-12.672 23.578,-17.648 8.578,-4.981 17.895,-9.071 27.906,-12.34 8.086,-2.66 16.207,-4.711 24.364,-6.231 8.132,-1.511 16.285,-2.511 24.46,-3.051 8.149,-0.531 16.309,-0.621 24.465,-0.339 8.137,0.289 16.262,0.941 24.383,1.898 0.039,0 0.078,0 0.109,0.012 l 0.442,0.051 c 0.039,0 0.074,0.007 0.105,0.007 0.118,0.012 0.227,0.032 0.34,0.039 0.106,0.012 0.219,0.032 0.324,0.043 2.743,0.34 5.469,0.719 8.2,1.118 2.73,0.402 5.449,0.832 8.175,1.293 2.719,0.449 5.43,0.937 8.145,1.457 2.715,0.519 5.426,1.043 8.133,1.613 19.449,4.019 38.722,8.148 57.855,12.328 18.981,4.148 37.824,8.352 56.559,12.578 18.586,4.203 37.055,8.442 55.461,12.652 18.25,4.192 36.426,8.372 54.554,12.5 2.582,0.598 5.165,1.18 7.747,1.782 2.57,0.578 5.148,1.168 7.718,1.758 2.567,0.582 5.137,1.16 7.7,1.742 l 7.691,1.738 c -3.309,1.5 -5.891,2.629 -8.016,3.531 z M 588.77,1565.75 c 7.476,-12.16 16.433,-23.29 26.488,-32.67 10.015,-9.35 21.094,-16.96 32.855,-22.2 2.684,-1.19 5.364,-2.26 8.047,-3.21 2.668,-0.96 5.332,-1.78 7.988,-2.48 2.653,-0.71 5.293,-1.3 7.915,-1.78 2.617,-0.46 5.21,-0.82 7.785,-1.07 8.992,-0.85 17.691,-0.35 25.879,1.36 8.16,1.72 15.812,4.62 22.718,8.61 6.899,3.98 13.071,9.01 18.289,14.97 5.2,5.95 9.473,12.82 12.579,20.49 0.097,0.24 0.183,0.5 0.277,0.73 0.094,0.25 0.18,0.5 0.269,0.73 0.082,0.25 0.176,0.5 0.258,0.75 l 0.266,0.73 c 0.051,0.17 0.113,0.32 0.176,0.48 0.062,0.16 0.121,0.32 0.179,0.49 0.059,0.15 0.121,0.32 0.184,0.47 0.058,0.16 0.117,0.33 0.176,0.49 0.644,1.97 1.222,4 1.715,6.07 0.492,2.08 0.914,4.18 1.246,6.35 0.332,2.16 0.593,4.37 0.761,6.62 0.168,2.24 0.262,4.53 0.27,6.86 0.008,3.57 -0.102,7.11 -0.32,10.62 -0.223,3.5 -0.559,6.98 -1.016,10.43 -0.449,3.44 -1.012,6.85 -1.68,10.23 -0.668,3.38 -1.449,6.72 -2.332,10.02 -2.844,10.71 -6.789,20.96 -11.722,30.59 -4.95,9.66 -10.891,18.69 -17.723,26.91 -6.859,8.25 -14.613,15.69 -23.168,22.14 -8.582,6.48 -17.981,11.97 -28.07,16.27 -2.028,0.86 -4.063,1.65 -6.094,2.37 -2.035,0.72 -4.074,1.36 -6.11,1.93 -2.042,0.57 -4.078,1.07 -6.109,1.5 -2.031,0.43 -4.058,0.78 -6.074,1.06 -4.852,0.69 -9.656,0.96 -14.375,0.85 -4.727,-0.1 -9.363,-0.6 -13.871,-1.47 -4.516,-0.86 -8.903,-2.11 -13.11,-3.69 -4.218,-1.59 -8.261,-3.52 -12.086,-5.78 -0.316,-0.18 -0.632,-0.38 -0.953,-0.56 -0.32,-0.2 -0.636,-0.38 -0.945,-0.58 -0.312,-0.19 -0.625,-0.39 -0.93,-0.59 -0.312,-0.21 -0.613,-0.4 -0.914,-0.61 -0.613,-0.42 -1.222,-0.84 -1.828,-1.27 -0.601,-0.43 -1.191,-0.87 -1.781,-1.32 -0.586,-0.45 -1.168,-0.91 -1.746,-1.36 -0.57,-0.47 -1.137,-0.95 -1.688,-1.43 -0.843,-0.73 -1.672,-1.48 -2.476,-2.25 -0.801,-0.77 -1.586,-1.55 -2.36,-2.36 -0.769,-0.8 -1.515,-1.62 -2.246,-2.45 -0.73,-0.84 -1.445,-1.69 -2.133,-2.56 -0.464,-0.59 -0.925,-1.18 -1.371,-1.78 -0.449,-0.59 -0.89,-1.2 -1.324,-1.81 -0.43,-0.62 -0.847,-1.24 -1.262,-1.87 -0.41,-0.63 -0.808,-1.27 -1.199,-1.91 -1.367,-2.26 -2.629,-4.61 -3.754,-7.05 -1.132,-2.44 -2.144,-4.96 -3.019,-7.58 -0.871,-2.61 -1.621,-5.29 -2.223,-8.07 -0.601,-2.78 -1.066,-5.62 -1.379,-8.54 -0.094,-0.89 -0.172,-1.77 -0.238,-2.66 -0.07,-0.89 -0.129,-1.78 -0.184,-2.68 -0.047,-0.89 -0.086,-1.78 -0.117,-2.68 -0.031,-0.9 -0.055,-1.8 -0.062,-2.71 -0.149,-13.54 2.019,-27.46 6.113,-41.07 4.078,-13.58 10.066,-26.82 17.559,-39.02"
         style="fill:#99d53f;fill-opacity:1;fill-rule:nonzero;stroke:none"
         id="path3371"
         inkscape:connector-curvature="0" /></g></g></svg>
