<?xml version="1.0" encoding="UTF-8" standalone="no"?>
<svg
   xmlns:dc="http://purl.org/dc/elements/1.1/"
   xmlns:cc="http://creativecommons.org/ns#"
   xmlns:rdf="http://www.w3.org/1999/02/22-rdf-syntax-ns#"
   xmlns:svg="http://www.w3.org/2000/svg"
   xmlns="http://www.w3.org/2000/svg"
   xmlns:sodipodi="http://sodipodi.sourceforge.net/DTD/sodipodi-0.dtd"
   xmlns:inkscape="http://www.inkscape.org/namespaces/inkscape"
   width="707"
   height="709"
   id="svg2"
   version="1.1"
   inkscape:version="0.91 r13725"
   sodipodi:docname="icon.svg">
  <metadata
     id="metadata28">
    <rdf:RDF>
      <cc:Work
         rdf:about="">
        <dc:format>image/svg+xml</dc:format>
        <dc:type
           rdf:resource="http://purl.org/dc/dcmitype/StillImage" />
      </cc:Work>
    </rdf:RDF>
  </metadata>
  <defs
     id="defs26" />
  <sodipodi:namedview
     pagecolor="#ffffff"
     bordercolor="#666666"
     borderopacity="1"
     objecttolerance="10"
     gridtolerance="10"
     guidetolerance="10"
     inkscape:pageopacity="0"
     inkscape:pageshadow="2"
     inkscape:window-width="1349"
     inkscape:window-height="622"
     id="namedview24"
     showgrid="false"
     inkscape:zoom="0.33286319"
     inkscape:cx="353.5"
     inkscape:cy="354.5"
     inkscape:window-x="377"
     inkscape:window-y="277"
     inkscape:window-maximized="0"
     inkscape:current-layer="svg2"
     showguides="false" />
  <g
     id="g4">
    <title
       id="title6">background</title>
    <rect
       fill="none"
       id="canvas_background"
       height="711"
       width="709"
       y="-1"
       x="-1" />
  </g>
  <g
     transform="matrix(0.9278983,0,0,0.9278983,20.456598,9.3388147)"
     id="g3649">
    <path
       style="fill:#fdfefd"
       d="m -14.999987,375.21938 0,-375.00000221 374.999997,0 375,0 0,375.00000221 0,375 -375,0 -374.999997,0 0,-375 z M 656.30705,692.59299 c 9.56736,-4.48746 15.47619,-10.03906 19.58035,-18.39661 l 3.48761,-7.102 0,-288.125 c 0,-235.03578 -0.30313,-288.980741 -1.64516,-292.769257 -2.15257,-6.076643 -11.7108,-16.630943 -16.60716,-18.337826 -2.7143,-0.94621 -91.6841,-1.345743 -299.72163,-1.345947 L 65.5396,66.516062 60.272399,69.122065 c -6.51715,3.22443 -12.483145,10.573263 -14.780322,18.206203 -1.467463,4.876009 -1.742064,50.843482 -1.742064,291.617102 0,318.92166 -0.788526,292.016 8.880049,303.00007 5.924617,6.73073 12.126752,10.74739 19.808152,12.82826 4.440448,1.20292 68.286026,1.48907 291.311796,1.30562 l 285.625,-0.23494 6.93204,-3.25139 z M 429.68751,473.08722 c 1.54688,-0.29795 4.07813,-0.29795 5.625,0 1.54688,0.29793 0.28125,0.54171 -2.8125,0.54171 -3.09375,0 -4.35937,-0.24378 -2.8125,-0.54171 z m -20.58728,-1.28818 c 3.28637,-0.25835 8.34887,-0.25522 11.25,0.007 2.90113,0.26215 0.21228,0.47353 -5.97522,0.46971 -6.1875,-0.004 -8.56115,-0.2183 -5.27478,-0.47663 z m -18.78772,-1.22497 c 1.89063,-0.28642 4.98438,-0.28642 6.875,0 1.89063,0.2864 0.34375,0.52073 -3.4375,0.52073 -3.78125,0 -5.32812,-0.23433 -3.4375,-0.52073 z m 70.3125,-149.10469 c 0.4249,-0.6875 2.95615,-1.25 5.625,-1.25 2.66885,0 5.2001,0.5625 5.625,1.25 0.47659,0.77114 -1.67827,1.25 -5.625,1.25 -3.94672,0 -6.10158,-0.47886 -5.625,-1.25 z M 165.99874,241.24533 c 1.2136,-1.23394 7.37044,-1.6962 24.375,-1.83008 l 22.75127,-0.17911 -20.85611,0.96068 c -11.47086,0.52837 -22.43961,1.35191 -24.375,1.83007 -2.90706,0.71824 -3.23657,0.58235 -1.89516,-0.78156 z"
       id="path3665"
       inkscape:connector-curvature="0" />
    <path
       style="fill:#92d946"
       d="m 407.50001,631.4292 c -30.16528,-2.16068 -40.01927,-5.17647 -50.20915,-15.36635 -6.54295,-6.54293 -10.7571,-15.58886 -8.8499,-18.99683 1.01378,-1.81153 2.06582,-0.99817 6.99559,5.40845 7.6969,10.00268 14.89973,16.0032 21.92685,18.26673 3.16889,1.02075 12.51161,2.5327 20.76161,3.35988 19.39972,1.94511 73.84665,1.98057 83.75,0.0545 15.07617,-2.93204 27.18162,-11.28608 37.68694,-26.00798 4.3976,-6.16266 7.64133,-13.38222 13.83896,-30.80132 18.32183,-51.49531 20.81838,-61.47575 30.39305,-121.50195 2.16839,-13.59426 2.91965,-70.7008 1.31554,-100 -2.32341,-42.4372 -10.67201,-117.46434 -14.67431,-131.875 -4.88838,-17.60104 -17.89306,-34.44219 -32.63175,-42.25831 -15.46898,-8.20342 -53.41994,-15.54425 -95.30343,-18.4345 -14.78125,-1.02002 -28.35282,-2.44605 -30.15906,-3.16898 -1.80624,-0.72292 -5.1481,-4.22789 -7.42637,-7.78881 -2.27827,-3.56091 -6.80849,-9.09134 -10.06718,-12.28983 -3.25869,-3.19847 -5.58869,-6.1516 -5.1778,-6.56249 1.36859,-1.36859 160.85554,-0.82132 171.17746,0.58738 14.95648,2.0412 35.34587,9.7343 42.16813,15.91041 15.77191,14.27812 23.89855,25.01937 25.25481,33.38013 0.22305,1.375 1.55948,6.61212 2.96985,11.63805 1.41038,5.02592 2.27424,9.60742 1.91968,10.1811 -0.35455,0.57367 -0.0829,4.00547 0.60383,7.62622 1.25758,6.6312 0.18838,23.96648 -2.65553,43.05463 -0.717,4.8125 -1.84882,12.6875 -2.51513,17.5 -0.66632,4.8125 -1.76655,10.50441 -2.44496,12.64869 -1.37146,4.33482 -3.33674,20.15321 -4.65625,37.4778 -0.47656,6.25707 -1.46828,12.16332 -2.20381,13.125 -2.12134,2.77353 -4.10335,11.01961 -4.91244,20.43795 -0.66876,7.78478 -4.20189,21.41415 -7.05909,27.2311 -0.58637,1.1938 -1.06614,5.20305 -1.06614,8.90945 0,4.4652 -0.63262,7.26393 -1.875,8.29501 -1.13405,0.94117 -1.875,3.67752 -1.875,6.92442 0,2.95258 -1.1059,7.94828 -2.45756,11.10157 -1.35165,3.15328 -2.84402,8.64661 -3.31637,12.20738 -0.47237,3.56077 -1.8977,9.31637 -3.16745,12.79023 -1.26974,3.47386 -2.30862,8.01526 -2.30862,10.092 0,2.07675 -0.57445,5.74094 -1.27655,8.14265 -0.7021,2.40171 -1.80696,7.74175 -2.45525,11.86675 -0.64828,4.125 -2.04113,11.71875 -3.09521,16.875 -1.05407,5.15625 -2.5143,12.46875 -3.24495,16.25 -5.86142,30.33396 -13.04756,54.04022 -24.25059,80 -2.52188,5.84375 -5.78657,13.4375 -7.25486,16.875 -7.49552,17.54824 -25.13396,31.77332 -44.16126,35.61525 -8.70273,1.75721 -59.43305,2.5503 -78.01133,1.21957 z m -6.875,-84.61433 c -5.21966,-1.28302 -7.67376,-6.43174 -4.1142,-8.63168 0.83094,-0.51354 8.95538,-0.96861 18.05432,-1.01126 l 16.5435,-0.0775 4.32117,-4.18703 4.32118,-4.18701 2.62451,2.62451 c 2.89921,2.89922 3.1899,4.72473 1.47187,9.24348 -1.96656,5.17244 -9.34841,7.15132 -26.06015,6.98605 -8.06421,-0.0798 -15.7872,-0.42159 -17.1622,-0.75956 z m -215.625,-31.40175 c 0,-4.46878 -0.65531,-6.64932 -2.5,-8.31874 -1.375,-1.24436 -2.5,-3.25029 -2.5,-4.45761 0,-1.20734 -1.6875,-3.61509 -3.75,-5.35058 -2.0625,-1.73547 -3.75,-3.66705 -3.75,-4.29237 0,-0.62534 -1.125,-2.15508 -2.5,-3.39944 -1.67426,-1.51519 -2.5,-3.84996 -2.5,-7.06874 0,-3.22024 -0.56127,-4.80626 -1.70088,-4.80626 -1.11585,0 -1.96338,-2.21636 -2.46404,-6.44366 -0.43716,-3.69115 -1.78279,-7.56234 -3.15014,-9.0625 -1.31284,-1.44037 -2.76284,-5.24472 -3.22222,-8.45413 -0.45938,-3.20941 -1.65143,-6.51266 -2.64898,-7.34056 -0.99755,-0.82789 -1.81374,-2.28778 -1.81374,-3.24416 0,-0.9564 -0.4871,-2.71565 -1.08245,-3.90945 -2.5812,-5.17589 -4.31386,-11.43182 -5.10178,-18.42054 -0.46507,-4.125 -1.79512,-9.67808 -2.95567,-12.34015 -1.16056,-2.66209 -2.1101,-7.23384 -2.1101,-10.15945 0,-2.96151 -0.75397,-5.94504 -1.70101,-6.731 -0.93556,-0.77645 -2.01842,-4.48711 -2.40637,-8.24593 -0.38794,-3.75881 -1.16937,-7.55178 -1.73648,-8.42883 -0.56712,-0.87705 -1.69845,-4.68839 -2.51406,-8.46964 -0.81561,-3.78125 -2.05674,-9.40625 -2.75806,-12.5 -0.70133,-3.09375 -1.30478,-8.15625 -1.341,-11.25 -0.039,-3.33088 -1.31979,-8.17404 -3.14035,-11.875 -2.5044,-5.0911 -3.0891,-8.22013 -3.15333,-16.875 -0.0543,-7.30393 -0.65249,-11.38343 -1.91409,-13.05141 -1.00938,-1.33453 -1.83525,-4.77045 -1.83525,-7.6354 0,-5.93022 -4.67951,-38.96752 -5.92256,-41.81319 -0.45047,-1.03125 -1.25594,-7.5 -1.78991,-14.375 -0.53399,-6.875 -1.31911,-15.73303 -1.74472,-19.6845 -1.47055,-13.653 1.79119,-34.16715 8.00016,-50.3155 7.52691,-19.5761 34.73881,-38.10046 62.6167,-42.62601 10.96023,-1.77923 88.80567,-2.61698 90.44927,-0.97339 0.42658,0.42658 -1.14727,3.2939 -3.49744,6.37182 -8.9524,11.7246 -13.0918,31.211 -13.10412,61.6882 -0.005,12.40087 -0.59629,20.19372 -1.85333,24.42662 -3.46093,11.65425 -13.73655,22.88416 -24.40405,26.67047 -2.40728,0.85444 -15.33795,2.01625 -28.75,2.58318 -21.03445,0.88911 -25.77993,1.47736 -34.62643,4.2923 -22.833,7.26543 -25.84227,19.32135 -16.70952,66.94305 18.41924,96.0451 19.76144,102.14063 24.45919,111.08047 7.63555,14.53046 15.03891,22.6508 25.38245,27.8406 21.17683,10.62531 107.91684,34.82769 124.82056,34.82769 15.13457,0 26.6455,-14.24596 26.69289,-33.03518 0.0309,-12.24045 1.14683,-12.53225 10.18903,-2.66428 8.40277,9.17015 17.29688,14.41566 24.47933,14.43725 2.23438,0.006 4.0625,0.64726 4.0625,1.42343 0,0.99689 3.39484,1.20638 11.5625,0.71353 7.72343,-0.46606 10.3174,-0.32649 7.8125,0.42035 -2.53185,0.75487 1.32564,0.98481 11.875,0.70784 8.73178,-0.22925 13.97063,0.01 11.875,0.54337 -2.87962,0.73228 -2.00926,0.93119 3.75,0.85701 8.42235,-0.1085 15.02357,2.62614 24.09222,9.98043 6.93025,5.62015 10.45757,12.70731 11.25233,22.60841 0.617,7.68644 0.50915,8.05784 -3.36822,11.59926 -3.4864,3.18434 -4.9678,3.65858 -11.42848,3.65858 -5.34592,0 -7.42285,-0.46553 -7.42285,-1.66378 0,-1.69577 -2.90941,-3.55121 -9.0625,-5.77948 -4.27766,-1.54912 -4.31456,-3.41545 -0.18777,-9.4966 3.96532,-5.84325 3.46872,-11.91274 -1.36993,-16.74295 -3.1886,-3.18304 -3.25763,-3.19173 -24.10127,-3.02935 -17.22081,0.13415 -22.27895,0.60625 -28.7106,2.67973 -9.16284,2.95398 -25.82831,12.99159 -28.60439,17.22843 -1.06545,1.62607 -3.01804,3.29956 -4.33907,3.71884 -1.32104,0.41928 -3.26754,2.43633 -4.32557,4.48232 -1.05802,2.046 -2.86437,4.81864 -4.0141,6.16143 -2.03215,2.37337 -4.25991,2.44141 -79.9376,2.44141 l -77.8472,0 0,-6.05626 z M 156.76118,242.08085 c 7.42763,-2.25326 9.94975,-2.36851 8.73255,-0.39905 -0.63314,1.02444 -0.18728,1.18159 1.48873,0.5247 1.3159,-0.51573 12.2363,-1.31445 24.26755,-1.77491 l 21.875,-0.83721 -15,-0.68608 -15,-0.68608 16.16785,-0.25142 c 13.5291,-0.21038 17.05235,-0.67961 21.58735,-2.87496 7.98168,-3.86386 15.94007,-12.52741 21.10188,-22.97164 4.54551,-9.19723 4.56235,-9.29186 5.60332,-31.50238 0.57427,-12.25259 1.67827,-24.45234 2.45333,-27.11055 1.80955,-6.20623 0.70167,-10.55843 -2.91905,-11.46718 -5.02751,-1.26182 -9.03113,1.47451 -20.378,13.9277 -32.04573,35.17013 -38.98793,42.44894 -48.97908,51.35394 -23.12412,20.6103 -31.50558,30.35149 -29.84292,34.68432 0.91784,2.39187 1.18331,2.39399 8.84149,0.0708 z m 13.00446,-2.71536 c 0.90234,-0.36109 1.98046,-0.31669 2.39584,0.0986 0.41536,0.41536 -0.32293,0.7108 -1.64063,0.65652 -1.45619,-0.06 -1.75237,-0.35617 -0.75521,-0.7552 z m 508.04179,1.75124 C 677.482,81.291653 677.63826,85.536204 671.86701,79.764944 670.12538,78.023309 669.419,77.886937 668.643,79.142519 c -0.75146,1.2159 -2.34945,0.634244 -6.55506,-2.386004 -3.05875,-2.196627 -7.17046,-4.629022 -9.13715,-5.405323 -2.61908,-1.033818 -80.49691,-1.420069 -291.07578,-1.443647 -315.932889,-0.03537 -290.876955,-0.640326 -301.252455,7.273454 -3.348467,2.554 -4.77418,3.011161 -6.06075,1.943403 -1.274196,-1.057489 -2.162097,-0.86604 -3.660048,0.789177 -5.337565,5.897944 -5.247573,3.774149 -5.91877,139.680801 l -0.642028,130 -0.295472,-128.23884 C 43.721887,80.909642 43.458029,86.307559 51.119669,76.63395 c 2.137041,-2.698235 6.25577,-6.078582 9.15273,-7.511885 l 5.267201,-2.606003 295.86146,2.88e-4 c 208.03753,2.04e-4 297.00733,0.399737 299.72163,1.345947 5.06459,1.765523 14.74701,12.626631 16.41534,18.413638 0.8995,3.12011 1.1997,52.321045 0.94692,155.193445 l -0.37011,150.625 -0.30741,-150.97765 z m -204.68242,92.70021 c -3.97847,-1.9495 -6.72382,-2.32676 -13.4375,-1.84654 -8.03808,0.57495 -8.4366,0.47383 -8.41836,-2.13625 0.0235,-3.35365 0.95756,-4.76993 4.9465,-7.49972 3.44185,-2.35541 5.59104,-2.77704 4.40936,-0.86505 -0.47658,0.77114 1.67828,1.25 5.625,1.25 3.94673,0 6.10159,-0.47886 5.625,-1.25 -1.51591,-2.45279 2.73695,-1.19854 5.29805,1.5625 2.29018,2.46897 3.38452,6.86015 2.9594,11.875 -0.16978,2.0029 -0.9403,1.88305 -7.00745,-1.08994 z"
       id="path3663"
       inkscape:connector-curvature="0" />
    <path
       style="fill:#878886"
       d="m 72.438214,694.7737 c -7.6814,-2.08087 -13.883535,-6.09753 -19.808152,-12.82826 -9.51035,-10.80432 -8.915014,1.36289 -8.581582,-175.38624 l 0.298469,-158.21482 0.639031,159.375 c 0.5926,147.79484 0.796689,159.7236 2.808814,164.17275 3.808754,8.42179 9.4585,14.29934 17.5882,18.29737 l 7.742019,3.80738 289.999997,-0.32625 290,-0.32625 5.625,-3.33111 c 7.64288,-4.52609 13.09044,-10.46562 16.33424,-17.80934 l 2.7123,-6.14045 0.57391,-284.48455 c 0.31565,-156.4665 0.77017,-285.047052 1.01004,-285.734552 0.23986,-0.6875 0.33676,127.562502 0.21533,285.000002 l -0.22082,286.25 -3.48761,7.102 c -4.10416,8.35755 -10.01299,13.90915 -19.58035,18.39661 l -6.93204,3.25139 -285.625,0.23494 C 140.72424,696.26277 76.878662,695.97662 72.438214,694.7737 Z M 422.50001,625.72087 c -20.55491,-1.11578 -39.89622,-3.26824 -45.38968,-5.05138 -4.0142,-1.30296 -8.37959,-4.23901 -13.125,-8.82754 -5.43173,-5.25213 -5.82254,-5.82926 -1.65547,-2.44465 10.01127,8.13144 14.79284,9.59283 38.18257,11.66973 14.96042,1.3284 30.5406,1.72717 51.98758,1.33059 37.64138,-0.69603 40.45783,-1.44815 58.95373,-15.74323 4.59512,-3.55146 4.33897,-3.14324 -1.68088,2.67881 -7.94642,7.68533 -17.277,12.76402 -26.71125,14.5391 -6.93598,1.30503 -47.66962,2.54837 -60.5616,1.84857 z m 93.75,-24.72344 c 0,-0.25956 0.98438,-1.24394 2.1875,-2.1875 1.98258,-1.55484 2.02679,-1.51063 0.47195,0.47195 -1.63296,2.08219 -2.65945,2.74435 -2.65945,1.71555 z m -115.625,-23.20975 c -1.375,-0.56278 -3.625,-2.30293 -5,-3.867 l -2.5,-2.84378 3.125,1.12862 c 1.71875,0.62073 18.7347,1.13092 37.81322,1.13373 19.07852,0.003 34.6879,0.15402 34.6875,0.336 -3.9e-4,0.18198 -1.82884,1.4455 -4.06322,2.80783 -3.74965,2.28621 -6.2765,2.47121 -32.8125,2.4024 -15.8125,-0.041 -29.875,-0.53503 -31.25,-1.0978 z m -5.625,-40.02546 c 0,-2.77645 7.13783,-3.89088 22.63772,-3.53443 21.47328,0.49383 19.02966,2.84061 -3.06564,2.94414 -9.10276,0.0426 -17.23034,0.49772 -18.06128,1.01126 -0.83093,0.51355 -1.5108,0.32411 -1.5108,-0.42097 z m -31.05666,-17.56014 c 2.00368,-5.74776 11.5604,-14.77936 19.4707,-18.40081 6.12893,-2.80592 9.61866,-3.38387 25.74733,-4.26413 18.29423,-0.99845 20.83863,-0.81994 20.83863,1.46203 0,2.56096 -5.85913,3.84281 -22.25673,4.86928 -20.0936,1.25785 -26.06103,3.504 -37.1357,13.97798 -3.56077,3.36762 -6.81239,6.12295 -7.22582,6.12295 -0.41343,0 -0.16072,-1.69529 0.56159,-3.7673 z m -54.56834,-31.46749 c -2.75,-0.67452 -17.51178,-4.29481 -32.80397,-8.04507 -30.9469,-7.58945 -65.12326,-18.40098 -78.44603,-24.81603 -4.8125,-2.31726 -10.4375,-6.03534 -12.5,-8.26237 l -3.75,-4.04917 5.96675,4.4638 c 10.94443,8.18765 53.05313,21.9341 102.78325,33.55375 14.4375,3.37338 28.65869,6.13487 31.60265,6.13665 6.13408,0.004 13.19723,-2.62753 17.75529,-6.61438 2.47164,-2.1619 2.37049,-1.89477 -0.47405,1.25198 -1.98886,2.20017 -5.44887,4.86999 -7.68891,5.93295 -4.50801,2.1392 -14.7189,2.34295 -22.44498,0.44789 z m 149.375,-4.95581 c -2.40625,-2.11145 -7.9175,-5.52919 -12.24721,-7.59496 -7.61561,-3.63354 -8.82407,-3.8096 -37.07267,-5.40107 -35.60874,-2.00611 -37.9295,-2.74517 -50.18422,-15.9814 -6.4225,-6.93688 -8.41408,-8.43703 -9.31352,-7.01536 -0.62925,0.99461 -1.14409,1.24589 -1.14409,0.55839 0,-0.6875 0.56531,-2.09375 1.25625,-3.125 1.06641,-1.59166 1.63245,-1.40278 3.74578,1.25 9.07538,11.39196 10.93888,13.08957 17.99153,16.3899 7.16402,3.35245 9.10595,3.64034 32.60544,4.83365 13.74324,0.69789 27.43448,1.54876 30.42495,1.89085 7.03894,0.80519 18.55245,6.98049 24.64206,13.21681 5.71819,5.85595 5.38378,6.32039 -0.7043,0.97819 z m -133.75,-17.79961 c -31.28558,-10.94918 -54.02803,-35.80507 -61.88396,-67.63479 -2.84201,-11.51493 -2.84201,-30.98508 0,-42.5 8.50574,-34.46254 35.54643,-61.50323 70.00896,-70.00896 11.51493,-2.84202 30.98508,-2.84202 42.5,0 12.38259,3.05616 27.38738,10.37295 36.875,17.98137 9.78459,7.84656 21.83487,22.53216 24.12412,29.39991 2.01502,6.0451 6.10006,7.61173 14.39893,5.52205 7.71193,-1.94188 20.28754,0.48128 27.95279,5.38615 3.21796,2.05913 6.87421,3.56963 8.125,3.35668 1.5699,-0.26729 2.27416,0.387 2.27416,2.1128 0,3.84159 -6.52523,3.90526 -13.62003,0.13292 -7.82457,-4.16036 -15.49039,-5.17095 -24.58469,-3.241 -4.08115,0.86608 -7.42028,1.75163 -7.42028,1.96789 0,0.21626 0.8773,3.65504 1.94954,7.6417 2.71115,10.08018 2.68135,31.1729 -0.0598,42.24849 -5.05716,20.43427 -16.91467,38.92055 -33.47427,52.1875 l -8.97132,7.1875 -11.20247,0 c -8.73835,0 -12.36669,-0.56359 -16.49526,-2.56219 -7.06844,-3.42177 -14.58858,-11.80577 -17.38863,-19.38612 -2.70307,-7.31797 -5.20034,-10.55169 -8.14851,-10.55169 -3.5677,0 -4.58516,2.39244 -8.73478,20.53879 -3.8959,17.0368 -5.88413,23.28502 -7.3627,23.13788 -0.40526,-0.0404 -4.3931,-1.35293 -8.86185,-2.91688 z M 179.84056,440.53188 c -1.55483,-1.98258 -1.51062,-2.02679 0.47195,-0.47195 2.08219,1.63296 2.74435,2.65945 1.71555,2.65945 -0.25956,0 -1.24393,-0.98438 -2.1875,-2.1875 z M 476.72615,322.63997 c -3.45364,-3.45365 -14.99694,-3.84113 -19.84267,-0.66608 -1.84272,1.20739 -3.64625,1.89936 -4.00789,1.53773 -1.72499,-1.72498 8.14647,-5.78319 14.07806,-5.78757 5.40329,-0.004 6.85395,0.54364 9.92136,3.74533 4.01604,4.19184 3.88702,5.20645 -0.14886,1.17059 z M 157.80471,259.90688 c 1.94423,-5.92136 20.89247,-11.78645 39.6953,-12.28696 4.69359,-0.125 5.10755,-0.31545 2.5,-1.15054 -2.4649,-0.7894 -1.8048,-1.00856 3.125,-1.03754 4.56809,-0.0269 5.57724,0.25235 3.75,1.03754 -1.63965,0.70457 1.58669,1.10032 9.375,1.14994 10.20992,0.065 12.83773,-0.37248 18.74093,-3.12023 3.77626,-1.75772 8.73507,-4.62154 11.0196,-6.36402 2.28452,-1.74249 4.44897,-2.87285 4.8099,-2.51194 1.49696,1.49696 -10.07708,12.01022 -16.16161,14.6804 -5.93747,2.60561 -8.58743,2.88779 -29.03382,3.09156 -23.36937,0.23291 -34.24075,1.70839 -42.1377,5.71896 -5.4528,2.76928 -6.37373,2.89778 -5.6826,0.79283 z m 34.3828,-14.26535 c 0.85938,-0.34676 2.26563,-0.34676 3.125,0 0.85938,0.34676 0.15625,0.63049 -1.5625,0.63049 -1.71875,0 -2.42187,-0.28373 -1.5625,-0.63049 z m -33.4375,-5.20779 c 4.00728,-2.55061 17.44587,-4.23065 36.73883,-4.59292 21.37656,-0.4014 23.8486,-0.92362 33.04325,-6.98035 l 5.84292,-3.84889 -4.375,3.8386 c -8.40021,7.37027 -13.13956,8.8659 -28.20715,8.90145 -13.25601,0.0312 -34.3155,1.62467 -41.42698,3.13444 -2.48759,0.52811 -2.95199,0.39812 -1.61587,-0.45233 z m 10.81058,-15.88667 c 5.80432,-7.3044 59.18849,-59.74529 59.99695,-58.93684 0.38044,0.38045 -2.26185,4.92197 -5.87175,10.09227 -6.20596,8.88852 -6.55254,9.79522 -6.3628,16.64622 0.35194,12.70697 -7.00774,20.35713 -19.59265,20.36598 -7.49506,0.005 -8.84779,0.59132 -20.21916,8.75944 -11.58742,8.32331 -12.36003,8.62194 -7.95059,3.07293 z m 347.82595,-41.81069 c -14.67008,-7.75429 -60.71074,-14.95545 -108.96974,-17.04383 -18.54492,-0.80251 -25.72765,-2.32898 -23.13912,-4.9175 1.19896,-1.19896 51.42907,1.60847 70.3363,3.93119 31.95897,3.92613 58.09275,10.72805 64.84886,16.87844 4.51715,4.11215 3.35067,4.54886 -3.0763,1.1517 z M 366.25001,143.81812 c -11.56507,-6.00892 -19.79923,-7.2938 -46.875,-7.31454 -21.88691,-0.0168 -33.38807,1.35931 -41.55497,4.97192 -5.94973,2.63185 -6.98521,1.48517 -2.11693,-2.34423 6.67048,-5.24699 10.87583,-5.78689 45.07517,-5.78689 l 32.65326,0 9.73072,5 c 5.35189,2.75 10.55467,6.26562 11.5617,7.8125 1.00704,1.54687 1.62175,2.74944 1.36602,2.67237 -0.25573,-0.0771 -4.68372,-2.33207 -9.83997,-5.01113 z"
       id="path3661"
       inkscape:connector-curvature="0" />
    <path
       style="fill:#85d43c"
       d="m 405.00001,633.19864 c -30.58228,-2.53124 -38.0633,-4.75205 -52.40073,-15.55562 l -9.73287,-7.33394 -78.6207,-0.37773 -78.6207,-0.37772 -8.125,-2.9872 c -8.6499,-3.18018 -26.35155,-14.14911 -32.13705,-19.91394 -1.91837,-1.91152 -4.38141,-4.00032 -5.47341,-4.6418 -1.92299,-1.12961 -8.63954,-14.48126 -8.63954,-17.1743 0,-0.73199 -1.10531,-2.50744 -2.45623,-3.94544 -1.79133,-1.90677 -2.80054,-5.65077 -3.72808,-13.83056 -1.34282,-11.84205 -2.71965,-19.24625 -5.10734,-27.46601 -0.79882,-2.75 -1.91577,-10.34375 -2.4821,-16.875 -2.07382,-23.9165 -3.74958,-37.70883 -4.83168,-39.76711 -1.34525,-2.55884 -3.49484,-19.10274 -4.57787,-35.23289 -0.43853,-6.53125 -1.8492,-16.375 -3.13483,-21.875 -1.28562,-5.5 -2.92805,-16.46875 -3.64984,-24.375 -0.7218,-7.90625 -1.86909,-17.1875 -2.549537,-20.625 -1.263494,-6.38295 -2.692369,-20.34385 -4.925513,-48.125 -1.866931,-23.22533 -4.932778,-55.29299 -6.572883,-68.75 -0.796012,-6.53125 -1.383993,-22.36168 -1.306625,-35.17873 0.126323,-20.92728 0.481485,-24.62395 3.482763,-36.25 4.846687,-18.77461 12.549125,-33.99266 21.500655,-42.47982 11.98251,-11.36091 26.68889,-19.12131 43.72173,-23.07149 23.33337,-5.41137 27.43597,-5.52024 207.78791,-5.5142 163.4474,0.005 172.75841,0.12517 188.20447,2.41956 25.2402,3.74922 38.39537,8.51625 53.75,19.47738 10.87363,7.76229 14.75357,12.40125 20.53524,24.55246 11.56671,24.30951 15.60695,53.78931 11.79253,86.04484 -1.01627,8.59375 -2.3179,22.09375 -2.89252,30 -0.57461,7.90625 -1.685,20.28125 -2.46752,27.5 -3.46508,31.9648 -4.14204,38.92204 -5.04763,51.875 -1.55615,22.25835 -5.92781,57.10182 -8.1032,64.58486 -1.10895,3.81468 -2.53536,12.49989 -3.1698,19.30046 -1.58896,17.03219 -3.503,32.47947 -5.00728,40.41157 -0.69565,3.66813 -1.26482,9.08718 -1.26482,12.04235 0,2.95516 -0.57385,6.88235 -1.27521,8.72708 -0.70137,1.84474 -1.82766,9.61573 -2.50289,17.26887 -0.67521,7.65315 -2.12972,17.00856 -3.23223,20.78981 -1.10252,3.78125 -2.76565,12.71149 -3.69588,19.84496 -0.93024,7.13349 -2.46811,13.88349 -3.41751,15 -0.94941,1.11653 -3.36309,5.88364 -5.36374,10.59359 -2.09691,4.93657 -5.03477,9.56329 -6.93652,10.92399 -1.81445,1.29825 -5.24759,4.19465 -7.62922,6.43645 -3.9551,3.72292 -15.04138,11.12792 -21.81015,14.56792 -1.5061,0.76543 -7.90735,2.775 -14.225,4.46571 -6.31766,1.69072 -12.57665,4.06048 -13.90888,5.26613 -5.9558,5.38992 -23.93152,14.84867 -33.18164,17.46004 -5.769,1.62862 -14.50914,2.09146 -44.07113,2.33377 -20.28125,0.16625 -39.40625,0.0928 -42.5,-0.1633 z m 80.51133,-2.98901 c 19.0273,-3.84193 36.66574,-18.06701 44.16126,-35.61525 1.46829,-3.4375 4.73298,-11.03125 7.25486,-16.875 11.20303,-25.95978 18.38917,-49.66604 24.25059,-80 0.73065,-3.78125 2.19088,-11.09375 3.24495,-16.25 1.05408,-5.15625 2.44693,-12.75 3.09521,-16.875 0.64829,-4.125 1.75315,-9.46504 2.45525,-11.86675 0.7021,-2.40171 1.27655,-6.0659 1.27655,-8.14265 0,-2.07674 1.03888,-6.61814 2.30862,-10.092 1.26975,-3.47386 2.69508,-9.22946 3.16745,-12.79023 0.47235,-3.56077 1.96472,-9.0541 3.31637,-12.20738 1.35166,-3.15329 2.45756,-8.14899 2.45756,-11.10157 0,-3.2469 0.74095,-5.98325 1.875,-6.92442 1.24238,-1.03108 1.875,-3.82981 1.875,-8.29501 0,-3.7064 0.47977,-7.71565 1.06614,-8.90945 2.8572,-5.81695 6.39033,-19.44632 7.05909,-27.2311 0.80909,-9.41834 2.7911,-17.66442 4.91244,-20.43795 0.73553,-0.96168 1.72725,-6.86793 2.20381,-13.125 1.31951,-17.32459 3.28479,-33.14298 4.65625,-37.4778 0.67841,-2.14428 1.77864,-7.83619 2.44496,-12.64869 0.66631,-4.8125 1.79813,-12.6875 2.51513,-17.5 2.84391,-19.08815 3.91311,-36.42343 2.65553,-43.05463 -0.68666,-3.62075 -0.95838,-7.05255 -0.60383,-7.62622 0.35456,-0.57368 -0.5093,-5.15518 -1.91968,-10.1811 -1.41037,-5.02593 -2.7468,-10.26305 -2.96985,-11.63805 -1.35626,-8.36076 -9.4829,-19.10201 -25.25481,-33.38013 -6.82226,-6.17611 -27.21165,-13.86921 -42.16813,-15.91041 -10.32192,-1.4087 -169.80887,-1.95597 -171.17746,-0.58738 -0.41089,0.41089 1.91911,3.36402 5.1778,6.56249 3.25869,3.19849 7.78891,8.72892 10.06718,12.28983 2.27827,3.56092 5.62013,7.06589 7.42637,7.78881 1.80624,0.72293 15.37781,2.14896 30.15906,3.16898 41.88349,2.89025 79.83445,10.23108 95.30343,18.4345 11.14879,5.91235 21.10651,16.51756 27.15111,28.91657 2.73939,5.61921 5.2959,11.90424 5.68114,13.96674 0.38522,2.0625 -0.62631,0.31191 -2.24788,-3.8902 -6.34512,-16.44273 -17.20572,-29.81223 -29.11733,-35.84369 -17.84499,-9.03585 -61.77245,-16.00631 -118.4739,-18.79956 -9.47762,-0.46689 -9.94323,-0.63556 -13.04432,-4.72536 -10.62041,-14.0065 -25.53575,-22.75873 -42.64535,-25.02403 -14.43233,-1.91082 -52.52556,-0.76809 -60.61156,1.81824 -12.94,4.1389 -21.43399,12.29225 -26.03552,24.99139 l -2.34557,6.47321 0.70558,-5.29956 c 1.05964,-7.95884 5.24996,-18.1525 10.04167,-24.42802 2.35017,-3.07792 3.92402,-5.94524 3.49744,-6.37182 -1.6436,-1.64359 -79.48904,-0.80584 -90.44927,0.97339 -27.87789,4.52555 -55.08979,23.04991 -62.6167,42.62601 -6.20897,16.14835 -9.47071,36.6625 -8.00016,50.3155 0.42561,3.95147 1.21073,12.8095 1.74472,19.6845 0.53397,6.875 1.33944,13.34375 1.78991,14.375 1.24305,2.84567 5.92256,35.88297 5.92256,41.81319 0,2.86495 0.82587,6.30087 1.83525,7.6354 1.2616,1.66798 1.85989,5.74748 1.91409,13.05141 0.0642,8.65487 0.64893,11.7839 3.15333,16.875 1.82056,3.70096 3.10133,8.54412 3.14035,11.875 0.0363,3.09375 0.63967,8.15625 1.341,11.25 0.70132,3.09375 1.94245,8.71875 2.75806,12.5 0.81561,3.78125 1.94694,7.59259 2.51406,8.46964 0.56711,0.87705 1.34854,4.67002 1.73648,8.42883 0.38795,3.75882 1.47081,7.46948 2.40637,8.24593 0.94704,0.78596 1.70101,3.76949 1.70101,6.731 0,2.92561 0.94954,7.49736 2.1101,10.15945 1.16055,2.66207 2.4906,8.21515 2.95567,12.34015 0.78792,6.98872 2.52058,13.24465 5.10178,18.42054 0.59535,1.1938 1.08245,2.95305 1.08245,3.90945 0,0.95638 0.81619,2.41627 1.81374,3.24416 0.99755,0.8279 2.1896,4.13115 2.64898,7.34056 0.45938,3.20941 1.90938,7.01376 3.22222,8.45413 1.36735,1.50016 2.71298,5.37135 3.15014,9.0625 0.50066,4.2273 1.34819,6.44366 2.46404,6.44366 1.13961,0 1.70088,1.58602 1.70088,4.80626 0,3.21878 0.82574,5.55355 2.5,7.06874 1.375,1.24436 2.5,2.7741 2.5,3.39944 0,0.62532 1.6875,2.5569 3.75,4.29237 2.0625,1.73549 3.75,4.14324 3.75,5.35058 0,1.20732 1.125,3.21325 2.5,4.45761 1.84469,1.66942 2.5,3.84996 2.5,8.31874 l 0,6.05626 77.8472,0 c 75.67769,0 77.90545,-0.068 79.9376,-2.44141 1.14973,-1.34279 2.95608,-4.11543 4.0141,-6.16143 1.05803,-2.04599 3.00453,-4.06304 4.32557,-4.48232 1.32103,-0.41928 3.27362,-2.09277 4.33907,-3.71884 2.77608,-4.23684 19.44155,-14.27445 28.60439,-17.22843 6.43165,-2.07348 11.48979,-2.54558 28.7106,-2.67973 20.84364,-0.16238 20.91267,-0.15369 24.10127,3.02935 4.83865,4.83021 5.33525,10.8997 1.36993,16.74295 -4.12679,6.08115 -4.08989,7.94748 0.18777,9.4966 6.15309,2.22827 9.0625,4.08371 9.0625,5.77948 0,1.19695 2.06832,1.66378 7.37147,1.66378 6.24065,0 7.96645,-0.52209 11.25,-3.40335 3.32335,-2.9162 3.89651,-4.30289 4.0041,-9.6875 l 0.12556,-6.28415 1.2196,5 c 1.72431,7.06919 0.44509,32.22464 -2.12945,41.875 -3.27194,12.2645 -4.87054,14.7337 -10.28189,15.88144 -7.20285,1.52772 -52.86689,1.03638 -56.80892,-0.61125 -3.42642,-1.43212 -4.67933,-4.38463 -6.74522,-15.89519 -0.84773,-4.72338 -0.77226,-4.89626 1.36424,-3.125 3.59784,2.98279 32.82791,3.43259 40.19635,0.61856 7.86833,-3.00495 10.28099,-9.52174 5.35053,-14.4522 -2.0538,-2.0538 -2.95102,-2.27876 -4.375,-1.09695 -1.44682,1.20075 -1.79018,1.03651 -1.78518,-0.85386 0.004,-1.2873 -0.95622,-5.02565 -2.13251,-8.30745 -1.99555,-5.56756 -2.00195,-6.47718 -0.0958,-13.59165 2.24927,-8.39479 1.51144,-12.52084 -2.63594,-14.74045 -3.23657,-1.73216 -28.86541,-1.70819 -38.29967,0.0359 -19.2198,3.55298 -34.86348,17.42153 -40.66018,36.04638 -2.09095,6.71825 -2.43214,11.57454 -2.43214,34.61826 0,21.17063 0.39985,27.76078 1.9026,31.35735 1.86884,4.47275 1.85975,4.51479 -0.51178,2.36856 -2.30828,-2.08895 -2.45008,-2.07257 -3.22609,0.37242 -1.2176,3.83631 3.34472,12.91197 9.5257,18.9491 9.9542,9.72256 20.11384,12.75882 49.80957,14.88588 18.57828,1.33073 69.3086,0.53764 78.01133,-1.21957 z m 38.33904,-39.99025 c 1.82226,-3.82629 2.39963,-4.53543 2.39963,-2.94725 0,0.67069 -0.87477,2.31131 -1.94396,3.64584 -1.83296,2.28788 -1.85899,2.248 -0.45567,-0.69859 z m 3.11615,-7.5 c 0.45975,-1.71875 1.35721,-3.96875 1.99437,-5 0.80514,-1.30311 0.90354,-0.92185 0.3226,1.25 -0.45975,1.71875 -1.35721,3.96875 -1.99437,5 -0.80514,1.30311 -0.90354,0.92185 -0.3226,-1.25 z m 13.09357,-36.25 c -0.009,-0.34375 1.6491,-5.901 3.68414,-12.34944 8.90537,-28.21861 17.88405,-81.6938 20.06876,-119.52556 1.51511,-26.23638 0.72976,-64.01316 -2.03891,-98.07663 -2.13869,-26.31257 -2.04558,-33.95787 0.16045,-13.17337 4.49186,42.32105 5.4928,119.68917 1.84357,142.5 -5.44752,34.05176 -6.70087,41.29232 -8.95502,51.73306 -3.94403,18.26785 -14.64063,53.69276 -14.76299,48.89194 z m -192.95595,-81.25 c 0.40906,-3.09375 0.94674,-5.85938 1.19481,-6.14584 0.94032,-1.08579 0.22545,6.88351 -0.83161,9.27084 -0.73915,1.66932 -0.85982,0.63099 -0.3632,-3.125 z m -178.93234,-44.6875 c -1.27748,-3.3045 -5.68983,-25.29533 -5.54533,-27.6376 0.0695,-1.12745 1.37925,3.85635 2.91042,11.0751 1.53119,7.21875 3.19968,14.39062 3.70778,15.9375 1.08307,3.2974 0.16666,3.83126 -1.07287,0.625 z m -10.58033,-51.65396 c -2.29423,-11.68494 -3.93123,-21.48544 -3.63779,-21.77889 0.29345,-0.29344 2.41064,9.02687 4.70486,20.71181 2.29423,11.68494 3.93123,21.48544 3.63779,21.77889 -0.29345,0.29344 -2.41064,-9.02688 -4.70486,-20.71181 z m -6.34147,-31.78354 c -0.85485,-4.53056 -1.30126,-8.49041 -0.992,-8.79966 0.30925,-0.30925 1.24784,3.15841 2.08575,7.70591 0.83792,4.5475 1.28432,8.50735 0.992,8.79966 -0.2923,0.29231 -1.2309,-3.17535 -2.08575,-7.70591 z m 323.75,0.22121 c -4.01823,-1.81834 -8.39123,-2.57054 -15.30913,-2.63332 -9.51214,-0.0864 -9.68162,-0.14339 -9.54249,-3.21289 0.0915,-2.01953 0.34012,-2.37049 0.70276,-0.99211 0.48043,1.8261 1.68534,2.02791 8.37679,1.40306 6.38389,-0.59614 8.94152,-0.2318 13.96162,1.98882 3.7614,1.66384 6.3153,2.21069 6.58238,1.40944 0.7479,-2.24369 2.72807,-1.4329 2.72807,1.11701 0,3.58245 -1.27168,3.73844 -7.5,0.91999 z m 5.19737,-7.09621 c 0,-1.71875 0.28372,-2.42188 0.63048,-1.5625 0.34677,0.85937 0.34677,2.26562 0,3.125 -0.34676,0.85937 -0.63048,0.15625 -0.63048,-1.5625 z m -331.25,-6.25 c 0,-1.71875 0.28372,-2.42188 0.63048,-1.5625 0.34677,0.85937 0.34677,2.26562 0,3.125 -0.34676,0.85937 -0.63048,0.15625 -0.63048,-1.5625 z m -1.25,-6.25 c 0,-1.71875 0.28372,-2.42188 0.63048,-1.5625 0.34677,0.85937 0.34677,2.26562 0,3.125 -0.34676,0.85937 -0.63048,0.15625 -0.63048,-1.5625 z m -2.01555,-9.43181 c -0.47814,-3.18853 -0.61368,-6.053 -0.30118,-6.3655 0.3125,-0.3125 0.9594,2.04061 1.43755,5.22912 0.47814,3.18853 0.61368,6.053 0.30118,6.3655 -0.3125,0.3125 -0.9594,-2.04061 -1.43755,-5.22912 z m -2.60563,-14.90099 c -2.93859,-23.5197 3.18161,-38.86933 16.92381,-42.44534 2.73302,-0.71119 2.65462,-0.55364 -0.625,1.25599 -6.22505,3.43486 -10.29733,7.97612 -13.19718,14.717 -2.4456,5.68496 -2.68229,7.90562 -2.116,19.85305 0.35067,7.39865 0.46446,13.4521 0.25283,13.4521 -0.21161,0 -0.76892,-3.07476 -1.23846,-6.8328 z m 416.01426,-10.6672 c 0,-3.09375 0.24378,-4.35938 0.54172,-2.8125 0.29795,1.54687 0.29795,4.07812 0,5.625 -0.29794,1.54687 -0.54172,0.28125 -0.54172,-2.8125 z m -1.25,-11.25 c 0,-3.09375 0.24378,-4.35938 0.54172,-2.8125 0.29795,1.54687 0.29795,4.07812 0,5.625 -0.29794,1.54687 -0.54172,0.28125 -0.54172,-2.8125 z m -1.27522,-10.625 c 0.0139,-2.75 0.26986,-3.72781 0.56885,-2.17293 0.29899,1.55489 0.28764,3.80489 -0.0253,5 -0.31286,1.19512 -0.5575,-0.0771 -0.54363,-2.82707 z m -1.27523,-10.625 c 0,-2.40625 0.25725,-3.39063 0.57167,-2.1875 0.3144,1.20312 0.3144,3.17187 0,4.375 -0.31442,1.20312 -0.57167,0.21875 -0.57167,-2.1875 z m -381.77437,-3.35389 c 0.90234,-0.36109 1.98046,-0.31669 2.39584,0.0986 0.41536,0.41536 -0.32293,0.7108 -1.64063,0.65652 -1.45619,-0.06 -1.75237,-0.35617 -0.75521,-0.7552 z m 11.18645,-1.28019 c 1.55489,-0.29898 3.80489,-0.28763 5,0.0252 1.19511,0.31287 -0.0771,0.5575 -2.82708,0.54363 -2.75,-0.0139 -3.72781,-0.26986 -2.17292,-0.56885 z m 34.38421,-1.23216 c 1.21621,-0.31692 2.90371,-0.29609 3.75,0.0464 0.84629,0.34241 -0.14879,0.60171 -2.21129,0.57623 -2.0625,-0.0255 -2.75492,-0.30562 -1.53871,-0.62255 z m 334.95371,-2.88376 c 0,-2.40625 0.25725,-3.39063 0.57167,-2.1875 0.3144,1.20312 0.3144,3.17187 0,4.375 -0.31442,1.20312 -0.57167,0.21875 -0.57167,-2.1875 z m -406.12032,0.54067 c -1.66266,-4.33283 6.7188,-14.07402 29.84292,-34.68432 9.99115,-8.905 16.93335,-16.18381 48.97908,-51.35394 6.11416,-6.71029 12.56096,-12.74965 14.3262,-13.4208 7.45989,-2.83624 11.63195,1.91428 9.03292,10.2853 l -1.32205,4.25809 0.68505,-4.78225 c 0.40662,-2.83859 0.0845,-5.50581 -0.79243,-6.5625 -3.84375,-4.63144 -6.27607,-2.58289 -46.87747,39.48127 -10.9554,11.35009 -27.44912,27.74294 -36.65272,36.42858 -14.69473,13.86772 -16.6579,16.18917 -16.11084,19.05097 0.68974,3.60814 0.0586,4.34665 -1.11066,1.2996 z m 78.95532,0.70933 c 3.43637,-1.47665 5.40997,-1.47665 3.125,0 -1.03125,0.66645 -2.71875,1.1808 -3.75,1.143 -1.23632,-0.0453 -1.02342,-0.43465 0.625,-1.143 z m 8.75,-4.19286 c 2.0625,-1.76948 4.12534,-3.23747 4.58408,-3.26219 0.45874,-0.0248 3.13061,-3.48405 5.9375,-7.68739 2.80689,-4.20335 5.10342,-7.14896 5.10342,-6.54581 0,2.21444 -8.76157,14.02424 -12.14117,16.36519 -5.77259,3.99851 -7.46835,4.54863 -3.48383,1.1302 z m 317.165,-7.05714 c 0,-2.40625 0.25725,-3.39063 0.57167,-2.1875 0.3144,1.20312 0.3144,3.17187 0,4.375 -0.31442,1.20312 -0.57167,0.21875 -0.57167,-2.1875 z m -1.29631,-9.375 c 0.0255,-2.0625 0.30563,-2.75493 0.62255,-1.53871 0.31693,1.21621 0.29609,2.90371 -0.0464,3.75 -0.34242,0.84628 -0.60172,-0.14879 -0.57624,-2.21129 z m -298.895,-8.85416 c 0.06,-1.45619 0.35618,-1.75238 0.7552,-0.75522 0.36109,0.90234 0.31669,1.98047 -0.0986,2.39584 -0.41538,0.41536 -0.7108,-0.32292 -0.65653,-1.64062 z m 1.6573,-23.64584 c 0.001,-11 0.19281,-15.33266 0.42495,-9.62815 0.23215,5.70452 0.23085,14.70452 -0.002,20 -0.23372,5.29549 -0.42366,0.62815 -0.42207,-10.37185 z m -9.1573,12.39584 c 0.06,-1.45619 0.35618,-1.75238 0.7552,-0.75522 0.36109,0.90234 0.31669,1.98047 -0.0986,2.39584 -0.41538,0.41536 -0.7108,-0.32292 -0.65653,-1.64062 z m 1.62403,-19.27084 c 0,-7.90625 0.20296,-11.14063 0.45102,-7.1875 0.24806,3.95312 0.24806,10.42187 0,14.375 -0.24806,3.95312 -0.45102,0.71875 -0.45102,-7.1875 z m 8.56728,-18.75 c 0,-2.40625 0.25725,-3.39063 0.57167,-2.1875 0.3144,1.20312 0.3144,3.17187 0,4.375 -0.31442,1.20312 -0.57167,0.21875 -0.57167,-2.1875 z m -7.5,-2.5 c 0,-2.40625 0.25725,-3.39063 0.57167,-2.1875 0.3144,1.20312 0.3144,3.17187 0,4.375 -0.31442,1.20312 -0.57167,0.21875 -0.57167,-2.1875 z m 430.02523,376.875 c 0.0139,-2.75 0.26986,-3.72781 0.56885,-2.17293 0.29899,1.55489 0.28764,3.80489 -0.0253,5 -0.31286,1.19512 -0.5575,-0.0771 -0.54363,-2.82707 z m 0.26644,-81.875 c 0,-36.09375 0.15971,-50.85938 0.35492,-32.8125 0.1952,18.04687 0.1952,47.57812 0,65.625 -0.19521,18.04687 -0.35492,3.28125 -0.35492,-32.8125 z M 50.502253,80.51475 c 1.823501,-2.137465 2.769792,-2.460753 4.0625,-1.387902 1.254954,1.041519 2.243806,0.97924 3.87276,-0.243911 1.203125,-0.903405 0.903357,-0.269155 -0.666151,1.409443 -2.34659,2.509693 -3.051522,2.733114 -3.96723,1.257375 -0.962347,-1.550897 -1.4236,-1.553822 -3.39635,-0.02154 -2.061572,1.601271 -2.052417,1.503067 0.09448,-1.013464 z m 612.954987,-1.642296 -4.08223,-3.846924 4.24163,2.909424 c 2.87455,1.971724 4.41135,2.428466 4.76825,1.417145 0.28965,-0.820754 1.3196,-1.187994 2.28876,-0.816091 1.5121,0.580249 1.51331,0.924991 0.009,2.429779 -2.36577,2.365776 -2.54961,2.312511 -7.22494,-2.093333 z M 61.250013,77.247434 c 0,-0.25957 0.984375,-1.243945 2.1875,-2.1875 1.98257,-1.554839 2.026782,-1.510626 0.471944,0.471944 -1.632962,2.082185 -2.659444,2.744349 -2.659444,1.715556 z m 37.8125,-7.963651 c 12.203127,-0.20465 32.171877,-0.20465 44.374997,0 12.20313,0.20465 2.21875,0.372091 -22.1875,0.372091 -24.406247,0 -34.390622,-0.167441 -22.187497,-0.372091 z m 480.544377,4.5e-4 c 11.81502,-0.205259 31.50252,-0.205609 43.75,-7.78e-4 12.24746,0.20483 2.58062,0.372769 -21.48188,0.373198 -24.0625,4.27e-4 -34.08316,-0.167161 -22.26812,-0.37242 z"
       id="path3659"
       inkscape:connector-curvature="0" />
    <path
       style="fill:#6ed02f"
       d="m 428.5092,634.28505 c 8.4613,-0.21657 21.9613,-0.21591 30,0.001 8.0387,0.21739 1.11581,0.39459 -15.38419,0.39378 -16.5,-8.3e-4 -23.07711,-0.17869 -14.61581,-0.39526 z m -30.07169,-1.21992 c 2.23438,-0.27728 5.89063,-0.27728 8.125,0 2.23438,0.27729 0.40625,0.50416 -4.0625,0.50416 -4.46875,0 -6.29687,-0.22687 -4.0625,-0.50416 z m 83.84607,-0.33458 c 4.3497,-0.62188 9.9747,-1.79985 12.5,-2.61771 7.4781,-2.42191 25.13416,-12.16906 29.9692,-16.54471 1.33223,-1.20565 7.59122,-3.57541 13.90888,-5.26613 6.31765,-1.69071 12.7189,-3.70028 14.225,-4.46571 6.76877,-3.44 17.85505,-10.845 21.81015,-14.56792 2.38163,-2.2418 5.81477,-5.1382 7.62922,-6.43645 1.90175,-1.3607 4.83961,-5.98742 6.93652,-10.92399 2.00065,-4.70995 4.41433,-9.47706 5.36374,-10.59359 0.9494,-1.11651 2.48727,-7.86651 3.41751,-15 0.93023,-7.13347 2.59336,-16.06371 3.69588,-19.84496 1.10251,-3.78125 2.55702,-13.13666 3.23223,-20.78981 0.67523,-7.65314 1.80152,-15.42413 2.50289,-17.26887 0.70136,-1.84473 1.27521,-5.77192 1.27521,-8.72708 0,-2.95517 0.56917,-8.37422 1.26482,-12.04235 1.50428,-7.9321 3.41832,-23.37938 5.00728,-40.41157 0.63444,-6.80057 2.06085,-15.48578 3.1698,-19.30046 2.17539,-7.48304 6.54705,-42.32651 8.1032,-64.58486 0.90559,-12.95296 1.58255,-19.9102 5.04763,-51.875 0.78252,-7.21875 1.89291,-19.59375 2.46752,-27.5 0.57462,-7.90625 1.87625,-21.40625 2.89252,-30 3.81442,-32.25553 -0.22582,-61.73533 -11.79253,-86.04484 -5.78167,-12.15121 -9.66161,-16.79017 -20.53524,-24.55246 -15.35463,-10.96113 -28.5098,-15.72816 -53.75,-19.47738 -15.44606,-2.29439 -24.75707,-2.41409 -188.20447,-2.41956 -180.35194,-0.006 -184.45454,0.10283 -207.78791,5.5142 -17.03284,3.95018 -31.73922,11.71058 -43.72173,23.07149 -8.95153,8.48716 -16.653968,23.70521 -21.500654,42.47982 -3.001279,11.62605 -3.35644,15.32272 -3.482764,36.25 -0.07736,12.81705 0.510614,28.64748 1.306625,35.17873 1.640105,13.45701 4.705952,45.52467 6.572884,68.75 2.233143,27.78115 3.662018,41.74205 4.925512,48.125 0.680448,3.4375 1.827737,12.71875 2.549537,20.625 0.72179,7.90625 2.36422,18.875 3.64984,24.375 1.28563,5.5 2.6963,15.34375 3.13483,21.875 1.08303,16.13015 3.23262,32.67405 4.57787,35.23289 1.0821,2.05828 2.75786,15.85061 4.83168,39.76711 0.56633,6.53125 1.68328,14.125 2.4821,16.875 2.38769,8.21976 3.76452,15.62396 5.10734,27.46601 0.92754,8.17979 1.93675,11.92379 3.72808,13.83056 1.35092,1.438 2.45623,3.21345 2.45623,3.94544 0,2.69304 6.71655,16.04469 8.63954,17.1743 1.092,0.64148 3.55504,2.73028 5.47341,4.6418 5.7855,5.76483 23.48715,16.73376 32.13705,19.91394 l 8.125,2.9872 78.66902,0.3778 78.66902,0.37781 8.83098,6.69304 c 10.42106,7.89816 14.63001,10.14279 23.49367,12.5291 3.62303,0.97541 5.45101,1.81049 4.06219,1.85574 -1.38881,0.0453 -6.58483,-1.04274 -11.54668,-2.41774 -8.597,-2.38235 -12.89008,-2.50078 -91.22487,-2.51643 -76.91915,-0.0154 -82.9265,-0.17376 -93.45333,-2.46415 -21.9574,-4.7774 -34.79947,-9.31858 -41.99891,-14.85156 -9.13997,-7.02435 -8.54216,-6.44565 -14.87609,-14.40065 -3.09375,-3.88556 -7.45312,-9.3572 -9.6875,-12.1592 -2.23437,-2.802 -4.0625,-6.07915 -4.0625,-7.28255 0,-1.2034 -1.03612,-3.12567 -2.30248,-4.27171 -1.4236,-1.28835 -2.91054,-5.53728 -3.89545,-11.13124 -0.87613,-4.97614 -1.98869,-9.61001 -2.47235,-10.29751 -1.71421,-2.43663 -3.833628,-11.38918 -5.170322,-21.8397 -0.744971,-5.82434 -1.732473,-11.16809 -2.194445,-11.875 -0.461973,-0.70691 -1.779185,-6.9103 -2.92714,-13.7853 -1.147954,-6.875 -2.722371,-14.75 -3.498705,-17.5 -0.776335,-2.75 -1.936246,-8.65625 -2.577581,-13.125 -0.641337,-4.46875 -2.043375,-12.0625 -3.115644,-16.875 -1.072268,-4.8125 -2.433061,-12.125 -3.023985,-16.25 -0.96061,-6.70563 -4.086455,-25.58835 -9.415086,-56.875 -0.995287,-5.84375 -2.729537,-16.53125 -3.853889,-23.75 -1.124351,-7.21875 -2.500628,-13.6875 -3.058391,-14.375 -0.557764,-0.6875 -1.284907,-4.90625 -1.615874,-9.375 -0.330968,-4.46875 -1.195,-10.9375 -1.920071,-14.375 -7.348919,-34.84054 -8.259504,-49.51643 -8.298692,-133.75 l -0.03489,-75 2.8125,-4.52254 c 1.546875,-2.4874 2.8125,-5.42175 2.8125,-6.52078 0,-1.707322 2.362276,-4.856968 12.81149,-17.081682 0.881474,-1.03125 3.831402,-3.703125 6.555399,-5.9375 l 4.952721,-4.0625 -4.09688,0 c -7.748001,0 -17.180692,6.695337 -21.635138,15.35665 -2.617411,5.089349 -4.267043,5.056756 -6.236466,-0.123213 -1.003165,-2.638522 -1.469564,-2.918133 -2.403755,-1.441076 -0.637498,1.007955 -1.167702,1.191836 -1.17823,0.408625 -0.0105,-0.783211 1.094432,-2.751961 2.455465,-4.375 2.010021,-2.39696 2.690744,-2.622826 3.625862,-1.20307 0.924862,1.404188 2.239307,0.856331 6.684271,-2.785982 11.104798,-9.099554 -16.380442,-8.336934 300.467586,-8.336934 210.25832,0 287.08955,0.376582 290.58647,1.424289 2.61463,0.783358 7.38175,3.595858 10.59364,6.25 5.91579,4.88853 8.06756,5.842238 8.06756,3.575711 0,-2.538606 2.49318,-1.139038 4.3429,2.437925 2.16157,4.179996 2.54995,6.924374 0.47439,3.351995 -1.22361,-2.106029 -1.56277,-1.867981 -3.45762,2.426785 l -2.10093,4.761865 -4.00545,-7.097265 c -4.83341,-8.56433 -11.57962,-13.421266 -19.91791,-14.339896 l -5.96038,-0.656655 6.5625,5.21169 c 3.60938,2.86643 6.5625,5.794781 6.5625,6.507448 0,0.712668 2.8125,4.269563 6.25,7.904213 3.4375,3.634649 6.25,7.694567 6.25,9.022037 0,1.32748 0.82218,3.5874 1.82704,5.02206 3.15441,4.50354 4.2821,32.0001 3.81199,92.9478 -0.42906,55.62524 -1.78203,84.06547 -4.57881,96.25 -0.71013,3.09375 -1.74083,9.28125 -2.29044,13.75 -0.54961,4.46875 -1.67899,10.375 -2.50973,13.125 -0.83072,2.75 -1.94695,9.58166 -2.48048,15.18149 -0.53354,5.59981 -1.42645,10.91991 -1.98424,11.82243 -0.5578,0.90253 -1.71783,7.7927 -2.57785,15.31149 -0.86003,7.5188 -2.14774,15.1362 -2.86159,16.92756 -1.1726,2.94262 -3.21669,14.9178 -6.42354,37.63203 -0.6309,4.46875 -2.58353,16.28125 -4.33918,26.25 -1.75565,9.96875 -3.99572,22.90625 -4.97793,28.75 -0.98221,5.84375 -2.422,12.50672 -3.19952,14.80662 -0.77753,2.29989 -1.88862,7.08114 -2.46908,10.625 -1.50692,9.20007 -2.48609,13.5846 -3.6722,16.44338 -0.57049,1.375 -1.68849,7.5625 -2.48442,13.75 -0.79595,6.1875 -1.9102,12.375 -2.47612,13.75 -1.26183,3.06586 -3.12596,10.16459 -5.17408,19.70327 -0.85067,3.9618 -2.2701,7.80368 -3.1543,8.53749 -0.8842,0.73383 -2.22733,3.2119 -2.98473,5.50684 -0.7574,2.29495 -2.75492,5.07542 -4.43894,6.17884 -1.68401,1.1034 -3.06185,2.62817 -3.06185,3.38837 0,1.37229 -6.00562,8.99979 -11.50595,14.61325 -6.81572,6.95591 -15.80168,12.9018 -22.24405,14.7186 -3.78125,1.06634 -9.85323,3.01794 -13.4933,4.3369 -8.8748,3.21574 -26.19455,6.1414 -36.35793,6.14161 -5.35694,10e-5 -11.79915,1.10914 -18.27377,3.14583 -5.5,1.73011 -13.65625,3.39321 -18.125,3.69577 l -8.125,0.5501 7.90857,-1.1307 z m -97.59607,-0.89333 c 1.54688,-0.29795 4.07813,-0.29795 5.625,0 1.54688,0.29793 0.28125,0.54171 -2.8125,0.54171 -3.09375,0 -4.35937,-0.24378 -2.8125,-0.54171 z M 563.94738,400.21938 c 0,-1.71875 0.28372,-2.42188 0.63048,-1.5625 0.34677,0.85937 0.34677,2.26562 0,3.125 -0.34676,0.85937 -0.63048,0.15625 -0.63048,-1.5625 z m 0.0464,-30.625 c 0.0255,-2.0625 0.30563,-2.75493 0.62255,-1.53871 0.31693,1.21621 0.29609,2.90371 -0.0464,3.75 -0.34242,0.84628 -0.60172,-0.14879 -0.57624,-2.21129 z M 448.51564,159.36549 c 0.90234,-0.36109 1.98047,-0.31669 2.39584,0.0986 0.41536,0.41537 -0.32293,0.7108 -1.64063,0.65652 -1.45619,-0.06 -1.75237,-0.35617 -0.75521,-0.7552 z m -13.82813,-1.22396 c 0.85938,-0.34676 2.26563,-0.34676 3.125,0 0.85938,0.34676 0.15625,0.63049 -1.5625,0.63049 -1.71875,0 -2.42187,-0.28373 -1.5625,-0.63049 z m -19.375,-1.28381 c 1.20313,-0.3144 3.17188,-0.3144 4.375,0 1.20313,0.31441 0.21875,0.57166 -2.1875,0.57166 -2.40625,0 -3.39062,-0.25725 -2.1875,-0.57166 z m -23.04687,-1.24223 c 0.90234,-0.36109 1.98047,-0.31669 2.39584,0.0986 0.41536,0.41537 -0.32293,0.7108 -1.64063,0.65652 -1.45619,-0.06 -1.75237,-0.35617 -0.75521,-0.7552 z m -156.64063,-5.39611 c 1.24437,-1.375 2.54373,-2.5 2.88748,-2.5 0.34375,0 -0.39311,1.125 -1.63748,2.5 -1.24436,1.375 -2.54372,2.5 -2.88747,2.5 -0.34375,0 0.39311,-1.125 1.63747,-2.5 z m 144.28039,-7.1875 -3.03039,-3.4375 3.4375,3.03039 c 3.21287,2.83236 4.01074,3.84461 3.03039,3.84461 -0.2239,0 -1.77077,-1.54688 -3.4375,-3.4375 z m -6.31484,-5 c -1.55483,-1.98258 -1.51062,-2.02679 0.47195,-0.47195 1.20313,0.94356 2.1875,1.92794 2.1875,2.1875 0,1.0288 -1.02648,0.36664 -2.65945,-1.71555 z m -103.77382,-1.94624 c 2.83901,-3.45509 14.105,-8.20397 22.68327,-9.56154 10.36463,-1.64027 42.96782,-1.63769 54.375,0.004 7.81044,1.12427 24.375,7.42777 24.375,9.27569 0,0.39385 -2.23228,-0.42275 -4.96065,-1.81465 -9.66272,-4.92956 -19.21906,-6.23331 -45.66435,-6.2299 -28.19096,0.004 -39.24116,1.64186 -47.41028,7.02871 -2.79934,1.84592 -4.32844,2.42974 -3.39799,1.29738 z M 45.098697,96.990212 c 0.05998,-1.456179 0.356176,-1.752375 0.755208,-0.755209 0.361089,0.902344 0.31668,1.980469 -0.09869,2.395834 C 45.33985,99.0462 45.044414,98.307919 45.09869,96.990212 Z"
       id="path3657"
       inkscape:connector-curvature="0" />
    <path
       style="fill:#6e6e6e"
       d="m 55.506248,683.65688 -2.381235,-2.8125 2.8125,2.38124 c 2.643056,2.23777 3.381551,3.24376 2.381235,3.24376 -0.237196,0 -1.502821,-1.26563 -2.8125,-2.8125 z M 428.5092,621.78505 c 8.4613,-0.21657 21.9613,-0.21591 30,0.001 8.0387,0.21739 1.11581,0.39459 -15.38419,0.39378 -16.5,-8.3e-4 -23.07711,-0.17869 -14.61581,-0.39526 z m -28.82169,-1.19783 c 1.54688,-0.29795 4.07813,-0.29795 5.625,0 1.54688,0.29793 0.28125,0.54171 -2.8125,0.54171 -3.09375,0 -4.35937,-0.24378 -2.8125,-0.54171 z m 80.64879,0.0159 c 1.21621,-0.31692 2.90371,-0.29609 3.75,0.0464 0.84629,0.34241 -0.14879,0.60171 -2.21129,0.57623 -2.0625,-0.0255 -2.75492,-0.30562 -1.53871,-0.62255 z m -94.38421,-1.26784 c 1.55489,-0.29898 3.80489,-0.28763 5,0.0253 1.19511,0.31287 -0.0771,0.5575 -2.82708,0.54363 -2.75,-0.0139 -3.72781,-0.26986 -2.17292,-0.56885 z m 101.31355,0.0303 c 0.90234,-0.36108 1.98047,-0.31668 2.39584,0.0986 0.41536,0.41536 -0.32293,0.7108 -1.64063,0.65652 -1.45619,-0.06 -1.75237,-0.35617 -0.75521,-0.7552 z m -108.75,-1.25 c 0.90234,-0.36108 1.98047,-0.31668 2.39584,0.0986 0.41536,0.41536 -0.32293,0.7108 -1.64063,0.65652 -1.45619,-0.06 -1.75237,-0.35617 -0.75521,-0.7552 z m 115.33854,-0.8518 c 0.28646,-0.25062 1.92708,-1.1254 3.64583,-1.94395 2.94659,-1.40331 2.98648,-1.37728 0.69859,0.45568 -1.99125,1.59532 -6.05982,2.9891 -4.34442,1.48827 z m -123.22032,-2.03 c -0.43792,-0.70857 0.0639,-0.91812 1.17623,-0.49126 2.16552,0.83099 2.56174,1.72695 0.7637,1.72695 -0.64693,0 -1.5199,-0.55606 -1.93993,-1.23569 z m 130.61615,-1.61027 c 0,-0.23865 1.82813,-1.77221 4.0625,-3.40791 2.51388,-1.84032 3.38694,-2.14217 2.2903,-0.79183 -1.66462,2.04973 -6.3528,5.149 -6.3528,4.19974 z M 360.1295,607.05088 c -2.13371,-2.43016 -3.87949,-4.79266 -3.87949,-5.25 0,-0.45733 0.42624,-0.29713 0.94719,0.356 0.52095,0.65312 2.59494,3.01562 4.60886,5.25 2.01393,2.23437 3.33347,4.0625 2.9323,4.0625 -0.40115,0 -2.47513,-1.98833 -4.60886,-4.4185 z m 152.99551,-3.0815 c 1.24437,-1.375 2.54373,-2.5 2.88748,-2.5 0.34375,0 -0.39311,1.125 -1.63748,2.5 -1.24436,1.375 -2.54372,2.5 -2.88747,2.5 -0.34375,0 0.39311,-1.125 1.63747,-2.5 z m 3.125,-4.22195 c 0,-0.25956 0.98438,-1.24394 2.1875,-2.1875 1.98258,-1.55484 2.02679,-1.51063 0.47195,0.47195 -1.63296,2.08219 -2.65945,2.74435 -2.65945,1.71555 z m -119.375,-21.83015 c -4.44882,-2.72001 -6.26466,-4.83009 -7.43125,-8.6354 -1.13475,-3.70146 0.76424,-3.61069 6.53774,0.3125 4.59798,3.1244 4.60473,3.125 35.40603,3.125 24.47435,0 31.72415,-0.38314 35.26796,-1.86384 5.164,-2.15765 6.58791,-1.00375 3.75402,3.04218 -3.95633,5.64846 -8.22723,6.32198 -40.05685,6.31698 -26.63057,-0.004 -30.11833,-0.24353 -33.47765,-2.29742 z m 67.8125,-1.4342 c 2.23438,-1.36233 4.06283,-2.62585 4.06322,-2.80783 4e-4,-0.18198 -15.60898,-0.33317 -34.6875,-0.336 -19.07852,-0.003 -36.09447,-0.513 -37.81322,-1.13373 l -3.125,-1.12862 2.5,2.84378 c 1.375,1.56407 3.625,3.30422 5,3.867 1.375,0.56277 15.4375,1.05679 31.25,1.0978 26.536,0.0688 29.06285,-0.11625 32.8125,-2.4024 z M 360.7818,550.54089 c -5.29312,-18.09827 -2.05042,-30.57267 11.09781,-42.6923 9.10184,-8.38979 14.9542,-10.3874 33.7454,-11.51854 8.9375,-0.53798 18.09578,-1.00797 20.35173,-1.04441 5.6789,-0.0917 6.77889,3.21854 2.2654,6.81746 -5.19755,4.14439 -5.7254,11.19169 -1.3921,18.5859 1.86315,3.17922 2.9122,5.83859 2.33125,5.90974 -0.58095,0.0711 -7.89916,0.0221 -16.2627,-0.109 -11.9651,-0.18755 -16.14101,0.20514 -19.59091,1.84223 -6.04024,2.86627 -8.85375,9.07196 -7.88492,17.39151 l 0.74192,6.37087 -12.38024,0.32152 c -10.89758,0.283 -12.45718,0.0585 -13.02264,-1.875 z m 9.82578,-32.69446 c 11.07467,-10.47398 17.0421,-12.72013 37.1357,-13.97798 16.3976,-1.02647 22.25673,-2.30832 22.25673,-4.86928 0,-2.28197 -2.5444,-2.46048 -20.83863,-1.46203 -21.87274,1.19375 -29.12344,3.68879 -38.37098,13.2038 -4.87881,5.01994 -9.47602,13.22844 -7.40864,13.22844 0.41343,0 3.66505,-2.75533 7.22582,-6.12295 z m 53.7242,16.44117 c 4.10122,-0.25247 8.31997,-1.13048 9.375,-1.95113 1.68032,-1.30704 1.70546,-1.22079 0.20268,0.69541 -1.34383,1.71352 -3.37518,2.13629 -9.375,1.95115 l -7.65945,-0.23636 7.45677,-0.45907 z m 52.29863,-43.17833 c -8.44125,-14.11283 -26.87001,-26.93443 -40.2445,-27.99964 -3.16848,-0.25235 -17.12511,-0.94293 -31.01468,-1.53461 -22.08387,-0.94075 -25.96378,-1.41948 -30.90992,-3.81387 -7.78346,-3.76791 -16.30701,-13.61565 -19.59875,-22.64356 -2.52397,-6.92222 -4.91658,-9.09459 -6.74977,-6.12844 -0.43163,0.69839 -2.66314,10.59149 -4.95891,21.98469 -4.40792,21.87501 -5.75265,24.75816 -13.40429,28.7393 -4.74916,2.47099 -8.96911,2.21634 -25.03865,-1.51097 -37.62576,-8.72725 -70.78148,-18.71067 -93.73051,-28.22292 -20.23304,-8.38648 -25.72264,-16.57335 -30.38402,-45.3129 -2.35122,-14.49645 -2.35388,-40.63111 -0.005,-55.10925 5.10979,-31.50392 20.55484,-64.94338 39.94444,-86.48207 l 5.86885,-6.51935 -3.2163,-0.80724 c -4.98012,-1.24994 -46.99669,0.24358 -52.15865,1.85401 -2.52772,0.78862 -7.4496,3.39687 -10.9375,5.79612 -6.05215,4.16313 -6.34162,4.23647 -6.34162,1.60638 0,-10.54657 18.09805,-18.7808 40.37402,-18.3693 l 9.00098,0.16627 -10,1.0045 c -18.37344,1.84561 -30.14225,5.43781 -34.32425,10.47681 -2.63338,3.17302 -0.69833,3.56642 4.51561,0.91802 8.07147,-4.09986 18.79747,-5.57183 42.30864,-5.80616 20.44638,-0.20377 23.09635,-0.48595 29.03381,-3.09156 6.08454,-2.67018 17.65857,-13.18344 16.16161,-14.6804 -0.36092,-0.36091 -2.52537,0.76945 -4.8099,2.51194 -2.28452,1.74248 -7.24334,4.6063 -11.0196,6.36402 -5.98056,2.78375 -8.39721,3.17216 -18.74092,3.01206 l -11.875,-0.18381 12.5,-0.83182 c 17.9491,-1.19447 26.7184,-6.02998 37.45398,-20.65265 3.27962,-4.46792 6.46665,-8.12349 7.08169,-8.12349 0.61504,0 0.77531,2.14466 0.35615,4.76592 l -0.7621,4.76594 16.05984,-7.85396 c 25.97339,-12.70213 48.47756,-17.91785 77.30982,-17.91785 27.79427,0 50.89194,5.15456 75.12785,16.7658 38.02119,18.21565 65.50565,45.70011 83.7213,83.7213 18.45628,38.52342 21.9763,83.13266 9.87655,125.16512 -3.94577,13.70693 -14.36735,35.77352 -22.77118,48.21558 -6.2705,9.28361 -17.32964,22.37215 -18.90332,22.37215 -0.46316,0 -2.62127,-2.97455 -4.7958,-6.61011 z M 335.92173,466.06572 c 0.72765,-1.59703 3.11392,-10.73543 5.30283,-20.30755 4.14962,-18.14635 5.16708,-20.53879 8.73478,-20.53879 2.94817,0 5.44544,3.23372 8.14857,10.55169 2.80005,7.58035 10.32019,15.96435 17.38863,19.38612 4.12857,1.9986 7.75691,2.56219 16.49526,2.56219 l 11.20248,0 8.97131,-7.1875 c 16.5596,-13.26695 28.41711,-31.75323 33.47427,-52.1875 2.74104,-11.07559 2.77084,-32.16831 0.0598,-42.24849 -1.0723,-3.98666 -1.9496,-7.42544 -1.9496,-7.6417 0,-0.21626 3.33913,-1.10181 7.42028,-1.96789 9.0943,-1.92995 16.76012,-0.91936 24.58469,3.241 7.0948,3.77234 13.62003,3.70867 13.62003,-0.13292 0,-1.92251 -0.72185,-2.42275 -3.125,-2.16556 -3.06727,0.32825 -3.05856,0.29711 0.47164,-1.6858 3.52069,-1.97758 3.58384,-2.19919 2.99031,-10.49438 -1.05997,-14.81459 -7.99616,-23.62105 -19.47311,-24.72384 -13.44715,-1.2921 -23.86862,6.19993 -27.82806,20.00568 -1.27709,4.45297 -0.33955,7.05921 3.0756,8.54966 1.97356,0.86131 1.5359,0.95929 -1.73638,0.38871 -5.27748,-0.92022 -5.57048,-1.19081 -7.35792,-6.79531 -0.77548,-2.43146 -4.6403,-8.45289 -8.58851,-13.38095 -18.3986,-22.96469 -44.48252,-35.61677 -73.42857,-35.61677 -28.63405,0 -54.86743,12.5896 -73.02123,35.04343 -13.21158,16.34097 -20.39733,36.90587 -20.39733,58.37513 0,40.50897 25.014,75.22541 64.04356,88.88479 10.11569,3.54025 9.35087,3.53418 10.92172,0.0865 z M 477.715,343.40622 c -4.91771,-3.47615 -18.26191,-6.2754 -24.89604,-5.22253 -4.11696,0.65339 -4.30981,0.58065 -1.56895,-0.59174 6.29323,-2.6919 24.28678,1.00155 28.92334,5.93694 3.44164,3.66345 2.85658,3.63426 -2.45835,-0.12262 z m -1.5596,-22.87434 -3.03039,-3.4375 3.4375,3.03039 c 3.21287,2.83236 4.01074,3.84461 3.03039,3.84461 -0.2239,0 -1.77077,-1.54688 -3.4375,-3.4375 z m -18.10397,-2.0948 c 1.58265,-1.28345 4.62538,-1.90379 8.75,-1.78393 l 6.32358,0.18378 -6.875,0.76687 c -3.78125,0.42179 -7.71875,1.22455 -8.75,1.78393 -1.03125,0.55937 -0.78311,0.13157 0.55142,-0.95065 z m 8.10206,172.85194 c -0.78896,-1.47419 -3.73989,-5.27107 -6.5576,-8.4375 l -5.12313,-5.75714 4.98088,4.66509 c 4.60875,4.31655 10.28866,12.20991 8.78602,12.20991 -0.35842,0 -1.29721,-1.20616 -2.08617,-2.68036 z M 318.4599,486.81347 c 2.24669,-0.2782 5.62169,-0.27247 7.5,0.0127 1.87831,0.28522 0.0401,0.51283 -4.08489,0.50582 -4.125,-0.007 -5.6618,-0.24037 -3.41511,-0.51857 z m -8.77239,-1.17194 c 0.85938,-0.34676 2.26563,-0.34676 3.125,0 0.85938,0.34676 0.15625,0.63049 -1.5625,0.63049 -1.71875,0 -2.42187,-0.28373 -1.5625,-0.63049 z m 24.29702,-1.71725 c 2.53522,-1.33903 5.48835,-3.68933 6.5625,-5.22289 1.07413,-1.53355 1.95298,-2.19867 1.95298,-1.47804 0,2.43173 -9.11578,9.35275 -12.10532,9.19078 -0.56083,-0.0304 1.0546,-1.15081 3.58984,-2.48985 z m -29.21889,0.44121 c 0.90234,-0.36109 1.98047,-0.31669 2.39584,0.0986 0.41536,0.41536 -0.32293,0.7108 -1.64063,0.65652 -1.45619,-0.06 -1.75237,-0.35617 -0.75521,-0.7552 z m -6.32813,-1.22396 c 0.85938,-0.34676 2.26563,-0.34676 3.125,0 0.85938,0.34676 0.15625,0.63049 -1.5625,0.63049 -1.71875,0 -2.42187,-0.28373 -1.5625,-0.63049 z m -4.92187,-1.27604 c 0.90234,-0.36109 1.98046,-0.31669 2.39584,0.0986 0.41536,0.41536 -0.32293,0.7108 -1.64063,0.65652 -1.45619,-0.06 -1.75237,-0.35617 -0.75521,-0.7552 z m -5,-1.25 c 0.90234,-0.36109 1.98046,-0.31669 2.39584,0.0986 0.41536,0.41536 -0.32293,0.7108 -1.64063,0.65652 -1.45619,-0.06 -1.75237,-0.35617 -0.75521,-0.7552 z m -6.32813,-1.22396 c 0.85938,-0.34676 2.26563,-0.34676 3.125,0 0.85938,0.34676 0.15625,0.63049 -1.5625,0.63049 -1.71875,0 -2.42187,-0.28373 -1.5625,-0.63049 z m -4.92187,-1.27604 c 0.90234,-0.36109 1.98046,-0.31669 2.39584,0.0986 0.41536,0.41536 -0.32293,0.7108 -1.64063,0.65652 -1.45619,-0.06 -1.75237,-0.35617 -0.75521,-0.7552 z m -5,-1.25 c 0.90234,-0.36109 1.98046,-0.31669 2.39584,0.0986 0.41536,0.41536 -0.32293,0.7108 -1.64063,0.65652 -1.45619,-0.06 -1.75237,-0.35617 -0.75521,-0.7552 z m -5,-1.25 c 0.90234,-0.36109 1.98046,-0.31669 2.39584,0.0986 0.41536,0.41536 -0.32293,0.7108 -1.64063,0.65652 -1.45619,-0.06 -1.75237,-0.35617 -0.75521,-0.7552 z m 177.73437,-2.89611 c -2.40625,-1.31736 -3.92518,-2.41879 -3.37542,-2.4476 1.32462,-0.0694 8.37542,3.59654 8.37542,4.3547 0,0.81814 -0.0731,0.79024 -5,-1.9071 z m -186.48437,0.39611 c 0.90234,-0.36109 1.98046,-0.31669 2.39584,0.0986 0.41536,0.41536 -0.32293,0.7108 -1.64063,0.65652 -1.45619,-0.06 -1.75237,-0.35617 -0.75521,-0.7552 z m -5,-1.25 c 0.90234,-0.36109 1.98046,-0.31669 2.39584,0.0986 0.41536,0.41536 -0.32293,0.7108 -1.64063,0.65652 -1.45619,-0.06 -1.75237,-0.35617 -0.75521,-0.7552 z m -8.75,-2.5 c 0.90234,-0.36109 1.98046,-0.31669 2.39584,0.0986 0.41536,0.41536 -0.32293,0.7108 -1.64063,0.65652 -1.45619,-0.06 -1.75237,-0.35617 -0.75521,-0.7552 z m 192.5,0 c 0.90234,-0.36109 1.98047,-0.31669 2.39584,0.0986 0.41536,0.41536 -0.32293,0.7108 -1.64063,0.65652 -1.45619,-0.06 -1.75237,-0.35617 -0.75521,-0.7552 z m -18.20313,-1.3067 c 2.57813,-0.26967 6.79688,-0.26967 9.375,0 2.57813,0.26969 0.46875,0.49033 -4.6875,0.49033 -5.15625,0 -7.26562,-0.22064 -4.6875,-0.49033 z m -24.375,-1.25467 c 2.92188,-0.26317 7.70313,-0.26317 10.625,0 2.92188,0.26317 0.53125,0.4785 -5.3125,0.4785 -5.84375,0 -8.23437,-0.21533 -5.3125,-0.4785 z m -162.42187,-1.18863 c 0.90234,-0.36109 1.98046,-0.31669 2.39584,0.0986 0.41536,0.41536 -0.32293,0.7108 -1.64063,0.65652 -1.45619,-0.06 -1.75237,-0.35617 -0.75521,-0.7552 z m 143.35937,-1.0651 c -3.02505,-1.45704 -3.14587,-1.64591 -0.625,-0.977 1.71875,0.45606 5.09375,1.22955 7.5,1.71885 4.26259,0.86678 4.27864,0.89189 0.625,0.97701 -2.0625,0.048 -5.4375,-0.72543 -7.5,-1.71886 z m -13.60197,-8.39351 c -2.83141,-2.92188 -6.38695,-7 -7.90119,-9.0625 -2.34374,-3.19235 -2.96201,-3.47118 -4.15766,-1.875 -1.14929,1.53429 -1.31623,1.54849 -0.91871,0.0781 1.00218,-3.70697 3.41631,-2.52312 8.27976,4.06029 2.7566,3.73148 6.5955,7.96528 8.53089,9.40844 1.93538,1.44317 3.023,2.64177 2.41691,2.66355 -0.60609,0.0217 -3.41859,-2.35103 -6.25,-5.2729 z m -150.77303,2.8125 c -1.03125,-0.66645 -1.3125,-1.21171 -0.625,-1.21171 0.6875,0 2.09375,0.54526 3.125,1.21171 1.03125,0.66645 1.3125,1.21171 0.625,1.21171 -0.6875,0 -2.09375,-0.54526 -3.125,-1.21171 z m -20.17402,-8.82419 -2.95098,-2.57419 3.4375,2.09295 c 1.89063,1.15113 3.4375,2.30952 3.4375,2.57419 0,0.97605 -1.04436,0.41903 -3.92402,-2.09295 z m 156.52271,-0.65497 c 0.06,-1.45619 0.35618,-1.75238 0.7552,-0.75522 0.36109,0.90234 0.31669,1.98048 -0.0986,2.39584 -0.41537,0.41536 -0.7108,-0.32292 -0.65653,-1.64062 z m -163.34245,-4.58334 -2.38124,-2.8125 2.8125,2.38124 c 2.64305,2.23777 3.38155,3.24376 2.38124,3.24376 -0.2372,0 -1.50282,-1.26563 -2.8125,-2.8125 z m -4.49737,-5.625 c -2.20237,-2.5645 -3.85387,-5.3125 -3.19272,-5.3125 0.25504,0 1.71133,1.6875 3.2362,3.75 3.01292,4.07519 2.98472,5.08861 -0.0435,1.5625 z m -26.00887,-197.8125 c 1.03125,-0.66645 2.4375,-1.21171 3.125,-1.21171 0.6875,0 0.40625,0.54526 -0.625,1.21171 -1.03125,0.66645 -2.4375,1.21171 -3.125,1.21171 -0.6875,0 -0.40625,-0.54526 0.625,-1.21171 z m 14.76563,-4.60389 c 0.90234,-0.36109 1.98046,-0.31669 2.39584,0.0986 0.41536,0.41536 -0.32293,0.7108 -1.64063,0.65652 -1.45619,-0.06 -1.75237,-0.35617 -0.75521,-0.7552 z m 9.29687,-1.29142 c 1.89063,-0.28642 4.98438,-0.28642 6.875,0 1.89063,0.2864 0.34375,0.52073 -3.4375,0.52073 -3.78125,0 -5.32812,-0.23433 -3.4375,-0.52073 z m 26.88958,0.0112 c 1.55489,-0.29899 3.80489,-0.28764 5,0.0252 1.19511,0.31286 -0.0771,0.5575 -2.82708,0.54362 -2.75,-0.0139 -3.72781,-0.26986 -2.17292,-0.56885 z m 10.06355,-1.21982 c 0.90234,-0.36108 1.98046,-0.31668 2.39584,0.0986 0.41536,0.41536 -0.32293,0.7108 -1.64063,0.65652 -1.45619,-0.06 -1.75237,-0.35617 -0.75521,-0.7552 z m 4.08854,-0.8518 c 0.28646,-0.25062 1.92708,-1.1254 3.64583,-1.94395 2.94659,-1.40331 2.98648,-1.37728 0.69859,0.45568 -1.99125,1.59532 -6.05982,2.9891 -4.34442,1.48827 z m -57.60417,-3.01381 c 0,-0.53321 14.493,-15.29884 32.20665,-32.8125 42.7841,-42.30102 50.29335,-49.41619 50.29335,-47.65395 0,1.79901 -4.76822,9.47309 -10.77807,17.3464 -4.70698,6.16648 -4.74584,6.7666 -1.07441,16.58954 2.66347,7.12616 1.92851,18.75037 -1.62608,25.71795 -3.13264,6.14047 -12.6191,15.10001 -17.38505,16.41942 -5.60027,1.55039 -23.0839,1.11013 -28.63224,-0.72098 -4.85535,-1.60242 -5.38553,-1.5047 -11.95597,2.20342 -6.65235,3.75435 -11.04818,4.91246 -11.04818,2.9107 z m 16.26117,-9.02575 c 11.37137,-8.16812 12.7241,-8.75416 20.21916,-8.75944 12.58491,-0.009 19.94459,-7.65901 19.59265,-20.36598 -0.18974,-6.851 0.15684,-7.7577 6.3628,-16.64622 3.6099,-5.1703 6.25219,-9.71182 5.87175,-10.09227 -0.80846,-0.80845 -54.19263,51.63244 -59.99695,58.93684 -4.40944,5.54901 -3.63683,5.25038 7.95059,-3.07293 z m 54.36383,3.74524 c 1.24437,-1.375 2.54373,-2.5 2.88748,-2.5 0.34375,0 -0.39311,1.125 -1.63748,2.5 -1.24436,1.375 -2.54372,2.5 -2.88747,2.5 -0.34375,0 0.39311,-1.125 1.63747,-2.5 z m 296.17635,-32.3594 c -9.02131,-8.49174 -13.22763,-10.6328 -28.42431,-14.46823 -23.62589,-5.96285 -53.61956,-9.6205 -93.26227,-11.3731 -17.5112,-0.77416 -19.47033,-1.09316 -21.57387,-3.51287 -12.13497,-13.959 -14.51665,-16.1101 -21.81508,-19.70311 -10.22445,-5.03349 -23.82763,-6.51188 -52.35082,-5.6895 -25.60811,0.73833 -27.99995,1.35271 -40.3125,10.35483 -2.67513,1.95588 -2.8125,1.92888 -2.8125,-0.55266 0,-3.79104 6.70378,-10.8303 12.82842,-13.47042 7.53478,-3.24798 64.8499,-4.1967 74.96392,-1.24087 10.96313,3.204 19.67174,9.25732 25.3783,17.64033 l 5.10546,7.5 6.79945,0.29146 c 70.96692,3.04199 118.78228,11.13128 130.92367,22.14936 4.39713,3.99034 13.6432,17.72077 12.6119,18.72873 -0.26737,0.26131 -3.89425,-2.73296 -8.05977,-6.65395 z m -7.58852,-11.2753 c -6.75611,-6.15039 -32.88989,-12.95231 -64.84886,-16.87844 -18.90723,-2.32272 -69.13734,-5.13015 -70.3363,-3.93119 -2.58853,2.58852 4.5942,4.11499 23.13912,4.9175 48.259,2.08838 94.29966,9.28954 108.96974,17.04383 6.42697,3.39716 7.59345,2.96045 3.0763,-1.1517 z m -145.73888,-35.4278 c -1.00703,-1.54688 -6.20981,-5.0625 -11.5617,-7.8125 l -9.73072,-5 -32.65326,0 c -34.19934,0 -38.40469,0.5399 -45.07517,5.78689 -4.86828,3.8294 -3.8328,4.97608 2.11693,2.34423 8.1669,-3.61261 19.66806,-4.98868 41.55497,-4.97192 27.07577,0.0207 35.30993,1.30562 46.875,7.31454 5.15625,2.67906 9.58424,4.93406 9.83997,5.01113 0.25573,0.0771 -0.35898,-1.1255 -1.36602,-2.67237 z"
       id="path3655"
       inkscape:connector-curvature="0" />
    <path
       style="fill:#60ae2a"
       d="m 75.952087,693.0853 c 1.554891,-0.29898 3.804891,-0.28763 5,0.0253 1.19511,0.31287 -0.07708,0.5575 -2.827074,0.54363 -2.75,-0.0139 -3.727816,-0.26986 -2.172926,-0.56885 z m 153.735423,-0.0534 c 72.35938,-0.17821 190.76563,-0.17821 263.125,0 72.35938,0.17821 13.15625,0.32403 -131.5625,0.32403 -144.71875,0 -203.92187,-0.14582 -131.5625,-0.32403 z m 414.39879,0.0713 c 1.21621,-0.31692 2.90371,-0.29609 3.75,0.0464 0.84629,0.34241 -0.14879,0.60171 -2.21129,0.57623 -2.0625,-0.0255 -2.75492,-0.30562 -1.53871,-0.62255 z M 64.301425,689.52542 c -2.287882,-1.83297 -2.247997,-1.85899 0.698588,-0.45568 3.82629,1.82226 4.535424,2.39964 2.947245,2.39964 -0.670681,0 -2.311306,-0.87478 -3.645833,-1.94396 z m 46.948585,-0.4346 c -33.94687,-0.66464 -38.604455,-1.00234 -42.499997,-3.0815 -7.720929,-4.1209 -12.05212,-7.99812 -16.260264,-14.55594 -2.757736,-4.29755 -4.425546,-5.89688 -5.067022,-4.85895 -0.573827,0.92847 -1.272018,-0.66169 -1.745929,-3.97644 C 45.242454,659.58 45.053117,529.96938 45.256048,374.59438 45.597109,113.45944 45.782875,91.81077 47.712357,88.344378 l 2.087343,-3.75 1.273053,3.316076 c 2.005021,5.222726 3.641752,5.265984 6.264852,0.165574 4.454446,-8.661313 13.887137,-15.35665 21.635138,-15.35665 l 4.09688,0 -4.952721,4.0625 c -2.723997,2.234375 -5.673925,4.90625 -6.555399,5.9375 -10.449214,12.224714 -12.81149,15.37436 -12.81149,17.081682 0,1.09903 -1.265625,4.03338 -2.8125,6.52078 l -2.8125,4.52254 0.03489,75 c 0.03919,84.23357 0.949773,98.90946 8.298692,133.75 0.725071,3.4375 1.589103,9.90625 1.920071,14.375 0.330968,4.46875 1.05811,8.6875 1.615874,9.375 0.557763,0.6875 1.93404,7.15625 3.058391,14.375 1.124352,7.21875 2.858602,17.90625 3.853889,23.75 5.328631,31.28665 8.454476,50.16937 9.415086,56.875 0.590924,4.125 1.951717,11.4375 3.023985,16.25 1.072269,4.8125 2.474307,12.40625 3.115644,16.875 0.641335,4.46875 1.801246,10.375 2.577581,13.125 0.776334,2.75 2.350751,10.625 3.498705,17.5 1.147955,6.875 2.465167,13.07839 2.92714,13.7853 0.461973,0.70691 1.449474,6.05066 2.194445,11.875 1.336694,10.45052 3.456114,19.40307 5.170314,21.8397 0.48367,0.6875 1.59623,5.32137 2.47236,10.29751 0.9849,5.59396 2.47184,9.84289 3.89544,11.13124 1.26636,1.14604 2.30249,3.06831 2.30249,4.27171 0,1.2034 1.82812,4.48055 4.0625,7.28255 2.23437,2.802 6.59375,8.27364 9.6875,12.1592 6.33392,7.955 5.73611,7.3763 14.87609,14.40065 7.19943,5.53298 20.04151,10.07416 41.99891,14.85156 10.5266,2.29034 16.53396,2.44879 93.42355,2.46415 77.9163,0.0156 82.64379,0.14439 91.25,2.48642 13.8082,3.75763 28.47812,5.1028 64.07645,5.87552 36.8818,0.8006 53.61172,-0.46759 68.75,-5.21147 6.45227,-2.02195 12.9353,-3.13377 18.27376,-3.13387 10.16339,-2.1e-4 27.48314,-2.92587 36.35794,-6.14161 3.64006,-1.31896 9.71205,-3.27056 13.4933,-4.3369 6.44236,-1.8168 15.42832,-7.76269 22.24405,-14.7186 5.50033,-5.61346 11.50595,-13.24096 11.50595,-14.61325 0,-0.7602 1.37784,-2.28497 3.06185,-3.38837 1.68402,-1.10342 3.68154,-3.88389 4.43894,-6.17884 0.7574,-2.29494 2.10053,-4.77301 2.98473,-5.50684 0.8842,-0.73381 2.30363,-4.57569 3.1543,-8.53749 2.04812,-9.53868 3.91225,-16.63741 5.17408,-19.70327 0.56592,-1.375 1.68017,-7.5625 2.47612,-13.75 0.79593,-6.1875 1.91393,-12.375 2.48442,-13.75 1.18611,-2.85878 2.16528,-7.24331 3.6722,-16.44338 0.58046,-3.54386 1.69155,-8.32511 2.46908,-10.625 0.77752,-2.2999 2.21731,-8.96287 3.19952,-14.80662 0.98221,-5.84375 3.22228,-18.78125 4.97793,-28.75 1.75565,-9.96875 3.70828,-21.78125 4.33918,-26.25 3.20685,-22.71423 5.25094,-34.68941 6.42354,-37.63203 0.71385,-1.79136 2.00156,-9.40876 2.86159,-16.92756 0.86002,-7.51879 2.02005,-14.40896 2.57785,-15.31149 0.55779,-0.90252 1.4507,-6.22262 1.98424,-11.82243 0.53353,-5.59983 1.64976,-12.43149 2.48048,-15.18149 0.83074,-2.75 1.96012,-8.65625 2.50973,-13.125 0.54961,-4.46875 1.58031,-10.65625 2.29044,-13.75 2.79678,-12.18453 4.14975,-40.62476 4.57881,-96.25 0.47011,-60.9477 -0.65758,-88.44426 -3.81199,-92.9478 -1.00486,-1.43466 -1.82704,-3.69458 -1.82704,-5.02206 0,-1.32747 -2.8125,-5.387388 -6.25,-9.022037 -3.4375,-3.63465 -6.25,-7.191545 -6.25,-7.904213 0,-0.712667 -2.95312,-3.641018 -6.5625,-6.507448 l -6.5625,-5.21169 5.96038,0.656655 c 8.33829,0.91863 15.0845,5.775566 19.91791,14.339896 l 4.00545,7.097265 2.17629,-4.926785 2.17629,-4.926785 1.93702,4.629817 c 1.73019,4.135482 1.93681,35.099435 1.9352,289.999995 -0.001,156.9536 -0.37345,286.74631 -0.82767,288.42825 -0.72569,2.6871 -0.92395,2.77845 -1.63442,0.75308 -0.67445,-1.92269 -1.39145,-1.39332 -4.32321,3.19193 -4.71389,7.37252 -12.05777,13.15535 -19.88029,15.65443 -5.88073,1.87874 -28.04003,2.08135 -253.94295,2.32186 -136.125,0.14494 -264.65625,-0.0724 -285.625,-0.48292 z m -55.683812,-6.68394 -4.941185,-5.3125 5.3125,4.94119 c 4.940572,4.59525 5.886906,5.68381 4.941185,5.68381 -0.204224,0 -2.594849,-2.39063 -5.3125,-5.3125 z m 610.683812,0.9375 c 1.61469,-1.71875 3.21704,-3.125 3.56079,-3.125 0.34375,0 -0.6961,1.40625 -2.31079,3.125 -1.61468,1.71875 -3.21703,3.125 -3.56078,3.125 -0.34375,0 0.6961,-1.40625 2.31078,-3.125 z M 352.54968,596.343 c -2.24374,-4.94535 -2.49753,-8.22306 -2.52222,-32.57476 -0.0236,-23.36444 0.30597,-28.14737 2.40472,-34.89066 5.7967,-18.62485 21.44037,-32.4934 40.66017,-36.04638 9.43426,-1.74401 35.0631,-1.76798 38.29968,-0.0359 4.14737,2.21961 4.88521,6.34566 2.63593,14.74045 -1.90622,7.11447 -1.89982,8.02409 0.0958,13.59165 2.40562,6.7116 2.72394,11.07501 0.89064,12.20805 -0.7061,0.4364 -0.91957,-0.06 -0.4981,-1.15841 0.40568,-1.05715 -0.55602,-5.04317 -2.1371,-8.85779 -2.64877,-6.39065 -2.74462,-7.39895 -1.21969,-12.83033 2.85062,-10.15305 2.88732,-11.04432 0.55094,-13.3807 -2.04841,-2.04841 -3.954,-2.18213 -20.74071,-1.45556 -26.55503,1.1494 -37.68738,5.76534 -48.52594,20.12091 -8.95034,11.85465 -9.94374,16.67042 -9.94374,48.2047 0,21.78642 0.39685,28.52118 1.89142,32.09815 2.73761,6.55204 1.11647,6.78665 -1.84175,0.26655 z m 169.37363,-4.24862 c 0.45785,-1.375 4.67524,-13.1875 9.37199,-26.25 13.63335,-37.91676 18.58523,-57.95651 25.48248,-103.125 7.37977,-48.32848 7.77465,-99.91258 1.29178,-168.75 -3.51556,-37.32953 -8.04338,-71.73956 -10.53358,-80.05191 -4.56307,-15.23167 -17.02935,-30.84875 -29.41097,-36.84445 -17.0411,-8.25203 -61.37138,-15.4713 -108.05556,-17.59705 -17.71491,-0.80664 -19.51726,-1.10704 -21.875,-3.64595 -10.58425,-11.39755 -14.18067,-14.52919 -20.44737,-17.8049 -11.10739,-5.80602 -16.40797,-6.54277 -47.98168,-6.6692 -25.87245,-0.10363 -30.02081,0.1632 -36.99117,2.37922 -9.57263,3.04333 -15.477,7.37375 -19.55083,14.3391 -4.6203,7.89968 -5.84442,15.3629 -6.91271,42.14514 -1.11686,28.00016 -2.77369,34.3798 -11.50459,44.29862 -7.51335,8.53562 -13.27396,11.06789 -26.05609,11.45384 l -10.625,0.32081 9.62642,-1.00647 c 12.12845,-1.26808 20.96877,-5.94218 27.54791,-14.56528 7.65082,-10.02772 8.63529,-14.37848 9.7301,-43.00152 0.6393,-16.71396 1.63012,-27.68541 2.84926,-31.55003 4.80455,-15.23011 13.65839,-23.30317 29.15846,-26.5871 11.96559,-2.53508 55.64043,-2.52083 66.4243,0.0216 12.1111,2.85544 20.03289,7.51892 29.66355,17.46265 l 8.75,9.03444 18.75,0.86833 c 47.47205,2.19849 90.16789,9.26364 108.125,17.89213 12.78623,6.14384 25.04375,21.635 30.44995,38.4829 2.10099,6.54751 8.10897,52.92472 11.41624,88.125 3.15583,33.58825 4.53781,82.40937 3.13234,110.65476 -1.83476,36.87249 -10.09704,88.80408 -18.7581,117.90198 -4.89379,16.44125 -19.18589,56.39518 -21.78621,60.9039 -1.16234,2.0154 -1.73875,2.53936 -1.28092,1.16436 z M 400.82039,570.05372 c -3.04003,-1.76714 -5.188,-7.24317 -7.09376,-18.08483 -1.12912,-6.42332 -1.18773,-9.53152 -0.21218,-11.25 1.30395,-2.29697 1.34298,-2.29289 1.19498,0.12549 -0.25184,4.11506 2.93922,19.10045 4.53085,21.27712 0.97658,1.33558 4.86651,2.46243 11.43248,3.31184 11.3652,1.47026 45.83324,0.6169 50.69454,-1.2551 9.50449,-3.66001 14.56091,-45.30895 7.99295,-65.83665 -0.79779,-2.49344 -0.79661,-2.49342 0.78195,0.002 2.59954,4.10946 4.81748,15.66303 4.83829,25.2033 0.036,16.52076 -6.5079,42.47395 -11.61074,46.04811 -2.19434,1.53698 -7.85706,1.86752 -31.46037,1.83634 -18.13714,-0.024 -29.63684,-0.53354 -31.08899,-1.37765 z m -57.7251,-93.97074 c 0.34814,-1.24376 1.5776,-7.42459 2.73212,-13.73516 1.15454,-6.31058 2.33393,-10.76945 2.62088,-9.90863 0.79295,2.37888 -2.1381,17.90923 -4.18138,22.15519 -0.99252,2.0625 -1.51976,2.73237 -1.17162,1.4886 z m -172.41285,-52.3346 c -1.96044,-4.8996 -22.21689,-105.29436 -25.74083,-127.5763 -4.59472,-29.0526 4.01652,-43.67493 28.56484,-48.50451 4.30096,-0.84617 8.10999,-1.24843 8.4645,-0.89393 0.3545,0.35451 -2.00634,1.04209 -5.2463,1.52795 -8.17116,1.22534 -17.86436,5.74983 -22.71911,10.60456 -7.73625,7.73625 -10.15811,18.47642 -7.77628,34.48513 2.63497,17.71009 24.89833,129.26369 26.33277,131.94397 0.7648,1.42904 1.13412,2.85465 0.82073,3.16804 -0.31338,0.3134 -1.52853,-1.82631 -2.70032,-4.75491 z m 307.38007,-82.128 c -2.39223,-2.21395 -11.40881,-4.32189 -19.9375,-4.66109 -4.8125,-0.1914 -9.17187,-0.37992 -9.6875,-0.41895 -1.61788,-0.1225 -1.02065,-5.73215 0.88042,-8.26955 1.68221,-2.2453 1.76736,-2.09984 1.14067,1.94859 l -0.67725,4.375 9.79684,0.0817 c 7.19416,0.0601 11.38924,0.79524 15.79092,2.76725 7.02568,3.14759 7.88112,2.30881 6.03319,-5.91568 -0.86631,-3.85567 -0.82346,-4.97956 0.15265,-4.00345 0.7464,0.7464 1.61529,4.47063 1.93086,8.27608 0.51359,6.19317 0.32152,6.91899 -1.83101,6.91899 -1.32264,0 -2.93916,-0.49455 -3.59229,-1.099 z M 149.16969,242.01005 c -1.35204,-3.52336 2.45011,-8.17541 19.57577,-23.95151 9.28375,-8.55216 27.2858,-26.40924 40.00455,-39.68239 24.32692,-25.3873 34.00182,-34.40677 36.90705,-34.40677 3.00269,0 4.2923,4.09596 2.97743,9.45664 -0.66351,2.7051 -1.51814,13.91836 -1.89918,24.91836 -0.61167,17.6587 -3.17761,34.59935 -4.96925,32.80771 -0.3223,-0.32229 0.0691,-2.21087 0.86988,-4.19685 0.80072,-1.98597 1.91056,-14.01711 2.46629,-26.73586 0.55573,-12.71875 1.39665,-25.51563 1.86868,-28.4375 0.74388,-4.60441 0.55763,-5.3125 -1.39737,-5.3125 -1.29951,0 -15.51308,13.54167 -33.53174,31.94667 -17.20185,17.57068 -37.88272,37.83173 -45.9575,45.02457 -14.67685,13.07381 -17.9082,17.35471 -14.65555,19.41567 1.30389,0.82619 1.32576,1.07924 0.0945,1.09395 -0.88096,0.01 -1.94007,-0.86256 -2.3536,-1.94019 z"
       id="path3653"
       inkscape:connector-curvature="0" />
    <path
       style="fill:#555555"
       d="m 76.848654,692.57827 c -8.328265,-1.01659 -15.224779,-4.69263 -21.426961,-11.4212 -4.589571,-4.9791 -9.037608,-13.98843 -7.610749,-15.41529 0.308051,-0.30805 2.638246,2.56984 5.17821,6.3953 4.91849,7.40777 12.881155,13.34041 21.366639,15.91934 3.886437,1.18117 68.635267,1.52686 286.894217,1.53171 264.60527,0.006 282.30658,-0.12736 288.91917,-2.1745 8.38408,-2.59556 15.68533,-8.24016 20.597,-15.92353 4.69653,-7.34686 5.79902,-3.53617 1.23171,4.25737 -3.82924,6.53411 -9.47961,11.52596 -16.65664,14.7154 -5.11346,2.27238 -14.41995,2.35666 -288.75,2.61478 -155.90642,0.1467 -286.290598,-0.078 -289.742596,-0.49938 z M 403.12501,620.61515 c -16.75237,-1.454 -26.11448,-3.09468 -30.5389,-5.35185 -7.65793,-3.90678 -13.33685,-9.49081 -16.87703,-16.59503 -3.15734,-6.33594 -3.20907,-6.88968 -3.20907,-34.35055 0,-24.53129 0.29712,-28.75613 2.4538,-34.89229 2.84545,-8.09581 10.63572,-18.95381 16.55729,-23.07738 3.59251,-2.5017 3.37835,-2.06676 -1.68987,3.43177 -10.05803,10.912 -13.07792,19.47447 -10.99598,31.17751 2.27539,12.79037 1.00864,11.82136 14.97919,11.45856 l 12.38024,-0.32151 -0.74192,-6.37088 c -0.96883,-8.31955 1.84468,-14.52523 7.88492,-17.39151 3.4499,-1.63709 7.62581,-2.02977 19.59091,-1.84222 8.36354,0.13108 15.68175,0.18012 16.2627,0.109 0.58095,-0.0711 -0.4681,-2.73053 -2.33125,-5.90974 -4.28259,-7.3077 -3.80199,-14.70343 1.19189,-18.34121 1.76445,-1.28532 3.24616,-3.27439 3.29268,-4.42018 0.0645,-1.58762 0.39739,-1.43635 1.39934,0.63585 0.98201,2.03095 0.80243,4.2226 -0.7096,8.66016 -2.62165,7.69412 -2.55715,9.41875 0.6293,16.82583 4.05464,9.42527 3.17118,9.91992 -17.71741,9.91992 -19.0871,0 -20.47638,0.49983 -21.82671,7.85269 -0.7623,4.15088 2.15862,20.47703 4.41928,24.70114 2.40955,4.50229 5.5157,4.94617 34.61089,4.94617 23.35385,0 29.0414,-0.34135 31.23005,-1.87435 5.03358,-3.52567 11.63026,-29.43202 11.63026,-45.67411 0,-24.38767 -10.27585,-42.53696 -29.37413,-51.8809 -6.26467,-3.06501 -8.7427,-3.40902 -35.86525,-4.97904 -20.4731,-1.1851 -30.94739,-2.31782 -35.22937,-3.80982 -6.05445,-2.10959 -13.09861,-8.1138 -19.7183,-16.8072 -2.31161,-3.03576 -3.71967,-3.96099 -4.66156,-3.06304 -0.74222,0.70761 -2.48571,7.93261 -3.8744,16.05556 -2.82475,16.52302 -4.94711,20.66592 -12.58246,24.56118 -7.22716,3.68702 -15.23324,3.10386 -41.92356,-3.05373 -45.35809,-10.46431 -90.75458,-24.84992 -101.33243,-32.11102 -5.55516,-3.81331 -12.19492,-12.16221 -16.58237,-20.85084 -2.52104,-4.9925 -23.68557,-108.10027 -27.62692,-134.59081 -2.6305,-17.67998 0.83617,-29.75863 10.61237,-36.97593 2.16425,-1.59776 2.12595,-1.37895 -0.3125,1.7851 -1.52852,1.98334 -2.77912,4.94579 -2.77912,6.58323 0,2.9542 0.0489,2.94351 6.34163,-1.38511 3.4879,-2.39925 8.40977,-5.0075 10.9375,-5.79612 5.16196,-1.61043 47.17852,-3.10395 52.15865,-1.85401 l 3.2163,0.80724 -5.86885,6.51935 c -19.3896,21.53869 -34.83465,54.97815 -39.94444,86.48207 -2.34827,14.47814 -2.34561,40.6128 0.005,55.10925 4.66138,28.73955 10.15098,36.92642 30.38401,45.3129 22.94904,9.51225 56.10475,19.49567 93.73052,28.22292 16.06953,3.72731 20.28948,3.98196 25.03865,1.51097 7.65163,-3.98114 8.99637,-6.86429 13.40428,-28.7393 2.29578,-11.3932 4.52729,-21.2863 4.95892,-21.98469 1.83318,-2.96615 4.2258,-0.79378 6.74977,6.12844 3.29174,9.02791 11.81529,18.87565 19.59875,22.64356 4.94614,2.39439 8.82605,2.87312 30.90991,3.81387 13.88958,0.59168 27.8462,1.28226 31.01469,1.53461 13.37449,1.06521 31.80325,13.88681 40.2445,27.99964 2.17453,3.63556 4.33264,6.61011 4.7958,6.61011 1.57368,0 12.63281,-13.08854 18.90331,-22.37215 28.84518,-42.70591 37.30544,-97.80066 22.77119,-148.29013 -8.57151,-29.77595 -28.8422,-61.40012 -52.63694,-82.11861 -45.61383,-39.71672 -107.46867,-53.3429 -166.12603,-36.59637 -6.167,1.76066 -18.43965,6.73548 -27.27255,11.05516 l -16.05984,7.85396 0.7621,-4.76594 c 0.41977,-2.62126 0.2595,-4.76592 -0.35554,-4.76592 -0.61504,0 -3.80207,3.65557 -7.0823,8.12349 -3.28024,4.46792 -7.98679,9.65387 -10.45902,11.52435 l -4.49497,3.40085 5.27082,-6.02798 c 8.90426,-10.18336 10.54283,-16.43156 11.67545,-44.52071 0.54056,-13.40625 1.62416,-27.27278 2.408,-30.81451 1.75891,-7.94762 7.10378,-16.59107 12.68461,-20.51288 l 4.21112,-2.95929 -4.0625,4.68683 c -2.23437,2.57776 -4.0625,5.86087 -4.0625,7.29581 0,2.48154 0.13737,2.50854 2.8125,0.55266 12.31255,-9.00212 14.70439,-9.6165 40.3125,-10.35483 28.52319,-0.82238 42.12637,0.65601 52.35082,5.6895 7.29843,3.59301 9.68011,5.74411 21.81508,19.70311 2.10354,2.41971 4.06267,2.73871 21.57387,3.51287 39.64271,1.7526 69.63638,5.41025 93.26227,11.3731 15.25485,3.85012 19.33253,5.93992 28.71415,14.71597 4.34985,4.06906 7.90881,6.88143 7.90881,6.24971 0,-1.51484 -7.0377,-12.68745 -10.44261,-16.57806 -2.33492,-2.66798 -2.11566,-2.60613 1.69261,0.47751 8.82325,7.14435 17.01692,19.94134 20.48908,32.00012 3.24861,11.28243 10.48407,75.77862 13.24755,118.08738 1.60696,24.60246 1.59509,72.35542 -0.023,92.63097 -2.36129,29.58793 -11.35069,81.48674 -18.22859,105.23978 -3.9368,13.59587 -19.47434,57.17397 -22.40729,62.84567 -5.75103,11.12128 -23.5299,23.51464 -37.3698,26.04989 -6.74231,1.23509 -67.27192,1.61638 -80.08292,0.50446 z m 61.12679,-42.13873 c 4.32596,-1.8075 8.62063,-6.64319 7.50421,-8.44959 -0.35186,-0.56931 -2.6471,-0.19639 -5.10052,0.82871 -3.54381,1.4807 -10.79361,1.86384 -35.26796,1.86384 -30.8013,0 -30.80805,-6e-4 -35.40603,-3.125 -5.7735,-3.92319 -7.67249,-4.01396 -6.53774,-0.3125 1.16659,3.80531 2.98243,5.91539 7.43125,8.6354 3.35932,2.05389 6.84708,2.29324 33.47765,2.29742 22.60452,0.004 30.72719,-0.41296 33.89914,-1.73828 z M 407.8297,495.5724 c 1.90008,-0.28732 4.71258,-0.27963 6.25,0.017 1.53743,0.2967 -0.0172,0.53178 -3.45469,0.5224 -3.4375,-0.01 -4.69538,-0.25215 -2.79531,-0.53946 z m 73.42031,-150.97802 c -1.27446,-1.53564 -1.18905,-1.875 0.47195,-1.875 2.85535,0 2.65678,-9.1198 -0.34236,-15.72325 -3.30406,-7.27483 -7.93965,-10.52858 -14.98566,-10.51851 -6.99403,0.01 -12.0161,3.02642 -16.0026,9.61173 -3.01336,4.97778 -3.82919,10.38003 -1.56755,10.38003 0.72807,0 0.97612,0.5625 0.55122,1.25 -1.28268,2.07542 -5.45377,1.40559 -6.78955,-1.09034 -0.75191,-1.40495 -0.83181,-3.80725 -0.19992,-6.01052 3.98594,-13.89815 14.36995,-21.3893 27.85331,-20.09372 11.33933,1.08957 18.30641,9.80737 19.47529,24.36908 0.56201,7.00152 0.32021,8.45894 -1.64143,9.89331 -2.9823,2.18071 -4.89777,2.12659 -6.8227,-0.19281 z m -331.25,-103.07344 c 0,-2.97825 2.54317,-5.98064 12.71315,-15.00877 7.18472,-6.37805 8.57154,-7.31949 4.47435,-3.03739 -3.26562,3.41301 -5.9375,6.60802 -5.9375,7.10004 0,1.92948 4.48814,0.71662 11.04818,-2.98563 6.57044,-3.70812 7.10062,-3.80584 11.95597,-2.20342 5.54834,1.83111 23.03197,2.27137 28.63224,0.72098 4.76595,-1.31941 14.25241,-10.27895 17.38505,-16.41942 3.55459,-6.96758 4.28955,-18.59179 1.62608,-25.71795 -3.67143,-9.82294 -3.63257,-10.42306 1.07441,-16.58954 6.00985,-7.87331 10.77807,-15.54739 10.77807,-17.3464 0,-0.81709 -3.79687,2.23568 -8.4375,6.78394 -4.64062,4.54825 -10.125,9.47975 -12.1875,10.95886 -2.0625,1.47913 1.74495,-2.70982 8.46099,-9.30877 13.86753,-13.62574 16.70538,-14.85894 15.38491,-6.68559 -0.47203,2.92187 -1.32557,15.71875 -1.89673,28.4375 -0.71507,15.92324 -1.67099,24.87677 -3.06949,28.75 -3.09581,8.574 -10.48934,17.37821 -18.25468,21.73764 -6.82137,3.82948 -7.06026,3.8658 -30.625,4.65646 -23.08486,0.77456 -29.11081,1.76204 -40.9375,6.70846 -1.3599,0.56878 -2.1875,0.3603 -2.1875,-0.551 z m 234.12085,-85.76132 c -1.23521,-1.76538 -4.15276,-5.8435 -6.48343,-9.0625 -4.06423,-5.61329 -4.092,-5.72489 -0.67892,-2.72774 1.95728,1.71875 4.70249,4.53125 6.10047,6.25 1.39797,1.71875 3.78728,4.39062 5.30958,5.9375 2.59155,2.6334 2.61595,2.8125 0.38299,2.8125 -1.31165,0 -3.39546,-1.4444 -4.63069,-3.20976 z m -73.10522,-25.14413 c 0.90234,-0.36109 1.98047,-0.31669 2.39584,0.0986 0.41536,0.41537 -0.32293,0.7108 -1.64063,0.65652 -1.45619,-0.06 -1.75237,-0.35617 -0.75521,-0.7552 z"
       id="path3651"
       inkscape:connector-curvature="0" />
  </g>
</svg>
