<?xml version="1.0" encoding="UTF-8" standalone="no"?>
<!-- Created with Inkscape (http://www.inkscape.org/) -->

<svg
   xmlns:dc="http://purl.org/dc/elements/1.1/"
   xmlns:cc="http://creativecommons.org/ns#"
   xmlns:rdf="http://www.w3.org/1999/02/22-rdf-syntax-ns#"
   xmlns:svg="http://www.w3.org/2000/svg"
   xmlns="http://www.w3.org/2000/svg"
   xmlns:xlink="http://www.w3.org/1999/xlink"
   xmlns:sodipodi="http://sodipodi.sourceforge.net/DTD/sodipodi-0.dtd"
   xmlns:inkscape="http://www.inkscape.org/namespaces/inkscape"
   width="256"
   height="256"
   id="svg2"
   sodipodi:version="0.32"
   inkscape:version="0.47 r22583"
   sodipodi:docname="evernote.svg"
   version="1.0"
   inkscape:output_extension="org.inkscape.output.svg.inkscape">
  <defs
     id="defs4">
    <linearGradient
       inkscape:collect="always"
       id="linearGradient26209">
      <stop
         style="stop-color:#b8b8b8;stop-opacity:1;"
         offset="0"
         id="stop26211" />
      <stop
         style="stop-color:#b8b8b8;stop-opacity:0;"
         offset="1"
         id="stop26213" />
    </linearGradient>
    <linearGradient
       inkscape:collect="always"
       id="linearGradient2555">
      <stop
         style="stop-color: rgb(255, 255, 255); stop-opacity: 1;"
         offset="0"
         id="stop2557" />
      <stop
         style="stop-color: rgb(255, 255, 255); stop-opacity: 0;"
         offset="1"
         id="stop2559" />
    </linearGradient>
    <linearGradient
       inkscape:collect="always"
       xlink:href="#linearGradient2555"
       id="linearGradient2449"
       gradientUnits="userSpaceOnUse"
       gradientTransform="matrix(-0.5914583,0,0,0.5914584,210.0216,142.2324)"
       x1="-344.15295"
       y1="274.711"
       x2="-395.84943"
       y2="425.39993" />
    <linearGradient
       inkscape:collect="always"
       xlink:href="#linearGradient26209"
       id="linearGradient26242"
       gradientUnits="userSpaceOnUse"
       gradientTransform="translate(373.64199,318.34399)"
       x1="85.985443"
       y1="76.305641"
       x2="68.308311"
       y2="58.80706" />
  </defs>
  <sodipodi:namedview
     id="base"
     pagecolor="#ffffff"
     bordercolor="#666666"
     borderopacity="1.0"
     inkscape:pageopacity="0.0"
     inkscape:pageshadow="2"
     inkscape:zoom="0.98994949"
     inkscape:cx="89.43536"
     inkscape:cy="178.60796"
     inkscape:document-units="px"
     inkscape:current-layer="layer1"
     inkscape:window-width="867"
     inkscape:window-height="556"
     inkscape:window-x="0"
     inkscape:window-y="0"
     showgrid="false"
     inkscape:window-maximized="0" />
  <metadata
     id="metadata7">
    <rdf:RDF>
      <cc:Work
         rdf:about="">
        <dc:format>image/svg+xml</dc:format>
        <dc:type
           rdf:resource="http://purl.org/dc/dcmitype/StillImage" />
        <dc:title />
        <dc:creator>
          <cc:Agent>
            <dc:title />
          </cc:Agent>
        </dc:creator>
        <dc:subject>
          <rdf:Bag />
        </dc:subject>
        <cc:license
           rdf:resource="http://creativecommons.org/licenses/publicdomain/" />
        <dc:description />
        <dc:contributor>
          <cc:Agent>
            <dc:title />
          </cc:Agent>
        </dc:contributor>
      </cc:Work>
      <cc:License
         rdf:about="http://creativecommons.org/licenses/publicdomain/">
        <cc:permits
           rdf:resource="http://creativecommons.org/ns#Reproduction" />
        <cc:permits
           rdf:resource="http://creativecommons.org/ns#Distribution" />
        <cc:permits
           rdf:resource="http://creativecommons.org/ns#DerivativeWorks" />
      </cc:License>
    </rdf:RDF>
  </metadata>
  <g
     inkscape:label="Layer 1"
     inkscape:groupmode="layer"
     id="layer1"
     transform="translate(-373.642,-318.344)">
    <rect
       inkscape:export-ydpi="7.7063322"
       inkscape:export-xdpi="7.7063322"
       inkscape:export-filename="C:\Documents and Settings\Molumen\Desktop\path3511111.png"
       transform="scale(-1,1)"
       ry="35.487503"
       rx="35.487503"
       y="328.84921"
       x="-619.14587"
       height="234.98955"
       width="235.00784"
       id="rect1942"
       style="fill:#79d624;fill-opacity:1;fill-rule:evenodd;stroke:none;stroke-width:0.87500000000000000;stroke-linecap:square;stroke-linejoin:miter;stroke-miterlimit:4;stroke-dasharray:0.87500000000000000, 1.75000000000000000;stroke-dashoffset:0;stroke-opacity:1" />
    <path
       style="fill:#000000;fill-opacity:1;stroke:#000000;stroke-width:1px;stroke-linecap:butt;stroke-linejoin:miter;stroke-opacity:1"
       d="m 531.22876,496.24852 0,15.71301 -5.71382,0.35711 c -8.42575,0.11346 -12.82542,13.34943 -0.71423,14.99878 4.05092,0.70698 7.97005,0.47806 13.21322,0 10.12738,-1.47787 12.1512,-2.40771 12.14187,-10.35629 -0.11904,-3.53696 -0.23809,-7.77473 -0.35712,-13.21322 -0.57632,-6.43225 -4.52996,-17.51504 -11.42765,-17.14147 -6.29772,-0.0169 -12.69503,-0.61048 -17.49857,-2.14268 -8.31679,-2.63935 -11.40374,-1.39128 -17.85569,-13.92743 -1.80072,5.06386 -3.81486,7.76792 -4.28537,12.14185 -1.19033,7.52329 -5.4863,10.07753 -11.42764,9.99919 -7.50859,-0.74183 -15.01626,-2.49096 -23.2124,-4.28536 -7.39479,-1.62821 -13.90577,-1.76245 -21.42682,-4.64248 -11.91689,-5.01293 -12.87089,-18.79617 -15.71302,-31.06891 -2.46217,-11.54237 -4.2071,-23.91303 -5.71382,-36.0685 -1.58386,-10.93054 1.96701,-18.09561 14.64166,-18.56992 l 18.21282,0.35713 c 5.0221,-0.48956 9.85742,-1.19706 9.28495,-8.21363 l -0.35711,-20.71259 c 0.5104,-1.39341 2.46441,-13.98925 16.42723,-14.28456 l 17.49858,0.71423 c 6.07367,1.02242 16.29405,2.91058 19.99837,14.28454 11.97674,0.28419 24.4602,0.0616 34.64005,2.14269 10.77989,4.21889 28.00405,1.99352 25.7122,19.28414 2.35654,0.83844 2.69783,26.86734 3.21402,50.71017 0.11129,14.46699 -0.35617,29.22336 -2.14268,44.63924 -0.0974,15.29308 -4.9038,28.70265 -9.64207,42.13942 -2.90487,8.40907 -6.85345,15.8904 -18.21281,16.78437 -11.54351,1.42211 -22.24918,1.16853 -32.85447,0.71421 -10.02008,-0.28958 -15.3331,-6.85522 -16.78436,-18.56991 l 0,-12.14187 c 0.0103,-8.07386 4.41794,-15.13301 16.78436,-20.35549 l 13.57032,0.71423 z"
       id="path26201"
       sodipodi:nodetypes="cccccccccccccccccccccccccccccccccc" />
    <path
       style="fill:#79d624;fill-opacity:1;stroke:none"
       d="m 532.3001,447.50247 20.89117,0.17856 c 0.64711,-10.88375 -4.0402,-13.0038 -9.99919,-13.03465 -10.71509,1.06516 -10.29163,7.19331 -10.89198,12.85609 z"
       id="path26203"
       sodipodi:nodetypes="cccc" />
    <path
       style="fill:#000000;fill-opacity:1;stroke:none"
       d="m 424.27317,394.64963 35.35426,-34.99716 c -2.9488,7.26131 -1.73318,20.59357 -2.32123,30.53323 0.15536,1.47638 -0.93338,2.3307 -2.67836,2.8569 -10.10368,0.44843 -19.8256,-1.39373 -30.35467,1.60703 z"
       id="path26205"
       sodipodi:nodetypes="ccccc" />
    <path
       sodipodi:nodetypes="ccccc"
       id="path26207"
       d="m 424.27317,394.64963 35.35426,-34.99716 c -2.9488,7.26131 -1.73318,20.59357 -2.32123,30.53323 0.15536,1.47638 -0.93338,2.3307 -2.67836,2.8569 -10.10368,0.44843 -19.8256,-1.39373 -30.35467,1.60703 z"
       style="fill:url(#linearGradient26242);fill-opacity:1;stroke:none" />
    <path
       inkscape:export-ydpi="7.7063322"
       inkscape:export-xdpi="7.7063322"
       inkscape:export-filename="C:\Documents and Settings\Molumen\Desktop\path3511111.png"
       sodipodi:nodetypes="ccccsssc"
       id="path1950"
       d="M 557.05665,338.89518 L 446.22721,338.89518 C 416.89033,338.89518 393.27256,362.70492 393.27256,392.28025 L 393.27256,500.40761 C 394.22216,523.49366 397.87485,508.89915 404.82758,483.3329 C 412.90814,453.61975 439.22406,427.65003 471.27219,408.1872 C 495.73352,393.33195 523.11328,383.84595 572.95174,382.94353 C 601.21656,382.43177 598.72124,346.26062 557.05665,338.89518 z"
       style="opacity:0.55364805;fill:url(#linearGradient2449);fill-opacity:1;fill-rule:evenodd;stroke:none;stroke-width:0.875;stroke-linecap:square;stroke-linejoin:miter;stroke-miterlimit:4;stroke-dasharray:0.875, 1.75;stroke-dashoffset:0;stroke-opacity:1" />
  </g>
</svg>
