<?xml version="1.0" encoding="utf-8"?>
<!-- Generator: Adobe Illustrator 19.0.0, SVG Export Plug-In . SVG Version: 6.00 Build 0)  -->
<svg version="1.1" id="Capa_1" xmlns="http://www.w3.org/2000/svg" xmlns:xlink="http://www.w3.org/1999/xlink" x="0px" y="0px"
	 viewBox="-257 380.9 80 80" style="enable-background:new -257 380.9 80 80;" xml:space="preserve">
<style type="text/css">
	.st0{fill:#00672C;}
	.st1{fill:#497F45;stroke:#589B50;stroke-width:2.0699;stroke-miterlimit:10;}
	.st2{fill:#FFFFFF;}
</style>
<title>oratio</title>
<desc>Created with Sketch.</desc>
<path class="st0" d="M-195.3,460.9h-43.6c-10.1,0-18.3-8.2-18.3-18.3V399c0-10.1,8.2-18.3,18.3-18.3h43.6c10.1,0,18.3,8.2,18.3,18.3
	v43.6C-177,452.7-185.2,460.9-195.3,460.9z"/>
<polygon class="st1" points="-216.4,398.3 -213.1,392.8 -204.7,400.3 "/>
<polygon class="st1" points="-200.8,386.4 -194.6,387.9 -199.4,398.1 "/>
<polygon class="st1" points="-183.8,397.1 -183.4,403.5 -194.5,402.1 "/>
<path class="st2" d="M-220.8,438.8c-3.5-0.8-6.5-2.6-9.2-5.3c-3.9-3.9-5.9-8.7-5.9-14.3v-13.5h10.1v13.5c0,2.8,1,5.2,3,7.1
	c2,2,4.4,3,7.1,3c2.8,0,5.2-1,7.1-3c2-2,3-4.4,3-7.1v-13.5h10.1v13.5c0,5.6-2,10.3-5.9,14.3c-2.7,2.7-5.8,4.5-9.3,5.3v14.1h-10.1
	V438.8z"/>
</svg>
