<?xml version="1.0" encoding="utf-8"?>
<svg version="1.1" id="Layer_1" xmlns="http://www.w3.org/2000/svg" xmlns:xlink="http://www.w3.org/1999/xlink" x="0px" y="0px"
	 viewBox="0 0 824.4 730.4" style="enable-background:new 0 0 824.4 730.4;" xml:space="preserve">
<style type="text/css">
	.st0{fill:#CFCECB;}
	.st1{fill:#F4B51A;}
	.st2{fill:#DD462F;}
	.st3{fill:#517DBF;}
	.st4{fill:#EFEFEF;}
	.st5{fill:#4F71A9;}
	.st6{fill:#C3432F;}
	.st7{fill:#D19D2A;}
	.st8{fill:#FFFFFF;}
	.st9{fill:#CAC8C6;}
</style>
<g>
	<polygon class="st0" points="270.1,601 132.9,363.2 270.1,125.5 544.7,125.5 682,363.2 544.7,601 	"/>
	<path class="st1" d="M293.4,571.1l-122-208.7L104.5,248c-4.9-8.4-6.9-20-6.1-31.1L28,338.7c-8.4,14.6-8.4,38.4,0,53l169.1,293
		c8.4,14.6,29.1,26.5,45.9,26.5h201.3c8.1-4.8,15.1-11.2,19.2-18.3l68.9-121.8H293.4z"/>
	<polygon class="st2" points="796.4,338.7 627.2,45.7 696,164.8 	"/>
	<path class="st2" d="M796.4,338.7L696,164.8c-8.7-5.3-18.7-8.7-27.6-8.7H532.2l117.7,207.5L532.5,571.1l-68.9,121.8
		c-4.1,7.1-11.1,13.6-19.2,18.3h137c16.8,0,37.5-11.9,45.9-26.5l67.3-116.5l101.9-176.5C804.8,377.1,804.8,353.3,796.4,338.7z"/>
	<path class="st3" d="M627.2,45.7c-8.4-14.6-29.1-26.5-45.9-26.5h-133H243.1c-16.8,0-37.5,11.9-45.9,26.5L98.3,217
		c-0.8,11.1,1.3,22.6,6.1,31.1l66.9,114.4l119.4-206.4h241.4h136.1c8.9,0,18.9,3.4,27.6,8.7L627.2,45.7z"/>
	<polygon class="st4" points="171.4,362.4 293.4,571.1 532.5,571.1 649.9,363.6 532.2,156.1 290.8,156.1 	"/>
	<path class="st5" d="M102.6,209.5l-4.3,7.5c-0.8,11.1,1.3,22.6,6.1,31.1l66.9,114.4l35.6-61.5L102.6,209.5z"/>
	<path class="st6" d="M700.5,172.6l-4.5-7.8c-8.7-5.3-18.7-8.7-27.6-8.7H532.3l35.4,62.5L700.5,172.6z"/>
	<path class="st7" d="M432.9,711.2h11.7c8.1-4.8,15.1-11.2,19.2-18.3l68.9-121.8h-73.4L432.9,711.2z"/>
	<g>
		<path class="st8" d="M412,471.8c-59,0-107-48-107-107c0-59,48-107,107-107c59,0,107,48,107,107C519,423.8,471,471.8,412,471.8z"/>
		<path class="st9" d="M412,259.3c58.2,0,105.5,47.2,105.5,105.5c0,58.3-47.2,105.5-105.5,105.5c-58.3,0-105.5-47.2-105.5-105.5
			C306.5,306.5,353.7,259.3,412,259.3 M412,256.2c-59.8,0-108.5,48.7-108.5,108.5c0,59.8,48.7,108.5,108.5,108.5
			c59.8,0,108.5-48.7,108.5-108.5C520.5,304.9,471.8,256.2,412,256.2L412,256.2z"/>
	</g>
</g>
</svg>
