<?xml version="1.0" encoding="utf-8"?>
<!-- Generator: Adobe Illustrator 20.1.0, SVG Export Plug-In . SVG Version: 6.00 Build 0)  -->
<svg version="1.1" id="Conf_-_Blue" xmlns="http://www.w3.org/2000/svg" xmlns:xlink="http://www.w3.org/1999/xlink" x="0px"
	 y="0px" viewBox="0 0 128 128" style="enable-background:new 0 0 128 128;" xml:space="preserve">
<style type="text/css">
	.st0{fill:#205081;}
</style>
<g>
	<g>
		<path class="st0" d="M90.5,82.8c-1.6-3.2-3.5-6.4-5.7-9.6c-1.6-2.3-3.3-4.6-5.1-6.9c-0.7-0.9-0.4-2,0.2-2.6
			c0.6-0.6,1.1-1.1,1.7-1.7c7.7-7.8,15.6-15.9,21.6-24.6c6.5-9.3,10-18,10.9-27.1c0.1-0.9-0.3-1.8-1-2.4c-0.5-0.4-1-0.6-1.7-0.6
			c-0.3,0-0.6,0.1-1,0.2c-5.9,2.2-11.8,4-17.3,5.2c-1.1,0.2-2,1.1-2.4,2.1c-4,10.8-14.1,21.2-24.7,32.1c-0.4,0.4-1,1-2,1
			s-1.6-0.5-2-1C51.4,36.1,41.2,25.8,37.2,14.9c-0.4-1-1.3-1.8-2.4-2.1c-5.4-1.3-11.4-3.1-17.3-5.3c-0.3-0.2-0.6-0.2-1-0.2
			c-0.6,0-1.2,0.2-1.7,0.6c-0.7,0.6-1.1,1.5-1,2.4c0.9,9,4.5,17.9,10.9,27.2c6.1,8.7,14,16.7,21.6,24.6
			C60.5,76.4,73.8,89.9,75,105.6c0.1,1.4,1.3,2.6,2.7,2.6h16.5c0.7,0,1.4-0.3,2-0.9c0.5-0.6,0.8-1.3,0.7-2c-0.2-3-0.6-5.9-1.3-8.9
			l0,0c0-0.1,0-0.2,0-0.2c0-0.6,0.5-1.1,1.1-1.1c0.1,0,0.1,0,0.2,0l0,0c13.5,2,22,5.1,22.1,8.6l0,0c0,3.3-7.7,8.2-20.2,11.9l0,0
			c-1.1,0.3-1.9,1.4-1.9,2.5c0,1.4,1.2,2.6,2.6,2.6c0.2,0,0.4,0,0.6-0.1c16.7-3.9,27.9-10.4,27.9-17.8
			C127.9,94.1,112.9,86.3,90.5,82.8z"/>
		<path class="st0" d="M46.2,74.3c-0.3-0.3-1-0.8-1.9-0.8c-1.2,0-2,0.8-2.2,1.2c-1.8,2.7-3.3,5.4-4.7,8.1C15,86.3,0,94.1,0,102.8
			c0,7.3,11,13.9,27.8,17.8l0,0c0.2,0.1,0.4,0.1,0.6,0.1c1.4,0,2.6-1.2,2.6-2.6c0-1.2-0.8-2.2-1.9-2.5l0,0C16.7,112,9,107.1,9,103.7
			l0,0c0-3.5,8.5-6.6,22-8.6c0.1,0,0.1,0,0.2,0c0.6,0,1.1,0.5,1.1,1.1c0,0.1,0,0.2,0,0.2l0,0c-0.7,3-1.1,5.9-1.3,8.9
			c0,0.7,0.2,1.5,0.7,2c0.5,0.6,1.2,0.9,2,0.9h16.4c1.4,0,2.6-1.1,2.7-2.6c0.4-4.9,1.8-9.6,4.6-14.8c1-1.8,0.2-3.4-0.3-4.1
			C54.5,83.2,51.1,79.5,46.2,74.3z"/>
		<path class="st0" d="M62,33.5c0.6,0.6,1.4,0.7,1.9,0.7l0,0c0.5,0,1.3-0.1,1.9-0.7c5.8-5.7,8.9-12.3,9.6-14.1
			c0.1-0.2,0.2-0.6,0.2-1c0-1.4-1.2-2.6-2.5-2.6c-1,0-4.1,0.3-9.3,0.3l0,0c-5.2,0-8.2-0.3-9.3-0.3c-1.3,0-2.5,1-2.5,2.6
			c0,0.4,0.1,0.7,0.2,1C53,21.2,56.2,27.8,62,33.5z"/>
	</g>
</g>
</svg>
