<?xml version="1.0" ?><svg enable-background="new 0 0 188.3822 215.9996" id="quora" version="1.1" viewBox="0 0 188.3822 215.9996" xml:space="preserve" xmlns="http://www.w3.org/2000/svg" xmlns:xlink="http://www.w3.org/1999/xlink"><g><path d="M124.2536,36.8805c-15.332-15.24-37.4724-16.8028-54.3631-3.4296   C55.2848,45.0113,48.5348,60.9881,47.2888,79.3413c-0.7188,10.5804-0.2188,21.252-0.2303,31.8832   c-0.0117,11.328,2.5311,22.0468,7.7655,32.0271c6.4768,12.3497,15.6564,21.6545,29.1328,25.8397   c7.2932,2.262,14.5977,2.3243,22.2148-0.0584c-5.4804-9.2853-12.8164-15.4533-23.2188-17.3788v-18.9945   c18.4884-0.7127,33.8988,5.836,46.9417,19.2169c7.336-9.9276,11.9411-20.8672,12.5819-32.8864   c0.7541-14.088,0.8908-28.2952,0.008-42.3692C141.5116,61.2381,135.2345,47.7945,124.2536,36.8805z" fill="none"/><path d="M166.152,197.4394c-6.1952-2.1936-12.074-5.006-16.7928-9.7324c-2.1756-2.178-3.8712-4.8536-5.5468-6.9964   c5.664-4.8064,11.2068-8.8044,15.9256-13.6364c21.6292-22.1272,30.9885-48.926,28.1485-79.9964   c-3.6717-40.1524-32.0625-73.9568-70.324-84.0684C75.9724-7.9847,31.914,11.8689,11.6404,50.7341   C5.0348,63.3941,1.2108,76.8473,0.4336,91.1853C0.3865,92.0565,0.1484,92.9156,0,93.7809v6.8712   c0.492,4.1112,0.906,8.2304,1.4764,12.33c5.5312,39.7772,37.4296,73.1152,76.3908,79.9864   c12.246,2.16,24.4176,1.9511,36.5388-0.7696c1.668-0.3732,2.4104-0.0096,3.2228,1.422c4.3672,7.7088,9.8164,14.488,18.0312,18.0704   c4.2032,1.8336,8.8632,2.5876,13.3204,3.8144c0.7541,0.2088,1.5312,0.3339,2.2968,0.4939h6.2616   c3.3828-0.508,6.7656-1.0175,10.426-1.5703c0-5.2244,0.0544-10.3537-0.0783-15.4724   C167.8708,198.4236,166.8436,197.6834,166.152,197.4394z M142.4764,118.9901c-0.6408,12.0192-5.2459,22.9588-12.5819,32.8864   c-13.0429-13.3809-28.4533-19.9296-46.9417-19.2169v18.9945c10.4024,1.9255,17.7384,8.0935,23.2188,17.3788   c-7.6171,2.3827-14.9216,2.3204-22.2148,0.0584c-13.4764-4.1852-22.656-13.49-29.1328-25.8397   c-5.2344-9.9803-7.7772-20.6991-7.7655-32.0271c0.0115-10.6312-0.4885-21.3028,0.2303-31.8832   c1.246-18.3532,7.996-34.33,22.6017-45.8904c16.8907-13.3732,39.0311-11.8104,54.3631,3.4296   c10.9809,10.914,17.258,24.3576,18.2308,39.7404C143.3672,90.6949,143.2305,104.9021,142.4764,118.9901z" fill="#EB4548"/></g></svg>