<?xml version="1.0" encoding="UTF-8" standalone="no"?>
<!DOCTYPE svg PUBLIC "-//W3C//DTD SVG 1.1//EN" "http://www.w3.org/Graphics/SVG/1.1/DTD/svg11.dtd">
<svg width="100%" height="100%" viewBox="0 0 128 128" version="1.1" xmlns="http://www.w3.org/2000/svg" xmlns:xlink="http://www.w3.org/1999/xlink" xml:space="preserve" style="fill-rule:evenodd;clip-rule:evenodd;stroke-linejoin:round;stroke-miterlimit:1.41421;">
    <g transform="matrix(1,0,0,1,-86,0)">
        <g transform="matrix(0.426667,0,0,1,86,0)">
            <rect x="0" y="0" width="300" height="128" style="fill:rgb(196,26,0);"/>
        </g>
        <g id="path54" transform="matrix(1,0,0,1,89.436,0)">
            <path d="M65.048,86.723C63.51,87.035 61.944,87.11 60.438,87.043C52.408,86.676 42.805,83.501 42.805,61.869C42.805,40.249 52.865,34.018 60.895,34.385C68.913,34.747 78.248,40.241 78.248,61.869C78.248,71.67 76.256,77.83 73.314,81.612C73.275,81.612 73.243,81.601 73.243,81.601C66.562,72.731 57.906,74.399 55.831,75.235C55.831,75.235 56.091,77.215 56.64,80.831C61.222,81.048 63.494,83.525 65.08,86.657C65.064,86.688 65.048,86.723 65.048,86.723M78.098,91.389C78.098,91.389 78.118,91.362 78.122,91.338C87.871,85.651 94.114,74.509 94.394,61.585C94.828,41.791 80.437,26.323 60.658,25.807C41.89,25.318 27.009,43.029 26.729,61.585C26.434,81.285 40.529,94.872 60.449,95.597C63.131,95.7 65.793,95.514 68.317,95.017C68.317,95.017 68.357,95.029 68.384,95.037C75.176,107.456 85.3,104.873 87.918,104.001C87.918,104.001 87.559,101.852 86.944,97.861C82.07,97.573 79.897,95.037 78.098,91.389" style="fill:white;fill-rule:nonzero;"/>
        </g>
    </g>
</svg>
