<?xml version="1.0" encoding="utf-8"?>
<!-- Generator: Adobe Illustrator 19.1.0, SVG Export Plug-In . SVG Version: 6.00 Build 0)  -->
<svg version="1.1" id="Layer_1" xmlns="http://www.w3.org/2000/svg" xmlns:xlink="http://www.w3.org/1999/xlink" x="0px" y="0px"
	 viewBox="49 8 152 56" style="enable-background:new 49 8 152 56;" xml:space="preserve">
<style type="text/css">
	.st0{fill:#35B24F;}
	.st1{fill:#FFFFFF;}
	.st2{fill:#333333;}
</style>
<g>
	<path class="st0" d="M108.6,58.1c-1.8-1.3-4-3.1-4.2-6.2c-0.1-1.6,0.4-3.4,0.8-4.8c0.3-0.7,0.6-1.3,0.8-2c0-0.1,0.1-0.1,0.1-0.1
		l0,0c1-2.8,1.5-5.9,1.5-9c0-15.3-12.9-27.7-28.9-27.7C63,8.3,50,20.7,50,36s12.9,27.7,28.9,27.7c5.5,0,10.6-1.5,15.1-4.1
		c1-0.6,2-1,2.5-0.8c5.7,2.5,10.9,1.4,11.6,1.3C108.6,60.1,110.4,59.5,108.6,58.1"/>
	<path class="st1" d="M89.8,29.8H69.7c-1.3,0-2.2-1.1-2.2-2.3v-1.8c0-1.3,1.1-2.3,2.2-2.3h20.1c1.3,0,2.2,1.1,2.2,2.3v1.9
		C92,28.7,91,29.8,89.8,29.8 M83,39.4H69.7c-1.3,0-2.2-1.1-2.2-2.3v-1.9c0-1.3,1.1-2.3,2.2-2.3H83c1.3,0,2.2,1.1,2.2,2.3v1.9
		C85.2,38.3,84.2,39.4,83,39.4 M73.2,48.7h-3.6c-1.3,0-2.2-1.1-2.2-2.3v-1.9c0-1.3,1.1-2.3,2.2-2.3h3.6c1.3,0,2.2,1.1,2.2,2.3v1.9
		C75.5,47.7,74.5,48.7,73.2,48.7"/>
	<path class="st2" d="M131,26.5h-9.5v7h5.9c0.9,0,1.3,0.6,1.3,1.8s-0.5,1.8-1.3,2h-5.8l0.1,10.6c-0.1,0.9-0.7,1.4-2,1.4
		s-1.9-0.5-2-1.5V24.6c0-1.1,0.5-1.8,1.5-1.8H131c1,0,1.5,0.6,1.5,1.8C132.4,25.8,131.9,26.5,131,26.5 M142.4,48.2
		c-0.6,1.1-1.6,1.3-3.1,0.8c-2.7-1.1-3.9-3.1-3.9-5.7l0.1-18.8c-0.1-1.3,0.5-1.9,2-1.9s2.1,0.6,1.9,1.9l-0.1,17.6
		c0.1,1.8,0.8,2.9,2.2,3.3C142.8,46.2,143.1,47.1,142.4,48.2 M161.2,46.4c-1.3,1.5-2.5,2.4-3.6,2.8c-1.2,0.4-2.3,0.6-3.4,0.6
		c-1.1,0-2.3-0.2-3.6-0.6c-1.3-0.4-2.5-1.3-3.7-2.8s-1.8-3.5-1.8-6c-0.1-2.5,0.6-4.6,1.8-6.3s2.5-2.7,3.8-3.2s2.6-0.7,3.9-0.6
		s2.7,0.4,3.8,0.9c1.2,0.6,2.2,1.6,3.3,3.1c1,1.5,1.5,3.5,1.5,6.1C163.1,42.9,162.5,45,161.2,46.4 M157.7,35.4
		c-1.1-1.1-2.3-1.5-3.6-1.5c-1.4,0-2.6,0.6-3.6,1.7c-1.1,1.1-1.5,2.6-1.5,4.6s0.6,3.4,1.6,4.4c1.1,1,2.2,1.5,3.6,1.5
		c1.4,0,2.6-0.5,3.6-1.5c1.1-1,1.5-2.5,1.5-4.5C159.3,38,158.8,36.4,157.7,35.4 M177.5,36.1c-1.2-1.3-2.5-2-3.8-1.9
		c-1.4,0-2.5,0.6-3.5,1.8s-1.4,2.7-1.3,4.6c0.1,2,0.8,3.4,2,4.2c1.3,0.8,2.5,1.2,3.9,1c1.3-0.2,2.2-0.8,2.7-1.6
		c0.7-1,1.5-1.3,2.4-0.8s1.1,1.3,0.7,2.5c-0.7,1.2-1.8,2.2-3.2,2.9s-3.3,0.9-5.5,0.5s-3.9-1.3-5-2.9c-1.1-1.5-1.8-3.6-1.7-6
		c0-2.5,0.7-4.6,2.1-6.4c1.4-1.8,3.4-2.9,6-3c2.7-0.2,4.8,0.6,6.5,2.4c0.8,1.2,0.9,2.1,0.1,2.9C179.3,36.8,178.4,36.8,177.5,36.1
		 M199,49c-1.1,0.8-1.9,0.7-2.5-0.2l-5.9-8.1l-2.2,2.1V48c0,1-0.7,1.5-2,1.5s-2-0.5-2-1.5V24.2c0-1.1,0.7-1.7,2-1.7s2,0.6,2,1.7
		v13.6l7.1-6.4c0.8-0.8,1.6-0.8,2.5,0.1c0.9,0.8,1,1.8,0.3,2.6l-4.7,4l6,8.4C200.3,47.3,200.1,48.2,199,49"/>
</g>
</svg>
