<?xml version="1.0" ?><!DOCTYPE svg  PUBLIC '-//W3C//DTD SVG 1.1//EN'  'http://www.w3.org/Graphics/SVG/1.1/DTD/svg11.dtd'><svg id="Lager_1" style="enable-background:new 0 0 128 128;" version="1.1" viewBox="0 0 128 128" xml:space="preserve" xmlns="http://www.w3.org/2000/svg" xmlns:xlink="http://www.w3.org/1999/xlink"><g><g><g><circle cx="64" cy="64" r="50" style="fill:#205081;"/></g></g><path d="M86.4,44.8c-0.3-0.5-0.8-0.9-1.2-1.2c-1-0.8-2.2-1.4-3.4-1.8c-2.5-1-5.2-1.6-7.9-2.1   c-3.3-0.5-6.6-0.7-10.1-0.8c-3.1,0-6.4,0.2-9.6,0.7c-2.3,0.4-4.6,0.8-6.8,1.6c-1.5,0.5-2.9,1.1-4.2,2c-0.6,0.4-1.2,0.9-1.6,1.5   c-0.6,0.7-0.8,1.6-0.7,2.5c0.3,1.8,0.6,3.7,0.9,5.5c0.4,2.7,0.9,5.4,1.4,8.1c0.5,3,1,6,1.5,9c0.1,0.7,0.4,1.3,0.9,1.8   c0.3,0.3,0.6,0.6,1,0.9c1.2,1,2.6,1.7,4.1,2.3c3.5,1.4,7.1,2,10.9,2.2c2.7,0.2,5.4,0.1,8.1-0.3c2.3-0.3,4.5-0.8,6.7-1.6   c1.6-0.6,3.2-1.3,4.6-2.3c0.6-0.4,1.1-0.9,1.6-1.5c0.3-0.4,0.5-0.8,0.6-1.3c0.7-3.9,1.4-7.8,2-11.8c0.6-3.6,1.2-7.3,1.8-10.9   C87.1,46.2,86.9,45.5,86.4,44.8z M64,71.8c-4,0-7.3-3.3-7.3-7.3s3.3-7.3,7.3-7.3c4.1,0,7.3,3.3,7.3,7.4C71.3,68.6,68,71.8,64,71.8z    M78.6,46.3c-0.2,0.2-0.5,0.4-0.7,0.6c-0.8,0.4-1.6,0.7-2.4,0.9c-1.6,0.4-3.2,0.6-4.9,0.8c-2.1,0.2-4.3,0.3-6.4,0.3   c-2.5,0-4.9-0.1-7.3-0.4c-1.8-0.2-3.6-0.5-5.3-1.1c-0.5-0.2-1-0.4-1.5-0.6c-0.2-0.1-0.5-0.3-0.6-0.5c-0.3-0.4-0.3-0.8,0-1.1   c0.2-0.2,0.4-0.4,0.7-0.5c0.7-0.4,1.5-0.7,2.3-0.9c1.6-0.4,3.3-0.7,5-0.9c2.8-0.3,5.5-0.4,8.3-0.3c2.6,0.1,5.1,0.3,7.6,0.7   c1.2,0.2,2.4,0.5,3.5,0.9c0.4,0.2,0.8,0.4,1.1,0.6c0.2,0.1,0.3,0.3,0.5,0.4C78.8,45.6,78.8,46,78.6,46.3z M81.3,77   c0,0.1,0,0.3,0,0.5c-0.5,2.7-1,5.4-1.5,8.1c-0.2,0.9-0.6,1.7-1.2,2.3c-0.7,0.7-1.5,1.3-2.4,1.7c-1.6,0.8-3.4,1.4-5.2,1.7   c-2.3,0.5-4.6,0.7-6,0.7c-4,0-7-0.3-9.9-1.2c-1.3-0.4-2.6-0.9-3.9-1.6c-0.6-0.4-1.2-0.8-1.7-1.3c-0.7-0.7-1.1-1.4-1.2-2.3   c-0.5-2.7-1-5.4-1.5-8.1c0-0.1,0-0.3,0-0.4c0-0.7,0.6-1,1.2-0.7c0.1,0,0.1,0.1,0.2,0.1c2,1.4,4.2,2.4,6.5,3.1   c2.1,0.7,4.3,1.1,6.5,1.3c2.5,0.2,5.1,0.2,7.6-0.2c3.4-0.5,6.6-1.4,9.5-3.1c0.6-0.3,1.2-0.7,1.7-1.1c0.1-0.1,0.2-0.1,0.3-0.2   C80.7,76.1,81.3,76.4,81.3,77z M67.7,64.5c0,2-1.7,3.7-3.7,3.7c-2,0-3.7-1.7-3.6-3.7c0-2,1.6-3.7,3.7-3.6   C66,60.8,67.7,62.5,67.7,64.5z" style="fill:#FFFFFF;"/></g></svg>