<?xml version="1.0" encoding="UTF-8" standalone="no"?>
<svg xmlns="http://www.w3.org/2000/svg" xml:space="preserve" height="333" viewBox="0 0 333 333" width="333" version="1.1" ><g transform="matrix(1.25 0 0 -1.25 -37.711 351.04)"><rect transform="scale(1,-1)" height="173.14" width="129.41" y="-243.89" x="96.07" fill="#fff"/><g transform="translate(214.56 194.22)"><path d="m0 0h-24.25v11.929h-31.908v-33.136h33.184v-23.859h-33.184v-34.461h14.04v-23.859h-54.882v23.859h12.764v91.456h-12.764v23.858h97v-35.783zm13.498 81.394h-129.38c-25.291 0-45.78-20.504-45.78-45.797v-132.05c0-25.308 20.496-45.797 45.78-45.797h72.07v-32.326l36.892 32.326h20.422c25.291 0 45.779 20.504 45.779 45.797v132.05c0 25.308-20.496 45.797-45.779 45.797" fill-rule="evenodd" fill="#3e81de"/></g></g></svg>
