<svg id="Layer_1" data-name="Layer 1" xmlns="http://www.w3.org/2000/svg" xmlns:xlink="http://www.w3.org/1999/xlink" viewBox="0 0 22.86 88.43"><defs><style>.cls-1{fill:#fff;}.cls-2{mask:url(#mask);}.cls-3{fill:#231f20;}.cls-4{fill:#1bb76e;}</style><mask id="mask" x="-0.55" y="-3.73" width="328.12" height="116.95" maskUnits="userSpaceOnUse"><g transform="translate(-34.18 -1.32)"><g id="mask-2"><polyline id="path-1" class="cls-1" points="33.62 -2.42 361.74 -2.42 361.74 114.53 33.62 114.53"/></g></g></mask></defs><title>imgur-logo</title><g id="Page-1"><g id="Ad-UX-Copy-3"><g id="Header"><g id="Imgur-Logo"><g id="Group-3"><g class="cls-2"><path id="Fill-1" class="cls-3" d="M45.67,28.5c6.69,0,9.85,4.15,9.85,12.79V76.85c0,8.64-3,12.9-9.85,12.9s-10-4.26-10-12.9V41.29c0-8.64,3.16-12.79,10-12.79m0-6.78c-6.44,0-11.49-4.49-11.49-10.21S39.35,1.32,45.67,1.32,57,5.91,57,11.52,52,21.73,45.67,21.73" transform="translate(-34.18 -1.32)"/></g></g><path id="Fill-4" class="cls-4" d="M45.67,21.73c-6.44,0-11.49-4.49-11.49-10.21S39.35,1.32,45.67,1.32,57,5.91,57,11.52,52,21.73,45.67,21.73" transform="translate(-34.18 -1.32)"/></g></g></g></g></svg>