<svg id="svg" version="1.1" width="526" height="500" xmlns="http://www.w3.org/2000/svg" xmlns:xlink="http://www.w3.org/1999/xlink" style="display: block;"><g id="svgg"><path id="path0" d="M77.820 153.232 C 76.969 153.861,76.825 163.301,76.989 207.985 L 77.186 261.977 88.593 261.977 L 100.000 261.977 100.205 245.306 L 100.411 228.634 103.893 224.393 C 105.809 222.061,107.795 219.912,108.306 219.619 C 109.291 219.055,109.886 219.794,129.552 246.008 C 135.828 254.373,141.327 261.468,141.774 261.775 C 142.846 262.513,169.583 262.524,169.579 261.787 C 169.577 261.473,165.596 256.255,160.732 250.190 C 144.030 229.364,124.715 204.676,124.715 204.153 C 124.715 203.865,129.634 197.765,135.647 190.598 C 157.980 163.977,163.864 156.998,165.197 155.548 C 165.948 154.730,166.466 153.771,166.348 153.416 C 166.186 152.929,149.568 152.568,139.734 152.838 C 139.211 152.852,136.901 155.308,134.601 158.295 C 132.300 161.282,129.221 165.152,127.757 166.895 C 126.293 168.637,121.844 174.275,117.871 179.423 C 113.897 184.571,108.422 191.538,105.703 194.904 L 100.760 201.026 100.380 177.129 L 100.000 153.232 89.425 152.852 C 82.944 152.619,78.451 152.766,77.820 153.232 M237.833 152.682 L 226.616 152.892 226.616 207.625 L 226.616 262.357 238.023 262.357 L 249.430 262.357 249.441 228.327 C 249.448 209.610,249.740 193.845,250.090 193.292 C 250.547 192.571,251.875 193.860,254.792 197.855 C 263.761 210.135,267.408 215.155,269.677 218.338 C 275.134 225.997,300.355 260.533,301.143 261.427 C 301.780 262.149,304.769 262.344,312.787 262.188 L 323.574 261.977 323.769 207.394 L 323.964 152.811 312.743 153.021 L 301.521 153.232 301.323 186.502 C 301.169 212.372,300.915 219.766,300.182 219.744 C 299.664 219.729,296.502 215.910,293.156 211.259 C 289.810 206.607,285.019 200.005,282.510 196.586 C 280.000 193.167,271.958 182.147,264.639 172.097 C 248.850 150.417,251.620 152.423,237.833 152.682 M181.749 207.605 L 181.749 262.357 193.156 262.357 L 204.563 262.357 204.563 207.605 L 204.563 152.852 193.156 152.852 L 181.749 152.852 181.749 207.605 " stroke="none" fill="#ffffff" fill-rule="evenodd"></path><path id="path1" d="M0.000 15.209 L 0.000 30.418 200.000 30.418 L 400.000 30.418 400.000 15.209 L 400.000 0.000 200.000 0.000 L 0.000 0.000 0.000 15.209 M0.179 190.304 C 0.328 303.147,0.606 342.979,1.253 344.106 C 1.733 344.943,2.726 347.082,3.459 348.859 C 4.193 350.637,5.084 352.091,5.439 352.091 C 5.793 352.091,6.084 352.605,6.084 353.232 C 6.084 353.859,6.426 354.373,6.844 354.373 C 7.262 354.373,7.605 355.057,7.605 355.894 C 7.605 356.730,7.947 357.414,8.365 357.414 C 8.783 357.414,9.125 357.769,9.125 358.202 C 9.125 359.813,20.415 371.103,22.026 371.103 C 22.459 371.103,22.814 371.445,22.814 371.863 C 22.814 372.281,23.498 372.624,24.335 372.624 C 25.171 372.624,25.856 372.966,25.856 373.384 C 25.856 373.802,26.369 374.144,26.996 374.144 C 27.624 374.144,28.137 374.423,28.137 374.764 C 28.137 375.505,33.068 377.947,34.563 377.947 C 35.142 377.947,35.757 378.375,35.932 378.897 C 36.184 379.654,69.675 379.848,200.000 379.848 C 330.325 379.848,363.816 379.654,364.068 378.897 C 364.243 378.375,364.858 377.947,365.437 377.947 C 366.932 377.947,371.863 375.505,371.863 374.764 C 371.863 374.423,372.376 374.144,373.004 374.144 C 373.631 374.144,374.144 373.802,374.144 373.384 C 374.144 372.966,374.829 372.624,375.665 372.624 C 376.502 372.624,377.186 372.281,377.186 371.863 C 377.186 371.445,377.541 371.103,377.974 371.103 C 379.585 371.103,390.875 359.813,390.875 358.202 C 390.875 357.769,391.217 357.414,391.635 357.414 C 392.053 357.414,392.395 356.730,392.395 355.894 C 392.395 355.057,392.738 354.373,393.156 354.373 C 393.574 354.373,393.916 353.859,393.916 353.232 C 393.916 352.605,394.207 352.091,394.561 352.091 C 394.916 352.091,395.807 350.637,396.541 348.859 C 397.274 347.082,398.267 344.943,398.747 344.106 C 399.394 342.979,399.672 303.147,399.821 190.304 L 400.022 38.023 200.000 38.023 L -0.022 38.023 0.179 190.304 M100.380 177.129 L 100.760 201.026 105.703 194.904 C 108.422 191.538,113.897 184.571,117.871 179.423 C 121.844 174.275,126.293 168.637,127.757 166.895 C 129.221 165.152,132.300 161.282,134.601 158.295 C 136.901 155.308,139.211 152.852,139.734 152.838 C 149.568 152.568,166.186 152.929,166.348 153.416 C 166.466 153.771,165.948 154.730,165.197 155.548 C 163.864 156.998,157.980 163.977,135.647 190.598 C 129.634 197.765,124.715 203.865,124.715 204.153 C 124.715 204.676,144.030 229.364,160.732 250.190 C 165.596 256.255,169.577 261.473,169.579 261.787 C 169.583 262.524,142.846 262.513,141.774 261.775 C 141.327 261.468,135.828 254.373,129.552 246.008 C 109.886 219.794,109.291 219.055,108.306 219.619 C 107.795 219.912,105.809 222.061,103.893 224.393 L 100.411 228.634 100.205 245.306 L 100.000 261.977 88.593 261.977 L 77.186 261.977 76.989 207.985 C 76.825 163.301,76.969 153.861,77.820 153.232 C 78.451 152.766,82.944 152.619,89.425 152.852 L 100.000 153.232 100.380 177.129 M264.639 172.097 C 271.958 182.147,280.000 193.167,282.510 196.586 C 285.019 200.005,289.810 206.607,293.156 211.259 C 296.502 215.910,299.664 219.729,300.182 219.744 C 300.915 219.766,301.169 212.372,301.323 186.502 L 301.521 153.232 312.743 153.021 L 323.964 152.811 323.769 207.394 L 323.574 261.977 312.787 262.188 C 304.769 262.344,301.780 262.149,301.143 261.427 C 300.355 260.533,275.134 225.997,269.677 218.338 C 267.408 215.155,263.761 210.135,254.792 197.855 C 251.875 193.860,250.547 192.571,250.090 193.292 C 249.740 193.845,249.448 209.610,249.441 228.327 L 249.430 262.357 238.023 262.357 L 226.616 262.357 226.616 207.625 L 226.616 152.892 237.833 152.682 C 251.620 152.423,248.850 150.417,264.639 172.097 M204.563 207.605 L 204.563 262.357 193.156 262.357 L 181.749 262.357 181.749 207.605 L 181.749 152.852 193.156 152.852 L 204.563 152.852 204.563 207.605 " stroke="none" fill="#f24952" fill-rule="evenodd"></path></g></svg>