<?xml version="1.0" encoding="UTF-8" ?>
<!DOCTYPE svg PUBLIC "-//W3C//DTD SVG 1.1//EN" "http://www.w3.org/Graphics/SVG/1.1/DTD/svg11.dtd">
<svg width="196pt" height="144pt" viewBox="0 0 196 144" version="1.1" xmlns="http://www.w3.org/2000/svg">
<path d=" M 0.00 0.00 L 16.41 0.00 C 15.14 2.22 13.79 4.45 11.90 6.21 C 10.15 4.53 8.01 3.33 5.92 2.13 C 6.80 4.06 7.73 5.98 8.69 7.89 C 8.23 8.63 7.77 9.38 7.32 10.12 C 4.81 7.91 2.73 5.24 0.00 3.27 L 0.00 0.00 Z" />
<path fill="#000000" d=" M 16.41 0.00 L 36.03 0.00 C 33.45 3.02 31.13 6.68 27.24 8.12 C 23.03 8.70 18.75 8.65 14.51 8.83 C 16.25 10.23 17.95 11.69 19.62 13.19 C 18.89 15.13 18.02 17.01 17.18 18.91 C 19.43 18.05 21.64 17.08 23.88 16.21 C 22.76 18.88 21.72 22.45 18.09 22.16 C 14.65 21.03 12.26 17.98 9.33 15.98 C 9.66 22.00 8.47 27.99 9.04 33.99 C 6.00 30.81 2.85 27.74 0.00 24.39 L 0.00 3.27 C 2.73 5.24 4.81 7.91 7.32 10.12 C 7.77 9.38 8.23 8.63 8.69 7.89 C 7.73 5.98 6.80 4.06 5.92 2.13 C 8.01 3.33 10.15 4.53 11.90 6.21 C 13.79 4.45 15.14 2.22 16.41 0.00 Z" />
<path fill="#ffffff" d=" M 36.03 0.00 L 67.47 0.00 C 64.75 2.40 62.12 4.91 59.45 7.36 C 66.21 8.34 73.50 9.81 80.07 7.09 C 83.59 5.20 86.54 2.44 89.68 0.00 L 119.27 0.00 C 115.90 2.88 112.53 5.80 109.53 9.08 C 117.12 8.48 125.14 9.87 132.45 7.16 C 135.85 5.28 138.61 2.47 141.57 0.00 L 171.63 0.00 C 173.36 2.57 175.23 5.04 176.84 7.69 C 177.88 8.04 178.93 8.38 179.99 8.73 C 178.50 11.26 176.83 13.67 175.33 16.18 C 176.91 17.27 178.40 18.58 180.25 19.20 C 182.18 19.06 184.00 18.30 185.85 17.79 C 186.01 20.27 186.32 25.25 186.48 27.73 C 188.95 31.93 192.79 35.05 196.00 38.66 L 196.00 69.96 C 192.34 70.10 188.19 69.74 186.70 65.78 C 186.37 71.99 184.55 79.31 189.52 84.26 C 191.72 80.21 193.96 76.17 196.00 72.04 L 196.00 120.39 C 192.79 117.11 189.47 113.95 186.12 110.83 C 186.06 116.23 186.00 121.62 185.95 127.02 C 181.71 122.97 177.09 119.35 172.38 115.87 C 173.07 117.10 173.77 118.34 174.40 119.61 C 173.17 120.13 171.94 120.69 170.70 121.18 C 172.18 127.26 177.12 131.42 180.55 136.39 C 177.40 135.96 174.23 135.52 171.09 135.09 C 171.75 137.35 172.53 139.56 173.22 141.81 C 172.29 141.44 171.36 141.09 170.43 140.76 C 169.73 141.84 169.02 142.92 168.30 144.00 L 163.62 144.00 C 164.06 142.56 164.45 141.10 164.84 139.65 C 162.90 141.00 161.08 142.51 159.25 144.00 L 119.20 144.00 C 120.93 140.82 122.80 137.71 124.22 134.38 C 119.00 133.64 115.11 136.83 111.47 139.87 C 112.20 140.21 113.68 140.88 114.42 141.22 C 112.04 142.23 109.62 143.17 107.17 144.00 L 77.34 144.00 C 78.95 142.30 80.57 140.55 81.68 138.48 C 77.56 133.37 70.18 135.90 64.55 134.87 C 61.56 137.99 58.61 141.19 55.32 144.00 L 25.61 144.00 C 28.58 141.09 31.48 138.12 34.30 135.07 C 28.10 134.97 21.90 135.03 15.69 134.90 C 33.23 115.83 52.69 98.64 70.60 79.92 C 69.80 78.59 69.02 77.25 68.25 75.91 C 71.03 76.29 73.79 76.68 76.56 77.07 C 77.66 68.24 68.81 63.76 63.49 58.29 C 62.12 60.58 60.82 62.92 59.55 65.27 C 61.43 67.55 63.39 69.74 65.23 72.05 C 54.27 83.81 42.07 94.43 31.98 106.99 C 27.87 111.37 23.39 115.42 19.67 120.15 C 20.40 121.21 21.14 122.28 21.86 123.35 C 17.58 122.38 13.58 123.73 10.87 127.21 C 11.65 127.60 13.21 128.39 13.99 128.79 C 12.38 129.39 10.75 129.95 9.11 130.48 C 10.56 131.11 12.00 131.75 13.43 132.39 C 8.56 132.37 3.03 132.65 0.00 137.12 L 0.00 134.03 C 0.66 133.55 1.97 132.59 2.63 132.11 C 2.65 131.81 2.69 131.19 2.71 130.88 C 2.03 130.41 0.68 129.46 0.00 128.98 L 0.00 123.19 C 0.83 123.33 1.65 123.46 2.48 123.60 C 2.98 122.30 3.49 121.00 4.00 119.71 C 5.88 122.49 7.32 125.53 9.22 128.30 C 8.41 123.72 7.01 119.16 4.39 115.27 C 5.54 115.01 6.70 114.76 7.85 114.50 C 5.24 111.80 2.47 109.23 0.00 106.39 L 0.00 71.69 C 0.38 72.06 1.15 72.80 1.53 73.17 C 2.74 77.02 5.04 80.34 8.85 81.96 C 8.75 76.10 9.72 70.09 8.70 64.28 C 6.22 60.59 2.98 57.53 0.00 54.27 L 0.00 24.39 C 2.85 27.74 6.00 30.81 9.04 33.99 C 8.47 27.99 9.66 22.00 9.33 15.98 C 12.26 17.98 14.65 21.03 18.09 22.16 C 21.72 22.45 22.76 18.88 23.88 16.21 C 21.64 17.08 19.43 18.05 17.18 18.91 C 18.02 17.01 18.89 15.13 19.62 13.19 C 17.95 11.69 16.25 10.23 14.51 8.83 C 18.75 8.65 23.03 8.70 27.24 8.12 C 31.13 6.68 33.45 3.02 36.03 0.00 Z" />
<path fill="#000000" d=" M 67.47 0.00 L 89.68 0.00 C 86.54 2.44 83.59 5.20 80.07 7.09 C 73.50 9.81 66.21 8.34 59.45 7.36 C 62.12 4.91 64.75 2.40 67.47 0.00 Z" />
<path fill="#000000" d=" M 119.27 0.00 L 126.62 0.00 C 124.13 1.38 121.61 2.72 119.32 4.42 C 123.20 4.76 127.09 4.91 130.98 5.15 C 130.11 4.37 129.24 3.59 128.36 2.81 C 130.40 1.85 132.43 0.86 134.52 0.00 L 141.57 0.00 C 138.61 2.47 135.85 5.28 132.45 7.16 C 125.14 9.87 117.12 8.48 109.53 9.08 C 112.53 5.80 115.90 2.88 119.27 0.00 Z" />
<path fill="#ffffff" d=" M 126.62 0.00 L 134.52 0.00 C 132.43 0.86 130.40 1.85 128.36 2.81 C 129.24 3.59 130.11 4.37 130.98 5.15 C 127.09 4.91 123.20 4.76 119.32 4.42 C 121.61 2.72 124.13 1.38 126.62 0.00 Z" />
<path fill="#000000" d=" M 171.63 0.00 L 191.83 0.00 C 193.32 1.28 194.72 2.67 196.00 4.16 L 196.00 38.66 C 192.79 35.05 188.95 31.93 186.48 27.73 C 186.32 25.25 186.01 20.27 185.85 17.79 C 184.00 18.30 182.18 19.06 180.25 19.20 C 178.40 18.58 176.91 17.27 175.33 16.18 C 176.83 13.67 178.50 11.26 179.99 8.73 C 178.93 8.38 177.88 8.04 176.84 7.69 C 175.23 5.04 173.36 2.57 171.63 0.00 Z" />
<path fill="#ffffff" d=" M 191.83 0.00 L 196.00 0.00 L 196.00 4.16 C 194.72 2.67 193.32 1.28 191.83 0.00 Z" />
<path fill="#000000" d=" M 2.45 1.27 C 3.30 -0.22 6.47 0.75 5.35 2.54 C 4.52 4.10 1.38 3.06 2.45 1.27 Z" />
<path fill="#ffffff" d=" M 17.17 1.17 C 18.80 0.65 19.35 1.20 18.83 2.83 C 17.20 3.35 16.65 2.80 17.17 1.17 Z" />
<path fill="#ffffff" d=" M 16.32 4.18 C 17.32 2.71 19.85 4.35 18.68 5.82 C 17.68 7.29 15.15 5.65 16.32 4.18 Z" />
<path fill="#ffffff" d=" M 178.17 5.17 C 179.79 4.65 180.35 5.20 179.83 6.83 C 178.20 7.35 177.65 6.80 178.17 5.17 Z" />
<path fill="#000000" d=" M 166.35 7.23 C 168.45 7.20 170.55 7.20 172.65 7.23 C 170.70 9.14 168.30 9.14 166.35 7.23 Z" />
<path fill="#ffffff" d=" M 2.21 9.35 C 3.97 9.01 4.32 11.89 2.78 12.39 C 1.10 12.69 0.62 9.78 2.21 9.35 Z" />
<path fill="#ffffff" d=" M 12.54 12.91 C 14.51 12.81 16.49 12.81 18.46 12.91 C 17.39 13.72 16.66 15.43 15.28 15.61 C 14.28 14.80 13.43 13.83 12.54 12.91 Z" />
<path fill="#000000" d=" M 172.64 16.45 C 175.07 18.37 177.56 20.65 178.11 23.86 C 176.84 24.36 175.55 24.82 174.33 25.44 C 173.27 22.56 172.34 19.55 172.64 16.45 Z" />
<path fill="#000000" d=" M 23.94 19.50 C 26.23 21.00 28.54 22.48 31.00 23.67 C 30.59 25.25 30.10 26.81 29.59 28.36 C 27.85 25.32 25.17 22.83 23.94 19.50 Z" />
<path fill="#000000" d=" M 159.77 31.51 C 160.93 29.28 162.43 27.24 164.29 25.53 C 164.07 28.38 162.37 30.43 159.77 31.51 Z" />
<path fill="#000000" d=" M 21.53 27.12 C 22.95 24.94 24.70 29.02 22.10 28.41 C 21.96 28.09 21.68 27.44 21.53 27.12 Z" />
<path fill="#000000" d=" M 23.65 29.72 C 25.88 29.72 28.12 29.72 30.35 29.72 C 29.30 31.03 28.18 32.27 27.00 33.44 C 25.82 32.27 24.70 31.03 23.65 29.72 Z" />
<path fill="#000000" d=" M 170.19 28.92 C 171.76 28.21 172.70 30.88 171.01 31.29 C 169.43 31.95 168.54 29.38 170.19 28.92 Z" />
<path fill="#000000" d=" M 157.50 37.72 C 160.07 36.74 162.75 36.04 165.51 35.92 C 163.69 38.94 160.46 38.65 157.50 37.72 Z" />
<path fill="#000000" d=" M 39.57 45.10 C 40.51 42.26 42.53 40.03 45.16 38.65 C 44.83 40.40 44.42 42.13 43.86 43.82 C 42.44 44.27 41.01 44.69 39.57 45.10 Z" />
<path fill="#000000" d=" M 149.57 39.48 C 153.48 39.95 157.41 40.15 161.34 40.39 C 158.17 44.69 154.43 49.06 148.91 50.10 C 148.54 52.07 148.31 54.25 146.73 55.68 C 141.58 61.15 135.80 65.98 130.55 71.34 C 128.88 69.45 127.04 67.50 126.44 64.99 C 131.80 57.30 138.67 50.82 145.34 44.29 C 147.75 41.73 151.44 42.82 154.51 42.57 C 152.77 41.68 151.18 40.57 149.57 39.48 Z" />
<path fill="#ffffff" d=" M 150.12 45.53 C 154.05 46.31 147.82 48.97 150.12 45.53 Z" />
<path fill="#000000" d=" M 43.64 49.37 C 44.88 48.45 47.11 50.25 46.36 51.63 C 45.12 52.55 42.89 50.75 43.64 49.37 Z" />
<path fill="#000000" d=" M 48.78 54.26 C 50.66 52.39 52.54 50.51 54.41 48.63 C 56.39 50.99 58.27 53.52 58.57 56.76 C 59.61 56.27 60.64 55.77 61.67 55.28 C 61.24 58.08 59.71 60.50 58.45 62.98 C 54.72 60.70 51.21 57.94 48.78 54.26 Z" />
<path fill="#ffffff" d=" M 50.56 55.73 C 52.32 54.27 54.13 52.88 55.85 51.39 C 55.90 52.87 55.93 54.34 55.93 55.82 C 54.95 56.21 53.96 56.60 52.98 57.00 C 52.38 56.68 51.17 56.04 50.56 55.73 Z" />
<path fill="#ffffff" d=" M 135.52 55.42 C 137.12 54.99 138.61 54.24 140.09 53.50 C 139.72 54.70 139.37 55.91 139.05 57.12 C 137.88 56.55 136.70 55.98 135.52 55.42 Z" />
<path fill="#000000" d=" M 0.00 54.27 C 2.98 57.53 6.22 60.59 8.70 64.28 C 9.72 70.09 8.75 76.10 8.85 81.96 C 5.04 80.34 2.74 77.02 1.53 73.17 C 1.15 72.80 0.38 72.06 0.00 71.69 L 0.00 54.27 Z" />
<path fill="#000000" d=" M 63.49 58.29 C 68.81 63.76 77.66 68.24 76.56 77.07 C 73.79 76.68 71.03 76.29 68.25 75.91 C 69.02 77.25 69.80 78.59 70.60 79.92 C 52.69 98.64 33.23 115.83 15.69 134.90 C 21.90 135.03 28.10 134.97 34.30 135.07 C 31.48 138.12 28.58 141.09 25.61 144.00 L 4.17 144.00 C 2.66 142.75 1.26 141.36 0.00 139.87 L 0.00 137.12 C 3.03 132.65 8.56 132.37 13.43 132.39 C 12.00 131.75 10.56 131.11 9.11 130.48 C 10.75 129.95 12.38 129.39 13.99 128.79 C 13.21 128.39 11.65 127.60 10.87 127.21 C 13.58 123.73 17.58 122.38 21.86 123.35 C 21.14 122.28 20.40 121.21 19.67 120.15 C 23.39 115.42 27.87 111.37 31.98 106.99 C 42.07 94.43 54.27 83.81 65.23 72.05 C 63.39 69.74 61.43 67.55 59.55 65.27 C 60.82 62.92 62.12 60.58 63.49 58.29 Z" />
<path fill="#ffffff" d=" M 133.16 63.16 C 137.16 62.25 132.25 67.16 133.16 63.16 Z" />
<path fill="#000000" d=" M 186.70 65.78 C 188.19 69.74 192.34 70.10 196.00 69.96 L 196.00 72.04 C 193.96 76.17 191.72 80.21 189.52 84.26 C 184.55 79.31 186.37 71.99 186.70 65.78 Z" />
<path fill="#000000" d=" M 119.39 70.36 C 120.57 69.59 121.89 67.48 123.37 68.77 C 125.61 69.82 125.36 72.43 125.42 74.48 C 127.24 74.15 129.02 73.37 130.90 73.56 C 132.51 74.84 133.18 76.91 134.12 78.66 C 132.68 78.90 131.25 79.13 129.81 79.36 C 131.63 82.19 133.58 84.98 136.01 87.33 C 136.71 84.90 136.82 82.41 134.36 80.99 C 134.64 80.18 134.88 79.36 135.07 78.53 C 139.99 82.09 144.34 86.36 148.39 90.87 C 146.33 90.12 144.28 89.31 142.17 88.71 C 142.80 91.50 143.41 94.30 143.70 97.15 C 136.21 91.70 130.42 84.33 123.81 77.89 C 117.41 83.79 112.03 91.09 104.33 95.35 C 97.57 98.86 89.27 95.86 85.28 89.72 C 88.04 89.94 90.81 90.27 93.57 89.99 C 93.13 91.54 92.64 93.07 92.21 94.62 C 98.63 92.39 101.41 85.47 107.19 82.19 C 111.47 79.98 114.22 72.76 119.88 75.37 C 119.69 73.70 119.44 72.04 119.39 70.36 Z" />
<path fill="#000000" d=" M 74.63 82.27 C 74.38 80.56 73.62 78.45 75.94 77.91 C 77.14 78.78 78.25 79.75 79.40 80.69 C 77.81 81.22 76.22 81.75 74.63 82.27 Z" />
<path fill="#ffffff" d=" M 112.15 81.29 C 113.73 80.45 115.71 83.02 113.72 83.85 C 112.11 84.77 110.17 82.11 112.15 81.29 Z" />
<path fill="#000000" d=" M 6.53 82.12 C 7.95 79.94 9.70 84.02 7.10 83.41 C 6.96 83.09 6.68 82.44 6.53 82.12 Z" />
<path fill="#ffffff" d=" M 34.53 106.12 C 35.95 103.94 37.70 108.02 35.10 107.41 C 34.96 107.09 34.68 106.44 34.53 106.12 Z" />
<path fill="#000000" d=" M 0.00 106.39 C 2.47 109.23 5.24 111.80 7.85 114.50 C 6.70 114.76 5.54 115.01 4.39 115.27 C 7.01 119.16 8.41 123.72 9.22 128.30 C 7.32 125.53 5.88 122.49 4.00 119.71 C 3.49 121.00 2.98 122.30 2.48 123.60 C 1.65 123.46 0.83 123.33 0.00 123.19 L 0.00 121.08 C 2.53 121.47 2.33 118.34 0.00 118.41 L 0.00 106.39 Z" />
<path fill="#ffffff" d=" M 33.78 109.17 C 34.25 107.92 36.65 108.40 36.22 109.83 C 35.75 111.07 33.35 110.59 33.78 109.17 Z" />
<path fill="#000000" d=" M 168.25 110.69 C 169.69 109.76 171.68 112.12 170.63 113.43 C 169.15 114.40 167.11 112.03 168.25 110.69 Z" />
<path fill="#000000" d=" M 186.12 110.83 C 189.47 113.95 192.79 117.11 196.00 120.39 L 196.00 139.84 C 194.72 141.34 193.33 142.73 191.83 144.00 L 168.30 144.00 C 169.02 142.92 169.73 141.84 170.43 140.76 C 171.36 141.09 172.29 141.44 173.22 141.81 C 172.53 139.56 171.75 137.35 171.09 135.09 C 174.23 135.52 177.40 135.96 180.55 136.39 C 177.12 131.42 172.18 127.26 170.70 121.18 C 171.94 120.69 173.17 120.13 174.40 119.61 C 173.77 118.34 173.07 117.10 172.38 115.87 C 177.09 119.35 181.71 122.97 185.95 127.02 C 186.00 121.62 186.06 116.23 186.12 110.83 Z" />
<path fill="#ffffff" d=" M 32.13 112.95 C 35.49 112.41 32.16 117.22 31.31 114.09 C 31.51 113.80 31.93 113.24 32.13 112.95 Z" />
<path fill="#ffffff" d=" M 24.17 117.78 C 25.59 117.34 26.08 119.74 24.83 120.22 C 23.41 120.65 22.92 118.25 24.17 117.78 Z" />
<path fill="#ffffff" d=" M 0.00 118.41 C 2.33 118.34 2.53 121.47 0.00 121.08 L 0.00 118.41 Z" />
<path fill="#ffffff" d=" M 15.39 125.14 C 17.13 125.11 18.87 125.11 20.61 125.14 C 19.65 126.07 19.16 128.36 17.43 127.84 C 16.69 126.98 16.01 126.08 15.39 125.14 Z" />
<path fill="#000000" d=" M 0.00 128.98 C 0.68 129.46 2.03 130.41 2.71 130.88 C 2.69 131.19 2.65 131.81 2.63 132.11 C 1.97 132.59 0.66 133.55 0.00 134.03 L 0.00 128.98 Z" />
<path fill="#000000" d=" M 64.55 134.87 C 70.18 135.90 77.56 133.37 81.68 138.48 C 80.57 140.55 78.95 142.30 77.34 144.00 L 55.32 144.00 C 58.61 141.19 61.56 137.99 64.55 134.87 Z" />
<path fill="#000000" d=" M 111.47 139.87 C 115.11 136.83 119.00 133.64 124.22 134.38 C 122.80 137.71 120.93 140.82 119.20 144.00 L 107.17 144.00 C 109.62 143.17 112.04 142.23 114.42 141.22 C 113.68 140.88 112.20 140.21 111.47 139.87 Z" />
<path fill="#ffffff" d=" M 6.56 139.70 C 7.90 139.76 9.85 138.55 10.69 140.12 C 10.61 141.23 10.48 142.34 10.30 143.44 C 8.89 142.36 7.64 141.10 6.56 139.70 Z" />
<path fill="#ffffff" d=" M 0.00 139.87 C 1.26 141.36 2.66 142.75 4.17 144.00 L 0.00 144.00 L 0.00 139.87 Z" />
<path fill="#000000" d=" M 159.25 144.00 C 161.08 142.51 162.90 141.00 164.84 139.65 C 164.45 141.10 164.06 142.56 163.62 144.00 L 159.25 144.00 Z" />
<path fill="#ffffff" d=" M 191.83 144.00 C 193.33 142.73 194.72 141.34 196.00 139.84 L 196.00 144.00 L 191.83 144.00 Z" />
</svg>
