<?xml version="1.0" encoding="UTF-8"?>
<!DOCTYPE svg PUBLIC "-//W3C//DTD SVG 1.1//EN" "http://www.w3.org/Graphics/SVG/1.1/DTD/svg11.dtd">
<!-- Creator: CorelDRAW X7 -->
<svg xmlns="http://www.w3.org/2000/svg" xml:space="preserve" width="86.6986mm" height="86.6986mm" version="1.1" style="shape-rendering:geometricPrecision; text-rendering:geometricPrecision; image-rendering:optimizeQuality; fill-rule:evenodd; clip-rule:evenodd"
viewBox="0 0 8670 8670"
 xmlns:xlink="http://www.w3.org/1999/xlink">
 <defs>
  <style type="text/css">
   <![CDATA[
    .fil4 {fill:none}
    .fil1 {fill:#F96B00}
    .fil3 {fill:#F96C00}
    .fil2 {fill:#F99428}
    .fil0 {fill:#FEFEFE}
   ]]>
  </style>
 </defs>
 <g id="Слой_x0020_1">
  <metadata id="CorelCorpID_0Corel-Layer"/>
  <g id="_900449104">
   <g>
    <path class="fil0" d="M4335 4852c-775,0 -994,-380 -1303,-368 -329,13 -515,345 -405,618 148,365 928,515 1061,593l-773 770c-569,565 175,1153 612,679 130,-141 728,-747 808,-792 114,65 426,408 543,525 95,95 167,162 262,269 409,460 1207,-92 604,-692l-762 -759c81,-47 413,-110 796,-326 323,-181 376,-490 207,-704 -273,-347 -593,-112 -762,-28 -257,128 -550,215 -888,215z"/>
    <path class="fil0" d="M4270 2260c353,-53 660,239 700,543 49,371 -232,682 -550,719 -819,98 -1039,-1130 -150,-1262zm-200 -886c-766,143 -1422,839 -1263,1778 130,768 857,1407 1790,1257 750,-120 1423,-848 1267,-1769 -128,-753 -854,-1440 -1794,-1266z"/>
   </g>
   <path class="fil1" d="M4335 4852c338,0 631,-87 888,-215 169,-84 489,-319 762,28 169,214 116,523 -207,704 -383,216 -715,279 -796,326l762 759c603,600 -195,1152 -604,692 -95,-107 -167,-174 -262,-269 -117,-117 -429,-460 -543,-525 -80,45 -678,651 -808,792 -437,474 -1181,-114 -612,-679l773 -770c-133,-78 -913,-228 -1061,-593 -110,-273 76,-605 405,-618 309,-12 528,368 1303,368zm-265 -3478c940,-174 1666,513 1794,1266 156,921 -517,1649 -1267,1769 -933,150 -1660,-489 -1790,-1257 -159,-939 497,-1635 1263,-1778zm-2926 -1237c-551,102 -970,494 -1051,1070 -39,275 -17,4694 -17,5284 0,298 -27,758 18,1032 85,522 543,972 1094,1030 282,29 6117,23 6331,-4 536,-68 994,-530 1062,-1064 36,-285 12,-3847 11,-4223 -1,-384 22,-1831 -21,-2094 -86,-540 -535,-969 -1077,-1040 -257,-33 -4723,-9 -5304,-9 -287,0 -797,-28 -1046,18z"/>
   <path class="fil2" d="M1144 137c249,-46 759,-18 1046,-18 581,0 5047,-24 5304,9 542,71 991,500 1077,1040 43,263 20,1710 21,2094 1,376 25,3938 -11,4223 -68,534 -526,996 -1062,1064 -214,27 -6049,33 -6331,4 -551,-58 -1009,-508 -1094,-1030 -45,-274 -18,-734 -18,-1032 0,-590 -22,-5009 17,-5284 81,-576 500,-968 1051,-1070zm-1144 1245l0 5906c0,743 606,1349 1349,1349l5972 0c743,0 1349,-606 1349,-1349l0 -5906c0,-743 -606,-1349 -1349,-1349l-5972 0c-743,0 -1349,606 -1349,1349z"/>
   <path class="fil3" d="M4270 2260c-889,132 -669,1360 150,1262 318,-37 599,-348 550,-719 -40,-304 -347,-596 -700,-543z"/>
  </g>
  <rect class="fil4" width="8670" height="8670"/>
 </g>
</svg>
