<?xml version="1.0" encoding="UTF-8"?>
<svg width="1024px" height="1024px" viewBox="0 0 1024 1024" version="1.1" xmlns="http://www.w3.org/2000/svg" xmlns:xlink="http://www.w3.org/1999/xlink">
    <!-- Generator: Sketch 42 (36781) - http://www.bohemiancoding.com/sketch -->
    <title>icon</title>
    <desc>Created with Sketch.</desc>
    <defs></defs>
    <g id="Page-1" stroke="none" stroke-width="1" fill="none" fill-rule="evenodd">
        <g id="icon" fill-rule="nonzero">
            <rect id="Rectangle-path" fill="#42CE9F" x="0" y="0" width="1024" height="1024" rx="204.800003"></rect>
            <path d="M384.2048,757.76 L384.2048,757.76 C370.706815,758.046905 357.680502,752.791972 348.16,743.2192 L348.16,743.2192 C333.6192,728.4736 333.4144,714.5472 333.0048,689.152 L333.0048,637.5424 L333.0048,483.5328 C333.0048,371.9168 334.2336,260.7104 334.2336,260.7104 L432.9472,260.7104 L432.9472,340.7872 C549.888,354.304 637.7472,404.8896 673.792,482.0992 C702.412758,543.296285 692.125534,615.628329 647.5776,666.4192 C578.3552,751.0016 479.4368,757.76 384.2048,757.76 Z M432.9472,440.7296 L432.9472,657.8176 C506.88,653.7216 543.5392,638.7712 572.6208,603.9552 C592.655181,582.520663 597.604331,551.040821 585.1136,524.4928 C568.32,489.6768 520.3968,453.0176 432.7424,440.7296 L432.9472,440.7296 Z" id="Shape" fill="#FFFFFF"></path>
        </g>
    </g>
</svg>