<?xml version="1.0" encoding="utf-8"?>
<!-- Generator: Adobe Illustrator 18.0.0, SVG Export Plug-In . SVG Version: 6.00 Build 0)  -->
<!DOCTYPE svg PUBLIC "-//W3C//DTD SVG 1.0//EN" "http://www.w3.org/TR/2001/REC-SVG-20010904/DTD/svg10.dtd">
<svg version="1.0" id="Layer_1" xmlns="http://www.w3.org/2000/svg" xmlns:xlink="http://www.w3.org/1999/xlink" x="0px" y="0px"
	 viewBox="0 0 288 288" enable-background="new 0 0 288 288" xml:space="preserve">
<circle opacity="0.5" fill="#020203" cx="145.2" cy="143.9" r="143.2"/>
<path fill="#67BB96" d="M65.6,109.6H43.4c0,0-0.1,0-0.1,0c-6.2,0-11.2,5-11.2,11.2v55.8c0,6.2,5,11.2,11.2,11.2s11.2-5,11.2-11.2
	v-11.2h11.2c15.4,0,27.9-12.5,27.9-27.9S80.9,109.6,65.6,109.6z"/>
<g>
	<circle fill="#AF69A8" cx="43.2" cy="120.7" r="11.2"/>
	<path fill="#AF69A8" d="M91.4,170.1c3.5,5,2.3,12-2.7,15.5c-5,3.5-12,2.3-15.5-2.7l-16.7-23.9c-3.5-5-2.3-12,2.7-15.5
		c5-3.5,12-2.3,15.5,2.7L91.4,170.1z"/>
</g>
<g>
	<path fill="#FFFFFF" d="M120.2,112.7v72.8h-19v-72.8H120.2z"/>
	<path fill="#FFFFFF" d="M200.9,149.1c0,21.3-15.7,37.3-36.8,37.3s-36.8-16-36.8-37.3c0-21.2,15.7-36.9,36.8-36.9
		S200.9,128,200.9,149.1z M145.6,149.2c0,11.8,8.6,21,18.7,21c10.2,0,18.3-9.1,18.3-21s-8.2-20.8-18.3-20.8
		C154.1,128.4,145.6,137.3,145.6,149.2z"/>
	<path fill="#FFFFFF" d="M263.2,112.7v15.7h-21.8v57.1h-19v-57.1h-21.6v-15.7H263.2z"/>
</g>
</svg>
