<?xml version="1.0" encoding="UTF-8"?>
<!DOCTYPE svg PUBLIC "-//W3C//DTD SVG 1.1//EN" "http://www.w3.org/Graphics/SVG/1.1/DTD/svg11.dtd">
<!-- Creator: CorelDRAW X7 -->
<svg xmlns="http://www.w3.org/2000/svg" xml:space="preserve" width="86.6986mm" height="86.6986mm" version="1.1" style="shape-rendering:geometricPrecision; text-rendering:geometricPrecision; image-rendering:optimizeQuality; fill-rule:evenodd; clip-rule:evenodd"
viewBox="0 0 8670 8670"
 xmlns:xlink="http://www.w3.org/1999/xlink">
 <defs>
  <style type="text/css">
   <![CDATA[
    .fil0 {fill:#24A958}
    .fil1 {fill:#3DBA45}
    .fil3 {fill:#D83D42}
    .fil2 {fill:white}
    .fil4 {fill:url(#id0)}
   ]]>
  </style>
  <linearGradient id="id0" gradientUnits="userSpaceOnUse" x1="4288.24" y1="5371.22" x2="4370.51" y2="3232.11">
   <stop offset="0" style="stop-opacity:1; stop-color:#FCE10E"/>
   <stop offset="1" style="stop-opacity:1; stop-color:#F8F125"/>
  </linearGradient>
 </defs>
 <g id="Слой_x0020_1">
  <metadata id="CorelCorpID_0Corel-Layer"/>
  <g id="_949878000">
   <g>
    <path class="fil0" d="M4224 5370c-125,-20 -222,-40 -328,-88 -48,-22 -90,-43 -134,-70 -32,-20 -94,-70 -119,-80 -97,131 -293,339 -408,485 -46,58 -92,111 -139,167 -168,198 -369,459 -524,674 -165,229 -323,522 -289,904 34,375 228,606 443,755 237,164 641,228 946,95 267,-116 465,-333 572,-625 125,-342 86,-717 63,-1095 -23,-374 -63,-751 -83,-1122z"/>
    <path class="fil0" d="M5094 5061c41,31 104,103 145,144l856 800c17,14 27,19 43,34 365,347 928,616 1456,352 157,-78 233,-146 324,-254 171,-201 287,-564 189,-895 -82,-280 -305,-493 -556,-599 -318,-134 -642,-133 -1014,-141 -378,-7 -771,-11 -1147,-8 -27,124 -57,215 -114,318 -27,50 -56,95 -86,135 -31,41 -76,81 -96,114z"/>
    <path class="fil0" d="M4333 5376c31,365 207,1499 320,1816 98,275 256,483 475,596 279,145 598,93 847,-51 217,-125 385,-356 360,-713 -38,-532 -479,-940 -814,-1329 -87,-101 -231,-246 -315,-347 -24,-27 -42,-42 -67,-69 -42,-46 -83,-98 -130,-141l-140 92c-180,106 -328,128 -536,146z"/>
   </g>
   <g>
    <path class="fil1" d="M4386 3228c161,10 297,48 425,111 186,92 209,151 309,225 52,-55 103,-97 156,-145l381 -384c27,-30 55,-49 82,-79 397,-447 925,-931 847,-1596 -84,-719 -770,-1125 -1449,-926 -324,95 -550,293 -687,544 -162,296 -144,722 -133,1093 11,389 48,771 69,1157z"/>
    <path class="fil1" d="M3258 4222c20,-186 68,-348 166,-497 15,-24 25,-41 44,-67 16,-22 32,-37 44,-61 -137,-153 -1122,-915 -1251,-996 -595,-373 -1251,-298 -1574,222 -146,236 -222,596 -102,902 103,263 309,435 597,532 485,165 1531,8 2076,-35z"/>
    <path class="fil1" d="M3591 3515c44,-29 85,-69 133,-102 46,-33 99,-60 158,-89 112,-54 244,-82 384,-97 -28,-329 -76,-672 -118,-1000 -77,-598 -81,-1287 -718,-1526 -506,-189 -1282,130 -1272,869 4,352 174,601 329,796 111,139 213,243 325,372l704 707c26,26 51,42 75,70z"/>
    <path class="fil1" d="M5189 3645c14,36 63,99 88,145 29,51 55,112 75,172 54,161 50,256 52,431 378,-20 1575,-132 1895,-234 281,-90 480,-250 592,-471 253,-498 -50,-1211 -708,-1242 -533,-25 -1012,396 -1408,715l-586 484z"/>
   </g>
   <path class="fil2" d="M5120 3564c15,28 42,59 69,81l586 -484c396,-319 875,-740 1408,-715 658,31 961,744 708,1242 -112,221 -311,381 -592,471 -320,102 -1517,214 -1895,234l-4 23 -10 78c376,-3 769,1 1147,8 372,8 696,7 1014,141 251,106 474,319 556,599 98,331 -18,694 -189,895 -91,108 -167,176 -324,254 -528,264 -1091,-5 -1456,-352 -16,-15 -26,-20 -43,-34l-856 -800c-41,-41 -104,-113 -145,-144 -31,17 -62,49 -85,77 47,43 88,95 130,141 25,27 43,42 67,69 84,101 228,246 315,347 335,389 776,797 814,1329 25,357 -143,588 -360,713 -249,144 -568,196 -847,51 -219,-113 -377,-321 -475,-596 -113,-317 -289,-1451 -320,-1816l-109 -6c20,371 60,748 83,1122 23,378 62,753 -63,1095 -107,292 -305,509 -572,625 -305,133 -709,69 -946,-95 -215,-149 -409,-380 -443,-755 -34,-382 124,-675 289,-904 155,-215 356,-476 524,-674 47,-56 93,-109 139,-167 115,-146 311,-354 408,-485 -11,-17 0,-3 -17,-21 -7,-7 -11,-10 -19,-16 -16,-13 -22,-20 -38,-32l-184 194c-114,126 -424,440 -564,558 -26,21 -40,41 -65,62l-196 170c-160,146 -379,327 -712,289 -509,-57 -924,-661 -738,-1170 183,-502 807,-613 1283,-704 287,-55 574,-83 862,-130l3 -110c-545,43 -1591,200 -2076,35 -288,-97 -494,-269 -597,-532 -120,-306 -44,-666 102,-902 323,-520 979,-595 1574,-222 129,81 1114,843 1251,996 16,-13 29,-24 44,-38 7,-7 16,-14 21,-21 16,-19 6,-2 14,-23 -24,-28 -49,-44 -75,-70l-704 -707c-112,-129 -214,-233 -325,-372 -155,-195 -325,-444 -329,-796 -10,-739 766,-1058 1272,-869 637,239 641,928 718,1526 42,328 90,671 118,1000l120 1c-21,-386 -58,-768 -69,-1157 -11,-371 -29,-797 133,-1093 137,-251 363,-449 687,-544 679,-199 1365,207 1449,926 78,665 -450,1149 -847,1596 -27,30 -55,49 -82,79l-381 384c-53,48 -104,90 -156,145zm-987 -2809c-2,-2 -121,-137 -181,-185 -147,-121 -292,-210 -487,-252 -119,-26 -234,-56 -369,-56 -147,0 -426,75 -535,119 -150,59 -282,147 -401,253 -101,89 -219,256 -273,382 -55,128 -116,390 -116,537 0,173 51,333 85,476 -91,-7 -165,-42 -272,-42 -178,0 -249,7 -425,51 -137,34 -246,67 -358,142 -135,91 -256,187 -353,319 -78,104 -139,198 -188,321 -36,89 -51,154 -75,257 -44,197 -65,362 -15,561 19,73 32,147 53,210 41,121 196,382 307,466 99,76 193,154 303,216 32,17 153,70 190,73 -19,29 -23,36 -49,62 -60,61 -105,132 -150,206 -63,105 -90,219 -120,356 -47,212 -13,406 49,606 107,347 465,739 827,830 135,33 246,64 412,64 -63,271 -94,310 -94,604 0,165 72,405 131,548l60 111c22,38 44,64 69,100 110,159 198,226 350,339 145,109 308,157 488,200 191,45 350,58 545,13 223,-51 383,-107 559,-240 167,-125 261,-239 376,-414l72 -131c15,-32 1,-24 26,-42 14,50 114,133 157,166 33,26 58,44 93,68 107,74 203,125 337,157 251,60 364,69 613,10 81,-19 158,-37 231,-66 166,-67 325,-176 437,-303 70,-80 131,-165 177,-264 43,-91 105,-359 105,-490 0,-104 -23,-204 -43,-289 300,70 436,103 730,42 151,-32 300,-71 430,-149 218,-132 300,-221 447,-419 147,-197 276,-640 232,-905 -52,-323 -146,-558 -375,-789 -46,-46 -285,-229 -342,-244 1,-1 4,-5 4,-4l49 -36c206,-153 381,-362 445,-618 73,-296 86,-358 22,-661 -62,-296 -214,-553 -464,-725 -32,-22 -52,-38 -85,-60 -102,-68 -198,-99 -323,-127 -162,-37 -203,-46 -370,-46 -87,0 -152,18 -221,34 10,-43 26,-83 39,-130 14,-48 21,-87 34,-137 62,-243 56,-437 -4,-678 -58,-233 -94,-332 -220,-518 -61,-88 -126,-182 -211,-248l-158 -123c-72,-54 -150,-100 -237,-136 -244,-99 -601,-166 -873,-101 -68,16 -145,31 -214,49 -137,37 -256,86 -363,155 -75,47 -156,101 -221,161 -71,67 -136,128 -191,209 -36,54 -73,101 -108,155z"/>
   <path class="fil3" d="M3569 5063c-20,-32 -71,-84 -103,-125 -31,-40 -63,-91 -88,-141 -52,-104 -97,-216 -113,-348l-10 -117c-288,47 -575,75 -862,130 -476,91 -1100,202 -1283,704 -186,509 229,1113 738,1170 333,38 552,-143 712,-289l196 -170c25,-21 39,-41 65,-62 140,-118 450,-432 564,-558l184 -194z"/>
   <path class="fil4" d="M3591 3515c-8,21 2,4 -14,23 -5,7 -14,14 -21,21 -15,14 -28,25 -44,38 -12,24 -28,39 -44,61 -19,26 -29,43 -44,67 -98,149 -146,311 -166,497l-3 110 10 117c16,132 61,244 113,348 25,50 57,101 88,141 32,41 83,93 103,125 16,12 22,19 38,32 8,6 12,9 19,16 17,18 6,4 17,21 25,10 87,60 119,80 44,27 86,48 134,70 106,48 203,68 328,88l109 6c208,-18 356,-40 536,-146l140 -92c23,-28 54,-60 85,-77 20,-33 65,-73 96,-114 30,-40 59,-85 86,-135 57,-103 87,-194 114,-318l10 -78 4 -23c-2,-175 2,-270 -52,-431 -20,-60 -46,-121 -75,-172 -25,-46 -74,-109 -88,-145 -27,-22 -54,-53 -69,-81 -100,-74 -123,-133 -309,-225 -128,-63 -264,-101 -425,-111l-120 -1c-140,15 -272,43 -384,97 -59,29 -112,56 -158,89 -48,33 -89,73 -133,102z"/>
  </g>
 </g>
</svg>
