<?xml version="1.0" encoding="iso-8859-1"?><!-- Generator: Adobe Illustrator 16.0.0, SVG Export Plug-In . SVG Version: 6.00 Build 0) --><!DOCTYPE svg PUBLIC "-//W3C//DTD SVG 1.1//EN" "http://www.w3.org/Graphics/SVG/1.1/DTD/svg11.dtd"><svg version="1.1" id="Layer_1" xmlns="http://www.w3.org/2000/svg" xmlns:xlink="http://www.w3.org/1999/xlink" x="0px" y="0px" width="412.912px" height="401.703px" viewBox="85.04 232.402 412.912 401.703" style="enable-background:new 85.04 232.402 412.912 401.703;" xml:space="preserve"><path style="fill:#333333;" d="M391.631,424.861l-4.477-1.119v-4.477c0-40.281-32.449-72.73-71.611-72.73	c-29.094,0-55.947,17.904-67.138,44.758l-3.355,7.834l-5.595-5.596c-5.597-5.594-13.429-8.951-21.262-8.951	c-16.784,0-30.211,13.428-30.211,30.211l1.118,6.715l-4.476,1.117c-21.26,6.715-35.807,25.736-35.807,46.996	c0,26.854,22.38,49.234,49.234,49.234h185.745c25.734,0,48.113-21.262,48.113-48.115	C430.795,448.359,415.129,429.337,391.631,424.861z"/><path style="fill:#333333;" d="M394.989,232.402H189.102c-58.185,0-104.062,46.996-104.062,104.062v193.578	c0,58.186,46.995,104.062,104.062,104.062H393.87c58.187,0,104.062-46.996,104.062-104.062V337.583	C499.05,279.398,452.055,232.402,394.989,232.402z M383.799,531.162H198.054c-33.568,0-60.424-26.855-60.424-60.424	c0-25.734,15.666-46.996,39.164-55.947c1.118-22.379,19.021-40.281,41.4-40.281c7.833,0,15.666,2.238,22.379,6.713	c14.547-27.973,42.521-44.758,73.852-44.758c44.758,0,81.684,35.809,82.802,79.447c25.736,6.713,44.759,30.211,44.759,57.066	C441.985,504.306,416.249,531.162,383.799,531.162z"/><path style="fill:#E4E4E4;" d="M398.345,414.791c-2.237-44.758-38.044-79.445-82.802-79.445c-31.33,0-60.424,17.904-73.852,44.76	c-6.714-4.477-14.546-6.715-22.379-6.715c-22.379,0-40.282,17.902-41.401,40.281c-23.498,8.951-39.163,31.33-39.163,55.947	c0,33.568,26.855,60.424,60.424,60.424h185.746c32.448,0,59.304-26.854,59.304-59.305	C441.985,445.001,424.082,421.505,398.345,414.791z M383.799,519.972H198.054c-26.854,0-49.233-22.379-49.233-49.232	c0-22.379,14.546-40.283,35.806-46.996l4.476-1.119l-1.118-6.713c0-16.785,13.427-30.213,30.211-30.213	c7.833,0,15.666,3.357,21.262,8.953l5.595,5.594l3.355-7.832c11.189-26.855,36.925-44.758,67.138-44.758	c40.281,0,71.611,32.449,71.611,72.73v4.477l4.477,1.119c23.498,3.355,39.164,23.498,39.164,46.996	C430.795,498.712,409.534,519.972,383.799,519.972z"/></svg>