<svg width="2500" height="1885" viewBox="0 0 256 193" xmlns="http://www.w3.org/2000/svg" preserveAspectRatio="xMidYMid"><path d="M69.742 31.637C59.59 16.66 43.753 5.827 25.352 2.25l-.655-.153c-1.094-.179-2.188-.376-3.291-.51l-1.139-.162c-.986-.099-2-.17-2.995-.278l-1.193-.09A73.828 73.828 0 0 0 12.053.94h-.072C6.179.94 1.345 5.057.224 10.5.072 11.271 0 12.06 0 12.903c0 .816.072 1.624.224 2.395 1.121 5.48 5.955 9.595 11.757 9.595 25.244 0 45.771 20.545 45.771 45.807v26.204c0 6.286 4.843 11.362 11.003 11.873l.987.108c.879 0 1.74-.108 2.547-.287 5.39-1.148 9.443-5.955 9.443-11.694V70.7c0-14.5-4.421-27.952-11.954-39.108l-.036.045" fill="#1D4C5D"/><path d="M127.494 115.61c-10.16-14.976-25.997-25.8-44.39-29.396l-.664-.134c-1.085-.18-2.17-.35-3.291-.511l-1.121-.153c-.995-.125-1.99-.197-3.004-.269l-1.166-.107a86.332 86.332 0 0 0-4.062-.117h-.063a11.989 11.989 0 0 0-11.739 9.542 11.794 11.794 0 0 0-.242 2.421c0 .825.08 1.623.242 2.412 1.121 5.47 5.955 9.569 11.739 9.569 25.244 0 45.78 20.563 45.78 45.816v26.203c0 6.287 4.834 11.372 10.994 11.892l.987.09c.87 0 1.73-.108 2.565-.279 5.39-1.174 9.416-5.972 9.416-11.703v-26.203c0-14.5-4.394-27.97-11.945-39.09l-.036.018" fill="#207D9D"/><path d="M127.494 115.61c10.17-14.976 26.024-25.8 44.399-29.396l.664-.134c1.067-.18 2.17-.35 3.273-.511l1.148-.153c.995-.125 1.99-.197 3.004-.269l1.166-.107a86.652 86.652 0 0 1 4.053-.117h.072c5.802 0 10.627 4.098 11.739 9.542.143.77.242 1.578.242 2.421 0 .825-.099 1.623-.242 2.412a11.963 11.963 0 0 1-11.74 9.569c-25.252 0-45.797 20.563-45.797 45.816v26.203c0 6.287-4.834 11.372-10.986 11.892l-.995.09h-.01c-.869 0-1.712-.108-2.519-.279-5.399-1.174-9.46-5.972-9.46-11.703v-26.203c0-14.5 4.42-27.97 11.971-39.09l.018.018" fill="#51A5CD"/><path d="M69.733 31.637C79.903 16.66 95.739 5.827 114.15 2.25l.646-.153c1.085-.179 2.17-.376 3.282-.51l1.148-.162c.977-.099 1.99-.17 2.986-.278l1.184-.09A75.23 75.23 0 0 1 127.43.94h.063c5.811 0 10.645 4.117 11.748 9.56.161.771.233 1.56.233 2.403 0 .816-.072 1.624-.233 2.395a11.973 11.973 0 0 1-11.748 9.595c-25.226 0-45.762 20.545-45.762 45.807v26.204c0 6.286-4.852 11.362-11.004 11.873l-.995.108c-.87 0-1.722-.108-2.565-.27-5.372-1.165-9.416-5.972-9.416-11.711V70.7c0-14.5 4.403-27.952 11.954-39.09l.027.027" fill="#1C5470"/><path d="M185.273 31.637c-10.16-14.976-25.998-25.81-44.381-29.387l-.655-.153c-1.112-.179-2.188-.358-3.291-.51l-1.157-.162c-.986-.099-1.982-.17-2.977-.278l-1.166-.09a76.785 76.785 0 0 0-4.062-.117h-.09c-5.784 0-10.618 4.117-11.73 9.56-.152.771-.233 1.56-.233 2.403 0 .816.08 1.624.233 2.395 1.112 5.48 5.946 9.595 11.73 9.595 25.253 0 45.798 20.545 45.798 45.807v26.204c0 6.286 4.834 11.362 10.994 11.891l.987.09c.888 0 1.74-.108 2.556-.287 5.398-1.148 9.434-5.955 9.434-11.694V70.7c0-14.5-4.395-27.952-11.972-39.09l-.018.027" fill="#247EA2"/><path d="M185.273 31.637C195.45 16.66 211.288 5.827 229.672 2.25l.664-.153c1.094-.179 2.188-.376 3.29-.51l1.149-.162c.986-.099 1.981-.17 2.995-.278l1.175-.09a75.026 75.026 0 0 1 4.044-.117h.072c5.775 0 10.626 4.117 11.73 9.56.17.771.25 1.56.25 2.403 0 .816-.08 1.624-.25 2.395-1.104 5.48-5.955 9.595-11.73 9.595-25.244 0-45.79 20.545-45.79 45.807v26.204c0 6.286-4.842 11.362-10.994 11.873l-1.004.108c-.87 0-1.713-.108-2.53-.27-5.407-1.165-9.451-5.972-9.451-11.711V70.7c0-14.5 4.412-27.952 11.963-39.09l.018.027" fill="#3298B5"/><path d="M185.219 108.885c-.17 0-.35-.01-.52-.018h.018c.17.009.34.018.502.018m.108 0h.027-.027m.035 0a12.29 12.29 0 0 0 2.467-.287 11.862 11.862 0 0 0 3.587-1.4 11.958 11.958 0 0 1-6.054 1.687" fill="#3398B5"/><path d="M184.699 108.867a12.419 12.419 0 0 1-1.641-.188c.538.09 1.094.16 1.659.188h-.018m-11.21-9.802c-.134-.7-.197-1.426-.197-2.161V97.11c0 .01.009.027.009.036V97.388c0 .018 0 .027.009.045V97.514c.018.44.072.87.134 1.3 0 .018.01.036.01.063 0 0 0 .009.008.009v.054s.01.009.01.018c0 .017 0 .026.008.044v.036c.01.01.01.018.01.027" fill="#007FA5"/><path d="M185.273 108.885l1.004-.108a11.98 11.98 0 0 0 8.905-5.138 12.003 12.003 0 0 1-3.766 3.56 11.862 11.862 0 0 1-3.587 1.399c-.79.17-1.615.278-2.467.287h-.089m-11.784-9.82c0-.009 0-.018-.009-.027.01.01.01.018.01.027m-.01-.063c-.009-.018-.009-.027-.009-.044 0 .017 0 .026.01.044m-.019-.062v-.054.054m-.009-.063c0-.027-.009-.045-.009-.063 0 .018.01.036.01.063M173.31 97.504v-.053.054m0-.072c-.01-.018-.01-.027-.01-.045 0 .018 0 .027.01.045m-.01-.072v-.045.045m0-.071v-.036.036m0-.072v-.036.036m0-.072c0-.009-.008-.027-.008-.036 0 .01.009.027.009.036m-.009-.072v-.036.036m0-.08v-.018.018" fill="#00698B"/><path d="M185.273 108.885h-.054a14.219 14.219 0 0 1-2.161-.206 11.992 11.992 0 0 1-9.515-9.38c-.018-.072-.036-.153-.054-.234 0-.009 0-.018-.009-.027v-.036c-.009-.018-.009-.027-.009-.044 0-.01-.009-.018-.009-.018v-.054c-.009 0-.009-.01-.009-.01 0-.026-.009-.044-.009-.062-.062-.43-.116-.86-.134-1.3v-.081c-.01-.018-.01-.027-.01-.045v-.242c0-.009-.008-.027-.008-.036V85.972c.86-.125 1.686-.278 2.538-.403l1.148-.153c.995-.125 1.99-.197 3.004-.269l1.166-.107a86.652 86.652 0 0 1 4.053-.117h.072l1.417.135.493.035-.493-.035.618.053.26.054 1.65.44.297.09c.502.197.995.43 1.47.69l.278.134-.278-.134c.135.08.278.161.413.242l-.135-.09.135.09c.484.287.941.6 1.372.942l.323.295 1.03.996.315.35 1.067 1.434a12.45 12.45 0 0 1 1.507 3.82c.152.79.242 1.615.242 2.44s-.09 1.623-.242 2.394a11.906 11.906 0 0 1-1.83 4.34 11.98 11.98 0 0 1-8.905 5.14l-1.004.107m8.806-20.079l-.933-.906.933.906" fill="#007A97"/><path d="M69.733 108.885H69.732m-.053 0h-.027.027M69.922 108.875c.125 0 .25 0 .376-.008h.018c-.135.009-.26.009-.395.009m-10.913-6.627a11.832 11.832 0 0 1-1.014-2.95 12.38 12.38 0 0 1-.242-2.332V96.994c.009.018.009.035.009.044v.314c0 .018.009.036.009.054v.081c0 .09.009.18.018.269v.018c.036.51.108 1.022.206 1.524.108.53.251 1.04.422 1.534.17.484.367.96.592 1.417m-1.256-5.282v-.063.063" fill="#217C9C"/><path d="M69.742 108.885l.152-.018h.404c-.126.009-.251.009-.377.009-.054.009-.116.009-.18.009M57.77 97.424v-.018.018m-.009-.072v-.018.018m0-.071v-.027.027m0-.072v-.027.027m0-.063v-.036.036m0-.072v-.036.036m-.009-.08v-.018.018" fill="#1C3C4C"/><path d="M70.316 108.867H69.894l.834-.09a12.025 12.025 0 0 0 9.201-5.569c-2.027 3.255-5.56 5.47-9.613 5.659m-11.9-8.035a12.05 12.05 0 0 1-.422-1.534 12.453 12.453 0 0 1-.206-1.524c.072 1.067.287 2.09.628 3.058m-.628-3.067v-.01.01" fill="#075C79"/><path d="M69.733 108.885h-.081a12.764 12.764 0 0 1-1.865-.162c-3.856-.627-7.085-3.094-8.78-6.474a13.107 13.107 0 0 1-.591-1.417c-.341-.969-.556-1.991-.628-3.058v-.018a2.71 2.71 0 0 1-.018-.27v-.08c0-.018-.009-.036-.009-.054V97.038c0-.009 0-.026-.009-.044v-.018V96.814l.242-2.35a11.989 11.989 0 0 1 11.739-9.54h.063c1.38 0 2.717.053 4.062.116l1.166.107c1.013.072 2.009.144 3.004.27l1.121.152c.879.125 1.722.278 2.583.403v10.932l-.216 2.242-.035.134v.018a12.1 12.1 0 0 1-1.552 3.91 12.025 12.025 0 0 1-9.2 5.57l-.835.089-.152.018h-.01" fill="#1E445B"/><path d="M243.06 24.893c-5.801 0-10.635-4.116-11.747-9.595a11.721 11.721 0 0 1-.233-2.395c0-.843.072-1.632.233-2.403A11.992 11.992 0 0 1 243.061.94c5.775 0 10.626 4.117 11.73 9.56.17.771.25 1.56.25 2.403 0 .816-.08 1.624-.25 2.395-1.104 5.48-5.955 9.595-11.73 9.595" fill="#007A97"/><path d="M127.494 24.893c-5.784 0-10.618-4.116-11.73-9.595a12.388 12.388 0 0 1-.233-2.395c0-.843.08-1.632.233-2.403 1.112-5.443 5.946-9.56 11.73-9.56 5.811 0 10.645 4.117 11.748 9.56.161.771.233 1.56.233 2.403 0 .816-.072 1.624-.233 2.395a11.973 11.973 0 0 1-11.748 9.595" fill="#1E455E"/><path d="M127.548 192.867a12.972 12.972 0 0 0 2.51-.278 12.025 12.025 0 0 0 9.004-8.573v-.018c0-.009.01-.018.01-.027.214-.825.349-1.668.385-2.546.009-.027.009-.045.009-.063v-.269c0-.01.009-.018.009-.036V180.886c0 .843-.072 1.633-.233 2.413-1.094 5.452-5.901 9.541-11.694 9.568m-.189 0h-.009.01m-.045 0a11.964 11.964 0 0 1-10.134-5.891 12.054 12.054 0 0 0 10.134 5.891" fill="#52A5CD"/><path d="M127.494 192.867l.995-.09c5.094-.43 9.282-3.99 10.573-8.76a12.025 12.025 0 0 1-9.003 8.572c-.816.17-1.66.27-2.511.278h-.054m11.568-8.869c0-.009.01-.018.01-.027 0 .01-.01.018-.01.027m.404-2.636v-.01.01m0-.063v-.018.018m0-.063v-.027.027m0-.072v-.026.026m0-.071c0-.01.009-.018.009-.036 0 .018-.01.027-.01.036m.01-.063v-.045.045m0-.072v-.072.072" fill="#006D93"/><path d="M127.494 192.867H127.315a12.054 12.054 0 0 1-10.134-5.892 11.867 11.867 0 0 1-1.417-3.676c-.152-.78-.233-1.57-.233-2.413 0-.842.08-1.632.233-2.403a11.97 11.97 0 0 1 11.73-9.56c5.811 0 10.645 4.099 11.748 9.56.161.771.233 1.56.233 2.403V181.057c0 .018-.01.027-.01.036v.269c0 .018 0 .036-.008.063-.036.878-.17 1.721-.386 2.546 0 .01-.009.018-.009.027v.018c-1.291 4.771-5.479 8.331-10.573 8.762l-.995.09" fill="#0086B8"/><path d="M11.98 24.893c-5.801 0-10.635-4.116-11.756-9.595A12.388 12.388 0 0 1 0 12.903c0-.843.072-1.632.224-2.403C1.345 5.057 6.18.94 11.981.94c5.784 0 10.627 4.117 11.739 9.56.143.771.242 1.56.242 2.403 0 .816-.099 1.624-.242 2.395-1.112 5.48-5.955 9.595-11.74 9.595" fill="#1D3C4B"/></svg>