<?xml version="1.0" standalone="no"?>
<!DOCTYPE svg PUBLIC "-//W3C//DTD SVG 20010904//EN"
 "http://www.w3.org/TR/2001/REC-SVG-20010904/DTD/svg10.dtd">
<svg version="1.0" xmlns="http://www.w3.org/2000/svg"
 width="256.000000pt" height="256.000000pt" viewBox="0 0 256.000000 256.000000"
 preserveAspectRatio="xMidYMid meet">
<metadata>
Created by potrace 1.10, written by Peter Selinger 2001-2011
</metadata>
<g transform="translate(0.000000,256.000000) scale(0.100000,-0.100000)"
fill="#8b9f44" stroke="none">
<path d="M1045 2543 c-172 -31 -372 -116 -517 -220 -91 -66 -236 -212 -301
-304 -150 -213 -227 -462 -227 -739 0 -364 127 -668 383 -917 110 -107 191
-165 312 -226 190 -96 365 -137 585 -137 220 0 395 41 585 137 121 61 202 119
312 226 256 249 383 553 383 917 0 283 -78 531 -236 751 -66 91 -213 237 -304
301 -141 99 -342 182 -515 212 -112 20 -350 19 -460 -1z m370 -578 c198 -3
390 -11 427 -17 l66 -11 7 -146 c4 -80 5 -267 2 -415 -4 -232 -7 -271 -21
-282 -9 -6 -64 -17 -124 -23 -140 -16 -175 -26 -216 -62 -45 -39 -63 -88 -76
-201 -20 -181 -19 -177 -48 -192 -51 -26 -158 -35 -398 -36 -326 0 -449 23
-476 88 -13 31 -15 160 -9 747 2 220 7 420 11 444 18 99 81 122 325 116 94 -2
332 -6 530 -10z m481 -972 c21 -25 26 -80 11 -115 -21 -49 -164 -226 -197
-243 -35 -18 -121 -20 -138 -3 -16 16 -15 99 2 171 17 68 63 154 98 180 47 35
199 42 224 10z"/>
</g>
</svg>
