<svg width="1000" height="1000" xmlns="http://www.w3.org/2000/svg" style="vector-effect: non-scaling-stroke;" stroke="null">

 <g stroke="null">
  <title stroke="null">background</title>
  <rect stroke="null" fill="none" id="canvas_background" height="402" width="582" y="-1" x="-1"/>
 </g>
 <g stroke="null">
  <title stroke="null">Layer 1</title>
  <g stroke="null" id="svgg">
   <path fill-rule="evenodd" fill="#ffffff" d="m353.999989,141.189996l0,42.507499l19.249999,0.5975c254.457492,7.91 462.112485,216.452493 471.439985,473.454985l0.625,17.249999l42.479999,0l42.482499,0l-0.695,-17.249999c-12.3975,-307.78499 -251.717492,-547.802483 -556.789982,-558.412482l-18.792499,-0.6525l0,42.504999m0,176.154994l0,42.344999l14.785,0.605c164.369995,6.7475 299.269991,146.932495 300.199991,311.95499l0.015,2.75l42.154999,0l42.152499,0l-0.6025,-18.249999c-6.855,-207.119993 -186.239994,-381.384988 -392.954988,-381.739988l-5.75,-0.01l0,42.344999m-27.999999,124.757496c-158.444995,17.814999 -252.902492,189.867494 -183.584994,334.397489c84.117497,175.389994 335.374989,176.582494 421.107487,2c81.714997,-166.404995 -52.962498,-357.147489 -237.522493,-336.397489m110.767497,101.302497c58.947498,15.939999 67.282498,96.427497 12.8675,124.227496c-50.469998,25.787499 -108.174997,-20.052499 -95.094997,-75.544998c8.365,-35.477499 46.834999,-58.254998 82.227497,-48.682498" id="path0"/>
   <path fill-rule="evenodd" fill="#52a6d6" d="m0,499.999984l0,499.999984l499.999984,0l499.999984,0l0,-499.999984l0,-499.999984l-499.999984,0l-499.999984,0l0,499.999984m407.542487,-398.499987c290.204991,27.417499 510.179984,261.809992 522.039984,556.249983l0.695,17.249999l-42.482499,0l-42.479999,0l-0.625,-17.249999c-9.3275,-257.002492 -216.982493,-465.544985 -471.439985,-473.454985l-19.249999,-0.5975l0,-42.507499l0,-42.504999l18.792499,0.6525c10.3375,0.36 25.974999,1.3325 34.749999,2.1625m-27.542499,174.527495c203.219994,14.1225 366.077488,180.482494 372.704988,380.722488l0.6025,18.249999l-42.152499,0l-42.154999,0l-0.015,-2.75c-0.93,-165.022495 -135.829996,-305.20749 -300.199991,-311.95499l-14.785,-0.605l0,-42.344999l0,-42.344999l5.75,0.01c3.1625,0.005 12.275,0.4625 20.249999,1.0175m-0.21,166.029995c160.409995,17.472499 255.162492,190.982494 183.732494,336.442489c-85.732497,174.582495 -336.989989,173.389995 -421.107487,-2c-79.457498,-165.674995 54.467498,-354.364989 237.374993,-334.442489m28.972499,99.907497c-64.199998,11.725 -76.614998,96.829997 -18.412499,126.212496c49.842498,25.159999 107.027497,-21.137499 94.092497,-76.177498c-7.7225,-32.869999 -42.774999,-56.044998 -75.679998,-50.034998" id="path1"/>
  </g>
 </g>
</svg>