
<svg xmlns="http://www.w3.org/2000/svg" version="1.1" xmlns:xlink="http://www.w3.org/1999/xlink" preserveAspectRatio="none" x="0px" y="0px" width="200px" height="200px" viewBox="0 0 200 200">
<defs>
<g id="Layer0_0_FILL">
<path fill="#C4161C" stroke="none" d="
M 200 0
L 0 0 0 200 200 200 200 0
M 164.25 72.3
Q 165.15 73.35 164.95 74.65
L 159.45 127.05 159.9 132.9
Q 160.05 133.95 159.45 134.75
L 159.45 137.1
Q 159.45 138.75 158.15 139.65
L 157.7 143.85
Q 157.6 145.15 156.55 145.95 155.5 146.9 154.2 146.65
L 129.45 144.1 130.15 138.4 131.45 138.5 131.45 134.4 133.9 134.4
Q 135.75 134.4 136.9 133.25 138.2 131.95 138.2 130.2 138.2 128.35 136.9 127.2 135.75 125.9 133.9 125.9
L 122.1 125.9
Q 120.35 125.9 119.05 127.2 117.75 128.35 117.75 130.2 117.75 131.95 119.05 133.25 120.35 134.4 122.1 134.4
L 124.55 134.4 124.55 140.25 123 140.25 122.65 143.4 98.25 140.85 77 142.45 76.8 140.25 76.1 140.25 76.1 134.4 78.55 134.4
Q 80.3 134.4 81.6 133.25 82.85 131.95 82.85 130.2 82.85 128.35 81.6 127.2 80.3 125.9 78.55 125.9
L 66.75 125.9
Q 64.9 125.9 63.7 127.2 62.45 128.35 62.45 130.2 62.45 131.95 63.7 133.25 64.9 134.4 66.75 134.4
L 69.2 134.4 69.2 137.2 69.65 137.2 70.15 143.05 43.65 145.05
Q 42.35 145.15 41.3 144.35 40.35 143.4 40.25 142.1
L 40 138.85
Q 39.45 138.05 39.45 137.1
L 39.45 134.05
Q 38.15 133 38.4 131.4
L 38.95 125.2 35 72.65
Q 34.9 71.35 35.8 70.3 36.65 69.4 37.9 69.25
L 39.45 69.15 39.45 67.4
Q 39.45 66.45 40.25 65.4
L 40.15 64
Q 39.9 62.85 41.3 62.6
L 45.25 62.25 45.25 59.25
Q 45.25 57.95 46.55 57.95
L 51.8 57.95 52.15 54.55
Q 52.4 53.15 53.7 53.4
L 82.85 56.45
Q 84.25 56.65 84.05 57.85
L 83.55 62.85 96.65 64.25 103.05 64.25 151.3 60.5
Q 152.55 60.4 153.6 61.35 154.55 62.15 154.65 63.45
L 154.65 64.25 156.3 64.25
Q 157.6 64.25 158.5 65.2 159.45 66.1 159.45 67.4
L 159.45 70.9 162.15 71.15
Q 163.4 71.35 164.25 72.3
M 111.1 88.4
Q 111.1 94.15 106.2 97.5 110.05 99.25 112.4 102.65 114.75 106.3 114.75 110.6
L 114.75 112.6 126.75 112.6 126.75 107.2
Q 126.75 102.8 124.45 99.25 122.1 95.75 118.25 94 123.15 90.65 123.15 85.05 123.15 80.6 120 77.3 116.85 74.15 112.4 74.15 107.25 74.15 104 78.4 107.15 79.45 109.15 82.25 111.1 84.9 111.1 88.4
M 91.75 79.65
Q 87.3 79.65 84.15 82.8 81 85.95 81 90.4 81 96.35 85.9 99.5 82.05 101.25 79.7 104.65 77.4 108.25 77.4 112.6
L 77.4 118.05 106.1 118.05 106.1 112.6
Q 106.1 108.25 103.75 104.65 101.45 101.25 97.55 99.5 102.5 96.1 102.5 90.4 102.5 85.95 99.3 82.8 96.15 79.65 91.75 79.65 Z"/>

<path fill="#FFFFFF" stroke="none" d="
M 164.95 74.65
Q 165.15 73.35 164.25 72.3 163.4 71.35 162.15 71.15
L 159.45 70.9 159.45 67.4
Q 159.45 66.1 158.5 65.2 157.6 64.25 156.3 64.25
L 154.65 64.25 154.65 63.45
Q 154.55 62.15 153.6 61.35 152.55 60.4 151.3 60.5
L 103.05 64.25 96.65 64.25 83.55 62.85 84.05 57.85
Q 84.25 56.65 82.85 56.45
L 53.7 53.4
Q 52.4 53.15 52.15 54.55
L 51.8 57.95 46.55 57.95
Q 45.25 57.95 45.25 59.25
L 45.25 62.25 41.3 62.6
Q 39.9 62.85 40.15 64
L 40.25 65.4
Q 39.45 66.45 39.45 67.4
L 39.45 69.15 37.9 69.25
Q 36.65 69.4 35.8 70.3 34.9 71.35 35 72.65
L 38.95 125.2 38.4 131.4
Q 38.15 133 39.45 134.05
L 39.45 137.1
Q 39.45 138.05 40 138.85
L 40.25 142.1
Q 40.35 143.4 41.3 144.35 42.35 145.15 43.65 145.05
L 70.15 143.05 69.65 137.2 69.2 137.2 69.2 134.4 66.75 134.4
Q 64.9 134.4 63.7 133.25 62.45 131.95 62.45 130.2 62.45 128.35 63.7 127.2 64.9 125.9 66.75 125.9
L 78.55 125.9
Q 80.3 125.9 81.6 127.2 82.85 128.35 82.85 130.2 82.85 131.95 81.6 133.25 80.3 134.4 78.55 134.4
L 76.1 134.4 76.1 140.25 76.8 140.25 77 142.45 98.25 140.85 122.65 143.4 123 140.25 124.55 140.25 124.55 134.4 122.1 134.4
Q 120.35 134.4 119.05 133.25 117.75 131.95 117.75 130.2 117.75 128.35 119.05 127.2 120.35 125.9 122.1 125.9
L 133.9 125.9
Q 135.75 125.9 136.9 127.2 138.2 128.35 138.2 130.2 138.2 131.95 136.9 133.25 135.75 134.4 133.9 134.4
L 131.45 134.4 131.45 138.5 130.15 138.4 129.45 144.1 154.2 146.65
Q 155.5 146.9 156.55 145.95 157.6 145.15 157.7 143.85
L 158.15 139.65
Q 159.45 138.75 159.45 137.1
L 159.45 134.75
Q 160.05 133.95 159.9 132.9
L 159.45 127.05 164.95 74.65
M 84.15 82.8
Q 87.3 79.65 91.75 79.65 96.15 79.65 99.3 82.8 102.5 85.95 102.5 90.4 102.5 96.1 97.55 99.5 101.45 101.25 103.75 104.65 106.1 108.25 106.1 112.6
L 106.1 118.05 77.4 118.05 77.4 112.6
Q 77.4 108.25 79.7 104.65 82.05 101.25 85.9 99.5 81 96.35 81 90.4 81 85.95 84.15 82.8
M 106.2 97.5
Q 111.1 94.15 111.1 88.4 111.1 84.9 109.15 82.25 107.15 79.45 104 78.4 107.25 74.15 112.4 74.15 116.85 74.15 120 77.3 123.15 80.6 123.15 85.05 123.15 90.65 118.25 94 122.1 95.75 124.45 99.25 126.75 102.8 126.75 107.2
L 126.75 112.6 114.75 112.6 114.75 110.6
Q 114.75 106.3 112.4 102.65 110.05 99.25 106.2 97.5 Z"/>
</g>
</defs>

<g transform="matrix( 1, 0, 0, 1, 0,0) ">
<use xlink:href="#Layer0_0_FILL"/>
</g>
</svg>
