<svg xmlns="http://www.w3.org/2000/svg" viewBox="0 0 48 48" version="1.1">
	<path style=" fill:#D0D0D0;" d="M 32.164063 6.367188 C 31.523438 6.050781 31 6.371094 31 7.089844 L 31 35.539063 L 42.675781 41.375 C 43.960938 42.015625 45 41.566406 45 40.371094 L 45 12.972656 C 45 12.859375 44.933594 12.753906 44.832031 12.703125 Z "></path>
	<path style=" fill:#A1A1A1;" d="M 17 28.535156 L 30.320313 6.894531 C 30.695313 6.285156 31.523438 6.050781 32.164063 6.367188 L 44.847656 12.710938 C 44.929688 12.753906 44.957031 12.855469 44.910156 12.933594 L 31 35.535156 Z "></path>
	<path style=" fill:#808080;" d="M 4.9375 6.757813 C 3.871094 6.222656 3.511719 6.617188 4.136719 7.632813 L 17 28.535156 L 31 35.535156 L 17.03125 12.835938 C 17.011719 12.804688 16.980469 12.777344 16.949219 12.761719 Z "></path>
	<path style=" fill:#575757;" d="M 17 40.371094 C 17 41.5625 16.128906 42.101563 15.0625 41.566406 L 4.164063 36.117188 C 3.523438 35.800781 3 34.953125 3 34.238281 L 3 7.519531 C 3 6.566406 3.699219 6.136719 4.550781 6.5625 L 16.925781 12.75 C 16.972656 12.773438 17 12.820313 17 12.871094 Z "></path>
</svg>