<?xml version="1.0" encoding="UTF-8" standalone="no"?>
<!DOCTYPE svg PUBLIC "-//W3C//DTD SVG 1.1//EN" "http://www.w3.org/Graphics/SVG/1.1/DTD/svg11.dtd">
<svg
    xmlns:svg="http://www.w3.org/2000/svg"
    xmlns="http://www.w3.org/2000/svg"
    version="1.1"
    width="404.00101"
    height="72.650002"
    viewBox="0 0 404.001 72.65"
    id="Layer_1"
    xml:space="preserve"><defs id="defs6232"></defs><path
      d="m 389.433,56.496 h 14.568 V 70.872 H 389.433 V 56.496 z M 359.621,38.994 c 2.551,-0.32 4.375,-0.721 5.473,-1.202 1.969,-0.833 2.955,-2.131 2.955,-3.895 0,-2.147 -0.756,-3.63 -2.268,-4.448 -1.51,-0.817 -3.729,-1.226 -6.652,-1.226 -3.281,0 -5.605,0.802 -6.969,2.404 -0.977,1.186 -1.625,2.789 -1.949,4.808 h -13.223 c 0.289,-4.583 1.576,-8.35 3.863,-11.299 3.637,-4.616 9.883,-6.923 18.736,-6.923 5.762,0 10.881,1.138 15.355,3.414 4.475,2.276 6.711,6.571 6.711,12.886 v 24.041 c 0,1.667 0.033,3.687 0.098,6.058 0.096,1.795 0.367,3.013 0.816,3.654 0.449,0.642 1.121,1.17 2.02,1.586 v 2.02 h -14.904 c -0.418,-1.058 -0.707,-2.051 -0.865,-2.981 -0.162,-0.929 -0.289,-1.987 -0.385,-3.173 -1.902,2.052 -4.096,3.798 -6.578,5.241 -2.967,1.699 -6.32,2.548 -10.059,2.548 -4.773,0 -8.715,-1.354 -11.824,-4.063 -3.113,-2.708 -4.668,-6.546 -4.668,-11.515 0,-6.443 2.502,-11.107 7.508,-13.992 2.744,-1.57 6.781,-2.692 12.109,-3.366 l 4.7,-0.577 z M 368,45.389 c -0.879,0.545 -1.764,0.986 -2.656,1.322 -0.895,0.336 -2.121,0.649 -3.68,0.938 l -3.121,0.577 c -2.924,0.513 -5.023,1.138 -6.297,1.875 -2.158,1.25 -3.238,3.19 -3.238,5.818 0,2.34 0.658,4.031 1.979,5.072 1.316,1.042 2.92,1.563 4.809,1.563 2.994,0 5.752,-0.866 8.275,-2.597 2.521,-1.731 3.832,-4.888 3.93,-9.472 V 45.389 z M 321.652,18.656 c 2.244,0.897 4.279,2.469 6.107,4.712 1.473,1.827 2.467,4.071 2.98,6.731 0.32,1.763 0.48,4.344 0.48,7.741 l -0.096,33.032 H 317.082 V 37.503 c 0,-1.987 -0.32,-3.622 -0.961,-4.904 -1.219,-2.436 -3.461,-3.654 -6.73,-3.654 -3.783,0 -6.395,1.571 -7.838,4.712 -0.738,1.667 -1.105,3.671 -1.105,6.01 V 70.872 H 286.65 V 39.667 c 0,-3.109 -0.322,-5.369 -0.963,-6.779 -1.154,-2.532 -3.414,-3.798 -6.779,-3.798 -3.91,0 -6.539,1.267 -7.885,3.798 -0.738,1.442 -1.105,3.59 -1.105,6.443 V 70.872 H 256.022 V 18.56 h 13.318 v 7.645 c 1.699,-2.724 3.301,-4.664 4.809,-5.817 2.66,-2.051 6.105,-3.077 10.338,-3.077 4.006,0 7.244,0.882 9.713,2.644 1.986,1.635 3.492,3.735 4.52,6.299 1.795,-3.077 4.021,-5.337 6.682,-6.779 2.82,-1.442 5.963,-2.164 9.424,-2.164 2.306,-0.001 4.582,0.448 6.826,1.345 z m -83.049,0.869 c 3.654,1.638 6.674,4.222 9.057,7.753 2.146,3.114 3.537,6.726 4.176,10.835 0.367,2.408 0.518,5.875 0.451,10.401 h -38.171 c 0.212,5.257 2.04,8.943 5.48,11.059 2.093,1.314 4.611,1.971 7.556,1.971 3.121,0 5.658,-0.801 7.608,-2.404 1.063,-0.865 2.005,-2.067 2.821,-3.606 h 13.988 c -0.367,3.109 -2.061,6.267 -5.078,9.472 -4.695,5.096 -11.268,7.645 -19.718,7.645 -6.976,0 -13.128,-2.149 -18.46,-6.448 -5.332,-4.299 -7.998,-11.293 -7.998,-20.982 0,-9.078 2.406,-16.04 7.22,-20.884 4.812,-4.844 11.06,-7.267 18.74,-7.267 4.562,-0.001 8.672,0.818 12.328,2.455 z m -20.5,11.837 c -1.938,1.996 -3.153,4.7 -3.65,8.112 h 23.607 c -0.25,-3.638 -1.465,-6.397 -3.65,-8.281 -2.185,-1.883 -4.894,-2.825 -8.127,-2.825 -3.518,0 -6.244,0.998 -8.18,2.994 z M 183.792,19.525 c 3.656,1.638 6.675,4.222 9.057,7.753 2.146,3.114 3.538,6.726 4.175,10.835 0.369,2.408 0.519,5.875 0.452,10.401 h -38.17 c 0.212,5.257 2.04,8.943 5.48,11.059 2.093,1.314 4.611,1.971 7.556,1.971 3.121,0 5.658,-0.801 7.608,-2.404 1.064,-0.865 2.004,-2.067 2.82,-3.606 h 13.99 c -0.369,3.109 -2.062,6.267 -5.08,9.472 -4.695,5.096 -11.267,7.645 -19.717,7.645 -6.975,0 -13.128,-2.149 -18.46,-6.448 -5.332,-4.299 -7.997,-11.293 -7.997,-20.982 0,-9.078 2.406,-16.04 7.22,-20.884 4.812,-4.844 11.06,-7.267 18.741,-7.267 4.561,-0.001 8.67,0.818 12.325,2.455 z m -20.5,11.837 c -1.937,1.996 -3.153,4.7 -3.65,8.112 h 23.608 c -0.25,-3.638 -1.466,-6.397 -3.65,-8.281 -2.185,-1.883 -4.894,-2.825 -8.127,-2.825 -3.518,0 -6.244,0.998 -8.181,2.994 z M 143.388,17.237 c 0.176,0.017 0.569,0.041 1.178,0.072 v 14.04 c -0.866,-0.096 -1.635,-0.16 -2.308,-0.192 -0.673,-0.032 -1.219,-0.048 -1.635,-0.048 -5.514,0 -9.216,1.796 -11.107,5.385 -1.058,2.02 -1.586,5.129 -1.586,9.328 v 25.05 h -13.8 V 18.463 h 13.078 v 9.135 c 2.116,-3.493 3.958,-5.882 5.529,-7.164 2.564,-2.147 5.897,-3.221 10.001,-3.221 0.257,0 0.473,0.009 0.65,0.024 z m -43.72,1.516 c 2.632,1.123 4.795,2.84 6.487,5.149 1.436,1.958 2.313,3.971 2.632,6.041 0.319,2.069 0.479,5.446 0.479,10.129 v 30.8 H 95.275 V 38.958 c 0,-2.824 -0.478,-5.103 -1.432,-6.835 -1.241,-2.438 -3.596,-3.658 -7.063,-3.658 -3.595,0 -6.324,1.211 -8.186,3.634 -1.862,2.423 -2.792,5.88 -2.792,10.373 v 28.4 H 62.099 V 0.241 h 13.703 v 25.002 c 1.979,-3.045 4.269,-5.168 6.87,-6.371 2.601,-1.202 5.338,-1.803 8.211,-1.803 3.223,0 6.152,0.562 8.785,1.684 z M 57.409,0 V 12.549 H 36.205 V 70.871 H 21.3 V 12.549 H 0 V 0 h 57.409 z"
      id="path6228"></path></svg>
