<?xml version="1.0" standalone="no"?>
<!DOCTYPE svg PUBLIC "-//W3C//DTD SVG 20010904//EN"
 "http://www.w3.org/TR/2001/REC-SVG-20010904/DTD/svg10.dtd">
<svg version="1.0" xmlns="http://www.w3.org/2000/svg"
 width="576.000000pt" height="576.000000pt" viewBox="0 0 576.000000 576.000000"
 preserveAspectRatio="xMidYMid meet">
<metadata>
Created by potrace 1.13, written by Peter Selinger 2001-2015
</metadata>
<g transform="translate(0.000000,576.000000) scale(0.100000,-0.100000)"
fill="#000000" stroke="none">
<path d="M3610 5145 c0 -13 -146 -15 -1353 -15 -1156 0 -1361 -2 -1402 -15
-64 -19 -146 -76 -180 -125 -15 -22 -31 -37 -36 -34 -5 3 -6 -3 -2 -12 4 -12
3 -15 -5 -10 -8 5 -10 2 -6 -8 3 -9 1 -16 -5 -16 -6 0 -8 -7 -5 -15 4 -8 1
-15 -5 -15 -8 0 -11 -536 -9 -2012 l3 -2013 28 -53 c39 -75 96 -133 163 -167
46 -23 76 -30 158 -36 132 -10 3720 -10 3852 0 82 6 112 13 158 36 67 34 124
92 163 167 l28 53 0 2020 0 2020 -26 55 c-33 70 -103 141 -177 177 l-57 28
-642 3 c-571 2 -643 1 -643 -13z m-435 -670 c518 -78 955 -358 1148 -733 366
-711 -208 -1486 -1198 -1618 -144 -19 -475 -14 -595 10 -142 28 -319 19 -455
-24 -33 -10 -183 -58 -333 -105 -151 -48 -276 -85 -278 -82 -3 3 45 100 107
216 74 142 113 226 116 254 8 72 -12 121 -84 200 -139 153 -230 311 -275 477
-33 122 -33 349 0 464 57 198 143 340 301 497 163 162 356 279 600 363 120 42
311 83 445 96 119 11 375 4 501 -15z m-1107 -2831 c158 -66 199 -280 76 -400
-70 -68 -164 -90 -255 -59 -174 60 -222 283 -87 412 18 18 49 39 68 47 46 20
151 20 198 0z m907 -3 c92 -41 139 -119 140 -227 0 -61 -4 -77 -30 -120 -133
-215 -455 -128 -455 123 0 35 6 78 14 97 20 48 71 101 119 125 55 27 155 28
212 2z m931 -16 c159 -99 148 -339 -20 -428 -31 -16 -59 -21 -111 -21 -80 0
-129 20 -182 76 -113 117 -70 326 82 395 19 8 58 12 106 11 64 -3 83 -8 125
-33z"/>
<path d="M2760 4039 c-99 -19 -203 -94 -255 -184 -43 -72 -55 -145 -55 -327 0
-163 -1 -168 -20 -168 -33 0 -75 -26 -88 -55 -8 -18 -12 -112 -12 -315 l0
-289 24 -28 24 -28 469 -3 c430 -2 471 -1 503 15 59 30 61 38 58 350 l-3 281
-24 26 c-14 14 -39 31 -58 38 l-33 12 0 136 c0 74 -4 163 -9 197 -36 243 -263
393 -521 342z m208 -185 c49 -20 100 -70 123 -119 16 -34 19 -66 19 -207 l0
-168 -240 0 -240 0 0 175 c0 158 2 180 21 217 24 48 62 85 104 104 42 18 167
18 213 -2z"/>
</g>
</svg>
