<?xml version="1.0" encoding="UTF-8" ?>
<!DOCTYPE svg PUBLIC "-//W3C//DTD SVG 1.1//EN" "http://www.w3.org/Graphics/SVG/1.1/DTD/svg11.dtd">
<svg width="170pt" height="170pt" viewBox="0 0 170 170" version="1.1" xmlns="http://www.w3.org/2000/svg">
<g id="#f1625bff">
<path fill="#f1625b" opacity="1.00" d=" M 63.02 13.02 C 68.84 8.92 73.57 2.36 81.01 1.22 C 87.13 -0.12 93.52 2.50 97.93 6.79 C 117.14 22.61 136.37 38.41 155.57 54.26 C 160.11 57.72 162.74 63.34 162.75 69.02 C 162.78 97.36 162.75 125.69 162.77 154.03 C 162.97 157.34 161.76 160.58 159.76 163.21 C 154.39 157.22 147.89 152.42 142.24 146.73 C 129.56 135.26 117.02 123.65 104.42 112.10 C 115.68 105.54 127.28 99.56 138.54 93.00 L 138.55 92.99 C 141.70 91.90 144.35 89.79 147.36 88.41 C 152.11 85.74 157.58 83.31 160.20 78.21 C 161.50 75.43 162.92 72.22 162.13 69.10 C 154.80 68.58 147.43 69.29 140.10 68.77 C 138.75 64.61 141.38 59.47 138.51 55.90 C 137.50 50.33 132.79 45.55 127.06 45.08 C 99.36 45.05 71.65 45.08 43.94 45.06 C 39.31 44.80 34.93 47.72 32.64 51.63 C 29.85 56.97 31.61 63.18 31.11 68.93 C 23.11 68.94 15.11 68.90 7.11 68.99 C 6.74 63.97 8.91 58.94 12.47 55.45 C 29.30 41.29 46.26 27.26 63.02 13.02 Z" />
<path fill="#f1625b" opacity="1.00" d=" M 7.07 69.78 C 7.54 75.39 10.03 81.05 14.98 84.08 C 20.16 87.24 25.55 90.08 30.99 92.79 C 42.23 98.94 53.66 104.78 64.75 111.18 C 61.09 115.73 56.29 119.13 52.21 123.27 C 40.55 134.27 28.71 145.07 17.09 156.11 C 14.55 158.27 12.03 160.48 9.89 163.06 C 7.96 161.26 7.43 158.48 6.80 156.03 C 6.77 127.59 6.86 99.15 6.75 70.71 L 7.07 69.78 Z" />
</g>
<g id="#ffffffff">
<path fill="#ffffff" opacity="1.00" d=" M 32.64 51.63 C 34.93 47.72 39.31 44.80 43.94 45.06 C 71.65 45.08 99.36 45.05 127.06 45.08 C 132.79 45.55 137.50 50.33 138.51 55.90 C 138.86 68.25 138.59 80.63 138.55 92.99 L 138.54 93.00 C 137.06 91.22 135.15 92.93 133.51 93.46 C 123.69 97.66 114.11 102.53 104.12 106.24 C 99.38 102.60 95.77 97.11 89.78 95.37 C 83.54 93.52 76.27 94.87 71.62 99.58 C 69.45 101.55 67.47 103.75 65.07 105.46 C 53.62 100.94 42.48 95.68 31.09 91.01 C 31.13 83.65 31.10 76.29 31.11 68.93 C 31.61 63.18 29.85 56.97 32.64 51.63 M 73.94 55.12 C 72.29 57.33 74.37 60.61 77.03 60.33 C 80.99 60.38 84.96 60.40 88.92 60.30 C 89.61 62.48 87.64 63.99 86.36 65.40 C 81.28 70.00 75.46 74.43 72.91 81.02 C 72.08 83.57 71.77 86.50 73.08 88.94 C 77.61 90.30 82.41 89.47 87.06 89.70 C 90.23 89.50 93.72 90.34 96.61 88.64 C 98.38 86.61 97.32 83.70 94.84 83.01 C 89.90 82.65 84.93 82.95 79.98 82.81 C 83.57 74.91 93.16 71.37 95.97 62.97 C 96.77 60.09 98.14 55.90 94.97 53.94 C 89.99 53.39 84.96 53.80 79.95 53.67 C 77.91 53.77 75.38 53.27 73.94 55.12 Z" />
</g>
<g id="#ef473eff">
<path fill="#ef473e" opacity="1.00" d=" M 73.94 55.12 C 75.38 53.27 77.91 53.77 79.95 53.67 C 84.96 53.80 89.99 53.39 94.97 53.94 C 98.14 55.90 96.77 60.09 95.97 62.97 C 93.16 71.37 83.57 74.91 79.98 82.81 C 84.93 82.95 89.90 82.65 94.84 83.01 C 97.32 83.70 98.38 86.61 96.61 88.64 C 93.72 90.34 90.23 89.50 87.06 89.70 C 82.41 89.47 77.61 90.30 73.08 88.94 C 71.77 86.50 72.08 83.57 72.91 81.02 C 75.46 74.43 81.28 70.00 86.36 65.40 C 87.64 63.99 89.61 62.48 88.92 60.30 C 84.96 60.40 80.99 60.38 77.03 60.33 C 74.37 60.61 72.29 57.33 73.94 55.12 Z" />
<path fill="#ef473e" opacity="1.00" d=" M 138.51 55.90 C 141.38 59.47 138.75 64.61 140.10 68.77 C 147.43 69.29 154.80 68.58 162.13 69.10 C 162.92 72.22 161.50 75.43 160.20 78.21 C 157.58 83.31 152.11 85.74 147.36 88.41 C 144.35 89.79 141.70 91.90 138.55 92.99 C 138.59 80.63 138.86 68.25 138.51 55.90 Z" />
<path fill="#ef473e" opacity="1.00" d=" M 7.11 68.99 C 15.11 68.90 23.11 68.94 31.11 68.93 C 31.10 76.29 31.13 83.65 31.09 91.01 C 31.06 91.46 31.01 92.34 30.99 92.79 C 25.55 90.08 20.16 87.24 14.98 84.08 C 10.03 81.05 7.54 75.39 7.07 69.78 L 7.11 68.99 Z" />
<path fill="#ef473e" opacity="1.00" d=" M 71.44 105.42 C 76.41 100.11 84.80 98.67 91.40 101.57 C 96.62 103.84 99.97 108.72 104.42 112.10 C 117.02 123.65 129.56 135.26 142.24 146.73 C 147.89 152.42 154.39 157.22 159.76 163.21 C 157.39 166.03 153.76 168.10 149.97 167.81 C 106.28 167.80 62.59 167.80 18.90 167.81 C 15.34 167.86 12.03 165.77 9.89 163.06 C 12.03 160.48 14.55 158.27 17.09 156.11 C 28.71 145.07 40.55 134.27 52.21 123.27 C 56.29 119.13 61.09 115.73 64.75 111.18 C 67.33 109.78 69.16 107.27 71.44 105.42 Z" />
</g>
<g id="#d4d4d4ff">
<path fill="#d4d4d4" opacity="1.00" d=" M 31.09 91.01 C 42.48 95.68 53.62 100.94 65.07 105.46 C 67.47 103.75 69.45 101.55 71.62 99.58 C 76.27 94.87 83.54 93.52 89.78 95.37 C 95.77 97.11 99.38 102.60 104.12 106.24 C 114.11 102.53 123.69 97.66 133.51 93.46 C 135.15 92.93 137.06 91.22 138.54 93.00 C 127.28 99.56 115.68 105.54 104.42 112.10 C 99.97 108.72 96.62 103.84 91.40 101.57 C 84.80 98.67 76.41 100.11 71.44 105.42 C 69.16 107.27 67.33 109.78 64.75 111.18 C 53.66 104.78 42.23 98.94 30.99 92.79 C 31.01 92.34 31.06 91.46 31.09 91.01 Z" />
</g>
</svg>
