<?xml version="1.0" encoding="utf-8"?>
<!-- Generator: Adobe Illustrator 16.0.0, SVG Export Plug-In . SVG Version: 6.00 Build 0)  -->
<!DOCTYPE svg PUBLIC "-//W3C//DTD SVG 1.1//EN" "http://www.w3.org/Graphics/SVG/1.1/DTD/svg11.dtd">
<svg version="1.1" id="圖層_1" xmlns="http://www.w3.org/2000/svg" xmlns:xlink="http://www.w3.org/1999/xlink" x="0px" y="0px"
	 width="1024px" height="1024px" viewBox="0 0 1024 1024" enable-background="new 0 0 1024 1024" xml:space="preserve">
<g>
	<path fill-rule="evenodd" clip-rule="evenodd" fill="#420094" d="M2.032,890.004c0-250.659,0-501.317,0-751.976
		c3.772-1.836,2.7-5.767,3.431-8.708C21.887,63.115,63.118,21.875,129.334,5.471c2.943-0.729,6.874,0.357,8.694-3.438
		c249.992,0,499.984,0,749.976,0c1.316,3.418,4.549,2.053,6.876,2.531c67.371,13.853,115.363,62.087,128.808,129.518
		c0.409,2.051-0.746,4.871,2.313,5.946c0,249.992,0,499.984,0,749.976c-3.711,2.332-2.682,6.518-3.497,9.807
		c-15.605,62.967-54.779,103.106-116.801,121.386c-5.871,1.729-12.4,1.011-17.698,4.804c-249.992,0-499.984,0-749.976,0
		c-1.328-3.259-4.541-2.24-6.891-2.803C63.163,1006.922,21.142,964.814,4.894,896.854C4.334,894.514,5.341,891.279,2.032,890.004z
		 M507.06,215.969c-99.3,0-198.6-0.004-297.9,0.004c-14.318,0.001-15.19,0.902-15.189,15.449
		c0.013,122.959,0.028,245.918,0.047,368.877c0.002,13.708,1.403,15.219,14.565,15.22c198.267,0.013,396.535,0.012,594.801,0
		c13.333-0.001,14.676-1.426,14.678-15.08c0.019-122.626,0.033-245.251,0.05-367.877c0.002-15.872-0.681-16.59-16.15-16.59
		C703.661,215.967,605.361,215.969,507.06,215.969z M720.706,893.97c2.994,0,5.993,0.12,8.979-0.019
		c31.373-1.456,54.762-18.309,62.732-45.151c12.605-42.449-10.651-79.912-54.224-87.344c-54.14-9.233-88.537,16.818-91.105,70.626
		c-1.005,21.053,9.501,38.041,27.043,49.942C688.124,891.518,704.127,894.15,720.706,893.97z M511.286,826.133
		c-0.67,36.338,25.065,62.063,62.931,62.909c37.081,0.829,65.153-24.322,65.695-59.231c0.638-41.012-26.012-61.802-61.903-62.703
		C537.83,766.1,511.968,789.049,511.286,826.133z M420.987,769.263c-4.415,0-9.385,0.36-14.275-0.115
		c-3.865-0.376-4.495,1.04-4.311,4.402c1.965,35.609,2.155,71.227-0.05,106.832c-0.264,4.259,1.295,5.239,5.178,4.452
		c2.252-0.459,4.802-0.852,6.931-0.252c7.621,2.144,7.946-1.854,7.635-7.745c-0.65-12.299-0.367-24.652-1.244-36.93
		c-0.517-7.24,2.153-9.015,8.912-8.851c15.975,0.388,31.975,0.386,47.949-0.043c7.087-0.19,10.238,1.464,9.482,9.324
		c-0.954,9.921-0.751,19.952-1.046,29.938c-0.406,13.693-0.354,13.186,12.793,14.518c6.481,0.656,6.953-1.371,6.62-6.84
		c-2.07-33.938-1.911-67.902-0.034-101.843c0.302-5.466-0.217-8.325-6.618-6.601c-2.165,0.583-4.78,0.587-6.924-0.046
		c-6.291-1.858-6.239,1.584-6.049,6.159c0.535,12.974,0.362,25.987,1.268,38.93c0.515,7.346-2.242,8.919-8.97,8.741
		c-15.974-0.421-31.979-0.476-47.948,0.028c-7.228,0.228-9.879-1.453-9.505-9.278C421.492,799.149,420.987,784.198,420.987,769.263z
		 M189.956,754.018c9.307,15.326,17.299,30.684,27.347,44.552c18.335,25.306,27.533,52.429,21.955,83.792
		c-0.749,4.207,0.128,8.688-0.443,12.948c-0.645,4.804,0.919,5.883,5.409,4.896c2.543-0.559,5.455-0.708,7.933-0.044
		c6.34,1.7,6.196-1.757,6.039-6.305c-0.539-15.633-0.665-31.28-1.232-46.912c-0.213-5.866,1.115-10.89,4.187-15.992
		c15.18-25.22,30.02-50.644,44.989-76.013c-18.908-2.279-18.674-2.142-27.775,13.343c-9.574,16.291-19.658,32.282-30.171,49.472
		c-12.363-20.138-24.325-39.264-35.829-58.662c-2.33-3.928-4.231-6.028-9.113-5.215
		C199.167,754.559,194.881,754.018,189.956,754.018z M394.526,884.268c-17.832-36.806-33.358-74.434-48.598-112.183
		c-0.847-2.099-2.157-2.603-4.429-2.979c-9.278-1.54-14.49,2.33-17.271,11.041c-10.817,33.886-26.32,65.817-41.142,98.032
		c-1.015,2.204-3.673,4.088-2.459,6.495c4.332,0,8.497-0.762,12.233,0.178c5.698,1.433,7.304-1.336,9.186-5.808
		c3.821-9.087,4.485-22.063,12.428-26.177c8.237-4.267,20.129-1.703,30.423-1.722c16.672-0.029,17.495-0.16,22.826,16.046
		c4.117,12.516,9.288,21.212,24.264,17.863C392.547,884.93,393.088,884.717,394.526,884.268z M839.011,765.438
		c0.132-5.855-1.898-8.657-6.938-10.228c-7.297-2.272-12.233,1.278-13.094,10.29c-3.104,32.489-5.175,65.082-9.863,97.41
		c-0.393,2.711-1.163,5.048,2.927,5.8c5.082,0.934,4.448-2.923,5.013-5.462c4.768-21.447,9.328-42.94,14.091-64.39
		C833.671,787.487,836.475,776.177,839.011,765.438z M808.685,901.009c5.782-0.135,9.288-2.917,9.493-8.961
		c0.216-6.344-4.094-8.893-9.408-9.306c-6.34-0.492-10.153,3.23-10.16,9.477C798.603,898.346,803.094,900.508,808.685,901.009z"/>
	<path fill-rule="evenodd" clip-rule="evenodd" fill="#FDFDFE" d="M138.028,2.032c-1.82,3.796-5.751,2.71-8.694,3.438
		C63.118,21.875,21.887,63.115,5.463,129.32c-0.73,2.941,0.342,6.872-3.431,8.708c0-43.173,0.129-86.347-0.16-129.519
		C1.835,2.978,2.978,1.835,8.509,1.872C51.681,2.161,94.854,2.032,138.028,2.032z"/>
	<path fill-rule="evenodd" clip-rule="evenodd" fill="#FDFDFE" d="M1026,140.028c-3.059-1.075-1.903-3.896-2.313-5.946
		C1010.243,66.65,962.251,18.417,894.88,4.563c-2.327-0.479-5.56,0.887-6.876-2.531c43.999,0,87.998,0.096,131.995-0.132
		c5.003-0.025,6.159,1.13,6.132,6.132C1025.904,52.03,1026,96.029,1026,140.028z"/>
	<path fill-rule="evenodd" clip-rule="evenodd" fill="#FDFDFE" d="M888.004,1026c5.298-3.793,11.827-3.074,17.698-4.804
		c62.021-18.279,101.195-58.419,116.801-121.386c0.815-3.289-0.214-7.475,3.497-9.807c0,43.332-0.097,86.664,0.131,129.995
		c0.027,5.003-1.129,6.159-6.132,6.132C976.002,1025.904,932.003,1026,888.004,1026z"/>
	<path fill-rule="evenodd" clip-rule="evenodd" fill="#FDFDFE" d="M2.032,890.004c3.309,1.275,2.302,4.51,2.861,6.851
		c16.249,67.96,58.27,110.067,126.243,126.343c2.35,0.563,5.563-0.456,6.891,2.803c-43.173,0-86.347-0.129-129.519,0.16
		c-5.532,0.037-6.674-1.105-6.637-6.638C2.161,976.352,2.032,933.178,2.032,890.004z"/>
	<path fill-rule="evenodd" clip-rule="evenodd" fill="#FDFDFE" d="M507.06,215.969c98.301,0,196.601-0.002,294.901,0.002
		c15.47,0,16.152,0.719,16.15,16.59c-0.017,122.626-0.031,245.251-0.05,367.877c-0.002,13.654-1.345,15.079-14.678,15.08
		c-198.267,0.012-396.534,0.013-594.801,0c-13.162-0.001-14.563-1.512-14.565-15.22c-0.019-122.959-0.034-245.918-0.047-368.877
		c-0.001-14.546,0.871-15.448,15.189-15.449C308.46,215.965,407.76,215.969,507.06,215.969z M506.003,246.027
		c-83.992,0-167.985,0-251.976,0c-23.995,0-23.514,0.015-24.25,24.322c-0.271,8.917,2.72,13.478,10.261,17.87
		c86.319,50.276,172.461,100.856,258.485,151.635c5.695,3.362,9.477,3.292,15.099-0.026
		c82.008-48.411,163.841-97.137,246.588-144.258c17.032-9.698,24.854-19.843,22.253-39.34c-1.043-7.815-2.053-10.437-10.483-10.405
		C683.321,246.153,594.662,246.027,506.003,246.027z"/>
	<path fill-rule="evenodd" clip-rule="evenodd" fill="#FDFDFE" d="M720.706,893.97c-16.579,0.181-32.582-2.452-46.574-11.945
		c-17.542-11.901-28.048-28.89-27.043-49.942c2.568-53.808,36.966-79.859,91.105-70.626c43.572,7.432,66.829,44.895,54.224,87.344
		c-7.971,26.843-31.359,43.695-62.732,45.151C726.699,894.09,723.7,893.97,720.706,893.97z M666.395,827.177
		c0.58,5.623,0.826,11.304,1.798,16.858c4.647,26.554,24.163,42.564,52.079,42.969c27.813,0.402,47.94-15.144,53.358-41.46
		c1.958-9.513,2.352-19.183,1.208-28.846c-4.285-36.24-31.658-55.688-67.438-47.979C681.112,774.384,666.74,795.031,666.395,827.177
		z"/>
	<path fill-rule="evenodd" clip-rule="evenodd" fill="#FDFDFE" d="M511.286,826.133c0.683-37.084,26.544-60.033,66.723-59.025
		c35.892,0.901,62.541,21.691,61.903,62.703c-0.542,34.909-28.614,60.061-65.695,59.231
		C536.351,888.195,510.616,862.471,511.286,826.133z M531.104,828.016c0.352,4.242,0.473,8.925,1.166,13.521
		c3.431,22.729,18.376,37.375,39.147,38.57c23.585,1.357,39.923-9.552,45.967-31.283c4.002-14.391,4.004-29.021-0.162-43.394
		c-5.872-20.26-21.379-31.471-42.306-31.139c-20.517,0.325-35.097,11.643-40.987,31.59
		C531.825,813.005,531.646,820.309,531.104,828.016z"/>
	<path fill-rule="evenodd" clip-rule="evenodd" fill="#FDFDFE" d="M420.987,769.263c0,14.936,0.505,29.887-0.206,44.781
		c-0.374,7.825,2.277,9.506,9.505,9.278c15.969-0.504,31.974-0.449,47.948-0.028c6.728,0.178,9.484-1.396,8.97-8.741
		c-0.905-12.942-0.732-25.956-1.268-38.93c-0.189-4.575-0.241-8.018,6.049-6.159c2.144,0.633,4.759,0.629,6.924,0.046
		c6.401-1.725,6.919,1.135,6.618,6.601c-1.876,33.94-2.036,67.905,0.034,101.843c0.333,5.469-0.139,7.496-6.62,6.84
		c-13.148-1.332-13.2-0.824-12.793-14.518c0.295-9.985,0.092-20.017,1.046-29.938c0.756-7.86-2.396-9.515-9.482-9.324
		c-15.974,0.429-31.974,0.431-47.949,0.043c-6.758-0.164-9.428,1.61-8.912,8.851c0.877,12.277,0.594,24.631,1.244,36.93
		c0.312,5.892-0.014,9.889-7.635,7.745c-2.129-0.6-4.679-0.207-6.931,0.252c-3.883,0.787-5.441-0.193-5.178-4.452
		c2.205-35.605,2.015-71.223,0.05-106.832c-0.185-3.362,0.445-4.778,4.311-4.402C411.602,769.623,416.572,769.263,420.987,769.263z"
		/>
	<path fill-rule="evenodd" clip-rule="evenodd" fill="#FDFDFE" d="M189.956,754.018c4.925,0,9.21,0.541,13.292-0.14
		c4.882-0.813,6.783,1.287,9.113,5.215c11.504,19.398,23.466,38.524,35.829,58.662c10.513-17.189,20.597-33.181,30.171-49.472
		c9.102-15.484,8.867-15.622,27.775-13.343c-14.969,25.369-29.809,50.793-44.989,76.013c-3.071,5.103-4.399,10.126-4.187,15.992
		c0.567,15.632,0.693,31.279,1.232,46.912c0.157,4.548,0.302,8.005-6.039,6.305c-2.478-0.664-5.39-0.515-7.933,0.044
		c-4.49,0.986-6.053-0.093-5.409-4.896c0.571-4.261-0.306-8.741,0.443-12.948c5.579-31.363-3.619-58.486-21.955-83.792
		C207.255,784.701,199.263,769.344,189.956,754.018z"/>
	<path fill-rule="evenodd" clip-rule="evenodd" fill="#FDFDFE" d="M394.526,884.268c-1.438,0.449-1.979,0.662-2.539,0.787
		c-14.976,3.349-20.147-5.348-24.264-17.863c-5.332-16.206-6.154-16.075-22.826-16.046c-10.294,0.019-22.186-2.545-30.423,1.722
		c-7.943,4.114-8.607,17.09-12.428,26.177c-1.882,4.472-3.487,7.24-9.186,5.808c-3.736-0.939-7.901-0.178-12.233-0.178
		c-1.214-2.407,1.444-4.291,2.459-6.495c14.822-32.215,30.325-64.146,41.142-98.032c2.781-8.711,7.993-12.581,17.271-11.041
		c2.271,0.377,3.582,0.881,4.429,2.979C361.167,809.834,376.694,847.462,394.526,884.268z M337.379,790.164
		c-6.576,16.47-12.705,31.83-18.843,47.186c-1.165,2.914-2.672,5.88,2.697,5.847c10.975-0.067,21.95-0.05,32.924-0.057
		c3.171-0.002,3.956-0.981,2.633-4.224C350.298,823.016,344.059,807.015,337.379,790.164z"/>
	<path fill-rule="evenodd" clip-rule="evenodd" fill="#FDFDFE" d="M839.011,765.438c-2.536,10.739-5.34,22.05-7.865,33.421
		c-4.763,21.449-9.323,42.942-14.091,64.39c-0.564,2.539,0.069,6.396-5.013,5.462c-4.09-0.752-3.319-3.089-2.927-5.8
		c4.688-32.328,6.76-64.921,9.863-97.41c0.86-9.012,5.797-12.563,13.094-10.29C837.112,756.78,839.143,759.582,839.011,765.438z"/>
	<path fill-rule="evenodd" clip-rule="evenodd" fill="#FDFDFE" d="M808.685,901.009c-5.591-0.501-10.082-2.663-10.075-8.79
		c0.007-6.246,3.82-9.969,10.16-9.477c5.314,0.413,9.624,2.962,9.408,9.306C817.973,898.092,814.467,900.874,808.685,901.009z"/>
	<path fill-rule="evenodd" clip-rule="evenodd" fill="#087ACA" d="M506.003,246.027c88.659,0,177.318,0.126,265.975-0.203
		c8.431-0.031,9.44,2.59,10.483,10.405c2.602,19.497-5.221,29.643-22.253,39.34c-82.747,47.122-164.58,95.848-246.588,144.258
		c-5.622,3.319-9.403,3.388-15.099,0.026c-86.024-50.779-172.166-101.359-258.485-151.635c-7.541-4.392-10.531-8.954-10.261-17.87
		c0.736-24.307,0.256-24.322,24.25-24.322C338.019,246.027,422.011,246.027,506.003,246.027z"/>
	<path fill-rule="evenodd" clip-rule="evenodd" fill="#420094" d="M666.395,827.177c0.346-32.146,14.718-52.793,41.006-58.458
		c35.779-7.709,63.152,11.739,67.438,47.979c1.144,9.663,0.75,19.333-1.208,28.846c-5.418,26.316-25.545,41.862-53.358,41.46
		c-27.916-0.404-47.432-16.415-52.079-42.969C667.221,838.48,666.975,832.8,666.395,827.177z"/>
	<path fill-rule="evenodd" clip-rule="evenodd" fill="#420094" d="M531.104,828.016c0.542-7.707,0.722-15.011,2.825-22.134
		c5.891-19.947,20.471-31.265,40.987-31.59c20.927-0.332,36.434,10.879,42.306,31.139c4.166,14.372,4.164,29.003,0.162,43.394
		c-6.044,21.731-22.382,32.641-45.967,31.283c-20.771-1.195-35.717-15.841-39.147-38.57
		C531.576,836.94,531.455,832.258,531.104,828.016z"/>
	<path fill-rule="evenodd" clip-rule="evenodd" fill="#420094" d="M337.379,790.164c6.68,16.851,12.919,32.852,19.411,48.752
		c1.323,3.242,0.538,4.222-2.633,4.224c-10.974,0.007-21.949-0.011-32.924,0.057c-5.369,0.033-3.862-2.933-2.697-5.847
		C324.674,821.994,330.803,806.634,337.379,790.164z"/>
</g>
</svg>
