<?xml version="1.0" standalone="no"?>
<!DOCTYPE svg PUBLIC "-//W3C//DTD SVG 20010904//EN"
 "http://www.w3.org/TR/2001/REC-SVG-20010904/DTD/svg10.dtd">
<svg version="1.0" xmlns="http://www.w3.org/2000/svg"
 width="300.000000pt" height="300.000000pt" viewBox="0 0 300.000000 300.000000"
 preserveAspectRatio="xMidYMid meet">

<g transform="translate(0.000000,300.000000) scale(0.100000,-0.100000)"
fill="#000000" stroke="none">
<path d="M0 1500 l0 -1500 88 0 87 1 -37 23 c-59 35 -79 57 -104 111 l-24 50
0 1335 0 1336 52 51 c29 28 64 57 78 64 21 12 271 15 1445 19 l1420 5 -1502 3
-1503 2 0 -1500z"/>
<path d="M563 2575 l-33 -14 0 -76 0 -75 90 0 90 0 0 76 0 75 -35 15 c-43 17
-71 17 -112 -1z"/>
<path d="M530 1706 l0 -415 90 -3 90 -3 0 418 0 417 -90 0 -90 0 0 -414z"/>
<path d="M2351 1823 c-1 -6 -4 -20 -7 -30 -5 -17 -5 -17 6 0 6 10 9 23 6 30
-3 9 -5 9 -5 0z"/>
<path d="M2311 1709 c-6 -18 -9 -34 -7 -36 2 -2 9 10 15 28 6 18 9 34 7 36 -2
2 -9 -10 -15 -28z"/>
<path d="M1500 1615 c0 -6 55 -9 150 -7 134 3 149 1 144 -13 -6 -14 -26 -16
-155 -13 l-148 3 -97 -260 c-53 -143 -102 -272 -110 -287 l-12 -28 401 2 c361
2 378 3 165 8 l-236 5 38 110 c21 61 66 189 100 285 34 96 64 182 66 190 4 13
-17 15 -150 15 -97 0 -156 -4 -156 -10z m213 -52 c-40 -2 -106 -2 -145 0 -40
1 -8 3 72 3 80 0 112 -2 73 -3z"/>
<path d="M810 1365 l0 -185 -185 0 -185 0 0 -85 0 -85 45 0 45 0 0 -495 0
-495 90 0 90 0 0 495 0 495 238 2 c130 1 190 4 132 5 l-104 4 -79 76 -79 77 2
188 c0 103 -2 188 -5 188 -3 0 -5 -83 -5 -185z"/>
<path d="M2966 147 c-9 -24 -32 -59 -51 -77 -19 -19 -35 -42 -35 -52 0 -15 9
-18 60 -18 l60 0 0 83 c0 103 -11 124 -34 64z"/>
</g>
</svg>
