<?xml version="1.0" encoding="UTF-8" standalone="no"?>
<svg
   xmlns:dc="http://purl.org/dc/elements/1.1/"
   xmlns:cc="http://creativecommons.org/ns#"
   xmlns:rdf="http://www.w3.org/1999/02/22-rdf-syntax-ns#"
   xmlns:svg="http://www.w3.org/2000/svg"
   xmlns="http://www.w3.org/2000/svg"
   viewBox="0 0 250 247.96249"
   height="247.96249"
   width="250"
   xml:space="preserve"
   version="1.1"
   id="svg2"><metadata
     id="metadata8"><rdf:RDF><cc:Work
         rdf:about=""><dc:format>image/svg+xml</dc:format><dc:type
           rdf:resource="http://purl.org/dc/dcmitype/StillImage" /></cc:Work></rdf:RDF></metadata><defs
     id="defs6" /><g
     transform="matrix(1.25,0,0,-1.25,0,247.9625)"
     id="g10"><g
       transform="scale(0.1,0.1)"
       id="g12"><path
         id="path14"
         style="fill:#cd2445;fill-opacity:1;fill-rule:nonzero;stroke:none"
         d="m 477.809,1118.01 c 0,0 -311.18,-219.03 -323.348,-302.471 l 23.348,4.801 c 0,0 372.64,246.99 668.031,277.11 l 6.691,37.49 -374.722,-16.93" /><path
         id="path16"
         style="fill:#cd2445;fill-opacity:1;fill-rule:nonzero;stroke:none"
         d="M 966.289,1149.31 721.18,975.461 734.43,964.828 c 9.992,8.063 435.39,137.982 435.39,137.982 l 89.69,56.23 c -60.18,-7.49 -293.221,-9.73 -293.221,-9.73" /><path
         id="path18"
         style="fill:#cd2445;fill-opacity:1;fill-rule:nonzero;stroke:none"
         d="m 1179.32,939.039 c 174.05,0 434.95,170.461 434.95,170.461 l -84.34,16.05 c -4.17,-4.17 -136,4.62 -136,4.62 l -62.58,17.38 -149.51,-170.359 -12.17,-29.562 c 10.75,4.371 9.65,-8.59 9.65,-8.59" /><path
         id="path20"
         style="fill:#cd2445;fill-opacity:1;fill-rule:nonzero;stroke:none"
         d="m 444.559,293.352 c -1.2,0.546 -2.411,1.109 -3.61,1.66 -8.558,7.386 -15.558,13.429 -20.129,17.359 l 23.739,-19.019 z m 1302.721,102.058 -53.77,-15.14 -248.43,5.371 -155.41,120.847 -187.84,-47 L 884.57,478.289 762.91,345.352 534.629,277.16 420.648,312.5 c -3.628,3.129 -5.738,4.941 -5.738,4.941 l 51.16,-125.269 c 0,0 115.879,-124.2423 180.61,-138.8517 64.718,-14.6094 181.648,1.0508 269.351,14.6289 87.689,13.5703 157.639,44.8908 185.819,96.0308 28.18,51.168 32.36,65.782 32.36,65.782 0,0 83.53,-117.973 155.56,-131.5511 72.03,-13.5703 286.05,59.5191 286.05,59.5191 0,0 130.51,35.489 153.46,80.379 22.97,44.891 83.53,192.09 83.53,192.09 l -65.53,-34.789" /><path
         id="path22"
         style="fill:#f2f19b;fill-opacity:1;fill-rule:nonzero;stroke:none"
         d="m 1958.32,1282.88 c -0.54,6.71 -1.28,13.42 -2.1,20.09 -0.58,4.73 -1.33,9.67 -2.15,14.24 -17.93,15.09 -38.31,28.51 -59.52,40.71 -22.99,13.43 -47.04,25.46 -71.59,36.63 -24.38,11.5 -49.42,21.91 -74.61,32.07 -12.57,5.1 -25.25,10.05 -37.98,14.77 -12.69,4.95 -25.5,9.56 -38.35,14.24 26.97,-4.47 53.66,-10.59 80.15,-17.41 17.23,-4.46 34.37,-9.45 51.4,-14.77 -121.12,316.55 -410.7,522.7 -726.87,522.7 -316.22,0 -605.77,-206.15 -726.86,-522.7 17.031,5.32 34.172,10.31 51.371,14.77 26.527,6.82 53.23,12.94 80.18,17.41 -12.891,-4.68 -25.672,-9.29 -38.403,-14.24 -12.668,-4.72 -25.359,-9.67 -37.976,-14.77 -25.192,-10.16 -50.16,-20.57 -74.602,-32.07 -24.5,-11.17 -48.57,-23.2 -71.558,-36.63 -21.211,-12.19 -41.571,-25.62 -59.571,-40.71 -0.75,-4.57 -1.511,-9.51 -2.101,-14.24 -0.809,-6.67 -1.551,-13.38 -2.102,-20.09 -1.18,-13.49 -1.656,-27.03 -1.769,-40.61 -0.27,-27.13 1.562,-54.26 5,-81.1 3.703,-26.92 8.64,-53.66 15.953,-79.51 3.597,-12.95 7.679,-25.72 12.398,-38.08 2.371,-6.17 4.949,-12.25 7.641,-18.16 1.34,-2.94 2.738,-5.85 4.129,-8.64 l 1.718,-3.28 c 1.993,-1.01 4.082,-2.04 6.071,-3 l 12.043,-5.75 c 6.707,-3.05 16,-7.461 23.679,-10.898 l 1.231,1.136 -22.352,85.132 c 4.739,1.3 47.18,12.25 120.321,26.17 -5.903,1.12 -11.86,2.41 -17.719,3.81 -16.652,4.14 -33.094,9.19 -48.992,15.64 -7.899,3.33 -15.68,6.97 -23.09,11.15 -7.418,4.26 -14.719,9.08 -20.371,15.48 80.359,-26.22 246.402,-14.34 393.992,0.91 134.988,13.91 270.289,22.93 406.299,23.2 136.02,-0.27 271.37,-9.29 406.3,-23.2 147.66,-15.25 313.7,-27.13 394.05,-0.91 -5.64,-6.4 -12.93,-11.23 -20.35,-15.48 -7.41,-4.18 -15.19,-7.82 -23.08,-11.15 -15.92,-6.45 -32.34,-11.5 -48.99,-15.64 -2.47,-0.59 -4.96,-1.13 -7.43,-1.66 80.2,-14.88 126.89,-26.97 131.88,-28.31 l -21.38,-81.099 c 4.3,1.939 8.64,3.809 12.9,5.739 l 12.02,5.75 c 2,0.97 4.03,1.99 6.07,3 l 1.66,3.28 c 1.46,2.79 2.86,5.7 4.19,8.64 2.7,5.91 5.28,11.99 7.64,18.16 4.73,12.36 8.82,25.13 12.41,38.08 7.31,25.85 12.25,52.59 15.95,79.51 3.45,26.85 5.26,53.98 5.01,81.1 -0.11,13.56 -0.6,27.1 -1.79,40.59" /><path
         id="path24"
         style="fill:#e5c9a3;fill-opacity:1;fill-rule:nonzero;stroke:none"
         d="m 1167.87,157.121 c -10.64,-1.601 -21.28,-2.949 -31.86,-3.75 -6.82,-0.332 -14.04,-1.019 -20.59,-1.019 l -2.42,-0.051 c 8.22,18.371 14.46,32.597 19.19,43.39 9.63,-10.8 21.88,-24.171 35.68,-38.57" /><path
         id="path26"
         style="fill:#e5c9a3;fill-opacity:1;fill-rule:nonzero;stroke:none"
         d="m 1191.01,133.551 c 33.04,-32.719 73.98,-51.4612 119.04,-54.7893 -75.69,-30.7422 -147.02,-42.6015 -201.97,-46.3008 -54.78,-3.6718 -110.318,2.7891 -164.74,17.711 4.558,0.8164 7.898,1.3984 11.93,1.8867 4.468,0.543 102.06,13.2734 146.05,78.6794 l 4.13,-0.09 10.8,0.09 c 7.31,0 13.95,0.602 20.94,0.871 16.6,1.442 32.83,3.813 48.78,7.032 1.67,-1.711 3.33,-3.379 5.04,-5.09" /><path
         id="path28"
         style="fill:#5d6762;fill-opacity:1;fill-rule:nonzero;stroke:none"
         d="m 1284.64,1113.02 c -3.17,-4.13 -6.71,-8.69 -10.48,-13.43 -19.33,-24.44 -46.14,-55.7 -77.94,-86.27 -36.96,1.14 -74.94,1.77 -114.04,1.77 -64.6,0 -126.551,-1.71 -185.371,-4.57 83.113,34.49 182.961,68.18 291.091,88.42 31.58,5.98 63.91,10.76 96.74,14.08" /><path
         id="path30"
         style="fill:#5d6762;fill-opacity:1;fill-rule:nonzero;stroke:none"
         d="m 798.211,1075.81 c -29.66,-20.84 -63.172,-47.44 -95.66,-79.708 C 619.34,987.77 546.77,977.68 486.879,968 c 92.07,42.32 197.133,81.27 311.332,107.81" /><path
         id="path32"
         style="fill:#5d6762;fill-opacity:1;fill-rule:nonzero;stroke:none"
         d="M 1814.8,904.039 1780.96,667.25 1618.84,553.699 1196.01,601.77 1132.36,811.379 c -1.51,5.101 -5.81,8.851 -11.08,9.711 -15.67,2.531 -29.53,3.82 -41.08,3.82 -11.6,0 -25.41,-1.289 -41.15,-3.82 -5.22,-0.86 -9.5,-4.61 -11.06,-9.711 L 965.898,606.879 545.43,513.309 378.809,630.031 345.98,895.75 c 7.149,4.039 14.411,8.059 21.758,12.09 10.313,2.219 21.91,4.57 34.75,7.039 L 433.43,664.148 c 0.48,-3.918 2.64,-7.41 5.859,-9.668 L 553.91,574.16 c 2.36,-1.601 5.16,-2.461 7.949,-2.461 1.012,0 1.993,0.102 3.063,0.332 l 345.699,76.918 c 1.188,0.27 2.367,0.692 3.438,1.242 3.222,1.707 5.75,4.661 6.82,8.27 l 62.25,204.98 c 16.699,4.297 59.471,14.289 97.061,14.289 37.49,0 80.3,-9.992 97.01,-14.289 l 62.25,-204.98 c 1.61,-5.32 6.24,-9.121 11.76,-9.77 l 345.7,-39.269 c 3.35,-0.371 6.77,0.5 9.52,2.418 l 114.69,80.25 c 3.1,2.199 5.2,5.66 5.73,9.461 l 30.62,214.211 c 23.01,-4.442 42.24,-8.461 57.33,-11.723" /><path
         id="path34"
         style="fill:#5d6762;fill-opacity:1;fill-rule:nonzero;stroke:none"
         d="m 1857.51,1052.54 -29.76,-112.899 c -60.86,13.418 -194.56,39.75 -376.54,57.468 59.46,25.351 120,57.151 175.31,96.901 108.29,-15.3 187.8,-31.69 230.99,-41.47" /><path
         id="path36"
         style="fill:#e4c896;fill-opacity:1;fill-rule:nonzero;stroke:none"
         d="m 1154.98,976.809 c -16.65,-13.489 -34.21,-26.098 -52.49,-37.118 l -60.97,-36.8 c -38.24,-4.661 -71.43,-14.121 -73.309,-14.672 -1.121,-0.309 -2.191,-0.789 -3.172,-1.399 -2.961,-1.711 -5.211,-4.55 -6.289,-7.941 L 896.66,674.281 564.809,600.48 l -104.52,73.211 -30.41,246.34 c 59.359,10.899 138.742,23.52 234.101,34.199 -10.218,-12.25 -20.14,-25.082 -29.55,-38.55 l -56.77,-81.489 82.66,55.11 c 1.231,0.859 53.871,35.488 139.981,77.609 85.82,6.442 180.527,10.59 281.879,10.59 24.71,0.012 48.95,-0.27 72.8,-0.691 z M 638.41,699.32 c 23.57,12.739 50.211,10.852 91.899,10.789 4.472,-0.109 9.082,-0.05 13.902,0.051 4.098,0.051 8.219,0.11 12.578,0.219 42.961,0.422 78.691,-3.66 78.063,63.812 -0.653,67.457 -30.622,121.981 -73.543,121.547 -42.969,-0.367 -84.539,-55.636 -81.969,-123.058 0.699,-17.559 3.281,-30.231 7.422,-39.371 C 649.309,723.93 638.988,700.77 638.41,699.32" /><path
         id="path38"
         style="fill:#e4c896;fill-opacity:1;fill-rule:nonzero;stroke:none"
         d="m 1730.15,920.828 -29.92,-209.437 -105.39,-73.789 -331.41,37.66 -61.83,203.629 c -1.4,4.507 -4.94,7.988 -9.45,9.339 -2.05,0.598 -43.08,12.301 -86.59,16.071 l 7.95,0.527 c 6.87,0.492 121.18,14.512 257.67,61.57 151.15,-11.609 274.58,-30.199 358.97,-45.57 z M 1518.35,726.98 c -0.42,1.598 -9.45,28.731 -49.42,23.969 4.61,10.031 6.66,23.563 5.21,42.102 -5.28,67.308 -44.43,120.801 -87.35,119.308 -42.92,-1.519 -70.42,-57.308 -68.05,-124.781 2.36,-67.406 38.4,-66.937 81.32,-65.43 57.7,1.071 89.39,18.801 118.29,4.832" /><path
         id="path40"
         style="fill:#c4af90;fill-opacity:1;fill-rule:nonzero;stroke:none"
         d="m 1154.98,976.809 c -16.65,-13.489 -34.21,-26.098 -52.49,-37.118 l -60.97,-36.8 c -38.24,-4.661 -71.43,-14.121 -73.309,-14.672 -1.121,-0.309 -2.191,-0.789 -3.172,-1.399 -2.961,-1.711 -5.211,-4.55 -6.289,-7.941 L 896.66,674.281 564.809,600.48 l -104.52,73.211 -30.41,246.34 c 59.359,10.899 138.742,23.52 234.101,34.199 -10.218,-12.25 -20.14,-25.082 -29.55,-38.55 l -56.77,-81.489 82.66,55.11 c 1.231,0.859 53.871,35.488 139.981,77.609 85.82,6.442 180.527,10.59 281.879,10.59 24.71,0.012 48.95,-0.27 72.8,-0.691 z M 638.41,699.32 c 23.57,12.739 50.211,10.852 91.899,10.789 4.472,-0.109 9.082,-0.05 13.902,0.051 4.098,0.051 8.219,0.11 12.578,0.219 42.961,0.422 78.691,-3.66 78.063,63.812 -0.653,67.457 -30.622,121.981 -73.543,121.547 -42.969,-0.367 -84.539,-55.636 -81.969,-123.058 0.699,-17.559 3.281,-30.231 7.422,-39.371 C 649.309,723.93 638.988,700.77 638.41,699.32" /><path
         id="path42"
         style="fill:#c4af90;fill-opacity:1;fill-rule:nonzero;stroke:none"
         d="m 1730.15,920.828 -29.92,-209.437 -105.39,-73.789 -331.41,37.66 -61.83,203.629 c -1.4,4.507 -4.94,7.988 -9.45,9.339 -2.05,0.598 -43.08,12.301 -86.59,16.071 l 7.95,0.527 c 6.87,0.492 121.18,14.512 257.67,61.57 151.15,-11.609 274.58,-30.199 358.97,-45.57 z M 1518.35,726.98 c -0.42,1.598 -9.45,28.731 -49.42,23.969 4.61,10.031 6.66,23.563 5.21,42.102 -5.28,67.308 -44.43,120.801 -87.35,119.308 -42.92,-1.519 -70.42,-57.308 -68.05,-124.781 2.36,-67.406 38.4,-66.937 81.32,-65.43 57.7,1.071 89.39,18.801 118.29,4.832" /><path
         id="path44"
         style="fill:#e5c9a3;fill-opacity:1;fill-rule:nonzero;stroke:none"
         d="m 1874.81,828.711 c 5.08,-4.191 9.11,-15.039 4.56,-65.582 -5.59,-61.879 -31.6,-170.488 -47.71,-188 -17.78,-3.438 -55.05,0.641 -77.78,5.949 3.93,15.594 5.05,23.063 8.22,39 l 39.75,27.813 c 3.17,2.199 5.26,5.66 5.8,9.41 l 27.78,194.66 c 16.86,-9.121 34.21,-18.992 39.38,-23.25" /><path
         id="path46"
         style="fill:#e5c9a3;fill-opacity:1;fill-rule:nonzero;stroke:none"
         d="m 409.371,574.648 c 1.988,-7.039 4.078,-14.07 6.238,-21 -21.39,-6.277 -64.949,-12.296 -84.648,-8.859 -16.332,16.449 -46.789,129.66 -53.449,189.781 -5.434,48.711 -1.621,59.239 3.328,63.34 5.75,4.828 27.281,17.078 45.93,27.07 l 25.191,-204.492 c 0.48,-3.929 2.57,-7.41 5.859,-9.668 l 51.551,-36.172" /><path
         id="path48"
         style="fill:#e5c9a3;fill-opacity:1;fill-rule:nonzero;stroke:none"
         d="m 1213.47,571.789 -1.51,-13.051 c 0,0 -45.81,-42.476 -119.56,-51.988 -73.75,-9.5 -131.709,35.82 -131.709,35.82 2.418,-7.879 5.86,-25.672 22.559,-40.859 -19.648,2.348 -40.871,3.93 -63.129,3.93 -8.043,0 -16.16,-0.231 -24.012,-0.61 -45.39,-2.371 -109.238,-71 -154.14,-140.14 C 719.941,357.922 651.078,336.059 571.371,312.52 496.969,415.609 460.391,520.941 456.68,531.84 l 0.05,0.058 c -1.5,4.192 -3.011,8.391 -4.41,12.684 l 19.129,-13.383 0,-0.051 47.262,-33.089 15.801,-11.008 c 2.359,-1.672 5.148,-2.531 7.937,-2.531 1.02,0 2.039,0.109 3.051,0.308 l 434.352,96.703 c 4.867,1.071 8.808,4.731 10.25,9.5 l 61.938,203.899 c 10.69,1.449 20.08,2.199 28.14,2.199 8.01,0 17.46,-0.75 28.15,-2.199 l 63.74,-209.969 c 1.62,-5.32 6.24,-9.191 11.71,-9.77 l 29.69,-3.402" /><path
         id="path50"
         style="fill:#e5c9a3;fill-opacity:1;fill-rule:nonzero;stroke:none"
         d="m 1709.26,583.07 14.02,9.84 c -2.32,-9.73 -4.84,-19.398 -7.47,-28.961 -19.49,-62.48 -42.5,-117.738 -68.05,-166.558 -5.65,-0.391 -11.61,-0.61 -18,-0.61 -19.72,0 -39.86,1.668 -62.15,3.707 -38.68,3.551 -100.07,10.582 -119.46,12.832 -16.7,13.321 -73.85,58.731 -121.4,96.149 -1.87,1.511 -3.48,2.91 -5.05,4.203 -8.37,7.078 -17.89,15.129 -37.17,15.129 -17.51,0 -43.08,-6.379 -104.89,-25.082 32.12,24.011 32.33,55 32.33,55 l 1.51,13.051 407.48,-46.29 c 3.32,-0.378 6.76,0.481 9.55,2.411 l 40.94,28.679 37.81,26.5" /><path
         id="path52"
         style="fill:#e9d586;fill-opacity:1;fill-rule:nonzero;stroke:none"
         d="m 1409.37,1440.36 c 1.24,-36.25 0.33,-101.94 -16.55,-163.45 -0.68,-2.37 -0.58,-4.79 0,-7.04 -21.48,2.26 -42.97,4.19 -64.46,5.91 24.12,50.54 29.38,104.36 30.52,123.32 18.52,13.17 36.96,28.96 50.49,41.26" /><path
         id="path54"
         style="fill:#e9d586;fill-opacity:1;fill-rule:nonzero;stroke:none"
         d="m 794.559,1399.11 c 1.121,-18.96 6.382,-72.67 30.461,-123.17 -21.489,-1.71 -42.969,-3.7 -64.411,-5.96 0.582,2.21 0.653,4.57 0,6.94 -16.859,61.39 -17.718,127.14 -16.539,163.45 13.532,-12.31 31.899,-28.1 50.489,-41.26" /><path
         id="path56"
         style="fill:#2a2c30;fill-opacity:1;fill-rule:nonzero;stroke:none"
         d="m 1383.47,825.762 c 12.09,0.269 21.75,10.258 21.54,22.347 -0.21,12.141 -10.2,21.813 -22.35,21.532 -12.13,-0.2 -21.75,-10.2 -21.52,-22.34 0.21,-12.082 10.2,-21.762 22.33,-21.539 z m 134.88,-98.782 c -28.9,13.961 -60.59,-3.769 -118.28,-4.839 -42.92,-1.512 -78.96,-1.981 -81.32,65.429 -2.37,67.469 25.13,123.258 68.05,124.782 42.92,1.5 82.07,-52 87.35,-119.313 1.45,-18.539 -0.6,-32.07 -5.21,-42.098 39.96,4.77 48.99,-22.351 49.41,-23.961" /><path
         id="path58"
         style="fill:#f1fafc;fill-opacity:1;fill-rule:nonzero;stroke:none"
         d="m 1382.66,869.719 c 12.11,0.222 22.11,-9.418 22.33,-21.528 0.22,-12.121 -9.42,-22.121 -21.53,-22.339 -12.12,-0.223 -22.12,9.418 -22.34,21.527 -0.22,12.121 9.42,22.121 21.54,22.34" /><path
         id="path60"
         style="fill:#2a2c30;fill-opacity:1;fill-rule:nonzero;stroke:none"
         d="m 768.5,809.488 c 12.09,0.313 21.648,10.434 21.328,22.512 -0.328,12.141 -10.406,21.699 -22.5,21.371 -12.148,-0.312 -21.719,-10.41 -21.387,-22.5 0.321,-12.152 10.418,-21.711 22.559,-21.383 z m 66.34,-35.289 c 0.629,-67.469 -35.09,-63.39 -78.059,-63.808 -4.351,-0.11 -8.48,-0.161 -12.582,-0.219 -4.82,-0.113 -9.437,-0.16 -13.898,-0.051 -41.68,0.051 -68.332,1.938 -91.903,-10.793 0.582,1.453 10.903,24.613 48.352,34 -4.141,9.141 -6.73,21.813 -7.422,39.371 -2.566,67.41 39,122.692 81.973,123.063 42.918,0.418 72.89,-54.114 73.539,-121.563" /><path
         id="path62"
         style="fill:#f1fafc;fill-opacity:1;fill-rule:nonzero;stroke:none"
         d="m 767.363,853.34 c 12.117,0.308 22.196,-9.258 22.508,-21.379 0.313,-12.121 -9.262,-22.191 -21.379,-22.512 -12.121,-0.308 -22.195,9.262 -22.508,21.379 -0.312,12.121 9.258,22.203 21.379,22.512" /><path
         id="path64"
         style="fill:#ebdb8b;fill-opacity:1;fill-rule:nonzero;stroke:none"
         d="m 495.199,1225.15 -4.984,9.41 -0.199,24.73 12.996,146.99 225.617,54.64 14.043,-189.7 c -10.934,14.83 -27.313,48.4 -37.461,94.46 -5.43,24.6 -22.871,31.61 -42.945,31.61 -17.512,0 -37.024,-5.34 -52.297,-8.97 -32.797,-7.81 -75.739,-18.74 -82.758,-35.91 -13.633,-33.31 -20.301,-120.23 -20.301,-120.23 l -11.711,-7.03" /><path
         id="path66"
         style="fill:#ebdb8b;fill-opacity:1;fill-rule:nonzero;stroke:none"
         d="m 1660.26,1225.15 -11.71,7.03 c 0,0 -6.66,86.92 -20.29,120.23 -7.03,17.17 -49.97,28.1 -82.75,35.91 -15.28,3.63 -34.8,8.97 -52.31,8.97 -20.08,0 -37.52,-7.01 -42.95,-31.61 -10.13,-46.06 -26.54,-79.63 -37.48,-94.46 l 14.07,189.7 225.62,-54.64 11.07,-125.3 -0.41,-50.42 -2.86,-5.41" /><path
         id="path68"
         style="fill:#ebdc8c;fill-opacity:1;fill-rule:nonzero;stroke:none"
         d="m 1307.26,1259.2 -454.819,0.84 -23.57,53.07 -16.851,90.96 -37.071,29.47 -0.847,211.83 52.199,154.38 c 0,0 8.578,-454.7 114.84,-454.7 106.259,0 127.519,0 127.519,0 l 21.25,0 c 0,0 21.24,0 127.5,0 106.26,0 112.24,454.9 112.24,454.9 l 69.12,-255 -50.23,-143.41 -2.54,-40.43 -17.69,-64 -21.05,-37.91" /><path
         id="path70"
         style="fill:#ebdc8c;fill-opacity:1;fill-rule:nonzero;stroke:none"
         d="m 1769.75,1178 c 0,0 -6.43,3.14 -25.72,12.57 l 0,0 c 0,0 25.73,-12.57 25.72,-12.57 m -25.72,12.57 -81.03,24.44 0.12,15.55 4.17,7.86 -3.76,42.56 0.76,94.81 c 0,0 21.87,-156.92 79.74,-185.22" /><path
         id="path72"
         style="fill:#ead687;fill-opacity:1;fill-rule:nonzero;stroke:none"
         d="m 1663.12,1230.56 0.41,50.42 3.76,-42.56 -4.17,-7.86" /><path
         id="path74"
         style="fill:#ebdc8c;fill-opacity:1;fill-rule:nonzero;stroke:none"
         d="m 383.605,1178 25.723,12.57 0,0 C 390.039,1181.14 383.605,1178 383.605,1178 m 25.723,12.57 c 57.883,28.3 79.75,185.22 79.75,185.22 l 0.938,-116.5 -1.844,-20.87 2.043,-3.86 0.156,-19.55 -81.043,-24.44" /><path
         id="path76"
         style="fill:#ead687;fill-opacity:1;fill-rule:nonzero;stroke:none"
         d="m 490.215,1234.56 -2.043,3.86 1.844,20.87 0.199,-24.73" /><path
         id="path78"
         style="fill:#2a2c30;fill-opacity:1;fill-rule:nonzero;stroke:none"
         d="m 735.68,1267.3 -0.981,2.47 c -19.75,71.87 -18.89,147.23 -17.121,181.99 l -205.137,-58.33 c -13.8,-89.82 -7.363,-155.83 -5.972,-167.97 17.031,4.62 34.109,8.87 51.312,12.84 28.348,6.28 56.93,11.54 85.559,16.38 28.691,4.78 57.469,8.43 86.262,11.92 2.046,0.27 4.039,0.42 6.078,0.7 z m 89.332,8.64 c -24.082,50.5 -29.34,104.22 -30.461,123.17 -18.582,13.16 -36.961,28.95 -50.492,41.25 -1.188,-36.31 -0.321,-102.06 16.543,-163.45 0.648,-2.37 0.578,-4.73 0,-6.94 21.449,2.27 42.918,4.25 64.41,5.97 z m 567.798,0.98 c 16.88,61.5 17.79,127.2 16.55,163.45 -13.53,-12.3 -31.97,-28.09 -50.49,-41.25 -1.14,-18.96 -6.4,-72.78 -30.52,-123.32 21.49,-1.73 42.98,-3.66 64.46,-5.91 -0.58,2.24 -0.68,4.65 0,7.03 z m 254.09,-51.51 c 1.4,12.07 7.89,78.09 -5.91,168.01 l -205.2,58.33 c 1.84,-34.75 2.65,-110.12 -17.07,-181.99 l -1.01,-2.58 c 2.03,-0.21 4.08,-0.37 6.06,-0.64 57.69,-6.61 115.11,-15.84 171.89,-28.3 17.12,-3.98 34.26,-8.23 51.24,-12.83 z m 32.97,-9.68 c 27.55,-9.02 55.26,-18.58 80.36,-33.25 -13.43,5.32 -27.29,9.13 -41.26,12.57 -13.91,3.55 -27.93,6.55 -42.01,9.24 -28.2,5.31 -56.5,9.82 -84.98,13.27 -28.41,3.7 -56.87,6.82 -85.46,9.24 -28.58,2.41 -57.09,4.83 -85.73,6.5 -114.46,7.04 -229.24,8.8 -344.1,8.92 -114.831,-0.06 -229.62,-2.21 -344.088,-8.97 -28.622,-1.66 -57.153,-4.09 -85.723,-6.51 -28.57,-2.41 -57.098,-5.48 -85.457,-9.23 -28.473,-3.45 -56.781,-7.96 -84.981,-13.27 -14.07,-2.64 -28.101,-5.7 -42.062,-9.19 -13.91,-3.44 -27.828,-7.25 -41.258,-12.57 25.09,14.66 52.801,24.27 80.41,33.31 2.321,0.75 4.668,1.39 7.028,2.14 l -0.43,1.77 c -0.481,3.17 -10.688,78.59 7.09,186.45 0.859,5.16 4.562,9.35 9.621,10.75 l 29.172,8.31 c 6.34,226.25 99.519,332.66 102.429,335.94 -83.261,-133.97 -82.5,-292.86 -81.062,-329.86 l 181.281,51.52 0.418,0.1 2.262,0.32 0.75,0.06 c 0.922,0.05 1.949,-0.06 2.969,-0.27 l 0.531,-0.16 2.238,-0.75 0.863,-0.49 1.77,-1.12 0.488,-0.33 0.321,-0.32 0.539,-0.44 c 0.121,-0.16 4.941,-4.93 12.621,-12.09 -1.821,59.73 1.019,231.08 82.621,373.1 -1.723,-4.98 -66.461,-194.28 -44.153,-406.45 7.243,-5.8 14.864,-11.49 22.293,-16.49 3.59,-2.47 5.797,-6.55 5.848,-10.9 0.063,-0.7 1.609,-68.33 31.481,-125.86 0.421,-0.86 0.742,-1.77 1.019,-2.68 74.289,5.05 148.781,7.09 223.121,7.14 74.36,-0.05 148.8,-2.2 223.07,-7.31 0.27,0.97 0.6,1.93 1.09,2.85 29.86,57.53 31.42,125.16 31.42,125.86 0.1,4.36 2.31,8.43 5.91,10.9 7.41,5 14.93,10.69 22.24,16.49 22.34,212.17 -42.4,401.47 -44.11,406.45 81.53,-142.01 84.44,-313.36 82.62,-373.1 7.62,7.15 12.46,11.92 12.61,12.09 l 0.53,0.44 0.33,0.32 0.49,0.33 1.77,1.18 0.81,0.43 2.36,0.8 0.49,0.11 c 0.96,0.21 2,0.32 2.96,0.27 l 0.7,-0.06 2.31,-0.32 0.42,-0.1 181.29,-51.52 c 1.46,37 2.21,195.9 -81.04,329.86 2.89,-3.28 96.09,-109.69 102.37,-335.94 l 29.22,-8.31 c 4.99,-1.4 8.75,-5.59 9.62,-10.75 17.77,-107.86 7.52,-183.28 7.08,-186.45 l -0.42,-1.82 c 2.39,-0.7 4.7,-1.39 7.07,-2.15" /><path
         id="path80"
         style="fill:#2a2c30;fill-opacity:1;fill-rule:nonzero;stroke:none"
         d="m 1256.67,1659.92 0,97.89 -352.24,0 0,-97.89 48.16,0 0,49.74 99.64,0 0,-302.25 -41,0 0,-56.06 138.65,0 0,56.06 -41,0 0,302.25 99.64,0 0,-49.74 48.15,0 z m 36.26,134.08 0,-170.25 -120.68,0 0,49.74 -27.2,0 0,-229.81 41.09,0 0,-128.5 -211.089,0 0,128.5 40.919,0 0,229.8 -27.111,0 0,-49.74 -120.597,0 0,170.26 424.668,0" /><path
         id="path82"
         style="fill:#cd2445;fill-opacity:1;fill-rule:nonzero;stroke:none"
         d="m 1256.67,1757.82 0,-97.9 -48.16,0 0,49.74 -99.64,0 0,-302.25 41,0 0,-56.06 -138.64,0 0,56.06 41,0 0,302.25 -99.64,0 0,-49.74 -48.16,0 0,97.9 352.24,0" /><path
         id="path84"
         style="fill:#5d6762;fill-opacity:1;fill-rule:nonzero;stroke:none"
         d="m 306.941,1052.54 c 17.59,3.99 41.36,9.07 70.508,14.7 -17.91,-12.21 -39.09,-27.54 -62.219,-45.97 l -8.289,31.27" /><path
         id="path86"
         style="fill:#c4af90;fill-opacity:1;fill-rule:nonzero;stroke:none"
         d="m 951.109,585.93 c 0,0 4.922,-31.649 -39.379,-45.192 -44.281,-13.547 -324.82,-97.16 -356.82,-92.629 -31.988,4.512 -113.191,58.743 -113.191,58.743 l -19.688,70.039 120.16,-74.922 408.918,83.961" /><path
         id="path88"
         style="fill:#c4af90;fill-opacity:1;fill-rule:nonzero;stroke:none"
         d="m 1202.42,592.059 c 0,0 -3.54,-31.821 41.31,-43.45 44.84,-11.609 328.75,-82.949 360.5,-77.039 31.76,5.91 110.53,63.61 110.53,63.61 l 16.63,70.84 -110.45,-65.879 -418.52,51.918" /><path
         id="path90"
         style="fill:#c4af90;fill-opacity:1;fill-rule:nonzero;stroke:none"
         d="m 284.121,644.172 c 0,0 38.867,-77.75 101.66,-50.832 l 44.848,-16.449 -4.481,-32.903 -94.187,-11.949 -25.41,14.941 -22.43,97.192" /><path
         id="path92"
         style="fill:#c4af90;fill-opacity:1;fill-rule:nonzero;stroke:none"
         d="m 1875.51,665.512 c 0,0 -63.53,-81.153 -126.32,-54.242 l -20.19,-13.02 4.48,-32.891 94.19,-11.961 25.4,14.954 22.44,97.16" /><path
         id="path94"
         style="fill:#c4af90;fill-opacity:1;fill-rule:nonzero;stroke:none"
         d="m 892.789,54.6914 c 0,0 230.301,-116.1133 491.061,41.8789 l -83.74,5.7107 c 0,0 -182.72,-72.3201 -327.38,-32.3513 L 892.789,54.6914" /><path
         id="path96"
         style="fill:#2a2c30;fill-opacity:1;fill-rule:nonzero;stroke:none"
         d="m 377.449,1067.24 c -29.148,-5.64 -52.918,-10.71 -70.508,-14.7 l 8.289,-31.27 c 23.129,18.44 44.309,33.76 62.219,45.97 z m 38.153,-513.599 c -2.18,6.929 -4.243,13.98 -6.211,21.019 l -51.621,36.121 c -3.27,2.278 -5.34,5.75 -5.86,9.688 l -25.16,204.492 c -18.641,-9.992 -40.172,-22.25 -45.922,-27.07 -4.969,-4.09 -8.75,-14.602 -3.359,-63.321 6.679,-60.101 37.121,-173.332 53.48,-189.789 19.68,-3.472 63.27,2.578 84.653,8.86 z m 308.5,541.969 c 38.25,10.72 77.707,20.09 118.128,27.96 -57.98,-2.12 -116,-4.81 -173.929,-8.08 -33.66,-1.86 -67.153,-4.14 -100.653,-6.67 -16.777,-1.29 -33.449,-2.63 -50.07,-4.45 -4.758,-0.46 -9.418,-0.98 -14.18,-1.6 C 459.711,1076.63 292.129,971.43 177.09,833.879 288.879,911.57 483.629,1028.31 724.102,1095.61 Z m -21.59,-99.489 c 32.508,32.249 66.047,58.859 95.668,79.669 -114.149,-26.51 -219.231,-65.43 -311.282,-107.778 59.891,9.679 132.422,19.769 215.614,28.109 z m 438.138,131.439 c -23.1,0.36 -46.23,0.57 -69.33,0.62 l -0.05,0 c -33.9,-0.05 -67.87,-0.41 -101.891,-1.09 l -62.688,-29.71 -0.882,-0.48 c -9.418,-4.6 -91.739,-46.13 -169.188,-120.209 69.43,36.499 171.457,84.179 291.529,121.149 35.97,11.02 73.66,21.18 112.5,29.72 z m -38.16,-187.88 c 18.27,11.031 35.82,23.66 52.49,37.121 -23.87,0.41 -48.09,0.719 -72.78,0.719 -101.372,0 -196.059,-4.149 -281.891,-10.61 -86.098,-42.09 -138.75,-76.719 -139.981,-77.601 l -82.68,-55.137 56.793,81.488 c 9.368,13.531 19.309,26.36 29.559,38.57 -95.359,-10.66 -174.77,-23.289 -234.102,-34.218 l 30.383,-246.321 104.528,-73.211 331.839,73.782 62.122,204.636 c 1.039,3.372 3.308,6.211 6.269,7.93 0.981,0.633 2.02,1.094 3.152,1.402 1.918,0.52 35.099,9.989 73.359,14.649 l 60.94,36.801 z m 33.54,-786.321 c 10.56,0.832 21.17,2.18 31.84,3.782 -13.83,14.379 -26.04,27.75 -35.68,38.57 -4.71,-10.82 -10.96,-25.051 -19.2,-43.391 l 2.43,0 c 6.58,-0.011 13.78,0.711 20.61,1.039 z m 174,-74.609 c -45.03,3.3203 -85.98,22.051 -119.03,54.77 -1.71,1.75 -3.36,3.429 -5.02,5.121 -15.98,-3.211 -32.19,-5.59 -48.81,-7.039 -6.98,-0.262 -13.61,-0.872 -20.91,-0.872 l -10.83,-0.109 -4.13,0.109 C 1057.34,65.3398 959.711,52.6016 955.25,52.0313 951.219,51.5703 947.91,51 943.34,50.1719 997.762,35.2617 1053.3,28.7891 1108.08,32.4688 1163,36.1406 1234.35,48.0508 1310.03,78.75 Z m -35.87,1020.85 c 3.77,4.71 7.29,9.26 10.44,13.4 -32.81,-3.31 -65.12,-8.08 -96.7,-14.08 -108.14,-20.24 -208.009,-53.89 -291.099,-88.37 58.871,2.85 120.779,4.55 185.399,4.55 39.08,0 77.08,-0.67 114.04,-1.76 31.79,30.56 58.61,61.82 77.92,86.26 z m 298.76,9.26 -0.31,0.12 c -32.72,2.43 -65.43,4.66 -98.26,6.51 -45.55,2.6 -91.12,4.77 -136.67,6.68 -2.65,-3.94 -8.02,-11.7 -15.74,-22.25 -24.79,-33.55 -73.98,-95.1 -137.04,-147.291 89.26,16 244.09,55.601 378.03,149.051 3.36,2.38 6.68,4.86 9.99,7.18 z m 150.34,-515.93 -14.04,-9.828 -37.79,-26.512 -40.95,-28.68 c -2.79,-1.922 -6.21,-2.801 -9.54,-2.43 l -407.46,46.329 -29.66,3.371 c -5.49,0.629 -10.1,4.461 -11.71,9.769 l -63.77,209.981 c -10.66,1.449 -20.14,2.191 -28.1,2.191 -8.09,0 -17.51,-0.73 -28.17,-2.191 L 990.148,591.012 c -1.449,-4.762 -5.378,-8.391 -10.25,-9.461 L 545.551,484.828 c -1.031,-0.199 -2.063,-0.297 -3.051,-0.297 -2.789,0 -5.59,0.828 -7.98,2.528 l -15.782,10.98 -47.258,33.07 0,0.11 -19.101,13.351 c 1.351,-4.3 2.891,-8.5 4.41,-12.679 l -0.059,-0.063 c 3.68,-10.918 40.282,-116.219 114.668,-219.289 79.672,23.5 148.582,45.352 170.571,52.34 44.883,69.172 108.769,137.769 154.179,140.141 7.813,0.371 15.954,0.609 24.024,0.609 22.207,0 43.437,-1.598 63.098,-3.93 -16.711,15.172 -20.129,32.981 -22.559,40.852 0,0 57.929,-45.301 131.699,-35.84 73.78,9.527 119.59,52.039 119.59,52.039 0,0 -0.21,-31.02 -32.36,-55.031 61.82,18.691 87.39,25.109 104.89,25.109 19.31,0 28.83,-8.078 37.17,-15.187 1.61,-1.289 3.22,-2.68 5.07,-4.192 47.53,-37.418 104.68,-82.828 121.41,-96.14 19.36,-2.27 80.75,-9.258 119.43,-12.829 22.3,-2.011 42.45,-3.718 62.17,-3.718 6.37,0 12.33,0.258 17.97,0.629 25.58,48.8 48.57,104.109 68.08,166.531 2.61,9.598 5.16,19.277 7.43,29.008 z m -23.03,118.449 29.92,209.48 c -84.39,15.36 -207.8,33.942 -358.97,45.539 -136.47,-47.07 -250.77,-61.078 -257.66,-61.546 l -7.97,-0.571 c 43.53,-3.742 84.54,-15.441 86.6,-16.051 4.52,-1.351 8.04,-4.808 9.44,-9.332 l 61.86,-203.66 331.38,-37.636 105.4,73.777 z m 80.7,-44.109 33.85,236.761 c -15.06,3.258 -34.31,7.289 -57.31,11.688 L 1726.88,701.5 c -0.57,-3.781 -2.65,-7.25 -5.75,-9.43 l -114.72,-80.23 c -2.7,-1.918 -6.16,-2.801 -9.47,-2.43 l -345.72,39.289 c -5.54,0.629 -10.15,4.461 -11.76,9.731 l -62.27,205 c -16.68,4.308 -59.49,14.3 -96.96,14.3 -37.64,0 -80.41,-9.992 -97.082,-14.3 l -62.277,-205 c -1.09,-3.559 -3.582,-6.532 -6.82,-8.219 -1.039,-0.57 -2.231,-0.981 -3.43,-1.25 L 564.898,572.039 c -1.089,-0.219 -2.019,-0.328 -3.058,-0.328 -2.789,0 -5.59,0.828 -7.918,2.5 L 439.25,654.5 c -3.211,2.23 -5.34,5.75 -5.852,9.68 l -30.91,250.718 c -12.84,-2.488 -24.429,-4.867 -34.789,-7.027 -7.34,-4.051 -14.597,-8.09 -21.738,-12.133 l 32.809,-265.679 166.66,-116.75 420.468,93.543 62.072,204.488 c 1.56,5.14 5.85,8.922 11.08,9.75 15.74,2.531 29.5,3.82 41.16,3.82 11.53,0 25.36,-1.289 41.05,-3.82 5.28,-0.828 9.57,-4.61 11.08,-9.75 L 1196,601.781 1618.82,553.699 1780.93,667.27 Z m 46.8,272.371 29.77,112.899 c -43.18,9.78 -122.7,26.15 -231,41.48 -55.3,-39.76 -115.82,-71.55 -175.3,-96.911 181.99,-17.711 315.7,-44.058 376.53,-57.468 z m 51.61,-176.481 c 4.56,50.52 0.58,61.391 -4.55,65.539 -5.13,4.301 -22.47,14.121 -39.35,23.289 l -27.79,-194.636 c -0.52,-3.782 -2.65,-7.211 -5.8,-9.422 l -39.77,-27.809 c -3.15,-15.93 -4.29,-23.449 -8.17,-39.031 22.73,-5.281 59.99,-9.379 77.75,-5.949 16.12,17.48 42.14,126.097 47.68,188.019 z m 119.95,480.31 c 1.46,-29.14 0.68,-58.33 -2.58,-87.33 -3.05,-28.94 -8.54,-57.62 -16.19,-86.05 -4,-14.14 -8.6,-28.11 -14.04,-41.98 -2.75,-6.93 -5.69,-13.83 -8.9,-20.71 -1.61,-3.41 -3.31,-6.78 -5.23,-10.252 l -2.84,-5.117 c -1.04,-1.859 -1.87,-3.261 -3.48,-5.742 l -2.94,-4.57 -4.61,-2.367 c -4.92,-2.543 -8.95,-4.454 -13.42,-6.532 l -12.98,-5.851 c -8.71,-3.719 -17.45,-7.239 -26.2,-10.649 -6.11,-2.39 -11.5,-4.57 -16.62,-6.742 l -14.44,-54.867 c -0.36,0.09 -4.71,1.199 -12.83,3.148 l -0.78,-5.738 c 15.94,-8.332 47.26,-25.223 57.93,-34.031 21.48,-17.75 22.99,-45.871 18.23,-98.41 -2.44,-26.969 -11.39,-79.461 -23.81,-127.668 -21.44,-82.981 -32.83,-92.731 -47.53,-96.492 -7.46,-1.918 -18.94,-3.829 -30.08,-3.829 -22.66,0 -53.53,-0.632 -74.29,4.387 -5.33,-18.879 -20.55,-68.117 -50.68,-129.617 1.51,0.73 3,1.348 4.35,2.07 37.17,19.52 108.61,50.641 111.62,51.989 l 56.43,24.519 -28.9,-54.348 c -0.67,-1.179 -62.64,-117.73 -100.59,-193.832 -37.69,-75.379 -108.35,-91.789 -150.65,-101.507 -6.37,-1.512 -12.41,-2.911 -17.33,-4.25 -30.35,-8.543 -91.8,-23.192 -145.99,-36.2309 l -1.97,-0.4219 C 1384.6,73.8398 1348.21,55.4609 1308.4,40.3398 1162.72,-14.8398 1009.17,-11.7383 869.961,39.4219 847.352,36.5117 817.621,32.9492 778.031,28.4492 760.828,26.5313 744.109,25.5391 728.18,25.5391 595.539,25.5391 525.238,92.8984 473.93,158.852 419,229.469 351.809,334.309 348.961,338.699 l -38.961,60.77 65.852,-29.61 c 31.519,-14.187 125.238,-57.57 152.046,-70 2.172,0.61 4.301,1.243 6.422,1.86 -44.57,63.57 -81.121,136.051 -106.949,216.34 -21.949,-6.618 -55.762,-11.75 -82.062,-11.75 -9.61,0 -18.219,0.722 -24.84,2.281 -14.707,3.359 -31.481,17.539 -54.309,97.949 -13.25,46.68 -23.14,97.641 -26.031,123.871 -5.699,51.211 -4.66,78.641 16.621,96.36 12.828,10.71 56.109,33.441 65.07,38.089 l -1.922,15.801 C 182.398,799.859 99.9883,728.461 98.3281,727 L 0,640.711 70.0508,751.18 c 55.4372,87.55 119.4802,158.32 178.3982,212.84 -2.437,0.98 -4.711,1.96 -7.097,2.941 l -12.993,5.848 c -4.449,2.082 -8.488,3.992 -13.398,6.531 l -4.609,2.371 -2.954,4.57 c -1.66,2.489 -2.378,3.879 -3.468,5.739 l -2.899,5.121 c -1.812,3.469 -3.582,6.839 -5.179,10.249 -3.274,6.89 -6.211,13.78 -8.903,20.71 -5.437,13.87 -10.051,27.84 -14.039,41.98 -7.711,28.43 -13.148,57.1 -16.199,86.05 -3.211,29 -4.039,58.19 -2.59,87.33 0.777,14.55 2.18,29.09 4.188,43.54 1.043,7.25 2.132,14.5 3.582,21.7 1.5,7.34 2.961,14.18 5.179,22.21 l 1.551,5.64 4.039,3.17 c 22.942,18.02 47.68,31.63 72.84,43.69 20.711,9.73 41.828,18.33 63.109,26.16 59.43,164.93 161.621,311.18 295.911,413.11 138.851,105.35 302.121,161.05 472.19,161.05 170.07,0 333.34,-55.7 472.18,-161.06 134.3,-101.93 236.49,-248.19 295.88,-413.07 21.33,-7.87 42.4,-16.41 63.16,-26.2 25.15,-12.06 49.9,-25.67 72.83,-43.69 l 4.04,-3.17 1.56,-5.64 c 2.27,-8.03 3.72,-14.87 5.17,-22.21 1.46,-7.2 2.6,-14.45 3.57,-21.7 2.03,-14.43 3.48,-28.97 4.19,-43.52 z M 404.988,1426.63 c -25.16,-10.14 -50.16,-20.6 -74.597,-32.09 -24.493,-11.19 -48.563,-23.2 -71.551,-36.6 -21.211,-12.22 -41.57,-25.63 -59.539,-40.76 -0.77,-4.55 -1.492,-9.52 -2.11,-14.23 -0.781,-6.67 -1.562,-13.36 -2.082,-20.09 -1.187,-13.46 -1.66,-27.03 -1.8,-40.59 -0.258,-27.13 1.601,-54.26 5.019,-81.12 3.723,-26.92 8.641,-53.69 15.942,-79.52 3.628,-12.95 7.671,-25.73 12.429,-38.04 2.332,-6.23 4.922,-12.28 7.621,-18.18 1.34,-2.94 2.739,-5.85 4.129,-8.64 l 1.723,-3.26 c 2.008,-1.04 4.09,-2.07 6.047,-3 l 12.062,-5.74 c 6.731,-3.11 16,-7.508 23.66,-10.93 l 1.239,1.14 -22.309,85.11 c 4.707,1.29 47.168,12.27 120.32,26.19 -5.902,1.09 -11.91,2.38 -17.75,3.79 -16.621,4.13 -33.089,9.21 -48.98,15.63 -7.871,3.36 -15.691,6.99 -23.09,11.19 -7.41,4.25 -14.711,9.05 -20.351,15.47 80.351,-26.24 246.371,-14.33 393.98,0.88 135.012,13.93 270.281,22.93 406.28,23.25 136,-0.31 271.38,-9.31 406.3,-23.25 147.7,-15.22 313.74,-27.13 394.06,-0.88 -5.64,-6.42 -12.93,-11.22 -20.34,-15.47 -7.39,-4.2 -15.22,-7.82 -23.09,-11.19 -15.95,-6.42 -32.36,-11.49 -49.03,-15.63 -2.44,-0.56 -4.92,-1.14 -7.41,-1.66 80.2,-14.86 126.89,-26.97 131.86,-28.32 l -21.38,-81.07 c 4.3,1.92 8.64,3.77 12.88,5.74 l 12.07,5.74 c 1.96,0.94 4.04,1.96 6.06,3 l 1.66,3.26 c 1.44,2.79 2.84,5.7 4.19,8.64 2.7,5.91 5.28,11.96 7.67,18.18 4.71,12.31 8.79,25.1 12.36,38.04 7.31,25.83 12.28,52.6 15.95,79.52 3.46,26.86 5.28,54 5.02,81.12 -0.1,13.56 -0.62,27.13 -1.76,40.59 -0.57,6.73 -1.3,13.41 -2.13,20.09 -0.57,4.71 -1.35,9.68 -2.13,14.23 -17.97,15.13 -38.31,28.53 -59.54,40.76 -22.99,13.4 -47.04,25.41 -71.59,36.6 -24.38,11.49 -49.43,21.95 -74.6,32.09 -12.59,5.08 -25.28,10.05 -38.01,14.76 -12.67,4.91 -25.52,9.56 -38.35,14.23 26.96,-4.45 53.69,-10.6 80.13,-17.39 17.24,-4.46 34.44,-9.48 51.41,-14.81 -121.1,316.58 -410.7,522.72 -726.85,522.72 -316.221,0 -605.76,-206.14 -726.838,-522.72 17.019,5.33 34.16,10.35 51.347,14.81 26.512,6.78 53.223,12.94 80.199,17.39 -12.898,-4.66 -25.679,-9.31 -38.418,-14.23 -12.679,-4.7 -25.351,-9.67 -37.992,-14.75 z M 1126.26,268.641 1142.2,249.648 c 0.36,-0.457 35.77,-42.597 79.06,-85.519 28.79,-28.527 63.57,-42.969 103.43,-42.969 13.61,0 27.91,1.75 42.35,5.231 13.4,3.257 27.96,6.73 42.87,10.3 53.84,12.868 114.82,27.489 144.38,35.77 5.85,1.66 12.38,3.148 19.25,4.719 39.35,9.09 93.29,21.629 121.87,78.89 21.49,42.969 50.47,98.739 71.97,139.61 -18.63,-8.59 -38.16,-17.899 -52.03,-25.2 -21.38,-11.23 -49.38,-16.671 -85.58,-16.671 -21.52,0 -42.66,1.812 -66.05,3.89 -46.75,4.301 -125.86,13.61 -126.67,13.723 l -6.06,0.668 -4.78,3.832 c -0.71,0.519 -70.03,55.75 -126.06,99.808 -2.27,1.86 -4.34,3.579 -6.21,5.129 -5.9,5.032 -5.9,5.032 -9.42,5.032 -17.97,0 -70.2,-16.2 -184.62,-51.672 l -7.03,-2.231 -6.89,2.602 c -0.78,0.262 -75.85,28.101 -165.808,28.101 -7.363,0 -14.703,-0.191 -21.852,-0.562 -9.011,-0.457 -59.582,-24.481 -124.25,-126.797 l -4.191,-6.57 -7.41,-2.383 C 761.398,326.012 650.09,290.078 532.051,256.328 l -7.66,-2.18 -7.25,3.372 c -0.77,0.312 -46.961,21.742 -90.911,41.941 23.969,-35.41 54.622,-79.582 81.59,-114.223 C 554.93,124.57 614.309,68.5 728.16,68.5 c 14.281,0 29.449,0.8789 45.031,2.6484 115.809,13.0899 145.629,18.3711 161.68,21.1719 5.43,0.918 9.731,1.711 15.219,2.3789 0.879,0.1094 95.71,12.3708 122.32,72.0628 27.44,61.34 32.98,75.949 33.19,76.508 l 9.68,25.832 c 0,0 1.2,6.687 3.17,8.769 l 0.05,-0.051 0.19,-0.16 c 3.05,-2.191 7.57,-9.019 7.57,-9.019" /></g></g></svg>