<?xml version="1.0" standalone="no"?>
<!DOCTYPE svg PUBLIC "-//W3C//DTD SVG 20010904//EN"
 "http://www.w3.org/TR/2001/REC-SVG-20010904/DTD/svg10.dtd">
<svg version="1.0" xmlns="http://www.w3.org/2000/svg"
 width="1024.000000pt" height="1024.000000pt" viewBox="0 0 1024.000000 1024.000000"
 preserveAspectRatio="xMidYMid meet">
<metadata>
Created by potrace 1.13, written by Peter Selinger 2001-2015
</metadata>
<g transform="translate(0.000000,1024.000000) scale(0.100000,-0.100000)"
fill="#000000" stroke="none">
<path d="M1881 7624 c-27 -34 -26 -57 2 -87 12 -14 708 -555 1547 -1202 839
-648 1545 -1196 1570 -1218 78 -68 134 -91 220 -92 64 0 83 4 126 28 28 16 73
48 100 71 27 23 735 573 1574 1220 839 648 1533 1187 1543 1198 24 28 21 55
-8 83 l-24 25 -3315 0 -3315 0 -20 -26z"/>
<path d="M1630 5316 c0 -1891 1 -1995 18 -2000 31 -9 354 -45 562 -63 259 -21
895 -24 1075 -5 906 99 1787 398 2668 909 147 85 364 222 759 482 597 391 917
559 1303 686 275 91 517 134 683 120 l82 -7 0 928 0 927 -22 -20 c-13 -11
-741 -654 -1618 -1428 -877 -775 -1622 -1433 -1655 -1463 -33 -29 -82 -66
-110 -80 -45 -24 -61 -27 -155 -27 -94 0 -110 3 -155 26 -30 17 -711 611
-1738 1518 -928 820 -1690 1491 -1692 1491 -3 0 -5 -897 -5 -1994z"/>
<path d="M8626 5024 c-168 -33 -343 -107 -646 -274 -1174 -645 -1555 -842
-2043 -1056 -863 -380 -1629 -587 -2447 -661 -244 -22 -943 -25 -1145 -5 -187
19 -388 48 -556 82 -80 17 -149 30 -153 30 -4 0 -6 -75 -4 -167 3 -161 4 -170
32 -226 19 -39 44 -71 78 -98 96 -76 -222 -69 3483 -67 l3330 3 46 21 c63 29
120 83 149 141 l25 48 3 1123 2 1122 -42 -1 c-24 0 -74 -7 -112 -15z"/>
</g>
</svg>
