<svg width="1024" height="1024" viewBox="0 0 1024 1024" xmlns="http://www.w3.org/2000/svg"><defs><linearGradient x1="50%" y1="0%" x2="50%" y2="100%" id="a"><stop stop-color="#666" offset="0%"/><stop stop-color="#111" offset="100%"/></linearGradient></defs><path d="M470.946 701H716v-.223c65.267-3.894 117-58.27 117-124.777 0-69.036-55.74-125-124.5-125-6.895 0-13.658.563-20.248 1.645.495-5.98.748-12.031.748-18.145C689 320.453 601.024 228 492.5 228c-105.007 0-190.777 86.559-196.225 195.484C236.155 433.365 190 491.394 190 561.5c0 77.044 55.74 139.5 124.5 139.5l.5-.001 42.9.001c2.849 9.552 4.606 18.26 4.606 25.209-.041 54.77-43.08 69.006-43.08 69.006s17.838 17.13 51.933 17.13c34.096 0 100.528-23.525 100.584-101.609 0-3.323-.343-6.568-.997-9.736zM0 64.007C0 28.657 28.659 0 64.007 0h895.986C995.343 0 1024 28.659 1024 64.007v895.986c0 35.35-28.659 64.007-64.007 64.007H64.007C28.657 1024 0 995.341 0 959.993V64.007z" fill="url(#a)" fill-rule="evenodd"/></svg>
