<?xml version="1.0" encoding="UTF-8" standalone="no"?>
<svg width="192" height="192" version="1.1" xmlns="http://www.w3.org/2000/svg" xmlns:xlink="http://www.w3.org/1999/xlink">
	<title>Zalo</title>
	    <g id="icon" transform="translate(0,192) scale(0.10000000149011612,-0.10000000149011612)" stroke="none" fill="018fe5" fill-opacity="1">
                <g id="Group">
			<path d="M188.53551959991455,1909 c-59,-17 -126,-71 -158,-129 l-31,-55 l-3,-744 c-3,-835 -5,-811 67,-893 c24,-27 61,-54 90,-67 c51,-21 51,-21 813,-19 c852,3 795,-2 871,75 c66,65 72,88 75,287 l4,180 l-59,-55 c-144,-133 -329,-220 -532,-250 c-154,-22 -373,4 -505,60 l-49,21 l-169,-51 c-93,-28 -172,-48 -175,-45 c-5,5 25,201 43,281 c4,14 -13,43 -51,90 c-71,89 -127,197 -161,310 c-24,80 -27,107 -27,235 c0,129 2,155 26,233 c66,215 198,396 375,512 c23,15 42,29 42,31 c0,8 -457,2 -486,-7 z" fill="#018fe5"/>
			<path d="M1271.5355195999146,1357 c-16,-11 -17,-35 -15,-242 l3,-230 l28,-3 c55,-7 57,0 57,239 c0,214 0,218 -22,233 c-27,19 -30,19 -51,3 z" fill="#018fe5"/>
			<path d="M536.5355195999146,1321 c-8,-5 -12,-21 -10,-37 l3,-29 l98,-3 c80,-2 98,-5 93,-17 c-3,-8 -50,-74 -105,-148 c-105,-139 -120,-176 -82,-197 c11,-5 84,-10 164,-10 c157,0 175,6 163,54 c-7,30 -30,36 -133,36 c-46,0 -83,2 -83,5 c0,3 40,59 89,123 c85,113 121,170 121,191 c0,5 -7,17 -16,25 c-12,13 -41,16 -152,16 c-75,0 -143,-4 -150,-9 z" fill="#018fe5"/>
			<path d="M944.5355195999146,1198 c-48,-33 -70,-81 -70,-153 c0,-72 22,-120 70,-152 c39,-27 105,-30 138,-7 c18,12 26,13 37,4 c8,-6 26,-10 42,-8 l28,3 l3,157 c2,151 2,157 -18,168 c-17,9 -27,8 -46,-5 c-22,-14 -27,-14 -46,0 c-33,22 -99,19 -138,-7 zm143,-90 c24,-29 23,-102 -3,-128 c-48,-48 -120,-11 -120,61 c0,49 14,77 43,89 c29,11 58,3 80,-22 z" fill="#018fe5"/>
			<path d="M1464.5355195999146,1197 c-52,-34 -75,-82 -75,-152 c0,-106 53,-166 152,-173 c48,-3 64,0 92,20 c62,42 76,71 76,153 c0,82 -14,111 -75,153 c-46,31 -124,31 -170,-1 zm113,-68 c76,-34 53,-169 -27,-169 c-82,0 -102,129 -26,167 c30,15 24,15 53,2 z" fill="#018fe5"/>
		</g>
	</g>
</svg>