<!DOCTYPE svg PUBLIC "-//W3C//DTD SVG 20010904//EN" "http://www.w3.org/TR/2001/REC-SVG-20010904/DTD/svg10.dtd">
<svg version="1.0" xmlns="http://www.w3.org/2000/svg" width="128px" height="128px" viewBox="0 0 1280 1280" preserveAspectRatio="xMidYMid meet">
<g id="layer1" fill="#fca327" stroke="none">
 <path d="M331 984 c-146 -106 -274 -202 -285 -213 -19 -20 -19 -20 15 -133 22 -71 40 -114 50 -115 8 -2 117 129 264 319 138 177 252 325 253 330 13 32 -67 -19 -297 -188z"/>
 <path d="M662 1166 c6 -28 493 -646 507 -643 22 3 88 214 75 235 -14 22 -555 420 -572 421 -8 1 -12 -5 -10 -13z"/>
 </g>
<g id="layer2" fill="#fc6d26" stroke="none">
 <path d="M613 1183 c-4 -10 -119 -161 -255 -336 -136 -174 -248 -322 -248 -327 0 -6 61 -10 159 -10 l159 0 85 263 c47 144 93 288 103 320 10 31 20 57 24 57 3 0 18 -39 34 -87 15 -49 62 -193 103 -320 l76 -233 158 0 c98 0 159 4 159 10 0 5 -110 150 -243 322 -134 172 -249 323 -256 336 -14 26 -49 29 -58 5z"/>
 </g>
<g id="layer3" fill="#e2442a" stroke="none">
 <path d="M622 1168 c-5 -13 -53 -161 -108 -330 l-99 -308 -148 0 c-126 0 -149 -2 -154 -16 -9 -23 119 -415 140 -428 12 -8 20 -7 30 4 8 8 43 106 78 217 l64 203 215 -1 215 0 68 -210 c40 -122 75 -213 83 -216 8 -3 20 0 27 6 19 15 141 406 134 425 -5 14 -28 16 -154 16 l-148 0 -105 327 c-58 180 -111 328 -118 331 -6 2 -16 -7 -20 -20z"/>
 </g>

</svg>
