<?xml version="1.0" encoding="UTF-8" standalone="no"?>
<!-- Created with Inkscape (http://www.inkscape.org/) -->

<svg
   xmlns:dc="http://purl.org/dc/elements/1.1/"
   xmlns:cc="http://creativecommons.org/ns#"
   xmlns:rdf="http://www.w3.org/1999/02/22-rdf-syntax-ns#"
   xmlns:svg="http://www.w3.org/2000/svg"
   xmlns="http://www.w3.org/2000/svg"
   xmlns:sodipodi="http://sodipodi.sourceforge.net/DTD/sodipodi-0.dtd"
   xmlns:inkscape="http://www.inkscape.org/namespaces/inkscape"
   width="72.248886mm"
   height="72.248886mm"
   viewBox="0 0 255.99999 255.99999"
   id="svg2"
   version="1.1"
   inkscape:version="0.91 r13725"
   sodipodi:docname="icon.svg">
  <defs
     id="defs4" />
  <sodipodi:namedview
     id="base"
     pagecolor="#ffffff"
     bordercolor="#666666"
     borderopacity="1.0"
     inkscape:pageopacity="0.0"
     inkscape:pageshadow="2"
     inkscape:zoom="0.49497475"
     inkscape:cx="106.92021"
     inkscape:cy="346.54568"
     inkscape:document-units="px"
     inkscape:current-layer="layer1"
     showgrid="false"
     fit-margin-top="0"
     fit-margin-left="0"
     fit-margin-right="0"
     fit-margin-bottom="0"
     inkscape:window-width="824"
     inkscape:window-height="1006"
     inkscape:window-x="845"
     inkscape:window-y="33"
     inkscape:window-maximized="0" />
  <metadata
     id="metadata7">
    <rdf:RDF>
      <cc:Work
         rdf:about="">
        <dc:format>image/svg+xml</dc:format>
        <dc:type
           rdf:resource="http://purl.org/dc/dcmitype/StillImage" />
        <dc:title></dc:title>
      </cc:Work>
    </rdf:RDF>
  </metadata>
  <g
     inkscape:label="Ebene 1"
     inkscape:groupmode="layer"
     id="layer1"
     transform="translate(-2.714273,-495.79078)">
    <g
       id="g3455"
       transform="translate(-11.428571,314.28571)">
      <path
         style="fill:#fdfdfd"
         d="m 14.142844,309.50507 0,-128 127.999996,0 128,0 0,128 0,128 -128,0 -127.999996,0 0,-128 z"
         id="path3471"
         inkscape:connector-curvature="0" />
      <path
         style="fill:#d0d0d0"
         d="m 96.866183,366.71118 c -37.251646,-16.76887 -43.735425,-19.99406 -43.5,-21.63796 0.201746,-1.40874 3.292514,-3.26363 11.414219,-6.8501 l 11.137558,-4.91824 32.70975,14.71627 c 26.88737,12.09676 33.09293,14.54379 34.86244,13.74725 1.18398,-0.53297 15.96086,-7.15841 32.83752,-14.7232 l 30.68483,-13.75418 11.61132,5.24816 c 8.55907,3.86858 11.52997,5.67107 11.30186,6.85702 -0.20294,1.05513 -15.41946,8.40636 -44.21134,21.35887 -24.14604,10.8625 -44.16505,19.73025 -44.4867,19.70611 -0.32164,-0.0241 -20.2843,-8.91164 -44.361457,-19.75 z m -0.01212,-35.95961 c -36.846766,-16.59038 -43.743003,-20.01489 -43.5,-21.60107 0.205273,-1.33991 3.508583,-3.31772 11.422836,-6.83927 l 11.134051,-4.95424 32.38087,14.57404 c 17.80947,8.01572 32.71064,14.57404 33.11371,14.57404 0.40307,0 14.34636,-6.12708 30.98508,-13.61574 16.63873,-7.48866 31.31149,-14.0203 32.60614,-14.51476 1.87639,-0.71663 4.66572,0.14817 13.75,4.26303 6.26785,2.83913 11.39609,5.75921 11.39609,6.48908 0,0.72987 -1.39757,2.04974 -3.10571,2.93306 -5.08613,2.63014 -84.98179,38.44695 -85.71728,38.42661 -0.37235,-0.0103 -20.38196,-8.89095 -44.465791,-19.73478 z m -0.503105,-36.06481 c -36.142699,-16.36654 -43.243684,-19.91096 -43,-21.46321 0.220325,-1.40346 10.884322,-6.62278 43.496951,-21.28889 23.762781,-10.68627 43.823431,-19.42959 44.579211,-19.42959 2.0181,0 85.95749,37.87718 87.68001,39.56511 1.28571,1.2599 1.28571,1.59907 0,2.78115 -1.87531,1.72415 -86.57219,39.68942 -88.22456,39.54654 -0.68185,-0.0589 -20.72108,-8.92895 -44.531612,-19.71111 z"
         id="path3469"
         inkscape:connector-curvature="0" />
      <path
         style="fill:#afafaf"
         d="M 97.642844,366.14297 C 71.817441,354.52918 54.526192,346.21138 54.350782,345.31771 c -0.202316,-1.03074 2.960484,-2.92064 10.292748,-6.15031 5.821645,-2.56428 10.929204,-4.66233 11.350132,-4.66233 0.420928,0 15.315086,6.55631 33.098128,14.56959 l 32.3328,14.56958 32.35188,-14.56958 c 17.79354,-8.01328 32.73219,-14.56959 33.19702,-14.56959 1.4234,0 20.28307,8.71372 21.50554,9.93619 0.86279,0.86279 0.77739,1.37793 -0.34455,2.07849 -2.28807,1.42869 -85.87578,38.98703 -86.73588,38.97291 -0.41567,-0.007 -20.10576,-8.71419 -43.755756,-19.34969 z m -0.5,-36.0722 C 72.482313,318.90175 54.523933,310.21316 54.359556,309.37145 c -0.239504,-1.2264 10.139463,-6.6122 20.131287,-10.44643 0.908856,-0.34876 15.313671,5.5817 34.236197,14.09504 l 32.66717,14.69712 17.12432,-7.69551 c 9.41837,-4.23253 24.22436,-10.88232 32.9022,-14.77731 l 15.77789,-7.0818 10.72211,4.96824 c 5.89716,2.73253 10.72211,5.54763 10.72211,6.25577 0,1.32791 -84.77838,40.06381 -87.5,39.97942 -0.825,-0.0256 -20.625,-8.70843 -43.999996,-19.29522 z m 0.0054,-35.93043 c -24.952831,-11.28692 -42.606739,-19.823 -42.766196,-20.67845 -0.192737,-1.03398 12.169551,-7.04416 42.591649,-20.70682 23.574763,-10.5875 43.719543,-19.22142 44.766173,-19.1865 3.37063,0.11248 86.90297,38.38438 86.90297,39.81622 0,1.38839 -84.68826,40.1336 -87.5,40.03159 -0.825,-0.0299 -20.62258,-8.70415 -43.994616,-19.27604 z"
         id="path3467"
         inkscape:connector-curvature="0" />
      <path
         style="fill:#8f8f8f"
         d="m 97.142844,365.49227 c -22.908087,-10.37823 -41.62859,-19.43034 -41.787032,-20.20569 -0.298354,-1.46001 17.289413,-9.78151 20.67356,-9.78151 0.954808,0 15.712629,6.3 32.795158,14 17.08252,7.7 31.74589,14 32.58526,14 0.83936,0 15.52145,-6.3 32.62685,-14 17.1054,-7.7 31.9702,-14 33.0329,-14 2.55586,0 21.0733,8.62087 21.0733,9.81076 0,1.33488 -84.54703,39.20996 -87.24424,39.08337 -1.24067,-0.0582 -20.93076,-8.56635 -43.755756,-18.90693 z m 0,-35.96824 c -22.825,-10.33716 -41.623808,-19.40776 -41.775129,-20.1569 -0.287062,-1.42113 17.3401,-9.86774 20.567743,-9.85568 0.939062,0.004 15.65533,6.30351 32.702822,14 17.04748,7.69649 31.74681,13.99362 32.66517,13.99362 0.91836,0 15.71205,-6.3 32.87487,-14 17.16282,-7.7 32.01924,-14 33.01426,-14 2.40026,0 20.95026,8.63896 20.95026,9.75679 0,1.08793 0.89505,0.66486 -46.01573,21.75028 -21.40502,9.62111 -39.94558,17.45104 -41.20125,17.39983 -1.25566,-0.0512 -20.95802,-8.55078 -43.783016,-18.88794 z m 0,-35.93048 C 73.591138,282.94385 55.535299,274.21749 55.39418,273.4165 55.2232,272.44601 68.62299,265.96583 98.286201,252.67379 l 43.140679,-19.33128 43.10798,19.39014 c 23.70939,10.66458 43.10798,19.95312 43.10798,20.64119 0,1.59105 -83.14313,39.1178 -86.5,39.04188 -1.375,-0.0311 -21.175,-8.50108 -43.999996,-18.82217 z"
         id="path3465"
         inkscape:connector-curvature="0" />
      <path
         style="fill:#6e6e6e"
         d="M 98.808992,365.63455 C 75.800373,355.2411 56.504033,346.26626 55.928235,345.69046 c -0.991239,-0.99124 4.830295,-4.13071 16.426967,-8.85884 l 3.712358,-1.51359 32.6849,14.66761 32.6849,14.6676 31.60274,-14.21782 c 17.38151,-7.8198 32.2976,-14.40639 33.14687,-14.63688 1.8358,-0.49822 20.95587,8.18012 20.95587,9.51158 0,0.80571 -81.08635,37.8621 -85,38.84492 -0.825,0.20718 -20.32523,-8.12704 -43.333848,-18.52049 z m -0.412717,-36.03192 c -22.685613,-10.27988 -41.76445,-19.20858 -42.397416,-19.84154 -1.150788,-1.15079 0.0172,-1.79243 15.310314,-8.41086 l 4.66633,-2.01946 32.680977,14.70333 c 26.76155,12.04015 33.07089,14.52985 34.83367,13.74559 1.18398,-0.52676 15.9498,-7.14993 32.81294,-14.71816 l 30.66026,-13.76042 9.76114,4.36618 c 5.36864,2.4014 9.92451,4.85626 10.12417,5.45525 0.36621,1.09862 -83.61121,39.47384 -85.95006,39.27666 -0.69067,-0.0582 -19.81672,-8.51668 -42.502325,-18.79657 z m 0.03269,-35.93829 c -22.667626,-10.2626 -41.739344,-19.19099 -42.381591,-19.84087 -0.893907,-0.90452 -0.374783,-1.51788 2.213874,-2.61573 1.859878,-0.78878 20.993191,-9.36956 42.518472,-19.06841 21.52528,-9.69884 39.8162,-17.63426 40.64649,-17.63426 2.70959,0 85.21663,37.64632 85.21663,38.88266 0,1.22418 -83.40247,39.19237 -85.72745,39.02661 -0.6999,-0.0499 -19.81879,-8.48739 -42.48642,-18.75 z"
         id="path3463"
         inkscape:connector-curvature="0" />
      <path
         style="fill:#4d4d4d"
         d="M 98.159682,364.73212 C 75.343943,354.43224 56.75376,345.60629 56.848164,345.11888 c 0.217299,-1.12189 16.705579,-8.61381 18.957363,-8.61381 0.923071,0 15.668357,6.3 32.767303,14 17.09894,7.7 31.83405,14 32.74468,14 0.91062,0 15.69799,-6.3 32.86081,-14 17.16282,-7.7 32.00619,-14 32.98526,-14 2.37349,0 18.97926,7.67264 18.97926,8.76931 0,1.05248 -82.61821,38.23995 -84.88491,38.20774 -0.8883,-0.0126 -20.28251,-8.45013 -43.098248,-18.75 z m 0.13533,-35.72943 C 76.103704,318.94138 57.523438,310.28566 57.005531,309.76776 c -0.982495,-0.9825 15.831996,-9.26269 18.809634,-9.26269 0.872767,0 15.563464,6.3 32.645995,14 17.08252,7.7 31.89155,14 32.90894,14 1.0174,0 15.89497,-6.32523 33.06128,-14.05606 22.10193,-9.95358 31.94112,-13.91322 33.71146,-13.56668 3.66355,0.71713 18,7.42794 18,8.42569 0,1.28156 -82.65675,38.21343 -85.25433,38.0925 -1.23512,-0.0575 -20.40219,-8.33653 -42.593498,-18.39783 z m -0.895499,-36.3424 c -22.683832,-10.26037 -41.246332,-18.93366 -41.25,-19.27398 -0.0037,-0.34032 19.157018,-9.2464 42.579302,-19.7913 l 42.585965,-19.17253 15.66403,6.99078 c 48.16336,21.49508 68.61121,30.93336 68.90119,31.80329 0.42513,1.27539 -81.96344,38.3175 -84.94999,38.19374 -1.25794,-0.0521 -20.84667,-8.48963 -43.530497,-18.75 z"
         id="path3461"
         inkscape:connector-curvature="0" />
      <path
         style="fill:#2b2b2b"
         d="m 100.18059,365.02782 c -22.254241,-10.06541 -41.107233,-18.7076 -41.89554,-19.20485 -1.049058,-0.66172 1.127002,-2.03136 8.117369,-5.10916 l 9.550655,-4.20508 32.193836,14.49817 c 17.7066,7.97399 32.67171,14.49817 33.2558,14.49817 0.58409,0 15.56347,-6.52429 33.28751,-14.49842 l 32.22554,-14.49843 8.84319,3.93737 c 4.86375,2.16556 8.94925,4.30235 9.07888,4.74843 0.19436,0.66881 -77.86554,36.24268 -82.69499,37.68621 -0.825,0.24659 -19.70801,-7.78699 -41.96225,-17.85241 z m 2.96225,-34.55706 C 82.517844,321.17 63.617844,312.59525 61.142844,311.41575 l -4.5,-2.14454 8.5,-3.97426 c 4.675,-2.18584 9.4,-3.9797 10.5,-3.98636 1.1,-0.007 16.097676,6.33437 33.328166,14.09118 17.23049,7.75682 31.84878,14.1033 32.48508,14.1033 0.6363,0 15.6556,-6.52559 33.37621,-14.50132 l 32.2193,-14.50132 9.04562,4.14375 c 4.97509,2.27907 9.04051,4.41716 9.03427,4.75132 -0.0101,0.54335 -79.32074,36.40598 -82.98865,37.52578 -0.825,0.25187 -18.375,-7.15177 -39,-16.45252 z m -3.499996,-37.57579 c -22.55,-10.17984 -41.322479,-18.82703 -41.716619,-19.21597 -1.168426,-1.15302 82.918785,-38.50049 84.953745,-37.73234 6.3077,2.38101 82.26162,36.96401 82.25639,37.45261 -0.006,0.58283 -82.97275,38.17947 -83.99352,38.06203 -0.275,-0.0316 -18.95,-8.38649 -41.499996,-18.56633 z"
         id="path3459"
         inkscape:connector-curvature="0" />
      <path
         style="fill:#1f1f1f"
         d="m 101.19474,364.55823 c -21.69646,-9.79732 -40.09271,-18.21992 -40.880556,-18.71688 -1.05319,-0.66433 0.814083,-1.90458 7.052631,-4.68437 l 8.48508,-3.78081 30.395475,13.69026 c 16.71751,7.52964 31.59017,14.11274 33.05035,14.62911 2.29325,0.81098 7.084,-1.0546 35.17099,-13.69605 l 32.51611,-14.63491 8.53008,3.78584 c 4.69154,2.08222 8.3454,3.97052 8.11969,4.19623 -0.61387,0.61387 -81.91128,37.16795 -82.49175,37.0911 -0.275,-0.0364 -18.25165,-8.08219 -39.9481,-17.87952 z m -0.5519,-36.16483 c -21.999996,-9.91347 -40.335132,-18.35148 -40.744742,-18.75115 -0.40961,-0.39967 3.002146,-2.41419 7.58168,-4.47672 l 8.326426,-3.75004 32.339926,14.54479 c 17.78696,7.99963 32.76222,14.54479 33.27835,14.54479 0.51614,0 15.47954,-6.54212 33.25201,-14.53803 l 32.31358,-14.53804 8.82365,3.98575 8.82364,3.98575 -3.49726,1.47351 c -1.92349,0.81043 -20.55743,9.15896 -41.40874,18.55229 -20.85131,9.39332 -38.17631,17.05915 -38.5,17.03517 -0.32369,-0.024 -18.58852,-8.15461 -40.58852,-18.06807 z m 0,-35.96228 c -21.999996,-9.92594 -40.327327,-18.36975 -40.727398,-18.76401 -0.579497,-0.57109 69.114788,-32.64059 79.346948,-36.51113 2.29374,-0.86766 7.67313,1.28595 43.25,17.3149 22.34675,10.0682 40.62864,18.5822 40.62642,18.92 -0.004,0.60703 -78.93977,36.3936 -81.2832,36.8508 -0.66702,0.13014 -19.21277,-7.88461 -41.21277,-17.81056 z"
         id="path3457"
         inkscape:connector-curvature="0" />
    </g>
  </g>
</svg>
