<?xml version="1.0" encoding="UTF-8"?>
<!DOCTYPE svg PUBLIC "-//W3C//DTD SVG 1.1//EN" "http://www.w3.org/Graphics/SVG/1.1/DTD/svg11.dtd">
<!-- Creator: CorelDRAW X7 -->
<svg xmlns="http://www.w3.org/2000/svg" xml:space="preserve" width="86.6986mm" height="86.6986mm" version="1.1" style="shape-rendering:geometricPrecision; text-rendering:geometricPrecision; image-rendering:optimizeQuality; fill-rule:evenodd; clip-rule:evenodd"
viewBox="0 0 8670 8670"
 xmlns:xlink="http://www.w3.org/1999/xlink">
 <defs>
  <style type="text/css">
   <![CDATA[
    .fil0 {fill:#134785}
    .fil1 {fill:#F79C0E}
   ]]>
  </style>
 </defs>
 <g id="Слой_x0020_1">
  <metadata id="CorelCorpID_0Corel-Layer"/>
  <rect class="fil0" width="8670" height="8670" rx="1050" ry="940"/>
  <path class="fil1" d="M3922 3098c1774,-261 2081,2230 526,2595 -1822,428 -2150,-2357 -526,-2595zm1598 2744c40,1033 984,1220 1639,437 526,-629 672,-1606 555,-2396 -243,-1646 -1485,-2749 -3132,-2887 -3979,-332 -5264,4840 -1978,6359 747,345 1729,481 2525,246 567,-167 585,-731 192,-796 -183,-30 -434,90 -619,128 -1757,370 -3792,-1260 -3043,-3414 923,-2654 4814,-2148 5275,277 98,517 33,2164 -715,2152 -148,-448 46,-2822 -83,-3105 -67,-145 -235,-186 -381,-149 -153,40 -180,165 -244,277 -1811,-1482 -3341,144 -3379,1363 -25,776 470,1519 1152,1851 1221,595 1981,-239 2236,-343z"/>
 </g>
</svg>
