<?xml version="1.0" encoding="UTF-8"?>
<!DOCTYPE svg PUBLIC "-//W3C//DTD SVG 1.1//EN" "http://www.w3.org/Graphics/SVG/1.1/DTD/svg11.dtd">
<!-- Creator: CorelDRAW X7 -->
<svg xmlns="http://www.w3.org/2000/svg" xml:space="preserve" width="1024px" height="1024px" version="1.1" style="shape-rendering:geometricPrecision; text-rendering:geometricPrecision; image-rendering:optimizeQuality; fill-rule:evenodd; clip-rule:evenodd"
viewBox="0 0 1024 1024"
 xmlns:xlink="http://www.w3.org/1999/xlink">
 <defs>
  <style type="text/css">
   <![CDATA[
    .fil1 {fill:white}
    .fil0 {fill:url(#id0)}
   ]]>
  </style>
  <linearGradient id="id0" gradientUnits="userSpaceOnUse" x1="512" y1="1024" x2="512" y2="-0.0011811">
   <stop offset="0" style="stop-opacity:1; stop-color:#6096FF"/>
   <stop offset="0.690196" style="stop-opacity:1; stop-color:#2C5FFF"/>
   <stop offset="1" style="stop-opacity:1; stop-color:#295CFF"/>
  </linearGradient>
 </defs>
 <g id="Слой_x0020_1">
  <metadata id="CorelCorpID_0Corel-Layer"/>
  <g id="_851048928">
   <circle class="fil0" cx="512" cy="512" r="512"/>
   <path class="fil1" d="M442 828l-108 71 -2 -118c-87,-58 -144,-157 -144,-269 0,-179 145,-324 324,-324 179,0 324,145 324,324 0,179 -145,324 -324,324 -24,0 -47,-3 -70,-8zm225 -311c-3,83 -71,150 -155,150 -84,0 -152,-67 -155,-150l310 0z"/>
  </g>
 </g>
</svg>
