<svg xmlns="http://www.w3.org/2000/svg" width="1024" height="1024">
  <path fill="#f05c28" d="M362.18844 761.739269c.1162144 3.62052532 2.70868932 2.41368355 4.684334 2.3958044 47.12046662 3.79037714 93.8833505 2.51201882 139.8595523-9.86928383 68.59331065-13.60602356 129.4985922-42.9009902 179.0238028-92.55135475 69.9163668-70.09515818 82.2797903-162.70015034 31.69077104-239.61619944-49.45369405-75.18177277-123.2677128-113.55040163-209.0965119-132.05530884-46.74500473-11.94326378-93.9906253-16.6812352-142.0318675-9.69943203-49.03353432 1.3766936-95.43883544 14.0887603-139.90425016 33.8630863-15.88561358 7.0622593-29.72406592 7.4466608-45.27891546-.7956216-23.1892412-12.2829674-47.28137886-22.840598-74.26993676-35.6867582 8.35849673 26.2286946 15.3045416 49.08717178 22.9925707 71.695341 4.46084478 13.12328687 2.1723152 24.1904729-6.94604488 34.31900426-5.5157139 6.1414837-10.88839468 12.4260005-16.0554654 18.86248996-57.2936958 71.35563734-60.04708295 158.3733991-5.41737862 231.7583185 49.641425 66.6802429 119.81703928 101.07970328 198.65509565 119.87961626 20.355398 4.8541858 40.916406 10.8883947 62.4160687 7.64333125l-.3218244-.1430331zm154.75287377 56.56959073c-45.49346512 6.7404348-91.00480937 13.12328686-137.23131912 10.21792703-110.27851948-6.9371053-209.93683135-40.14760303-292.8602706-116.3306075-102.93019402-94.5627577-115.99984346-237.5154008-30.4749897-347.0698152 7.25892978-9.29715145 7.73272692-16.58289994 4.15689944-26.9885579-12.2382696-35.6152417-23.2696974-71.632764-35.320236-107.31058268-4.8363067-14.30330992-3.7009815-27.03325575 7.5986334-37.25118278 11.9611429-10.8258177 25.1291276-10.00337737 39.3162231-2.9947555 40.1297239 19.8190238 80.6617283 38.79772815 120.8719084 58.45583972 7.2410506 3.5400692 13.47193 4.93464192 21.4817836 1.75215546 97.5664528-38.80666772 197.9756884-44.45647514 300.4320853-25.03079236 50.3565905 11.0850652 97.5306945 30.54650625 142.9705222 54.54030864 17.8344395 13.40935305 36.312528 26.04096362 53.3871043 40.36215268 114.4622376 96.00202827 131.7156052 244.7385723 41.971275 358.79852935-25.9783867 33.0227667-58.6346311 58.5541749-92.8284814 82.3334277-45.26103638 25.3347377-93.3648555 43.4731226-143.4711381 56.5159533"/>
  <path fill="#1b86c2" d="M516.94039 818.311449c50.10628256-13.0517703 98.21010174-31.1901552 143.47113807-56.51595332 2.6282332 1.0012317 5.4531369 3.2271843 7.8489413 2.83384328 44.11677155-7.1427154 88.15308697-15.1346898 128.71191016-34.90901578 16.57396037-8.0813701 30.89514942-7.00862186 46.78970257 1.430331 22.6796858 12.05947817 46.22650975 22.46513614 72.69657267 35.15038412-6.34709378-19.82796337-10.29838314-37.05451226-17.29806543-52.9222467-11.31749398-25.6208039-7.16059453-44.91239315 12.0237199-66.7160012 66.85009474-76.02209223 67.44904584-172.18503274 1.18896264-249.01168615-66.53720984-77.1395383-155.2892479-109.37562304-254.4827022-117.34971832-45.44876726-23.9938024-92.6228713-43.45524345-142.97946177-54.54030864 156.0938091-27.2209867 300.0476839-3.1377887 420.9374714 106.059043 105.9607078 95.6980829 116.8312234 234.7798927 30.2515005 348.151503-6.3470937 8.3048593-6.7225556 15.0810524-3.6741627 24.1636542 11.8181098 35.1593237 22.965752 70.5510761 34.6944661 105.7372186 4.9972189 14.9737775 6.2487585 29.2502688-6.7493743 40.6750376-12.9355559 11.3621918-27.0511349 8.6713816-41.2382304 1.7700346-38.1362001-18.5406655-76.58528502-36.4466216-114.4086002-55.6041173-10.92415295-5.5335931-19.7385677-6.0967859-31.31530916-1.6270015-90.7545015 35.0252301-184.2892088 42.1679455-279.8800169 25.7101995-2.27065044-.39334108-4.3982678-1.6359411-6.58846212-2.4852001m-154.42925-56.43186c-24.95033622-18.5496051-50.0705243-36.7148087-72.0618633-59.05479088C183.058238 593.75312032 188.04651734 432.2866305 302.0438974 329.6067444c20.18554614-18.17414316 42.29309953-33.57702003 64.27549897-49.2659631 48.0412422-6.98180315 95.2868628-2.24383174 142.0408071 9.69943205-47.299258 13.1322264-92.38150297 31.0113638-132.7257765 59.7699563-134.4332341 95.84111605-132.8866887 253.1954043 3.24506343 346.908903 39.24470656 27.0153766 82.88768096 43.5803974 127.85371152 57.54400373-45.97620185 12.38130266-92.7390857 13.65966098-139.8595523 9.8782234-1.56442456-.80456116-3.12884908-1.6001828-4.684334-2.40474396l.32182444.1430331z"/>
  <path fill="#f58c24" d="M507.59947 665.619239c-47.16516446-1.75215547-93.6509217-20.97222817-128.90858065-63.85533922-16.1984985-19.69386985-16.01076755-38.842426-.10727483-51.2952452 15.5637891-12.17569257 32.32548042-8.33167803 48.4077645 11.10294432 45.62755866 55.16607845 130.58028 54.99622664 176.50284442-.35758275 15.64424523-18.8535504 33.52338263-22.7333232 48.729589-10.58444934 15.31348117 12.22933 15.02741497 32.3522992-.7151655 51.4382783-33.4429265 40.5498837-82.98601624 63.6139709-143.90917694 63.5513939"/>
  <path fill="#1b86c2" d="M475.19797 445.204369c-.0536374 25.79959527-21.11526127 47.0936479-46.8969774 47.41547238-26.7918874.33076405-48.31836882-21.016926-48.1842753-47.79093427.12515397-26.7829478 21.71421238-47.7909342 48.59549546-47.2903184 25.92474923.4827367 46.53939465 21.6158771 46.48575724 47.6657803m174.63891-.55603c.10727482 26.8187061-19.89054036 47.5674451-46.22650975 47.9607861-26.72037084.393341-48.74746812-21.4907231-48.45246235-48.1306379.29500577-26.1303593 21.48178358-46.9684939 47.71941772-46.9416752 26.60415645.0357583 46.85227956 20.3464584 46.95955438 47.1115271"/>
</svg>
