<?xml version="1.0" standalone="no"?>
<!DOCTYPE svg PUBLIC "-//W3C//DTD SVG 20010904//EN"
 "http://www.w3.org/TR/2001/REC-SVG-20010904/DTD/svg10.dtd">
<svg version="1.0" xmlns="http://www.w3.org/2000/svg"
 width="512.000000pt" height="511.000000pt" viewBox="0 0 512.000000 511.000000"
 preserveAspectRatio="xMidYMid meet">
<metadata>
Created by potrace 1.13, written by Peter Selinger 2001-2015
</metadata>
<g transform="translate(0.000000,511.000000) scale(0.100000,-0.100000)"
fill="#db4c3f" stroke="none">
<path d="M515 5085 c-233 -50 -436 -253 -484 -483 -7 -35 -11 -210 -11 -505
l1 -452 380 -220 c578 -334 523 -306 599 -302 l65 3 895 514 c1048 602 935
556 1105 457 122 -70 149 -98 141 -141 -4 -17 -12 -36 -19 -43 -13 -14 -1959
-1133 -2077 -1196 -69 -36 -80 -39 -133 -34 -60 5 -95 24 -767 414 l-195 114
-3 -208 c-1 -113 1 -210 5 -214 5 -4 208 -124 453 -266 l445 -258 75 0 75 0
870 499 c479 275 890 508 914 519 29 13 55 17 78 14 37 -6 226 -107 258 -138
25 -25 25 -83 0 -108 -23 -21 -2069 -1195 -2120 -1217 -47 -19 -112 -17 -160
5 -32 15 -419 236 -820 469 l-70 41 -3 -206 c-2 -158 1 -210 10 -218 7 -7 211
-126 453 -266 l440 -254 75 0 75 0 870 499 c479 275 890 508 914 519 28 12 56
17 77 14 42 -7 252 -124 264 -148 16 -29 12 -84 -7 -101 -25 -21 -2074 -1195
-2117 -1213 -55 -23 -119 -19 -179 11 -50 25 -807 461 -855 492 l-23 15 3
-484 c4 -434 6 -490 22 -539 43 -130 115 -239 213 -321 63 -53 191 -114 273
-131 53 -10 446 -13 2055 -13 l1990 0 80 23 c227 66 397 242 450 467 13 51 15
365 15 2056 0 1954 0 1997 -20 2073 -59 231 -247 414 -475 461 -99 21 -4006
21 -4100 0z"/>
</g>
</svg>
