<?xml version="1.0" encoding="utf-8"?>
<!-- Generator: Adobe Illustrator 20.1.0, SVG Export Plug-In . SVG Version: 6.00 Build 0)  -->
<svg version="1.1" id="Layer_1" xmlns="http://www.w3.org/2000/svg" xmlns:xlink="http://www.w3.org/1999/xlink" x="0px" y="0px"
	 viewBox="0 0 20.2 25.6" style="enable-background:new 0 0 20.2 25.6;" xml:space="preserve">
<style type="text/css">
	.st0{fill:#4BAD28;}
	.st1{fill:#383838;}
</style>
<g>
	<path marker-start="none" marker-end="none" class="st0" d="M5.3,10c0,0.5-0.6,0.9-1.1,0.5L0.3,7.6C0.1,7.4,0,7.2,0,7V2.3
		C0,1.9,0.3,1.9,0.5,2l1.9,1.4c0.3,0.2,0.7,0.2,1-0.2C4.5,1.7,6.6,0.3,8.8,0h0.1c0.3,0,0.7,0.2,0.8,0.7v3.8c0,0.6-0.3,0.8-0.7,0.9
		C6.9,6,5.3,7.8,5.3,10z"/>
	<path class="st1" d="M11.4,0.1c-0.5,0-0.8,0.3-0.8,0.7v3.9c0,0.4,0.3,0.6,0.6,0.7c2.2,0.5,3.8,2.4,3.8,4.7c0,2.7-2.2,4.8-4.8,4.8
		c-1.2,0-2.3-0.5-3.2-1.1l-6.5-5C0.2,8.7,0,8.8,0,9v14.9l0,0v0.4c0,0.7,0.6,1.3,1.3,1.3H4c0.7,0,1.3-0.6,1.3-1.3v-0.4l0,0V19
		c1.4,0.8,3.1,1.2,4.8,1.2c5.6,0,10.1-4.5,10.1-10.1C20.2,5,16.4,0.7,11.4,0.1z"/>
</g>
</svg>
