<?xml version="1.0" encoding="utf-8"?>
<!-- Generator: Adobe Illustrator 21.0.2, SVG Export Plug-In . SVG Version: 6.00 Build 0)  -->
<svg version="1.1" id="Warstwa_2" xmlns="http://www.w3.org/2000/svg" xmlns:xlink="http://www.w3.org/1999/xlink" x="0px" y="0px"
	 viewBox="0 0 512 512" style="enable-background:new 0 0 512 512;" xml:space="preserve">
<style type="text/css">
	.st0{fill:#E20505;}
</style>
<path class="st0" d="M256,379.3c-63.8,0-114.8-53.2-114.8-116.9c0-53.2,36.1-97.8,85-110.6v34c-31.9,10.6-53.2,42.5-53.2,76.5
	c0,46.8,36.1,85,82.9,85s85-38.3,85-85c0-34-23.4-65.9-53.2-76.5v-34c48.9,12.8,85,57.4,85,110.6C372.9,326.2,319.8,379.3,256,379.3
	L256,379.3z M239,113.5h34v163.7h-34V113.5z M256,20C126.3,20,20,126.3,20,258.1c0,129.7,106.3,236,236,236
	c131.8,0,236-106.3,236-236C492,126.3,387.8,20,256,20L256,20z"/>
</svg>
