<?xml version="1.0" encoding="utf-8"?>
<!-- Generator: Adobe Illustrator 16.0.0, SVG Export Plug-In . SVG Version: 6.00 Build 0)  -->
<!DOCTYPE svg PUBLIC "-//W3C//DTD SVG 1.1//EN" "http://www.w3.org/Graphics/SVG/1.1/DTD/svg11.dtd">
<svg version="1.1" id="Livello_1" xmlns="http://www.w3.org/2000/svg" xmlns:xlink="http://www.w3.org/1999/xlink" x="0px" y="0px"
	 width="1806.859px" height="1843.893px" viewBox="0 0 1806.859 1843.893" enable-background="new 0 0 1806.859 1843.893"
	 xml:space="preserve">
<g>
	<path fill-rule="evenodd" clip-rule="evenodd" fill="#E94335" d="M98.276,507.971c16.64-33.801,35.691-66.212,56.671-97.477
		c79.478-118.441,180.715-213.838,303.887-285.774c85.152-49.732,176.094-84.597,272.632-104.896
		C801.041,5.192,871.368-1.343,942.402,0.229c153.813,3.404,298.371,41,432.085,118.041
		c58.107,33.479,111.563,73.311,160.949,118.655c2.708,2.486,2.984,3.761,0.22,6.521c-86.106,85.945-172.133,171.97-258.073,258.082
		c-2.782,2.787-4.135,2.3-6.684-0.095c-65.558-61.631-142.275-102.335-230.078-121.936c-53.867-12.025-108.375-15.393-163.38-10.843
		c-195.79,16.196-364.158,141.783-446.303,315.692c-9.524,20.164-17.487,40.945-25.071,61.885c-1.124-0.712-2.315-1.336-3.362-2.147
		c-31.172-24.137-62.338-48.283-93.49-72.446c-44.165-34.256-88.317-68.526-132.476-102.79
		C150.585,548.555,124.43,528.263,98.276,507.971z"/>
	<path fill-rule="evenodd" clip-rule="evenodd" fill="#34A753" d="M405.932,1097.56c5.99,15.311,11.209,30.921,17.984,45.925
		c64.37,142.537,168.104,244,314.526,300.53c49.394,19.069,100.815,29.582,153.729,32.154
		c88.976,4.326,175.283-8.045,258.004-42.146c28.072-11.573,54.784-25.745,80.2-42.36c1.388-0.907,2.85-1.701,4.279-2.549
		c0.963,0.914,1.854,1.921,2.896,2.73c19.854,15.414,39.738,30.792,59.595,46.205c36.56,28.379,73.091,56.794,109.661,85.158
		c41.699,32.342,83.43,64.644,125.146,96.964c-17.239,16.722-35.792,31.91-54.814,46.516
		c-91.983,70.628-194.801,118.718-306.995,147.203c-48.642,12.351-97.986,20.597-147.958,25.217
		c-48.847,4.517-97.77,6.129-146.764,3.568c-134.754-7.042-262.101-41.433-381.657-104.178
		c-91.074-47.798-171.82-109.274-242.405-184.05c-60.986-64.606-111.596-136.559-151.829-215.788
		c-0.451-0.888-0.824-1.815-1.232-2.723c20.647-16.041,41.284-32.096,61.942-48.122c65.924-51.144,131.848-102.289,197.793-153.405
		C373.956,1122.069,389.964,1109.84,405.932,1097.56z"/>
	<path fill-rule="evenodd" clip-rule="evenodd" fill="#4285F3" d="M1531.954,1620.171c-41.717-32.32-83.447-64.622-125.146-96.964
		c-36.57-28.364-73.102-56.779-109.661-85.158c-19.856-15.413-39.74-30.791-59.595-46.205c-1.043-0.81-1.934-1.816-2.896-2.73
		c18.448-13.157,36.509-26.784,53.193-42.191c58.706-54.21,98.979-119.74,121.003-196.51c3.395-11.833,6.104-23.836,8.568-35.902
		c0.644-3.152-0.155-3.873-3.006-3.597c-1.32,0.129-2.664,0.021-3.997,0.021c-160.817,0-321.635-0.03-482.451,0.136
		c-5.238,0.006-6.128-1.483-6.122-6.325c0.14-114.821,0.148-229.643-0.023-344.465c-0.008-5.196,1.425-6.191,6.34-6.188
		c285.305,0.123,570.608,0.122,855.913,0.005c4.767-0.002,6.351,1.142,7.191,6.077c6.936,40.736,11.588,81.696,13.92,122.96
		c2.862,50.654,1.979,101.213-2.067,151.77c-5.904,73.749-19.252,146.065-41.238,216.729
		c-29.696,95.441-73.731,183.621-134.129,263.437c-28.219,37.291-59.447,71.879-93.825,103.603
		C1533.321,1619.229,1532.613,1619.674,1531.954,1620.171z"/>
	<path fill-rule="evenodd" clip-rule="evenodd" fill="#FABB05" d="M405.932,1097.56c-15.968,12.28-31.976,24.51-47.896,36.85
		c-65.946,51.116-131.869,102.262-197.793,153.405c-20.658,16.026-41.295,32.081-61.942,48.122
		c-16.977-33.032-31.375-67.18-43.924-102.107c-21.664-60.295-36.889-122.174-45.609-185.668
		c-6.629-48.271-9.666-96.75-8.535-145.444c3.184-137.135,35.005-267.294,95.69-390.354c0.734-1.488,1.567-2.929,2.354-4.392
		c26.154,20.292,52.309,40.584,78.463,60.877c44.159,34.264,88.312,68.534,132.476,102.79c31.152,24.163,62.318,48.31,93.49,72.446
		c1.047,0.812,2.238,1.436,3.362,2.147c-6.11,20.189-12.09,40.401-16.48,61.063c-10.748,50.585-14.708,101.601-10.892,153.239
		c3.351,45.322,12.176,89.508,26.196,132.698C405.348,1094.64,405.59,1096.116,405.932,1097.56z"/>
</g>
</svg>
