<?xml version="1.0" encoding="utf-8"?>
<!-- Generator: Adobe Illustrator 16.0.0, SVG Export Plug-In . SVG Version: 6.00 Build 0)  -->
<!DOCTYPE svg PUBLIC "-//W3C//DTD SVG 1.1//EN" "http://www.w3.org/Graphics/SVG/1.1/DTD/svg11.dtd">
<svg version="1.1" id="pantone_-_square" xmlns="http://www.w3.org/2000/svg" xmlns:xlink="http://www.w3.org/1999/xlink" x="0px"
	 y="0px" width="709.463px" height="586.471px" viewBox="0 0 709.463 586.471" enable-background="new 0 0 709.463 586.471"
	 xml:space="preserve">
<g id="outlines_4_">
	<path fill="#338899" d="M691.321,224.057C659.382,77.215,483.291-9.167,297.993,31.125
		C112.696,71.413-11.638,223.12,20.297,369.955c31.927,146.842,208.025,233.221,393.323,192.931
		C598.917,522.593,723.243,370.886,691.321,224.057z M343.384,480.312c-103.408,0-187.205-83.82-187.205-187.225
		c0-103.379,83.797-187.186,187.205-187.186c103.38,0,187.195,83.807,187.195,187.186
		C530.58,396.492,446.764,480.312,343.384,480.312z"/>
	<path fill="#99DDDD" d="M390.052,61.076c-132.319,0-239.611,107.282-239.611,239.605c0,132.33,107.292,239.612,239.611,239.612
		c132.316,0,239.616-107.282,239.616-239.612C629.668,168.358,522.369,61.076,390.052,61.076z M343.384,477.3
		c-101.745,0-184.193-82.472-184.193-184.212c0-101.716,82.448-184.174,184.193-184.174c101.717,0,184.184,82.458,184.184,184.174
		C527.568,394.829,445.101,477.3,343.384,477.3z"/>
	<g>
		<path fill="#231F20" d="M277.448,274.718l-20.187-42.326c-4.818-10.028-9.768-21.358-11.461-26.698l-0.391,0.391
			c0.651,7.554,0.782,17.061,0.912,25.005l0.521,43.628h-14.716v-90.122h16.93l21.88,44.019c4.167,8.335,8.074,19.014,9.246,23.182
			l0.391-0.391c-0.391-4.558-1.302-17.451-1.302-25.656l-0.261-41.154h14.195v90.122H277.448z"/>
		<path fill="#231F20" d="M320.031,245.676v1.042c0,9.117,3.387,18.754,16.279,18.754c6.121,0,11.461-2.214,16.41-6.512l5.6,8.726
			c-6.902,5.861-14.847,8.726-23.702,8.726c-18.624,0-30.345-13.414-30.345-34.512c0-11.591,2.475-19.275,8.205-25.786
			c5.339-6.121,11.851-8.856,20.186-8.856c6.512,0,12.503,1.693,18.103,6.772c5.73,5.209,8.596,13.284,8.596,28.651v2.996H320.031z
			 M332.664,218.066c-8.074,0-12.502,6.382-12.502,17.061h24.354C344.515,224.448,339.827,218.066,332.664,218.066z"/>
		<path fill="#231F20" d="M435.543,274.979h-13.414l-8.074-30.344c-2.084-7.814-4.298-17.972-4.298-17.972h-0.261
			c0,0-1.042,6.512-4.298,18.624l-7.944,29.693H383.84l-17.972-65.247l14.195-1.953l7.163,31.907
			c1.823,8.205,3.386,17.321,3.386,17.321h0.391c0,0,1.303-8.595,3.776-17.712l8.466-30.475h14.065l7.423,29.693
			c2.735,10.679,4.168,18.754,4.168,18.754h0.391c0,0,1.563-10.028,3.256-17.712l6.771-30.735h14.847L435.543,274.979z"/>
		<path fill="#231F20" d="M266.134,390.718l-7.813-13.936c-6.251-11.069-10.419-17.32-15.367-22.27
			c-1.693-1.693-2.996-2.604-5.861-2.734v38.939h-14.716v-90.122h27.479c20.186,0,29.302,11.721,29.302,25.786
			c0,12.894-8.335,24.745-22.399,24.745c3.256,1.692,9.246,10.419,13.935,17.972l13.284,21.619H266.134z M245.297,312.708h-8.205
			v28.521h7.685c7.813,0,11.981-1.043,14.716-3.777c2.475-2.475,4.037-6.251,4.037-10.939
			C263.53,317.396,258.582,312.708,245.297,312.708z"/>
		<path fill="#231F20" d="M303.638,361.676v1.042c0,9.116,3.387,18.754,16.279,18.754c6.121,0,11.461-2.215,16.41-6.512l5.6,8.725
			c-6.902,5.861-14.847,8.727-23.702,8.727c-18.624,0-30.345-13.414-30.345-34.512c0-11.592,2.475-19.275,8.205-25.787
			c5.339-6.121,11.851-8.855,20.186-8.855c6.512,0,12.503,1.693,18.103,6.771c5.73,5.21,8.596,13.284,8.596,28.652v2.995H303.638z
			 M316.271,334.066c-8.074,0-12.502,6.383-12.502,17.062h24.354C328.123,340.449,323.434,334.066,316.271,334.066z"/>
		<path fill="#231F20" d="M369.793,392.151c-14.456,0-14.456-13.023-14.456-18.624v-56.131c0-8.985-0.391-13.805-1.303-19.274
			l14.717-3.256c1.042,4.037,1.172,9.506,1.172,18.102v55.871c0,8.855,0.391,10.288,1.433,11.852
			c0.781,1.172,2.995,1.822,4.688,1.041l2.344,8.855C375.784,391.63,373.049,392.151,369.793,392.151z"/>
		<path fill="#231F20" d="M394.666,315.052c-5.21,0-9.247-4.297-9.247-9.507c0-5.34,4.167-9.637,9.507-9.637
			c5.079,0,9.377,4.167,9.377,9.637C404.302,310.755,400.004,315.052,394.666,315.052z M387.502,390.718v-64.856l14.456-2.604
			v67.461H387.502z"/>
		<path fill="#231F20" d="M442.98,392.412c-17.972,0-28-12.633-28-33.861c0-23.963,14.326-35.424,29.042-35.424
			c7.163,0,12.372,1.693,18.232,7.163l-7.162,9.507c-3.907-3.516-7.293-5.078-11.07-5.078c-4.558,0-8.335,2.344-10.419,6.642
			c-1.953,4.037-2.734,10.158-2.734,18.362c0,8.986,1.433,14.717,4.428,17.973c2.084,2.344,5.209,3.777,8.726,3.777
			c4.559,0,8.986-2.215,13.284-6.512l6.771,8.725C458.087,389.676,451.836,392.412,442.98,392.412z"/>
		<path fill="#231F20" d="M476.296,392.16c-5.277,0-9.62-4.264-9.62-9.672c0-5.382,4.343-9.672,9.62-9.672
			c5.278,0,9.621,4.29,9.621,9.672C485.917,387.896,481.575,392.16,476.296,392.16z M476.296,374.74c-4.107,0-7.41,3.432-7.41,7.748
			s3.303,7.801,7.41,7.801c4.108,0,7.437-3.484,7.437-7.801S480.405,374.74,476.296,374.74z M478.195,387.844
			c-0.416-0.728-0.598-1.015-1.014-1.794c-1.066-1.95-1.404-2.496-1.794-2.652c-0.104-0.052-0.208-0.078-0.339-0.078v4.524h-2.132
			v-10.843h4.03c1.924,0,3.198,1.274,3.198,3.172c0,1.639-1.092,2.965-2.418,2.99c0.208,0.183,0.312,0.286,0.442,0.469
			c0.623,0.779,2.6,4.212,2.6,4.212H478.195z M477.051,378.9c-0.234-0.078-0.702-0.156-1.223-0.156h-0.78v2.938h0.729
			c0.936,0,1.352-0.104,1.638-0.364c0.261-0.26,0.416-0.65,0.416-1.092C477.831,379.55,477.571,379.108,477.051,378.9z"/>
	</g>
</g>
</svg>
