<?xml version="1.0" encoding="UTF-8" standalone="no"?>
<svg
   xmlns:dc="http://purl.org/dc/elements/1.1/"
   xmlns:cc="http://creativecommons.org/ns#"
   xmlns:rdf="http://www.w3.org/1999/02/22-rdf-syntax-ns#"
   xmlns:svg="http://www.w3.org/2000/svg"
   xmlns="http://www.w3.org/2000/svg"
   xmlns:sodipodi="http://sodipodi.sourceforge.net/DTD/sodipodi-0.dtd"
   xmlns:inkscape="http://www.inkscape.org/namespaces/inkscape"
   width="707"
   height="709"
   id="svg2"
   version="1.1"
   inkscape:version="0.91 r13725"
   sodipodi:docname="icon.svg">
  <metadata
     id="metadata28">
    <rdf:RDF>
      <cc:Work
         rdf:about="">
        <dc:format>image/svg+xml</dc:format>
        <dc:type
           rdf:resource="http://purl.org/dc/dcmitype/StillImage" />
      </cc:Work>
    </rdf:RDF>
  </metadata>
  <defs
     id="defs26" />
  <sodipodi:namedview
     pagecolor="#ffffff"
     bordercolor="#666666"
     borderopacity="1"
     objecttolerance="10"
     gridtolerance="10"
     guidetolerance="10"
     inkscape:pageopacity="0"
     inkscape:pageshadow="2"
     inkscape:window-width="1349"
     inkscape:window-height="622"
     id="namedview24"
     showgrid="false"
     inkscape:zoom="0.33286319"
     inkscape:cx="353.5"
     inkscape:cy="354.5"
     inkscape:window-x="2218"
     inkscape:window-y="118"
     inkscape:window-maximized="0"
     inkscape:current-layer="svg2"
     showguides="false" />
  <g
     id="g4">
    <title
       id="title6">background</title>
    <rect
       fill="none"
       id="canvas_background"
       height="711"
       width="709"
       y="-1"
       x="-1" />
  </g>
  <g
     transform="matrix(3.224852,0,0,3.224852,-173.69427,-182.91486)"
     id="g3549">
    <path
       style="fill:#f8f8f8"
       d="m 160.35712,256.41328 c -32.53706,-1.2679 -49.08288,-6.75679 -55.31997,-18.35177 -4.44457,-8.26262 -0.94443,-34.22449 10.89179,-80.7886 0.61165,-2.40625 1.75746,-7.60938 2.54626,-11.5625 l 1.43417,-7.1875 5.22388,-0.0191 c 2.87313,-0.0105 6.03487,-0.53227 7.02608,-1.15942 1.25822,-0.79609 2.89072,-0.22435 5.40841,1.89414 4.37408,3.68055 8.49335,3.79419 15.89153,0.4384 3.95516,-1.79404 5.74667,-2.10752 6.09375,-1.06629 2.58595,7.75785 14.13827,8.27042 22.15908,0.98318 2.41986,-2.19855 2.92775,-2.23186 7.14735,-0.4688 5.1447,2.14959 14.08481,2.52949 15.24767,0.64793 2.02454,-3.27576 2.82554,-0.0185 3.61192,14.6875 0.46872,8.76563 1.99323,27.90899 3.3878,42.5408 2.87605,30.17545 2.32952,36.50863 -3.89165,45.09671 -7.97497,11.00911 -21.97159,15.28515 -46.85807,14.31536 z m 16.13889,-25.48629 c 5.50751,-6.54531 3.83358,-13.65408 -3.21519,-13.65408 -4.77995,0 -8.5487,4.40226 -8.5487,9.9857 0,8.26535 6.25464,10.21576 11.76389,3.66838 z m -5.51389,-4.90408 c 0,-0.6875 0.5625,-1.25 1.25,-1.25 0.6875,0 1.25,0.5625 1.25,1.25 0,0.6875 -0.5625,1.25 -1.25,1.25 -0.6875,0 -1.25,-0.5625 -1.25,-1.25 z m -33.06818,3.18181 c 3.54498,-3.54496 4.07218,-9.49925 1.1039,-12.46753 -3.31742,-3.31742 -7.2663,-2.07801 -9.95695,3.12512 -2.37473,4.59222 -2.31039,7.30655 0.23997,10.12467 2.78307,3.07526 4.95261,2.87821 8.61308,-0.78226 z m 41.33471,-53.53725 c 6.04409,-5.539 7.1112,-13.1941 2.7384,-19.64456 -3.05996,-4.51386 -6.45524,-5.78546 -11.83944,-4.43411 -5.88054,1.47592 -8.79014,15.44963 -4.81679,23.13325 3.25308,6.29075 7.75161,6.59633 13.91783,0.94542 z m -9.51653,-14.64456 c 0,-2.92949 3.92386,-3.42784 6.12329,-0.77768 1.1301,1.36168 0.83498,1.88158 -1.40944,2.48293 -4.2973,1.15137 -4.71385,1.00069 -4.71385,-1.70525 z m -17.87409,14.6875 c 5.69199,-6.24929 6.79129,-12.07111 3.48616,-18.46252 -3.98012,-7.69671 -11.97046,-8.01254 -15.06944,-0.59564 -2.90213,6.94579 -2.34328,15.18364 1.27556,18.80248 3.81644,3.81644 6.99273,3.89523 10.30772,0.25568 z m -7.12591,-14.6875 c 0,-1.375 0.49363,-2.5 1.09695,-2.5 1.63918,0 4.00517,3.23122 3.05888,4.17751 -1.71131,1.7113 -4.15583,0.72456 -4.15583,-1.67751 z m 81.25,-20.80852 c -5.36958,-1.75019 -11.25,-4.69826 -11.25,-5.64005 0,-0.58789 3.916,-0.70493 8.70224,-0.2601 6.83444,0.63519 9.3474,0.38605 11.70815,-1.16077 4.39895,-2.8823 4.9143,-6.61426 1.46638,-10.61894 -2.61323,-3.03521 -3.7374,-3.38025 -10.83378,-3.32522 -4.35489,0.0338 -10.90755,1.07545 -14.56146,2.31485 -3.65391,1.2394 -7.02804,1.86891 -7.49804,1.3989 -1.68404,-1.68404 3.8865,-4.23668 12.36721,-5.66714 13.82217,-2.33141 25.121,0.21711 31.08683,7.0118 8.16599,9.30055 2.82099,16.83526 -11.81253,16.65183 -4.125,-0.0517 -8.34375,-0.36903 -9.375,-0.70516 z M 79.13375,131.92453 c -3.853493,-3.85349 -4.401626,-5.17451 -4.401626,-10.60805 0,-11.71314 7.025119,-16.11174 23.886674,-14.95602 6.643782,0.45537 11.927592,1.67423 16.670082,3.84541 8.02643,3.67463 9.40278,6.29463 2.27247,4.32585 -7.79543,-2.15242 -21.965311,-1.8624 -25.607602,0.52412 -7.142684,4.68007 -6.370931,13.60709 1.322431,15.29683 3.082335,0.677 19.476031,-1.91879 24.644971,-3.9023 0.99603,-0.38221 1.81097,-0.0411 1.81097,0.75796 0,0.79909 -3.23437,2.93862 -7.1875,4.75452 -5.50498,2.52875 -9.74162,3.42589 -18.09837,3.83247 l -10.910874,0.53084 -4.401626,-4.40163 z m 15.054325,-9.52064 c -1.485062,-2.40288 9.408565,-3.70873 12.832375,-1.53826 1.17048,0.74201 0.47602,1.29191 -2.34375,1.85586 -5.606145,1.12123 -9.675535,0.99801 -10.488625,-0.3176 z m 95.953735,-7.71326 -3.96532,-2.54016 3.19511,-6.97904 c 2.83517,-6.192834 3.11916,-8.086927 2.52101,-16.813777 -0.71766,-10.47055 -0.41914,-10.94444 5.08909,-8.078514 8.0649,4.196165 11.43124,11.716415 9.10756,20.345891 -1.62074,6.01897 -8.26845,16.65494 -10.39211,16.62682 -0.87451,-0.0116 -3.37441,-1.16413 -5.55534,-2.56122 z m -61.08715,-3.75261 c -1.69744,-2.74652 -2.10151,-15.907282 -0.62568,-20.379074 2.27337,-6.888383 8.85951,-13.286039 13.67747,-13.286039 5.5395,0 6.06917,2.746499 1.97898,10.261532 -2.21977,4.078444 -3.59131,8.663021 -3.81085,12.738351 -0.30504,5.66236 -0.80347,6.67039 -4.50522,9.11137 -4.83209,3.18634 -5.59645,3.36323 -6.7147,1.55386 z"
       id="path3565"
       inkscape:connector-curvature="0" />
    <path
       style="fill:#a09fa0"
       d="m 148.33521,257.20669 c -39.52569,-2.84232 -51.557767,-14.77467 -46.02317,-45.64171 0.73145,-4.07939 2.92046,-14.44832 4.86446,-23.04207 3.63494,-16.06877 9.8607,-44.65734 10.83135,-49.73733 0.48413,-2.53373 1.04739,-2.76844 4.90643,-2.04448 2.52786,0.47423 5.91276,0.17447 8.0564,-0.71345 3.34865,-1.38706 4.07459,-1.21349 7.70668,1.84272 4.52281,3.8057 8.14121,3.67358 16.33326,-0.59635 l 4.68728,-2.44315 1.91485,3.70291 c 3.29847,6.37855 11.90372,6.5008 18.46196,0.26228 3.24634,-3.08807 3.72488,-3.19126 7.5,-1.61723 7.48051,3.11899 13.26053,3.16785 16.48423,0.13935 1.6002,-1.50331 3.19555,-2.26911 3.54523,-1.70178 0.34968,0.56733 0.98568,6.93776 1.41333,14.15651 0.42765,7.21875 1.98657,26.85113 3.46427,43.62751 2.9678,33.69359 2.5398,40.15935 -3.23605,48.88726 -4.29115,6.48436 -13.88781,12.21918 -24.05075,14.37235 -9.20164,1.94951 -15.95812,2.04971 -36.85976,0.54666 z m 39.52191,-2.66077 c 7.5256,-1.84726 15.30069,-6.84696 19.35807,-12.448 6.22117,-8.58809 6.7677,-14.92126 3.89165,-45.09671 -1.39457,-14.63182 -2.91908,-33.77518 -3.3878,-42.5408 -0.78638,-14.70604 -1.58738,-17.96326 -3.61192,-14.6875 -1.16286,1.88156 -10.10297,1.50166 -15.24767,-0.64793 -4.2196,-1.76306 -4.72749,-1.72975 -7.14735,0.46879 -8.02081,7.28724 -19.57313,6.77468 -22.15908,-0.98318 -0.34708,-1.04123 -2.13859,-0.72774 -6.09375,1.0663 -7.39818,3.35578 -11.51745,3.24214 -15.89153,-0.4384 -2.51769,-2.1185 -4.15019,-2.69023 -5.40841,-1.89414 -0.99121,0.62715 -4.15295,1.14889 -7.02608,1.15942 l -5.22388,0.0191 -1.43417,7.1875 c -0.7888,3.95312 -1.93461,9.15625 -2.54626,11.5625 -0.61165,2.40625 -3.71797,15.90625 -6.90294,30 -10.202572,45.14728 -8.12698,55.89475 12.26829,63.5256 14.31416,5.35561 51.48568,7.44832 66.56283,3.74741 z m -21.625,-21.27301 c -2.42414,-2.42414 -1.80967,-10.1962 1.0487,-13.2643 2.78261,-2.98678 8.54951,-3.63749 10.9513,-1.2357 2.49182,2.49181 1.6939,8.07775 -1.73611,12.15408 -3.3579,3.99065 -7.64036,4.96944 -10.26389,2.34592 z m 9.01389,-3.59592 c 4.91851,-5.84532 3.73098,-11.15408 -2.49512,-11.15408 -5.06427,0 -8.91139,9.85737 -5.26877,13.5 2.36854,2.36853 4.28393,1.78978 7.76389,-2.34592 z m -5.93085,-2.9377 c -0.37644,-0.98097 0.0314,-2.3777 0.90632,-3.10381 2.00971,-1.66791 6.56616,1.3228 5.25284,3.4478 -1.25029,2.023 -5.33847,1.79469 -6.15916,-0.34399 z m 4.16696,-0.71638 c 0,-0.6875 -0.5625,-1.25 -1.25,-1.25 -0.6875,0 -1.25,0.5625 -1.25,1.25 0,0.6875 0.5625,1.25 1.25,1.25 0.6875,0 1.25,-0.5625 1.25,-1.25 z m -44.18126,3.96407 c -2.55036,-2.81812 -2.6147,-5.53245 -0.23997,-10.12467 2.69065,-5.20313 6.63953,-6.44254 9.95695,-3.12512 2.96828,2.96828 2.44108,8.92257 -1.1039,12.46753 -3.66047,3.66047 -5.83001,3.85752 -8.61308,0.78226 z m 8.48538,-2.99221 c 1.07024,-1.52796 1.94588,-3.73779 1.94588,-4.91071 0,-2.95772 -3.43287,-6.10438 -5.7074,-5.23157 -2.72525,1.04578 -5.80254,7.63222 -4.89777,10.48289 1.06358,3.35103 6.21552,3.14838 8.65929,-0.34061 z m -4.72078,-1.8052 c -1.52241,-1.52241 -0.86135,-4.16666 1.04166,-4.16666 1.04167,0 1.875,1.11111 1.875,2.5 0,2.4903 -1.33192,3.2514 -2.91666,1.66666 z m 35.70286,-46.25328 c -4.84296,-1.94856 -6.79304,-14.38729 -3.49357,-22.28404 3.08208,-7.37646 11.91296,-7.70901 16.7123,-0.62934 4.3728,6.45046 3.30569,14.10556 -2.7384,19.64456 -4.24885,3.89378 -6.88415,4.71573 -10.48033,3.26882 z m 8.08777,-2.86105 c 4.39751,-2.68132 7.40767,-10.52241 5.9221,-15.42629 -1.37929,-4.55301 -5.70854,-8.37604 -9.48514,-8.37604 -5.14087,0 -7.89426,4.91891 -7.89426,14.10304 0,6.25564 0.45366,7.76893 2.93015,9.77427 3.60521,2.91932 3.61651,2.91922 8.52715,-0.075 z m -8.82969,-11.93695 c -0.94739,-2.46886 0.47502,-6.60531 2.54445,-7.39943 2.42208,-0.92944 6.25738,1.19372 7.9839,4.41975 1.69199,3.16151 1.74309,3.11848 -4.67635,3.93713 -3.64098,0.46432 -5.41798,0.17358 -5.852,-0.95745 z m 6.41957,-1.41013 c 2.24442,-0.60135 2.53954,-1.12125 1.40944,-2.48293 -2.19943,-2.65016 -6.12329,-2.15181 -6.12329,0.77768 0,2.70594 0.41655,2.85662 4.71385,1.70525 z m -32.89566,12.72657 c -3.61884,-3.61884 -4.17769,-11.85669 -1.27556,-18.80248 3.09898,-7.4169 11.08932,-7.10107 15.06944,0.59564 3.30513,6.39141 2.20583,12.21323 -3.48616,18.46252 -3.31499,3.63955 -6.49128,3.56076 -10.30772,-0.25568 z m 9.48173,-0.73174 c 3.59539,-3.59539 5.24234,-8.62529 4.36153,-13.32041 -0.75332,-4.01557 -5.75345,-9.12967 -8.9262,-9.12967 -2.67499,0 -5.50601,5.42431 -6.27832,12.02939 -0.59001,5.04603 -0.24462,6.6875 2.0059,9.53311 3.24161,4.09877 5.40828,4.31639 8.83709,0.88758 z m -8.18183,-11.21127 c -1.34804,-2.18117 0.6976,-6.23881 3.14527,-6.23881 2.5255,0 6.54896,4.7334 5.48574,6.45371 -0.91131,1.47453 -7.69121,1.30572 -8.63101,-0.2149 z m 6.03774,-0.8113 c 0.94629,-0.94629 -1.4197,-4.17751 -3.05888,-4.17751 -0.60332,0 -1.09695,1.125 -1.09695,2.5 0,2.40207 2.44452,3.38881 4.15583,1.67751 z m 72.13136,-22.40686 c -4.7448,-2.05802 -8.78719,-5.28139 -8.78719,-7.00684 0,-0.6043 4.69134,-0.93899 10.42519,-0.74377 7.43373,0.2531 11.02055,-0.13731 12.5,-1.3606 2.95764,-2.44552 2.61111,-7.28447 -0.64651,-9.02789 -3.8856,-2.07951 -14.98016,-1.69403 -22.89499,0.79549 -7.05454,2.21892 -10.63369,1.86141 -10.63369,-1.06217 0,-3.88071 17.27845,-7.88612 28.81663,-6.68014 11.89005,1.24275 20.10075,6.4319 22.29766,14.09206 2.4633,8.58902 -3.5481,12.99971 -17.61471,12.92428 -5.26311,-0.0282 -10.96031,-0.84516 -13.46239,-1.93042 z m 25.90031,-1.75695 c 5.41458,-3.30133 5.50194,-8.28729 0.25003,-14.26889 -5.96583,-6.79469 -17.26466,-9.34321 -31.08683,-7.0118 -8.48071,1.43046 -14.05125,3.9831 -12.36721,5.66714 0.47,0.47001 3.84413,-0.1595 7.49804,-1.3989 3.65391,-1.2394 10.20657,-2.28108 14.56146,-2.31485 7.09638,-0.055 8.22055,0.29001 10.83378,3.32522 3.44792,4.00468 2.93257,7.73664 -1.46638,10.61894 -2.36075,1.54682 -4.87371,1.79596 -11.70815,1.16077 -9.66034,-0.89783 -11.12199,0.30687 -4.01474,3.30899 7.22032,3.04988 7.9263,3.1959 15.9375,3.29632 5.40279,0.0677 8.63599,-0.59862 11.5625,-2.38294 z M 84.107124,136.7106 C 75.231,133.43747 70.796808,124.25889 73.782735,115.33957 c 2.752546,-8.22218 6.585797,-9.94815 21.986434,-9.89969 12.222701,0.0385 13.965071,0.35203 20.837951,3.75 5.17805,2.56004 7.61693,4.5273 7.87766,6.35432 0.36955,2.58948 0.23623,2.60961 -6.20991,0.9375 -10.2788,-2.66629 -22.505671,-2.25936 -26.499172,0.88193 -3.479993,2.73736 -4.299898,7.15295 -1.793574,9.65928 2.838836,2.83883 15.663626,1.6322 29.437496,-2.76965 2.30393,-0.73629 2.8125,-0.4282 2.8125,1.70379 0,7.31932 -26.878625,14.90072 -38.124996,10.75355 z m 28.437496,-4.74775 c 3.95313,-1.8159 7.1875,-3.95543 7.1875,-4.75452 0,-0.79909 -0.81494,-1.14017 -1.81097,-0.75796 -5.16894,1.98351 -21.562636,4.5793 -24.644971,3.9023 -7.693362,-1.68974 -8.465115,-10.61676 -1.322431,-15.29683 3.642291,-2.38652 17.812172,-2.67654 25.607602,-0.52412 7.13031,1.96878 5.75396,-0.65122 -2.27247,-4.32585 -4.74249,-2.17118 -10.0263,-3.39004 -16.670082,-3.84541 -16.861555,-1.15572 -23.886674,3.24288 -23.886674,14.95602 0,5.43354 0.548133,6.75456 4.401626,10.60805 l 4.401626,4.40163 10.910874,-0.53084 c 8.35675,-0.40658 12.59339,-1.30372 18.09837,-3.83247 z m 106.24222,-4.27039 c -2.94185,-1.18604 -0.17088,-2.91955 4.66682,-2.91955 5.46875,0 8.77846,0.99299 8.77846,2.63373 0,1.16306 -10.70492,1.39063 -13.44528,0.28582 z M 92.704066,122.94979 c -1.171708,-3.05342 1.534909,-4.38823 8.903054,-4.39067 16.22885,-0.005 16.03043,4.31963 -0.268,5.8416 -6.674929,0.62332 -7.919327,0.41422 -8.635054,-1.45093 z m 11.972634,-0.2283 c 2.81977,-0.56395 3.51423,-1.11385 2.34375,-1.85586 -3.42381,-2.17047 -14.317437,-0.86462 -12.832375,1.53826 0.81309,1.31561 4.88248,1.43883 10.488625,0.3176 z m 84.74292,-6.78369 c -2.57812,-1.36104 -4.6875,-2.95571 -4.6875,-3.5437 0,-0.588 1.48102,-4.30405 3.29115,-8.2579 2.99108,-6.53338 3.21635,-8.085701 2.47075,-17.026051 -0.80392,-9.639722 -0.76333,-9.837148 2.02135,-9.832569 4.13598,0.0067 10.61384,4.356186 13.4735,9.046402 4.39333,7.205624 2.78517,16.803618 -4.60958,27.511428 -3.66597,5.30841 -5.33195,5.60128 -11.95967,2.10239 z m 11.62083,-4.58317 c 8.82927,-13.922333 7.36525,-25.131591 -4.05875,-31.075491 -5.50823,-2.865926 -5.80675,-2.392036 -5.08909,8.078514 0.59815,8.72685 0.31416,10.620943 -2.52101,16.813777 l -3.19511,6.97904 3.96532,2.54016 c 2.18093,1.39709 4.68083,2.54964 5.55534,2.56122 0.87452,0.0116 3.279,-2.64217 5.3433,-5.89722 z m -73.94471,-1.26922 c -0.72848,-1.89063 -1.12969,-7.43284 -0.89156,-12.316023 0.35513,-7.282688 1.0672,-9.793754 3.96168,-13.970485 5.83267,-8.416549 15.1632,-11.167558 18.25878,-5.383411 0.87901,1.642451 0.31684,3.824597 -2.15187,8.352843 -2.10995,3.870188 -3.58572,8.8819 -4.00368,13.596466 -0.63446,7.15667 -0.8697,7.58427 -5.66197,10.29194 -6.49335,3.6688 -7.91041,3.58368 -9.51138,-0.57133 z m 8.67362,-0.70125 c 3.70175,-2.44098 4.20018,-3.44901 4.50522,-9.11137 0.21954,-4.075331 1.59108,-8.659907 3.81085,-12.738351 4.09019,-7.515033 3.56052,-10.261532 -1.97898,-10.261532 -4.81796,0 -11.4041,6.397656 -13.67747,13.286039 -1.47583,4.471792 -1.07176,17.632554 0.62568,20.379074 1.11825,1.80937 1.88261,1.63248 6.7147,-1.55386 z"
       id="path3563"
       inkscape:connector-curvature="0" />
    <path
       style="fill:#0b66c0"
       d="m 53.482124,79.147907 0,-21.875 109.374996,0 109.375,0 0,21.875 c 0,13.75 -0.46428,21.875003 -1.25,21.875003 -0.6875,0 -1.25,-0.5625 -1.25,-1.250003 0,-0.795455 -10,-1.25 -27.5,-1.25 l -27.5,0 0,-5.543625 c 0,-3.048995 -0.59997,-7.12712 -1.33326,-9.0625 -4.24347,-11.199766 -20.9248,-18.135819 -27.58912,-11.471493 -2.4837,2.483704 -2.6143,3.498623 -1.84977,14.375 l 0.82262,11.702618 -18.15024,0 c -20.51869,0 -20.45426,0.039 -15.11834,-9.152412 4.55609,-7.848108 5.20055,-13.329302 2.03967,-17.347705 -3.62578,-4.609429 -8.73554,-5.457861 -15.32238,-2.544149 -9.04875,4.00274 -18.40482,17.039652 -18.47172,25.738816 l -0.0275,3.56955 -9.6875,-1.015721 c -10.740885,-1.126168 -11.164992,-1.12415 -35.937496,0.170991 -9.625,0.503209 -17.6875,1.402209 -17.916667,1.997778 -0.229166,0.595565 -0.932291,1.082855 -1.5625,1.082855 -0.650793,0 -1.145833,-9.450761 -1.145833,-21.875003 z"
       id="path3561"
       inkscape:connector-curvature="0" />
    <path
       style="fill:#0762bc"
       d="m 53.482124,143.43362 c 0,-31.96664 0.363522,-41.70281 1.603361,-42.94265 1.081694,-1.081689 7.283838,-1.812991 19.0625,-2.247673 15.331655,-0.565804 16.735531,-0.459229 11.520873,0.874605 -15.344897,3.924998 -22.891037,20.664328 -15.861599,35.185218 4.684285,9.67644 19.896869,13.36819 35.605371,8.64063 3.34281,-1.00604 6.27366,-1.63334 6.513,-1.394 0.23934,0.23934 -1.51238,8.23433 -3.8927,17.76666 -2.38033,9.53232 -4.63402,18.73775 -5.0082,20.4565 l -0.68032,3.125 -23.181145,-0.36588 c -15.487584,-0.24445 -23.181141,0.0667 -23.181141,0.9375 0,0.71685 -0.5625,1.30338 -1.25,1.30338 -0.808135,0 -1.25,-14.6131 -1.25,-41.33929 z m 216.249996,40.04007 c 0,-0.86847 -8.50097,-1.17928 -25.64132,-0.9375 -21.93678,0.30945 -25.71634,0.0909 -26.16061,-1.51328 -0.28562,-1.03125 -0.86388,-7.21875 -1.28503,-13.75 -0.42116,-6.53125 -1.06617,-13.94206 -1.43337,-16.46845 l -0.66763,-4.59345 5.91764,1.78095 c 6.97726,2.09984 16.75967,2.29065 23.36699,0.45579 15.46633,-4.29504 19.48836,-20.74698 7.81158,-31.95305 -6.92453,-6.64541 -14.27328,-8.51565 -30.18946,-7.68313 -6.44534,0.33714 -11.71879,0.37312 -11.71879,0.08 0,-0.29315 0.62739,-1.70528 1.39419,-3.13806 0.7668,-1.43279 1.81543,-6.598934 2.33028,-11.480325 0.8995,-8.528342 0.94272,-8.618743 1.10581,-2.312758 l 0.16972,6.5625 26.96429,0 c 21.70238,0 27.31275,0.34847 28.75,1.785713 1.47563,1.47563 1.78571,8.96429 1.78571,43.125 0,26.72619 -0.44186,41.33929 -1.25,41.33929 -0.6875,0 -1.25,-0.58465 -1.25,-1.29922 z m -95.625,-76.41228 c -2.0625,-0.68564 -8.8125,-1.62167 -15,-2.08006 l -11.25,-0.83344 -0.38164,-4.581557 c -0.27026,-3.244466 0.73295,-6.670235 3.4375,-11.73846 2.10053,-3.936299 3.81626,-6.3746 3.81274,-5.418446 -0.004,0.956153 -1.39222,3.98846 -3.08599,6.73846 -5.7203,9.287465 -5.58055,9.375 14.96739,9.375 l 18.125,0 0.18729,-4.0625 c 0.17125,-3.714417 0.23154,-3.77187 0.70364,-0.670533 0.62464,4.10339 -3.85075,14.775776 -6.13314,14.625596 -0.89804,-0.0591 -3.32029,-0.66842 -5.38279,-1.35406 z m -59.6875,-6.29187 c -6.17293,-1.639508 -5.99228,-3.062128 0.3125,-2.460871 3.21591,0.306685 5,1.099013 5,2.220531 0,0.95904 -0.14062,1.68557 -0.3125,1.61452 -0.17187,-0.071 -2.42187,-0.68944 -5,-1.37418 z m -10.60121,-3.112872 c 1.21621,-0.316928 2.90371,-0.296086 3.75,0.04631 0.84629,0.342408 -0.14879,0.601715 -2.21129,0.57624 -2.0625,-0.02547 -2.75492,-0.305623 -1.53871,-0.622553 z M 93.794624,96.411249 c 1.203125,-0.314408 3.171875,-0.314408 4.375,0 1.203125,0.314411 0.21875,0.571654 -2.1875,0.571654 -2.40625,0 -3.390625,-0.257243 -2.1875,-0.571654 z M 119.8432,94.147907 c -0.14532,-6.467882 9.20955,-20.166681 16.2624,-23.813854 5.82755,-3.013541 5.71873,-2.035257 -0.19125,1.719423 -6.41313,4.074333 -11.90725,11.431715 -14.32718,19.186076 -0.92829,2.974595 -1.71308,4.283355 -1.74397,2.908355 z m 63.83629,-6.875 c 0,-1.71875 0.28372,-2.421875 0.63048,-1.5625 0.34677,0.859375 0.34677,2.265625 0,3.125 -0.34676,0.859375 -0.63048,0.15625 -0.63048,-1.5625 z m 27.93691,-4.970785 c -0.43131,-1.358932 -2.85984,-4.229711 -5.39674,-6.37951 -2.5369,-2.149798 -3.40759,-3.300624 -1.93486,-2.557391 2.9653,1.496488 9.19732,8.444228 9.19732,10.253592 0,1.996653 -1.0491,1.256277 -1.86572,-1.316691 z m -56.68691,-5.029215 c 0,-1.71875 0.28372,-2.421875 0.63049,-1.5625 0.34676,0.859375 0.34676,2.265625 0,3.125 -0.34677,0.859375 -0.63049,0.15625 -0.63049,-1.5625 z m 28.65132,-0.07359 c -0.0543,-1.071724 0.77609,-3.040474 1.84528,-4.375 1.91285,-2.387587 1.92555,-2.386409 0.7939,0.07359 -0.63253,1.375 -1.4629,3.34375 -1.84528,4.375 -0.60055,1.61968 -0.70866,1.609659 -0.7939,-0.07359 z m -32.42467,-6.217999 c -1.62303,-1.352128 -2.41334,-2.458414 -1.75623,-2.458414 0.65711,0 2.21286,1.125 3.45721,2.5 2.8586,3.158717 2.11883,3.140631 -1.70098,-0.04159 z m 45.45098,0.04159 c -1.64842,-0.708353 -1.86132,-1.097694 -0.625,-1.143003 1.03125,-0.03779 2.71875,0.476558 3.75,1.143003 2.28497,1.476653 0.31137,1.476653 -3.125,0 z m -53.4375,-3.327851 c 0.85938,-0.346765 2.26563,-0.346765 3.125,0 0.85938,0.346765 0.15625,0.630483 -1.5625,0.630483 -1.71875,0 -2.42187,-0.283718 -1.5625,-0.630483 z"
       id="path3559"
       inkscape:connector-curvature="0" />
    <path
       style="fill:#5d5d60"
       d="m 147.62282,258.51889 c -34.55716,-2.88025 -47.859861,-12.4852 -47.883725,-34.57352 -0.0081,-7.54143 1.549115,-15.82175 9.365285,-49.79746 3.16321,-13.75 6.04118,-26.96875 6.39549,-29.375 1.55178,-10.53865 1.36722,-10.28142 6.72697,-9.3759 2.9762,0.50283 6.66934,0.18599 9.41818,-0.80801 4.18054,-1.5117 4.6803,-1.43062 6.61709,1.07357 3.33845,4.31649 7.55801,4.61856 14.59501,1.04484 3.4375,-1.74572 6.70114,-3.17639 7.25253,-3.17927 0.55139,-0.003 1.59197,1.68566 2.31241,3.7523 2.23874,6.42207 9.96561,6.6056 17.3268,0.41156 l 3.95943,-3.33163 5.82441,2.08745 c 9.16856,3.28598 12.35387,2.80364 15.38237,-2.32928 2.84839,-4.82764 1.82154,-4.70357 19.88735,-2.40294 4.5622,0.58098 6.30305,0.22677 8.75,-1.78039 2.49227,-2.04433 2.80053,-2.92286 1.67422,-4.77149 -1.10103,-1.80712 -3.12545,-2.297 -10,-2.41984 l -8.61952,-0.15404 7.85853,0.77974 c 7.39131,0.73338 11.07542,2.83315 9.48522,5.40614 -0.88326,1.42916 -13.43903,1.23176 -17.39823,-0.27353 -2.92462,-1.11194 -3.13003,-1.52832 -1.64388,-3.33234 1.53545,-1.86388 1.33866,-1.96128 -2.05164,-1.01549 -7.09213,1.97848 -11.15138,1.46833 -12.48391,-1.56895 -0.69272,-1.57896 -2.33745,-2.81098 -3.75,-2.80903 -3.99379,0.006 -13.14109,-5.38383 -13.14109,-7.74238 0,-1.165 1.26563,-4.25972 2.8125,-6.87714 2.45342,-4.15134 2.78452,-6.315022 2.5933,-16.946453 l -0.2192,-12.1875 3.23438,0 c 5.00807,0 13.49599,5.621636 15.79136,10.458781 3.76994,7.944534 2.24264,16.856422 -4.61721,26.941742 -3.09458,4.54963 -3.33551,5.36174 -1.36424,4.59822 17.40393,-6.741 36.46278,-5.65689 45.595,2.59353 13.07079,11.80867 6.96064,22.92307 -12.57589,22.8756 -9.55717,-0.0232 -17.81255,-2.60079 -22.8075,-7.12116 -2.12835,-1.92613 -2.19432,-1.35303 -1.48282,12.88123 0.40954,8.19338 1.82365,26.96155 3.14247,41.70704 2.908,32.51395 2.93335,35.29083 0.40068,43.90064 -2.62348,8.91854 -11.02715,17.26709 -21.28125,21.14168 -8.62715,3.25983 -25.1277,4.18172 -45.08088,2.51868 z m 37.57215,-1.85886 c 10.16294,-2.15317 19.7596,-7.88799 24.05075,-14.37235 5.77585,-8.72791 6.20385,-15.19367 3.23605,-48.88726 -1.4777,-16.77638 -3.03662,-36.40876 -3.46427,-43.62751 -0.42765,-7.21875 -1.06365,-13.58918 -1.41333,-14.15651 -0.34968,-0.56733 -1.94503,0.19847 -3.54523,1.70178 -3.2237,3.0285 -9.00372,2.97964 -16.48423,-0.13935 -3.77512,-1.57403 -4.25366,-1.47084 -7.5,1.61723 -6.55824,6.23852 -15.16349,6.11627 -18.46196,-0.26228 l -1.91485,-3.70291 -4.68728,2.44315 c -8.19205,4.26993 -11.81045,4.40205 -16.33326,0.59635 -3.63209,-3.05621 -4.35803,-3.22978 -7.70668,-1.84272 -2.14364,0.88792 -5.52854,1.18768 -8.0564,0.71345 -3.85904,-0.72396 -4.4223,-0.48925 -4.90643,2.04448 -0.97065,5.07999 -7.19641,33.66856 -10.83135,49.73733 -1.944,8.59375 -4.13301,18.96268 -4.86446,23.04207 -5.534597,30.86704 6.49748,42.79939 46.02317,45.64171 20.90164,1.50305 27.65812,1.40285 36.85976,-0.54666 z m -17.71285,-24.63712 c -3.64262,-3.64263 0.2045,-13.5 5.26877,-13.5 6.2261,0 7.41363,5.30876 2.49512,11.15408 -3.47996,4.1357 -5.39535,4.71445 -7.76389,2.34592 z m 3.5,-1 c 0,-0.6875 -0.5625,-1.25 -1.25,-1.25 -0.6875,0 -1.25,0.5625 -1.25,1.25 0,0.6875 0.5625,1.25 1.25,1.25 0.6875,0 1.25,-0.5625 1.25,-1.25 z m 4.4922,-3.93963 c 1.31332,-2.125 -3.24313,-5.11571 -5.25284,-3.4478 -0.87491,0.72611 -1.28276,2.12284 -0.90632,3.10381 0.82069,2.13868 4.90887,2.36699 6.15916,0.34399 z m 1.1842,-5.97721 c -0.45316,-0.73324 -2.05637,-1.31323 -3.56267,-1.28886 -2.64115,0.0428 -2.62745,0.10587 0.38439,1.77271 3.34269,1.84994 4.51074,1.67212 3.17828,-0.48385 z m -47.53157,6.22931 c -0.90477,-2.85067 2.17252,-9.43711 4.89777,-10.48289 2.27453,-0.87281 5.7074,2.27385 5.7074,5.23157 0,6.21443 -8.90066,10.62175 -10.60517,5.25132 z m 5.60517,0.69626 c 0,-0.2702 -0.84375,-0.81503 -1.875,-1.21077 -1.03125,-0.39573 -1.875,-0.17465 -1.875,0.49126 0,0.66593 0.84375,1.21078 1.875,1.21078 1.03125,0 1.875,-0.22108 1.875,-0.49127 z m 1.25,-4.50873 c 0,-1.375 0.5957,-2.5 1.32378,-2.5 0.72807,0 0.97612,-0.5625 0.55122,-1.25 -0.42489,-0.6875 -1.33504,-1.25 -2.02254,-1.25 -0.6875,0 -0.90235,0.5625 -0.47746,1.25 0.4249,0.6875 -0.1044,1.25 -1.17622,1.25 -1.96232,0 -2.66337,2.61873 -1.11544,4.16666 1.58474,1.58474 2.91666,0.82364 2.91666,-1.66666 z m 32.34682,-47.37269 c -2.47649,-2.00534 -2.93015,-3.51863 -2.93015,-9.77427 0,-9.18413 2.75339,-14.10304 7.89426,-14.10304 3.7766,0 8.10585,3.82303 9.48514,8.37604 1.48557,4.90388 -1.52459,12.74497 -5.9221,15.42629 -4.91064,2.9942 -4.92194,2.9943 -8.52715,0.075 z m 9.15579,-2.68761 c 3.65372,-3.65372 3.71398,-3.88323 1.46634,-5.58525 -2.78777,-2.11103 -5.42465,-2.28467 -9.74582,-0.64176 -2.87232,1.09205 -3.05916,1.55582 -1.87817,4.66206 2.42721,6.38404 4.9499,6.7727 10.15765,1.56495 z m 2.03617,-9.37963 c 0.89115,-0.74509 -2.47568,-5.57214 -4.72687,-6.77694 -3.07606,-1.64626 -5.89104,-0.52754 -6.72823,2.6739 -1.20555,4.61001 0.18461,5.83352 5.8126,5.1158 2.8758,-0.36674 5.41492,-0.82248 5.6425,-1.01276 z m -0.27326,-7.39606 c -1.39993,-2.13655 -3.18007,-3.14812 -5.48183,-3.11509 l -3.40869,0.0489 4.08167,1.77379 c 2.24492,0.97559 4.42378,2.66533 4.84192,3.75498 0.41815,1.08966 1.04821,1.69324 1.40016,1.3413 0.35194,-0.35195 -0.29301,-2.06371 -1.43323,-3.80391 z m -37.05269,17.14849 c -2.25052,-2.84561 -2.59591,-4.48708 -2.0059,-9.53311 0.77231,-6.60508 3.60333,-12.02939 6.27832,-12.02939 3.17275,0 8.17288,5.1141 8.9262,9.12967 0.88081,4.69512 -0.76614,9.72502 -4.36153,13.32041 -3.42881,3.42881 -5.59548,3.21119 -8.83709,-0.88758 z m 8.69645,-1.10608 c 4.17844,-5.31202 3.4176,-6.70642 -3.65928,-6.70642 -5.41666,0 -6.25,0.33333 -6.25,2.5 0,2.5514 4.06397,7.5 6.15928,7.5 0.6376,0 2.3251,-1.48211 3.75,-3.29358 z m 0.58982,-9.00271 c 1.06322,-1.72031 -2.96024,-6.45371 -5.48574,-6.45371 -2.44767,0 -4.49331,4.05764 -3.14527,6.23881 0.9398,1.52062 7.7197,1.68943 8.63101,0.2149 z m 0.8869,-6.19959 c -1.32602,-2.4777 -4.9886,-4.56819 -6.08414,-3.47265 -0.32467,0.32468 1.02146,1.97756 2.99141,3.67308 4.04047,3.4776 5.02694,3.41367 3.09273,-0.20043 z m 94.99057,-17.19457 c 4.51,-2.33221 6.14263,-6.13413 4.73772,-11.03276 -2.19691,-7.66016 -10.40761,-12.84931 -22.29766,-14.09206 -11.53818,-1.20598 -28.81663,2.79943 -28.81663,6.68014 0,2.92358 3.57915,3.28109 10.63369,1.06217 7.91483,-2.48952 19.00939,-2.875 22.89499,-0.79549 3.25762,1.74342 3.60415,6.58237 0.64651,9.02789 -1.47945,1.22329 -5.06627,1.6137 -12.5,1.3606 -10.66061,-0.36297 -12.10944,0.31826 -8.2005,3.85581 6.39984,5.79176 25.00683,8.01639 32.90188,3.9337 z m -15.12657,-12.92582 c 0,-1.64074 -3.30971,-2.63373 -8.77846,-2.63373 -4.8377,0 -7.60867,1.73351 -4.66682,2.91955 2.74036,1.10481 13.44528,0.87724 13.44528,-0.28582 z m -30.85283,-13.57123 c 7.39475,-10.70781 9.00291,-20.305804 4.60958,-27.511428 -2.85966,-4.690216 -9.33752,-9.039601 -13.4735,-9.046402 -2.78468,-0.0046 -2.82527,0.192847 -2.02135,9.83257 0.7456,8.940349 0.52033,10.49267 -2.47075,17.02605 -1.81013,3.95385 -3.29115,7.6699 -3.29115,8.2579 0,1.35616 8.71095,6.00013 11.3925,6.07356 1.10963,0.0304 3.47423,-2.05413 5.25467,-4.63225 z M 83.92163,138.48476 c -9.594273,-2.96815 -15.243005,-15.74167 -10.86007,-24.55798 4.138195,-8.324 7.515945,-9.77887 22.703463,-9.77887 11.829497,0 14.144947,0.37637 20.423707,3.31986 3.89489,1.82593 8.06746,4.82447 9.27239,6.66343 2.0545,3.13556 2.06109,3.56312 0.10589,6.873 -1.14668,1.94119 -2.08489,4.32897 -2.08489,5.30618 0,7.39716 -27.573647,15.8827 -39.56049,12.17438 z m 23.93549,-3.0414 c 8.75238,-2.63383 14.375,-6.3443 14.375,-9.48631 0,-2.13199 -0.50857,-2.44008 -2.8125,-1.70379 -13.77387,4.40185 -26.59866,5.60848 -29.437496,2.76965 -2.506324,-2.50633 -1.686419,-6.92192 1.793574,-9.65928 3.993501,-3.14129 16.220372,-3.54822 26.499172,-0.88193 6.44614,1.67211 6.57946,1.65198 6.20991,-0.9375 -0.26073,-1.82702 -2.69961,-3.79428 -7.87766,-6.35432 -6.87288,-3.39797 -8.61525,-3.71153 -20.837951,-3.75 -11.621532,-0.0366 -13.793127,0.29511 -16.875,2.57742 -6.928748,5.13114 -7.882626,16.9116 -1.958228,24.18423 5.070584,6.22451 16.891273,7.46381 30.921179,3.24183 z m -8.749996,-9.30622 c -3.4375,-0.43107 -6.953125,-1.22882 -7.8125,-1.77277 -1.620573,-1.02576 -2.195081,0.60929 -0.729166,2.0752 0.458332,0.45834 3.973957,0.75414 7.8125,0.65734 l 6.979162,-0.176 -6.249996,-0.78377 z m 12.202906,-3.29819 c 5.42155,-2.08045 0.42765,-4.28319 -9.70291,-4.27983 -7.368145,0.003 -10.074762,1.33725 -8.903054,4.39067 0.715727,1.86515 1.960125,2.07425 8.635054,1.45093 4.28935,-0.40054 8.77626,-1.10334 9.97091,-1.56177 z m 11.36879,-1.84074 c 2.21774,-2.05634 -5.05913,-4.07921 -15.99542,-4.4465 l -11.326276,-0.3804 8.960446,1.03895 c 9.93878,1.15239 11.66455,1.83232 11.66455,4.59565 0,1.37374 0.76334,1.65484 2.8125,1.03574 1.54688,-0.46735 3.29477,-1.2969 3.8842,-1.84344 z m 3.20155,-10.90862 c -3.80305,-11.523363 -0.5989,-25.099471 7.5402,-31.948069 5.09951,-4.290959 8.2902,-5.137868 12.61214,-3.347663 5.36873,2.223803 5.67279,5.285406 1.28633,12.952143 -3.01446,5.268721 -3.83692,8.191365 -3.83692,13.634699 l 0,6.92847 -5.78244,3.23187 c -7.95742,4.44749 -9.95338,4.20238 -11.81931,-1.45145 z m 10.72675,0.56715 c 4.79227,-2.70767 5.02751,-3.13527 5.66197,-10.29194 0.41796,-4.714566 1.89373,-9.726278 4.00368,-13.596466 2.46871,-4.528246 3.03088,-6.710392 2.15187,-8.352843 -3.09558,-5.784147 -12.42611,-3.033138 -18.25878,5.383411 -2.89448,4.176731 -3.60655,6.687797 -3.96168,13.970485 -0.45363,9.302503 1.11184,15.767773 3.80951,15.732953 0.87639,-0.0113 3.84343,-1.29183 6.59343,-2.8456 z"
       id="path3557"
       inkscape:connector-curvature="0" />
    <path
       style="fill:#015cb6"
       d="m 53.482124,230.93362 c 0,-38.03714 0.287863,-45.37715 1.840507,-46.92979 1.513726,-1.51372 5.851472,-1.7753 24.431197,-1.47321 l 22.590692,0.36729 0.68027,-3.125 c 0.37415,-1.71875 2.62781,-10.92418 5.00814,-20.4565 2.38032,-9.53233 4.13204,-17.52732 3.8927,-17.76666 -0.23934,-0.23934 -3.17019,0.38796 -6.513,1.394 -15.708502,4.72756 -30.921086,1.03581 -35.605371,-8.64063 -6.44113,-13.3056 0.09746,-30.06997 13.570905,-34.794578 6.086223,-2.134201 21.829796,-1.845819 29.568926,0.541628 l 6.33997,1.95582 1.47942,-7.162636 c 1.88806,-9.141065 7.88187,-18.1882 15.06993,-22.746732 6.67978,-4.236191 11.11141,-4.515399 15.60214,-0.98299 4.37898,3.444501 4.24269,7.778755 -0.52557,16.714261 -2.70455,5.068225 -3.70776,8.493994 -3.4375,11.73846 l 0.38164,4.581557 11.25,0.81988 c 6.1875,0.45094 13.21504,1.43531 15.61675,2.1875 6.19619,1.94058 6.13099,1.97312 8.98795,-4.48554 2.35243,-5.318038 2.45562,-6.603683 1.12864,-14.062499 -1.77276,-9.964555 -0.23856,-15.871462 4.60011,-17.711122 6.08665,-2.314141 18.33913,3.97536 22.16787,11.379319 2.34806,4.54066 2.32968,15.30213 -0.0374,21.872462 -0.99071,2.75 -1.80977,5.06224 -1.82012,5.13831 -0.01,0.0761 5.25462,-0.13751 11.69996,-0.47465 15.91617,-0.83252 23.26492,1.03772 30.18946,7.68313 11.67678,11.20607 7.65475,27.65801 -7.81159,31.95305 -6.60731,1.83486 -16.38972,1.64405 -23.36698,-0.45579 l -5.91764,-1.78095 0.66762,4.59345 c 0.3672,2.52639 1.01222,9.9372 1.43338,16.46845 0.42115,6.53125 0.9994,12.71875 1.28497,13.75 0.44384,1.6027 4.15788,1.82228 25.57448,1.51206 20.71754,-0.30009 25.3731,-0.045 26.89136,1.47322 1.547,1.54699 1.83615,8.93678 1.83615,46.92543 l 10e-6,45.08929 -109.375,0 -109.374996,0 0,-45.08929 z m 131.233086,30.64136 c 19.45046,-4.58421 32.00868,-18.62387 33.40939,-37.35057 0.31167,-4.16708 -0.60536,-19.92225 -2.03789,-35.01149 -2.3694,-24.95773 -3.33692,-45.69001 -2.13224,-45.69001 0.25979,0 2.49172,0.84375 4.95985,1.875 5.98857,2.50218 20.64215,2.42519 27.05863,-0.14218 11.14857,-4.46077 14.13824,-17.68175 5.97652,-26.42963 -6.98852,-7.49044 -21.74995,-10.70426 -36.4915,-7.94484 -4.06952,0.76176 -7.63235,1.15182 -7.91737,0.86679 -0.28501,-0.28502 0.72765,-3.93514 2.25037,-8.11137 5.83588,-16.005429 -0.85962,-29.38398 -15.5334,-31.037928 -5.50841,-0.620878 -5.83188,-0.478639 -7.4016,3.254607 -1.24546,2.962073 -1.34893,5.861156 -0.42893,12.017169 1.26925,8.492998 0.14206,15.162342 -3.37569,19.973142 -1.63753,2.23946 -2.23824,2.28812 -9.09875,0.73706 -4.04001,-0.9134 -11.84548,-2.00319 -17.34548,-2.42177 l -10,-0.76105 -0.37794,-5.862959 c -0.29734,-4.612623 0.4573,-7.467829 3.53861,-13.388382 2.15411,-4.138983 3.73044,-8.47229 3.50295,-9.62957 -0.73621,-3.745261 -6.56605,-7.101433 -10.74224,-6.184188 -9.05811,1.989496 -20.29638,17.064055 -20.29638,27.224757 0,6.013872 -1.6357,6.690072 -10.10155,4.175982 -8.10522,-2.406993 -23.563916,-2.551795 -29.020623,-0.27184 -8.946002,3.73788 -15.659468,15.9159 -13.911267,25.23462 1.09389,5.83093 5.391843,12.0162 9.955106,14.32658 4.842606,2.45181 20.618092,2.16877 27.922994,-0.50098 3.00831,-1.09946 5.68019,-1.99902 5.9375,-1.99902 1.32447,0 0.11914,9.55095 -2.64539,20.96184 -9.83467,40.59368 -12.267074,53.53499 -12.388821,65.91316 -0.100088,10.17632 0.341791,13.42483 2.377051,17.4751 3.39276,6.75171 11.53595,12.59527 21.96714,15.76366 15.07734,4.5796 48.70717,6.1634 62.39095,2.93831 z"
       id="path3555"
       inkscape:connector-curvature="0" />
    <path
       style="fill:#1d3754"
       d="m 142.55367,262.21928 c -21.80203,-1.78775 -36.83726,-8.68111 -42.19655,-19.34627 -2.03526,-4.05027 -2.477141,-7.29878 -2.377051,-17.4751 0.121747,-12.37817 2.554151,-25.31948 12.388821,-65.91316 2.76453,-11.41089 3.96986,-20.96184 2.64539,-20.96184 -0.25731,0 -2.92919,0.89956 -5.9375,1.99902 -7.304902,2.66975 -23.080388,2.95279 -27.922994,0.50098 -4.563263,-2.31038 -8.861216,-8.49565 -9.955106,-14.32658 -1.748201,-9.31872 4.965265,-21.49674 13.911267,-25.23462 5.456707,-2.279955 20.915403,-2.135153 29.020623,0.27184 8.46585,2.51409 10.10155,1.83789 10.10155,-4.175982 0,-10.160702 11.23827,-25.235261 20.29638,-27.224757 4.17619,-0.917245 10.00603,2.438927 10.74224,6.184188 0.22749,1.15728 -1.34884,5.490587 -3.50295,9.62957 -3.08131,5.920553 -3.83595,8.775759 -3.53861,13.388382 l 0.37794,5.862959 10,0.76105 c 5.5,0.41858 13.30547,1.50837 17.34548,2.42177 6.86051,1.55106 7.46122,1.5024 9.09875,-0.73706 3.51775,-4.8108 4.64494,-11.480144 3.37569,-19.973142 -0.92,-6.156014 -0.81653,-9.055096 0.42893,-12.017169 1.56972,-3.733246 1.89319,-3.875485 7.4016,-3.254607 14.67378,1.653948 21.36928,15.032499 15.5334,31.037928 -1.52272,4.17623 -2.53538,7.82635 -2.25037,8.11137 0.28502,0.28503 3.84785,-0.10503 7.91737,-0.86679 14.74155,-2.75942 29.50298,0.4544 36.4915,7.94484 8.16172,8.74788 5.17205,21.96886 -5.97652,26.42963 -6.41648,2.56737 -21.07006,2.64436 -27.05863,0.14218 -2.46813,-1.03125 -4.70006,-1.875 -4.95985,-1.875 -1.20468,0 -0.23716,20.73228 2.13224,45.69001 1.43253,15.08924 2.34956,30.84441 2.03789,35.01149 -0.70399,9.41193 -4.59808,18.45536 -10.64166,24.71363 -12.72842,13.18058 -28.01759,16.30797 -64.92927,13.28124 z m 36.55345,-2.44637 c 0.4249,-0.6875 2.1245,-1.25 3.77688,-1.25 6.13464,0 17.14171,-5.27484 23.13502,-11.08683 4.43047,-4.29641 6.48349,-7.53797 7.96593,-12.57755 2.53427,-8.61525 2.50814,-11.40335 -0.41153,-43.90064 -2.42367,-26.97666 -3.94931,-53.1565 -2.92775,-50.23969 0.30249,0.86365 1.03968,1.26763 1.63819,0.89773 0.59853,-0.3699 3.20086,0.21017 5.78299,1.28905 2.58214,1.07888 8.09126,2.20271 12.24252,2.49741 5.52527,0.39223 6.5429,0.25183 3.79775,-0.52395 -3.2751,-0.92554 -2.87935,-1.07907 3.125,-1.21231 10.62714,-0.23583 18.82957,-6.48493 16.82052,-12.81488 -0.44989,-1.41747 -0.97869,-4.04132 -1.17513,-5.83077 -0.45767,-4.16933 -6.66549,-9.71932 -12.76626,-11.41345 -5.48229,-1.52238 -24.12913,-1.80702 -24.12913,-0.36832 0,0.53119 -2.49561,1.54481 -5.5458,2.25248 -3.05018,0.70768 -5.26698,0.83557 -4.92622,0.2842 0.34076,-0.55136 -0.29569,-1.00248 -1.41433,-1.00248 -1.78695,0 -1.74108,-0.41736 0.37773,-3.4375 4.72737,-6.73838 6.0811,-15.898491 4.075,-27.573774 -0.0365,-0.212449 -0.71579,0.01509 -1.50951,0.505636 -0.91295,0.564234 -1.10303,0.341605 -0.51739,-0.605985 1.30746,-2.11551 -1.57726,-5.153736 -7.41448,-7.809025 -5.54336,-2.521619 -10.2502,-3.260579 -6.875,-1.079355 1.52658,0.986549 1.3697,1.215275 -0.8442,1.230859 -2.62013,0.01845 -2.71121,0.463112 -2.5,12.206641 0.19122,10.631431 -0.13988,12.795113 -2.5933,16.946453 -1.54687,2.61742 -2.8125,5.49319 -2.8125,6.39059 0,1.28313 -2.06926,1.13645 -9.6875,-0.68669 -5.32812,-1.27509 -13.65312,-2.32274 -18.5,-2.3281 -5.1748,-0.006 -9.43168,-0.62894 -10.3125,-1.50975 -2.8258,-2.82581 -1.75412,-12.126528 2.19203,-19.023673 6.9766,-12.193824 2.9982,-19.169294 -7.8166,-13.705114 -9.79889,4.950895 -14.85462,13.255961 -14.96125,24.576936 l -0.0699,7.426591 -4.48461,-0.72986 c -2.46654,-0.40142 -7.56032,-1.58824 -11.31952,-2.63737 -3.7592,-1.04913 -9.102952,-1.83346 -11.875001,-1.74296 l -5.040095,0.16455 4.375,0.9209 c 3.821886,0.80447 3.426805,0.94194 -3.125,1.08739 -12.740813,0.28283 -21.140496,6.691 -21.117526,16.11069 0.01823,7.47385 1.254905,13.83309 3.129756,16.09378 3.871128,4.66779 17.656288,7.23967 23.317231,4.35027 4.637015,-2.36678 15.314535,-4.87266 16.004615,-3.75609 0.39252,0.63511 1.13945,0.89159 1.65985,0.56997 1.52106,-0.94007 -0.56959,10.66732 -6.73967,37.41899 -8.87966,38.49961 -9.767151,43.8912 -8.84758,53.75 0.44888,4.8125 0.82818,9.74653 0.84288,10.96451 0.0155,1.28106 0.60317,1.85827 1.39423,1.36936 0.82312,-0.50871 1.01034,-0.26727 0.47031,0.60653 -2.46407,3.98693 9.82109,13.27576 21.7609,16.45345 12.45143,3.31383 52.72462,5.15152 54.375,2.48115 z m -23.4375,-0.82785 c 0.85938,-0.34677 2.26563,-0.34677 3.125,0 0.85938,0.34676 0.15625,0.63048 -1.5625,0.63048 -1.71875,0 -2.42187,-0.28372 -1.5625,-0.63048 z m 13.4375,-27.92215 c 0.4249,-0.6875 1.0206,-1.25 1.32378,-1.25 0.30317,0 0.55122,0.5625 0.55122,1.25 0,0.6875 -0.59569,1.25 -1.32377,1.25 -0.72807,0 -0.97612,-0.5625 -0.55123,-1.25 z m 6.33037,-9.63359 c -0.67836,-1.7815 -0.53478,-1.92508 0.69974,-0.69975 0.85428,0.84792 1.23834,1.85655 0.85348,2.24141 -0.38485,0.38486 -1.08381,-0.30889 -1.55322,-1.54166 z M 150.46943,158.647 c -1.40751,-1.55528 -1.6903,-2.66011 -0.81873,-3.19877 0.73228,-0.45258 1.40174,-0.50842 1.48767,-0.1241 0.0859,0.38433 0.23518,1.12065 0.33165,1.63627 0.0965,0.51563 0.62184,1.64063 1.16752,2.5 1.48481,2.33842 0.27272,1.88369 -2.16811,-0.8134 z m -4.48731,-3.87409 c 0,-0.6875 0.5957,-1.25 1.32378,-1.25 0.72807,0 0.97612,0.5625 0.55122,1.25 -0.42489,0.6875 -1.02059,1.25 -1.32377,1.25 -0.30317,0 -0.55123,-0.5625 -0.55123,-1.25 z m -1.48437,-15.8539 c 0.90234,-0.36108 1.98047,-0.31668 2.39583,0.0987 0.41537,0.41537 -0.32291,0.7108 -1.64062,0.65653 -1.45618,-0.06 -1.75238,-0.35618 -0.75521,-0.75521 z m 81.48437,-7.4678 c 1.03125,-0.34338 3.5625,-1.13499 5.625,-1.75914 3.48205,-1.05373 3.57663,-1.00207 1.32359,0.72301 -1.33452,1.0218 -3.86577,1.81342 -5.625,1.75914 -1.7647,-0.0545 -2.35805,-0.37856 -1.32359,-0.72301 z m -11.25,-0.91957 c 0,-0.27019 0.87297,-0.82625 1.93993,-1.23568 1.1124,-0.42687 1.61415,-0.21731 1.17622,0.49126 -0.73407,1.18776 -3.11615,1.75681 -3.11615,0.74442 z m -112.73437,-4.11263 c 0.90234,-0.36108 1.98047,-0.31668 2.39583,0.0987 0.41537,0.41537 -0.32291,0.7108 -1.64062,0.65653 -1.45618,-0.06 -1.75238,-0.35618 -0.75521,-0.75521 z m 110.85937,-1.6461 c -0.4249,-0.6875 0.1376,-1.25 1.25,-1.25 1.1124,0 1.6749,0.5625 1.25,1.25 -0.4249,0.6875 -0.9874,1.25 -1.25,1.25 -0.2626,0 -0.8251,-0.5625 -1.25,-1.25 z m 6.57708,-2.13408 c 1.55489,-0.29899 3.80489,-0.28764 5,0.0252 1.19511,0.31286 -0.0771,0.55749 -2.82708,0.54362 -2.75,-0.0139 -3.72781,-0.26986 -2.17292,-0.56885 z m 28.88847,-1.30342 c -1.55483,-1.98257 -1.51062,-2.02679 0.47195,-0.47195 2.08219,1.63296 2.74435,2.65945 1.71555,2.65945 -0.25956,0 -1.24393,-0.98438 -2.1875,-2.1875 z m -151.324921,-4.9164 c 0.902344,-0.36108 1.980469,-0.31668 2.395834,0.0987 0.415363,0.41537 -0.322918,0.7108 -1.640625,0.65653 -1.456179,-0.06 -1.752375,-0.35618 -0.755209,-0.75521 z m 28.053351,-2.84985 c -1.28174,-2.05239 -1.22869,-2.33721 0.32432,-1.74127 1.02119,0.39187 1.8567,1.49606 1.8567,2.45375 0,2.31881 -0.36175,2.20063 -2.18102,-0.71248 z"
       id="path3553"
       inkscape:connector-curvature="0" />
    <path
       style="fill:#262426"
       d="m 138.48212,259.74157 c -16.9684,-1.98978 -29.38164,-7.35176 -34.51771,-14.91016 -4.480935,-6.5943 -3.5979,-6.9205 2.07473,-0.76643 9.34833,10.14174 21.55824,13.62886 54.31798,15.51311 l 18.75,1.07845 -16.25,0.0189 c -8.9375,0.01 -19.90625,-0.40985 -24.375,-0.93388 z m -7.5,-32.42944 c 0,-0.66591 0.84375,-0.88699 1.875,-0.49126 1.03125,0.39574 1.875,0.94057 1.875,1.21077 0,0.27019 -0.84375,0.49127 -1.875,0.49127 -1.03125,0 -1.875,-0.54485 -1.875,-1.21078 z m 41.875,-6.28922 c -0.42489,-0.6875 -0.21004,-1.25 0.47746,-1.25 0.6875,0 1.59765,0.5625 2.02254,1.25 0.4249,0.6875 0.21005,1.25 -0.47745,1.25 -0.6875,0 -1.59765,-0.5625 -2.02255,-1.25 z M 145.1644,174.99819 c -1.91567,-1.24529 -4.50896,-6.56527 -3.62917,-7.44505 1.48855,-1.48855 11.94689,-1.73345 11.94689,-0.27975 0,4.17608 -5.67257,9.44429 -8.31772,7.7248 z m 22.82646,-0.95252 c -1.67632,-4.36842 -0.78347,-6.45532 3.09359,-7.23073 4.2562,-0.85124 8.64767,0.89222 8.64767,3.43321 0,4.65864 -10.15095,7.9418 -11.74126,3.79752 z m -18.08472,-16.81435 c -1.62303,-1.35213 -2.41334,-2.45841 -1.75623,-2.45841 0.65711,0 2.21286,1.125 3.45721,2.5 2.8586,3.15871 2.11883,3.14063 -1.70098,-0.0416 z m 25.45098,-1.37256 c -2.16339,-1.33997 -2.92556,-2.32548 -1.80141,-2.32927 2.21417,-0.008 7.12283,3.24842 6.17445,4.09549 -0.34267,0.30606 -2.31054,-0.48873 -4.37304,-1.76622 z m 50,-10.68098 c -1.375,-0.30532 -4.64645,-1.37535 -7.2699,-2.37785 -2.62343,-1.00249 -5.23637,-1.53442 -5.80651,-1.18205 -1.12292,0.69401 -2.54859,-2.17894 -2.54859,-5.13582 0,-1.32017 1.26295,-0.87308 4.49287,1.59049 2.80968,2.14306 8.07796,4.23347 14.0625,5.5799 7.64121,1.71916 8.56206,2.14572 4.56963,2.11674 -2.75,-0.02 -6.125,-0.28609 -7.5,-0.59141 z m -60.34686,-4.85075 c -1.52798,-1.07024 -2.77814,-2.77539 -2.77814,-3.78923 0,-3.06446 -3.20024,-3.31284 -7.65914,-0.59445 -5.58353,3.40402 -11.99761,3.33781 -15.72332,-0.16232 -2.6038,-2.44614 -3.3636,-2.58096 -7.04431,-1.25 -5.11064,1.84803 -7.76197,1.88021 -11.02512,0.13382 l -2.53755,-1.35805 2.5083,-2.33683 c 1.37956,-1.28526 2.88296,-4.04269 3.34089,-6.12762 0.45793,-2.08492 1.35182,-4.11167 1.98643,-4.50388 0.6346,-0.39221 1.15382,-1.82957 1.15382,-3.19413 0,-1.36456 0.70313,-2.3281 1.5625,-2.14119 2.24626,0.48855 13.23993,-5.09918 14.51492,-7.37746 0.74439,-1.33015 1.34564,-1.48855 1.94838,-0.5133 0.51284,0.8298 4.47086,1.41052 9.61372,1.41052 10.49646,0 25.44053,3.19518 29.81682,6.37512 3.33758,2.42518 12.54366,6.54455 12.54366,5.61281 0,-0.3001 1.63372,1.08809 3.63049,3.08486 3.29864,3.29864 3.99039,3.50502 7.56796,2.25787 3.36267,-1.17223 4.18394,-1.03554 5.6258,0.93633 1.13889,1.55751 4.0661,2.59226 8.99455,3.17949 4.74139,0.56495 3.24579,0.65021 -4.2604,0.24288 l -11.56658,-0.62769 -2.18342,3.8791 c -2.61411,4.6443 -6.86447,6.00589 -12.09135,3.8734 -7.20422,-2.93922 -9.47163,-2.99531 -12.34338,-0.30536 -2.76387,2.5889 -8.48316,5.24119 -11.30191,5.24119 -0.83352,0 -2.76565,-0.87565 -4.29362,-1.94588 z m -84.805258,-1.10027 c -3.84867,-1.67504 -8.012324,-6.29184 -7.931292,-8.79449 0.02287,-0.7064 1.018013,-0.1168 2.211421,1.31024 3.836637,4.58769 8.901914,7.09661 16.223288,8.03568 l 7.148705,0.91692 -6.875,0.11497 c -3.78125,0.0632 -8.630955,-0.64926 -10.777123,-1.58332 z m 33.995678,-3.05248 c -0.38731,-0.62668 0.13632,-1.46195 1.16362,-1.85616 1.02731,-0.39421 1.86782,-0.2051 1.86782,0.42025 0,1.69444 -2.22137,2.74664 -3.03144,1.43591 z m 120.19463,-9.2261 c -0.43757,-1.14033 -2.65019,-2.60803 -4.9169,-3.26156 -3.70455,-1.06809 -3.79785,-1.19964 -0.9227,-1.30098 3.92938,-0.13849 7.97073,2.62935 7.20281,4.93306 -0.43286,1.29861 -0.75645,1.21066 -1.36321,-0.37052 z M 90.430613,126.14181 c -0.398832,-0.64532 1.58262,-0.83988 4.613729,-0.45301 7.038638,0.89835 7.566728,1.58411 1.219887,1.58411 -2.82401,0 -5.449136,-0.50899 -5.833616,-1.1311 z m 160.160637,-3.06202 c -3.24389,-4.9508 -12.50273,-8.60142 -24.48169,-9.65276 l -10.75244,-0.9437 12.53072,0.24015 c 9.91503,0.19003 13.41027,0.75515 16.74433,2.70729 4.41854,2.58711 9.79527,8.81349 8.62307,9.98569 -0.37645,0.37646 -1.57525,-0.67504 -2.66399,-2.33667 z M 115.98212,120.4745 c 0,-1.17501 -1.84152,-2.03582 -5.3125,-2.4833 -10.58089,-1.36409 -11.512382,-1.62946 -6.31152,-1.79807 7.73116,-0.25063 17.87402,2.19421 17.87402,4.30836 0,1.05618 -1.26176,1.77142 -3.125,1.77142 -1.88529,0 -3.125,-0.71344 -3.125,-1.79841 z m 85,-3.19684 c 0,-1.51539 3.50564,-3.16578 4.53597,-2.13545 0.37298,0.37298 -0.49503,1.30601 -1.9289,2.0734 -1.80774,0.96747 -2.60707,0.98649 -2.60707,0.062 z m -78.46852,-6.94829 c -3.95097,-2.76737 -12.22836,-5.52941 -22.15648,-7.39329 -7.437885,-1.39637 -7.994206,-1.66298 -3.709906,-1.77794 2.772049,-0.0744 8.115796,0.72315 11.874996,1.77228 3.7592,1.04913 8.92925,2.24618 11.48899,2.66011 3.09707,0.50081 4.91254,1.56691 5.42664,3.18668 1.06081,3.34231 0.24772,3.77389 -2.92424,1.55216 z m 83.75491,-26.686439 c -1.47606,-1.996487 -5.65997,-5.120565 -9.29757,-6.942395 -4.72559,-2.366737 -5.5432,-3.089945 -2.86382,-2.533165 5.77663,1.200391 10.9248,4.663645 13.50834,9.087267 2.92243,5.003896 2.21606,5.207525 -1.34695,0.388293 z m -60.28639,-9.119852 c -4.18533,-2.148903 -4.2326,-2.246371 -1.09055,-2.248229 1.80644,-0.0011 3.99597,0.855401 4.86562,1.903264 2.30825,2.781263 1.1722,2.885075 -3.77507,0.344965 z"
       id="path3551"
       inkscape:connector-curvature="0" />
  </g>
</svg>
