<?xml version="1.0" encoding="utf-8"?>
<!-- Generator: Adobe Illustrator 21.0.0, SVG Export Plug-In . SVG Version: 6.00 Build 0)  -->
<svg version="1.1" id="Livello_1" xmlns="http://www.w3.org/2000/svg" xmlns:xlink="http://www.w3.org/1999/xlink" x="0px" y="0px"
	 viewBox="0 0 512 512" style="enable-background:new 0 0 512 512;" xml:space="preserve">
<style type="text/css">
	.st0{fill:#7A7A7A;}
	.st1{fill:#0D7F4F;}
	.st2{fill:#FFFFFF;}
</style>
<path class="st0" d="M496.5,85L477,499.5L246.4,327.2L8.5,475.4L28.1,60.9c0,0,6.5-33.6,123-30.2c116.5,3.4,243.6,12.9,243.6,12.9
	S481.9,41.9,496.5,85z"/>
<path class="st1" d="M504.7,50.5v454.1L260.3,329.7L24,504.7V50.5c0,0,5.7-37.1,124.7-40.5s250.1,0,250.1,0S488.4,4,504.7,50.5z"/>
<g>
	<path class="st2" d="M101.4,234.9H75.3V132.4h23.6V147c4.1-6.9,8.1-11.2,11.4-13.8c3.3-2.6,7.3-3.4,11.4-3.4
		c5.7,0,11.4,1.7,17.1,5.2l-8.1,24.1c-4.1-2.6-8.1-4.3-12.2-4.3c-3.3,0-6.5,0.9-9,3.4c-2.4,1.7-4.1,6-5.7,11.2
		c-1.6,5.2-2.4,17.2-2.4,34.5L101.4,234.9L101.4,234.9z"/>
	<path class="st2" d="M205.7,202.2l25.3,4.3c-3.3,10.3-8.1,17.2-15.5,22.4s-16.3,7.8-26.9,7.8c-17.1,0-29.3-6-37.5-17.2
		c-6.5-9.5-9.8-21.5-9.8-35.3c0-17.2,4.1-30.2,12.2-39.6c8.1-9.5,18.7-14.6,31.8-14.6c14.7,0,26.1,5.2,34.2,15.5
		c8.1,10.3,12.2,25.9,12.2,46.5h-64.4c0,7.8,2.4,14.6,6.5,19s9,6.9,14.7,6.9c4.1,0,7.3-0.9,9.8-3.4
		C200.8,211.7,204,207.4,205.7,202.2z M207.3,174.6c0-7.8-2.4-13.8-5.7-18.1c-3.3-4.3-8.1-6-13-6c-5.7,0-10.6,2.6-13.9,6.9
		s-5.7,10.3-5.7,17.2L207.3,174.6L207.3,174.6z"/>
	<path class="st2" d="M273.3,163.4l-23.6-4.3c2.4-10.3,7.3-17.2,13.9-22.4s16.3-6.9,28.5-6.9c11.4,0,20.4,1.7,25.3,4.3
		c5.7,2.6,9.8,6.9,12.2,11.2c2.4,4.3,3.3,12.9,3.3,24.1v31.9c0,8.6,0.8,15.5,1.6,19.8c0.8,4.3,2.4,8.6,4.9,13.8H314
		c-0.8-1.7-1.6-4.3-2.4-7.8c-0.8-1.7-0.8-2.6-0.8-3.4c-4.1,4.3-9,7.8-13.9,10.3c-4.9,2.6-10.6,3.4-16.3,3.4
		c-9.8,0-17.9-2.6-23.6-8.6c-5.7-6-9-12.9-9-21.5c0-6,1.6-11.2,4.1-15.5c2.4-4.3,6.5-7.8,11.4-10.3c4.9-2.6,11.4-4.3,20.4-6
		c12.2-2.6,20.4-4.3,25.3-6.9V166c0-5.2-1.6-8.6-3.3-11.2c-2.4-2.6-7.3-3.4-13.9-3.4c-4.9,0-8.1,0.9-10.6,2.6
		C276.5,155.7,274.1,159.1,273.3,163.4z M307.5,185.8c-3.3,0.9-8.1,2.6-15.5,4.3c-7.3,1.7-11.4,3.4-13.9,5.2c-3.3,2.6-4.9,6-4.9,9.5
		c0,3.4,1.6,6.9,4.1,9.5c2.4,2.6,5.7,4.3,10.6,4.3c4.9,0,9-1.7,13-5.2c3.3-2.6,4.9-5.2,6.5-8.6c0.8-2.6,0.8-6.9,0.8-12.9v-6H307.5z"
		/>
	<path class="st2" d="M446.8,234.9h-23.6v-15.5c-4.1,6-9,10.3-13.9,12.9c-5.7,2.6-10.6,4.3-16.3,4.3c-11.4,0-20.4-5.2-28.5-14.6
		s-12.2-22.4-12.2-39.6s4.1-31,11.4-39.6c8.1-9.5,17.9-13.8,29.3-13.8c10.6,0,20.4,5.2,28.5,14.6V92.8h26.1v142.2H446.8z
		 M378.4,181.5c0,11.2,1.6,19,4.1,24.1c4.1,6.9,9.8,10.3,17.1,10.3c5.7,0,10.6-2.6,15.5-7.8c4.1-5.2,6.5-12.9,6.5-24.1
		c0-12.1-1.6-20.7-5.7-25.9s-9-7.8-15.5-7.8c-5.7,0-11.4,2.6-15.5,7.8S378.4,171.2,378.4,181.5z"/>
</g>
</svg>
