<?xml version="1.0" encoding="UTF-8" standalone="no"?>
<svg
   xmlns:dc="http://purl.org/dc/elements/1.1/"
   xmlns:cc="http://creativecommons.org/ns#"
   xmlns:rdf="http://www.w3.org/1999/02/22-rdf-syntax-ns#"
   xmlns:svg="http://www.w3.org/2000/svg"
   xmlns="http://www.w3.org/2000/svg"
   xmlns:sodipodi="http://sodipodi.sourceforge.net/DTD/sodipodi-0.dtd"
   xmlns:inkscape="http://www.inkscape.org/namespaces/inkscape"
   version="1.0"
   width="1024pt"
   height="1051.3066pt"
   viewBox="0 0 1024 1051.3066"
   preserveAspectRatio="xMidYMid meet"
   id="svg3336"
   inkscape:version="0.91 r13725"
   sodipodi:docname="gv2.svg">
  <defs
     id="defs3346" />
  <sodipodi:namedview
     pagecolor="#ffffff"
     bordercolor="#666666"
     borderopacity="1"
     objecttolerance="10"
     gridtolerance="10"
     guidetolerance="10"
     inkscape:pageopacity="0"
     inkscape:pageshadow="2"
     inkscape:window-width="1920"
     inkscape:window-height="1017"
     id="namedview3344"
     showgrid="false"
     inkscape:zoom="0.38936789"
     inkscape:cx="109.75183"
     inkscape:cy="759.77817"
     inkscape:window-x="-8"
     inkscape:window-y="-8"
     inkscape:window-maximized="1"
     inkscape:current-layer="g3340" />
  <metadata
     id="metadata3338">
Created by potrace 1.10, written by Peter Selinger 2001-2011
<rdf:RDF>
  <cc:Work
     rdf:about="">
    <dc:format>image/svg+xml</dc:format>
    <dc:type
       rdf:resource="http://purl.org/dc/dcmitype/StillImage" />
    <dc:title></dc:title>
  </cc:Work>
</rdf:RDF>
</metadata>
  <g
     transform="matrix(0.34513309,0,0,-0.34513309,-7.3439629,1056.0511)"
     id="g3340"
     style="fill:#000000;stroke:none">
    <path
       d="M 239,3060 C 137,3042 62,2972 30,2865 22,2835 20,2559 22,1820 L 25,815 47,775 c 26,-48 68,-90 106,-104 17,-7 129,-11 288,-11 l 259,0 -6,-27 C 690,617 658,508 623,390 560,177 523,23 533,14 c 3,-3 40,21 83,54 103,77 637,462 737,532 l 79,55 686,5 c 725,6 717,5 785,52 15,11 37,38 49,61 22,42 22,46 30,782 5,407 7,875 6,1041 l -3,301 -36,59 c -25,40 -51,67 -80,84 l -44,25 -1270,1 c -698,1 -1291,-2 -1316,-6 z m 710,-445 c 204,-270 271,-367 263,-380 -13,-23 -149,-134 -177,-145 -26,-10 -27,-13 -23,-61 6,-62 54,-135 153,-234 151,-151 326,-254 491,-289 37,-8 64,12 64,47 0,12 22,63 49,112 35,65 54,91 70,93 11,2 67,-15 124,-38 202,-83 471,-200 480,-209 12,-12 -68,-199 -101,-234 -34,-36 -213,-154 -246,-163 -71,-18 -398,83 -601,186 -326,165 -653,433 -804,660 -81,122 -191,347 -191,392 0,32 52,183 84,246 23,45 194,173 226,170 19,-2 51,-37 139,-153 z"
       id="path3342"
       inkscape:connector-curvature="0"
       style="fill:#00a0d5;fill-opacity:1" />
  </g>
</svg>
