<svg version="1.1"
     xmlns="http://www.w3.org/2000/svg" xmlns:xlink="http://www.w3.org/1999/xlink" xmlns:a="http://ns.adobe.com/AdobeSVGViewerExtensions/3.0/"
     x="0px" y="0px" width="439px" height="369px" viewBox="0 0 439 369" style="enable-background:new 0 0 439 369;"
     xml:space="preserve">
<style type="text/css">
    .st0{fill:#7DD54E;}
    .st1{fill:#2383E5;}
    .st2{fill:#FFFFFF;}
</style>
<defs>
</defs>
<g id="Rounded_Rectangle_1_2_">
    <g>
        <path class="st0" d="M395.2,82l-184.5,4.5c-23.6,3.9-41,19.9-43.8,44L158.2,245c0,24.3,19.2,37.4,43.8,44l62.5,10.3L342,369
            l-10.3-58.6l44.6,7.3c24.2,0,43.8-19.7,43.8-44L439,126C439,101.7,419.4,82,395.2,82z"/>
    </g>
</g>
<g id="Rounded_Rectangle_1_copy_2_">
    <g>
        <path class="st1" d="M347.1,92.2c-3.2-28.1-23.5-46.8-51-51.2L51,0C22.9,0,0,22.9,0,51.2l10.2,225.5c0,28.3,22.9,51.3,51,51.3
            l126.6-26.5l-9.2,52.1l72.8-65.4l54.8-11.5c28.7-7.7,51-22.9,51-51.2L347.1,92.2z"/>
    </g>
</g>
<g id="Shape_11_copy_2_">
    <g>
        <path class="st2" d="M170.8,92.4c1.2,2.3,2.8,4.5,4.7,6.3c1.9,1.8,4,3.3,6.2,4.5c2.3,1.1,4.7,1.8,7.1,2c2.4,0.2,4.7-0.2,6.6-0.9
            c1.9-0.8,3.6-2,5-3.5c1.3-1.5,2.3-3.4,2.9-5.5c0.6-2.1,0.8-4.4,0.4-7c-0.3-2.5-1.1-5-2.2-7.2c-1.1-2.3-2.6-4.4-4.4-6.2
            c-1.8-1.8-3.8-3.4-6-4.6c-2.2-1.2-4.6-2-7-2.2c-2.5-0.3-4.7,0-6.8,0.7c-2,0.7-3.8,1.9-5.2,3.4c-1.4,1.5-2.5,3.4-3.1,5.6
            c-0.6,2.2-0.8,4.6-0.5,7.2C168.7,87.6,169.5,90.1,170.8,92.4z M227.6,106.6c1,2,2.2,3.7,3.7,5.3c1.5,1.5,3.2,2.8,5,3.7
            c1.8,0.9,3.7,1.5,5.6,1.6c1.9,0.1,3.7-0.2,5.3-0.9c1.6-0.7,2.9-1.7,4-3c1.1-1.3,1.9-2.9,2.3-4.7c0.5-1.8,0.6-3.8,0.3-5.9
            c-0.3-2.1-0.9-4.2-1.8-6.1c-0.9-1.9-2.1-3.7-3.5-5.2c-1.4-1.5-3.1-2.8-4.8-3.8c-1.8-1-3.7-1.6-5.6-1.8c-2-0.2-3.8,0.1-5.4,0.7
            c-1.6,0.6-3,1.6-4.1,3c-1.1,1.3-2,2.9-2.5,4.8c-0.5,1.8-0.6,3.9-0.4,6.1C226,102.5,226.7,104.7,227.6,106.6z M89.7,73.7
            c1.3,2.1,2.9,4.1,4.6,5.7c1.7,1.6,3.7,3,5.7,3.9c0.5,0.2,0.9,0.4,1.4,0.6c0.5,0.2,0.9,0.3,1.4,0.4c0.5,0.1,0.9,0.2,1.4,0.3
            c0.5,0.1,0.9,0.1,1.4,0.2c1.6,0.2,3.1,0.1,4.5-0.2c1.4-0.3,2.8-0.8,4-1.5c1.2-0.7,2.3-1.6,3.2-2.6c0.9-1,1.6-2.2,2.2-3.6
            c0,0,0-0.1,0-0.1c0,0,0-0.1,0-0.1c0,0,0-0.1,0-0.1c0,0,0-0.1,0-0.1c0,0,0-0.1,0-0.1c0,0,0-0.1,0-0.1c0,0,0-0.1,0-0.1
            c0,0,0-0.1,0-0.1c0.1-0.3,0.2-0.7,0.3-1.1c0.1-0.4,0.2-0.7,0.2-1.1c0.1-0.4,0.1-0.8,0.1-1.2c0-0.4,0-0.8,0-1.2
            c0-0.6,0-1.2-0.1-1.9c0-0.6-0.1-1.2-0.2-1.8c-0.1-0.6-0.2-1.2-0.3-1.8c-0.1-0.6-0.3-1.2-0.4-1.8c-0.5-1.9-1.2-3.7-2-5.4
            c-0.9-1.7-1.9-3.3-3.1-4.7c-1.2-1.4-2.5-2.8-4-3.9c-1.5-1.1-3.1-2.1-4.9-2.9c-0.4-0.2-0.7-0.3-1.1-0.4c-0.4-0.1-0.7-0.2-1.1-0.3
            c-0.4-0.1-0.7-0.2-1.1-0.3c-0.4-0.1-0.7-0.1-1.1-0.2c-0.8-0.1-1.7-0.2-2.5-0.1c-0.8,0-1.6,0.1-2.4,0.3c-0.8,0.2-1.5,0.4-2.3,0.6
            c-0.7,0.3-1.4,0.6-2.1,1c-0.1,0-0.1,0.1-0.2,0.1c-0.1,0-0.1,0.1-0.2,0.1c-0.1,0-0.1,0.1-0.2,0.1c-0.1,0-0.1,0.1-0.2,0.1
            c-0.1,0.1-0.2,0.1-0.3,0.2c-0.1,0.1-0.2,0.2-0.3,0.2c-0.1,0.1-0.2,0.2-0.3,0.2c-0.1,0.1-0.2,0.2-0.3,0.2c-0.1,0.1-0.3,0.3-0.4,0.4
            c-0.1,0.1-0.3,0.3-0.4,0.4c-0.1,0.1-0.3,0.3-0.4,0.4c-0.1,0.1-0.3,0.3-0.4,0.4c-0.1,0.1-0.2,0.2-0.2,0.3c-0.1,0.1-0.2,0.2-0.2,0.3
            c-0.1,0.1-0.1,0.2-0.2,0.3c-0.1,0.1-0.1,0.2-0.2,0.3c-0.2,0.4-0.5,0.8-0.7,1.2c-0.2,0.4-0.4,0.9-0.5,1.3c-0.2,0.5-0.3,0.9-0.4,1.4
            c-0.1,0.5-0.2,1-0.2,1.5c0,0.2,0,0.3,0,0.5c0,0.2,0,0.3,0,0.5c0,0.2,0,0.3,0,0.5c0,0.2,0,0.3,0,0.5c0,2.4,0.4,4.8,1.1,7.2
            C87.4,69.3,88.4,71.6,89.7,73.7z M268.1,101.4c0.8,1.8,1.9,3.4,3.2,4.7c1.3,1.4,2.7,2.5,4.2,3.3c1.5,0.8,3.2,1.3,4.8,1.5
            c1.6,0.1,3.2-0.2,4.5-0.8c1.3-0.6,2.5-1.5,3.4-2.7c0.9-1.2,1.6-2.6,2-4.2c0.4-1.6,0.5-3.4,0.3-5.3c-0.2-1.9-0.8-3.8-1.6-5.5
            c-0.8-1.7-1.8-3.3-3-4.7c-1.2-1.4-2.6-2.5-4.1-3.4c-1.5-0.9-3.1-1.4-4.8-1.6c-1.7-0.2-3.2,0-4.6,0.6c-1.4,0.6-2.6,1.5-3.5,2.6
            c-1,1.2-1.7,2.6-2.1,4.3c-0.4,1.6-0.5,3.5-0.3,5.5C266.7,97.7,267.3,99.7,268.1,101.4z M156.3,249.1c-0.3-0.1-0.5-0.2-0.7-0.3
            c-0.2-0.1-0.5-0.2-0.8-0.3c0,0-0.2-0.1-0.5-0.2c-0.2-0.1-0.5-0.2-0.9-0.4c-0.3-0.1-0.6-0.3-0.9-0.4c-0.2-0.1-0.4-0.2-0.5-0.2
            c-2.2-0.9-4.2-2-5.8-3.2c-1.7-1.2-3-2.7-4.2-4.4c-1.1-1.7-2-3.7-2.7-6.1c-0.6-2.4-1.1-5.1-1.3-8.3c-0.1-2.1-0.2-4.2-0.3-6.4
            c-0.1-2.1-0.2-4.2-0.3-6.3c-0.1-2.1-0.2-4.2-0.2-6.3c-0.1-2.1-0.2-4.2-0.2-6.2c-0.1-3-0.2-6-0.3-9c-0.1-3-0.2-6-0.3-8.9
            c-0.1-2.9-0.2-5.9-0.3-8.8c-0.1-2.9-0.2-5.8-0.4-8.6c-0.1-1.5-0.1-2.7,0.1-3.7c0.2-1,0.4-1.8,0.9-2.4c0.4-0.6,1.1-1,1.8-1.2
            c0.8-0.2,1.7-0.3,2.9-0.3c0.1,0,0.2,0,0.3,0c0.1,0,0.2,0,0.3,0c0.1,0,0.2,0,0.3,0c0.1,0,0.2,0,0.4,0c0.5,0,1,0.1,1.5,0.1
            c0.5,0,1,0,1.5,0c0.5,0,1,0,1.5,0c0.5,0,1,0,1.5,0.1c0.1,0,0.1,0,0.2,0c0.1,0,0.1,0,0.2,0c0.1,0,0.1,0,0.2,0c0.1,0,0.1,0,0.2,0
            c0.9,0,1.7-0.1,2.4-0.4c0.7-0.3,1.4-0.6,2-1.1c0.6-0.5,1.1-1.1,1.6-1.8c0.4-0.7,0.8-1.6,1.1-2.5c0.3-0.9,0.4-1.8,0.5-2.7
            c0.1-0.9,0-1.7-0.1-2.6c-0.1-0.8-0.4-1.7-0.7-2.5c-0.4-0.8-0.8-1.6-1.4-2.3c-0.1-0.1-0.1-0.2-0.2-0.2c-0.1-0.1-0.1-0.2-0.2-0.2
            c-0.1-0.1-0.1-0.2-0.2-0.2c-0.1-0.1-0.1-0.2-0.2-0.2c-0.7-0.7-1.3-1.3-2.1-1.8c-0.7-0.5-1.4-0.9-2.2-1.3c-0.8-0.3-1.5-0.6-2.3-0.8
            c-0.8-0.2-1.6-0.4-2.5-0.5c-2.5-0.4-4.4-0.8-5.9-1.3c-1.5-0.5-2.6-1.2-3.3-2.2c-0.8-1-1.2-2.4-1.5-4.2c-0.3-1.8-0.3-4.2-0.4-7.2
            c0-0.3,0-0.5,0-0.8c0-0.3,0-0.5,0-0.8c0-0.3,0-0.5,0-0.8c0-0.3,0-0.5,0-0.8c0-0.9-0.1-1.8-0.2-2.7c-0.1-0.9-0.2-1.8-0.4-2.6
            c-0.2-0.9-0.4-1.7-0.7-2.5c-0.3-0.8-0.6-1.6-0.9-2.4c-0.6-1.3-1.3-2.6-2-3.8c-0.8-1.2-1.7-2.3-2.6-3.4c-1-1-2.1-2-3.2-2.8
            c-1.2-0.8-2.4-1.6-3.8-2.2c-2.2-1-4.4-1.9-6.7-2.7c-2.3-0.8-4.5-1.6-6.9-2.3c-2.3-0.7-4.7-1.2-7.1-1.7c-2.4-0.5-4.8-0.8-7.3-1
            c-0.3,0-0.5,0-0.8-0.1c-0.3,0-0.5,0-0.8-0.1c-0.3,0-0.5,0-0.8-0.1c-0.3,0-0.6,0-0.8,0c-0.7,0-1.4,0-2.1,0c-0.7,0.1-1.4,0.1-2,0.3
            c-0.7,0.1-1.3,0.3-1.9,0.5c-0.6,0.2-1.2,0.5-1.8,0.7c-0.5,0.3-1.1,0.6-1.6,0.9c-0.5,0.3-1,0.7-1.4,1.1c-0.5,0.4-0.9,0.8-1.3,1.2
            c-0.4,0.4-0.8,0.9-1.2,1.4c-0.5,0.7-0.9,1.4-1.3,2.1c-0.4,0.8-0.8,1.6-1,2.4c-0.3,0.8-0.5,1.7-0.7,2.7c-0.2,0.9-0.3,1.9-0.4,2.9
            c-0.1,1-0.1,1.9-0.2,2.9c0,1-0.1,1.9-0.1,2.9c0,1,0,2-0.1,2.9c0,1,0,2-0.1,2.9c0,0.9-0.1,1.8-0.1,2.5c0,0.7-0.1,1.4-0.1,2
            c-0.1,0.6-0.1,1.1-0.3,1.5c-0.1,0.4-0.3,0.8-0.4,1.1c-0.2,0.4-0.5,0.7-0.9,0.9c-0.4,0.2-0.9,0.3-1.5,0.4c-0.6,0.1-1.3,0.1-2.2,0.1
            c-0.9,0-1.9,0-3.1-0.1c-0.9,0-1.9,0-2.7,0.2c-0.9,0.2-1.7,0.4-2.5,0.8c-0.8,0.4-1.5,0.8-2.2,1.3c-0.7,0.5-1.3,1.1-1.8,1.8
            c-0.2,0.3-0.5,0.6-0.7,0.9c-0.2,0.3-0.4,0.7-0.6,1c-0.2,0.4-0.3,0.7-0.5,1.1c-0.1,0.4-0.3,0.8-0.4,1.2c-0.1,0.4-0.2,0.7-0.3,1.1
            c-0.1,0.4-0.1,0.7-0.2,1.1c0,0.2,0,0.4,0,0.6l0,1.8c0.1,1.8,0.5,3.5,1.2,5c0.7,1.6,1.6,3,2.8,4.2c1.2,1.2,2.6,2.3,4.3,3.1
            c1.7,0.8,3.6,1.4,5.6,1.7c1.4,0.2,2.5,0.5,3.4,1c0.9,0.5,1.6,1,2.2,1.8c0.5,0.7,0.9,1.6,1.1,2.6c0.2,1,0.3,2.2,0.3,3.6
            c0,3.6-0.1,7.2-0.1,10.9c0,3.6-0.1,7.2-0.1,10.9c0,3.6,0,7.3,0,10.9c0,3.6,0,7.3,0,10.9c0,1,0,2,0,3c0,1,0,2,0,3c0,1,0,2,0,3
            c0,1,0,2,0,3c0,2.6,0.1,5.1,0.3,7.7c0.2,2.5,0.4,5.1,0.8,7.6c0.4,2.5,0.8,5,1.4,7.4c0.6,2.4,1.3,4.8,2.1,7.2
            c0.7,1.9,1.5,3.6,2.5,5.2c1,1.5,2.1,2.9,3.3,4.1c1.2,1.2,2.6,2.2,4.1,3.1c1.5,0.9,3.1,1.6,4.9,2.2c1.4,0.5,2.8,0.8,4.2,1.1
            c1.4,0.3,2.8,0.4,4.3,0.5c1.4,0.1,2.8,0.1,4.3,0.1c1.4,0,2.8-0.2,4.2-0.3c0,0,0,0,0,0l0.1,0c0,0,0,0,0,0c0,0,0,0,0.1,0
            c0,0,0,0,0.1,0c0.5-0.1,1-0.1,1.4-0.2c0.5-0.1,0.9-0.1,1.4-0.2c0.5-0.1,0.9-0.2,1.4-0.3c0.5-0.1,0.9-0.2,1.4-0.3
            c3.4-0.7,6.7-1.4,10.1-2.2c3.3-0.7,6.6-1.5,9.8-2.2c3.2-0.7,6.4-1.5,9.6-2.2c3.2-0.7,6.3-1.5,9.5-2.2c0.4-0.1,0.9-0.2,1.3-0.3
            c0.4-0.1,0.9-0.2,1.3-0.3c0.4-0.1,0.9-0.2,1.3-0.3l1.3-0.3c-0.6-0.3-1-0.5-1.4-0.6C156.8,249.3,156.6,249.2,156.3,249.1z
             M306.2,206.7c0-0.4,0-0.9-0.1-1.3c-0.1-2-0.3-3.9-0.5-5.9c-0.2-1.9-0.5-3.9-0.8-5.9c-0.3-2-0.6-3.9-0.8-5.9l-3.7-29.1l-3.8-30
            c-0.1-1.1-0.3-2.1-0.6-3c-0.2-0.9-0.6-1.8-0.9-2.6c-0.4-0.8-0.8-1.6-1.2-2.3c-0.5-0.7-1-1.3-1.5-1.9c-0.6-0.6-1.2-1.2-1.9-1.6
            c-0.7-0.5-1.4-0.9-2.2-1.3c-0.8-0.4-1.6-0.7-2.5-1c-0.9-0.3-1.8-0.5-2.8-0.7c-0.4-0.1-0.8-0.1-1.1-0.2c-0.4-0.1-0.8-0.1-1.1-0.2
            c-0.4-0.1-0.8-0.1-1.1-0.2c-0.4-0.1-0.8-0.1-1.1-0.2c-0.3,0-0.5-0.1-0.8-0.1c-0.3,0-0.5-0.1-0.7-0.1c-0.2,0-0.5-0.1-0.7-0.1
            c-0.2,0-0.5,0-0.7-0.1c-0.9-0.1-1.7-0.1-2.5,0c-0.7,0.1-1.4,0.2-2,0.4c-0.6,0.2-1.1,0.5-1.6,0.9c-0.5,0.4-0.8,0.9-1.1,1.5
            c-0.2,0.4-0.4,0.9-0.6,1.5c-0.2,0.6-0.3,1.2-0.4,1.9c-0.1,0.7-0.1,1.4-0.2,2.2c0,0.8,0,1.7,0,2.6l3.4,35.8c0,0,0.3,3,0.7,7.7
            c0.4,4.6,1.1,10.9,1.7,17.2c0.6,6.3,1.2,12.8,1.7,18c0.5,5.2,0.9,9,1,10.1c0.1,1.5,0.3,2.9,0.4,4.1c0.1,1.2,0.2,2.2,0.2,3
            c0,0.8-0.2,1.5-0.6,2c-0.4,0.5-1,0.9-1.9,1.1c0,0,0,0,0,0c0,0,0,0,0,0c0,0,0,0,0,0c0,0,0,0,0,0c-0.7,0-1.2-0.5-1.7-1.5
            c-0.4-0.9-0.8-2.2-1-3.4c-0.2-1.2-0.4-2.5-0.5-3.4c-0.1-0.9-0.1-1.6-0.1-1.6c-0.3-2.7-0.7-6-1.1-9.7c-0.4-3.7-0.9-7.8-1.4-12.3
            c-0.5-4.5-1-9.3-1.6-14.4c-0.6-5.1-1.1-10.4-1.7-15.9c-0.2-2-0.4-3.9-0.6-5.8c-0.2-1.9-0.4-3.8-0.6-5.7c-0.2-1.9-0.4-3.7-0.6-5.4
            c-0.2-1.8-0.4-3.5-0.6-5.1c-0.2-1.6-0.4-3.1-0.8-4.6c-0.4-1.5-0.9-2.8-1.5-4.1c-0.6-1.3-1.4-2.4-2.3-3.5c-0.9-1.1-2.1-2-3.4-2.8
            c-0.1-0.1-0.3-0.2-0.4-0.3c-0.1-0.1-0.3-0.2-0.4-0.3c-0.2-0.1-0.3-0.2-0.5-0.2c-0.2-0.1-0.3-0.2-0.5-0.2c-1.1-0.5-2.2-0.9-3.2-1.2
            c-1.1-0.3-2.2-0.6-3.3-0.8c-1.1-0.2-2.2-0.4-3.3-0.6c-1.1-0.2-2.2-0.4-3.4-0.6c-0.3-0.1-0.7-0.1-1-0.2c-0.3-0.1-0.6-0.1-0.9-0.1
            c-0.3,0-0.6-0.1-0.9-0.1c-0.3,0-0.6-0.1-0.9-0.1c-1.1-0.1-2.1-0.1-3,0c-0.9,0.1-1.8,0.3-2.6,0.5c-0.8,0.3-1.5,0.6-2.2,1
            c-0.7,0.4-1.2,0.9-1.8,1.5c-0.6,0.6-1,1.3-1.4,2.2c-0.4,0.8-0.7,1.7-0.9,2.8c-0.2,1-0.3,2.1-0.4,3.3c0,1.2,0,2.5,0.2,3.9
            c0.2,2.2,0.5,4.5,0.7,6.7c0.2,2.2,0.4,4.5,0.6,6.7c0.2,2.2,0.4,4.5,0.5,6.7c0.2,2.2,0.3,4.4,0.5,6.7c0.2,2.5,0.6,6.9,1.1,12.3
            c0.5,5.4,1.2,11.7,2,18.1c0.8,6.4,1.6,12.8,2.4,18.4c0.8,5.6,1.7,10.2,2.5,13.1c0.3,1,0.5,1.9,0.8,2.9c0.3,1,0.6,2.1,1,3.4
            c0.4,1.3,0.9,2.8,1.6,4.7c0.7,1.9,1.5,4.1,2.6,6.9c2.3-0.4,4.5-0.8,6.9-1.2c4-0.7,7.9-1.4,11.9-2.1c3.9-0.7,7.7-1.3,11.5-2
            c3.8-0.7,7.5-1.3,11.2-2c3.7-0.7,7.3-1.3,10.9-2.1c2.4-0.5,4.5-1.3,6.2-2.4c1.8-1.1,3.2-2.5,4.4-4.2c1.2-1.7,2.1-3.7,2.7-6
            c0.6-2.3,1-4.9,1.1-7.9L306.2,206.7z M232.2,238c-1.5-1.4-3-3.6-4.5-6.9c-1.5-3.4-3-8-4.4-14.3c-0.4-2.6-0.8-5.5-1.2-8.8
            c-0.4-3.3-0.8-6.8-1.2-10.5c-0.4-3.7-0.8-7.5-1.1-11.4c-0.4-3.9-0.7-7.8-1-11.5c-0.1-1.2-0.2-2.5-0.3-3.7
            c-0.1-1.2-0.2-2.5-0.3-3.7c-0.1-1.2-0.2-2.5-0.3-3.7c-0.1-1.2-0.2-2.5-0.3-3.7c-0.2-2.3-0.4-4.5-0.6-6.8c-0.2-2.3-0.4-4.5-0.6-6.8
            c-0.2-2.3-0.4-4.5-0.6-6.8c-0.2-2.3-0.5-4.5-0.7-6.8c-0.1-1.2-0.3-2.4-0.5-3.4c-0.2-1.1-0.4-2.1-0.7-3.1c-0.3-1-0.6-1.9-0.9-2.7
            c-0.3-0.8-0.7-1.6-1.1-2.4l0,0c-0.7-1.2-1.4-2.2-2.3-3.1c-0.9-0.9-1.9-1.8-3.1-2.6c-1.2-0.8-2.4-1.5-3.9-2.1
            c-1.4-0.6-3-1.2-4.8-1.7c-1.1-0.3-2.2-0.6-3.3-0.9c-1.1-0.3-2.2-0.6-3.4-0.8c-1.1-0.3-2.3-0.5-3.4-0.7c-1.1-0.2-2.3-0.4-3.4-0.6
            c-0.4-0.1-0.7-0.1-1.1-0.2c-0.4-0.1-0.7-0.1-1-0.1c-0.3,0-0.7-0.1-1-0.1c-0.3,0-0.7-0.1-1-0.1c-2-0.1-3.9-0.1-5.6,0.2
            c-1.7,0.2-3.2,0.7-4.5,1.4c-1.3,0.7-2.5,1.5-3.5,2.6c-1,1.1-1.8,2.4-2.5,3.9h0c-0.3,0.7-0.6,1.5-0.9,2.3c-0.3,0.8-0.5,1.7-0.7,2.6
            c-0.2,0.9-0.3,1.9-0.4,2.9c-0.1,1-0.2,2.1-0.3,3.3c0,0.3,0,0.7,0,1l0,2.3c0,0,0,0,0,0.1c0,0.6,0,1.1,0,1.7c0,0.6,0.1,1.1,0.1,1.7
            c0.1,2.1,0.3,4.2,0.4,6.2c0.1,2.1,0.2,4.1,0.3,6.2c0.1,2.1,0.2,4.1,0.3,6.1c0.1,2,0.2,4.1,0.3,6.1c0.1,2.7,0.2,5.3,0.4,7.9
            c0.1,2.7,0.3,5.3,0.4,8c0.1,2.7,0.3,5.3,0.5,8c0.2,2.7,0.4,5.4,0.6,8.1c0.2,3.1,0.4,6.2,0.6,9.4c0.2,3.1,0.4,6.2,0.7,9.3
            c0.3,3.1,0.6,6.2,1.1,9.3c0.5,3.1,1.1,6.1,1.9,9.1c0.8,3.1,1.9,5.8,3.3,8.2c1.4,2.3,3,4.3,4.9,5.9c1.9,1.6,4.1,2.9,6.5,3.8
            c2.4,0.9,5.1,1.5,8,1.8c0.8,0.1,1.6,0.1,2.4,0.2c0.7,0,1.4,0.1,2.1,0.1c0.7,0,1.4,0,2,0c0.7,0,1.4-0.1,2.1-0.1
            c0.7-0.1,1.4-0.1,2.2-0.2c0.8-0.1,1.6-0.2,2.5-0.3c0.9-0.1,1.8-0.3,2.9-0.5c1-0.2,2.2-0.4,3.4-0.6c3.5-0.6,6.7-1.1,9.8-1.6
            c3-0.5,5.9-0.9,8.6-1.3c2.7-0.4,5.4-0.8,8.1-1.3c0.4-0.1,0.8-0.1,1.2-0.2c-0.9-0.3-1.9-0.4-3.2-0.8C235,240,233.6,239.4,232.2,238
            z M239.4,241.2C239.4,241.2,239.4,241.2,239.4,241.2C239.4,241.2,239.4,241.2,239.4,241.2C239.4,241.2,239.4,241.2,239.4,241.2z"
            />
    </g>
</g>
</svg>
