<svg id="svg" version="1.1" width="500" height="500" xmlns="http://www.w3.org/2000/svg" xmlns:xlink="http://www.w3.org/1999/xlink" style="display: block;"><g id="svgg"><path id="path0" d="M0.000 200.000 L 0.000 400.000 22.800 400.000 C 36.912 400.000,45.600 399.706,45.600 399.228 C 45.600 397.905,42.996 397.031,37.685 396.573 C 34.446 396.293,31.800 395.561,30.470 394.578 C 29.314 393.724,27.616 392.786,26.696 392.494 C 24.848 391.907,16.800 384.376,16.800 383.234 C 16.800 382.838,16.201 381.915,15.469 381.183 C 13.826 379.540,12.677 372.739,13.313 368.419 C 14.123 362.911,17.035 359.737,25.949 354.649 C 29.252 352.763,44.136 351.694,73.600 351.227 C 93.989 350.904,104.495 350.439,106.395 349.776 C 107.932 349.239,110.354 348.800,111.776 348.800 C 115.630 348.800,116.801 346.339,118.048 335.613 C 118.689 330.106,119.795 324.889,120.805 322.608 C 121.916 320.103,122.758 315.790,123.267 310.000 C 123.733 304.709,124.802 298.967,125.949 295.600 C 127.249 291.782,128.135 286.555,128.734 279.176 C 129.217 273.222,130.330 265.844,131.206 262.778 C 132.083 259.713,132.812 254.864,132.826 252.003 C 132.872 242.959,134.093 236.136,136.238 232.945 C 137.699 230.771,138.331 228.533,138.649 224.400 C 138.942 220.587,139.865 217.053,141.540 213.325 C 142.893 210.314,144.000 206.660,144.000 205.205 C 144.000 203.750,144.896 200.633,145.992 198.279 C 147.484 195.075,147.986 192.659,147.992 188.665 C 148.000 183.507,149.196 177.091,151.546 169.600 C 152.341 167.068,152.830 159.378,153.196 143.675 C 153.649 124.192,153.917 120.812,155.301 117.113 C 159.503 105.883,159.324 94.150,155.013 98.200 C 151.805 101.213,147.589 100.634,142.947 96.542 L 139.094 93.145 139.119 86.298 C 139.146 79.031,139.851 76.150,142.168 73.830 C 142.956 73.042,144.674 70.345,145.986 67.836 L 148.372 63.276 146.186 60.994 C 140.400 54.954,145.100 41.242,154.932 35.480 C 159.107 33.034,159.220 32.364,155.705 30.896 C 151.794 29.261,148.800 24.978,148.800 21.016 C 148.800 17.862,154.820 8.800,156.915 8.800 C 157.311 8.800,158.992 7.901,160.652 6.803 C 165.277 3.742,185.192 3.724,195.209 6.771 C 198.944 7.907,203.345 9.244,204.988 9.743 C 206.632 10.241,208.578 11.313,209.312 12.124 C 210.047 12.936,211.080 13.600,211.609 13.600 C 212.137 13.600,214.220 14.860,216.237 16.400 L 219.904 19.200 228.651 19.200 C 234.122 19.200,238.593 18.779,240.587 18.075 C 243.963 16.884,247.186 16.939,258.800 18.387 C 269.897 19.770,282.278 23.551,285.200 26.448 C 286.080 27.320,287.790 28.773,289.000 29.675 C 290.210 30.578,291.200 31.789,291.200 32.366 C 291.200 32.944,292.116 34.016,293.236 34.750 C 294.356 35.484,295.656 36.926,296.125 37.955 C 296.887 39.628,297.700 39.886,303.823 40.396 C 307.589 40.709,312.091 41.468,313.829 42.081 C 315.566 42.694,319.160 43.545,321.815 43.973 C 324.507 44.406,327.916 45.613,329.521 46.700 C 331.104 47.772,333.660 48.901,335.200 49.207 C 336.740 49.514,339.080 50.766,340.400 51.990 C 341.720 53.213,345.196 55.469,348.124 57.003 C 353.519 59.829,371.200 76.531,371.200 78.801 C 371.200 79.353,371.740 80.252,372.399 80.799 C 374.320 82.394,379.970 94.311,380.510 97.908 C 380.784 99.733,381.867 102.129,382.941 103.284 C 386.130 106.717,386.776 133.600,383.669 133.600 C 383.087 133.600,379.437 131.980,375.556 130.000 L 368.501 126.400 356.850 126.441 C 335.167 126.518,321.353 129.909,327.321 133.692 C 329.395 135.006,348.157 134.522,350.800 133.086 C 357.796 129.284,357.513 129.359,359.629 130.745 C 363.092 133.014,361.936 142.159,357.710 145.924 C 356.770 146.762,356.000 147.924,356.000 148.506 C 356.000 149.087,355.010 150.186,353.800 150.947 C 352.590 151.709,350.582 153.157,349.339 154.166 C 348.095 155.175,346.544 156.000,345.892 156.000 C 345.240 156.000,343.336 157.101,341.662 158.447 C 339.309 160.337,337.547 160.997,333.909 161.348 C 331.319 161.598,328.078 162.477,326.706 163.301 C 324.689 164.513,322.601 164.800,315.804 164.800 C 306.865 164.800,306.165 165.072,305.201 168.912 C 304.656 171.081,306.565 175.724,309.801 180.101 C 311.032 181.766,311.552 184.302,312.102 191.326 C 312.493 196.317,313.175 202.200,313.616 204.400 C 316.536 218.941,316.879 263.880,314.125 271.121 C 313.388 273.058,312.576 276.658,312.321 279.121 C 311.720 284.915,310.550 288.803,308.805 290.800 C 308.037 291.680,307.175 293.942,306.890 295.826 C 306.606 297.710,305.299 300.734,303.986 302.546 C 302.674 304.358,301.600 306.494,301.600 307.292 C 301.600 308.091,300.569 309.927,299.308 311.372 C 298.047 312.817,296.738 314.900,296.399 316.000 C 295.435 319.123,290.883 324.528,285.619 328.800 C 284.263 329.900,282.432 331.520,281.551 332.400 C 278.491 335.454,277.982 335.914,274.601 338.686 C 272.731 340.219,270.118 341.711,268.794 342.001 C 267.470 342.292,266.017 343.221,265.565 344.065 C 265.113 344.909,264.253 345.600,263.652 345.600 C 263.052 345.600,260.813 346.770,258.676 348.200 C 256.539 349.630,253.829 351.231,252.652 351.757 L 250.513 352.714 250.976 363.142 L 251.440 373.570 247.825 377.185 C 244.395 380.616,243.981 380.800,239.705 380.800 C 237.227 380.800,235.200 381.131,235.200 381.535 C 235.200 385.943,223.604 386.814,218.897 382.760 C 217.084 381.198,215.240 379.626,214.800 379.268 C 214.360 378.909,211.344 375.791,208.099 372.339 L 202.198 366.061 192.928 366.298 C 183.981 366.526,183.565 366.616,181.001 368.867 C 177.964 371.534,177.054 371.689,174.587 369.961 C 172.395 368.426,166.487 371.417,164.920 374.856 C 163.653 377.636,160.793 377.202,159.284 374.000 C 157.722 370.686,157.784 370.703,149.557 371.285 C 142.966 371.751,142.042 372.014,140.508 373.865 C 139.569 374.999,137.298 376.511,135.462 377.225 C 133.626 377.940,131.927 379.036,131.687 379.662 C 131.447 380.288,130.733 380.800,130.101 380.800 C 129.469 380.800,127.443 382.060,125.600 383.600 C 123.757 385.140,121.516 386.400,120.621 386.400 C 119.726 386.400,117.599 387.660,115.895 389.200 C 111.930 392.782,107.421 393.094,104.327 390.000 C 101.866 387.539,101.503 387.534,97.342 389.905 C 95.504 390.952,92.323 392.021,90.273 392.279 C 88.224 392.538,85.079 393.514,83.285 394.450 C 81.098 395.589,77.890 396.296,73.554 396.593 C 68.966 396.908,66.579 397.460,65.343 398.492 C 63.657 399.899,69.074 399.948,231.800 399.973 L 400.000 400.000 400.000 200.000 L 400.000 0.000 200.000 0.000 L 0.000 0.000 0.000 200.000 M249.224 55.733 C 244.360 57.128,232.800 65.447,232.800 67.552 C 232.800 68.118,231.720 69.939,230.400 71.600 C 228.356 74.172,228.000 75.309,228.000 79.263 C 228.000 81.816,227.682 84.102,227.292 84.343 C 222.634 87.222,231.605 115.200,237.186 115.200 C 237.734 115.200,239.086 116.104,240.190 117.209 C 242.890 119.908,249.499 121.065,259.696 120.623 C 268.458 120.243,275.789 116.799,279.332 111.399 C 280.081 110.257,281.261 109.006,281.954 108.618 C 283.119 107.966,285.600 103.123,285.600 101.502 C 285.600 99.728,282.964 101.186,278.372 105.502 C 271.631 111.838,260.052 113.195,254.204 108.335 C 252.997 107.332,251.287 106.281,250.404 106.001 C 249.522 105.721,248.800 105.221,248.800 104.890 C 248.800 104.559,247.720 103.078,246.400 101.600 C 242.687 97.441,242.735 83.376,246.482 77.594 C 254.057 65.903,276.368 65.397,281.439 76.800 C 281.929 77.900,283.155 79.821,284.164 81.069 C 285.830 83.128,285.993 84.110,285.921 91.669 C 285.841 100.028,286.329 101.351,288.640 99.040 C 290.776 96.904,289.599 75.933,287.257 74.416 C 286.904 74.187,285.802 72.397,284.808 70.437 C 283.814 68.477,282.167 66.218,281.148 65.416 C 280.129 64.614,279.096 63.332,278.853 62.567 C 277.341 57.803,257.757 53.286,249.224 55.733 M272.000 85.200 C 272.000 85.860,272.360 86.400,272.800 86.400 C 273.240 86.400,273.600 85.860,273.600 85.200 C 273.600 84.540,273.240 84.000,272.800 84.000 C 272.360 84.000,272.000 84.540,272.000 85.200 " stroke="none" fill="#ffffff" fill-rule="evenodd"></path><path id="path1" d="M260.400 72.244 C 252.002 75.760,251.532 76.097,249.754 79.858 C 246.012 87.777,248.252 102.342,253.435 103.793 C 254.626 104.127,259.680 104.400,264.666 104.400 L 273.733 104.400 276.066 101.787 C 280.400 96.936,278.923 90.816,273.212 89.960 C 267.310 89.075,265.489 86.084,266.293 78.600 C 266.424 77.377,269.749 77.317,273.875 78.463 C 275.566 78.932,277.148 79.119,277.389 78.878 C 278.158 78.108,276.011 76.176,273.767 75.619 C 272.575 75.323,270.880 74.417,270.000 73.605 C 267.870 71.641,263.366 71.002,260.400 72.244 " stroke="none" fill="#9a6630" fill-rule="evenodd"></path><path id="path2" d="M220.016 23.351 C 219.000 23.727,218.332 24.199,218.533 24.400 C 218.914 24.780,228.000 23.467,228.509 22.958 C 229.110 22.356,221.788 22.695,220.016 23.351 M280.000 28.446 C 280.000 28.630,281.453 29.697,283.230 30.819 C 287.689 33.634,286.685 34.374,278.153 34.561 L 270.800 34.722 277.197 34.998 C 287.934 35.462,290.142 33.781,283.600 30.125 C 281.620 29.018,280.000 28.263,280.000 28.446 M262.600 35.751 C 263.370 35.953,264.630 35.953,265.400 35.751 C 266.170 35.550,265.540 35.386,264.000 35.386 C 262.460 35.386,261.830 35.550,262.600 35.751 M254.000 38.018 C 251.550 39.223,250.628 39.988,251.622 39.993 C 252.514 39.997,254.069 39.422,255.077 38.716 C 256.085 38.010,257.875 37.141,259.055 36.785 C 260.663 36.300,260.800 36.127,259.600 36.094 C 258.720 36.070,256.200 36.935,254.000 38.018 M240.400 42.818 C 238.200 43.900,236.826 44.789,237.346 44.793 C 237.867 44.797,240.027 43.909,242.146 42.821 C 244.266 41.732,245.640 40.843,245.200 40.846 C 244.760 40.848,242.600 41.735,240.400 42.818 M233.514 45.800 C 232.858 46.350,231.813 47.520,231.191 48.400 C 230.542 49.320,231.237 48.980,232.827 47.600 C 234.348 46.280,235.744 45.110,235.929 45.000 C 236.115 44.890,235.915 44.800,235.486 44.800 C 235.057 44.800,234.169 45.250,233.514 45.800 M224.943 52.778 C 223.723 54.428,223.554 55.014,224.392 54.692 C 225.057 54.437,225.600 53.933,225.600 53.572 C 225.600 53.210,226.166 52.349,226.857 51.657 C 227.549 50.966,227.796 50.400,227.408 50.400 C 227.019 50.400,225.910 51.470,224.943 52.778 M217.971 58.800 C 215.511 61.232,210.016 70.283,210.628 70.895 C 210.812 71.079,212.141 69.016,213.582 66.313 C 215.023 63.609,217.326 60.392,218.700 59.165 C 220.075 57.937,221.019 56.812,220.799 56.666 C 220.580 56.520,219.307 57.480,217.971 58.800 M259.310 70.130 C 256.801 70.667,248.800 75.820,248.800 76.898 C 248.800 77.365,248.080 78.663,247.200 79.782 C 242.523 85.727,246.463 103.803,252.774 105.355 C 253.888 105.629,255.662 106.412,256.717 107.095 C 269.112 115.127,291.316 95.117,282.477 83.880 C 281.640 82.815,280.557 80.516,280.071 78.772 C 278.429 72.874,267.581 68.359,259.310 70.130 M269.515 73.123 C 270.280 73.816,272.322 74.872,274.053 75.472 C 277.122 76.534,278.951 80.095,276.000 79.261 C 272.320 78.222,270.000 78.799,269.821 80.800 C 269.723 81.900,269.843 82.350,270.088 81.800 C 270.726 80.368,274.138 80.564,274.714 82.065 C 275.756 84.781,275.208 87.249,273.400 87.975 C 271.653 88.677,271.663 88.700,273.743 88.749 C 274.921 88.777,276.475 88.211,277.194 87.491 C 279.539 85.147,280.052 87.277,278.826 94.254 C 277.110 104.010,275.891 104.859,263.826 104.705 C 250.935 104.541,248.436 102.486,247.413 91.204 C 246.217 78.008,261.288 65.678,269.515 73.123 M207.727 80.208 C 205.546 86.417,205.216 88.988,207.113 84.989 C 208.610 81.834,210.156 75.990,209.489 76.008 C 209.330 76.012,208.537 77.902,207.727 80.208 M161.732 91.075 C 161.119 92.150,160.882 93.819,161.176 94.990 C 161.945 98.055,163.360 96.033,163.055 92.305 C 162.807 89.280,162.773 89.248,161.732 91.075 M205.700 100.462 C 205.645 102.256,206.487 106.216,207.570 109.262 C 209.781 115.478,210.267 114.670,208.343 107.974 C 207.652 105.568,206.797 102.160,206.444 100.400 L 205.800 97.200 205.700 100.462 M160.248 111.600 C 160.252 114.240,160.402 115.224,160.580 113.786 C 160.758 112.348,160.754 110.188,160.572 108.986 C 160.389 107.784,160.243 108.960,160.248 111.600 M210.888 122.397 C 211.820 125.812,214.433 131.181,213.871 128.527 C 213.606 127.276,212.704 124.936,211.866 123.327 C 210.907 121.483,210.545 121.139,210.888 122.397 M214.472 132.524 C 214.432 133.473,215.660 135.757,217.200 137.600 C 218.740 139.443,220.000 140.620,220.000 140.215 C 220.000 139.810,219.092 138.626,217.982 137.584 C 216.873 136.541,215.645 134.588,215.255 133.244 C 214.714 131.383,214.527 131.211,214.472 132.524 M220.000 142.983 C 220.000 143.371,220.900 144.909,222.000 146.400 C 223.100 147.891,224.000 150.113,224.000 151.337 C 224.000 152.829,223.340 153.995,222.000 154.874 C 220.900 155.594,220.000 156.505,220.000 156.898 C 220.000 157.291,221.115 156.620,222.478 155.406 C 224.623 153.496,224.902 152.798,224.555 150.207 C 224.213 147.654,220.000 140.972,220.000 142.983 M217.393 161.122 C 215.295 163.477,214.781 164.553,215.540 165.000 C 215.933 165.231,220.200 159.106,219.840 158.828 C 219.708 158.727,218.607 159.759,217.393 161.122 M245.954 352.525 C 244.870 353.694,244.116 354.783,244.278 354.944 C 244.760 355.427,247.200 354.281,247.200 353.572 C 247.200 353.210,247.766 352.349,248.457 351.657 C 249.169 350.945,249.326 350.400,248.819 350.400 C 248.327 350.400,247.037 351.356,245.954 352.525 M193.270 359.954 C 196.562 360.741,197.600 361.451,197.600 362.914 C 197.600 363.585,198.050 363.983,198.600 363.800 C 201.823 362.726,197.558 359.166,193.200 359.294 L 190.800 359.364 193.270 359.954 M176.414 361.585 C 174.202 364.029,178.008 367.354,180.911 365.514 C 181.673 365.031,181.332 364.821,179.775 364.812 C 176.984 364.797,175.951 362.599,178.023 361.084 C 178.839 360.488,179.133 360.000,178.677 360.000 C 178.221 360.000,177.203 360.713,176.414 361.585 M163.000 366.129 C 160.659 367.362,160.071 368.800,161.908 368.800 C 162.517 368.800,163.606 367.900,164.326 366.800 C 165.047 365.700,165.539 364.838,165.418 364.885 C 165.298 364.932,164.210 365.491,163.000 366.129 " stroke="none" fill="#c8ad90" fill-rule="evenodd"></path><path id="path3" d="M160.628 6.800 C 159.009 7.900,157.350 8.800,156.940 8.800 C 154.825 8.800,148.800 17.842,148.800 21.016 C 148.800 24.978,151.794 29.261,155.705 30.896 C 159.220 32.364,159.107 33.034,154.932 35.480 C 148.974 38.972,143.921 46.212,144.063 51.052 C 144.136 53.524,144.467 52.815,145.146 48.732 C 145.689 45.468,152.243 37.973,156.761 35.448 C 160.442 33.392,160.597 32.343,157.451 30.759 C 150.602 27.311,147.035 18.347,151.515 15.839 C 152.222 15.444,153.317 14.122,153.948 12.901 C 155.203 10.473,161.921 6.521,166.400 5.575 L 169.200 4.984 166.386 4.892 C 164.584 4.833,162.513 5.519,160.628 6.800 M186.400 5.587 C 194.952 7.429,205.228 10.596,207.194 11.995 C 210.014 14.004,211.071 14.068,209.312 12.124 C 208.578 11.313,206.632 10.241,204.988 9.743 C 203.345 9.244,199.011 7.928,195.359 6.818 C 191.706 5.708,187.566 4.841,186.159 4.892 L 183.600 4.984 186.400 5.587 M212.400 14.530 C 213.280 15.014,214.720 16.097,215.600 16.935 C 216.480 17.773,218.901 19.554,220.980 20.892 L 224.761 23.325 229.104 22.062 C 236.794 19.827,261.814 20.266,267.747 22.741 C 270.306 23.808,273.771 24.908,275.446 25.186 C 277.122 25.463,279.102 26.419,279.846 27.310 C 280.591 28.201,282.550 29.628,284.200 30.481 C 290.402 33.688,287.953 35.198,276.535 35.206 C 266.664 35.213,258.867 36.390,255.619 38.362 C 254.289 39.170,251.580 40.086,249.600 40.399 C 247.620 40.711,244.260 41.829,242.134 42.883 C 240.008 43.938,237.792 44.800,237.210 44.800 C 236.628 44.800,234.669 46.038,232.858 47.552 C 231.046 49.065,228.871 50.524,228.023 50.793 C 227.175 51.062,226.265 51.965,226.000 52.800 C 225.735 53.635,224.865 54.526,224.066 54.779 C 219.142 56.342,211.336 68.187,209.699 76.581 C 209.164 79.320,207.976 83.260,207.057 85.336 C 205.159 89.629,205.396 99.781,207.514 104.894 C 208.131 106.382,209.086 110.480,209.636 114.000 C 210.186 117.520,211.283 121.840,212.073 123.600 C 212.863 125.360,214.080 128.817,214.777 131.282 C 215.474 133.746,216.935 136.599,218.022 137.621 C 219.110 138.643,220.000 140.109,220.000 140.878 C 220.000 141.648,220.935 143.388,222.077 144.746 C 225.111 148.352,225.536 152.905,223.024 154.881 C 221.950 155.726,220.488 157.493,219.776 158.809 C 219.063 160.124,217.864 162.354,217.109 163.764 L 215.738 166.328 222.289 172.835 C 225.892 176.413,229.546 180.725,230.408 182.416 C 231.271 184.108,232.318 185.702,232.735 185.960 C 233.151 186.217,233.901 188.395,234.400 190.800 C 236.017 198.590,240.120 197.562,248.862 187.174 C 252.128 183.294,255.613 179.670,256.607 179.121 C 257.689 178.522,258.757 176.816,259.273 174.861 C 260.293 170.991,265.185 165.600,267.677 165.600 C 269.841 165.600,270.399 166.913,271.204 173.902 C 271.552 176.929,272.161 179.629,272.557 179.902 C 272.953 180.176,274.094 181.570,275.093 183.000 C 277.170 185.974,278.088 186.243,278.774 184.081 C 279.040 183.245,280.112 181.706,281.158 180.660 C 282.205 179.614,283.320 177.375,283.637 175.685 C 283.954 173.995,285.245 171.437,286.507 170.001 C 287.768 168.564,288.800 167.042,288.800 166.618 C 288.800 165.428,291.571 163.200,293.053 163.200 C 294.231 163.200,296.069 165.449,300.000 171.703 C 300.660 172.753,301.863 173.824,302.673 174.083 C 303.483 174.342,304.620 175.689,305.200 177.077 C 305.780 178.465,307.002 180.550,307.916 181.711 C 309.261 183.421,309.807 186.085,310.789 195.711 C 311.456 202.250,312.199 208.453,312.440 209.495 C 314.312 217.594,314.694 255.715,312.997 265.200 C 312.447 268.280,311.615 273.500,311.149 276.800 C 310.627 280.496,309.399 284.554,307.951 287.367 C 306.658 289.879,305.600 293.017,305.600 294.339 C 305.600 295.855,304.738 297.726,303.269 299.400 C 301.986 300.860,300.681 303.418,300.369 305.085 C 300.056 306.751,298.999 309.079,298.019 310.257 C 297.039 311.436,295.787 313.255,295.237 314.300 C 293.302 317.976,288.588 323.632,284.913 326.689 C 282.871 328.388,279.901 331.088,278.314 332.689 C 274.766 336.268,268.907 340.800,267.829 340.800 C 267.390 340.800,265.978 341.686,264.692 342.768 C 263.405 343.851,261.095 344.972,259.557 345.261 C 258.019 345.549,256.305 346.437,255.747 347.232 C 255.190 348.028,253.219 349.286,251.367 350.027 C 247.595 351.536,247.522 351.700,249.195 354.909 L 250.390 357.200 250.395 354.983 C 250.399 353.340,250.969 352.511,252.596 351.783 C 253.803 351.242,256.539 349.630,258.676 348.200 C 260.813 346.770,263.052 345.600,263.652 345.600 C 264.253 345.600,265.113 344.909,265.565 344.065 C 266.017 343.221,267.470 342.292,268.794 342.001 C 270.118 341.711,272.731 340.219,274.601 338.686 C 277.982 335.914,278.491 335.454,281.551 332.400 C 282.432 331.520,284.263 329.900,285.619 328.800 C 290.883 324.528,295.435 319.123,296.399 316.000 C 296.738 314.900,298.047 312.817,299.308 311.372 C 300.569 309.927,301.600 308.091,301.600 307.292 C 301.600 306.494,302.674 304.358,303.986 302.546 C 305.299 300.734,306.606 297.710,306.890 295.826 C 307.175 293.942,308.037 291.680,308.805 290.800 C 310.550 288.803,311.720 284.915,312.321 279.121 C 312.576 276.658,313.388 273.058,314.125 271.121 C 316.879 263.880,316.536 218.941,313.616 204.400 C 313.175 202.200,312.493 196.317,312.102 191.326 C 311.552 184.302,311.032 181.766,309.801 180.101 C 306.565 175.724,304.656 171.081,305.201 168.912 C 306.165 165.072,306.865 164.800,315.804 164.800 C 322.601 164.800,324.689 164.513,326.706 163.301 C 328.078 162.477,331.319 161.598,333.909 161.348 C 337.547 160.997,339.309 160.337,341.662 158.447 C 343.336 157.101,345.240 156.000,345.892 156.000 C 346.544 156.000,348.095 155.175,349.339 154.166 C 350.582 153.157,352.590 151.709,353.800 150.947 C 355.010 150.186,355.989 149.121,355.976 148.582 C 355.962 148.042,355.584 148.230,355.136 149.000 C 354.687 149.770,353.861 150.400,353.300 150.400 C 352.738 150.400,351.471 151.260,350.483 152.312 C 349.495 153.363,347.078 154.674,345.111 155.225 C 343.144 155.776,341.211 156.832,340.815 157.572 C 340.040 159.020,335.075 160.800,331.811 160.800 C 330.710 160.800,327.555 161.520,324.800 162.400 C 313.681 165.952,308.637 162.329,312.346 153.454 C 312.976 151.946,313.730 147.492,314.022 143.556 C 314.732 133.979,315.609 130.840,318.016 129.263 C 319.961 127.988,319.981 127.884,318.728 125.462 C 317.712 123.495,317.465 120.706,317.556 112.210 C 317.619 106.291,317.344 101.033,316.945 100.525 C 316.233 99.617,315.957 97.530,314.352 80.913 C 313.911 76.355,313.071 71.675,312.483 70.513 C 311.896 69.351,310.961 65.943,310.406 62.940 C 309.800 59.662,308.685 56.625,307.616 55.340 C 306.636 54.163,305.221 51.333,304.470 49.051 C 303.719 46.769,302.702 44.767,302.209 44.603 C 301.716 44.439,301.546 43.696,301.831 42.952 C 302.437 41.373,306.147 41.156,310.405 42.449 C 311.942 42.915,316.228 43.807,319.930 44.431 C 324.399 45.184,327.237 46.108,328.380 47.181 C 329.326 48.070,332.058 49.365,334.450 50.060 C 336.843 50.755,339.214 51.855,339.721 52.506 C 340.810 53.906,348.118 58.393,351.773 59.907 C 353.189 60.493,354.564 61.657,354.830 62.495 C 355.096 63.332,356.368 64.563,357.657 65.229 C 358.946 65.896,360.000 66.763,360.000 67.157 C 360.000 67.550,362.115 69.987,364.700 72.572 C 367.285 75.157,370.139 78.720,371.042 80.490 C 371.944 82.259,373.249 84.177,373.942 84.751 C 374.634 85.326,375.200 86.166,375.200 86.618 C 375.200 88.008,379.497 96.310,379.778 95.465 C 380.132 94.405,373.921 82.062,372.399 80.799 C 371.740 80.252,371.200 79.353,371.200 78.801 C 371.200 76.531,353.519 59.829,348.124 57.003 C 345.196 55.469,341.720 53.213,340.400 51.990 C 339.080 50.766,336.740 49.514,335.200 49.207 C 333.660 48.901,331.104 47.772,329.521 46.700 C 327.916 45.613,324.507 44.406,321.815 43.973 C 319.160 43.545,315.566 42.694,313.829 42.081 C 312.091 41.468,307.589 40.709,303.823 40.396 C 297.700 39.886,296.887 39.628,296.125 37.955 C 295.656 36.926,294.356 35.484,293.236 34.750 C 292.116 34.016,291.200 32.944,291.200 32.366 C 291.200 31.789,290.210 30.578,289.000 29.675 C 287.790 28.773,286.080 27.320,285.200 26.448 C 282.278 23.551,269.897 19.770,258.800 18.387 C 247.186 16.939,243.963 16.884,240.587 18.075 C 238.593 18.779,234.122 19.200,228.651 19.200 L 219.904 19.200 216.237 16.400 C 214.220 14.860,212.172 13.611,211.685 13.624 C 211.198 13.638,211.520 14.045,212.400 14.530 M273.504 58.478 C 276.203 59.962,278.610 61.802,278.853 62.567 C 279.096 63.332,280.129 64.614,281.148 65.416 C 282.167 66.218,283.814 68.477,284.808 70.437 C 285.802 72.397,286.904 74.187,287.257 74.416 C 289.599 75.933,290.776 96.904,288.640 99.040 C 286.329 101.351,285.841 100.028,285.921 91.669 C 285.993 84.110,285.830 83.128,284.164 81.069 C 283.155 79.821,281.929 77.900,281.439 76.800 C 276.368 65.397,254.057 65.903,246.482 77.594 C 242.735 83.376,242.687 97.441,246.400 101.600 C 247.720 103.078,248.800 104.559,248.800 104.890 C 248.800 105.221,249.522 105.721,250.404 106.001 C 251.287 106.281,252.997 107.332,254.204 108.335 C 260.052 113.195,271.631 111.838,278.372 105.502 C 282.964 101.186,285.600 99.728,285.600 101.502 C 285.600 103.123,283.119 107.966,281.954 108.618 C 281.261 109.006,280.081 110.257,279.332 111.399 C 275.789 116.799,268.458 120.243,259.696 120.623 C 249.499 121.065,242.890 119.908,240.190 117.209 C 239.086 116.104,237.734 115.200,237.186 115.200 C 231.605 115.200,222.634 87.222,227.292 84.343 C 227.682 84.102,228.000 81.816,228.000 79.263 C 228.000 75.309,228.356 74.172,230.400 71.600 C 231.720 69.939,232.800 68.118,232.800 67.552 C 232.800 65.447,244.360 57.128,249.224 55.733 C 254.586 54.196,268.595 55.779,273.504 58.478 M144.093 57.556 C 144.042 58.192,144.984 59.739,146.186 60.994 L 148.372 63.276 145.986 67.836 C 144.674 70.345,142.956 73.042,142.168 73.830 C 140.184 75.816,139.180 78.773,139.309 82.252 C 139.383 84.252,139.515 84.557,139.719 83.200 C 140.299 79.349,141.670 75.200,142.363 75.200 C 143.400 75.200,148.800 65.206,148.800 63.288 C 148.800 62.380,147.921 61.061,146.847 60.357 C 145.773 59.653,144.734 58.475,144.540 57.739 C 144.290 56.796,144.158 56.742,144.093 57.556 M274.743 72.920 C 278.410 75.131,279.342 76.155,280.071 78.772 C 280.557 80.516,281.640 82.815,282.477 83.880 C 291.316 95.117,269.112 115.127,256.717 107.095 C 255.662 106.412,253.888 105.629,252.774 105.355 C 246.463 103.803,242.523 85.727,247.200 79.782 C 248.080 78.663,248.800 77.365,248.800 76.898 C 248.800 75.820,256.801 70.667,259.310 70.130 C 264.089 69.107,270.275 70.225,274.743 72.920 M269.944 82.737 C 269.083 86.170,269.805 87.600,272.400 87.600 C 274.995 87.600,275.717 86.170,274.856 82.737 C 274.506 81.344,273.816 80.800,272.400 80.800 C 270.984 80.800,270.294 81.344,269.944 82.737 M273.600 85.200 C 273.600 85.860,273.240 86.400,272.800 86.400 C 272.360 86.400,272.000 85.860,272.000 85.200 C 272.000 84.540,272.360 84.000,272.800 84.000 C 273.240 84.000,273.600 84.540,273.600 85.200 M139.282 90.875 C 139.077 97.080,150.529 102.413,155.013 98.200 C 159.324 94.150,159.503 105.883,155.301 117.113 C 153.917 120.812,153.649 124.192,153.196 143.675 C 152.830 159.378,152.341 167.068,151.546 169.600 C 149.196 177.091,148.000 183.507,147.992 188.665 C 147.986 192.659,147.484 195.075,145.992 198.279 C 144.896 200.633,144.000 203.750,144.000 205.205 C 144.000 206.660,142.893 210.314,141.540 213.325 C 139.865 217.053,138.942 220.587,138.649 224.400 C 138.331 228.533,137.699 230.771,136.238 232.945 C 134.093 236.136,132.872 242.959,132.826 252.003 C 132.812 254.864,132.083 259.713,131.206 262.778 C 130.330 265.844,129.217 273.222,128.734 279.176 C 128.135 286.555,127.249 291.782,125.949 295.600 C 124.802 298.967,123.733 304.709,123.267 310.000 C 122.758 315.790,121.916 320.103,120.805 322.608 C 119.795 324.889,118.689 330.106,118.048 335.613 C 116.801 346.339,115.630 348.800,111.776 348.800 C 110.354 348.800,107.932 349.239,106.395 349.776 C 104.495 350.439,93.989 350.904,73.600 351.227 C 44.136 351.694,29.252 352.763,25.949 354.649 C 17.035 359.737,14.123 362.911,13.313 368.419 C 12.677 372.739,13.826 379.540,15.469 381.183 C 16.201 381.915,16.800 382.838,16.800 383.234 C 16.800 384.376,24.848 391.907,26.696 392.494 C 27.616 392.786,29.294 393.709,30.424 394.544 C 31.716 395.500,34.655 396.296,38.346 396.690 C 42.368 397.120,44.523 397.739,45.196 398.659 C 46.723 400.747,62.400 400.607,65.432 398.478 C 66.930 397.427,69.531 396.826,73.843 396.537 C 77.957 396.260,81.187 395.543,83.316 394.433 C 85.093 393.507,88.224 392.538,90.273 392.279 C 92.323 392.021,95.504 390.952,97.342 389.905 C 101.503 387.534,101.866 387.539,104.327 390.000 C 107.421 393.094,111.930 392.782,115.895 389.200 C 117.599 387.660,119.726 386.400,120.621 386.400 C 121.516 386.400,123.757 385.140,125.600 383.600 C 127.443 382.060,129.469 380.800,130.101 380.800 C 130.733 380.800,131.447 380.288,131.687 379.662 C 131.927 379.036,133.626 377.940,135.462 377.225 C 137.298 376.511,139.569 374.999,140.508 373.865 C 142.629 371.306,156.074 369.788,158.159 371.873 C 158.773 372.488,159.349 372.858,159.438 372.695 C 159.527 372.533,160.017 371.648,160.527 370.728 C 162.170 367.763,160.660 366.692,156.432 367.823 C 154.422 368.360,151.654 368.800,150.281 368.800 C 146.531 368.800,141.449 370.453,139.200 372.403 C 137.312 374.041,132.001 377.408,127.312 379.939 C 126.152 380.565,123.798 382.095,122.081 383.339 C 120.365 384.582,118.584 385.600,118.124 385.600 C 117.664 385.600,116.325 386.522,115.149 387.649 C 112.045 390.623,106.728 390.626,104.563 387.654 C 102.764 385.185,99.309 385.373,96.334 388.100 C 95.417 388.940,92.340 390.115,89.495 390.710 C 86.650 391.305,83.114 392.417,81.637 393.181 C 77.824 395.153,63.623 396.247,48.581 395.728 C 35.069 395.263,24.922 392.166,23.637 388.117 C 23.380 387.306,22.269 386.233,21.169 385.731 C 20.068 385.230,18.836 384.005,18.431 383.010 C 18.026 382.014,16.956 380.120,16.053 378.800 C 12.201 373.170,15.236 362.448,21.426 359.818 C 22.622 359.310,24.375 358.213,25.323 357.381 C 28.377 354.696,32.629 354.392,66.962 354.405 C 94.902 354.416,101.317 354.212,104.162 353.221 C 106.053 352.562,108.140 352.016,108.800 352.007 C 115.937 351.911,118.049 349.207,119.463 338.361 C 120.062 333.762,121.158 328.827,121.899 327.394 C 122.652 325.940,123.760 320.405,124.408 314.863 C 125.047 309.404,126.280 303.134,127.149 300.930 C 128.151 298.388,129.044 293.171,129.591 286.661 C 130.066 281.018,130.781 275.320,131.181 274.000 C 132.026 271.209,133.331 262.019,134.020 254.000 C 134.761 245.380,135.908 240.137,138.460 233.702 C 139.747 230.457,140.800 226.855,140.800 225.695 C 140.800 224.536,141.720 221.859,142.844 219.748 C 144.148 217.298,145.129 213.759,145.554 209.973 C 145.977 206.198,146.878 202.940,148.031 201.019 C 149.525 198.531,149.886 196.613,150.082 190.120 C 150.246 184.690,150.706 181.653,151.559 180.350 C 152.487 178.934,153.006 174.483,153.623 162.629 C 154.077 153.923,154.797 144.363,155.224 141.385 C 155.651 138.407,156.000 133.030,156.000 129.437 C 156.000 123.920,156.259 122.627,157.664 121.132 C 159.023 119.685,159.470 117.699,160.105 110.280 C 160.533 105.286,161.169 100.300,161.519 99.200 C 162.934 94.750,160.732 94.087,154.877 97.200 C 150.043 99.770,148.401 99.718,145.183 96.893 C 143.738 95.623,142.131 94.444,141.613 94.271 C 141.095 94.098,140.377 92.707,140.017 91.178 L 139.364 88.400 139.282 90.875 M380.800 102.313 C 380.800 103.563,382.320 106.434,383.726 107.841 C 384.625 108.739,384.800 108.601,384.800 106.997 C 384.800 105.942,383.900 104.233,382.800 103.200 C 381.685 102.153,380.800 101.760,380.800 102.313 M385.018 115.200 C 385.018 117.180,385.174 117.990,385.365 117.000 C 385.555 116.010,385.555 114.390,385.365 113.400 C 385.174 112.410,385.018 113.220,385.018 115.200 M337.600 126.417 C 330.440 127.103,325.300 128.848,324.934 130.718 C 324.633 132.254,326.137 134.406,327.498 134.388 C 328.034 134.380,327.963 134.098,327.321 133.692 C 321.353 129.909,335.167 126.518,356.850 126.441 L 368.501 126.400 375.556 130.000 C 382.660 133.625,384.800 134.273,384.800 132.800 C 384.800 132.360,384.053 132.000,383.140 132.000 C 382.227 132.000,378.747 130.560,375.407 128.800 L 369.333 125.600 356.467 125.721 C 349.390 125.787,340.900 126.100,337.600 126.417 M354.800 130.909 C 353.480 131.623,351.500 132.732,350.400 133.373 L 348.400 134.539 350.737 134.020 C 352.022 133.734,353.961 132.803,355.045 131.950 C 361.185 127.120,363.353 139.693,357.253 144.756 C 356.564 145.328,356.000 146.168,356.000 146.622 C 356.000 148.084,359.385 144.485,360.510 141.826 C 363.771 134.122,360.482 127.834,354.800 130.909 M333.431 134.993 C 336.199 135.150,340.519 135.149,343.031 134.990 C 345.544 134.832,343.280 134.704,338.000 134.705 C 332.720 134.707,330.664 134.836,333.431 134.993 M250.400 366.032 L 250.400 373.664 247.000 376.822 C 243.949 379.656,243.172 379.981,239.428 379.990 C 235.941 379.998,234.807 380.394,232.522 382.400 C 230.337 384.319,229.055 384.800,226.127 384.800 C 221.910 384.800,221.926 384.812,208.718 371.821 C 200.634 363.869,199.846 363.298,197.948 364.020 C 196.821 364.448,192.311 365.034,187.924 365.321 C 182.664 365.666,180.056 366.143,180.266 366.722 C 180.441 367.205,180.226 368.320,179.788 369.200 C 179.166 370.451,179.494 370.334,181.296 368.659 C 183.482 366.628,184.076 366.507,192.899 366.290 L 202.198 366.061 208.099 372.339 C 211.344 375.791,214.360 378.909,214.800 379.268 C 215.240 379.626,217.084 381.198,218.897 382.760 C 223.604 386.814,235.200 385.943,235.200 381.535 C 235.200 381.131,237.227 380.800,239.705 380.800 C 243.958 380.800,244.406 380.604,247.705 377.305 L 251.200 373.811 251.200 366.105 C 251.200 361.867,251.020 358.400,250.800 358.400 C 250.580 358.400,250.400 361.834,250.400 366.032 M170.118 369.029 C 168.863 370.003,166.677 371.970,165.261 373.400 C 162.341 376.349,161.232 376.605,160.064 374.600 C 159.616 373.830,159.238 373.578,159.224 374.040 C 159.137 377.045,163.649 377.646,164.945 374.801 C 166.326 371.771,172.520 368.373,174.174 369.740 C 175.334 370.699,175.350 370.628,174.336 369.000 C 172.978 366.818,172.966 366.819,170.118 369.029 " stroke="none" fill="#cecccb" fill-rule="evenodd"></path><path id="path4" d="M159.733 129.333 C 159.440 129.627,159.200 131.654,159.200 133.839 C 159.200 136.292,158.629 138.765,157.707 140.306 C 155.894 143.334,153.470 182.590,155.002 184.122 C 156.485 185.605,159.181 183.974,160.921 180.542 C 164.461 173.559,170.838 168.160,178.059 166.033 C 180.292 165.375,182.737 164.154,183.492 163.319 C 184.514 162.190,186.483 161.660,191.177 161.250 C 199.610 160.515,199.600 160.531,199.600 147.772 C 199.600 135.934,198.706 133.930,194.984 137.427 C 193.946 138.402,192.713 139.200,192.244 139.200 C 191.775 139.200,188.867 141.630,185.783 144.600 C 167.756 161.959,166.008 161.824,164.504 142.953 C 163.536 130.815,162.165 126.901,159.733 129.333 M197.826 141.000 C 198.046 141.990,198.112 144.960,197.973 147.600 C 197.834 150.240,197.693 153.141,197.660 154.047 C 197.533 157.545,195.722 158.674,189.254 159.292 C 184.593 159.737,182.493 160.347,180.555 161.818 C 179.150 162.885,176.573 164.225,174.830 164.797 C 168.977 166.716,161.740 173.204,159.363 178.663 C 158.821 179.907,157.932 180.778,157.389 180.597 C 155.834 180.081,155.635 160.764,157.131 155.643 C 157.781 153.419,158.472 149.859,158.666 147.730 C 159.439 139.259,161.997 140.858,163.724 150.890 C 165.482 161.110,169.191 162.895,175.540 156.579 C 176.965 155.160,180.553 151.840,183.512 149.200 C 186.471 146.560,189.597 143.696,190.459 142.834 C 191.841 141.455,195.470 139.448,196.913 139.265 C 197.196 139.229,197.606 140.010,197.826 141.000 M289.882 168.600 C 289.203 170.250,287.993 172.320,287.195 173.200 C 286.396 174.080,285.356 176.261,284.882 178.047 C 284.408 179.832,283.126 182.072,282.032 183.023 C 280.938 183.974,279.814 185.663,279.534 186.776 C 278.966 189.040,275.200 189.780,275.200 187.628 C 275.200 186.983,274.095 185.198,272.746 183.660 C 270.813 181.459,270.194 179.880,269.837 176.232 C 268.901 166.701,265.202 166.435,261.050 175.600 C 260.252 177.360,257.850 180.600,255.712 182.800 C 253.573 185.000,250.018 188.860,247.811 191.378 C 245.604 193.896,243.178 196.153,242.420 196.394 C 239.720 197.251,239.142 200.416,239.664 211.474 C 240.279 224.494,239.114 236.733,236.968 239.805 C 236.125 241.012,235.235 243.285,234.991 244.856 C 234.255 249.593,228.384 256.761,220.129 263.000 C 215.570 266.445,211.404 264.437,212.370 259.261 C 214.456 248.086,214.456 240.500,212.369 239.699 C 210.911 239.139,206.582 241.365,205.616 243.170 C 205.190 243.966,203.662 245.370,202.221 246.290 C 200.779 247.210,198.881 248.421,198.003 248.982 C 197.124 249.542,195.227 250.985,193.788 252.188 C 185.521 259.101,182.807 253.459,186.880 237.823 C 189.560 227.531,183.040 229.095,169.492 241.993 C 168.333 243.097,167.116 244.000,166.789 244.000 C 166.462 244.000,164.809 245.251,163.117 246.780 C 155.666 253.511,154.264 251.963,155.198 238.036 C 156.346 220.908,154.271 218.203,146.154 226.248 C 141.014 231.342,140.563 232.272,138.761 241.483 C 138.472 242.959,137.596 245.659,136.814 247.483 C 135.830 249.776,135.234 253.953,134.882 261.011 C 134.602 266.627,133.885 272.747,133.287 274.611 C 132.079 278.381,130.626 288.632,130.079 297.232 C 129.882 300.329,128.968 304.829,128.048 307.232 C 127.127 309.634,125.985 315.200,125.509 319.600 C 125.034 324.000,123.942 329.580,123.083 332.000 C 120.732 338.626,120.040 341.654,120.019 345.412 C 119.965 355.166,115.841 355.966,65.508 355.986 C 32.352 356.000,31.358 356.045,29.329 357.641 C 28.182 358.544,25.670 359.818,23.748 360.473 C 17.048 362.756,13.419 372.916,17.387 378.282 C 18.260 379.464,19.231 381.238,19.544 382.224 C 19.857 383.211,21.142 384.550,22.400 385.200 C 23.658 385.850,24.888 387.018,25.135 387.794 C 25.544 389.085,27.059 389.832,36.278 393.291 C 43.218 395.895,72.878 395.056,79.641 392.064 C 81.426 391.275,84.667 390.366,86.843 390.044 C 89.019 389.723,92.330 388.453,94.200 387.221 C 96.070 385.989,99.191 384.743,101.135 384.452 C 103.079 384.160,105.085 383.421,105.593 382.808 C 106.910 381.221,108.800 382.224,108.800 384.511 C 108.800 388.044,116.643 386.264,120.572 381.838 C 121.358 380.953,123.710 379.608,125.800 378.849 C 127.890 378.089,129.600 377.181,129.600 376.831 C 129.600 376.481,130.694 375.741,132.031 375.187 C 133.367 374.634,134.794 373.558,135.201 372.798 C 135.608 372.037,138.287 370.249,141.153 368.823 C 146.155 366.336,147.530 366.075,157.386 365.742 C 161.805 365.592,166.284 362.309,169.859 356.600 C 170.617 355.390,171.711 354.400,172.290 354.400 C 172.869 354.400,173.745 353.517,174.237 352.438 C 174.728 351.360,176.226 349.910,177.565 349.218 C 178.904 348.525,180.000 347.602,180.000 347.167 C 180.000 346.731,181.170 345.880,182.600 345.276 C 184.030 344.673,187.000 343.431,189.200 342.516 C 201.227 337.518,217.171 340.937,227.283 350.684 C 232.927 356.123,236.196 356.398,243.200 352.021 C 245.180 350.784,247.700 349.503,248.800 349.176 C 249.900 348.849,251.806 347.740,253.036 346.712 C 254.266 345.683,256.681 344.463,258.403 343.999 C 260.124 343.536,261.752 342.801,262.021 342.367 C 262.289 341.932,264.014 340.815,265.854 339.884 C 267.694 338.954,269.488 337.699,269.840 337.096 C 270.192 336.493,271.452 335.488,272.640 334.863 C 276.793 332.678,295.200 313.503,295.200 311.362 C 295.200 310.941,295.744 310.145,296.408 309.593 C 297.073 309.042,298.167 306.694,298.841 304.376 C 299.515 302.058,300.908 299.254,301.937 298.144 C 303.150 296.835,304.120 294.348,304.698 291.067 C 305.188 288.284,306.370 284.951,307.325 283.660 C 308.702 281.797,309.278 279.231,310.110 271.256 C 310.687 265.725,311.520 259.760,311.961 258.000 C 312.994 253.874,313.042 223.360,312.021 220.319 C 311.592 219.044,310.710 211.880,310.060 204.400 C 308.900 191.063,304.834 176.000,302.393 176.000 C 301.147 176.000,296.578 170.865,295.475 168.224 C 293.930 164.526,291.493 164.690,289.882 168.600 M294.731 170.012 C 295.009 171.118,296.990 173.960,299.134 176.327 C 302.163 179.672,303.231 181.584,303.928 184.915 C 304.422 187.272,305.512 191.000,306.351 193.200 C 310.927 205.192,310.551 275.447,305.881 281.062 C 303.911 283.429,303.546 284.565,302.915 290.279 C 302.691 292.308,301.817 294.518,300.816 295.583 C 299.873 296.587,298.581 299.135,297.946 301.246 C 297.311 303.357,296.296 305.650,295.690 306.342 C 295.085 307.034,294.316 308.500,293.983 309.600 C 292.887 313.213,266.457 338.372,263.713 338.414 C 263.211 338.421,261.952 339.321,260.916 340.414 C 259.880 341.506,258.193 342.400,257.168 342.400 C 254.383 342.400,251.626 343.647,249.327 345.946 C 247.992 347.280,246.391 348.000,244.757 348.000 C 243.042 348.000,241.568 348.712,240.121 350.238 C 235.331 355.292,233.364 355.216,228.100 349.768 C 224.720 346.272,222.453 344.652,219.913 343.921 C 217.981 343.365,215.329 342.173,214.021 341.273 C 210.901 339.126,192.651 338.871,189.486 340.930 C 188.449 341.605,186.226 342.608,184.547 343.158 C 182.868 343.709,180.275 345.293,178.784 346.679 C 173.947 351.177,168.469 356.731,165.349 360.299 C 162.441 363.625,162.045 363.810,156.949 364.238 C 152.081 364.647,140.800 362.999,140.800 361.879 C 140.800 360.924,143.077 359.365,145.767 358.477 C 147.375 357.946,150.025 356.452,151.655 355.156 C 153.286 353.860,155.047 352.800,155.569 352.800 C 156.509 352.800,163.200 345.103,163.200 344.021 C 163.200 343.712,165.540 341.956,168.400 340.119 C 171.260 338.283,173.600 336.398,173.600 335.931 C 173.600 335.464,175.760 332.888,178.400 330.206 C 181.040 327.525,183.202 325.122,183.205 324.866 C 183.208 324.610,184.237 323.816,185.493 323.102 C 186.766 322.377,188.025 320.810,188.339 319.557 C 188.649 318.322,190.479 315.924,192.406 314.228 C 194.333 312.532,196.525 309.748,197.278 308.041 C 198.031 306.335,199.501 304.481,200.545 303.922 C 201.589 303.364,202.656 302.060,202.915 301.025 C 203.175 299.991,204.377 298.632,205.587 298.007 C 206.922 297.317,207.963 295.987,208.235 294.624 C 208.482 293.389,209.423 291.527,210.325 290.486 C 211.228 289.446,212.186 287.424,212.454 285.994 C 212.754 284.393,213.678 283.001,214.859 282.369 C 219.033 280.135,218.340 274.251,213.985 274.957 C 212.180 275.250,211.200 275.091,211.200 274.505 C 211.200 273.932,212.970 273.600,216.026 273.600 C 220.914 273.600,222.959 272.023,221.851 269.107 C 221.664 268.617,223.241 266.490,225.356 264.382 C 238.339 251.436,243.995 230.814,241.258 206.400 L 240.675 201.200 248.781 192.800 C 253.240 188.180,257.948 183.320,259.244 182.000 C 260.541 180.680,261.601 179.019,261.601 178.309 C 261.600 176.708,265.549 172.652,266.732 173.039 C 267.209 173.195,268.010 175.798,268.512 178.823 C 269.097 182.358,269.955 184.765,270.912 185.561 C 271.731 186.242,273.039 187.790,273.819 189.000 C 275.896 192.223,278.948 191.999,280.403 188.517 C 281.019 187.041,282.438 185.235,283.555 184.503 C 284.933 183.600,285.747 182.165,286.087 180.037 C 286.368 178.280,287.420 176.121,288.482 175.123 C 289.523 174.145,290.601 172.142,290.877 170.672 C 291.493 167.388,293.967 166.964,294.731 170.012 M152.800 229.422 C 152.800 231.084,152.254 233.223,151.588 234.175 C 150.921 235.127,150.260 237.457,150.118 239.353 C 149.977 241.249,149.377 245.014,148.787 247.721 C 147.216 254.919,148.761 257.212,154.679 256.464 C 157.610 256.093,159.147 255.444,160.000 254.216 C 160.660 253.267,161.675 252.110,162.255 251.645 C 162.836 251.180,164.071 249.990,165.000 249.000 C 165.929 248.010,167.114 247.200,167.634 247.200 C 168.669 247.200,174.658 242.691,179.035 238.617 C 182.999 234.928,183.463 235.740,182.817 245.225 C 182.310 252.655,182.424 253.818,183.998 257.323 C 186.322 262.497,186.570 264.800,184.801 264.800 C 183.761 264.800,183.300 265.731,182.922 268.600 C 182.076 275.009,181.162 277.615,179.384 278.682 C 177.912 279.566,175.240 285.461,175.218 287.875 C 175.206 289.068,174.618 289.902,173.600 290.168 C 172.720 290.398,172.000 290.924,172.000 291.337 C 172.000 293.166,168.652 299.200,167.637 299.200 C 166.908 299.200,166.193 300.817,165.602 303.800 C 164.275 310.494,164.008 311.200,162.803 311.200 C 162.141 311.200,161.342 312.865,160.763 315.451 C 160.089 318.464,159.315 319.920,158.106 320.451 C 156.991 320.941,156.253 322.170,155.974 324.000 C 155.740 325.540,155.167 326.729,154.701 326.642 C 153.759 326.467,147.200 338.493,147.200 340.396 C 147.200 341.058,146.840 341.600,146.400 341.600 C 145.960 341.600,145.600 342.296,145.600 343.146 C 145.600 343.996,144.898 344.915,144.041 345.187 C 143.097 345.486,142.657 346.140,142.926 346.841 C 143.171 347.478,142.973 348.000,142.486 348.000 C 141.999 348.000,141.600 348.375,141.600 348.834 C 141.600 349.292,141.245 350.102,140.812 350.634 C 137.005 355.302,136.031 356.799,135.549 358.718 C 135.244 359.934,134.500 361.119,133.897 361.350 C 133.294 361.582,132.800 362.345,132.800 363.046 C 132.800 363.915,133.060 364.060,133.619 363.501 C 134.737 362.383,139.200 363.129,139.200 364.434 C 139.200 365.797,136.989 368.000,135.622 368.000 C 135.037 368.000,133.815 369.260,132.906 370.800 C 131.901 372.504,130.633 373.600,129.667 373.600 C 128.794 373.600,127.792 374.087,127.440 374.683 C 126.592 376.118,123.692 377.600,121.732 377.600 C 120.793 377.600,119.517 378.686,118.571 380.290 C 116.902 383.119,112.726 384.977,112.120 383.160 C 110.819 379.258,106.966 378.572,103.600 381.644 C 102.720 382.447,100.200 383.504,98.000 383.992 C 95.800 384.481,92.676 385.794,91.058 386.909 C 89.441 388.024,86.561 389.121,84.658 389.346 C 82.756 389.572,79.220 390.504,76.800 391.418 C 69.808 394.059,43.965 394.463,37.200 392.038 C 34.560 391.091,31.093 389.942,29.495 389.485 C 27.697 388.970,26.254 387.915,25.707 386.715 C 25.221 385.649,23.918 384.364,22.812 383.860 C 21.705 383.356,20.788 382.551,20.773 382.072 C 20.758 381.592,20.050 379.760,19.200 378.000 C 15.762 370.883,18.742 363.206,25.350 362.155 C 28.412 361.667,29.815 360.991,30.760 359.548 L 32.037 357.600 67.418 357.520 C 122.571 357.395,120.429 357.774,121.265 347.995 C 121.653 343.467,122.290 341.217,123.868 338.800 C 125.747 335.922,126.000 334.620,126.381 325.861 C 126.758 317.210,127.005 315.910,128.594 314.220 C 130.924 311.739,132.000 305.813,132.000 295.459 C 132.000 288.918,132.321 286.501,133.497 284.168 C 135.224 280.744,135.944 275.663,136.722 261.423 C 137.215 252.402,137.482 251.029,139.076 249.332 C 140.483 247.834,140.974 246.130,141.331 241.509 C 141.803 235.411,143.185 232.000,145.184 232.000 C 145.815 232.000,147.337 230.740,148.566 229.200 C 151.496 225.528,152.800 225.596,152.800 229.422 M208.800 248.681 C 208.800 249.495,208.458 251.205,208.041 252.481 C 207.623 253.756,207.153 257.837,206.996 261.548 C 206.746 267.441,204.800 272.509,204.800 267.267 C 204.800 266.350,204.459 265.600,204.043 265.600 C 203.626 265.600,203.456 264.073,203.664 262.200 C 204.265 256.809,199.535 254.364,197.980 259.262 C 197.691 260.174,197.246 260.713,196.992 260.459 C 196.738 260.204,195.896 260.570,195.122 261.270 C 193.514 262.726,190.400 262.135,190.400 260.374 C 190.400 259.152,193.029 257.458,194.609 257.662 C 196.852 257.951,197.506 257.495,197.747 255.475 C 197.944 253.821,198.680 253.117,201.071 252.293 C 202.761 251.711,204.857 250.327,205.729 249.217 C 207.605 246.832,208.800 246.624,208.800 248.681 M181.800 361.330 C 178.980 362.468,180.961 364.000,185.253 364.000 C 190.526 364.000,194.217 362.560,191.582 361.531 C 189.814 360.840,183.344 360.707,181.800 361.330 " stroke="none" fill="#5cbf64" fill-rule="evenodd"></path><path id="path5" d="M232.800 21.582 C 231.260 21.911,229.100 22.545,228.000 22.991 C 226.900 23.437,223.660 24.048,220.800 24.349 C 215.184 24.940,211.200 26.167,211.200 27.307 C 211.200 27.699,209.310 28.859,207.000 29.885 C 204.594 30.953,200.872 33.683,198.287 36.275 C 195.805 38.764,193.512 40.800,193.193 40.800 C 192.873 40.800,191.429 41.838,189.983 43.107 C 188.538 44.377,187.050 45.547,186.678 45.707 C 185.813 46.081,181.496 52.553,180.298 55.271 C 179.797 56.409,178.444 58.283,177.293 59.434 C 176.142 60.585,175.200 62.056,175.200 62.702 C 175.200 63.348,174.299 64.948,173.197 66.257 C 172.096 67.566,170.560 70.024,169.784 71.719 C 169.008 73.413,167.722 75.769,166.925 76.953 C 165.192 79.531,163.268 87.155,163.228 91.605 C 163.213 93.368,162.799 96.068,162.308 97.605 C 159.672 105.863,159.347 127.615,161.829 129.625 C 163.360 130.864,163.657 132.332,164.488 142.749 C 166.011 161.852,167.714 162.000,185.783 144.600 C 188.867 141.630,191.775 139.200,192.244 139.200 C 192.713 139.200,193.946 138.402,194.984 137.427 C 198.762 133.878,199.600 135.885,199.600 148.471 L 199.600 159.553 204.169 160.377 C 207.113 160.907,209.329 161.840,210.400 163.000 C 211.314 163.990,212.513 164.800,213.064 164.800 C 214.362 164.800,220.000 158.675,220.000 157.265 C 220.000 156.670,220.900 155.594,222.000 154.874 C 223.340 153.995,224.000 152.829,224.000 151.337 C 224.000 150.113,223.100 147.891,222.000 146.400 C 220.900 144.909,220.000 143.073,220.000 142.320 C 220.000 141.567,218.740 139.443,217.200 137.600 C 215.660 135.757,214.399 133.653,214.397 132.924 C 214.395 132.196,213.328 128.900,212.025 125.600 C 210.721 122.300,209.643 118.603,209.628 117.385 C 209.612 116.167,208.700 112.594,207.600 109.446 C 204.985 101.961,204.714 87.811,207.079 82.266 C 207.892 80.360,209.025 76.820,209.597 74.400 C 210.980 68.545,214.803 61.842,218.722 58.400 C 220.476 56.860,223.034 54.476,224.406 53.101 C 225.779 51.727,227.698 50.350,228.672 50.041 C 229.646 49.732,231.003 48.624,231.687 47.580 C 232.371 46.535,234.252 45.263,235.866 44.751 C 237.479 44.240,239.564 43.344,240.498 42.759 C 241.432 42.175,244.418 41.121,247.133 40.417 C 249.848 39.714,253.430 38.429,255.093 37.562 C 258.317 35.881,269.496 34.457,279.753 34.421 C 286.201 34.398,287.516 33.534,284.225 31.484 C 283.001 30.721,281.068 29.127,279.929 27.941 C 278.606 26.563,276.585 25.574,274.329 25.202 C 272.388 24.882,268.741 23.760,266.224 22.710 C 261.450 20.717,240.206 20.000,232.800 21.582 M266.293 78.600 C 265.489 86.084,267.310 89.075,273.212 89.960 C 276.185 90.406,277.048 90.917,277.761 92.655 C 278.629 94.771,278.650 94.752,279.308 91.228 C 280.078 87.106,279.175 85.510,277.194 87.491 C 275.696 88.989,273.391 89.173,271.147 87.972 C 269.021 86.834,268.910 79.681,271.000 78.464 C 272.132 77.805,271.826 77.644,269.400 77.624 C 267.576 77.610,266.358 77.992,266.293 78.600 M247.448 89.200 C 247.452 91.840,247.602 92.824,247.780 91.386 C 247.958 89.948,247.954 87.788,247.772 86.586 C 247.589 85.384,247.443 86.560,247.448 89.200 M195.200 340.722 C 193.220 341.052,190.250 341.925,188.600 342.661 C 186.950 343.398,184.340 344.534,182.800 345.187 C 181.260 345.840,180.000 346.731,180.000 347.167 C 180.000 347.602,178.904 348.525,177.565 349.218 C 176.226 349.910,174.728 351.360,174.237 352.438 C 173.745 353.517,172.869 354.400,172.290 354.400 C 171.711 354.400,170.612 355.390,169.848 356.600 C 169.085 357.810,166.736 360.530,164.630 362.644 C 160.346 366.944,160.190 367.210,162.264 366.667 C 163.688 366.295,165.861 364.314,174.842 355.200 C 180.363 349.597,185.137 345.600,186.308 345.600 C 186.811 345.600,190.583 344.668,194.690 343.528 L 202.157 341.457 210.349 343.908 C 218.774 346.428,220.148 347.286,227.974 354.916 C 231.901 358.744,232.286 358.866,235.200 357.200 C 236.300 356.571,238.484 356.044,240.053 356.028 C 242.288 356.006,243.442 355.394,245.385 353.200 C 248.331 349.872,247.001 349.465,242.583 352.343 C 240.942 353.412,237.915 354.529,235.855 354.826 L 232.111 355.365 227.102 350.494 C 224.347 347.815,220.812 345.209,219.246 344.703 C 217.681 344.197,215.103 343.132,213.518 342.336 C 210.212 340.675,200.577 339.826,195.200 340.722 M180.000 360.193 C 176.684 361.386,176.045 364.236,179.000 364.656 C 180.365 364.849,180.800 364.514,180.800 363.271 C 180.800 360.963,183.809 360.408,191.116 361.366 C 197.851 362.249,198.554 362.167,195.996 360.798 C 193.381 359.398,183.271 359.016,180.000 360.193 " stroke="none" fill="#989998" fill-rule="evenodd"></path><path id="path6" d="M157.341 121.444 C 156.317 122.576,156.000 124.468,156.000 129.448 C 156.000 133.035,155.651 138.407,155.224 141.385 C 154.797 144.363,154.077 153.923,153.623 162.629 C 153.006 174.483,152.487 178.934,151.559 180.350 C 150.706 181.653,150.246 184.690,150.082 190.120 C 149.886 196.613,149.525 198.531,148.031 201.019 C 146.878 202.940,145.977 206.198,145.554 209.973 C 145.129 213.759,144.148 217.298,142.844 219.748 C 141.720 221.859,140.800 224.536,140.800 225.695 C 140.800 226.855,139.747 230.457,138.460 233.702 C 135.908 240.137,134.761 245.380,134.020 254.000 C 133.331 262.019,132.026 271.209,131.181 274.000 C 130.781 275.320,130.066 281.018,129.591 286.661 C 129.044 293.171,128.151 298.388,127.149 300.930 C 126.280 303.134,125.047 309.404,124.408 314.863 C 123.760 320.405,122.652 325.940,121.899 327.394 C 121.158 328.827,120.062 333.762,119.463 338.361 C 118.049 349.207,115.937 351.911,108.800 352.007 C 108.140 352.016,106.053 352.562,104.162 353.221 C 101.317 354.212,94.902 354.416,66.962 354.405 C 32.629 354.392,28.377 354.696,25.323 357.381 C 24.375 358.213,22.622 359.310,21.426 359.818 C 15.236 362.448,12.201 373.170,16.053 378.800 C 16.956 380.120,18.026 382.014,18.431 383.010 C 18.836 384.005,20.068 385.230,21.169 385.731 C 22.269 386.233,23.380 387.306,23.637 388.117 C 24.922 392.166,35.069 395.263,48.581 395.728 C 63.623 396.247,77.824 395.153,81.637 393.181 C 83.114 392.417,86.650 391.305,89.495 390.710 C 92.340 390.115,95.417 388.940,96.334 388.100 C 99.309 385.373,102.764 385.185,104.563 387.654 C 106.728 390.626,112.045 390.623,115.149 387.649 C 116.325 386.522,117.664 385.600,118.124 385.600 C 118.584 385.600,120.365 384.582,122.081 383.339 C 123.798 382.095,126.152 380.565,127.312 379.939 C 132.001 377.408,137.312 374.041,139.200 372.403 C 141.470 370.434,146.489 368.817,150.493 368.765 C 153.623 368.724,160.424 367.050,161.361 366.090 C 161.713 365.730,158.435 365.638,154.079 365.885 C 145.686 366.361,136.930 369.568,135.201 372.798 C 134.794 373.558,133.367 374.634,132.031 375.187 C 130.694 375.741,129.600 376.481,129.600 376.831 C 129.600 377.181,127.890 378.089,125.800 378.849 C 123.710 379.608,121.358 380.953,120.572 381.838 C 116.643 386.264,108.800 388.044,108.800 384.511 C 108.800 382.224,106.910 381.221,105.593 382.808 C 105.085 383.421,103.079 384.160,101.135 384.452 C 99.191 384.743,96.070 385.989,94.200 387.221 C 92.330 388.453,89.019 389.723,86.843 390.044 C 84.667 390.366,81.426 391.275,79.641 392.064 C 72.878 395.056,43.218 395.895,36.278 393.291 C 27.059 389.832,25.544 389.085,25.135 387.794 C 24.888 387.018,23.658 385.850,22.400 385.200 C 21.142 384.550,19.857 383.211,19.544 382.224 C 19.231 381.238,18.260 379.464,17.387 378.282 C 13.419 372.916,17.048 362.756,23.748 360.473 C 25.670 359.818,28.182 358.544,29.329 357.641 C 31.358 356.045,32.352 356.000,65.508 355.986 C 115.841 355.966,119.965 355.166,120.019 345.412 C 120.040 341.654,120.732 338.626,123.083 332.000 C 123.942 329.580,125.034 324.000,125.509 319.600 C 125.985 315.200,127.127 309.634,128.048 307.232 C 128.968 304.829,129.882 300.329,130.079 297.232 C 130.626 288.632,132.079 278.381,133.287 274.611 C 133.885 272.747,134.602 266.627,134.882 261.011 C 135.234 253.953,135.830 249.776,136.814 247.483 C 137.596 245.659,138.472 242.959,138.761 241.483 C 140.563 232.272,141.014 231.342,146.154 226.248 C 154.271 218.203,156.346 220.908,155.198 238.036 C 154.264 251.963,155.666 253.511,163.117 246.780 C 164.809 245.251,166.462 244.000,166.789 244.000 C 167.116 244.000,168.333 243.097,169.492 241.993 C 183.040 229.095,189.560 227.531,186.880 237.823 C 182.807 253.459,185.521 259.101,193.788 252.188 C 195.227 250.985,197.124 249.542,198.003 248.982 C 198.881 248.421,200.779 247.210,202.221 246.290 C 203.662 245.370,205.190 243.966,205.616 243.170 C 206.582 241.365,210.911 239.139,212.369 239.699 C 214.456 240.500,214.456 248.086,212.370 259.261 C 211.404 264.437,215.570 266.445,220.129 263.000 C 228.384 256.761,234.255 249.593,234.991 244.856 C 235.235 243.285,236.125 241.012,236.968 239.805 C 239.114 236.733,240.279 224.494,239.664 211.474 C 239.142 200.416,239.720 197.251,242.420 196.394 C 243.178 196.153,245.604 193.896,247.811 191.378 C 250.018 188.860,253.573 185.000,255.712 182.800 C 257.850 180.600,260.252 177.360,261.050 175.600 C 265.202 166.435,268.901 166.701,269.837 176.232 C 270.194 179.880,270.813 181.459,272.746 183.660 C 274.095 185.198,275.200 186.983,275.200 187.628 C 275.200 189.780,278.966 189.040,279.534 186.776 C 279.814 185.663,280.938 183.974,282.032 183.023 C 283.126 182.072,284.408 179.832,284.882 178.047 C 285.356 176.261,286.396 174.080,287.195 173.200 C 287.993 172.320,289.203 170.250,289.882 168.600 C 291.493 164.690,293.930 164.526,295.475 168.224 C 296.578 170.865,301.147 176.000,302.393 176.000 C 304.834 176.000,308.900 191.063,310.060 204.400 C 310.710 211.880,311.592 219.044,312.021 220.319 C 313.042 223.360,312.994 253.874,311.961 258.000 C 311.520 259.760,310.687 265.725,310.110 271.256 C 309.278 279.231,308.702 281.797,307.325 283.660 C 306.370 284.951,305.188 288.284,304.698 291.067 C 304.120 294.348,303.150 296.835,301.937 298.144 C 300.908 299.254,299.515 302.058,298.841 304.376 C 298.167 306.694,297.073 309.042,296.408 309.593 C 295.744 310.145,295.200 310.941,295.200 311.362 C 295.200 313.503,276.793 332.678,272.640 334.863 C 271.452 335.488,270.192 336.493,269.840 337.096 C 269.488 337.699,267.694 338.954,265.854 339.884 C 264.014 340.815,262.289 341.932,262.021 342.367 C 261.752 342.801,260.124 343.536,258.403 343.999 C 256.681 344.463,254.266 345.679,253.036 346.702 C 251.806 347.725,249.720 348.947,248.400 349.418 L 246.000 350.274 248.148 350.337 C 251.069 350.423,254.485 349.034,255.731 347.255 C 256.298 346.447,258.019 345.549,259.557 345.261 C 261.095 344.972,263.405 343.851,264.692 342.768 C 265.978 341.686,267.390 340.800,267.829 340.800 C 268.907 340.800,274.766 336.268,278.314 332.689 C 279.901 331.088,282.871 328.388,284.913 326.689 C 288.588 323.632,293.302 317.976,295.237 314.300 C 295.787 313.255,297.039 311.436,298.019 310.257 C 298.999 309.079,300.056 306.751,300.369 305.085 C 300.681 303.418,301.986 300.860,303.269 299.400 C 304.738 297.726,305.600 295.855,305.600 294.339 C 305.600 293.017,306.658 289.879,307.951 287.367 C 309.399 284.554,310.627 280.496,311.149 276.800 C 311.615 273.500,312.447 268.280,312.997 265.200 C 314.694 255.715,314.312 217.594,312.440 209.495 C 312.199 208.453,311.456 202.250,310.789 195.711 C 309.807 186.085,309.261 183.421,307.916 181.711 C 307.002 180.550,305.780 178.465,305.200 177.077 C 304.620 175.689,303.483 174.342,302.673 174.083 C 301.863 173.824,300.660 172.753,300.000 171.703 C 295.977 165.303,294.224 163.200,292.914 163.200 C 291.476 163.200,288.800 165.514,288.800 166.757 C 288.800 167.105,287.768 168.564,286.507 170.001 C 285.245 171.437,283.954 173.995,283.637 175.685 C 283.320 177.375,282.205 179.614,281.158 180.660 C 280.112 181.706,279.040 183.245,278.774 184.081 C 278.088 186.243,277.170 185.974,275.093 183.000 C 274.094 181.570,272.953 180.176,272.557 179.902 C 272.161 179.629,271.552 176.929,271.204 173.902 C 270.399 166.913,269.841 165.600,267.677 165.600 C 265.185 165.600,260.293 170.991,259.273 174.861 C 258.757 176.816,257.689 178.522,256.607 179.121 C 255.613 179.670,252.128 183.294,248.862 187.174 C 240.120 197.562,236.017 198.590,234.400 190.800 C 233.901 188.395,233.151 186.217,232.735 185.960 C 232.318 185.702,231.296 184.156,230.463 182.524 C 228.629 178.928,214.905 164.800,213.247 164.800 C 212.597 164.800,211.240 163.938,210.232 162.885 C 208.274 160.839,199.511 158.780,198.000 160.012 C 197.560 160.370,194.500 160.925,191.200 161.245 C 186.668 161.685,184.656 162.281,182.976 163.682 C 181.753 164.702,179.526 165.767,178.026 166.048 C 172.160 167.148,164.361 173.757,160.921 180.542 C 159.181 183.974,156.485 185.605,155.002 184.122 C 153.529 182.649,155.886 143.358,157.624 140.400 C 160.689 135.184,160.433 118.027,157.341 121.444 M191.647 362.825 C 190.691 363.548,188.289 364.000,185.400 364.000 C 182.107 364.000,180.873 364.271,181.266 364.906 C 181.947 366.009,195.969 365.144,197.193 363.924 C 199.168 361.956,194.119 360.956,191.647 362.825 " stroke="none" fill="#95ce8e" fill-rule="evenodd"></path><path id="path7" d="M194.214 140.299 C 193.011 140.833,191.322 141.973,190.459 142.834 C 189.597 143.696,186.471 146.560,183.512 149.200 C 180.553 151.840,176.965 155.160,175.540 156.579 C 169.191 162.895,165.482 161.110,163.724 150.890 C 161.997 140.858,159.439 139.259,158.666 147.730 C 158.472 149.859,157.781 153.419,157.131 155.643 C 155.635 160.764,155.834 180.081,157.389 180.597 C 157.932 180.778,158.821 179.907,159.363 178.663 C 161.740 173.204,168.977 166.716,174.830 164.797 C 176.573 164.225,179.150 162.885,180.555 161.818 C 182.493 160.347,184.593 159.737,189.254 159.292 C 195.722 158.674,197.533 157.545,197.660 154.047 C 197.693 153.141,197.834 150.240,197.973 147.600 C 198.236 142.609,197.796 139.153,196.913 139.265 C 196.631 139.301,195.416 139.766,194.214 140.299 M290.877 170.672 C 290.601 172.142,289.523 174.145,288.482 175.123 C 287.420 176.121,286.368 178.280,286.087 180.037 C 285.747 182.165,284.933 183.600,283.555 184.503 C 282.438 185.235,281.019 187.041,280.403 188.517 C 278.948 191.999,275.896 192.223,273.819 189.000 C 273.039 187.790,271.731 186.242,270.912 185.561 C 269.955 184.765,269.097 182.358,268.512 178.823 C 268.010 175.798,267.209 173.195,266.732 173.039 C 265.549 172.652,261.600 176.708,261.601 178.309 C 261.601 179.019,260.541 180.680,259.244 182.000 C 257.948 183.320,253.240 188.180,248.781 192.800 L 240.675 201.200 241.258 206.400 C 242.052 213.485,241.979 222.047,241.042 231.600 C 239.964 242.599,233.358 256.402,225.356 264.382 C 223.241 266.490,221.664 268.617,221.851 269.107 C 222.959 272.023,220.914 273.600,216.026 273.600 C 212.970 273.600,211.200 273.932,211.200 274.505 C 211.200 275.091,212.180 275.250,213.985 274.957 C 218.340 274.251,219.033 280.135,214.859 282.369 C 213.678 283.001,212.754 284.393,212.454 285.994 C 212.186 287.424,211.228 289.446,210.325 290.486 C 209.423 291.527,208.482 293.389,208.235 294.624 C 207.963 295.987,206.922 297.317,205.587 298.007 C 204.377 298.632,203.175 299.991,202.915 301.025 C 202.656 302.060,201.589 303.364,200.545 303.922 C 199.501 304.481,198.031 306.335,197.278 308.041 C 196.525 309.748,194.333 312.532,192.406 314.228 C 190.479 315.924,188.649 318.322,188.339 319.557 C 188.025 320.810,186.766 322.377,185.493 323.102 C 184.237 323.816,183.208 324.610,183.205 324.866 C 183.202 325.122,181.040 327.525,178.400 330.206 C 175.760 332.888,173.600 335.464,173.600 335.931 C 173.600 336.398,171.260 338.283,168.400 340.119 C 165.540 341.956,163.200 343.712,163.200 344.021 C 163.200 345.103,156.509 352.800,155.569 352.800 C 155.047 352.800,153.286 353.860,151.655 355.156 C 150.025 356.452,147.375 357.946,145.767 358.477 C 143.077 359.365,140.800 360.924,140.800 361.879 C 140.800 362.999,152.081 364.647,156.949 364.238 C 162.045 363.810,162.441 363.625,165.349 360.299 C 168.469 356.731,173.947 351.177,178.784 346.679 C 180.275 345.293,182.868 343.709,184.547 343.158 C 186.226 342.608,188.449 341.605,189.486 340.930 C 192.651 338.871,210.901 339.126,214.021 341.273 C 215.329 342.173,217.981 343.365,219.913 343.921 C 222.453 344.652,224.720 346.272,228.100 349.768 C 233.364 355.216,235.331 355.292,240.121 350.238 C 241.568 348.712,243.042 348.000,244.757 348.000 C 246.391 348.000,247.992 347.280,249.327 345.946 C 251.626 343.647,254.383 342.400,257.168 342.400 C 258.193 342.400,259.880 341.506,260.916 340.414 C 261.952 339.321,263.211 338.421,263.713 338.414 C 266.457 338.372,292.887 313.213,293.983 309.600 C 294.316 308.500,295.085 307.034,295.690 306.342 C 296.296 305.650,297.311 303.357,297.946 301.246 C 298.581 299.135,299.873 296.587,300.816 295.583 C 301.817 294.518,302.691 292.308,302.915 290.279 C 303.546 284.565,303.911 283.429,305.881 281.062 C 310.551 275.447,310.927 205.192,306.351 193.200 C 305.512 191.000,304.422 187.272,303.928 184.915 C 303.231 181.584,302.163 179.672,299.134 176.327 C 296.990 173.960,295.009 171.118,294.731 170.012 C 293.967 166.964,291.493 167.388,290.877 170.672 M148.566 229.200 C 147.337 230.740,145.815 232.000,145.184 232.000 C 143.185 232.000,141.803 235.411,141.331 241.509 C 140.974 246.130,140.483 247.834,139.076 249.332 C 137.482 251.029,137.215 252.402,136.722 261.423 C 135.944 275.663,135.224 280.744,133.497 284.168 C 132.321 286.501,132.000 288.918,132.000 295.459 C 132.000 305.813,130.924 311.739,128.594 314.220 C 127.005 315.910,126.758 317.210,126.381 325.861 C 126.000 334.620,125.747 335.922,123.868 338.800 C 122.290 341.217,121.653 343.467,121.265 347.995 C 120.429 357.774,122.571 357.395,67.418 357.520 L 32.037 357.600 30.760 359.548 C 29.815 360.991,28.412 361.667,25.350 362.155 C 18.742 363.206,15.762 370.883,19.200 378.000 C 20.050 379.760,20.758 381.592,20.773 382.072 C 20.788 382.551,21.705 383.356,22.812 383.860 C 23.918 384.364,25.221 385.649,25.707 386.715 C 26.254 387.915,27.697 388.970,29.495 389.485 C 31.093 389.942,34.560 391.091,37.200 392.038 C 43.965 394.463,69.808 394.059,76.800 391.418 C 79.220 390.504,82.756 389.572,84.658 389.346 C 86.561 389.121,89.441 388.024,91.058 386.909 C 92.676 385.794,95.800 384.481,98.000 383.992 C 100.200 383.504,102.720 382.447,103.600 381.644 C 106.966 378.572,110.819 379.258,112.120 383.160 C 112.726 384.977,116.902 383.119,118.571 380.290 C 119.517 378.686,120.793 377.600,121.732 377.600 C 123.692 377.600,126.592 376.118,127.440 374.683 C 127.792 374.087,128.794 373.600,129.667 373.600 C 130.633 373.600,131.901 372.504,132.906 370.800 C 133.815 369.260,135.037 368.000,135.622 368.000 C 136.989 368.000,139.200 365.797,139.200 364.434 C 139.200 363.129,134.737 362.383,133.619 363.501 C 133.060 364.060,132.800 363.915,132.800 363.046 C 132.800 362.345,133.294 361.582,133.897 361.350 C 134.500 361.119,135.244 359.934,135.549 358.718 C 136.031 356.799,137.005 355.302,140.812 350.634 C 141.245 350.102,141.600 349.292,141.600 348.834 C 141.600 348.375,141.999 348.000,142.486 348.000 C 142.973 348.000,143.171 347.478,142.926 346.841 C 142.657 346.140,143.097 345.486,144.041 345.187 C 144.898 344.915,145.600 343.996,145.600 343.146 C 145.600 342.296,145.960 341.600,146.400 341.600 C 146.840 341.600,147.200 341.058,147.200 340.396 C 147.200 338.493,153.759 326.467,154.701 326.642 C 155.167 326.729,155.740 325.540,155.974 324.000 C 156.253 322.170,156.991 320.941,158.106 320.451 C 159.315 319.920,160.089 318.464,160.763 315.451 C 161.342 312.865,162.141 311.200,162.803 311.200 C 164.008 311.200,164.275 310.494,165.602 303.800 C 166.193 300.817,166.908 299.200,167.637 299.200 C 168.652 299.200,172.000 293.166,172.000 291.337 C 172.000 290.924,172.720 290.398,173.600 290.168 C 174.618 289.902,175.206 289.068,175.218 287.875 C 175.240 285.461,177.912 279.566,179.384 278.682 C 181.162 277.615,182.076 275.009,182.922 268.600 C 183.300 265.731,183.761 264.800,184.801 264.800 C 186.570 264.800,186.322 262.497,183.998 257.323 C 182.424 253.818,182.310 252.655,182.817 245.225 C 183.463 235.740,182.999 234.928,179.035 238.617 C 174.658 242.691,168.669 247.200,167.634 247.200 C 167.114 247.200,165.929 248.010,165.000 249.000 C 164.071 249.990,162.836 251.180,162.255 251.645 C 161.675 252.110,160.660 253.267,160.000 254.216 C 159.147 255.444,157.610 256.093,154.679 256.464 C 148.761 257.212,147.216 254.919,148.787 247.721 C 149.377 245.014,149.977 241.249,150.118 239.353 C 150.260 237.457,150.921 235.127,151.588 234.175 C 153.073 232.054,153.228 226.400,151.800 226.400 C 151.250 226.400,149.795 227.660,148.566 229.200 M205.729 249.217 C 204.857 250.327,202.761 251.711,201.071 252.293 C 198.680 253.117,197.944 253.821,197.747 255.475 C 197.506 257.495,196.852 257.951,194.609 257.662 C 193.029 257.458,190.400 259.152,190.400 260.374 C 190.400 262.135,193.514 262.726,195.122 261.270 C 195.896 260.570,196.738 260.204,196.992 260.459 C 197.246 260.713,197.691 260.174,197.980 259.262 C 199.535 254.364,204.265 256.809,203.664 262.200 C 203.456 264.073,203.626 265.600,204.043 265.600 C 204.459 265.600,204.800 266.350,204.800 267.267 C 204.800 272.509,206.746 267.441,206.996 261.548 C 207.153 257.837,207.623 253.756,208.041 252.481 C 209.723 247.341,208.530 245.657,205.729 249.217 " stroke="none" fill="#29b24b" fill-rule="evenodd"></path><path id="path8" d="M166.000 9.093 C 158.116 11.657,157.254 12.253,154.896 16.762 C 151.768 22.744,153.676 27.611,159.878 29.469 C 167.302 31.693,166.952 33.653,158.135 39.215 C 148.298 45.421,143.208 54.408,147.243 58.443 C 148.099 59.299,149.125 60.000,149.522 60.000 C 150.382 60.000,152.000 64.359,152.000 66.676 C 152.000 67.576,151.054 69.300,149.898 70.507 C 147.791 72.706,144.620 79.333,142.939 85.051 C 140.999 91.651,145.236 95.682,153.215 94.828 C 160.292 94.070,162.540 91.922,164.292 84.241 C 164.959 81.315,166.175 77.994,166.994 76.861 C 167.812 75.727,169.123 73.092,169.906 71.003 C 170.689 68.915,171.802 66.935,172.379 66.603 C 172.956 66.272,174.003 64.615,174.706 62.921 C 175.409 61.228,176.866 59.149,177.945 58.301 C 179.023 57.452,180.145 56.004,180.437 55.083 C 181.112 52.956,185.740 46.108,186.800 45.668 C 187.240 45.485,188.554 44.315,189.721 43.068 C 190.888 41.821,192.088 40.800,192.389 40.800 C 192.690 40.800,195.353 38.652,198.307 36.026 C 201.262 33.401,205.098 30.660,206.832 29.935 C 208.567 29.210,210.782 27.758,211.755 26.709 C 212.842 25.535,214.425 24.800,215.864 24.800 C 219.496 24.800,220.592 22.839,217.643 21.618 C 216.333 21.075,214.170 19.589,212.837 18.315 C 211.505 17.042,209.696 16.000,208.819 16.000 C 207.941 16.000,204.848 14.740,201.945 13.200 C 198.755 11.508,195.507 10.390,193.734 10.374 C 192.120 10.360,188.820 9.651,186.400 8.800 C 180.421 6.697,173.042 6.803,166.000 9.093 M313.608 48.696 C 310.301 49.646,313.020 50.357,317.251 49.649 C 319.423 49.286,320.660 48.941,320.000 48.883 C 319.340 48.825,318.080 48.631,317.200 48.451 C 316.320 48.271,314.704 48.382,313.608 48.696 M312.028 53.547 C 310.812 55.820,311.008 58.294,312.774 62.939 C 313.639 65.216,314.880 70.616,315.530 74.939 C 316.181 79.263,317.312 84.420,318.044 86.400 C 319.056 89.136,319.476 93.887,319.796 106.192 C 320.256 123.924,320.370 124.314,325.053 124.249 C 372.588 123.582,374.857 123.708,378.800 127.228 C 379.680 128.014,381.300 128.779,382.400 128.928 C 385.260 129.317,385.508 120.887,382.673 119.642 C 381.359 119.065,380.729 117.726,380.038 114.042 C 377.652 101.318,376.583 97.598,374.692 95.442 C 373.611 94.209,372.515 92.194,372.257 90.965 C 371.969 89.600,370.894 88.269,369.493 87.545 C 368.173 86.862,367.200 85.705,367.200 84.818 C 367.200 82.839,359.936 75.558,355.823 73.414 C 354.083 72.507,352.486 71.314,352.274 70.761 C 352.063 70.209,350.655 69.526,349.147 69.243 C 347.175 68.873,346.050 68.043,345.143 66.290 C 344.449 64.949,343.698 64.035,343.473 64.260 C 342.754 64.979,338.069 63.045,336.000 61.175 C 334.900 60.182,332.874 59.132,331.499 58.842 C 330.123 58.553,327.803 57.435,326.343 56.358 C 324.540 55.028,322.634 54.400,320.397 54.400 C 318.587 54.400,316.407 53.871,315.553 53.225 C 313.494 51.668,313.010 51.713,312.028 53.547 M329.200 54.400 C 329.472 54.840,330.213 55.200,330.847 55.200 C 331.481 55.200,332.000 54.840,332.000 54.400 C 332.000 53.960,331.259 53.600,330.353 53.600 C 329.447 53.600,328.928 53.960,329.200 54.400 M317.938 136.346 C 317.079 136.974,316.296 139.971,315.511 145.637 C 314.873 150.237,314.147 155.135,313.897 156.521 C 313.060 161.169,331.529 161.307,337.331 156.696 C 338.920 155.433,340.801 154.399,341.510 154.397 C 342.730 154.394,347.939 151.596,348.800 150.481 C 349.020 150.196,350.158 149.354,351.329 148.610 C 352.499 147.866,353.896 145.926,354.433 144.300 C 354.970 142.674,356.322 140.558,357.438 139.598 C 360.170 137.248,359.389 134.748,356.190 135.601 C 352.601 136.558,327.848 136.990,323.361 136.175 C 320.399 135.636,318.842 135.686,317.938 136.346 M194.000 343.659 C 190.480 344.700,187.104 345.563,186.497 345.576 C 183.846 345.634,164.000 365.137,164.000 367.685 C 164.000 369.678,167.047 368.862,168.800 366.400 C 170.677 363.764,173.560 363.224,175.200 365.200 C 175.748 365.860,176.732 366.400,177.387 366.400 C 178.199 366.400,177.979 365.916,176.696 364.876 C 174.887 363.412,174.869 363.292,176.227 361.791 C 179.203 358.503,195.684 358.018,199.110 361.118 C 199.889 361.823,201.189 362.400,202.000 362.400 C 203.396 362.400,208.731 367.569,214.000 374.026 C 219.511 380.781,226.016 382.545,232.733 379.107 C 236.087 377.391,238.288 376.747,239.802 377.041 C 245.268 378.101,248.800 373.620,248.800 365.627 C 248.800 354.346,247.640 353.610,235.711 357.320 C 231.912 358.501,228.241 356.965,226.573 353.496 C 225.173 350.584,217.651 346.096,210.616 343.975 C 201.477 341.219,202.200 341.233,194.000 343.659 " stroke="none" fill="#f071aa" fill-rule="evenodd"></path><path id="path9" d="M166.400 5.528 C 161.829 6.570,155.188 10.502,153.948 12.901 C 153.317 14.122,152.222 15.444,151.515 15.839 C 147.035 18.347,150.602 27.311,157.451 30.759 C 160.597 32.343,160.442 33.392,156.761 35.448 C 152.372 37.900,145.703 45.463,145.048 48.732 C 143.782 55.039,144.242 58.413,146.600 60.131 C 147.810 61.012,148.800 62.455,148.800 63.337 C 148.800 65.188,143.393 75.200,142.393 75.200 C 139.421 75.200,138.702 93.301,141.635 94.278 C 142.141 94.447,143.738 95.623,145.183 96.893 C 148.401 99.718,150.043 99.770,154.877 97.200 C 156.946 96.100,159.125 95.200,159.719 95.200 C 160.314 95.200,160.800 94.647,160.800 93.972 C 160.800 93.012,160.467 92.922,159.276 93.559 C 152.468 97.203,144.163 94.915,142.675 88.985 C 141.877 85.809,146.454 74.102,149.898 70.507 C 151.054 69.300,152.000 67.576,152.000 66.676 C 152.000 64.359,150.382 60.000,149.522 60.000 C 149.125 60.000,148.099 59.299,147.243 58.443 C 143.208 54.408,148.298 45.421,158.135 39.215 C 166.952 33.653,167.302 31.693,159.878 29.469 C 156.812 28.550,152.800 24.090,152.800 21.601 C 152.800 19.576,157.196 12.637,159.100 11.658 C 167.515 7.330,178.848 6.144,186.400 8.800 C 188.820 9.651,192.120 10.360,193.734 10.374 C 195.507 10.390,198.755 11.508,201.945 13.200 C 204.848 14.740,207.954 16.000,208.848 16.000 C 209.742 16.000,211.375 16.902,212.477 18.005 C 215.368 20.895,220.797 23.523,221.802 22.518 C 222.351 21.969,221.737 21.190,219.907 20.110 C 218.418 19.233,216.480 17.806,215.600 16.941 C 214.720 16.076,212.560 14.667,210.800 13.809 C 209.040 12.952,206.520 11.684,205.200 10.992 C 197.059 6.723,174.869 3.598,166.400 5.528 M301.831 42.952 C 301.546 43.696,301.716 44.439,302.209 44.603 C 302.702 44.767,303.719 46.769,304.470 49.051 C 305.221 51.333,306.636 54.163,307.616 55.340 C 308.685 56.625,309.800 59.662,310.406 62.940 C 310.961 65.943,311.896 69.351,312.483 70.513 C 313.071 71.675,313.911 76.355,314.352 80.913 C 315.957 97.530,316.233 99.617,316.945 100.525 C 317.344 101.033,317.619 106.291,317.556 112.210 C 317.465 120.706,317.712 123.495,318.728 125.462 C 319.981 127.884,319.961 127.988,318.016 129.263 C 315.609 130.840,314.732 133.979,314.022 143.556 C 313.730 147.492,312.976 151.946,312.346 153.454 C 308.637 162.329,313.681 165.952,324.800 162.400 C 327.555 161.520,330.710 160.800,331.811 160.800 C 335.075 160.800,340.040 159.020,340.815 157.572 C 341.211 156.832,343.144 155.776,345.111 155.225 C 347.078 154.674,349.495 153.363,350.483 152.312 C 351.471 151.260,352.775 150.400,353.380 150.400 C 353.986 150.400,355.019 149.230,355.676 147.800 C 356.332 146.370,357.754 143.977,358.835 142.482 C 363.288 136.322,360.221 127.878,355.018 131.971 C 348.689 136.950,325.200 136.384,325.200 131.253 C 325.200 127.670,331.382 126.392,351.390 125.835 L 368.779 125.352 375.149 128.676 C 382.915 132.729,384.483 132.864,385.212 129.546 C 386.249 124.822,384.769 109.009,383.110 107.097 C 381.614 105.372,380.013 100.809,380.004 98.248 C 380.002 97.504,378.920 94.814,377.600 92.270 C 376.280 89.726,375.200 87.228,375.200 86.720 C 375.200 86.212,374.634 85.326,373.942 84.751 C 373.249 84.177,371.944 82.259,371.042 80.490 C 370.139 78.720,367.285 75.157,364.700 72.572 C 362.115 69.987,360.000 67.550,360.000 67.157 C 360.000 66.763,358.946 65.896,357.657 65.229 C 356.368 64.563,355.096 63.332,354.830 62.495 C 354.564 61.657,353.189 60.493,351.773 59.907 C 348.118 58.393,340.810 53.906,339.721 52.506 C 339.214 51.855,336.843 50.755,334.450 50.060 C 332.058 49.365,329.326 48.070,328.380 47.181 C 327.237 46.108,324.399 45.184,319.930 44.431 C 316.228 43.807,311.942 42.915,310.405 42.449 C 306.147 41.156,302.437 41.373,301.831 42.952 M320.000 48.883 C 320.660 48.941,319.423 49.286,317.251 49.649 C 315.079 50.013,312.922 50.076,312.459 49.789 C 311.349 49.103,315.147 48.032,317.200 48.451 C 318.080 48.631,319.340 48.825,320.000 48.883 M315.553 53.225 C 316.407 53.871,318.587 54.400,320.397 54.400 C 322.634 54.400,324.540 55.028,326.343 56.358 C 327.803 57.435,330.123 58.553,331.499 58.842 C 332.874 59.132,334.900 60.182,336.000 61.175 C 338.069 63.045,342.754 64.979,343.473 64.260 C 343.698 64.035,344.449 64.949,345.143 66.290 C 346.050 68.043,347.175 68.873,349.147 69.243 C 350.655 69.526,352.063 70.209,352.274 70.761 C 352.486 71.314,354.083 72.507,355.823 73.414 C 359.936 75.558,367.200 82.839,367.200 84.818 C 367.200 85.705,368.173 86.862,369.493 87.545 C 370.894 88.269,371.969 89.600,372.257 90.965 C 372.515 92.194,373.611 94.209,374.692 95.442 C 376.583 97.598,377.652 101.318,380.038 114.042 C 380.729 117.726,381.359 119.065,382.673 119.642 C 385.508 120.887,385.260 129.317,382.400 128.928 C 381.300 128.779,379.680 128.014,378.800 127.228 C 374.857 123.708,372.588 123.582,325.053 124.249 C 320.370 124.314,320.256 123.924,319.796 106.192 C 319.476 93.887,319.056 89.136,318.044 86.400 C 317.312 84.420,316.181 79.263,315.530 74.939 C 314.880 70.616,313.639 65.216,312.774 62.939 C 309.903 55.386,311.416 50.096,315.553 53.225 M332.000 54.400 C 332.000 54.840,331.481 55.200,330.847 55.200 C 330.213 55.200,329.472 54.840,329.200 54.400 C 328.928 53.960,329.447 53.600,330.353 53.600 C 331.259 53.600,332.000 53.960,332.000 54.400 M340.758 136.557 C 348.041 136.353,354.986 135.922,356.190 135.601 C 359.389 134.748,360.170 137.248,357.438 139.598 C 356.322 140.558,354.970 142.674,354.433 144.300 C 353.896 145.926,352.499 147.866,351.329 148.610 C 350.158 149.354,349.020 150.196,348.800 150.481 C 347.939 151.596,342.730 154.394,341.510 154.397 C 340.801 154.399,338.920 155.433,337.331 156.696 C 331.529 161.307,313.060 161.169,313.897 156.521 C 314.147 155.135,314.873 150.237,315.511 145.637 C 316.890 135.688,317.387 135.089,323.361 136.175 C 325.646 136.590,333.474 136.762,340.758 136.557 M247.022 353.721 C 246.822 354.315,247.140 355.958,247.729 357.374 C 251.638 366.771,246.941 378.425,239.802 377.041 C 238.288 376.747,236.087 377.391,232.733 379.107 C 226.016 382.545,219.511 380.781,214.000 374.026 C 206.664 365.035,200.000 359.702,200.000 362.822 C 200.000 363.287,215.936 379.082,219.953 382.600 C 223.588 385.783,228.762 385.701,232.522 382.400 C 234.807 380.394,235.941 379.998,239.428 379.990 C 243.186 379.981,243.944 379.660,247.068 376.759 L 250.536 373.538 250.268 364.396 C 250.010 355.609,248.292 349.957,247.022 353.721 M168.794 366.408 C 167.527 368.187,166.515 368.773,164.917 368.651 C 161.184 368.367,158.562 371.621,160.123 374.600 C 161.179 376.616,162.348 376.343,165.251 373.400 C 166.662 371.970,168.961 369.943,170.360 368.896 L 172.904 366.992 174.097 368.696 C 175.593 370.831,178.868 370.916,179.974 368.849 C 180.905 367.109,179.750 365.884,177.522 366.250 C 176.820 366.365,175.786 365.906,175.225 365.230 C 173.560 363.223,170.687 363.750,168.794 366.408 " stroke="none" fill="#f39dc4" fill-rule="evenodd"></path></g></svg>