<svg width="400" height="398" xmlns="http://www.w3.org/2000/svg">

 <g>
  <title>background</title>
  <rect fill="none" id="canvas_background" height="400" width="402" y="-1" x="-1"/>
 </g>
 <g>
  <title>Layer 1</title>
  <path fill-rule="evenodd" fill="#efefef" d="m178.4,0.506c-14.975,1.809 -19.575,2.695 -32,6.163c-11.899,3.322 -17.335,5.202 -24.145,8.354c-2.788,1.291 -5.966,2.623 -7.062,2.96c-1.096,0.337 -2.353,0.895 -2.793,1.239c-0.766,0.6 -10.297,5.709 -16.6,8.898c-1.65,0.834 -3,1.869 -3,2.299c0,0.429 -0.376,0.781 -0.835,0.781c-0.928,0 -10.219,6.161 -13.965,9.26c-1.32,1.092 -4.2,3.452 -6.4,5.245c-14.184,11.559 -40.4,41.577 -40.4,46.26c0,0.459 -0.352,0.835 -0.781,0.835c-0.43,0 -1.465,1.35 -2.299,3c-3.189,6.303 -8.298,15.834 -8.898,16.6c-0.344,0.44 -0.902,1.697 -1.239,2.793c-0.337,1.096 -1.669,4.274 -2.96,7.062c-5.346,11.551 -10.573,29.615 -13.236,45.745c-3.027,18.332 -1.115,72.413 2.781,78.663c0.321,0.515 1.545,4.537 2.719,8.937c2.445,9.158 5.898,19.336 7.016,20.683c0.418,0.504 0.808,1.18 0.867,1.5c0.606,3.349 13.987,29.417 15.099,29.417c0.297,0 0.98,0.99 1.517,2.2c0.957,2.157 5.718,8.922 9.236,13.123c0.978,1.167 2.854,3.507 4.17,5.2c2.178,2.803 8.981,10.315 14.008,15.469c1.651,1.693 11.247,10.18 18,15.92c2.868,2.437 13.924,9.688 14.773,9.688c0.455,0 0.827,0.299 0.827,0.665c0,0.365 0.99,1.162 2.2,1.771c1.21,0.608 3.1,1.702 4.2,2.429c3.508,2.321 13.837,7.553 18.8,9.523c2.64,1.048 5.52,2.339 6.4,2.869c0.88,0.531 3.04,1.396 4.8,1.923c1.76,0.527 4.28,1.441 5.6,2.032c1.32,0.59 5.64,1.844 9.6,2.785c3.96,0.942 7.84,2.057 8.622,2.478c10.003,5.387 67.446,6.147 88.978,1.177c10.336,-2.385 20.894,-5.329 22.8,-6.356c1.1,-0.593 3.003,-1.318 4.229,-1.61c1.226,-0.292 4.565,-1.601 7.42,-2.909c2.855,-1.307 5.397,-2.377 5.649,-2.377c0.911,0 14.36,-6.719 16.692,-8.339c1.314,-0.914 3.744,-2.273 5.4,-3.022c1.655,-0.748 3.01,-1.738 3.01,-2.2c0,-0.461 0.45,-0.843 1,-0.847c0.55,-0.005 3.16,-1.605 5.8,-3.555c2.64,-1.95 6.222,-4.556 7.96,-5.791c10.68,-7.59 28.664,-25.612 37.503,-37.582c8.015,-10.853 9.321,-12.767 9.329,-13.664c0.004,-0.55 0.386,-1 0.847,-1c0.462,0 1.452,-1.355 2.2,-3.01c0.749,-1.656 2.108,-4.086 3.022,-5.4c1.616,-2.326 8.339,-15.78 8.339,-16.688c0,-0.25 0.939,-2.507 2.086,-5.016c6.35,-13.882 11.501,-33.258 13.581,-51.086c2.434,-20.873 0.218,-65.902 -3.592,-72.978c-0.421,-0.782 -1.536,-4.662 -2.478,-8.622c-0.941,-3.96 -2.195,-8.28 -2.785,-9.6c-0.591,-1.32 -1.505,-3.84 -2.032,-5.6c-0.527,-1.76 -1.392,-3.92 -1.923,-4.8c-0.53,-0.88 -1.821,-3.76 -2.869,-6.4c-1.97,-4.963 -7.202,-15.292 -9.523,-18.8c-0.727,-1.1 -1.821,-2.99 -2.429,-4.2c-0.609,-1.21 -1.406,-2.2 -1.771,-2.2c-0.366,0 -0.665,-0.372 -0.665,-0.827c0,-0.849 -7.251,-11.905 -9.688,-14.773c-5.74,-6.753 -14.227,-16.349 -15.92,-18c-5.154,-5.027 -12.666,-11.83 -15.469,-14.008c-1.693,-1.316 -4.033,-3.192 -5.2,-4.17c-4.201,-3.518 -10.966,-8.279 -13.123,-9.236c-1.21,-0.537 -2.2,-1.22 -2.2,-1.517c0,-0.971 -26.485,-14.759 -29.6,-15.41c-0.22,-0.046 -0.864,-0.378 -1.431,-0.738c-1.792,-1.137 -12.268,-4.617 -20.569,-6.834c-4.4,-1.174 -8.421,-2.398 -8.935,-2.718c-4.505,-2.808 -54.179,-5.764 -68.265,-4.063m59.829,4.285c25.761,4.675 55.981,17.772 78.171,33.878c14.856,10.783 31.751,27.305 42.227,41.294c6.887,9.198 16.661,24.847 16.092,25.768c-0.227,0.368 0.058,0.672 0.634,0.676c1.128,0.007 5.524,7.649 4.811,8.363c-0.237,0.236 -81.395,0.43 -180.351,0.43l-179.921,0l0.555,-1.8c0.952,-3.084 2.792,-6.265 3.861,-6.676c0.564,-0.216 1.026,-0.827 1.027,-1.358c0.004,-1.759 14.761,-24.701 17.86,-27.766c0.223,-0.22 1.845,-2.2 3.605,-4.4c6.691,-8.363 18.623,-20.103 29.272,-28.8c27.109,-22.139 67.743,-39.041 99.128,-41.232c16.745,-1.168 52.754,-0.241 63.029,1.623m50.571,44.259c0,0.138 1.17,1.308 2.6,2.6l2.6,2.35l-2.35,-2.6c-2.19,-2.424 -2.85,-2.968 -2.85,-2.35m-123,18.75c18.81,0.119 49.59,0.119 68.4,0c18.81,-0.12 3.42,-0.218 -34.2,-0.218c-37.62,0 -53.01,0.098 -34.2,0.218m-52.8,38.4c47.85,0.114 126.15,0.114 174,0c47.85,-0.114 8.7,-0.207 -87,-0.207c-95.7,0 -134.85,0.093 -87,0.207m268.068,13.6c5.523,11.077 12.438,34.972 14.526,50.2c0.724,5.28 1.505,10.68 1.736,12c0.55,3.144 0.544,32.9 -0.007,36c-0.235,1.32 -1.007,6.72 -1.717,12c-11.188,83.266 -82.34,154.418 -165.606,165.606c-5.28,0.71 -10.68,1.482 -12,1.717c-3.1,0.551 -32.856,0.557 -36,0.007c-1.32,-0.231 -6.72,-1.012 -12,-1.736c-76.838,-10.537 -142.456,-70.189 -161.914,-147.194c-10.333,-40.896 -5.572,-96.493 11.056,-129.086l1.691,-3.314l179.17,0l179.17,0l1.895,3.8m-113.657,48.774c1.216,0.184 3.016,0.179 4,-0.011c0.984,-0.19 -0.011,-0.34 -2.211,-0.334c-2.2,0.006 -3.005,0.161 -1.789,0.345m-35.016,27.626l-22.395,22.6l22.6,-22.395c21.002,-20.811 22.96,-22.805 22.395,-22.805c-0.113,0 -10.283,10.17 -22.6,22.6m55.807,-11c0.009,1.76 0.172,2.386 0.364,1.391c0.191,-0.995 0.184,-2.435 -0.016,-3.2c-0.201,-0.765 -0.357,0.049 -0.348,1.809m-87.021,42.2l-6.381,6.6l6.6,-6.381c3.63,-3.51 6.6,-6.48 6.6,-6.6c0,-0.584 -0.892,0.251 -6.819,6.381m-43.384,13.797l14.998,15.192l5.002,-5.186l5.003,-5.186l-5.009,4.775l-5.008,4.775l-14.992,-14.781l-14.991,-14.781l14.997,15.192m30.573,-0.997l-3.97,4.2l4.2,-3.97c3.903,-3.689 4.567,-4.43 3.97,-4.43c-0.127,0 -2.017,1.89 -4.2,4.2m-76.968,-0.6c0.009,1.76 0.172,2.386 0.364,1.391c0.191,-0.995 0.184,-2.435 -0.016,-3.2c-0.201,-0.765 -0.357,0.049 -0.348,1.809" id="path0"/>
  <path fill-rule="evenodd" fill="#ffffff" d="m175.2,3.168c-31.385,2.191 -72.019,19.093 -99.128,41.232c-10.649,8.697 -22.581,20.437 -29.272,28.8c-1.76,2.2 -3.382,4.18 -3.605,4.4c-2.563,2.535 -17.207,24.897 -17.789,27.166c-0.137,0.537 57.894,0.804 174.594,0.804c138.042,0 174.744,-0.207 174.533,-0.985c-1.484,-5.487 -18.837,-29.303 -29.692,-40.751c-25.815,-27.225 -52.944,-43.626 -92.212,-55.746c-15.079,-4.654 -49.71,-6.854 -77.429,-4.92m-48.641,45.344c1.187,0.597 3.12,2.347 4.295,3.887l2.136,2.801l67.01,0l67.01,0l2.136,-2.801c6.394,-8.382 20.396,-7.04 25.041,2.401c7.482,15.205 -13.181,28.869 -24.375,16.119l-2.563,-2.919l-67.249,0l-67.249,0l-2.563,2.919c-12.407,14.131 -33.972,-3.523 -22.567,-18.475c4.309,-5.649 12.249,-7.298 18.938,-3.932m211.78,6.173c2.097,2.287 2.461,2.495 2.461,1.407c0,-0.389 -0.99,-1.341 -2.2,-2.115l-2.2,-1.408l1.939,2.116m-319.197,64.629c-16.628,32.593 -21.389,88.19 -11.056,129.086c19.458,77.005 85.076,136.657 161.914,147.194c5.28,0.724 10.68,1.505 12,1.736c3.144,0.55 32.9,0.544 36,-0.007c1.32,-0.235 6.72,-1.007 12,-1.717c83.266,-11.188 154.418,-82.34 165.606,-165.606c0.71,-5.28 1.482,-10.68 1.717,-12c0.551,-3.1 0.557,-32.856 0.007,-36c-0.231,-1.32 -1.012,-6.72 -1.736,-12c-2.088,-15.228 -9.003,-39.123 -14.526,-50.2l-1.895,-3.8l-179.17,0l-179.17,0l-1.691,3.314m256.858,50.346c11.093,4.183 15.358,14.17 10.31,24.143c-2.6,5.135 -100.92,103.246 -105.59,105.365c-3.933,1.784 -9.113,2.062 -13.92,0.748c-5.131,-1.403 -51.772,-48.144 -54.01,-54.127c-4.182,-11.177 3.808,-22.442 16.491,-23.249c9.012,-0.574 10.659,0.464 28.108,17.725c8.464,8.373 15.566,15.069 15.782,14.879c0.217,-0.189 19.212,-19.11 42.211,-42.047c49.027,-48.893 48.035,-48.182 60.618,-43.437m-221.926,169.14c0.72,1.1 1.691,2 2.157,2c0.467,0 0.002,-0.9 -1.031,-2c-1.033,-1.1 -2.004,-2 -2.158,-2c-0.153,0 0.311,0.9 1.032,2" id="path1"/>
  <path fill-rule="evenodd" fill="#94baf2" d="m113.2,49.129c-11.761,5.227 -9.357,22.948 3.481,25.666c5.134,1.087 10.419,-1.305 14.711,-6.658l1.392,-1.737l67.213,0l67.214,0l1.794,2.115c4.477,5.274 9.225,7.358 14.314,6.28c15.195,-3.217 14.564,-25.127 -0.766,-26.6c-5.46,-0.524 -9.299,0.934 -12.303,4.673l-2.518,3.132l-67.771,0l-67.771,0l-2.201,-2.885c-3.656,-4.793 -11.032,-6.544 -16.789,-3.986m-90.431,61.071c-0.84,1.65 -1.657,3.27 -1.815,3.6c-0.158,0.33 80.383,0.6 178.979,0.6c98.597,0 179.267,-0.199 179.267,-0.442c0,-0.242 -0.81,-1.86 -1.8,-3.593l-1.8,-3.153l-175.652,-0.006l-175.652,-0.006l-1.527,3m238.831,60.649c-3.728,1.723 -10.838,8.464 -46.581,44.164l-42.182,42.129l-15.418,-15.285c-8.481,-8.407 -16.583,-15.87 -18.005,-16.585c-8.799,-4.42 -20.052,-0.88 -25.083,7.89c-5.172,9.017 -3.674,11.522 22.869,38.253c29.989,30.202 30.34,30.436 41,27.38c4.653,-1.334 98.79,-93.216 105.84,-103.305c10.082,-14.427 -6.098,-32.194 -22.44,-24.641" id="path2"/>
  <path fill-rule="evenodd" fill="#c0d6f7" d="m114.676,47.812c-0.508,0.324 1.528,0.588 4.524,0.588c2.996,0 5.032,-0.264 4.524,-0.588c-0.508,-0.323 -2.544,-0.587 -4.524,-0.587c-1.98,0 -4.016,0.264 -4.524,0.587m163.324,-0.215c2.035,0.688 8.525,0.973 7.508,0.329c-0.609,-0.386 -2.728,-0.679 -4.708,-0.651c-1.98,0.028 -3.24,0.173 -2.8,0.322m-148.434,5.003c1.486,1.87 2.846,3.4 3.022,3.4c0.566,0 -2.863,-4.502 -4.319,-5.671c-0.773,-0.621 -0.189,0.401 1.297,2.271m165.036,8.6c0.009,1.76 0.172,2.386 0.364,1.391c0.191,-0.995 0.184,-2.435 -0.016,-3.2c-0.201,-0.765 -0.357,0.049 -0.348,1.809m-189.616,0.4c0,1.54 0.164,2.17 0.365,1.4c0.202,-0.77 0.202,-2.03 0,-2.8c-0.201,-0.77 -0.365,-0.14 -0.365,1.4m61.214,5.4c18.59,0.119 49.01,0.119 67.6,0c18.59,-0.12 3.38,-0.218 -33.8,-0.218c-37.18,0 -52.39,0.098 -33.8,0.218m-144.044,43.01c-0.731,1.535 -1.165,2.79 -0.964,2.79c0.548,0 2.976,-4.898 2.61,-5.264c-0.173,-0.174 -0.914,0.94 -1.646,2.474m-2.156,4.59c0,0.33 81,0.6 180,0.6c99,0 180,-0.27 180,-0.6c0,-0.33 -81,-0.6 -180,-0.6c-99,0 -180,0.27 -180,0.6m260.187,58.282c1.202,0.898 3.121,2.776 4.265,4.175c1.143,1.399 1.702,1.782 1.243,0.853c-0.88,-1.784 -6.149,-6.728 -7.123,-6.685c-0.315,0.014 0.412,0.76 1.615,1.657m-46.589,74.118l-49.198,49.4l49.4,-49.198c45.921,-45.732 49.759,-49.602 49.198,-49.602c-0.112,0 -22.342,22.23 -49.4,49.4m-76.798,-5.8c8.131,8.14 14.964,14.8 15.184,14.8c0.22,0 -6.253,-6.66 -14.384,-14.8c-8.131,-8.14 -14.964,-14.8 -15.184,-14.8c-0.22,0 6.253,6.66 14.384,14.8m-33.2,17.2c4.825,4.84 8.953,8.8 9.173,8.8c0.22,0 -3.548,-3.96 -8.373,-8.8c-4.825,-4.84 -8.953,-8.8 -9.173,-8.8c-0.22,0 3.548,3.96 8.373,8.8m46.4,41.6c0.88,0.378 2.32,0.677 3.2,0.664c1.286,-0.019 1.208,-0.149 -0.4,-0.664c-2.735,-0.876 -4.839,-0.876 -2.8,0" id="path3"/>
  <path fill-rule="evenodd" fill="#d9e6fa" d="m166.2,55.8c18.59,0.119 49.01,0.119 67.6,0c18.59,-0.12 3.38,-0.218 -33.8,-0.218c-37.18,0 -52.39,0.098 -33.8,0.218m-53.936,51.2c48.765,0.114 128.325,0.114 176.8,0c48.475,-0.114 8.576,-0.207 -88.664,-0.207c-97.24,0 -136.901,0.093 -88.136,0.207m16.747,115.974c1.216,0.184 3.016,0.179 4,-0.011c0.984,-0.19 -0.011,-0.34 -2.211,-0.334c-2.2,0.006 -3.005,0.161 -1.789,0.345m-12.661,6.026l-2.35,2.6l2.6,-2.35c1.43,-1.292 2.6,-2.462 2.6,-2.6c0,-0.618 -0.66,-0.074 -2.85,2.35m22.45,45.4c12.314,12.32 22.569,22.4 22.789,22.4c0.22,0 -9.675,-10.08 -21.989,-22.4c-12.314,-12.32 -22.569,-22.4 -22.789,-22.4c-0.22,0 9.675,10.08 21.989,22.4" id="path4"/>
 </g>
</svg>