<svg id="svg" version="1.1" width="400" height="400" xmlns="http://www.w3.org/2000/svg" xmlns:xlink="http://www.w3.org/1999/xlink" style="display: block;"><g id="svgg"><path id="path0" d="M263.200 277.000 C 263.946 277.770,264.647 278.400,264.757 278.400 C 264.867 278.400,264.346 277.770,263.600 277.000 C 262.854 276.230,262.153 275.600,262.043 275.600 C 261.933 275.600,262.454 276.230,263.200 277.000 M147.712 296.295 C 148.764 296.377,150.384 296.376,151.312 296.292 C 152.240 296.208,151.380 296.141,149.400 296.142 C 147.420 296.143,146.660 296.212,147.712 296.295 M84.109 311.600 C 84.109 312.590,84.187 312.995,84.282 312.500 C 84.378 312.005,84.378 311.195,84.282 310.700 C 84.187 310.205,84.109 310.610,84.109 311.600 " stroke="none" fill="#ff2400" fill-rule="evenodd"></path><path id="path1" d="M154.700 296.295 C 155.855 296.376,157.745 296.376,158.900 296.295 C 160.055 296.214,159.110 296.148,156.800 296.148 C 154.490 296.148,153.545 296.214,154.700 296.295 M157.505 303.883 C 158.002 303.979,158.722 303.975,159.105 303.875 C 159.487 303.775,159.080 303.696,158.200 303.701 C 157.320 303.705,157.007 303.787,157.505 303.883 " stroke="none" fill="#ff3300" fill-rule="evenodd"></path><path id="path2" d="M204.738 37.004 C 199.048 39.057,196.948 42.212,196.587 49.249 C 196.493 51.092,196.329 53.050,196.223 53.600 C 196.117 54.150,195.914 56.129,195.773 57.999 C 195.632 59.868,195.447 61.758,195.362 62.198 C 194.515 66.596,194.829 67.128,198.418 67.373 C 204.611 67.797,210.717 68.316,217.600 69.003 C 221.782 69.421,233.261 70.380,234.243 70.394 C 234.674 70.400,235.131 67.270,235.441 62.200 C 235.625 59.183,235.934 55.578,236.388 51.148 C 237.017 45.011,233.885 39.371,229.400 38.565 C 229.180 38.525,228.280 38.300,227.400 38.064 C 222.914 36.863,207.171 36.127,204.738 37.004 M145.983 82.137 C 145.882 82.231,144.270 82.410,142.400 82.535 C 140.530 82.661,138.550 82.860,138.000 82.977 C 137.450 83.095,135.650 83.480,134.000 83.833 C 130.297 84.625,124.769 86.562,122.500 87.860 C 121.565 88.396,120.800 88.724,120.800 88.590 C 120.800 88.455,120.218 88.763,119.506 89.273 C 118.794 89.783,117.812 90.410,117.325 90.666 C 114.947 91.917,108.487 98.489,106.381 101.800 C 103.181 106.832,100.891 112.083,100.580 115.103 C 100.023 120.519,99.947 124.470,100.350 127.000 C 101.072 131.531,101.195 132.101,101.898 134.200 C 102.266 135.300,102.590 136.290,102.618 136.400 C 103.699 140.643,111.154 153.039,115.600 157.985 C 116.150 158.597,117.500 160.145,118.600 161.424 C 119.700 162.704,120.937 164.032,121.349 164.375 C 121.761 164.719,122.301 165.234,122.549 165.520 C 125.247 168.634,136.452 179.220,140.838 182.800 C 141.782 183.570,142.834 184.492,143.177 184.850 C 143.520 185.207,146.050 187.329,148.800 189.565 C 151.550 191.800,154.155 193.938,154.589 194.315 C 155.022 194.692,155.673 195.180,156.034 195.400 C 156.611 195.751,158.801 197.536,161.311 199.700 C 161.757 200.085,162.249 200.400,162.403 200.400 C 162.557 200.400,163.126 200.805,163.666 201.300 C 164.207 201.795,165.718 203.053,167.025 204.095 C 168.331 205.137,169.670 206.224,170.000 206.509 C 170.330 206.795,171.470 207.652,172.534 208.414 C 173.597 209.176,175.397 210.520,176.534 211.400 C 177.670 212.280,179.378 213.529,180.330 214.175 C 181.281 214.821,182.451 215.827,182.930 216.410 C 183.408 216.994,186.680 219.422,190.200 221.808 C 195.817 225.614,208.255 234.166,216.000 239.546 C 217.430 240.539,219.685 242.173,221.010 243.176 C 222.336 244.179,224.089 245.450,224.907 246.000 C 225.725 246.550,226.396 247.135,226.397 247.300 C 226.399 247.465,226.625 247.603,226.900 247.606 C 227.175 247.610,227.979 248.105,228.686 248.706 C 229.394 249.308,230.616 250.250,231.403 250.800 C 234.015 252.626,235.792 253.942,236.500 254.575 C 236.885 254.919,237.358 255.200,237.551 255.200 C 237.744 255.200,238.146 255.494,238.444 255.853 C 238.742 256.212,240.339 257.500,241.993 258.715 C 243.647 259.929,245.720 261.524,246.600 262.258 C 247.480 262.993,248.650 263.941,249.200 264.365 C 249.750 264.790,251.001 265.827,251.981 266.669 C 252.960 267.511,254.040 268.424,254.381 268.698 C 254.721 268.972,255.576 269.704,256.281 270.323 C 256.985 270.943,258.602 272.339,259.874 273.425 C 264.327 277.229,274.075 287.474,274.329 288.618 C 274.400 288.938,274.609 289.200,274.793 289.200 C 275.254 289.200,278.665 294.438,280.263 297.600 C 282.969 302.952,282.924 305.133,280.039 308.580 C 278.654 310.234,273.895 314.400,273.390 314.400 C 273.255 314.400,272.392 314.914,271.472 315.542 C 268.814 317.357,257.431 322.396,255.575 322.579 C 255.232 322.613,254.422 322.831,253.775 323.064 C 251.526 323.876,249.521 324.479,248.663 324.603 C 248.188 324.672,246.090 325.176,244.000 325.725 C 241.910 326.273,239.300 326.861,238.200 327.031 C 237.100 327.201,236.110 327.364,236.000 327.393 C 233.591 328.025,231.592 328.397,229.588 328.586 C 228.592 328.680,226.522 328.957,224.988 329.203 C 223.455 329.448,221.480 329.733,220.600 329.834 C 219.720 329.936,218.196 330.122,217.214 330.247 C 216.231 330.372,213.711 330.549,211.614 330.639 C 209.516 330.729,206.540 330.891,205.000 330.998 C 202.095 331.202,179.564 331.194,176.400 330.988 C 175.410 330.924,172.748 330.765,170.483 330.635 C 166.295 330.394,163.866 330.171,161.000 329.764 C 160.120 329.638,158.950 329.475,158.400 329.400 C 157.850 329.325,156.680 329.154,155.800 329.020 C 154.920 328.885,153.660 328.699,153.000 328.606 C 150.124 328.199,146.632 327.543,146.323 327.352 C 146.138 327.238,145.495 327.068,144.893 326.975 C 142.862 326.660,133.809 324.319,132.600 323.797 C 131.940 323.512,129.780 322.700,127.800 321.994 C 123.737 320.544,117.469 317.655,117.267 317.140 C 117.193 316.953,116.803 316.800,116.400 316.800 C 115.997 316.800,115.607 316.665,115.533 316.500 C 115.460 316.335,114.600 315.679,113.621 315.042 C 111.574 313.710,111.468 313.631,109.623 312.071 L 108.246 310.907 109.915 309.854 C 110.833 309.274,111.822 308.800,112.112 308.800 C 112.402 308.800,112.814 308.626,113.027 308.413 C 113.241 308.199,114.103 307.916,114.943 307.782 C 115.784 307.649,117.197 307.283,118.083 306.971 C 118.969 306.658,122.418 306.054,125.747 305.629 C 137.809 304.090,137.550 304.103,168.600 303.387 C 174.320 303.255,179.720 303.083,180.600 303.005 C 181.480 302.927,184.270 302.735,186.800 302.578 C 190.715 302.334,191.988 302.217,192.720 302.031 C 192.787 302.014,192.411 301.415,191.886 300.700 C 191.361 299.985,190.436 298.532,189.831 297.470 C 189.115 296.214,188.536 295.616,188.171 295.756 C 187.672 295.947,172.538 296.219,142.800 296.569 C 132.022 296.696,122.892 297.021,119.800 297.386 C 118.700 297.517,114.650 297.968,110.800 298.389 C 104.002 299.132,96.242 300.677,93.800 301.773 C 93.140 302.069,92.178 302.439,91.662 302.594 C 89.328 303.300,84.477 307.554,85.015 308.424 C 85.143 308.631,85.101 308.800,84.922 308.800 C 84.418 308.800,84.386 313.549,84.874 316.000 C 85.362 318.453,87.817 324.000,88.415 324.000 C 88.627 324.000,88.800 324.226,88.800 324.502 C 88.800 325.181,94.730 331.200,95.399 331.200 C 95.556 331.200,96.341 331.719,97.142 332.354 C 97.944 332.988,99.230 333.794,100.000 334.145 C 100.770 334.497,101.670 334.958,102.000 335.171 C 102.805 335.692,111.104 339.296,111.380 339.246 C 111.500 339.224,112.771 339.648,114.205 340.187 C 115.639 340.727,116.897 341.181,117.002 341.195 C 117.106 341.210,117.418 341.299,117.696 341.393 C 118.660 341.721,123.012 342.870,124.800 343.269 C 125.790 343.490,128.040 344.011,129.800 344.427 C 131.560 344.843,133.720 345.287,134.600 345.415 C 135.480 345.542,136.513 345.738,136.897 345.849 C 137.280 345.961,138.090 346.141,138.697 346.249 C 139.303 346.358,140.605 346.626,141.590 346.845 C 142.574 347.064,144.194 347.324,145.190 347.422 C 146.185 347.520,148.440 347.865,150.200 348.189 C 153.044 348.713,155.663 349.058,162.600 349.822 C 163.700 349.943,165.903 350.225,167.496 350.448 C 169.090 350.671,171.430 350.919,172.696 350.999 C 173.963 351.079,175.786 351.248,176.746 351.375 C 186.959 352.718,222.026 352.974,237.400 351.818 C 244.794 351.262,248.391 350.893,251.200 350.402 C 252.410 350.191,254.570 349.910,256.000 349.779 C 257.430 349.647,259.590 349.299,260.800 349.004 C 262.685 348.545,264.650 348.167,267.200 347.774 C 267.530 347.723,269.600 347.195,271.800 346.602 C 274.000 346.008,276.147 345.454,276.570 345.371 C 277.953 345.098,283.749 343.090,285.901 342.138 C 287.058 341.627,288.048 341.243,288.102 341.286 C 288.246 341.401,293.765 338.703,294.000 338.403 C 294.110 338.262,295.280 337.540,296.600 336.799 C 301.653 333.960,306.781 329.465,309.400 325.580 C 310.060 324.601,310.735 323.740,310.900 323.667 C 311.065 323.593,311.200 323.303,311.200 323.022 C 311.200 322.742,311.645 321.857,312.188 321.056 C 312.731 320.255,313.085 319.600,312.974 319.600 C 312.863 319.600,312.995 319.195,313.267 318.700 C 313.539 318.205,313.805 317.620,313.857 317.400 C 313.910 317.180,314.433 315.656,315.021 314.013 C 316.873 308.831,316.634 297.428,314.550 291.471 C 313.997 289.892,313.364 287.997,313.143 287.261 C 312.922 286.525,312.395 285.355,311.972 284.661 C 311.549 283.967,311.202 283.181,311.201 282.912 C 311.198 281.738,304.911 271.988,301.823 268.366 C 301.150 267.577,299.970 266.139,299.200 265.172 C 296.503 261.782,288.806 253.964,283.028 248.743 C 281.723 247.564,280.230 246.195,279.710 245.700 C 279.189 245.205,278.643 244.800,278.495 244.800 C 278.347 244.800,277.860 244.379,277.413 243.865 C 276.966 243.351,275.155 241.776,273.389 240.365 C 269.548 237.298,269.436 237.205,267.400 235.412 C 266.520 234.638,265.657 234.003,265.483 234.002 C 265.308 234.001,264.678 233.546,264.083 232.990 C 263.487 232.435,262.280 231.490,261.400 230.891 C 260.520 230.292,259.656 229.577,259.480 229.301 C 259.304 229.026,258.966 228.800,258.729 228.800 C 258.491 228.800,257.614 228.215,256.779 227.500 C 254.868 225.863,251.779 223.533,249.084 221.695 C 247.938 220.914,245.237 218.953,243.083 217.337 C 240.928 215.722,239.070 214.400,238.952 214.400 C 238.835 214.400,237.718 213.616,236.470 212.658 C 235.221 211.700,233.615 210.616,232.900 210.248 C 232.185 209.880,231.600 209.393,231.600 209.166 C 231.600 208.939,231.435 208.855,231.234 208.979 C 231.033 209.103,230.808 209.056,230.734 208.874 C 230.660 208.693,226.910 206.051,222.400 203.005 C 217.890 199.959,212.310 196.172,210.000 194.589 C 207.690 193.007,201.660 188.882,196.600 185.422 C 191.540 181.962,187.343 178.976,187.273 178.785 C 187.204 178.595,185.134 176.860,182.673 174.929 C 180.213 172.999,178.020 171.277,177.800 171.105 C 177.580 170.932,176.680 170.237,175.800 169.560 C 172.581 167.083,171.467 166.187,170.840 165.567 C 170.488 165.219,168.670 163.702,166.800 162.195 C 164.014 159.950,159.576 156.193,157.356 154.200 C 157.111 153.980,155.400 152.452,153.555 150.804 C 149.283 146.989,143.397 141.188,141.145 138.574 C 136.652 133.358,135.400 131.846,135.399 131.631 C 135.398 131.504,134.926 130.770,134.349 130.000 C 133.008 128.209,131.133 124.800,131.488 124.800 C 131.638 124.800,131.544 124.584,131.280 124.320 C 127.733 120.773,137.530 116.723,149.000 116.995 C 152.080 117.068,154.600 117.158,154.600 117.194 C 154.600 117.306,156.113 117.531,158.200 117.728 C 159.300 117.833,161.280 118.191,162.600 118.525 C 164.849 119.094,168.134 119.705,168.592 119.639 C 168.705 119.623,169.742 119.950,170.898 120.365 C 172.775 121.040,174.446 121.529,175.887 121.825 C 177.002 122.054,182.344 123.715,184.200 124.408 C 186.616 125.312,189.778 126.348,189.857 126.262 C 189.888 126.228,190.214 122.150,190.582 117.200 C 190.950 112.250,191.599 103.967,192.025 98.794 C 193.054 86.302,193.139 87.392,191.100 86.862 C 188.635 86.222,182.095 84.895,180.000 84.610 C 179.010 84.475,176.220 84.016,173.800 83.588 C 167.941 82.553,146.727 81.446,145.983 82.137 M231.433 101.700 C 231.285 103.955,230.806 110.390,230.371 116.000 C 228.334 142.201,228.328 140.933,230.500 141.581 C 231.435 141.860,232.740 142.373,233.400 142.722 C 234.060 143.070,234.946 143.414,235.369 143.486 C 235.791 143.557,236.331 143.774,236.569 143.966 C 236.806 144.159,239.285 145.227,242.077 146.340 C 244.869 147.454,247.479 148.546,247.877 148.768 C 248.939 149.361,252.311 150.800,252.638 150.800 C 252.793 150.800,253.838 151.238,254.960 151.774 C 257.953 153.203,262.569 155.321,262.800 155.371 C 262.910 155.395,263.855 155.832,264.899 156.342 C 265.944 156.853,267.024 157.317,267.299 157.373 C 267.575 157.430,269.420 158.253,271.400 159.203 C 273.380 160.153,275.135 160.901,275.300 160.865 C 275.465 160.829,275.600 160.991,275.600 161.224 C 275.600 161.457,275.748 161.556,275.928 161.444 C 276.109 161.333,276.834 161.593,277.541 162.022 C 278.247 162.452,279.999 163.336,281.434 163.986 L 284.043 165.169 283.787 159.085 C 283.646 155.738,283.472 152.280,283.399 151.400 C 282.922 145.642,281.727 124.429,281.593 119.366 L 281.508 116.133 279.654 115.207 C 278.634 114.698,277.440 114.100,277.000 113.878 C 275.647 113.196,275.096 112.943,272.200 111.674 C 265.470 108.725,264.677 108.400,264.213 108.400 C 263.944 108.400,263.160 108.119,262.472 107.776 C 261.784 107.433,259.192 106.453,256.711 105.599 C 254.230 104.744,250.085 103.315,247.499 102.422 C 244.913 101.530,242.551 100.800,242.249 100.800 C 241.947 100.800,240.704 100.360,239.488 99.822 C 238.272 99.284,236.944 98.856,236.538 98.871 C 236.132 98.886,235.012 98.606,234.050 98.249 C 233.087 97.892,232.165 97.600,232.001 97.600 C 231.837 97.600,231.582 99.445,231.433 101.700 " stroke="none" fill="#ff4100" fill-rule="evenodd"></path><path id="path3" d="M146.200 144.000 C 147.728 145.540,149.069 146.800,149.179 146.800 C 149.289 146.800,148.128 145.540,146.600 144.000 C 145.072 142.460,143.731 141.200,143.621 141.200 C 143.511 141.200,144.672 142.460,146.200 144.000 M282.901 145.000 C 282.905 145.880,282.987 146.193,283.083 145.695 C 283.179 145.198,283.175 144.478,283.075 144.095 C 282.975 143.713,282.896 144.120,282.901 145.000 M121.970 165.347 C 123.052 166.523,123.266 166.638,122.980 165.891 C 122.872 165.612,122.383 165.138,121.892 164.839 C 121.041 164.320,121.045 164.344,121.970 165.347 M128.778 172.175 C 129.537 172.959,130.225 173.600,130.309 173.600 C 130.655 173.600,128.552 171.235,128.000 171.003 C 127.670 170.864,128.020 171.392,128.778 172.175 M162.900 296.294 C 163.945 296.376,165.655 296.376,166.700 296.294 C 167.745 296.212,166.890 296.144,164.800 296.144 C 162.710 296.144,161.855 296.212,162.900 296.294 M170.100 296.291 C 170.925 296.378,172.275 296.378,173.100 296.291 C 173.925 296.205,173.250 296.134,171.600 296.134 C 169.950 296.134,169.275 296.205,170.100 296.291 M132.245 296.728 C 132.133 296.908,132.573 296.977,133.221 296.882 C 133.870 296.787,134.400 296.640,134.400 296.555 C 134.400 296.250,132.443 296.407,132.245 296.728 M169.905 303.483 C 170.402 303.579,171.122 303.575,171.505 303.475 C 171.887 303.375,171.480 303.296,170.600 303.301 C 169.720 303.305,169.407 303.387,169.905 303.483 M153.900 303.882 C 154.395 303.978,155.205 303.978,155.700 303.882 C 156.195 303.787,155.790 303.709,154.800 303.709 C 153.810 303.709,153.405 303.787,153.900 303.882 M198.705 352.683 C 199.202 352.779,199.922 352.775,200.305 352.675 C 200.687 352.575,200.280 352.496,199.400 352.501 C 198.520 352.505,198.207 352.587,198.705 352.683 M222.305 352.683 C 222.802 352.779,223.522 352.775,223.905 352.675 C 224.287 352.575,223.880 352.496,223.000 352.501 C 222.120 352.505,221.807 352.587,222.305 352.683 " stroke="none" fill="#ff3d00" fill-rule="evenodd"></path><path id="path4" d="M192.993 82.459 C 192.836 83.812,192.721 85.837,192.738 86.959 C 192.755 88.082,192.426 93.320,192.008 98.600 C 191.589 103.880,191.046 111.080,190.801 114.600 C 190.556 118.120,190.106 123.340,189.801 126.200 C 189.496 129.060,188.960 135.630,188.611 140.800 C 188.262 145.970,187.524 156.276,186.971 163.702 C 185.766 179.900,184.691 177.281,195.600 184.739 C 200.110 187.822,205.600 191.577,207.800 193.083 C 210.000 194.590,214.614 197.736,218.053 200.075 L 224.307 204.327 224.536 202.464 C 224.662 201.439,225.040 196.640,225.376 191.800 C 225.712 186.960,226.438 176.520,226.989 168.600 C 227.541 160.680,228.179 150.780,228.408 146.600 C 229.723 122.553,230.937 106.350,232.639 90.094 C 233.014 86.515,233.239 83.505,233.139 83.405 C 233.038 83.305,229.816 82.942,225.978 82.598 C 222.140 82.254,214.230 81.525,208.400 80.978 C 202.570 80.432,196.783 79.988,195.539 79.992 L 193.279 80.000 192.993 82.459 M183.061 219.310 C 182.924 220.460,182.619 224.100,182.381 227.400 C 182.144 230.700,181.489 238.170,180.926 244.000 C 179.546 258.292,179.552 264.369,180.952 270.400 C 183.060 279.481,185.358 287.393,187.692 293.600 C 188.619 296.067,193.047 302.704,193.939 302.963 C 196.241 303.631,198.452 303.658,199.409 303.031 C 200.608 302.245,204.000 299.041,204.000 298.694 C 204.000 298.560,204.832 297.235,205.849 295.750 C 207.645 293.126,212.845 283.056,214.910 278.200 C 218.907 268.805,219.567 266.380,220.025 259.402 C 220.241 256.101,220.650 251.183,220.933 248.473 L 221.447 243.546 220.024 242.440 C 219.241 241.831,217.430 240.525,216.000 239.537 C 198.117 227.179,184.854 218.104,183.755 217.475 C 183.463 217.308,183.223 217.941,183.061 219.310 " stroke="none" fill="#424243" fill-rule="evenodd"></path></g></svg>
