<?xml version="1.0" encoding="UTF-8" standalone="no"?>
<svg
   xmlns:dc="http://purl.org/dc/elements/1.1/"
   xmlns:cc="http://creativecommons.org/ns#"
   xmlns:rdf="http://www.w3.org/1999/02/22-rdf-syntax-ns#"
   xmlns:svg="http://www.w3.org/2000/svg"
   xmlns="http://www.w3.org/2000/svg"
   xmlns:sodipodi="http://sodipodi.sourceforge.net/DTD/sodipodi-0.dtd"
   xmlns:inkscape="http://www.inkscape.org/namespaces/inkscape"
   version="1.0"
   width="2000.000000pt"
   height="2370.000000pt"
   viewBox="0 0 2000.000000 2370.000000"
   preserveAspectRatio="xMidYMid meet"
   id="svg2997"
   inkscape:version="0.48.5 r10040"
   sodipodi:docname="2000px-microsoft_office_2013_logo-svg1.svg">
  <defs
     id="defs3007" />
  <sodipodi:namedview
     pagecolor="#ffffff"
     bordercolor="#666666"
     borderopacity="1"
     objecttolerance="10"
     gridtolerance="10"
     guidetolerance="10"
     inkscape:pageopacity="0"
     inkscape:pageshadow="2"
     inkscape:window-width="1200"
     inkscape:window-height="1867"
     id="namedview3005"
     showgrid="false"
     inkscape:zoom="0.416"
     inkscape:cx="1250"
     inkscape:cy="1481.25"
     inkscape:window-x="1192"
     inkscape:window-y="-8"
     inkscape:window-maximized="1"
     inkscape:current-layer="svg2997" />
  <metadata
     id="metadata2999">
Created by potrace 1.13, written by Peter Selinger 2001-2015
<rdf:RDF>
  <cc:Work
     rdf:about="">
    <dc:format>image/svg+xml</dc:format>
    <dc:type
       rdf:resource="http://purl.org/dc/dcmitype/StillImage" />
  </cc:Work>
</rdf:RDF>
</metadata>
  <g
     transform="translate(0.000000,2370.000000) scale(0.100000,-0.100000)"
     fill="#000000"
     stroke="none"
     id="g3001">
    <path
       d="M6485 21181 l-6300 -2328 -3 -7130 -2 -7131 27 -11 c83 -33 12580 -4522 12593 -4523 12 -1 6608 1982 6813 2048 l47 16 -2 9600 -3 9601 -3415 1093 c-1878 601 -3424 1093 -3435 1093 -11 0 -2855 -1047 -6320 -2328z m6315 -9812 l0 -8301 -27 5 c-16 3 -2843 344 -6283 757 -3440 413 -6263 755 -6273 758 -12 5 670 308 2167 962 l2185 955 3 5625 3 5625 4095 957 c2252 526 4103 957 4113 957 16 1 17 -401 17 -8300z"
       id="path3003" />
  </g>
  <path
     style="fill:#eb3c00;fill-opacity:1;stroke:#eb3c00;stroke-width:2.40384626;stroke-opacity:1"
     d="M 820.33264,2673.8837 C 391.64784,2519.8762 41.301035,2393.4746 41.784229,2392.9914 c 0.483193,-0.4832 202.487341,23.473 448.898101,53.236 650.26287,78.5428 1107.11837,133.5803 1108.82457,133.5803 1.9324,0 0.7174,-2073.65405 -1.2162,-2075.58758 -1.3192,-1.31918 -255.6251,57.39589 -826.65608,190.86144 -107.75241,25.18467 -197.26563,46.29577 -198.91827,46.91356 -2.39443,0.89505 -3.00481,143.86685 -3.00481,703.83318 l 0,702.71 -65.50481,28.5654 c -169.97322,74.122 -405.787379,177.7765 -439.600434,193.2308 -20.656443,9.441 -38.234568,17.1655 -39.062501,17.1655 -0.827933,0 -1.505333,-400.6123 -1.505333,-890.2496 l 0,-890.24958 L 483.77404,437.17231 C 736.62861,343.76661 1091.3904,212.87948 1272.1336,146.31199 l 328.6239,-121.03181 269.9337,85.97792 c 148.4636,47.28786 340.7872,108.67391 427.3857,136.41345 l 157.4519,50.43552 0.5964,1199.14353 0.5964,1199.1436 -411.6541,123.6733 c -226.4097,68.0205 -419.2262,125.9587 -428.481,128.7517 l -16.8269,5.0782 -779.42696,-280.0137 z"
     id="path3804"
     inkscape:connector-curvature="0"
     transform="scale(0.8,0.8)" />
</svg>
