<svg width="707" height="709" xmlns="http://www.w3.org/2000/svg">

 <g>
  <title>background</title>
  <rect fill="none" id="canvas_background" height="711" width="709" y="-1" x="-1"/>
 </g>
 <g>
  <title>Layer 1</title>
  <path id="svg_2" d="m69.260155,9.619896c8.499939,-2.909988 17.569946,-3.409988 26.479858,-3.139999c168.350044,0.01001 336.700142,0.020004 505.050026,-0.009995c9.670105,0.209991 19.550049,-0.910004 28.980103,1.830002c12.549988,2.910004 24.039978,10.87999 30.469971,22.139999c3.960266,6.509995 7,13.910004 7.039795,21.630005c0.1203,5.659988 1.060303,11.279999 0.890259,16.959991c-0.169861,13.229996 0.139832,26.470009 -0.07019,39.699989c-5.649658,-2.869995 -12.119568,-2.929993 -18.309937,-3.029999c-198.319916,0.029999 -396.639755,0.029999 -594.959755,0.029999c-6.190308,0.110016 -12.520203,0.280014 -18.410217,2.410004c-0.369995,-14.709991 0.319946,-29.459999 -0.819916,-44.149986c0.290009,-10.730011 0.549774,-22.130005 6.569977,-31.470001c5.670044,-10.740005 15.510071,-19.190002 27.090027,-22.900009z" fill="#c5c7ca"/>
  <path id="svg_3" d="m186.250092,31.809898c6.490051,-1.75 13.640076,-1.009995 19.500061,2.339996c10.769958,6 15.039978,20.680008 9.709961,31.700012c-3.339966,7.429993 -10.609863,12.87999 -18.700073,13.939987c-10.599915,1.710007 -22.089905,-4.509995 -26,-14.589996c-1.509949,-3.87999 -2.549927,-8.050003 -2.309921,-12.229996c1.060043,-9.720001 8.329987,-18.550003 17.799973,-21.160004z" fill="#fefefe"/>
  <path id="svg_4" d="m504.240143,31.579903c6.15036,-1.410004 12.930023,-0.699997 18.420013,2.529999c5.540222,3.089996 9.320496,8.690002 11.260071,14.619995c1.319885,6.610001 0.830139,13.930008 -2.860046,19.740005c-3.759827,5.990005 -10.159912,10.479996 -17.240051,11.330002c-10.369904,1.599991 -21.670135,-4.199997 -25.819824,-13.949997c-2.160095,-4.950012 -3.410248,-10.580002 -1.940063,-15.889999c1.959869,-8.920013 9.330261,-16.240005 18.179901,-18.380005z" fill="#fefefe"/>
  <path id="svg_5" d="m36.420067,108.139893c5.890015,-2.12999 12.21991,-2.299988 18.410217,-2.410004c198.32,0 396.639839,0 594.959755,-0.029999c6.190369,0.100006 12.660278,0.160004 18.309937,3.029999c11.040039,5.550018 22.350281,13.01001 27.310059,24.800003c-4.75,-5.289993 -8.969849,-11.279984 -15.079956,-15.139969c-8.729431,-5.680023 -19.150146,-8.870026 -29.589722,-8.640015c-198.980194,0.209991 -397.960114,0.089996 -596.940285,0.12999c-10.430176,0.060013 -21.079956,2.430008 -29.830139,8.290009c-5.299866,3.319992 -9.109802,8.409973 -14.059753,12.159988c5.629913,-10.569977 16.239746,-16.859985 26.509888,-22.190002z" fill="#4684ee"/>
  <path id="svg_6" d="m23.969933,118.169907c8.750183,-5.860001 19.399963,-8.229996 29.830139,-8.290009c198.980171,-0.039993 397.960091,0.080002 596.940285,-0.12999c10.439575,-0.230011 20.860291,2.959991 29.589722,8.640015c6.110107,3.859985 10.329956,9.849976 15.079956,15.139969c5.380005,8.970016 7.330383,20.01001 5.349976,30.290009c-0.319946,2.360001 -0.539917,4.740005 -1,7.070007c-0.909668,7.020004 -1.339966,14.12999 -3.050049,21.009995c-0.119629,2.080017 -0.189819,4.170013 -0.229858,6.270004c-0.200195,0.359985 -0.609741,1.080002 -0.820068,1.439987c-2.470093,23.620026 -6.500122,47.070007 -9.209778,70.660004c-1.700256,11.690002 -3.539856,23.370026 -4.700256,35.120026c-0.189941,0.359985 -0.570007,1.079987 -0.769653,1.439972c-0.680176,11.820007 -3.199951,23.460022 -4.290161,35.26001c-0.920044,4.940002 -1.510254,9.940002 -1.999939,14.940002c-0.789978,6.75 -2.170044,13.410004 -2.860107,20.170013c-0.690125,2.679993 -0.76947,5.450012 -0.730164,8.209961c-0.229736,0.340027 -0.679932,1.040039 -0.899597,1.390015c-0.050171,2.100037 -0.119751,4.210022 -0.230164,6.320007c-1.059509,4.299988 -1.599915,8.710022 -1.950073,13.130005c-45.760132,-0.030029 -91.520142,0.080017 -137.269714,0.030029c-5.360291,0.019958 -10.730347,0.22998 -16.080383,-0.210022c-1.479858,-0.150024 -2.949799,-0.299988 -4.419769,-0.450012c0.109741,-50.070007 0.140228,-100.149994 -0.020325,-150.220001c-7.489746,-0.019989 -14.259766,3.399994 -21.199768,5.709991c-22.149963,7.820007 -44.310059,15.630005 -66.460022,23.450012c-8.330017,2.98999 -16.80011,5.610016 -25.020081,8.910004c0.130066,11.320007 0.020081,22.639984 0.069977,33.970001c24.970001,-8.420013 49.950104,-16.809998 74.910004,-25.230011c0.170105,34.700012 -0.089966,69.389984 0.170105,104.089996c-8.280029,-0.709961 -16.590088,-0.269958 -24.879944,-0.380005c-25.340088,-0.159973 -50.670044,-0.070007 -76.010071,-0.049988c-21.350098,0.169983 -42.730133,-0.5 -64.070038,0.27002c-3.250031,-1.410034 -6.550018,-2.679993 -9.880035,-3.880005c17.950073,-8.179993 33.829956,-22.429993 41.140106,-41.040009c5.20993,-12.700012 4.96994,-26.860016 2.880005,-40.209991c-2.510071,-15.240021 -8.990021,-30.119995 -20,-41.140015c-14.309967,-14.709991 -34.740051,-22.059998 -54.899963,-23.589996c-12.040024,-1.369995 -24.280121,-0.5 -36.100052,2.040009c-19.350006,4.47998 -37.729935,14.850006 -50.020126,30.660004c-6.879913,8.690002 -11.699921,18.970001 -14.189911,29.75c-1.360046,5.839996 -1.580078,11.839996 -2.210083,17.779999c12.199982,0.23999 24.400085,0.169983 36.599976,0.039978c-0.189941,-14.429993 5.350067,-29.25 16.480225,-38.73999c10.679932,-9.350006 25.349915,-12.809998 39.27002,-12.339996c13.989746,0.070007 29.059814,4.029999 38.539825,14.959991c9.630127,10.970001 12.230011,26.309998 11.650085,40.480011c-0.380127,13.639984 -6.420074,27.379974 -17.450104,35.689972c-8.289917,6.400024 -18.470093,9.910034 -28.750061,11.440002c-12.75972,1.840027 -25.67984,0.700012 -38.519775,1.200012c-0.03009,5.77002 -0.049988,11.549988 0.059906,17.330017c0.080048,3.589966 0.080048,7.190002 -0.069916,10.779968c-0.500061,-3.759949 -0.660034,-7.549988 -0.700012,-11.339966c-49.910187,-0.350037 -99.820076,0.029968 -149.730049,-0.160034c-12.110168,0.059998 -24.230042,-0.069946 -36.340149,0.080017c-0.239868,-4.309998 -0.98996,-8.559998 -1.77002,-12.789978c-0.469849,-5.350037 -1.119873,-10.670044 -1.949951,-15.960022c-0.799927,-6.73999 -2.089966,-13.410004 -2.889893,-20.149994c-0.480286,-4.980011 -1.049988,-9.959991 -1.97998,-14.889984c-2.660278,-21.080017 -5.670013,-42.120026 -8.450195,-63.190002c-0.379883,-2.900024 -0.849854,-5.779999 -1.299927,-8.660004c-2.520081,-21.190002 -5.949951,-42.26001 -8.449829,-63.460037c-0.390137,-2.279984 -0.690033,-4.589981 -1.040161,-6.86998c-0.439941,-2.679993 -0.679932,-5.38002 -0.869995,-8.080002c-1.569946,-6.899979 -2.109985,-13.979996 -2.949951,-20.98999c-0.48999,-2.360016 -0.710083,-4.759995 -1,-7.150009c-1.070068,-5.089996 -0.929901,-10.380005 -0.080078,-15.48999c1.020172,-6.26001 3.709961,-12.020004 6.679962,-17.549988c0.110077,-0.100006 0.34021,-0.280014 0.460175,-0.370026c4.949951,-3.750015 8.759888,-8.839996 14.059753,-12.159988z" fill="#3665d0"/>
  <path id="svg_7" d="m489.030182,261.109894c6.940002,-2.309998 13.710022,-5.72998 21.199768,-5.709991c0.160553,50.070007 0.130066,100.149994 0.020325,150.220001l-0.010132,0.849976c-12.509918,0.01001 -25.040222,0.340027 -37.539978,-0.169983c-0.260071,-34.700012 0,-69.389984 -0.170105,-104.089996c-24.9599,8.420013 -49.940002,16.809998 -74.910004,25.230011c-0.049896,-11.330017 0.060089,-22.649994 -0.069977,-33.970001c8.219971,-3.299988 16.690063,-5.920013 25.020081,-8.910004c22.149963,-7.820007 44.310059,-15.630005 66.460022,-23.450012z" fill="#c5c7ca"/>
  <path id="svg_8" d="m230.880173,258.319916c11.819931,-2.540009 24.060028,-3.410004 36.100052,-2.040009c20.159912,1.529999 40.589996,8.880005 54.899963,23.589996c11.009979,11.02002 17.489929,25.899994 20,41.140015c2.089935,13.349976 2.329926,27.509979 -2.880005,40.209991c-7.31015,18.610016 -23.190033,32.860016 -41.140106,41.040009c3.330017,1.200012 6.630005,2.469971 9.880035,3.880005l1.129974,0.570007c-28.829834,-0.360046 -57.689774,-0.030029 -86.529938,-0.140015c-0.109894,-5.780029 -0.089996,-11.559998 -0.059906,-17.330017c12.839935,-0.5 25.760056,0.640015 38.519775,-1.200012c10.279968,-1.529968 20.460144,-5.039978 28.750061,-11.440002c11.030029,-8.309998 17.069977,-22.049988 17.450104,-35.689972c0.579926,-14.170013 -2.019958,-29.51001 -11.650085,-40.480011c-9.480011,-10.929993 -24.550079,-14.889984 -38.539825,-14.959991c-13.920105,-0.470001 -28.590088,2.98999 -39.27002,12.339996c-11.130157,9.48999 -16.670166,24.309998 -16.480225,38.73999c-12.19989,0.130005 -24.399994,0.200012 -36.599976,-0.039978c0.630005,-5.940002 0.850037,-11.940002 2.210083,-17.779999c2.48999,-10.779999 7.309998,-21.059998 14.189911,-29.75c12.290192,-15.809998 30.67012,-26.180023 50.020126,-30.660004z" fill="#c5c7ca"/>
  <path id="svg_9" d="m35.500023,405.929901c12.110107,-0.149963 24.22998,-0.02002 36.340149,-0.080017c49.909973,0.190002 99.819862,-0.190002 149.730049,0.160034c0.039978,3.789978 0.199951,7.580017 0.700012,11.339966c11.839905,0.100037 23.699966,-0.219971 35.540039,0.210022c15.209961,1.210022 31.22998,5.970032 41.719879,17.669983c10.419983,11.470032 13.299988,27.830017 12.04007,42.840027c-0.880188,13.950012 -6.280151,28.27002 -17.400085,37.230011c-12.629974,10.090027 -29.609955,12.859985 -45.359863,11.669983c-14.980072,-1.149963 -30.300049,-7.049988 -39.920044,-19.009979c-7.490128,-9.130005 -10.430115,-21.130005 -10.630005,-32.740051c-12.000076,0.040039 -24.000076,-0.039978 -36.000076,0.050049c0.759964,9.369995 1.640091,18.849976 4.939957,27.72998c5.76001,16.960052 18.45993,31.080048 34.000092,39.749969c18.01004,10.070068 39.029938,14.090088 59.529999,13.140015c20.379852,-0.859924 41.019897,-6.890015 57.2099,-19.630005c14.339966,-11.189941 24.090088,-27.769989 27.549988,-45.569977c3.630035,-18.330017 2.789978,-38.340027 -6.23999,-55.049988c-6.529968,-12.76001 -17.840027,-22.369995 -30.380005,-28.929993l-1.129974,-0.570007c21.339905,-0.77002 42.71994,-0.100037 64.070038,-0.27002c25.340027,-0.02002 50.669983,-0.109985 76.010071,0.049988c8.289856,0.110046 16.599915,-0.329956 24.879944,0.380005c0.629883,18.549988 0.109985,37.130005 0.279846,55.690002c0.020355,31.419983 -0.039856,62.830048 0.020355,94.23996c12.389801,-0.099976 24.779938,-0.039917 37.179779,-0.029968c0.029968,-49.910004 -0.090027,-99.819977 0.059998,-149.730011l0.010132,-0.849976c1.469971,0.150024 2.939911,0.299988 4.419769,0.450012c6.01001,0.719971 12.070251,0.299988 18.110229,0.339966c45.140076,0.059998 90.269653,-0.059998 135.409729,-0.009949c-0.069763,3.889954 -0.15979,7.809998 0.519958,11.659973c0.820068,4.369995 0.140442,8.849976 0.78009,13.23999c1.160278,6.169983 0.230164,12.51001 1.510254,18.690002c-0.070129,7.970032 1.189697,15.840027 1.419739,23.799988c1.350098,5.650024 -0.179932,11.570007 1.450195,17.170044c0.229736,5.699951 0,11.429993 1.030029,17.070007c-0.070129,8.040009 1.289734,15.96994 1.319824,24.009979c1.230225,5.929993 0.309937,12.02002 1.399902,17.970032c0.6698,4.359985 0,8.820007 0.800049,13.179993c0.930115,4.699951 0.140015,9.529907 0.950073,14.26001c0.900146,4.849976 0.189941,9.839905 1.129883,14.699951c0.840271,4.700012 -0.049744,9.5 0.760254,14.199951c1.069824,4.940002 0.190002,10.0401 1.069824,15c0.930176,5.0401 0.099976,10.210083 1.039917,15.250061c0.780151,4.419983 0.110107,8.929993 0.819946,13.360046c1.68042,8.799927 -0.019775,18.070007 -3.910034,26.070007c-2.959839,3.69989 -5.939697,7.389954 -8.869812,11.119934c-4.759766,5.47998 -11.329468,8.960022 -17.829834,11.949951c-12.290283,5.040039 -25.81012,3.020081 -38.729858,3.410034c-169.350281,-0.059937 -338.710297,0.119995 -508.070229,0.090027c-12.320129,0.019958 -24.630188,-0.070007 -36.94989,0.080017c-6.040039,0.069946 -12.110168,-0.719971 -17.840149,-2.680054c-7.389984,-2.27002 -13.169861,-7.650024 -19.990112,-11.069946c-10.45993,-10.380005 -15.130005,-26.380005 -12.410034,-40.839966c0.330231,-3.650024 -0.019867,-7.330078 0.530151,-10.960083c0.949707,-5.339966 0.279785,-10.809937 1.299927,-16.140015c0.490112,-5.669922 0.079956,-11.389954 1.180084,-17.01001c-0.28006,-7.699951 1.230103,-15.269958 1.179901,-22.959961c0.900024,-5.290039 0.719971,-10.649963 1.150177,-15.969971c0.95993,-4.649963 0.449799,-9.400024 0.939789,-14.080017c1.170044,-6.250061 0.290039,-12.659973 1.520142,-18.909973c0.039917,-7.73999 1.479858,-15.359985 1.26001,-23.100006c0.909912,-5.280029 0.859894,-10.619995 1.019897,-15.950012c1.220093,-6.609985 0.48999,-13.359985 1.679932,-19.970032c-0.069885,-8.419983 1.510132,-16.709961 1.280029,-25.139954c1.57019,-4.850037 0.230103,-10 1.220093,-14.930054c0.980133,-4.919983 0.140015,-9.97998 1.060059,-14.899963c0.659943,-4.01001 0.509888,-8.090027 0.589844,-12.140015z" fill="#4684ee"/>
  <path id="svg_10" d="m472.700165,406.299896c12.499756,0.51001 25.03006,0.179993 37.539978,0.169983c-0.150024,49.910034 -0.030029,99.820007 -0.059998,149.730011c-12.399841,-0.009949 -24.789978,-0.070007 -37.179779,0.029968c-0.060211,-31.409912 0,-62.819977 -0.020355,-94.23996c-0.169861,-18.559998 0.350037,-37.140015 -0.279846,-55.690002z" fill="#fefefe"/>
  <path id="svg_11" d="m222.340149,406.569916c28.840164,0.109985 57.700104,-0.220032 86.529938,0.140015c12.539978,6.559998 23.850037,16.169983 30.380005,28.929993c9.029968,16.709961 9.870026,36.719971 6.23999,55.049988c-3.4599,17.799988 -13.210022,34.380035 -27.549988,45.569977c-16.190002,12.73999 -36.830048,18.770081 -57.2099,19.630005c-20.500061,0.950073 -41.519958,-3.069946 -59.529999,-13.140015c-15.540161,-8.669922 -28.240082,-22.789917 -34.000092,-39.749969c-3.299866,-8.880005 -4.179993,-18.359985 -4.939957,-27.72998c12,-0.090027 24,-0.01001 36.000076,-0.050049c0.19989,11.610046 3.139877,23.610046 10.630005,32.740051c9.619995,11.959991 24.939972,17.860016 39.920044,19.009979c15.749908,1.190002 32.729889,-1.579956 45.359863,-11.669983c11.119934,-8.959991 16.519897,-23.279999 17.400085,-37.230011c1.259918,-15.01001 -1.620087,-31.369995 -12.04007,-42.840027c-10.489899,-11.699951 -26.509918,-16.459961 -41.719879,-17.669983c-11.840073,-0.429993 -23.700134,-0.109985 -35.540039,-0.210022c0.149963,-3.589966 0.149963,-7.190002 0.069916,-10.779968z" fill="#fefefe"/>
  <path id="svg_12" d="m671.410095,687.149902c2.930115,-3.72998 5.909973,-7.420044 8.869812,-11.119934c-2.139893,5.749939 -6.529846,10.109924 -9.759705,15.189941c-3.770142,2.360046 -7.020203,5.460022 -10.840149,7.740051c-5.159851,3.279907 -11.190002,4.729919 -17.079407,6.099976c-4.570435,0.869995 -9.240662,0.469971 -13.850281,0.51001c-154.980316,0 -309.960114,0 -464.930267,0c-33.779846,-0.090088 -67.570076,0.159912 -101.350105,-0.130005c-6.299866,-1.800049 -13,-2.840027 -18.569763,-6.51001c-4.310242,-2.869995 -8.81012,-5.760071 -11.900208,-10c6.820251,3.419922 12.600128,8.799927 19.990112,11.069946c5.72998,1.960083 11.80011,2.75 17.840149,2.680054c12.319702,-0.150024 24.629761,-0.060059 36.94989,-0.080017c169.359932,0.029968 338.719948,-0.149963 508.070229,-0.090027c12.919739,-0.389954 26.439575,1.630005 38.729858,-3.410034c6.500366,-2.989929 13.070068,-6.469971 17.829834,-11.949951z" fill="#3665d0"/>
 </g>
</svg>