<?xml version="1.0" encoding="UTF-8" standalone="no"?>
<svg width="80px" height="80px" viewBox="0 0 80 80" version="1.1" xmlns="http://www.w3.org/2000/svg" xmlns:xlink="http://www.w3.org/1999/xlink">
    <!-- Generator: Sketch 39.1 (31720) - http://www.bohemiancoding.com/sketch -->
    <title>defaultIntegration</title>
    <desc>Created with Sketch.</desc>
    <defs></defs>
    <g id="icons" stroke="none" stroke-width="1" fill="none" fill-rule="evenodd">
        <g id="defaultIntegration">
            <circle id="Oval" fill="#3498DB" cx="40" cy="40" r="40"></circle>
            <path d="M69.3779297,49.9758113 C69.3779297,51.5984156 68.932221,52.9505655 68.0407903,54.0323017 C67.1493595,55.1140379 65.9123927,55.6548978 64.3298528,55.6548978 C63.5085346,55.6548978 62.7323003,55.4796191 62.0011268,55.1290565 C61.2699533,54.7784938 60.6790137,54.3978887 60.2282903,53.9872296 C59.7775669,53.5765705 59.2116671,53.1959653 58.5305739,52.8454026 C57.8494808,52.49484 57.1383501,52.3195613 56.3971605,52.3195613 C54.1936238,52.3195613 53.091872,53.5615361 53.091872,56.0455228 C53.091872,56.8267767 53.2521268,57.9786082 53.5726412,59.5010517 C53.8931556,61.0234952 54.0433945,62.1753266 54.0233624,62.9565805 L54.0233624,63.1068209 C53.582655,63.1068209 53.2521295,63.1168368 53.0317758,63.136869 C52.3506827,63.1969654 51.37413,63.3121486 50.1020883,63.4824219 C48.8300467,63.6526952 47.6732073,63.7879102 46.6315355,63.8880709 C45.5898636,63.9882317 44.6083029,64.0383113 43.6868239,64.0383113 C42.4648627,64.0383113 41.4332224,63.7728893 40.591872,63.2420373 C39.7505216,62.7111852 39.3298528,61.8748555 39.3298528,60.7330228 C39.3298528,59.9918332 39.5051315,59.2807025 39.8556941,58.5996094 C40.2062568,57.9185162 40.5868619,57.3526164 40.997521,56.901893 C41.4081801,56.4511696 41.7887853,55.86023 42.139348,55.1290565 C42.4899106,54.397883 42.6651893,53.6216487 42.6651893,52.8003305 C42.6651893,51.2177906 42.1243293,49.9808238 41.0425931,49.089393 C39.960857,48.1979623 38.608707,47.7522536 36.9861028,47.7522536 C35.303402,47.7522536 33.8711247,48.2079782 32.6892278,49.1194411 C31.5073308,50.030904 30.9163912,51.3079345 30.9163912,52.9505709 C30.9163912,53.8119534 31.0666301,54.6432752 31.3671124,55.4445613 C31.6675947,56.2458474 32.0031282,56.8918745 32.373723,57.3826623 C32.7443178,57.87345 33.0798513,58.404294 33.3803335,58.9752103 C33.6808158,59.5461267 33.8310547,60.0519309 33.8310547,60.4926382 C33.8310547,61.394085 33.3703221,62.2855024 32.4488431,63.1669171 C31.7076535,63.8680424 30.5357903,64.2185998 28.9332181,64.2185998 C27.0301638,64.2185998 24.576262,63.9782175 21.5714393,63.4974459 C21.3911499,63.4573816 21.115712,63.4173179 20.7451172,63.3772536 C20.3745224,63.3371893 20.0990844,63.2971256 19.9187951,63.2570613 L19.5281701,63.1969651 C19.5081379,63.1969651 19.4780901,63.1869492 19.4380258,63.1669171 C19.3979615,63.1669171 19.3779297,63.1569011 19.3779297,63.136869 L19.3779297,32.3676382 C19.417994,32.3876704 19.5932727,32.4227261 19.903771,32.4728065 C20.2142694,32.5228869 20.5548108,32.5729665 20.9254056,32.6230469 C21.2960005,32.6731273 21.5113428,32.708183 21.5714393,32.7282151 C24.576262,33.2089868 27.0301638,33.449369 28.9332181,33.449369 C30.5357903,33.449369 31.7076535,33.0988116 32.4488431,32.3976863 C33.3703221,31.5162716 33.8310547,30.6248543 33.8310547,29.7234075 C33.8310547,29.2827001 33.6808158,28.7768959 33.3803335,28.2059796 C33.0798513,27.6350633 32.7443178,27.1042192 32.373723,26.6134315 C32.0031282,26.1226438 31.6675947,25.4766166 31.3671124,24.6753305 C31.0666301,23.8740445 30.9163912,23.0427227 30.9163912,22.1813401 C30.9163912,20.5387037 31.5073308,19.2616732 32.6892278,18.3502103 C33.8711247,17.4387474 35.313418,16.9830228 37.0161508,16.9830228 C38.618723,16.9830228 39.960857,17.4287315 41.0425931,18.3201623 C42.1243293,19.211593 42.6651893,20.4485598 42.6651893,22.0310998 C42.6651893,22.852418 42.4899106,23.6286522 42.139348,24.3598257 C41.7887853,25.0909992 41.4081801,25.6819389 40.997521,26.1326623 C40.5868619,26.5833857 40.2062568,27.1492855 39.8556941,27.8303786 C39.5051315,28.5114718 39.3298528,29.2226025 39.3298528,29.9637921 C39.3298528,31.1056247 39.7505216,31.9419545 40.591872,32.4728065 C41.4332224,33.0036585 42.4648627,33.2690805 43.6868239,33.2690805 C44.9688816,33.2690805 46.7717482,33.1188416 49.0954778,32.8183594 C51.4192073,32.5178771 53.0518032,32.3476064 53.9933143,32.3075421 L53.9933143,32.3676382 C53.9732822,32.4077025 53.9382264,32.5829812 53.888146,32.8934796 C53.8380657,33.2039779 53.787986,33.5445194 53.7379056,33.9151142 C53.6878253,34.285709 53.6527695,34.5010514 53.6327374,34.5611478 C53.1519657,37.5659706 52.9115835,40.0198723 52.9115835,41.9229267 C52.9115835,43.5254988 53.2621409,44.6973621 53.9632662,45.4385517 C54.8446809,46.3600306 55.7360983,46.8207632 56.6375451,46.8207632 C57.0782524,46.8207632 57.5840566,46.6705243 58.154973,46.3700421 C58.7258893,46.0695598 59.2567333,45.7340263 59.747521,45.3634315 C60.2383087,44.9928367 60.8843359,44.6573032 61.685622,44.3568209 C62.4869081,44.0563386 63.3182299,43.9060998 64.1796124,43.9060998 C65.8222488,43.9060998 67.0992793,44.4970394 68.0107422,45.6789363 C68.9222051,46.8608332 69.3779297,48.2931106 69.3779297,49.9758113 L69.3779297,49.9758113 Z" id="" fill="#FFFFFF" transform="translate(44.377930, 40.600811) rotate(-300.000000) translate(-44.377930, -40.600811) "></path>
        </g>
    </g>
</svg>