<?xml version="1.0" standalone="no"?>
<!DOCTYPE svg PUBLIC "-//W3C//DTD SVG 20010904//EN"
 "http://www.w3.org/TR/2001/REC-SVG-20010904/DTD/svg10.dtd">
<svg version="1.0" xmlns="http://www.w3.org/2000/svg"
 width="600.000000pt" height="600.000000pt" viewBox="0 0 600.000000 600.000000"
 preserveAspectRatio="xMidYMid meet">
<metadata>
Created by potrace 1.13, written by Peter Selinger 2001-2015
</metadata>
<g transform="translate(0.000000,600.000000) scale(0.100000,-0.100000)"
fill="#000000" stroke="none">
<path d="M2655 5614 c-359 -48 -700 -168 -1013 -354 -343 -204 -698 -558 -902
-902 -251 -422 -373 -865 -373 -1358 0 -493 122 -936 373 -1358 204 -344 558
-698 902 -902 422 -251 865 -373 1358 -373 493 0 936 122 1358 373 344 204
698 558 902 902 251 422 373 865 373 1358 0 493 -122 936 -373 1358 -204 344
-558 698 -902 902 -316 188 -660 308 -1021 355 -148 19 -539 19 -682 -1z m569
-1004 c39 -6 72 -13 75 -15 3 -3 -13 -24 -35 -48 -22 -23 -52 -57 -67 -75
l-27 -33 -182 -3 c-147 -2 -202 -7 -282 -25 -281 -64 -513 -190 -707 -381
-127 -126 -207 -236 -285 -395 -104 -212 -146 -395 -146 -630 -1 -399 150
-755 435 -1032 165 -160 334 -263 546 -333 157 -52 285 -72 456 -72 234 -1
418 42 630 146 160 79 271 159 395 285 257 260 393 580 407 957 l6 161 27 16
c15 9 51 37 79 63 29 26 55 43 59 39 4 -3 7 -109 6 -233 0 -250 -12 -327 -74
-515 -253 -755 -1025 -1215 -1811 -1081 -804 138 -1389 868 -1345 1678 43 771
598 1389 1366 1521 91 16 379 18 474 5z m845 -143 c6 -9 12 -83 13 -198 l3
-184 184 -3 c115 -1 189 -7 198 -13 8 -8 13 -35 13 -80 0 -57 -3 -70 -19 -79
-12 -6 -95 -10 -200 -10 l-181 0 0 -190 c0 -177 -1 -190 -19 -200 -30 -15
-113 -12 -139 6 -21 15 -22 20 -22 200 l0 184 -184 0 c-180 0 -185 1 -200 22
-18 26 -21 109 -6 139 10 18 23 19 200 19 l190 0 0 181 c0 105 4 188 10 200 9
16 22 19 79 19 45 0 72 -5 80 -13z m-1007 -609 c13 -11 22 -83 47 -413 17
-220 31 -412 31 -427 0 -20 49 -86 195 -264 107 -130 195 -245 195 -255 0 -26
-60 -91 -79 -86 -19 5 -537 405 -565 436 -12 14 -21 40 -23 74 -6 84 63 915
77 932 15 19 99 20 122 3z"/>
</g>
</svg>
