<?xml version="1.0" encoding="UTF-8" standalone="no"?>
<svg width="100" height="100" viewBox="0 0 100 100" version="1.1" xmlns="http://www.w3.org/2000/svg" xmlns:xlink="http://www.w3.org/1999/xlink" preserveAspectRatio="xMidYMid">
    <defs>
        <radialGradient cx="50%" cy="54.6521962%" fx="50%" fy="54.6521962%" r="66.2633343%" id="radialGradient-1">
            <stop stop-color="#FFB900" offset="0%"></stop>
            <stop stop-color="#F95D8F" offset="60%"></stop>
            <stop stop-color="#F95353" offset="99.91%"></stop>
        </radialGradient>
    </defs>
	<g>
		<path fill="url(#radialGradient-1)" d="m76.73256,52.35781c-11.62555,0 -21.04825,9.42306 -21.04825,21.04751c0,11.62517 9.4227,21.04896 21.04825,21.04896c11.62408,0 21.0475,-9.42379 21.0475,-21.04896c0,-11.62445 -9.42342,-21.04751 -21.0475,-21.04751l0,0zm-54.68468,0.00146c-11.62407,0 -21.04788,9.4216 -21.04788,21.04714c0,11.62408 9.42381,21.04787 21.04788,21.04787c11.62482,0 21.04898,-9.42379 21.04898,-21.04787c0,-11.62554 -9.42416,-21.04714 -21.04898,-21.04714l0,0zm48.38948,-26.31176c0,11.62445 -9.4227,21.0497 -21.04677,21.0497c-11.62518,0 -21.04825,-9.42525 -21.04825,-21.0497c0,-11.62372 9.42307,-21.04751 21.04825,-21.04751c11.62407,0 21.04677,9.42379 21.04677,21.04751l0,0z"/>
	</g>
</svg>
