<?xml version="1.0" encoding="utf-8"?>
<!-- Generator: Adobe Illustrator 16.0.0, SVG Export Plug-In . SVG Version: 6.00 Build 0)  -->
<!DOCTYPE svg PUBLIC "-//W3C//DTD SVG 1.1//EN" "http://www.w3.org/Graphics/SVG/1.1/DTD/svg11.dtd">
<svg version="1.1" id="Layer_1" xmlns="http://www.w3.org/2000/svg" xmlns:xlink="http://www.w3.org/1999/xlink" x="0px" y="0px"
	 width="30px" height="30px" viewBox="0 0 30 30" enable-background="new 0 0 30 30" xml:space="preserve">
<g>
	<path fill="#49C0EE" d="M13.228,19.758c-1.228,0-2.367-0.369-3.321-0.996c1.082,1.639,2.938,2.725,5.05,2.725
		c3.34,0,6.047-2.706,6.047-6.047c0-2.112-1.085-3.967-2.727-5.048c0.631,0.953,0.998,2.093,0.998,3.32
		C19.275,17.051,16.568,19.758,13.228,19.758 M16.684,4.206c3.14,0,6.016,1.117,8.258,2.972c-2.377-2.87-5.967-4.7-9.985-4.7
		C7.801,2.479,2,8.281,2,15.435c0,4.02,1.83,7.608,4.699,9.987c-1.856-2.244-2.972-5.119-2.972-8.26
		C3.727,10.005,9.529,4.206,16.684,4.206 M7.215,14.333c-0.021-0.205-0.033-0.411-0.033-0.624c0-0.014,0.001-0.027,0.001-0.043
		c0.012-2.165,0.752-4.155,1.979-5.75c-2.25,1.74-3.708,4.458-3.708,7.522c0,5.246,4.255,9.501,9.501,9.501
		c3.064,0,5.781-1.457,7.52-3.711c-1.604,1.237-3.608,1.981-5.791,1.981C11.647,23.211,7.538,19.291,7.215,14.333"/>
	<path fill="#DDE3F3" d="M22.699,16.539c0.021,0.209,0.031,0.416,0.031,0.625c0,0.041-0.004,0.078-0.006,0.115
		c-0.024,2.139-0.761,4.102-1.976,5.678c2.25-1.736,3.709-4.455,3.709-7.519c0-5.249-4.253-9.5-9.501-9.5
		c-3.064,0-5.781,1.456-7.519,3.709c1.604-1.237,3.609-1.981,5.791-1.981C18.268,7.664,22.375,11.587,22.699,16.539 M23.213,5.451
		c1.855,2.244,2.973,5.12,2.973,8.258c0,6.827-5.281,12.405-11.978,12.907c-0.32,0.032-0.649,0.053-0.98,0.053
		c-0.045,0-0.09-0.008-0.135-0.008c-3.083-0.033-5.912-1.138-8.122-2.968c2.377,2.871,5.968,4.699,9.985,4.699
		c7.155,0,12.957-5.799,12.957-12.956C27.914,11.417,26.083,7.828,23.213,5.451 M16.684,11.12c1.229,0,2.371,0.368,3.322,0.996
		c-1.081-1.639-2.938-2.724-5.05-2.724c-3.34,0-6.046,2.708-6.046,6.045c0,2.112,1.083,3.969,2.724,5.049
		c-0.63-0.951-0.997-2.094-0.997-3.322C10.638,13.826,13.345,11.12,16.684,11.12"/>
</g>
</svg>
