<?xml version="1.0" standalone="no"?>
<!DOCTYPE svg PUBLIC "-//W3C//DTD SVG 20010904//EN"
 "http://www.w3.org/TR/2001/REC-SVG-20010904/DTD/svg10.dtd">
<svg version="1.0" xmlns="http://www.w3.org/2000/svg"
 width="560.000000pt" height="560.000000pt" viewBox="0 0 560.000000 560.000000"
 preserveAspectRatio="xMidYMid meet">

<g transform="translate(0.000000,560.000000) scale(0.100000,-0.100000)"
fill="#000000" stroke="none">
<path d="M2571 4839 c-733 -82 -1363 -527 -1676 -1182 -487 -1021 -73 -2233
941 -2749 60 -31 154 -72 209 -93 116 -43 165 -43 202 0 22 25 23 33 23 242
l0 215 -27 -6 c-16 -4 -86 -9 -158 -12 -152 -7 -232 7 -328 59 -95 50 -147
110 -211 239 -61 126 -113 194 -190 251 -111 83 -131 118 -78 138 107 42 291
-57 387 -207 106 -165 229 -232 404 -221 108 7 211 40 211 68 0 39 43 145 81
201 45 66 57 56 -99 83 -497 85 -752 358 -803 858 -26 260 24 468 158 647 l48
65 -17 65 c-33 127 -16 355 34 465 12 27 14 27 78 22 119 -10 299 -82 454
-181 l52 -33 110 23 c278 59 557 59 838 0 l110 -23 52 33 c156 100 335 171
455 181 65 6 66 5 77 -23 52 -128 67 -336 34 -464 l-17 -65 48 -65 c133 -178
183 -380 158 -641 -26 -270 -105 -461 -253 -609 -134 -134 -348 -228 -600
-262 -49 -7 -88 -16 -88 -19 0 -4 11 -20 24 -36 39 -47 74 -125 90 -206 13
-61 16 -145 16 -416 0 -338 0 -340 23 -366 37 -43 86 -43 202 0 881 329 1436
1218 1344 2151 -92 937 -802 1691 -1744 1855 -139 24 -440 33 -574 18z"/>
<path d="M1437 1883 c-19 -18 19 -48 43 -33 11 7 11 11 1 24 -14 17 -33 21
-44 9z"/>
<path d="M1525 1810 c-12 -20 6 -50 31 -50 29 0 31 20 6 43 -21 20 -28 21 -37
7z"/>
<path d="M1603 1694 c-8 -22 9 -48 34 -52 27 -4 35 20 17 47 -18 25 -42 27
-51 5z"/>
<path d="M1700 1567 c0 -29 18 -47 46 -47 28 0 36 22 18 49 -21 30 -64 28 -64
-2z"/>
<path d="M1844 1485 c-10 -24 16 -46 49 -43 36 4 44 19 22 42 -21 20 -64 21
-71 1z"/>
<path d="M2182 1478 c-19 -19 -14 -37 12 -44 31 -7 68 12 64 34 -4 21 -58 28
-76 10z"/>
<path d="M2014 1455 c-8 -19 13 -45 35 -45 28 0 53 24 45 43 -8 22 -72 24 -80
2z"/>
</g>
</svg>
