<?xml version="1.0" encoding="utf-8"?>
<!-- Generator: Adobe Illustrator 16.0.0, SVG Export Plug-In . SVG Version: 6.00 Build 0)  -->
<!DOCTYPE svg PUBLIC "-//W3C//DTD SVG 1.1//EN" "http://www.w3.org/Graphics/SVG/1.1/DTD/svg11.dtd">
<svg version="1.1" id="Layer_1" xmlns="http://www.w3.org/2000/svg" xmlns:xlink="http://www.w3.org/1999/xlink" x="0px" y="0px"
	 width="561px" height="560.999px" viewBox="65.125 115.349 561 560.999" enable-background="new 65.125 115.349 561 560.999"
	 xml:space="preserve">
<path fill="#F4481E" d="M579.487,364.437L154.275,122.824c-18.168-10.2-34.425-9.244-44.306,0.319l0,0
	c-7.013,6.694-10.837,17.531-10.837,31.556v482.268c0,14.025,4.144,24.863,10.837,31.557l0,0c10.2,9.881,26.138,10.838,44.306,0.318
	L579.487,427.23C610.088,410.018,610.088,381.968,579.487,364.437z"/>
<linearGradient id="SVGID_1_" gradientUnits="userSpaceOnUse" x1="110.3936" y1="782.0088" x2="110.3935" y2="606.2783" gradientTransform="matrix(3.1875 0 0 3.1875 -1.0938 -1817.2188)">
	<stop  offset="0" style="stop-color:#FFFFFF;stop-opacity:0"/>
	<stop  offset="1" style="stop-color:#FFFFFF;stop-opacity:0.1"/>
</linearGradient>
<path fill="url(#SVGID_1_)" d="M579.487,364.437L154.275,122.824c-18.168-10.2-34.425-9.244-44.306,0.319l0,0
	c-7.013,6.694-10.837,17.531-10.837,31.556v482.268c0,14.025,4.144,24.863,10.837,31.557l0,0c10.2,9.881,26.138,10.838,44.306,0.318
	L579.487,427.23C610.088,410.018,610.088,381.968,579.487,364.437z"/>
<path opacity="0.1" fill="#FFFFFF" enable-background="new    " d="M579.487,367.624L154.275,126.011
	c-30.6-17.212-55.462-2.869-55.462,31.875v-3.188c0-35.062,24.862-49.406,55.462-31.875l425.212,241.613
	c15.938,8.925,23.588,21.038,22.632,33.149C601.481,386.749,594.15,375.912,579.487,367.624z"/>
<path fill="#FFD119" d="M537.412,451.455c5.101-17.531,7.65-36.338,7.65-55.462c0-112.519-91.481-204-204-204s-204,91.481-204,204
	c0,94.349,64.069,173.718,151.087,196.988L537.412,451.455z"/>
<circle fill="#FF8C00" cx="341.062" cy="395.992" r="127.5"/>
<linearGradient id="SVGID_2_" gradientUnits="userSpaceOnUse" x1="115.6514" y1="708.7461" x2="130.5756" y2="734.5956" gradientTransform="matrix(3.1875 0 0 3.1875 -1.0938 -1817.2188)">
	<stop  offset="0" style="stop-color:#991700;stop-opacity:0"/>
	<stop  offset="1" style="stop-color:#991700;stop-opacity:0.1"/>
</linearGradient>
<path fill="url(#SVGID_2_)" d="M341.062,191.993c-112.519,0-204,91.481-204,204c0,94.349,64.069,173.718,151.087,196.988
	l249.262-141.525c5.101-17.531,7.65-36.338,7.65-55.462C545.062,283.474,453.581,191.993,341.062,191.993z"/>
<path fill="#FAFAFA" d="M341.062,329.055v78.412c-4.463-2.549-9.562-4.143-14.981-4.143c-16.575,0-29.644,13.387-29.644,29.643
	c0,16.576,13.388,29.645,29.644,29.645c16.575,0,30.919-13.387,30.919-29.645V360.93h28.688v-31.875H341.062z"/>
<path opacity="0.3" fill="#FFFFFF" enable-background="new    " d="M341.062,195.18c112.2,0,203.362,90.525,204,202.724
	c0-0.637,0-1.273,0-1.912c0-112.519-91.481-204-204-204s-204,91.481-204,204c0,0.638,0,1.275,0,1.593
	C138.019,285.705,228.862,195.18,341.062,195.18z"/>
</svg>
