<svg id="svg" version="1.1" width="500" height="500" xmlns="http://www.w3.org/2000/svg" xmlns:xlink="http://www.w3.org/1999/xlink" style="display: block;"><g id="svgg"><path id="path0" d="M0.000 16.000 C 0.000 31.246,0.072 32.000,1.536 32.000 C 2.625 32.000,3.231 31.243,3.615 29.400 C 4.374 25.761,6.166 23.200,7.955 23.200 C 9.020 23.200,9.639 22.425,10.029 20.600 C 10.763 17.165,11.794 16.000,14.098 16.000 C 15.567 16.000,16.000 15.567,16.000 14.098 C 16.000 11.794,17.165 10.763,20.600 10.029 C 22.425 9.639,23.200 9.020,23.200 7.955 C 23.200 6.166,25.761 4.374,29.400 3.615 C 31.243 3.231,32.000 2.625,32.000 1.536 C 32.000 0.072,31.246 0.000,16.000 0.000 L 0.000 0.000 0.000 16.000 M368.000 1.536 C 368.000 2.625,368.757 3.231,370.600 3.615 C 374.239 4.374,376.800 6.166,376.800 7.955 C 376.800 9.020,377.575 9.639,379.400 10.029 C 382.835 10.763,384.000 11.794,384.000 14.098 C 384.000 15.567,384.433 16.000,385.902 16.000 C 388.206 16.000,389.237 17.165,389.971 20.600 C 390.361 22.425,390.980 23.200,392.045 23.200 C 393.834 23.200,395.626 25.761,396.385 29.400 C 396.769 31.243,397.375 32.000,398.464 32.000 C 399.928 32.000,400.000 31.246,400.000 16.000 L 400.000 0.000 384.000 0.000 C 368.754 0.000,368.000 0.072,368.000 1.536 M0.000 382.800 L 0.000 400.000 17.200 400.000 C 33.522 400.000,34.400 399.923,34.400 398.491 C 34.400 397.304,33.589 396.860,30.600 396.412 C 25.767 395.687,24.106 394.782,23.190 392.374 C 22.755 391.230,21.550 390.228,20.228 389.912 C 17.115 389.168,16.000 388.110,16.000 385.902 C 16.000 384.433,15.567 384.000,14.098 384.000 C 11.890 384.000,10.832 382.885,10.088 379.772 C 9.772 378.450,8.770 377.245,7.626 376.810 C 5.218 375.894,4.313 374.233,3.588 369.400 C 3.140 366.411,2.696 365.600,1.509 365.600 C 0.077 365.600,0.000 366.478,0.000 382.800 M396.412 369.400 C 395.687 374.233,394.782 375.894,392.374 376.810 C 391.230 377.245,390.228 378.450,389.912 379.772 C 389.168 382.885,388.110 384.000,385.902 384.000 C 384.433 384.000,384.000 384.433,384.000 385.902 C 384.000 388.097,382.884 389.168,379.841 389.895 C 378.585 390.194,377.245 391.328,376.635 392.605 C 375.920 394.104,374.511 395.141,372.194 395.876 C 369.766 396.646,368.800 397.386,368.800 398.476 C 368.800 399.923,369.592 400.000,384.400 400.000 L 400.000 400.000 400.000 382.800 C 400.000 366.478,399.923 365.600,398.491 365.600 C 397.304 365.600,396.860 366.411,396.412 369.400 " stroke="none" fill="#ffffff" fill-rule="evenodd"></path><path id="path1" d="M51.200 1.822 C 51.200 6.257,46.112 8.800,37.239 8.800 C 34.105 8.800,33.674 9.035,32.937 11.150 C 32.320 12.920,31.328 13.737,28.918 14.459 C 26.642 15.141,25.582 15.963,25.244 17.309 C 24.983 18.349,24.236 19.200,23.585 19.200 C 22.054 19.200,19.200 22.054,19.200 23.585 C 19.200 24.236,18.349 24.983,17.309 25.244 C 15.963 25.582,15.141 26.642,14.459 28.918 C 13.753 31.274,12.911 32.324,11.264 32.897 C 9.156 33.633,8.999 34.018,8.522 39.662 C 7.803 48.173,5.970 51.200,1.535 51.200 C 0.027 51.200,0.000 53.860,0.000 200.800 L 0.000 350.400 1.942 350.400 C 4.475 350.400,6.941 353.586,7.534 357.624 C 7.790 359.371,8.209 362.225,8.465 363.967 C 8.791 366.188,9.409 367.285,10.537 367.644 C 11.421 367.924,12.935 369.859,13.900 371.943 C 16.153 376.805,23.195 383.847,28.057 386.100 C 30.210 387.097,32.075 388.576,32.376 389.526 C 32.931 391.272,33.863 391.604,40.331 392.351 C 45.595 392.959,49.131 395.086,49.453 397.839 L 49.706 400.000 200.000 400.000 L 350.294 400.000 350.547 397.839 C 350.869 395.086,354.405 392.959,359.669 392.351 C 366.137 391.604,367.069 391.272,367.624 389.526 C 367.925 388.576,369.790 387.097,371.943 386.100 C 376.805 383.847,383.847 376.805,386.100 371.943 C 387.065 369.859,388.579 367.924,389.463 367.644 C 390.591 367.285,391.209 366.188,391.535 363.967 C 391.791 362.225,392.210 359.371,392.466 357.624 C 393.059 353.586,395.525 350.400,398.058 350.400 L 400.000 350.400 400.000 200.800 C 400.000 53.860,399.973 51.200,398.465 51.200 C 394.030 51.200,392.197 48.173,391.478 39.662 C 391.001 34.018,390.844 33.633,388.736 32.897 C 387.089 32.324,386.247 31.274,385.541 28.918 C 384.859 26.642,384.037 25.582,382.691 25.244 C 381.651 24.983,380.800 24.236,380.800 23.585 C 380.800 22.054,377.946 19.200,376.415 19.200 C 375.764 19.200,375.017 18.349,374.756 17.309 C 374.418 15.963,373.358 15.141,371.082 14.459 C 368.672 13.737,367.680 12.920,367.063 11.150 C 366.326 9.035,365.895 8.800,362.761 8.800 C 353.888 8.800,348.800 6.257,348.800 1.822 L 348.800 0.000 200.000 0.000 L 51.200 0.000 51.200 1.822 M119.291 11.249 C 120.163 11.715,121.191 12.925,121.576 13.936 C 122.009 15.075,123.174 15.955,124.638 16.248 C 125.938 16.508,128.338 17.981,129.972 19.522 C 131.605 21.062,134.218 22.744,135.777 23.258 C 137.680 23.887,138.887 24.922,139.448 26.408 C 140.135 28.228,140.903 28.706,143.774 29.100 C 148.242 29.712,150.301 30.835,151.176 33.136 C 151.688 34.485,152.739 35.114,155.111 35.493 C 159.538 36.201,162.279 37.558,162.838 39.320 C 163.096 40.132,164.273 40.993,165.453 41.235 C 171.314 42.431,173.496 43.380,175.465 45.590 C 176.646 46.915,178.378 48.000,179.313 48.000 C 182.566 48.000,187.368 49.912,188.516 51.665 C 189.310 52.877,190.847 53.605,193.425 53.992 C 198.103 54.693,201.341 56.323,201.965 58.290 C 202.336 59.457,203.534 59.922,207.267 60.344 C 211.829 60.860,215.200 62.729,215.200 64.743 C 215.200 65.152,217.270 65.892,219.800 66.389 C 225.743 67.554,228.364 68.592,230.041 70.445 C 230.787 71.269,233.370 72.517,235.781 73.218 C 238.193 73.919,241.011 75.338,242.044 76.372 C 243.078 77.405,245.291 78.690,246.962 79.226 C 250.361 80.318,252.800 82.154,252.800 83.622 C 252.800 84.157,254.278 84.832,256.084 85.121 C 260.394 85.810,263.767 87.605,264.380 89.536 C 264.658 90.414,265.905 91.316,267.249 91.611 C 268.555 91.898,271.488 93.723,273.764 95.666 C 276.041 97.610,278.388 99.200,278.979 99.200 C 279.570 99.200,280.754 100.387,281.610 101.837 C 282.465 103.287,284.236 105.265,285.544 106.232 C 293.422 112.056,289.409 131.438,279.933 133.333 C 278.718 133.576,277.406 134.589,276.918 135.660 C 276.443 136.703,275.232 137.743,274.227 137.972 C 273.222 138.201,270.642 138.763,268.494 139.221 C 265.994 139.754,264.037 140.754,263.059 141.997 C 261.575 143.885,260.541 144.203,252.660 145.205 C 250.266 145.509,247.874 146.511,246.015 147.988 C 243.891 149.676,241.888 150.428,238.555 150.786 C 231.280 151.569,227.093 152.758,225.698 154.437 C 224.352 156.057,218.111 157.599,212.891 157.601 C 210.207 157.602,208.711 158.205,202.632 161.734 C 201.368 162.468,197.477 163.466,193.985 163.951 C 189.600 164.561,186.757 165.444,184.794 166.804 C 182.946 168.085,179.590 169.187,175.205 169.952 C 170.367 170.797,168.112 171.580,167.230 172.724 C 165.637 174.789,163.167 175.667,156.929 176.388 C 152.753 176.870,151.496 177.380,149.807 179.275 C 148.281 180.988,146.752 181.710,143.835 182.097 C 141.678 182.384,138.763 183.461,137.357 184.492 C 134.179 186.821,132.519 187.592,128.169 188.761 C 126.223 189.284,123.835 190.697,122.649 192.028 C 121.471 193.350,119.374 194.595,117.840 194.883 C 116.344 195.163,113.608 196.658,111.760 198.205 C 109.912 199.751,107.432 201.356,106.248 201.770 C 105.064 202.184,103.156 203.755,102.007 205.262 C 100.859 206.768,99.200 208.000,98.322 208.000 C 97.388 208.000,96.160 208.990,95.363 210.388 C 94.613 211.701,93.049 213.109,91.886 213.516 C 90.458 214.016,89.458 215.206,88.807 217.178 C 88.222 218.951,87.116 220.376,85.992 220.803 C 84.636 221.319,83.789 222.718,82.825 226.034 C 82.054 228.683,80.615 231.390,79.354 232.558 L 77.200 234.555 77.200 252.794 C 77.200 269.307,77.338 271.185,78.656 272.641 C 80.485 274.662,82.031 279.744,82.777 286.187 C 83.207 289.901,83.935 291.905,85.631 294.039 C 86.920 295.661,88.290 298.745,88.789 301.145 C 89.334 303.770,90.410 306.082,91.614 307.213 C 92.684 308.219,94.167 310.697,94.909 312.721 C 95.651 314.744,97.132 317.254,98.199 318.297 C 99.267 319.341,100.845 321.838,101.706 323.847 C 102.567 325.856,104.013 328.019,104.920 328.654 C 105.827 329.289,107.081 331.034,107.707 332.532 C 108.332 334.029,109.710 335.649,110.768 336.131 C 111.826 336.613,113.099 337.990,113.596 339.190 C 114.093 340.391,115.558 342.155,116.850 343.111 C 118.143 344.066,119.200 345.389,119.200 346.051 C 119.200 346.713,120.403 347.964,121.874 348.831 C 123.344 349.699,124.941 351.273,125.422 352.329 C 125.903 353.385,127.400 354.900,128.748 355.697 C 130.097 356.493,131.200 357.438,131.200 357.797 C 131.200 358.824,139.310 366.416,141.762 367.684 C 142.978 368.312,144.506 369.859,145.159 371.120 C 145.811 372.381,147.233 373.636,148.319 373.908 C 149.405 374.181,151.062 375.483,152.001 376.802 C 152.941 378.121,154.182 379.200,154.760 379.200 C 155.337 379.200,156.955 380.370,158.353 381.800 L 160.896 384.400 158.436 386.600 L 155.975 388.800 101.387 388.796 C 45.511 388.791,42.341 388.628,39.626 385.629 C 38.848 384.769,36.430 383.474,34.251 382.751 C 31.786 381.932,29.990 380.776,29.496 379.691 C 29.059 378.732,27.664 377.488,26.397 376.927 C 25.130 376.366,23.634 374.870,23.073 373.603 C 22.512 372.336,21.268 370.941,20.309 370.504 C 19.214 370.005,18.064 368.200,17.218 365.655 C 16.477 363.425,15.520 361.600,15.091 361.600 C 14.661 361.600,13.520 359.890,12.555 357.800 L 10.800 354.000 10.581 199.122 C 10.346 33.958,10.237 38.950,14.147 37.233 C 15.280 36.736,16.193 35.278,16.745 33.086 C 17.836 28.753,29.428 16.800,32.540 16.800 C 33.693 16.800,35.399 15.805,36.713 14.366 C 37.936 13.027,39.986 11.618,41.268 11.235 C 44.755 10.192,117.341 10.205,119.291 11.249 M358.357 11.188 C 359.867 11.621,362.095 13.061,363.306 14.388 C 364.604 15.809,366.311 16.800,367.460 16.800 C 370.572 16.800,382.164 28.753,383.255 33.086 C 383.807 35.278,384.720 36.736,385.853 37.233 C 389.763 38.950,389.654 33.958,389.419 199.122 L 389.200 354.000 387.445 357.800 C 386.480 359.890,385.339 361.600,384.909 361.600 C 384.480 361.600,383.523 363.425,382.782 365.655 C 381.936 368.200,380.786 370.005,379.691 370.504 C 378.732 370.941,377.488 372.336,376.927 373.603 C 376.366 374.870,374.870 376.366,373.603 376.927 C 372.336 377.488,370.944 378.726,370.510 379.677 C 370.040 380.709,368.225 381.918,366.016 382.671 C 363.978 383.365,361.248 384.827,359.951 385.918 C 356.862 388.518,353.297 388.975,338.541 388.661 L 326.282 388.400 324.141 385.938 C 322.748 384.335,320.443 383.009,317.544 382.142 C 315.093 381.409,312.240 379.907,311.204 378.804 C 310.168 377.702,308.934 376.798,308.461 376.796 C 305.794 376.782,301.112 374.777,299.294 372.871 C 298.142 371.664,295.580 370.222,293.600 369.666 C 291.620 369.110,288.920 367.645,287.600 366.411 C 286.280 365.176,283.990 363.911,282.510 363.599 C 281.031 363.288,278.511 361.862,276.910 360.429 C 275.310 358.997,272.679 357.397,271.066 356.872 C 269.452 356.348,267.589 355.092,266.926 354.081 C 266.217 352.998,264.188 351.813,261.994 351.198 C 259.613 350.532,257.663 349.338,256.595 347.894 C 255.676 346.650,253.731 345.239,252.274 344.758 C 250.817 344.278,248.987 343.074,248.208 342.083 C 247.429 341.092,245.052 339.617,242.925 338.805 C 240.799 337.993,238.530 336.520,237.882 335.532 C 237.235 334.544,235.278 333.165,233.535 332.467 C 231.784 331.767,229.978 330.350,229.501 329.302 C 228.967 328.131,227.462 327.052,225.570 326.486 C 223.884 325.980,221.491 324.458,220.252 323.102 C 219.014 321.747,216.818 320.124,215.373 319.497 C 213.928 318.869,212.351 317.490,211.869 316.432 C 211.387 315.374,209.950 314.076,208.675 313.548 C 207.401 313.021,205.623 311.556,204.725 310.294 C 203.826 309.032,202.571 308.000,201.935 308.000 C 200.829 308.000,198.479 306.067,190.511 298.600 C 188.515 296.730,186.530 295.200,186.099 295.200 C 184.795 295.200,168.106 277.439,166.775 274.635 C 166.093 273.198,164.799 271.628,163.900 271.146 C 163.000 270.665,161.715 268.956,161.043 267.349 C 160.372 265.741,159.140 263.948,158.307 263.365 C 156.479 262.084,154.795 258.938,154.025 255.365 C 153.713 253.916,152.590 251.862,151.529 250.802 C 148.544 247.817,148.595 233.223,151.600 230.400 C 152.700 229.367,153.609 227.954,153.621 227.261 C 153.694 222.864,164.237 211.317,169.349 210.034 C 170.500 209.745,172.127 208.638,172.965 207.572 C 173.818 206.488,176.269 205.107,178.537 204.434 C 180.763 203.772,183.174 202.561,183.893 201.741 C 185.706 199.675,187.825 198.681,191.834 198.017 C 193.912 197.672,196.261 196.541,197.783 195.151 C 199.467 193.612,201.505 192.695,203.949 192.375 C 210.659 191.496,212.008 191.079,212.776 189.645 C 213.793 187.744,216.785 186.664,223.946 185.613 C 228.176 184.992,230.196 184.305,230.948 183.231 C 232.157 181.505,234.934 180.539,242.600 179.178 C 245.570 178.650,248.000 177.909,248.000 177.530 C 248.000 176.207,252.948 174.299,259.257 173.190 C 264.293 172.304,265.987 171.641,267.407 169.999 C 268.796 168.393,270.335 167.766,274.230 167.219 C 278.055 166.682,279.912 165.940,281.982 164.123 C 283.792 162.534,286.261 161.417,289.352 160.790 C 292.459 160.159,294.796 159.099,296.400 157.591 C 297.720 156.350,300.308 154.937,302.152 154.450 C 304.163 153.918,305.689 152.981,305.967 152.106 C 306.221 151.303,308.438 149.630,310.894 148.388 C 313.349 147.146,315.713 145.350,316.147 144.397 C 316.581 143.444,317.991 142.042,319.279 141.281 C 320.567 140.519,322.151 138.630,322.798 137.081 C 323.445 135.533,325.150 133.168,326.587 131.825 L 329.200 129.384 329.200 118.866 L 329.200 108.347 326.200 105.347 C 324.550 103.697,323.200 101.966,323.200 101.502 C 323.200 100.242,312.616 89.960,309.842 88.525 C 308.520 87.841,306.847 86.380,306.125 85.278 C 305.312 84.038,303.728 83.071,301.966 82.741 C 300.401 82.447,297.689 81.011,295.939 79.549 C 293.857 77.809,291.518 76.706,289.164 76.353 C 286.704 75.984,285.074 75.184,284.000 73.818 C 282.375 71.753,277.750 69.696,274.593 69.635 C 273.599 69.616,271.664 68.528,270.292 67.217 C 268.921 65.907,266.584 64.647,265.100 64.417 C 263.615 64.188,261.100 63.796,259.511 63.547 C 257.921 63.298,255.762 62.235,254.712 61.185 C 252.519 58.991,248.226 57.611,243.578 57.604 C 240.170 57.600,236.800 55.828,236.800 54.040 C 236.800 52.603,235.558 52.211,228.932 51.558 C 223.583 51.031,218.400 48.928,218.400 47.284 C 218.400 46.877,215.790 46.137,212.600 45.639 C 206.468 44.681,201.600 42.927,201.600 41.675 C 201.600 40.745,197.657 39.500,192.496 38.800 C 189.672 38.417,188.012 37.648,186.496 36.021 C 184.825 34.227,183.223 33.576,178.601 32.813 C 174.151 32.078,172.456 31.416,171.313 29.961 C 169.621 27.811,167.321 26.716,163.035 26.021 C 161.309 25.741,159.460 24.765,158.610 23.686 C 157.808 22.665,155.722 21.373,153.976 20.813 C 147.272 18.665,147.200 18.610,147.200 15.663 C 147.200 10.008,139.306 10.400,253.183 10.400 C 318.001 10.400,356.619 10.689,358.357 11.188 " stroke="none" fill="#00548b" fill-rule="evenodd"></path><path id="path2" d="M43.200 1.502 C 43.200 3.555,41.963 4.388,36.653 5.910 C 34.152 6.627,31.092 8.061,29.853 9.098 C 28.614 10.134,26.160 11.744,24.400 12.676 C 18.513 15.793,7.258 30.200,5.946 36.299 C 5.065 40.391,3.288 43.200,1.579 43.200 C 0.217 43.200,0.000 43.751,0.000 47.200 C 0.000 50.610,0.226 51.200,1.535 51.200 C 5.970 51.200,7.803 48.173,8.522 39.662 C 8.999 34.018,9.156 33.633,11.264 32.897 C 12.911 32.324,13.753 31.274,14.459 28.918 C 15.141 26.642,15.963 25.582,17.309 25.244 C 18.349 24.983,19.200 24.236,19.200 23.585 C 19.200 22.054,22.054 19.200,23.585 19.200 C 24.236 19.200,24.983 18.349,25.244 17.309 C 25.582 15.963,26.642 15.141,28.918 14.459 C 31.328 13.737,32.320 12.920,32.937 11.150 C 33.674 9.035,34.105 8.800,37.239 8.800 C 46.112 8.800,51.200 6.257,51.200 1.822 C 51.200 0.169,50.829 0.000,47.200 0.000 C 43.820 0.000,43.200 0.233,43.200 1.502 M348.800 1.822 C 348.800 6.257,353.888 8.800,362.761 8.800 C 365.895 8.800,366.326 9.035,367.063 11.150 C 367.680 12.920,368.672 13.737,371.082 14.459 C 373.358 15.141,374.418 15.963,374.756 17.309 C 375.017 18.349,375.764 19.200,376.415 19.200 C 377.946 19.200,380.800 22.054,380.800 23.585 C 380.800 24.236,381.651 24.983,382.691 25.244 C 384.037 25.582,384.859 26.642,385.541 28.918 C 386.247 31.274,387.089 32.324,388.736 32.897 C 390.844 33.633,391.001 34.018,391.478 39.662 C 392.197 48.173,394.030 51.200,398.465 51.200 C 399.774 51.200,400.000 50.610,400.000 47.200 C 400.000 43.751,399.783 43.200,398.421 43.200 C 396.712 43.200,394.935 40.391,394.054 36.299 C 392.742 30.200,381.487 15.793,375.600 12.676 C 373.840 11.744,371.386 10.134,370.147 9.098 C 368.908 8.061,365.848 6.627,363.347 5.910 C 358.037 4.388,356.800 3.555,356.800 1.502 C 356.800 0.233,356.180 0.000,352.800 0.000 C 349.171 0.000,348.800 0.169,348.800 1.822 M41.268 11.235 C 39.986 11.618,37.936 13.027,36.713 14.366 C 35.399 15.805,33.693 16.800,32.540 16.800 C 29.428 16.800,17.836 28.753,16.745 33.086 C 16.193 35.278,15.280 36.736,14.147 37.233 C 10.237 38.950,10.346 33.958,10.581 199.122 L 10.800 354.000 12.555 357.800 C 13.520 359.890,14.661 361.600,15.091 361.600 C 15.520 361.600,16.477 363.425,17.218 365.655 C 18.064 368.200,19.214 370.005,20.309 370.504 C 21.268 370.941,22.512 372.336,23.073 373.603 C 23.634 374.870,25.130 376.366,26.397 376.927 C 27.664 377.488,29.059 378.732,29.496 379.691 C 29.990 380.776,31.786 381.932,34.251 382.751 C 36.430 383.474,38.848 384.769,39.626 385.629 C 42.341 388.628,45.511 388.791,101.387 388.796 L 155.975 388.800 158.436 386.600 L 160.896 384.400 158.353 381.800 C 156.955 380.370,155.337 379.200,154.760 379.200 C 154.182 379.200,152.941 378.121,152.001 376.802 C 151.062 375.483,149.405 374.181,148.319 373.908 C 147.233 373.636,145.811 372.381,145.159 371.120 C 144.506 369.859,142.978 368.312,141.762 367.684 C 139.310 366.416,131.200 358.824,131.200 357.797 C 131.200 357.438,130.097 356.493,128.748 355.697 C 127.400 354.900,125.903 353.385,125.422 352.329 C 124.941 351.273,123.344 349.699,121.874 348.831 C 120.403 347.964,119.200 346.713,119.200 346.051 C 119.200 345.389,118.143 344.066,116.850 343.111 C 115.558 342.155,114.093 340.391,113.596 339.190 C 113.099 337.990,111.826 336.613,110.768 336.131 C 109.710 335.649,108.332 334.029,107.707 332.532 C 107.081 331.034,105.827 329.289,104.920 328.654 C 104.013 328.019,102.567 325.856,101.706 323.847 C 100.845 321.838,99.267 319.341,98.199 318.297 C 97.132 317.254,95.651 314.744,94.909 312.721 C 94.167 310.697,92.684 308.219,91.614 307.213 C 90.410 306.082,89.334 303.770,88.789 301.145 C 88.290 298.745,86.920 295.661,85.631 294.039 C 83.935 291.905,83.207 289.901,82.777 286.187 C 82.031 279.744,80.485 274.662,78.656 272.641 C 77.338 271.185,77.200 269.307,77.200 252.794 L 77.200 234.555 79.354 232.558 C 80.615 231.390,82.054 228.683,82.825 226.034 C 83.789 222.718,84.636 221.319,85.992 220.803 C 87.116 220.376,88.222 218.951,88.807 217.178 C 89.458 215.206,90.458 214.016,91.886 213.516 C 93.049 213.109,94.613 211.701,95.363 210.388 C 96.160 208.990,97.388 208.000,98.322 208.000 C 99.200 208.000,100.859 206.768,102.007 205.262 C 103.156 203.755,105.064 202.184,106.248 201.770 C 107.432 201.356,109.912 199.751,111.760 198.205 C 113.608 196.658,116.344 195.163,117.840 194.883 C 119.374 194.595,121.471 193.350,122.649 192.028 C 123.835 190.697,126.223 189.284,128.169 188.761 C 132.519 187.592,134.179 186.821,137.357 184.492 C 138.763 183.461,141.678 182.384,143.835 182.097 C 146.752 181.710,148.281 180.988,149.807 179.275 C 151.496 177.380,152.753 176.870,156.929 176.388 C 163.167 175.667,165.637 174.789,167.230 172.724 C 168.112 171.580,170.367 170.797,175.205 169.952 C 179.590 169.187,182.946 168.085,184.794 166.804 C 186.757 165.444,189.600 164.561,193.985 163.951 C 197.477 163.466,201.368 162.468,202.632 161.734 C 208.711 158.205,210.207 157.602,212.891 157.601 C 218.111 157.599,224.352 156.057,225.698 154.437 C 227.093 152.758,231.280 151.569,238.555 150.786 C 241.888 150.428,243.891 149.676,246.015 147.988 C 247.874 146.511,250.266 145.509,252.660 145.205 C 260.541 144.203,261.575 143.885,263.059 141.997 C 264.037 140.754,265.994 139.754,268.494 139.221 C 270.642 138.763,273.222 138.201,274.227 137.972 C 275.232 137.743,276.443 136.703,276.918 135.660 C 277.406 134.589,278.718 133.576,279.933 133.333 C 289.409 131.438,293.422 112.056,285.544 106.232 C 284.236 105.265,282.465 103.287,281.610 101.837 C 280.754 100.387,279.570 99.200,278.979 99.200 C 278.388 99.200,276.041 97.610,273.764 95.666 C 271.488 93.723,268.555 91.898,267.249 91.611 C 265.905 91.316,264.658 90.414,264.380 89.536 C 263.767 87.605,260.394 85.810,256.084 85.121 C 254.278 84.832,252.800 84.157,252.800 83.622 C 252.800 82.154,250.361 80.318,246.962 79.226 C 245.291 78.690,243.078 77.405,242.044 76.372 C 241.011 75.338,238.193 73.919,235.781 73.218 C 233.370 72.517,230.787 71.269,230.041 70.445 C 228.364 68.592,225.743 67.554,219.800 66.389 C 217.270 65.892,215.200 65.152,215.200 64.743 C 215.200 62.729,211.829 60.860,207.267 60.344 C 203.534 59.922,202.336 59.457,201.965 58.290 C 201.341 56.323,198.103 54.693,193.425 53.992 C 190.847 53.605,189.310 52.877,188.516 51.665 C 187.368 49.912,182.566 48.000,179.313 48.000 C 178.378 48.000,176.646 46.915,175.465 45.590 C 173.496 43.380,171.314 42.431,165.453 41.235 C 164.273 40.993,163.096 40.132,162.838 39.320 C 162.279 37.558,159.538 36.201,155.111 35.493 C 152.739 35.114,151.688 34.485,151.176 33.136 C 150.301 30.835,148.242 29.712,143.774 29.100 C 140.903 28.706,140.135 28.228,139.448 26.408 C 138.887 24.922,137.680 23.887,135.777 23.258 C 134.218 22.744,131.605 21.062,129.972 19.522 C 128.338 17.981,125.938 16.508,124.638 16.248 C 123.174 15.955,122.009 15.075,121.576 13.936 C 121.191 12.925,120.163 11.715,119.291 11.249 C 117.341 10.205,44.755 10.192,41.268 11.235 M148.978 11.645 C 147.722 12.525,147.200 13.705,147.200 15.663 C 147.200 18.610,147.272 18.665,153.976 20.813 C 155.722 21.373,157.808 22.665,158.610 23.686 C 159.460 24.765,161.309 25.741,163.035 26.021 C 167.321 26.716,169.621 27.811,171.313 29.961 C 172.456 31.416,174.151 32.078,178.601 32.813 C 183.223 33.576,184.825 34.227,186.496 36.021 C 188.012 37.648,189.672 38.417,192.496 38.800 C 197.657 39.500,201.600 40.745,201.600 41.675 C 201.600 42.927,206.468 44.681,212.600 45.639 C 215.790 46.137,218.400 46.877,218.400 47.284 C 218.400 48.928,223.583 51.031,228.932 51.558 C 235.558 52.211,236.800 52.603,236.800 54.040 C 236.800 55.828,240.170 57.600,243.578 57.604 C 248.226 57.611,252.519 58.991,254.712 61.185 C 255.762 62.235,257.921 63.298,259.511 63.547 C 261.100 63.796,263.615 64.188,265.100 64.417 C 266.584 64.647,268.921 65.907,270.292 67.217 C 271.664 68.528,273.599 69.616,274.593 69.635 C 277.750 69.696,282.375 71.753,284.000 73.818 C 285.074 75.184,286.704 75.984,289.164 76.353 C 291.518 76.706,293.857 77.809,295.939 79.549 C 297.689 81.011,300.401 82.447,301.966 82.741 C 303.728 83.071,305.312 84.038,306.125 85.278 C 306.847 86.380,308.520 87.841,309.842 88.525 C 312.616 89.960,323.200 100.242,323.200 101.502 C 323.200 101.966,324.550 103.697,326.200 105.347 L 329.200 108.347 329.200 118.866 L 329.200 129.384 326.587 131.825 C 325.150 133.168,323.445 135.533,322.798 137.081 C 322.151 138.630,320.567 140.519,319.279 141.281 C 317.991 142.042,316.581 143.444,316.147 144.397 C 315.713 145.350,313.349 147.146,310.894 148.388 C 308.438 149.630,306.221 151.303,305.967 152.106 C 305.689 152.981,304.163 153.918,302.152 154.450 C 300.308 154.937,297.720 156.350,296.400 157.591 C 294.796 159.099,292.459 160.159,289.352 160.790 C 286.261 161.417,283.792 162.534,281.982 164.123 C 279.912 165.940,278.055 166.682,274.230 167.219 C 270.335 167.766,268.796 168.393,267.407 169.999 C 265.987 171.641,264.293 172.304,259.257 173.190 C 252.948 174.299,248.000 176.207,248.000 177.530 C 248.000 177.909,245.570 178.650,242.600 179.178 C 234.934 180.539,232.157 181.505,230.948 183.231 C 230.196 184.305,228.176 184.992,223.946 185.613 C 216.785 186.664,213.793 187.744,212.776 189.645 C 212.008 191.079,210.659 191.496,203.949 192.375 C 201.505 192.695,199.467 193.612,197.783 195.151 C 196.261 196.541,193.912 197.672,191.834 198.017 C 187.825 198.681,185.706 199.675,183.893 201.741 C 183.174 202.561,180.763 203.772,178.537 204.434 C 176.269 205.107,173.818 206.488,172.965 207.572 C 172.127 208.638,170.500 209.745,169.349 210.034 C 164.237 211.317,153.694 222.864,153.621 227.261 C 153.609 227.954,152.700 229.367,151.600 230.400 C 148.595 233.223,148.544 247.817,151.529 250.802 C 152.590 251.862,153.713 253.916,154.025 255.365 C 154.795 258.938,156.479 262.084,158.307 263.365 C 159.140 263.948,160.372 265.741,161.043 267.349 C 161.715 268.956,163.000 270.665,163.900 271.146 C 164.799 271.628,166.093 273.198,166.775 274.635 C 168.106 277.439,184.795 295.200,186.099 295.200 C 186.530 295.200,188.515 296.730,190.511 298.600 C 198.479 306.067,200.829 308.000,201.935 308.000 C 202.571 308.000,203.826 309.032,204.725 310.294 C 205.623 311.556,207.401 313.021,208.675 313.548 C 209.950 314.076,211.387 315.374,211.869 316.432 C 212.351 317.490,213.928 318.869,215.373 319.497 C 216.818 320.124,219.014 321.747,220.252 323.102 C 221.491 324.458,223.884 325.980,225.570 326.486 C 227.462 327.052,228.967 328.131,229.501 329.302 C 229.978 330.350,231.784 331.767,233.535 332.467 C 235.278 333.165,237.235 334.544,237.882 335.532 C 238.530 336.520,240.799 337.993,242.925 338.805 C 245.052 339.617,247.429 341.092,248.208 342.083 C 248.987 343.074,250.817 344.278,252.274 344.758 C 253.731 345.239,255.676 346.650,256.595 347.894 C 257.663 349.338,259.613 350.532,261.994 351.198 C 264.188 351.813,266.217 352.998,266.926 354.081 C 267.589 355.092,269.452 356.348,271.066 356.872 C 272.679 357.397,275.310 358.997,276.910 360.429 C 278.511 361.862,281.031 363.288,282.510 363.599 C 283.990 363.911,286.280 365.176,287.600 366.411 C 288.920 367.645,291.620 369.110,293.600 369.666 C 295.580 370.222,298.142 371.664,299.294 372.871 C 301.112 374.777,305.794 376.782,308.461 376.796 C 308.934 376.798,310.168 377.702,311.204 378.804 C 312.240 379.907,315.093 381.409,317.544 382.142 C 320.443 383.009,322.748 384.335,324.141 385.938 L 326.282 388.400 338.541 388.661 C 353.297 388.975,356.862 388.518,359.951 385.918 C 361.248 384.827,363.978 383.365,366.016 382.671 C 368.225 381.918,370.040 380.709,370.510 379.677 C 370.944 378.726,372.336 377.488,373.603 376.927 C 374.870 376.366,376.366 374.870,376.927 373.603 C 377.488 372.336,378.732 370.941,379.691 370.504 C 380.786 370.005,381.936 368.200,382.782 365.655 C 383.523 363.425,384.480 361.600,384.909 361.600 C 385.339 361.600,386.480 359.890,387.445 357.800 L 389.200 354.000 389.419 199.122 C 389.654 33.958,389.763 38.950,385.853 37.233 C 384.720 36.736,383.807 35.278,383.255 33.086 C 382.164 28.753,370.572 16.800,367.460 16.800 C 366.311 16.800,364.604 15.809,363.306 14.388 C 362.095 13.061,359.867 11.621,358.357 11.188 C 353.206 9.710,151.110 10.152,148.978 11.645 M117.652 16.600 C 118.988 18.030,120.422 19.200,120.838 19.200 C 121.255 19.200,122.946 20.411,124.598 21.891 C 126.249 23.371,128.860 25.221,130.400 26.002 C 131.940 26.783,134.383 28.452,135.828 29.711 C 137.273 30.970,138.943 32.000,139.538 32.000 C 140.133 32.000,142.498 33.292,144.794 34.871 C 147.089 36.450,150.100 38.127,151.484 38.597 C 152.868 39.068,155.131 40.431,156.513 41.626 C 157.896 42.821,160.828 44.231,163.030 44.759 C 165.294 45.302,167.836 46.574,168.880 47.685 C 169.895 48.766,172.723 50.219,175.163 50.914 C 177.603 51.609,180.500 53.008,181.600 54.024 C 182.700 55.040,185.666 56.405,188.192 57.057 C 190.717 57.710,193.863 59.153,195.184 60.264 C 196.526 61.393,199.531 62.687,202.000 63.200 C 204.429 63.704,207.467 65.001,208.752 66.082 C 210.036 67.163,213.071 68.730,215.495 69.564 C 217.920 70.398,220.915 71.817,222.152 72.718 C 223.388 73.618,226.690 75.060,229.488 75.921 C 232.287 76.783,235.347 78.206,236.288 79.084 C 237.230 79.962,239.848 81.405,242.106 82.291 C 244.365 83.178,247.160 84.781,248.318 85.854 C 249.475 86.927,251.416 88.003,252.631 88.246 C 253.845 88.489,256.270 89.829,258.019 91.224 C 259.769 92.619,262.561 94.308,264.223 94.976 C 265.886 95.645,267.607 96.865,268.047 97.688 C 268.487 98.510,270.007 99.775,271.424 100.497 C 274.648 102.141,283.535 111.280,285.475 114.947 C 287.765 119.275,281.721 130.373,277.061 130.395 C 276.545 130.398,274.986 131.356,273.597 132.525 C 272.208 133.694,268.697 135.309,265.796 136.113 C 262.894 136.918,259.233 138.453,257.660 139.524 C 255.912 140.714,252.260 141.941,248.269 142.678 C 244.314 143.410,240.527 144.677,238.669 145.891 C 236.586 147.252,233.592 148.169,229.349 148.747 C 223.112 149.596,220.751 150.405,218.307 152.530 C 217.596 153.148,214.716 154.002,211.907 154.427 C 209.098 154.851,205.641 155.393,204.224 155.631 C 202.807 155.869,200.590 156.953,199.298 158.040 C 197.490 159.562,195.189 160.281,189.304 161.164 C 181.791 162.292,179.236 163.132,176.748 165.292 C 176.060 165.890,172.923 166.866,169.777 167.461 C 166.388 168.102,162.824 169.386,161.029 170.613 C 159.363 171.752,155.929 173.058,153.397 173.515 C 148.445 174.410,146.120 175.384,143.600 177.619 C 142.720 178.400,139.960 179.455,137.466 179.963 C 134.614 180.544,132.201 181.617,130.960 182.858 C 129.875 183.943,127.143 185.378,124.888 186.048 C 122.633 186.718,119.746 188.284,118.473 189.529 C 117.199 190.774,114.920 192.024,113.409 192.308 C 111.897 192.592,109.252 194.025,107.530 195.494 C 105.809 196.963,103.256 198.754,101.857 199.474 C 100.458 200.193,99.096 201.468,98.830 202.305 C 98.564 203.143,97.341 204.244,96.112 204.754 C 94.883 205.263,92.706 206.921,91.274 208.440 C 89.842 209.958,88.383 211.200,88.032 211.200 C 87.681 211.200,86.943 212.289,86.391 213.621 C 85.840 214.952,84.382 216.758,83.152 217.634 C 81.922 218.510,80.519 220.428,80.034 221.896 C 79.550 223.364,78.304 225.363,77.265 226.339 C 73.378 229.990,71.360 244.624,72.704 259.405 C 74.248 276.372,75.032 280.515,77.615 285.355 C 78.927 287.814,80.000 290.831,80.000 292.061 C 80.000 295.002,81.326 298.393,83.300 300.501 C 84.176 301.436,85.400 304.124,86.019 306.473 C 86.745 309.225,88.010 311.552,89.573 313.013 C 90.908 314.260,92.000 315.821,92.000 316.480 C 92.000 318.243,94.296 322.426,96.911 325.428 C 98.170 326.873,99.200 328.572,99.200 329.204 C 99.200 329.835,100.312 331.173,101.671 332.176 C 103.030 333.179,104.617 335.135,105.198 336.523 C 105.779 337.911,106.956 339.269,107.814 339.541 C 108.671 339.813,110.002 341.430,110.771 343.135 C 112.495 346.958,135.566 370.056,138.400 370.797 C 139.500 371.085,141.123 372.463,142.007 373.860 C 142.891 375.257,144.425 376.757,145.415 377.193 C 146.405 377.629,147.417 378.625,147.665 379.406 C 147.913 380.188,149.573 381.570,151.353 382.478 C 157.276 385.500,154.853 385.642,101.143 385.417 L 49.200 385.200 46.400 383.076 C 44.860 381.907,41.491 380.467,38.913 379.876 C 35.384 379.066,33.829 378.243,32.619 376.544 C 31.735 375.304,30.148 373.960,29.092 373.559 C 28.035 373.157,26.843 371.965,26.441 370.908 C 26.040 369.852,24.668 368.245,23.392 367.337 C 21.643 366.091,20.829 364.593,20.077 361.234 C 19.519 358.736,18.141 355.665,16.941 354.238 L 14.800 351.695 14.202 286.048 C 13.874 249.941,13.694 181.669,13.802 134.331 L 14.000 48.263 16.135 45.131 C 17.310 43.409,18.816 40.125,19.482 37.833 C 20.834 33.186,33.035 20.000,35.984 20.000 C 36.809 20.000,39.851 18.766,42.744 17.258 C 49.939 13.508,47.203 13.738,83.011 13.876 L 115.223 14.000 117.652 16.600 M357.058 17.000 C 360.060 18.650,363.191 20.000,364.016 20.000 C 366.965 20.000,379.166 33.186,380.518 37.833 C 381.184 40.125,382.690 43.409,383.865 45.131 L 386.000 48.263 386.198 134.331 C 386.306 181.669,386.126 249.941,385.798 286.048 L 385.200 351.695 383.059 354.238 C 381.859 355.665,380.481 358.736,379.923 361.234 C 379.171 364.593,378.357 366.091,376.608 367.337 C 375.332 368.245,373.960 369.852,373.559 370.908 C 373.157 371.965,371.965 373.157,370.908 373.559 C 369.852 373.960,368.265 375.304,367.381 376.544 C 366.171 378.243,364.616 379.066,361.087 379.876 C 358.509 380.467,355.140 381.907,353.600 383.076 C 349.282 386.352,331.870 386.345,328.592 383.065 C 327.418 381.891,324.555 380.370,322.229 379.686 C 319.903 379.002,316.970 377.547,315.712 376.452 C 314.453 375.358,311.557 373.920,309.275 373.256 C 306.993 372.593,304.275 371.144,303.235 370.037 C 302.195 368.930,300.124 367.796,298.632 367.516 C 297.141 367.236,294.478 365.802,292.714 364.328 C 290.951 362.855,288.255 361.304,286.724 360.881 C 285.192 360.458,282.683 359.010,281.149 357.662 C 279.614 356.315,276.791 354.818,274.876 354.336 C 272.531 353.745,271.117 352.855,270.551 351.612 C 270.006 350.417,268.324 349.305,265.784 348.461 C 263.625 347.744,260.850 346.104,259.617 344.817 C 258.384 343.531,256.334 342.249,255.060 341.969 C 253.787 341.690,252.149 340.550,251.419 339.436 C 250.689 338.322,248.538 336.745,246.638 335.931 C 244.739 335.116,242.198 333.520,240.992 332.384 C 239.786 331.247,237.820 330.113,236.622 329.863 C 235.424 329.613,233.516 328.192,232.381 326.704 C 231.247 325.217,229.797 324.000,229.160 324.000 C 228.523 324.000,226.520 322.562,224.709 320.805 C 222.898 319.047,220.088 317.211,218.464 316.725 C 216.780 316.220,215.186 315.100,214.755 314.120 C 214.340 313.174,212.754 311.778,211.232 311.019 C 209.710 310.259,208.001 308.754,207.435 307.674 C 206.869 306.594,205.610 305.457,204.637 305.148 C 203.664 304.840,200.259 301.935,197.070 298.693 C 193.880 295.452,190.930 292.800,190.514 292.800 C 189.011 292.800,171.793 274.892,169.615 271.064 C 168.947 269.889,167.450 268.185,166.290 267.277 C 165.129 266.368,163.935 264.649,163.635 263.456 C 163.336 262.263,162.055 260.107,160.789 258.665 C 150.150 246.548,157.352 219.770,173.009 213.228 C 174.452 212.625,176.300 211.395,177.115 210.494 C 177.930 209.593,180.509 208.300,182.845 207.621 C 185.182 206.942,188.121 205.522,189.377 204.465 C 190.633 203.408,193.800 201.922,196.414 201.162 C 199.028 200.402,202.435 198.951,203.984 197.938 C 205.533 196.925,209.312 195.520,212.382 194.817 C 215.452 194.114,219.479 192.651,221.331 191.566 C 223.182 190.481,227.510 189.055,230.949 188.398 C 234.387 187.740,238.193 186.469,239.407 185.572 C 240.621 184.675,244.581 183.207,248.207 182.309 C 251.833 181.410,255.531 179.995,256.424 179.164 C 257.317 178.332,260.671 177.100,263.877 176.426 C 269.764 175.187,272.211 174.243,274.400 172.365 C 275.060 171.798,277.940 170.740,280.800 170.012 C 283.660 169.285,287.260 167.844,288.800 166.810 C 290.340 165.777,293.143 164.481,295.029 163.930 C 296.915 163.380,299.435 162.000,300.629 160.865 C 301.823 159.730,304.331 158.205,306.203 157.476 C 311.904 155.258,327.913 140.541,331.097 134.593 C 332.714 131.571,334.562 116.935,333.684 114.107 C 333.255 112.728,332.510 109.597,332.027 107.150 C 330.803 100.948,313.400 83.075,305.600 80.010 C 304.060 79.405,301.681 77.950,300.313 76.778 C 298.945 75.606,296.087 74.209,293.962 73.674 C 291.837 73.139,288.935 71.680,287.514 70.432 C 286.075 69.168,283.495 67.920,281.692 67.616 C 279.911 67.315,277.144 66.027,275.543 64.755 C 273.942 63.482,271.319 62.221,269.716 61.953 C 264.989 61.162,261.798 60.003,260.697 58.676 C 259.380 57.089,256.948 56.177,250.294 54.778 C 247.355 54.159,243.653 52.774,242.069 51.698 C 240.402 50.567,236.817 49.319,233.563 48.738 C 229.912 48.085,227.177 47.078,225.769 45.867 C 224.576 44.841,223.420 43.995,223.200 43.987 C 220.071 43.871,211.427 41.247,209.067 39.697 C 207.380 38.589,203.329 37.131,200.064 36.456 C 196.761 35.774,192.858 34.351,191.264 33.249 C 189.689 32.160,186.150 30.745,183.400 30.105 C 180.605 29.455,177.345 28.055,176.009 26.930 C 174.694 25.824,171.646 24.477,169.234 23.938 C 166.656 23.361,164.134 22.194,163.111 21.106 C 162.155 20.088,159.052 18.482,156.215 17.538 C 151.231 15.880,150.643 14.985,154.000 14.164 C 154.880 13.949,199.700 13.824,253.600 13.887 L 351.600 14.000 357.058 17.000 M-0.000 353.544 C -0.000 356.196,0.282 356.729,1.800 356.944 C 3.256 357.151,3.991 358.345,5.646 363.200 C 6.772 366.500,9.022 370.938,10.646 373.061 C 12.271 375.185,13.600 377.209,13.600 377.559 C 13.600 378.581,20.848 385.324,25.200 388.350 C 29.626 391.428,32.063 392.681,38.000 394.931 C 40.937 396.044,42.068 396.919,42.256 398.223 C 42.691 401.247,49.808 400.867,49.453 397.839 C 49.131 395.086,45.595 392.959,40.331 392.351 C 33.863 391.604,32.931 391.272,32.376 389.526 C 32.075 388.576,30.210 387.097,28.057 386.100 C 23.195 383.847,16.153 376.805,13.900 371.943 C 12.935 369.859,11.421 367.924,10.537 367.644 C 9.409 367.285,8.791 366.188,8.465 363.967 C 8.209 362.225,7.790 359.371,7.534 357.624 C 6.519 350.714,0.000 347.184,-0.000 353.544 M394.524 352.424 C 393.649 353.537,392.723 355.877,392.466 357.624 C 392.210 359.371,391.791 362.225,391.535 363.967 C 391.209 366.188,390.591 367.285,389.463 367.644 C 388.579 367.924,387.065 369.859,386.100 371.943 C 383.847 376.805,376.805 383.847,371.943 386.100 C 369.790 387.097,367.925 388.576,367.624 389.526 C 367.069 391.272,366.137 391.604,359.669 392.351 C 351.169 393.333,346.181 400.000,353.947 400.000 C 357.045 400.000,357.600 399.761,357.600 398.428 C 357.600 396.631,359.314 395.555,364.749 393.941 C 366.853 393.316,369.974 391.689,371.687 390.325 C 373.399 388.960,375.736 387.358,376.880 386.764 C 379.112 385.604,386.400 378.535,386.400 377.529 C 386.400 377.196,387.729 375.185,389.354 373.061 C 390.978 370.938,393.228 366.500,394.354 363.200 C 396.009 358.345,396.744 357.151,398.200 356.944 C 399.718 356.729,400.000 356.196,400.000 353.544 C 400.000 349.663,397.154 349.080,394.524 352.424 " stroke="none" fill="#2f8cc6" fill-rule="evenodd"></path><path id="path3" d="M37.600 1.559 C 37.600 2.750,36.546 3.450,33.135 4.526 C 30.619 5.319,27.452 7.082,25.878 8.566 C 24.343 10.015,22.732 11.200,22.299 11.200 C 21.272 11.200,11.200 21.272,11.200 22.299 C 11.200 22.732,10.015 24.343,8.566 25.878 C 7.082 27.452,5.319 30.619,4.526 33.135 C 3.450 36.546,2.750 37.600,1.559 37.600 C 0.311 37.600,0.000 38.158,0.000 40.400 C 0.000 46.161,4.490 43.064,5.946 36.299 C 7.258 30.200,18.513 15.793,24.400 12.676 C 26.160 11.744,28.614 10.134,29.853 9.098 C 31.092 8.061,34.152 6.627,36.653 5.910 C 43.872 3.841,46.307 0.000,40.400 0.000 C 38.158 0.000,37.600 0.311,37.600 1.559 M356.800 1.502 C 356.800 3.555,358.037 4.388,363.347 5.910 C 365.848 6.627,368.908 8.061,370.147 9.098 C 371.386 10.134,373.840 11.744,375.600 12.676 C 381.487 15.793,392.742 30.200,394.054 36.299 C 395.510 43.064,400.000 46.161,400.000 40.400 C 400.000 38.158,399.689 37.600,398.441 37.600 C 397.250 37.600,396.550 36.546,395.474 33.135 C 394.681 30.619,392.918 27.452,391.434 25.878 C 389.985 24.343,388.800 22.732,388.800 22.299 C 388.800 21.272,378.728 11.200,377.701 11.200 C 377.268 11.200,375.657 10.015,374.122 8.566 C 372.548 7.082,369.381 5.319,366.865 4.526 C 363.454 3.450,362.400 2.750,362.400 1.559 C 362.400 0.311,361.842 0.000,359.600 0.000 C 357.394 0.000,356.800 0.319,356.800 1.502 M49.402 14.134 C 48.633 14.344,45.637 15.750,42.744 17.258 C 39.851 18.766,36.809 20.000,35.984 20.000 C 33.035 20.000,20.834 33.186,19.482 37.833 C 18.816 40.125,17.310 43.409,16.135 45.131 L 14.000 48.263 13.802 134.331 C 13.694 181.669,13.874 249.941,14.202 286.048 L 14.800 351.695 16.941 354.238 C 18.141 355.665,19.519 358.736,20.077 361.234 C 20.829 364.593,21.643 366.091,23.392 367.337 C 24.668 368.245,26.040 369.852,26.441 370.908 C 26.843 371.965,28.035 373.157,29.092 373.559 C 30.148 373.960,31.735 375.304,32.619 376.544 C 33.829 378.243,35.384 379.066,38.913 379.876 C 41.491 380.467,44.860 381.907,46.400 383.076 L 49.200 385.200 101.143 385.417 C 154.853 385.642,157.276 385.500,151.353 382.478 C 149.573 381.570,147.913 380.188,147.665 379.406 C 147.417 378.625,146.405 377.629,145.415 377.193 C 144.425 376.757,142.891 375.257,142.007 373.860 C 141.123 372.463,139.500 371.085,138.400 370.797 C 135.566 370.056,112.495 346.958,110.771 343.135 C 110.002 341.430,108.671 339.813,107.814 339.541 C 106.956 339.269,105.779 337.911,105.198 336.523 C 104.617 335.135,103.030 333.179,101.671 332.176 C 100.312 331.173,99.200 329.835,99.200 329.204 C 99.200 328.572,98.170 326.873,96.911 325.428 C 94.296 322.426,92.000 318.243,92.000 316.480 C 92.000 315.821,90.908 314.260,89.573 313.013 C 88.010 311.552,86.745 309.225,86.019 306.473 C 85.400 304.124,84.176 301.436,83.300 300.501 C 81.326 298.393,80.000 295.002,80.000 292.061 C 80.000 290.831,78.927 287.814,77.615 285.355 C 70.825 272.632,70.588 232.612,77.265 226.339 C 78.304 225.363,79.550 223.364,80.034 221.896 C 80.519 220.428,81.922 218.510,83.152 217.634 C 84.382 216.758,85.840 214.952,86.391 213.621 C 86.943 212.289,87.681 211.200,88.032 211.200 C 88.383 211.200,89.842 209.958,91.274 208.440 C 92.706 206.921,94.883 205.263,96.112 204.754 C 97.341 204.244,98.564 203.143,98.830 202.305 C 99.096 201.468,100.458 200.193,101.857 199.474 C 103.256 198.754,105.809 196.963,107.530 195.494 C 109.252 194.025,111.897 192.592,113.409 192.308 C 114.920 192.024,117.199 190.774,118.473 189.529 C 119.746 188.284,122.633 186.718,124.888 186.048 C 127.143 185.378,129.875 183.943,130.960 182.858 C 132.201 181.617,134.614 180.544,137.466 179.963 C 139.960 179.455,142.720 178.400,143.600 177.619 C 146.120 175.384,148.445 174.410,153.397 173.515 C 155.929 173.058,159.363 171.752,161.029 170.613 C 162.824 169.386,166.388 168.102,169.777 167.461 C 172.923 166.866,176.060 165.890,176.748 165.292 C 179.236 163.132,181.791 162.292,189.304 161.164 C 195.189 160.281,197.490 159.562,199.298 158.040 C 200.590 156.953,202.807 155.869,204.224 155.631 C 205.641 155.393,209.098 154.851,211.907 154.427 C 214.716 154.002,217.596 153.148,218.307 152.530 C 220.751 150.405,223.112 149.596,229.349 148.747 C 233.592 148.169,236.586 147.252,238.669 145.891 C 240.527 144.677,244.314 143.410,248.269 142.678 C 252.260 141.941,255.912 140.714,257.660 139.524 C 259.233 138.453,262.894 136.918,265.796 136.113 C 268.697 135.309,272.208 133.694,273.597 132.525 C 274.986 131.356,276.545 130.398,277.061 130.395 C 281.721 130.373,287.765 119.275,285.475 114.947 C 283.535 111.280,274.648 102.141,271.424 100.497 C 270.007 99.775,268.487 98.510,268.047 97.688 C 267.607 96.865,265.886 95.645,264.223 94.976 C 262.561 94.308,259.769 92.619,258.019 91.224 C 256.270 89.829,253.845 88.489,252.631 88.246 C 251.416 88.003,249.475 86.927,248.318 85.854 C 247.160 84.781,244.365 83.178,242.106 82.291 C 239.848 81.405,237.230 79.962,236.288 79.084 C 235.347 78.206,232.287 76.783,229.488 75.921 C 226.690 75.060,223.388 73.618,222.152 72.718 C 220.915 71.817,217.920 70.398,215.495 69.564 C 213.071 68.730,210.036 67.163,208.752 66.082 C 207.467 65.001,204.429 63.704,202.000 63.200 C 199.531 62.687,196.526 61.393,195.184 60.264 C 193.863 59.153,190.717 57.710,188.192 57.057 C 185.666 56.405,182.700 55.040,181.600 54.024 C 180.500 53.008,177.603 51.609,175.163 50.914 C 172.723 50.219,169.895 48.766,168.880 47.685 C 167.836 46.574,165.294 45.302,163.030 44.759 C 160.828 44.231,157.896 42.821,156.513 41.626 C 155.131 40.431,152.868 39.068,151.484 38.597 C 150.100 38.127,147.089 36.450,144.794 34.871 C 142.498 33.292,140.133 32.000,139.538 32.000 C 138.943 32.000,137.273 30.970,135.828 29.711 C 134.383 28.452,131.940 26.783,130.400 26.002 C 128.860 25.221,126.249 23.371,124.598 21.891 C 122.946 20.411,121.255 19.200,120.838 19.200 C 120.422 19.200,118.988 18.030,117.652 16.600 L 115.223 14.000 83.011 13.876 C 65.295 13.807,50.171 13.924,49.402 14.134 M154.000 14.164 C 150.643 14.985,151.231 15.880,156.215 17.538 C 159.052 18.482,162.155 20.088,163.111 21.106 C 164.134 22.194,166.656 23.361,169.234 23.938 C 171.646 24.477,174.694 25.824,176.009 26.930 C 177.345 28.055,180.605 29.455,183.400 30.105 C 186.150 30.745,189.689 32.160,191.264 33.249 C 192.858 34.351,196.761 35.774,200.064 36.456 C 203.329 37.131,207.380 38.589,209.067 39.697 C 211.427 41.247,220.071 43.871,223.200 43.987 C 223.420 43.995,224.576 44.841,225.769 45.867 C 227.177 47.078,229.912 48.085,233.563 48.738 C 236.817 49.319,240.402 50.567,242.069 51.698 C 243.653 52.774,247.355 54.159,250.294 54.778 C 256.948 56.177,259.380 57.089,260.697 58.676 C 261.798 60.003,264.989 61.162,269.716 61.953 C 271.319 62.221,273.942 63.482,275.543 64.755 C 277.144 66.027,279.911 67.315,281.692 67.616 C 283.495 67.920,286.075 69.168,287.514 70.432 C 288.935 71.680,291.837 73.139,293.962 73.674 C 296.087 74.209,298.945 75.606,300.313 76.778 C 301.681 77.950,304.060 79.405,305.600 80.010 C 313.400 83.075,330.803 100.948,332.027 107.150 C 332.510 109.597,333.255 112.728,333.684 114.107 C 334.562 116.935,332.714 131.571,331.097 134.593 C 327.913 140.541,311.904 155.258,306.203 157.476 C 304.331 158.205,301.823 159.730,300.629 160.865 C 299.435 162.000,296.915 163.380,295.029 163.930 C 293.143 164.481,290.340 165.777,288.800 166.810 C 287.260 167.844,283.660 169.285,280.800 170.012 C 277.940 170.740,275.060 171.798,274.400 172.365 C 272.211 174.243,269.764 175.187,263.877 176.426 C 260.671 177.100,257.317 178.332,256.424 179.164 C 255.531 179.995,251.833 181.410,248.207 182.309 C 244.581 183.207,240.621 184.675,239.407 185.572 C 238.193 186.469,234.387 187.740,230.949 188.398 C 227.510 189.055,223.182 190.481,221.331 191.566 C 219.479 192.651,215.452 194.114,212.382 194.817 C 209.312 195.520,205.533 196.925,203.984 197.938 C 202.435 198.951,199.028 200.402,196.414 201.162 C 193.800 201.922,190.633 203.408,189.377 204.465 C 188.121 205.522,185.182 206.942,182.845 207.621 C 180.509 208.300,177.930 209.593,177.115 210.494 C 176.300 211.395,174.452 212.625,173.009 213.228 C 157.352 219.770,150.150 246.548,160.789 258.665 C 162.055 260.107,163.336 262.263,163.635 263.456 C 163.935 264.649,165.129 266.368,166.290 267.277 C 167.450 268.185,168.947 269.889,169.615 271.064 C 171.793 274.892,189.011 292.800,190.514 292.800 C 190.930 292.800,193.880 295.452,197.070 298.693 C 200.259 301.935,203.664 304.840,204.637 305.148 C 205.610 305.457,206.869 306.594,207.435 307.674 C 208.001 308.754,209.710 310.259,211.232 311.019 C 212.754 311.778,214.340 313.174,214.755 314.120 C 215.186 315.100,216.780 316.220,218.464 316.725 C 220.088 317.211,222.898 319.047,224.709 320.805 C 226.520 322.562,228.523 324.000,229.160 324.000 C 229.797 324.000,231.247 325.217,232.381 326.704 C 233.516 328.192,235.424 329.613,236.622 329.863 C 237.820 330.113,239.786 331.247,240.992 332.384 C 242.198 333.520,244.739 335.116,246.638 335.931 C 248.538 336.745,250.689 338.322,251.419 339.436 C 252.149 340.550,253.787 341.690,255.060 341.969 C 256.334 342.249,258.384 343.531,259.617 344.817 C 260.850 346.104,263.625 347.744,265.784 348.461 C 268.324 349.305,270.006 350.417,270.551 351.612 C 271.117 352.855,272.531 353.745,274.876 354.336 C 276.791 354.818,279.614 356.315,281.149 357.662 C 282.683 359.010,285.192 360.458,286.724 360.881 C 288.255 361.304,290.951 362.855,292.714 364.328 C 294.478 365.802,297.141 367.236,298.632 367.516 C 300.124 367.796,302.195 368.930,303.235 370.037 C 304.275 371.144,306.993 372.593,309.275 373.256 C 311.557 373.920,314.453 375.358,315.712 376.452 C 316.970 377.547,319.903 379.002,322.229 379.686 C 324.555 380.370,327.418 381.891,328.592 383.065 C 331.870 386.345,349.282 386.352,353.600 383.076 C 355.140 381.907,358.509 380.467,361.087 379.876 C 364.616 379.066,366.171 378.243,367.381 376.544 C 368.265 375.304,369.852 373.960,370.908 373.559 C 371.965 373.157,373.157 371.965,373.559 370.908 C 373.960 369.852,375.332 368.245,376.608 367.337 C 378.357 366.091,379.171 364.593,379.923 361.234 C 380.481 358.736,381.859 355.665,383.059 354.238 L 385.200 351.695 385.798 286.048 C 386.126 249.941,386.306 181.669,386.198 134.331 L 386.000 48.263 383.865 45.131 C 382.690 43.409,381.184 40.125,380.518 37.833 C 379.166 33.186,366.965 20.000,364.016 20.000 C 363.191 20.000,360.060 18.650,357.058 17.000 L 351.600 14.000 253.600 13.887 C 199.700 13.824,154.880 13.949,154.000 14.164 M-0.000 359.489 C -0.000 361.761,0.331 362.337,1.756 362.544 C 3.136 362.745,3.810 363.805,4.902 367.496 C 5.743 370.334,7.225 373.104,8.649 374.496 C 9.946 375.763,11.434 377.833,11.957 379.096 C 12.480 380.359,13.789 381.794,14.866 382.284 C 15.943 382.775,17.225 384.057,17.716 385.134 C 18.206 386.211,19.641 387.520,20.904 388.043 C 22.167 388.566,24.237 390.054,25.504 391.351 C 26.896 392.775,29.666 394.257,32.504 395.098 C 36.195 396.190,37.255 396.864,37.456 398.244 C 37.654 399.605,38.251 400.000,40.111 400.000 C 44.249 400.000,42.913 396.793,38.000 394.931 C 32.063 392.681,29.626 391.428,25.200 388.350 C 20.848 385.324,13.600 378.581,13.600 377.559 C 13.600 377.209,12.271 375.185,10.646 373.061 C 9.022 370.938,6.772 366.500,5.646 363.200 C 3.240 356.145,0.000 354.015,-0.000 359.489 M396.108 358.200 C 395.696 358.970,394.766 361.643,394.041 364.139 C 393.315 366.636,391.624 370.056,390.283 371.739 C 388.942 373.423,387.365 375.721,386.780 376.848 C 385.409 379.488,379.488 385.409,376.848 386.780 C 375.721 387.365,373.399 388.960,371.687 390.325 C 369.974 391.689,366.853 393.316,364.749 393.941 C 359.314 395.555,357.600 396.631,357.600 398.428 C 357.600 400.793,362.979 400.710,363.344 398.339 C 363.530 397.131,364.757 396.289,367.842 395.248 C 370.176 394.461,373.146 392.732,374.442 391.406 C 375.739 390.079,377.833 388.566,379.096 388.043 C 380.359 387.520,381.794 386.211,382.284 385.134 C 382.775 384.057,384.057 382.775,385.134 382.284 C 386.211 381.794,387.520 380.359,388.043 379.096 C 388.566 377.833,390.054 375.763,391.351 374.496 C 392.775 373.104,394.257 370.334,395.098 367.496 C 396.190 363.805,396.864 362.745,398.244 362.544 C 400.697 362.187,400.870 356.800,398.428 356.800 C 397.564 356.800,396.520 357.430,396.108 358.200 " stroke="none" fill="#82ccf9" fill-rule="evenodd"></path><path id="path4" d="M32.000 1.536 C 32.000 2.625,31.243 3.231,29.400 3.615 C 25.761 4.374,23.200 6.166,23.200 7.955 C 23.200 9.020,22.425 9.639,20.600 10.029 C 17.165 10.763,16.000 11.794,16.000 14.098 C 16.000 15.567,15.567 16.000,14.098 16.000 C 11.794 16.000,10.763 17.165,10.029 20.600 C 9.639 22.425,9.020 23.200,7.955 23.200 C 6.166 23.200,4.374 25.761,3.615 29.400 C 3.231 31.243,2.625 32.000,1.536 32.000 C 0.314 32.000,0.000 32.572,0.000 34.800 C 0.000 39.641,2.799 38.612,4.526 33.135 C 5.319 30.619,7.082 27.452,8.566 25.878 C 10.015 24.343,11.200 22.732,11.200 22.299 C 11.200 21.272,21.272 11.200,22.299 11.200 C 22.732 11.200,24.343 10.015,25.878 8.566 C 27.452 7.082,30.619 5.319,33.135 4.526 C 38.612 2.799,39.641 0.000,34.800 0.000 C 32.572 0.000,32.000 0.314,32.000 1.536 M362.400 1.559 C 362.400 2.750,363.454 3.450,366.865 4.526 C 369.381 5.319,372.548 7.082,374.122 8.566 C 375.657 10.015,377.268 11.200,377.701 11.200 C 378.728 11.200,388.800 21.272,388.800 22.299 C 388.800 22.732,389.985 24.343,391.434 25.878 C 392.918 27.452,394.681 30.619,395.474 33.135 C 397.201 38.612,400.000 39.641,400.000 34.800 C 400.000 32.572,399.686 32.000,398.464 32.000 C 397.375 32.000,396.769 31.243,396.385 29.400 C 395.626 25.761,393.834 23.200,392.045 23.200 C 390.980 23.200,390.361 22.425,389.971 20.600 C 389.237 17.165,388.206 16.000,385.902 16.000 C 384.433 16.000,384.000 15.567,384.000 14.098 C 384.000 11.794,382.835 10.763,379.400 10.029 C 377.575 9.639,376.800 9.020,376.800 7.955 C 376.800 6.166,374.239 4.374,370.600 3.615 C 368.757 3.231,368.000 2.625,368.000 1.536 C 368.000 0.314,367.428 0.000,365.200 0.000 C 362.958 0.000,362.400 0.311,362.400 1.559 M0.000 363.944 C 0.000 365.033,0.516 365.600,1.509 365.600 C 2.696 365.600,3.140 366.411,3.588 369.400 C 4.313 374.233,5.218 375.894,7.626 376.810 C 8.770 377.245,9.772 378.450,10.088 379.772 C 10.832 382.885,11.890 384.000,14.098 384.000 C 15.567 384.000,16.000 384.433,16.000 385.902 C 16.000 388.110,17.115 389.168,20.228 389.912 C 21.550 390.228,22.755 391.230,23.190 392.374 C 24.106 394.782,25.767 395.687,30.600 396.412 C 33.589 396.860,34.400 397.304,34.400 398.491 C 34.400 399.484,34.967 400.000,36.056 400.000 C 39.954 400.000,37.467 396.567,32.504 395.098 C 29.666 394.257,26.896 392.775,25.504 391.351 C 24.237 390.054,22.167 388.566,20.904 388.043 C 19.641 387.520,18.206 386.211,17.716 385.134 C 17.225 384.057,15.943 382.775,14.866 382.284 C 13.789 381.794,12.480 380.359,11.957 379.096 C 11.434 377.833,9.946 375.763,8.649 374.496 C 7.225 373.104,5.743 370.334,4.902 367.496 C 3.433 362.533,0.000 360.046,0.000 363.944 M396.545 363.000 C 396.353 363.330,395.623 365.580,394.923 368.000 C 394.154 370.657,392.734 373.256,391.338 374.561 C 390.067 375.749,388.591 377.773,388.059 379.057 C 387.527 380.342,386.211 381.794,385.134 382.284 C 384.057 382.775,382.775 384.057,382.284 385.134 C 381.794 386.211,380.359 387.520,379.096 388.043 C 377.833 388.566,375.739 390.079,374.442 391.406 C 373.146 392.732,370.176 394.461,367.842 395.248 C 362.441 397.070,361.270 400.000,365.944 400.000 C 368.219 400.000,368.800 399.690,368.800 398.476 C 368.800 397.386,369.766 396.646,372.194 395.876 C 374.511 395.141,375.920 394.104,376.635 392.605 C 377.245 391.328,378.585 390.194,379.841 389.895 C 382.884 389.168,384.000 388.097,384.000 385.902 C 384.000 384.433,384.433 384.000,385.902 384.000 C 388.110 384.000,389.168 382.885,389.912 379.772 C 390.228 378.450,391.230 377.245,392.374 376.810 C 394.782 375.894,395.687 374.233,396.412 369.400 C 396.860 366.411,397.304 365.600,398.491 365.600 C 399.467 365.600,400.000 365.035,400.000 364.000 C 400.000 362.430,397.327 361.656,396.545 363.000 " stroke="none" fill="#dae9f2" fill-rule="evenodd"></path></g></svg>