<?xml version="1.0" encoding="utf-8"?>
<!-- Generator: Adobe Illustrator 20.1.0, SVG Export Plug-In . SVG Version: 6.00 Build 0)  -->
<svg version="1.1" id="JIRA_-_Blue" xmlns="http://www.w3.org/2000/svg" xmlns:xlink="http://www.w3.org/1999/xlink" x="0px"
	 y="0px" viewBox="0 0 128 128" style="enable-background:new 0 0 128 128;" xml:space="preserve">
<style type="text/css">
	.st0{fill:#205081;}
</style>
<g>
	<g>
		<g>
			<g>
				<g>
					<path class="st0" d="M36.5,7.6c-4.6,0-8.4,3.8-8.4,8.4s3.8,8.4,8.4,8.4s8.4-3.8,8.4-8.4C44.8,11.4,41.1,7.6,36.5,7.6L36.5,7.6
						L36.5,7.6z"/>
				</g>
			</g>
			<g>
				<g>
					<path class="st0" d="M91.5,7.6c-4.6,0-8.4,3.8-8.4,8.4s3.8,8.4,8.4,8.4c4.6,0,8.4-3.8,8.4-8.4C100,11.4,96.2,7.6,91.5,7.6
						L91.5,7.6L91.5,7.6z"/>
				</g>
			</g>
		</g>
		<g>
			<g>
				<path class="st0" d="M64-0.1c-4.6,0-8.4,3.8-8.4,8.4s3.8,8.4,8.4,8.4s8.4-3.8,8.4-8.4C72.4,3.7,68.6-0.1,64-0.1L64-0.1L64-0.1z"
					/>
			</g>
		</g>
	</g>
	<g>
		<path class="st0" d="M111.5,31c-0.5-0.4-1-0.5-1.6-0.5c-0.3,0-0.6,0.1-0.9,0.2c-5.7,2.2-11.4,3.9-16.7,5c-1.1,0.2-1.9,1.1-2.3,2
			c-3.9,10.5-13.7,20.5-23.9,31c-0.4,0.4-1,0.9-1.9,0.9s-1.5-0.5-1.9-0.9C51.8,58.2,42,48.3,38.1,37.7c-0.4-0.9-1.2-1.8-2.3-2
			c-5.2-1.2-11-2.9-16.7-5.1c-0.3-0.2-0.6-0.2-0.9-0.2c-0.5,0-1.2,0.2-1.6,0.5c-0.7,0.5-1.1,1.5-1,2.3c0.8,8.7,4.3,17.3,10.6,26.2
			C32,67.9,39.6,75.7,47,83.3c13.6,13.9,26.5,27,27.6,42.2c0.1,1.4,1.2,2.5,2.6,2.5h16c0.7,0,1.4-0.3,1.9-0.8
			c0.5-0.5,0.8-1.2,0.7-1.9C95.3,115,91.5,104.8,84.1,94c-1.5-2.2-3.2-4.5-4.9-6.6c-0.7-0.8-0.4-1.9,0.2-2.5
			c0.5-0.5,1.1-1.1,1.6-1.6c7.4-7.6,15-15.4,20.9-23.8c6.3-9,9.7-17.4,10.6-26.2C112.5,32.5,112.2,31.6,111.5,31z"/>
		<g>
			<path class="st0" d="M46.8,95.2c-0.4-0.4-0.9-0.8-1.9-0.8c-1.2,0-1.9,0.8-2.2,1.2c-6.7,10.3-10.2,19.9-10.7,29.6
				c0,0.7,0.2,1.5,0.7,1.9c0.5,0.5,1.2,0.8,1.9,0.8h16c1.4,0,2.5-1.1,2.6-2.5c0.4-4.7,1.8-9.3,4.5-14.3c0.9-1.7,0.2-3.3-0.3-4
				C54.8,103.8,51.7,100.2,46.8,95.2z"/>
		</g>
		<path class="st0" d="M64,38.8c5,0,7.9-0.3,9-0.3c1.2,0,2.4,1,2.4,2.5c0,0.4-0.1,0.7-0.2,1c-0.7,1.8-3.7,8.2-9.3,13.7
			c-0.6,0.6-1.4,0.7-1.9,0.7l0,0c-0.5,0-1.2-0.1-1.9-0.7c-5.6-5.5-8.6-11.9-9.3-13.7c-0.1-0.2-0.2-0.5-0.2-1c0-1.4,1.2-2.5,2.4-2.5
			C56.1,38.5,59,38.8,64,38.8L64,38.8z"/>
	</g>
</g>
</svg>
