<!DOCTYPE svg PUBLIC "-//W3C//DTD SVG 20010904//EN" "http://www.w3.org/TR/2001/REC-SVG-20010904/DTD/svg10.dtd">
<svg version="1.0" xmlns="http://www.w3.org/2000/svg" width="400px" height="400px" viewBox="0 0 4000 4000" preserveAspectRatio="xMidYMid meet">
<g id="layer1" fill="#5e81a5" stroke="none">
 </g>
<g id="layer2" fill="#d4dee7" stroke="none">
 <path d="M1603 2731 c-13 -11 -23 -22 -23 -25 0 -13 28 -5 43 12 32 35 17 43 -20 13z"/>
 <path d="M1545 2400 c-16 -16 -25 -33 -22 -37 8 -7 67 45 67 59 0 16 -17 8 -45 -22z"/>
 <path d="M2420 2422 c0 -14 59 -66 67 -59 3 4 -6 21 -22 37 -28 30 -45 38 -45 22z"/>
 <path d="M1945 2109 c-4 -6 -5 -13 -2 -16 7 -7 27 6 27 18 0 12 -17 12 -25 -2z"/>
 <path d="M2042 2109 c2 -7 10 -15 17 -17 8 -3 12 1 9 9 -2 7 -10 15 -17 17 -8 3 -12 -1 -9 -9z"/>
 <path d="M1005 1710 c-9 -18 -14 -34 -11 -37 2 -3 12 9 21 27 9 18 14 34 11 37 -2 3 -12 -9 -21 -27z"/>
 <path d="M2980 1735 c0 -13 32 -66 36 -62 6 6 -23 67 -31 67 -3 0 -5 -2 -5 -5z"/>
 <path d="M1760 1550 c-6 -12 -9 -24 -7 -27 3 -2 11 5 17 17 6 12 9 24 7 27 -3 2 -11 -5 -17 -17z"/>
 <path d="M2230 1564 c0 -5 7 -19 15 -30 8 -10 15 -14 15 -8 0 5 -7 19 -15 30 -8 10 -15 14 -15 8z"/>
 </g>
<g id="layer3" fill="#93abc2" stroke="none">
 <path d="M1695 2550 c-10 -11 -15 -23 -12 -27 8 -7 47 25 47 39 0 14 -16 9 -35 -12z"/>
 <path d="M1835 1999 c-4 -6 -5 -13 -2 -16 7 -7 27 6 27 18 0 12 -17 12 -25 -2z"/>
 <path d="M2152 1999 c2 -7 10 -15 17 -17 8 -3 12 1 9 9 -2 7 -10 15 -17 17 -8 3 -12 -1 -9 -9z"/>
 <path d="M1910 1425 c0 -10 11 -15 35 -15 24 0 35 5 35 15 0 10 -11 15 -35 15 -24 0 -35 -5 -35 -15z"/>
 <path d="M2030 1425 c0 -10 11 -15 35 -15 24 0 35 5 35 15 0 10 -11 15 -35 15 -24 0 -35 -5 -35 -15z"/>
 <path d="M3070 1240 c0 -5 7 -10 15 -10 8 0 15 5 15 10 0 6 -7 10 -15 10 -8 0 -15 -4 -15 -10z"/>
 <path d="M1910 900 c0 -5 7 -10 15 -10 8 0 15 5 15 10 0 6 -7 10 -15 10 -8 0 -15 -4 -15 -10z"/>
 <path d="M2070 900 c0 -5 7 -10 15 -10 8 0 15 5 15 10 0 6 -7 10 -15 10 -8 0 -15 -4 -15 -10z"/>
 </g>
<g id="layer4" fill="#3b6691" stroke="none">
 <path d="M2256 3454 c-9 -24 -7 -28 9 -14 17 14 20 30 6 30 -5 0 -12 -7 -15 -16z"/>
 <path d="M2720 3420 c0 -5 7 -10 15 -10 8 0 15 5 15 10 0 6 -7 10 -15 10 -8 0 -15 -4 -15 -10z"/>
 <path d="M1390 2955 c0 -13 32 -66 36 -62 6 6 -23 67 -31 67 -3 0 -5 -2 -5 -5z"/>
 <path d="M1515 2360 c-10 -11 -15 -23 -12 -27 8 -7 47 25 47 39 0 14 -16 9 -35 -12z"/>
 <path d="M2460 2372 c0 -14 39 -46 47 -39 3 4 -2 16 -12 27 -19 21 -35 26 -35 12z"/>
 <path d="M1760 1430 c0 -5 7 -10 15 -10 8 0 15 5 15 10 0 6 -7 10 -15 10 -8 0 -15 -4 -15 -10z"/>
 <path d="M2220 1430 c0 -5 7 -10 15 -10 8 0 15 5 15 10 0 6 -7 10 -15 10 -8 0 -15 -4 -15 -10z"/>
 <path d="M1270 1070 c0 -5 7 -10 15 -10 8 0 15 5 15 10 0 6 -7 10 -15 10 -8 0 -15 -4 -15 -10z"/>
 <path d="M1440 1070 c0 -5 7 -10 15 -10 8 0 15 5 15 10 0 6 -7 10 -15 10 -8 0 -15 -4 -15 -10z"/>
 <path d="M2540 1070 c0 -5 7 -10 15 -10 8 0 15 5 15 10 0 6 -7 10 -15 10 -8 0 -15 -4 -15 -10z"/>
 <path d="M2710 1070 c0 -5 7 -10 15 -10 8 0 15 5 15 10 0 6 -7 10 -15 10 -8 0 -15 -4 -15 -10z"/>
 <path d="M1270 730 c0 -5 7 -10 15 -10 8 0 15 5 15 10 0 6 -7 10 -15 10 -8 0 -15 -4 -15 -10z"/>
 <path d="M1440 730 c0 -5 7 -10 15 -10 8 0 15 5 15 10 0 6 -7 10 -15 10 -8 0 -15 -4 -15 -10z"/>
 <path d="M2540 730 c0 -5 7 -10 15 -10 8 0 15 5 15 10 0 6 -7 10 -15 10 -8 0 -15 -4 -15 -10z"/>
 </g>
<g id="layer5" fill="#7895b3" stroke="none">
 <path d="M1260 3370 c0 -5 7 -10 15 -10 8 0 15 5 15 10 0 6 -7 10 -15 10 -8 0 -15 -4 -15 -10z"/>
 <path d="M1735 2589 c-4 -6 -5 -13 -2 -16 7 -7 27 6 27 18 0 12 -17 12 -25 -2z"/>
 <path d="M1425 2269 c-4 -6 -5 -13 -2 -16 7 -7 27 6 27 18 0 12 -17 12 -25 -2z"/>
 <path d="M2562 2269 c2 -7 10 -15 17 -17 8 -3 12 1 9 9 -2 7 -10 15 -17 17 -8 3 -12 -1 -9 -9z"/>
 <path d="M1805 1969 c-4 -6 -5 -13 -2 -16 7 -7 27 6 27 18 0 12 -17 12 -25 -2z"/>
 <path d="M2182 1969 c2 -7 10 -15 17 -17 8 -3 12 1 9 9 -2 7 -10 15 -17 17 -8 3 -12 -1 -9 -9z"/>
 <path d="M1940 1805 c-7 -9 -10 -18 -7 -22 8 -7 37 15 37 28 0 14 -16 11 -30 -6z"/>
 <path d="M2040 1811 c0 -13 29 -35 37 -28 7 8 -15 37 -28 37 -5 0 -9 -4 -9 -9z"/>
 <path d="M1880 1425 c0 -8 7 -15 15 -15 8 0 15 7 15 15 0 8 -7 15 -15 15 -8 0 -15 -7 -15 -15z"/>
 <path d="M2100 1425 c0 -8 7 -15 15 -15 8 0 15 7 15 15 0 8 -7 15 -15 15 -8 0 -15 -7 -15 -15z"/>
 <path d="M940 1235 c0 -8 5 -15 10 -15 6 0 10 7 10 15 0 8 -4 15 -10 15 -5 0 -10 -7 -10 -15z"/>
 <path d="M3050 1235 c0 -8 5 -15 10 -15 6 0 10 7 10 15 0 8 -4 15 -10 15 -5 0 -10 -7 -10 -15z"/>
 </g>
<g id="layer6" fill="#50769c" stroke="none">
 <path d="M1285 3469 c-4 -6 -5 -12 -2 -15 7 -7 37 7 37 17 0 13 -27 11 -35 -2z"/>
 <path d="M1710 3473 c1 -10 50 -47 50 -38 0 17 -22 45 -35 45 -8 0 -15 -3 -15 -7z"/>
 <path d="M2690 3471 c0 -10 30 -24 37 -17 3 3 2 9 -2 15 -8 13 -35 15 -35 2z"/>
 <path d="M2720 3400 c0 -5 7 -10 15 -10 8 0 15 5 15 10 0 6 -7 10 -15 10 -8 0 -15 -4 -15 -10z"/>
 <path d="M2160 3130 c-6 -12 -9 -24 -7 -27 3 -2 11 5 17 17 6 12 9 24 7 27 -3 2 -11 -5 -17 -17z"/>
 <path d="M2610 2960 c-6 -12 -9 -24 -7 -27 3 -2 11 5 17 17 6 12 9 24 7 27 -3 2 -11 -5 -17 -17z"/>
 <path d="M1655 2789 c-4 -6 -5 -13 -2 -16 7 -7 27 6 27 18 0 12 -17 12 -25 -2z"/>
 <path d="M1775 2629 c-4 -6 -5 -13 -2 -16 7 -7 27 6 27 18 0 12 -17 12 -25 -2z"/>
 <path d="M2330 2520 c0 -5 7 -10 15 -10 8 0 15 5 15 10 0 6 -7 10 -15 10 -8 0 -15 -4 -15 -10z"/>
 <path d="M1470 2315 c-7 -9 -10 -18 -7 -22 8 -7 37 15 37 28 0 14 -16 11 -30 -6z"/>
 <path d="M2510 2321 c0 -13 29 -35 37 -28 7 8 -15 37 -28 37 -5 0 -9 -4 -9 -9z"/>
 <path d="M1840 1425 c0 -8 7 -15 15 -15 8 0 15 7 15 15 0 8 -7 15 -15 15 -8 0 -15 -7 -15 -15z"/>
 <path d="M2140 1425 c0 -8 7 -15 15 -15 8 0 15 7 15 15 0 8 -7 15 -15 15 -8 0 -15 -7 -15 -15z"/>
 <path d="M1225 1039 c-4 -6 -5 -13 -2 -16 7 -7 27 6 27 18 0 12 -17 12 -25 -2z"/>
 <path d="M2762 1039 c2 -7 10 -15 17 -17 8 -3 12 1 9 9 -2 7 -10 15 -17 17 -8 3 -12 -1 -9 -9z"/>
 <path d="M1222 769 c2 -7 10 -15 17 -17 8 -3 12 1 9 9 -2 7 -10 15 -17 17 -8 3 -12 -1 -9 -9z"/>
 <path d="M1495 769 c-4 -6 -5 -13 -2 -16 7 -7 27 6 27 18 0 12 -17 12 -25 -2z"/>
 <path d="M1803 725 c0 -14 5 -25 12 -25 7 0 13 11 13 25 0 14 -6 25 -13 25 -7 0 -12 -11 -12 -25z"/>
 <path d="M2180 720 c0 -11 7 -20 15 -20 8 0 15 9 15 20 0 11 -7 20 -15 20 -8 0 -15 -9 -15 -20z"/>
 <path d="M2710 730 c0 -5 7 -10 15 -10 8 0 15 5 15 10 0 6 -7 10 -15 10 -8 0 -15 -4 -15 -10z"/>
 </g>
<g id="layer7" fill="#b7c6d6" stroke="none">
 <path d="M2230 3400 c0 -5 7 -10 15 -10 8 0 15 5 15 10 0 6 -7 10 -15 10 -8 0 -15 -4 -15 -10z"/>
 <path d="M2720 3350 c0 -5 7 -10 15 -10 8 0 15 5 15 10 0 6 -7 10 -15 10 -8 0 -15 -4 -15 -10z"/>
 <path d="M2155 3130 c-9 -18 -14 -34 -11 -37 2 -3 12 9 21 27 9 18 14 34 11 37 -2 3 -12 -9 -21 -27z"/>
 <path d="M1380 2965 c0 -13 52 -107 56 -102 6 5 -43 107 -51 107 -3 0 -5 -2 -5 -5z"/>
 <path d="M2600 2930 c-12 -23 -19 -44 -16 -47 2 -3 14 14 26 37 12 23 19 44 16 47 -2 3 -14 -14 -26 -37z"/>
 <path d="M1835 2699 c-4 -6 -5 -13 -2 -16 7 -7 27 6 27 18 0 12 -17 12 -25 -2z"/>
 <path d="M1625 2480 c-21 -22 -36 -43 -32 -47 8 -7 87 65 87 79 0 17 -17 7 -55 -32z"/>
 <path d="M2360 2482 c0 -14 49 -56 57 -49 3 4 -4 18 -17 32 -24 25 -40 32 -40 17z"/>
 <path d="M1385 2229 c-4 -6 -5 -13 -2 -16 7 -7 27 6 27 18 0 12 -17 12 -25 -2z"/>
 <path d="M2602 2229 c2 -7 10 -15 17 -17 8 -3 12 1 9 9 -2 7 -10 15 -17 17 -8 3 -12 -1 -9 -9z"/>
 <path d="M1890 2055 c-18 -19 -30 -38 -27 -42 8 -7 77 55 77 69 0 16 -17 7 -50 -27z"/>
 <path d="M2070 2082 c0 -14 69 -76 77 -69 3 4 -9 23 -27 42 -33 34 -50 43 -50 27z"/>
 <path d="M2272 1869 c2 -7 10 -15 17 -17 8 -3 12 1 9 9 -2 7 -10 15 -17 17 -8 3 -12 -1 -9 -9z"/>
 <path d="M1980 1425 c0 -9 9 -15 25 -15 16 0 25 6 25 15 0 9 -9 15 -25 15 -16 0 -25 -6 -25 -15z"/>
 <path d="M2590 1403 c0 -17 31 -53 46 -53 8 0 14 3 13 8 0 10 -59 55 -59 45z"/>
 <path d="M1370 1370 c-8 -5 -11 -12 -8 -16 10 -9 38 3 38 16 0 12 -10 13 -30 0z"/>
 <path d="M1340 1095 c0 -10 10 -15 30 -15 20 0 30 5 30 15 0 10 -10 15 -30 15 -20 0 -30 -5 -30 -15z"/>
 <path d="M2610 1095 c0 -10 10 -15 30 -15 20 0 30 5 30 15 0 10 -10 15 -30 15 -20 0 -30 -5 -30 -15z"/>
 <path d="M1270 1080 c-8 -5 -12 -12 -8 -15 9 -9 48 4 48 16 0 12 -21 11 -40 -1z"/>
 <path d="M2700 1081 c0 -12 39 -25 48 -16 7 7 -17 25 -35 25 -7 0 -13 -4 -13 -9z"/>
 <path d="M1160 900 c0 -11 7 -20 15 -20 8 0 15 9 15 20 0 11 -7 20 -15 20 -8 0 -15 -9 -15 -20z"/>
 <path d="M1550 900 c0 -11 7 -20 15 -20 8 0 15 9 15 20 0 11 -7 20 -15 20 -8 0 -15 -9 -15 -20z"/>
 <path d="M2430 900 c0 -11 7 -20 15 -20 8 0 15 9 15 20 0 11 -7 20 -15 20 -8 0 -15 -9 -15 -20z"/>
 <path d="M2820 900 c0 -5 7 -10 15 -10 8 0 15 5 15 10 0 6 -7 10 -15 10 -8 0 -15 -4 -15 -10z"/>
 <path d="M1540 820 c-6 -12 -9 -24 -7 -27 3 -2 11 5 17 17 6 12 9 24 7 27 -3 2 -11 -5 -17 -17z"/>
 <path d="M1260 730 c0 -5 7 -10 15 -10 8 0 15 5 15 10 0 6 -7 10 -15 10 -8 0 -15 -4 -15 -10z"/>
 <path d="M1440 730 c-8 -5 -12 -12 -8 -15 9 -9 48 4 48 16 0 12 -21 11 -40 -1z"/>
 <path d="M2530 731 c0 -12 39 -25 48 -16 7 7 -17 25 -35 25 -7 0 -13 -4 -13 -9z"/>
 <path d="M2720 730 c0 -5 7 -10 15 -10 8 0 15 5 15 10 0 6 -7 10 -15 10 -8 0 -15 -4 -15 -10z"/>
 <path d="M1350 705 c0 -8 9 -15 20 -15 11 0 20 7 20 15 0 8 -9 15 -20 15 -11 0 -20 -7 -20 -15z"/>
 <path d="M2620 705 c0 -8 9 -15 20 -15 11 0 20 7 20 15 0 8 -9 15 -20 15 -11 0 -20 -7 -20 -15z"/>
 <path d="M1900 550 c0 -5 7 -10 15 -10 8 0 15 5 15 10 0 6 -7 10 -15 10 -8 0 -15 -4 -15 -10z"/>
 <path d="M2080 550 c0 -5 7 -10 15 -10 8 0 15 5 15 10 0 6 -7 10 -15 10 -8 0 -15 -4 -15 -10z"/>
 </g>
<g id="layer8" fill="#1f5081" stroke="none">
 <path d="M1296 3469 c-23 -18 -26 -28 -26 -80 0 -76 23 -187 62 -297 36 -104 137 -305 179 -356 47 -56 68 -50 155 43 109 116 204 232 211 259 3 15 -7 50 -30 101 -41 90 -77 210 -77 259 0 24 -9 42 -29 63 l-29 29 -195 0 c-181 0 -196 -1 -221 -21z"/>
 <path d="M2275 3467 c-21 -18 -29 -38 -41 -104 -18 -104 -52 -196 -111 -298 -96 -166 -185 -272 -524 -625 -254 -264 -346 -367 -440 -493 -150 -204 -247 -424 -272 -619 -5 -37 -2 -51 14 -72 11 -14 30 -26 41 -26 11 0 91 22 177 49 86 27 183 58 216 68 l60 18 55 111 c83 165 183 295 409 527 84 85 132 127 146 127 14 0 63 -42 146 -127 222 -227 346 -389 420 -548 44 -95 53 -102 169 -130 41 -10 127 -35 190 -57 63 -21 124 -38 136 -38 13 0 32 12 43 26 23 29 21 67 -9 189 -72 284 -213 495 -627 934 -68 72 -123 134 -123 140 0 5 28 47 62 93 204 275 328 570 328 783 0 46 -4 57 -26 74 -25 20 -40 21 -220 21 -186 0 -194 -1 -219 -23z"/>
 <path d="M1919 1773 c-85 -93 -179 -249 -179 -296 0 -13 9 -32 19 -41 18 -16 44 -18 246 -18 202 0 228 2 246 18 10 9 19 28 19 41 0 47 -94 203 -179 296 -44 47 -59 57 -86 57 -27 0 -42 -10 -86 -57z"/>
 <path d="M1295 1081 c-72 -33 -125 -111 -125 -183 1 -97 103 -198 200 -198 98 0 200 102 200 200 0 73 -58 153 -132 184 -49 21 -94 20 -143 -3z"/>
 <path d="M2565 1081 c-72 -33 -125 -111 -125 -183 1 -97 103 -198 200 -198 98 0 200 102 200 200 0 73 -58 153 -132 184 -49 21 -94 20 -143 -3z"/>
 <path d="M1925 905 c-78 -42 -115 -102 -115 -185 0 -62 16 -95 69 -143 87 -79 190 -71 274 22 43 48 51 73 45 147 -5 60 -23 91 -82 138 -30 25 -48 31 -99 34 -43 2 -71 -2 -92 -13z"/>
 </g>

</svg>