<svg id="Layer_1" data-name="Layer 1" xmlns="http://www.w3.org/2000/svg" viewBox="0 0 182 182"><defs><style>.cls-1{fill:#1f5182;}</style></defs><title>logo-icon</title><path class="cls-1" d="M55.5,9.9A10.8,10.8,0,1,0,66.3,20.7,10.8,10.8,0,0,0,55.5,9.9h0Z"/><path class="cls-1" d="M126.5,9.9a10.8,10.8,0,1,0,10.8,10.8A10.8,10.8,0,0,0,126.5,9.9h0Z"/><path class="cls-1" d="M91,0a10.8,10.8,0,1,0,10.8,10.8A10.8,10.8,0,0,0,91,0h0Z"/><path class="cls-1" d="M152.1,40a3.4,3.4,0,0,0-2.1-.7l-1.2.2a166.8,166.8,0,0,1-21.6,6.5,4.2,4.2,0,0,0-3,2.6c-4.9,13.5-17.6,26.5-30.8,40A3.5,3.5,0,0,1,91,89.8a3.4,3.4,0,0,1-2.5-1.2C75.3,75.1,62.6,62.3,57.7,48.7a4.2,4.2,0,0,0-3-2.6,167.3,167.3,0,0,1-21.6-6.6l-1.2-.2a3.3,3.3,0,0,0-2,.7,3.4,3.4,0,0,0-1.3,3c1.1,11.3,5.6,22.3,13.6,33.8s17.4,20.9,26.9,30.6c17.5,17.9,34.1,34.8,35.6,54.4a3.4,3.4,0,0,0,3.4,3.1h20.6a3.4,3.4,0,0,0,3.4-3.6c-0.6-13.1-5.6-26.2-15.1-40.1-2-2.9-4.1-5.7-6.4-8.5a2.5,2.5,0,0,1,.2-3.2l2.1-2.1c9.5-9.7,19.4-19.8,26.9-30.6s12.5-22.5,13.6-33.8a3.5,3.5,0,0,0-1.3-3h0Z"/><path class="cls-1" d="M68.9,122.7a3.1,3.1,0,0,0-2.4-1,3.4,3.4,0,0,0-2.8,1.6c-8.7,13.2-13.2,25.7-13.8,38.2a3.4,3.4,0,0,0,3.4,3.6H73.9a3.4,3.4,0,0,0,3.4-3.2A45.8,45.8,0,0,1,83,143.4a4.8,4.8,0,0,0-.4-5.1,190.5,190.5,0,0,0-13.7-15.6h0Z"/><path class="cls-1" d="M91,50.2c6.5,0,10.2-.4,11.5-0.4a3.1,3.1,0,0,1,3.1,3.1,3.4,3.4,0,0,1-.3,1.3,54.8,54.8,0,0,1-12,17.6,3.3,3.3,0,0,1-2.4.9h0a3.3,3.3,0,0,1-2.4-.9,54.7,54.7,0,0,1-12-17.6,3.3,3.3,0,0,1-.3-1.3,3.1,3.1,0,0,1,3.1-3.1c1.3,0,5.1.4,11.5,0.4h0Z"/></svg>