<?xml version="1.0" encoding="UTF-8" standalone="no"?>
<!-- Created with Inkscape (http://www.inkscape.org/) -->

<svg
   xmlns:dc="http://purl.org/dc/elements/1.1/"
   xmlns:cc="http://creativecommons.org/ns#"
   xmlns:rdf="http://www.w3.org/1999/02/22-rdf-syntax-ns#"
   xmlns:svg="http://www.w3.org/2000/svg"
   xmlns="http://www.w3.org/2000/svg"
   xmlns:sodipodi="http://sodipodi.sourceforge.net/DTD/sodipodi-0.dtd"
   xmlns:inkscape="http://www.inkscape.org/namespaces/inkscape"
   id="svg2"
   version="1.1"
   inkscape:version="0.91 r13725"
   width="1024"
   height="1024"
   viewBox="0 0 1024 1024"
   sodipodi:docname="big-rc-glip.svg">
  <metadata
     id="metadata8">
    <rdf:RDF>
      <cc:Work
         rdf:about="">
        <dc:format>image/svg+xml</dc:format>
        <dc:type
           rdf:resource="http://purl.org/dc/dcmitype/StillImage" />
        <dc:title></dc:title>
      </cc:Work>
    </rdf:RDF>
  </metadata>
  <defs
     id="defs6" />
  <sodipodi:namedview
     pagecolor="#ffffff"
     bordercolor="#666666"
     borderopacity="1"
     objecttolerance="10"
     gridtolerance="10"
     guidetolerance="10"
     inkscape:pageopacity="0"
     inkscape:pageshadow="2"
     inkscape:window-width="1871"
     inkscape:window-height="1056"
     id="namedview4"
     showgrid="false"
     inkscape:zoom="0.89160156"
     inkscape:cx="512"
     inkscape:cy="512"
     inkscape:window-x="1415"
     inkscape:window-y="24"
     inkscape:window-maximized="1"
     inkscape:current-layer="svg2"
     showguides="true"
     inkscape:guide-bbox="true"
     inkscape:object-nodes="true"
     inkscape:snap-smooth-nodes="true"
     inkscape:snap-global="false"
     fit-margin-top="0"
     fit-margin-left="0"
     fit-margin-right="0"
     fit-margin-bottom="0" />
  <g
     id="g4199"
     transform="scale(13.998932,13.892876)">
    <path
       inkscape:connector-curvature="0"
       id="path4189"
       d="M 23.609375,0 A 3.1503151,3.1503151 0 0 0 22.373047,0.25390625 C 19.533536,0.85450549 17.3179,3.292171 17.31836,6.2929687 l 0,11.9199213 6.298828,0 0,-11.9121088 43.232422,0 0,31.0644528 -7.966797,0 0,6.300782 7.976562,0 c 3.436471,-5.74e-4 6.289589,-2.854321 6.289063,-6.291016 l 0,-31.0839844 C 73.148992,2.8544147 70.295846,5.72765e-4 66.859375,0 l -43.25,0 z"
       style="color:#000000;font-style:normal;font-variant:normal;font-weight:normal;font-stretch:normal;font-size:medium;line-height:normal;font-family:sans-serif;text-indent:0;text-align:start;text-decoration:none;text-decoration-line:none;text-decoration-style:solid;text-decoration-color:#000000;letter-spacing:normal;word-spacing:normal;text-transform:none;direction:ltr;block-progression:tb;writing-mode:lr-tb;baseline-shift:baseline;text-anchor:start;white-space:normal;clip-rule:nonzero;display:inline;overflow:visible;visibility:visible;opacity:1;isolation:auto;mix-blend-mode:normal;color-interpolation:sRGB;color-interpolation-filters:linearRGB;solid-color:#000000;solid-opacity:1;fill:#ff8800;fill-opacity:1;fill-rule:nonzero;stroke:none;stroke-width:6.30000019;stroke-linecap:round;stroke-linejoin:round;stroke-miterlimit:10;stroke-dasharray:none;stroke-dashoffset:0;stroke-opacity:1;color-rendering:auto;image-rendering:auto;shape-rendering:auto;text-rendering:auto;enable-background:accumulate" />
    <path
       inkscape:connector-curvature="0"
       id="path4180"
       d="M 6.2910157,21.027344 C 2.853659,21.026817 -5.2616724e-4,23.881003 7.2757436e-8,27.318359 l 0,31.083985 C -5.2616724e-4,61.8397 2.853659,64.693885 6.2910157,64.693359 l 9.1386723,0 7.757812,6.558594 a 3.1503151,3.1503151 0 0 0 0.0332,0.02539 3.1503151,3.1503151 0 0 0 0.07031,0.05859 l 1.923828,1.626953 a 3.1503151,3.1503151 0 0 0 4.066406,0 l 1.925782,-1.628906 a 3.1503151,3.1503151 0 0 0 0.101562,-0.08203 l 7.757813,-6.558594 10.474609,0 c 3.437357,5.26e-4 6.291542,-2.853659 6.291016,-6.291015 l 0,-31.083985 C 55.832552,23.881 52.978367,21.026814 49.54101,21.027341 l -43.2500003,0 z m 0.00977,6.300781 43.2304683,0 0,31.064453 -11.617187,0 a 3.1503151,3.1503151 0 0 0 -2.033203,0.744141 l -8.56836,7.24414 a 3.1503151,3.1503151 0 0 0 -0.0625,0.05078 l 0.03711,0.0332 a 3.1503151,3.1503151 0 0 0 -0.0332,-0.02539 l -0.0059,-0.0059 a 3.1503151,3.1503151 0 0 0 -0.002,0 3.1503151,3.1503151 0 0 0 -0.01758,-0.01563 l -8.613281,-7.28125 a 3.1503151,3.1503151 0 0 0 -2.033121,-0.744091 l -10.2812507,0 0,-31.064453 z"
       style="color:#000000;font-style:normal;font-variant:normal;font-weight:normal;font-stretch:normal;font-size:medium;line-height:normal;font-family:sans-serif;text-indent:0;text-align:start;text-decoration:none;text-decoration-line:none;text-decoration-style:solid;text-decoration-color:#000000;letter-spacing:normal;word-spacing:normal;text-transform:none;direction:ltr;block-progression:tb;writing-mode:lr-tb;baseline-shift:baseline;text-anchor:start;white-space:normal;clip-rule:nonzero;display:inline;overflow:visible;visibility:visible;opacity:1;isolation:auto;mix-blend-mode:normal;color-interpolation:sRGB;color-interpolation-filters:linearRGB;solid-color:#000000;solid-opacity:1;fill:#0073ae;fill-opacity:1;fill-rule:nonzero;stroke:none;stroke-width:6.30000019;stroke-linecap:round;stroke-linejoin:round;stroke-miterlimit:10;stroke-dasharray:none;stroke-dashoffset:0;stroke-opacity:1;color-rendering:auto;image-rendering:auto;shape-rendering:auto;text-rendering:auto;enable-background:accumulate" />
  </g>
</svg>
