<svg id="Layer_1" data-name="Layer 1" xmlns="http://www.w3.org/2000/svg" viewBox="0 0 217.9 119.4"><defs><style>.cls-1{fill:#fff;}.cls-2{fill:#3a3a3a;}.cls-3{fill:#d46d39;}</style></defs><title>livechat-logo</title><path class="cls-1" d="M49.2,120.7a3.74,3.74,0,0,1-1.8-.5,3.62,3.62,0,0,1-1.7-3l0.1-21.3H22.6C8.3,95.9,2.5,90.1,2.5,75.8V22.5C2.5,8.2,8.3,2.4,22.6,2.4H199.5c15.8,0,18.9,7.4,18.9,20.1V75.9c0,14.3-5.8,20.1-20.1,20.1H99.7l-49,24.5A7.72,7.72,0,0,1,49.2,120.7Z" transform="translate(-1.5 -1.85)"/><path class="cls-2" d="M48.63,121.25a3.78,3.78,0,0,1-1.82-.5,3.65,3.65,0,0,1-1.72-3l0.1-21.5H21.79C7.35,96.22,1.5,90.36,1.5,75.93V22.14C1.5,7.71,7.35,1.85,21.79,1.85H200.32c15.95,0,19.08,7.47,19.08,20.29V76c0,14.43-5.85,20.29-20.29,20.29H99.6L50.15,121A7.79,7.79,0,0,1,48.63,121.25ZM21.79,8.92c-10.5,0-13.22,2.73-13.22,13.22V76c0,10.5,2.73,13.22,13.22,13.22H48.63a4,4,0,0,1,2.52,1,3.5,3.5,0,0,1,1,2.52v19.28l45-22.51a4.23,4.23,0,0,1,1.61-.4H199.11c10.5,0,13.22-2.73,13.22-13.22V22.14c0-5.65-.71-9-2.22-10.7-0.91-1.11-3-2.52-9.79-2.52H21.79Z" transform="translate(-1.5 -1.85)"/><path class="cls-2" d="M38,62.2H24.9V29.8a25.31,25.31,0,0,0-3.8-.3,24,24,0,0,0-3.7.3V69.1H38a11,11,0,0,0,.2-1.8c0-.6.1-1.1,0.1-1.7a9.15,9.15,0,0,0-.1-1.6A11,11,0,0,0,38,62.2ZM37.8,43.7a7.57,7.57,0,0,0,.1,1.5c0.1,0.5.1,1,.2,1.5h3.5V69a23.8,23.8,0,0,0,3.6.3,24,24,0,0,0,3.7-.3V40.9H38.1A13.33,13.33,0,0,0,37.8,43.7Zm4.6-7.4c0.7,0,1.3.1,1.9,0.1a12.75,12.75,0,0,0,1.9-.1,11.08,11.08,0,0,0,1.9-.2,11.08,11.08,0,0,0,.2-1.9c0-.6.1-1.2,0.1-1.8a10.87,10.87,0,0,0-.1-1.8,11,11,0,0,0-.2-1.8,11.08,11.08,0,0,0-1.9-.2,12.75,12.75,0,0,0-1.9-.1,12.75,12.75,0,0,0-1.9.1c-0.7.1-1.3,0.1-1.9,0.2a23,23,0,0,0,0,7.4C41.1,36.2,41.7,36.3,42.4,36.3Zm33,4.3c-0.7,0-1.3-.1-1.8-0.1a13.4,13.4,0,0,0-2,.1c-0.7.1-1.3,0.1-1.9,0.2l-5.8,21L58,40.8c-0.6-.1-1.2-0.2-1.9-0.3s-1.4-.1-2.1-0.1a14.16,14.16,0,0,0-1.9.1,9.69,9.69,0,0,0-2.3.3L59.8,69c0.6,0.1,1.2.2,1.9,0.3s1.3,0.1,1.8.1a12.13,12.13,0,0,0,1.8-.1,14.92,14.92,0,0,0,2.1-.2L77.7,40.9A11.15,11.15,0,0,0,75.4,40.6Zm25.9,7.8A11.83,11.83,0,0,0,99,44.1a10.75,10.75,0,0,0-3.8-2.8,11.46,11.46,0,0,0-5-1,12.61,12.61,0,0,0-5.7,1.2,11.7,11.7,0,0,0-4.1,3.2,13.66,13.66,0,0,0-2.5,4.8,18.49,18.49,0,0,0-.8,5.8,20.84,20.84,0,0,0,.8,5.8,12.07,12.07,0,0,0,2.5,4.6,10.78,10.78,0,0,0,4.4,3,18,18,0,0,0,6.5,1.1,24.34,24.34,0,0,0,9.2-1.6,11.42,11.42,0,0,0-.5-3.3,12.85,12.85,0,0,0-1-2.6,20.14,20.14,0,0,1-3.5,1,23.32,23.32,0,0,1-3.6.4,8.75,8.75,0,0,1-5.3-1.5,6.1,6.1,0,0,1-2.2-4.8h17.4c0.1-.4.1-0.9,0.2-1.6a14.08,14.08,0,0,0,.1-2A15.33,15.33,0,0,0,101.3,48.4ZM84.5,51.9a7.35,7.35,0,0,1,1.6-4.3,5.06,5.06,0,0,1,4-1.5,4.38,4.38,0,0,1,3.6,1.6,7,7,0,0,1,1.4,4.2H84.5Z" transform="translate(-1.5 -1.85)"/><path class="cls-3" d="M129.8,61.7a27.74,27.74,0,0,1-3.3.9,17.19,17.19,0,0,1-3.4.3c-7.2,0-10.9-4.4-10.9-13.3,0-4.5.9-7.9,2.7-10.1a9.21,9.21,0,0,1,7.7-3.4,17.19,17.19,0,0,1,3.4.3q1.35,0.3,3.3.9c0.4-1.1.8-2.1,1.2-3.1a11.34,11.34,0,0,0,.6-3.2,23.76,23.76,0,0,0-4.6-1.4,33.33,33.33,0,0,0-4.6-.3,18.41,18.41,0,0,0-7.6,1.5,14.79,14.79,0,0,0-5.6,4.3,19.32,19.32,0,0,0-3.5,6.5,27.94,27.94,0,0,0,0,16.2,18.66,18.66,0,0,0,3.4,6.4,15.61,15.61,0,0,0,5.6,4.2,18.71,18.71,0,0,0,7.8,1.5,34.83,34.83,0,0,0,4.7-.3,21.72,21.72,0,0,0,4.9-1.4,16.54,16.54,0,0,0-.7-3.2A21.23,21.23,0,0,0,129.8,61.7Zm19.1-21.5a8.85,8.85,0,0,0-2.9.4,7.56,7.56,0,0,0-2.2,1.1,10,10,0,0,0-1.5,1.3c-0.4.5-.7,0.8-1,1.2v-15a12.25,12.25,0,0,0-1.9-.2c-0.6,0-1.2-.1-1.8-0.1a10.87,10.87,0,0,0-1.8.1,11,11,0,0,0-1.8.2v40a12.25,12.25,0,0,0,1.9.2c0.6,0,1.2.1,1.8,0.1a10.87,10.87,0,0,0,1.8-.1,12.25,12.25,0,0,0,1.9-.2V54.3a12.22,12.22,0,0,1,.5-3.7,5.84,5.84,0,0,1,1.3-2.2,4.52,4.52,0,0,1,1.7-1.1,5.66,5.66,0,0,1,1.8-.3,3,3,0,0,1,3,1.6,9.45,9.45,0,0,1,.9,4.5v16a12.25,12.25,0,0,0,1.9.2c0.6,0,1.2.1,1.8,0.1a10.87,10.87,0,0,0,1.8-.1,12.25,12.25,0,0,0,1.9-.2v-18c0-3.8-.8-6.5-2.3-8.2S152,40.2,148.9,40.2Zm22,0a22.21,22.21,0,0,0-4.3.4,39,39,0,0,0-4.6,1.2,8.72,8.72,0,0,0,.4,3,14,14,0,0,0,1.1,2.7,16.16,16.16,0,0,1,8.4-.9,4.78,4.78,0,0,1,1.8.6,3,3,0,0,1,1.2,1.3,4.38,4.38,0,0,1,.4,2.1v0.7c-1.2-.1-2.3-0.2-3.4-0.2a20.07,20.07,0,0,0-4.2.5,11.62,11.62,0,0,0-3.8,1.5,9.35,9.35,0,0,0-2.8,2.8,8.43,8.43,0,0,0-1.1,4.4,9.86,9.86,0,0,0,.9,4.4,7.06,7.06,0,0,0,2.5,2.9,9.3,9.3,0,0,0,3.8,1.6,24.61,24.61,0,0,0,4.9.5,34.2,34.2,0,0,0,5.9-.5c1.7-.4,3.2-0.7,4.5-1.1V51.7c0-4-1-6.9-3.1-8.7S174.6,40.2,170.9,40.2Zm4.4,23.2a5.21,5.21,0,0,1-1.4.2,8.6,8.6,0,0,1-1.6.1,9.15,9.15,0,0,1-1.6-.1,8.47,8.47,0,0,1-1.7-.4,3.6,3.6,0,0,1-1.4-1.1,3.4,3.4,0,0,1-.6-2.2,3.5,3.5,0,0,1,1.5-3.1,8,8,0,0,1,4.1-1,6.15,6.15,0,0,1,1.3.1c0.5,0.1.9,0.1,1.4,0.2v7.3ZM201.5,65a17.42,17.42,0,0,0-.5-2.2,5.07,5.07,0,0,1-1.3.2,7.57,7.57,0,0,1-1.5.1,7.93,7.93,0,0,1-1.7-.2,2,2,0,0,1-1.2-.8,4.77,4.77,0,0,1-.8-1.6,10.06,10.06,0,0,1-.3-2.7v-11h6.4a10,10,0,0,0,.2-1.6c0-.5.1-1,0.1-1.5a6.6,6.6,0,0,0-.1-1.4,10.4,10.4,0,0,0-.2-1.5h-6.4V32.6H193l-9.8,13.1,0.3,1.1h3.4V59.6c0,3.5.8,6,2.5,7.6s4.1,2.3,7.3,2.3a20.74,20.74,0,0,0,5-.6c0-.3.1-0.5,0.1-0.8v-1C201.7,66.4,201.6,65.8,201.5,65Z" transform="translate(-1.5 -1.85)"/></svg>