<?xml version="1.0" encoding="utf-8"?>
<!-- Generator: Adobe Illustrator 17.0.0, SVG Export Plug-In . SVG Version: 6.00 Build 0)  -->
<!DOCTYPE svg PUBLIC "-//W3C//DTD SVG 1.1//EN" "http://www.w3.org/Graphics/SVG/1.1/DTD/svg11.dtd">
<svg version="1.1" id="Layer_1" xmlns="http://www.w3.org/2000/svg" xmlns:xlink="http://www.w3.org/1999/xlink" x="0px" y="0px"
	 width="700px" height="700px" viewBox="0 0 700 700" enable-background="new 0 0 700 700" xml:space="preserve">
<g id="XMLID_1_">
	<g id="XMLID_3_">
		<path id="XMLID_4_" fill-rule="evenodd" clip-rule="evenodd" fill="#222222" d="M496.909,147.718l2.631,53.063
			c43.019,47.524,59.999,114.83,38.585,178.086c-31.966,94.427-137.372,144.065-235.431,110.87S151.057,353.083,183.023,258.655
			c21.485-63.467,76.148-106.7,139.457-118.148l34.205-40.414c-106.716-2.889-207.397,63.351-243.42,169.762
			c-44.26,130.745,25.849,272.615,156.594,316.876s272.615-25.849,316.876-156.594C622.7,323.897,583.148,210.31,496.909,147.718z"
			/>
	</g>
	<path id="XMLID_2_" fill-rule="evenodd" clip-rule="evenodd" fill="#222222" d="M435.623,304.291l-1.811-74.18l-1.453-42.685
		l-0.983-36.98c0,0,0.205-17.832-0.417-22.022c-0.131-0.882-0.408-1.6-0.738-2.226c-0.041-0.088-0.08-0.176-0.125-0.262
		c-0.047-0.08-0.093-0.154-0.142-0.229c-0.684-1.177-1.759-2.133-3.15-2.604c-1.423-0.482-2.895-0.363-4.173,0.189
		c-0.027,0.01-0.052,0.019-0.079,0.03c-0.152,0.068-0.297,0.145-0.443,0.226c-0.606,0.295-1.222,0.677-1.825,1.262
		c-3.04,2.95-13.709,17.24-13.709,17.24l-23.244,28.778l-27.083,33.025l-46.499,57.826c0,0-21.338,26.631-16.623,59.411
		s29.085,48.749,47.991,55.15c18.906,6.4,47.965,8.518,71.623-14.657C436.396,338.407,435.623,304.291,435.623,304.291z"/>
</g>
<g id="XMLID_10_" opacity="0.4">
	<path id="XMLID_25_" fill="#231F20" d="M569.786,576.293c0,0.46-0.403,0.839-0.865,0.839h-8.072v21.998
		c0,0.488-0.379,0.867-0.841,0.867h-3.657c-0.486,0-0.865-0.379-0.865-0.867v-21.998h-8.045c-0.49,0-0.869-0.379-0.869-0.839v-3.169
		c0-0.488,0.379-0.867,0.869-0.867h21.481c0.462,0,0.865,0.379,0.865,0.867V576.293z M599.995,599.077
		c0.028,0.243-0.055,0.46-0.217,0.65c-0.162,0.162-0.379,0.271-0.624,0.271h-3.629c-0.434,0-0.814-0.352-0.841-0.786l-1.244-15.928
		l-5.122,11.512c-0.134,0.326-0.43,0.515-0.786,0.515h-3.25c-0.324,0-0.624-0.19-0.786-0.515l-5.091-11.568l-1.22,15.983
		c-0.028,0.434-0.407,0.786-0.841,0.786h-3.657c-0.241,0-0.458-0.109-0.62-0.271c-0.162-0.19-0.245-0.407-0.245-0.65l2.113-26.034
		c0.028-0.434,0.407-0.786,0.841-0.786h3.847c0.352,0,0.648,0.217,0.786,0.515l5.96,14.085c0.19,0.434,0.379,0.922,0.541,1.382
		c0.19-0.46,0.352-0.948,0.541-1.382l5.987-14.085c0.134-0.298,0.434-0.515,0.786-0.515h3.819c0.462,0,0.841,0.352,0.869,0.786
		L599.995,599.077z"/>
</g>
</svg>
