<?xml version="1.0" encoding="UTF-8" standalone="no"?>
<!-- Created with Inkscape (http://www.inkscape.org/) -->

<svg
   xmlns:dc="http://purl.org/dc/elements/1.1/"
   xmlns:cc="http://creativecommons.org/ns#"
   xmlns:rdf="http://www.w3.org/1999/02/22-rdf-syntax-ns#"
   xmlns:svg="http://www.w3.org/2000/svg"
   xmlns="http://www.w3.org/2000/svg"
   xmlns:sodipodi="http://sodipodi.sourceforge.net/DTD/sodipodi-0.dtd"
   xmlns:inkscape="http://www.inkscape.org/namespaces/inkscape"
   width="512"
   height="512"
   viewBox="0 0 512.00001 512.00001"
   id="svg2"
   version="1.1"
   inkscape:version="0.91 r13725"
   sodipodi:docname="Zeichnung.svg">
  <defs
     id="defs4" />
  <sodipodi:namedview
     id="base"
     pagecolor="#ffffff"
     bordercolor="#666666"
     borderopacity="1.0"
     inkscape:pageopacity="0.0"
     inkscape:pageshadow="2"
     inkscape:zoom="0.49497475"
     inkscape:cx="-78.157674"
     inkscape:cy="479.53929"
     inkscape:document-units="px"
     inkscape:current-layer="layer1"
     showgrid="false"
     inkscape:window-width="1600"
     inkscape:window-height="852"
     inkscape:window-x="0"
     inkscape:window-y="25"
     inkscape:window-maximized="1"
     units="px" />
  <metadata
     id="metadata7">
    <rdf:RDF>
      <cc:Work
         rdf:about="">
        <dc:format>image/svg+xml</dc:format>
        <dc:type
           rdf:resource="http://purl.org/dc/dcmitype/StillImage" />
        <dc:title></dc:title>
      </cc:Work>
    </rdf:RDF>
  </metadata>
  <g
     inkscape:label="Ebene 1"
     inkscape:groupmode="layer"
     id="layer1"
     transform="translate(0,-540.36216)">
    <path
       style="fill:#ffffff;fill-opacity:1"
       d="m 171.30819,994.65514 c -18.04838,-8.35009 -50.55405,-29.92336 -57.25749,-38.00051 -2.84178,-3.42416 -2.15796,-5.06585 3.71224,-8.91218 7.02794,-4.60486 7.56014,-4.41799 22.8233,8.01402 14.5516,11.85242 48.5786,30.38253 55.79175,30.38253 3.60229,0 3.8102,1.63523 1.36694,10.75218 -2.1942,8.18772 -4.28929,8.01052 -26.43674,-2.23604 z m 151.53551,0.72362 c 0,-7.06884 2.12437,-8.88917 18.90616,-16.2001 10.3984,-4.53002 26.54994,-13.86345 35.89234,-20.74095 16.35218,-12.03777 17.24592,-12.33434 23.94461,-7.94518 l 6.95839,4.55931 -9.16062,7.99269 c -19.09437,16.65996 -62.37217,40.29797 -73.77977,40.29797 -1.51861,0 -2.76111,-3.58366 -2.76111,-7.96374 z M 63.65704,945.88739 c -9.726662,-2.91069 -23.484212,-15.27584 -29.227558,-26.26946 -6.455203,-12.35622 -5.101703,-32.95901 3.082702,-46.92463 8.067329,-13.76586 25.992915,-24.1821 41.615598,-24.1821 15.622683,0 33.548268,10.41624 41.615598,24.1821 23.2146,39.61272 -13.21564,86.32229 -57.08634,73.19409 z m 29.775295,-18.51055 c 19.322535,-9.99206 23.578485,-34.40156 8.868625,-50.86474 -7.402316,-8.28462 -10.073006,-9.36381 -23.173178,-9.36381 -13.100172,0 -15.770862,1.07919 -23.173174,9.36381 -6.325282,7.07923 -8.366532,12.1969 -8.366532,20.97602 0,14.62474 3.685627,21.53863 15.236041,28.58144 10.968592,6.68802 19.498511,7.05235 30.608218,1.30728 z m 327.632885,18.28491 c -21.74636,-6.28033 -37.67985,-34.48522 -32.48651,-57.50659 4.83078,-21.41436 25.91396,-39.40818 46.37655,-39.581 27.17294,-0.22938 51.32146,23.21969 51.32146,49.8351 0,20.3743 -10.40918,35.94563 -30.10608,45.03634 -12.54599,5.79034 -20.90262,6.31789 -35.10542,2.21615 z m 29.27259,-18.0754 c 5.42242,-2.26565 11.74704,-7.93137 14.24413,-12.76023 17.87967,-34.57538 -24.70281,-65.52918 -51.56939,-37.48651 -14.49251,15.12693 -9.24237,40.56935 10.46116,50.69541 8.98966,4.61994 14.9723,4.52004 26.8641,-0.44867 z m 13.00094,-85.72957 -7.16811,-2.55811 0,-42.55725 c 0,-40.02279 0.33856,-42.6457 5.68503,-44.04294 3.12679,-0.81714 6.92693,-0.24386 8.44473,1.27397 3.60092,3.6009 5.63999,67.18804 2.5752,80.30484 -2.1739,9.30373 -2.95831,9.92719 -9.53685,7.57949 z M 49.201257,836.22236 c -3.608142,-17.46361 -4.340345,-39.98237 -1.915641,-58.91498 1.481105,-11.56484 3.385254,-21.71932 4.231413,-22.56547 0.846159,-0.84619 4.897531,-0.69541 9.003038,0.33498 6.193412,1.55446 7.100379,2.95581 5.326104,8.22927 -1.176144,3.4957 -2.217138,21.69095 -2.31334,40.43393 -0.167218,32.59994 -0.453484,34.18122 -6.597441,36.45435 -5.288876,1.95679 -6.654052,1.25565 -7.734133,-3.97208 z M 121.14723,648.29503 c -2.60988,-2.8839 -4.74525,-6.04436 -4.74525,-7.02326 0,-3.72825 37.55641,-28.36234 55.96743,-36.71029 20.95739,-9.50254 27.18271,-9.2732 27.18271,1.00145 0,5.14682 -2.47042,7.53927 -10.75217,10.41276 -14.41516,5.00155 -46.71322,24.04073 -53.49474,31.53422 -6.6653,7.36506 -8.1297,7.44626 -14.15798,0.78512 z m 257.60776,-6.7795 c -6.30794,-4.81963 -21.92158,-13.8318 -34.69695,-20.02702 -21.21253,-10.2867 -23.10803,-11.89157 -21.84553,-18.49606 1.18106,-6.17813 2.47678,-6.95997 8.89177,-5.36533 14.02526,3.48639 42.93093,18.71305 57.7278,30.4093 14.19367,11.21945 14.55735,11.85747 9.77316,17.14396 -6.21252,6.86476 -6.0234,6.89967 -19.85025,-3.66485 z m -146.8047,-10.62278 c -25.338,-18.35475 -27.60875,-54.04499 -4.79564,-75.37503 27.84921,-26.03879 71.40439,-13.47324 81.35217,23.46987 3.52066,13.07481 -0.27984,32.20447 -8.35799,42.06922 -16.39093,20.01604 -47.8766,24.55707 -68.19854,9.83594 z m 47.28122,-13.52936 c 3.61055,-2.33589 8.66665,-8.65507 11.23582,-14.04265 10.0424,-21.0591 -6.60506,-44.3663 -31.70657,-44.39066 -15.85438,-0.016 -30.53617,14.81995 -30.53617,30.85558 0,26.5594 28.64349,42.04594 51.00692,27.57773 z"
       id="path4149"
       inkscape:connector-curvature="0"
       sodipodi:nodetypes="ssssssssssscsssssssssssssssssssssssssssscsssssssssssssssssssssssssssssssssssss" />
    <path
       style="fill:#66c99a;fill-opacity:1"
       d="m 238.82064,1045.3247 c -52.15922,-23.6895 -27.16997,-100.26948 29.70762,-91.03951 12.68222,2.05806 22.69719,9.0696 31.69789,22.192 5.62251,8.19713 6.53074,12.56347 5.6365,27.09721 -1.3009,21.1431 -9.45329,34.0318 -26.39153,41.7242 -14.84878,6.7435 -25.84466,6.7506 -40.65048,0.026 z m 38.93318,-17.3419 c 9.17104,-6.413 14.24047,-16.3486 14.29398,-28.0147 0.0571,-12.45864 -14.24,-28.68118 -27.4634,-31.16192 -38.93201,-7.30368 -53.8458,47.79832 -17.17982,63.47452 10.11723,4.3255 20.02333,2.9226 30.34924,-4.2979 z M 215.63678,926.4826 c -36.70929,-39.60928 -65.89035,-84.78219 -84.08181,-130.16042 -14.64388,-36.52887 -16.85095,-49.92896 -9.5197,-57.79815 5.48151,-5.8837 5.53856,-5.79198 13.07552,21.02327 4.16347,14.81299 12.24591,36.78633 17.96093,48.82961 15.2362,32.10724 47.18336,78.32144 72.98555,105.57966 l 22.60725,23.88296 -8.33531,3.14624 c -7.96888,3.00791 -9.05445,2.3703 -24.69243,-14.5031 z m 61.53153,14.33031 -7.75366,-2.88821 18.59492,-19.71158 c 44.89995,-47.59631 78.51114,-103.75696 93.80851,-156.7439 6.54556,-22.67239 6.57845,-22.71811 12.9052,-17.94584 l 6.34288,4.78447 -5.94853,21.48418 c -12.30991,44.45931 -40.59412,94.2122 -80.77929,142.09347 -27.1229,32.31744 -27.42922,32.55581 -37.17003,28.92741 z M 61.670314,739.76667 c -51.665365,-18.41816 -40.020928,-93.2864 14.509068,-93.2864 8.518519,0 19.228233,1.93404 23.799357,4.29784 19.884691,10.28279 30.427311,37.53994 23.103301,59.73189 -4.18994,12.69569 -19.44986,26.43991 -33.771268,30.41699 -13.394076,3.71957 -14.026178,3.69303 -27.640458,-1.16032 z M 94.478169,721.8715 c 12.529981,-7.40167 18.432581,-21.94666 14.386601,-35.45095 -9.411586,-31.41314 -47.000905,-34.39188 -62.235295,-4.93182 -14.27315,27.60125 20.213764,56.70708 47.848694,40.38277 z m 325.102001,18.29296 c -21.4486,-8.2943 -32.844,-24.47782 -32.86026,-46.66741 -0.0206,-27.2473 20.3607,-47.02481 48.43964,-47.00607 25.4694,0.0161 43.24871,14.72916 47.96501,39.69053 4.16652,22.05146 -12.7025,48.44247 -34.90413,54.60636 -13.70842,3.80589 -17.39379,3.72565 -28.64026,-0.62341 z m 37.66325,-23.14991 c 8.25129,-8.25127 9.74864,-11.76755 9.74864,-22.89274 0,-34.17062 -43.76835,-45.5938 -61.25715,-15.9876 -13.17915,22.31052 3.23297,48.22829 30.72098,48.51417 8.81495,0.0918 13.00291,-1.84919 20.78753,-9.63383 z"
       id="path4149-3"
       inkscape:connector-curvature="0"
       sodipodi:nodetypes="cssssccssssscssssscsccscssscssssssssssssssccssssssss" />
  </g>
</svg>
