<?xml version="1.0" encoding="UTF-8" standalone="no"?>
<svg
   xmlns:dc="http://purl.org/dc/elements/1.1/"
   xmlns:cc="http://creativecommons.org/ns#"
   xmlns:rdf="http://www.w3.org/1999/02/22-rdf-syntax-ns#"
   xmlns:svg="http://www.w3.org/2000/svg"
   xmlns="http://www.w3.org/2000/svg"
   xmlns:sodipodi="http://sodipodi.sourceforge.net/DTD/sodipodi-0.dtd"
   xmlns:inkscape="http://www.inkscape.org/namespaces/inkscape"
   width="80px"
   height="80px"
   viewBox="0 0 80 80"
   version="1.1"
   id="svg19"
   sodipodi:docname="icon.svg"
   inkscape:version="0.92pre1 unknown">
  <metadata
     id="metadata23">
    <rdf:RDF>
      <cc:Work
         rdf:about="">
        <dc:format>image/svg+xml</dc:format>
        <dc:type
           rdf:resource="http://purl.org/dc/dcmitype/StillImage" />
        <dc:title>rocketchat</dc:title>
      </cc:Work>
    </rdf:RDF>
  </metadata>
  <sodipodi:namedview
     pagecolor="#ffffff"
     bordercolor="#666666"
     borderopacity="1"
     objecttolerance="10"
     gridtolerance="10"
     guidetolerance="10"
     inkscape:pageopacity="0"
     inkscape:pageshadow="2"
     inkscape:window-width="1488"
     inkscape:window-height="1027"
     id="namedview21"
     showgrid="false"
     inkscape:zoom="2.95"
     inkscape:cx="40"
     inkscape:cy="40"
     inkscape:window-x="65"
     inkscape:window-y="24"
     inkscape:window-maximized="0"
     inkscape:current-layer="svg19" />
  <!-- Generator: Sketch 3.7.2 (28276) - http://www.bohemiancoding.com/sketch -->
  <title
     id="title2">rocketchat</title>
  <desc
     id="desc4">Created with Sketch.</desc>
  <defs
     id="defs6" />
  <g
     id="g4265"
     transform="matrix(0.76692027,0,0,0.76692027,-56.19,-43.451324)"
     style="stroke-width:1.30391645">
    <path
       style="fill:#0072c6;stroke-width:1.30391645"
       inkscape:connector-curvature="0"
       id="path3"
       d="m 138.40364,78.773281 v 20.404273 l 7.13052,4.489886 c 0.18806,0.0549 0.59552,0.0588 0.78358,0 l 30.68868,-20.690283 c 0,-2.44867 -2.28412,-4.203876 -3.5731,-4.203876 z" />
    <path
       style="fill:#0072c6;stroke-width:1.30391645"
       inkscape:connector-curvature="0"
       id="path5"
       d="m 138.40364,106.78998 6.50758,4.47029 c 0.91678,0.67387 2.02162,0 2.02162,0 -1.10092,0.67387 30.0775,-20.035994 30.0775,-20.035994 v 37.501864 c 0,4.08242 -2.61322,5.79453 -5.55162,5.79453 h -33.059 v -27.73069 z" />
    <g
       transform="matrix(3.9178712,0,0,3.9178712,60.355724,15.272425)"
       id="g23"
       style="stroke-width:1.30391645">
      <path
         style="fill:#0072c6;stroke-width:1.30391645"
         inkscape:connector-curvature="0"
         id="path25"
         d="m 11.321,20.958 c -0.566,0 -1.017,0.266 -1.35,0.797 -0.333,0.531 -0.5,1.234 -0.5,2.109 0,0.888 0.167,1.59 0.5,2.106 0.333,0.517 0.77,0.774 1.31,0.774 0.557,0 0.999,-0.251 1.325,-0.753 0.326,-0.502 0.49,-1.199 0.49,-2.09 0,-0.929 -0.158,-1.652 -0.475,-2.169 -0.317,-0.516 -0.75,-0.774 -1.3,-0.774 z" />
      <path
         style="fill:#0072c6;stroke-width:1.30391645"
         inkscape:connector-curvature="0"
         id="path27"
         d="m 3.441,13.563 v 20.375 l 15.5,3.25 V 10.563 Z m 10.372,13.632 c -0.655,0.862 -1.509,1.294 -2.563,1.294 -1.027,0 -1.863,-0.418 -2.51,-1.253 C 8.094,26.4 7.77,25.312 7.77,23.97 c 0,-1.417 0.328,-2.563 0.985,-3.438 0.657,-0.875 1.527,-1.313 2.61,-1.313 1.023,0 1.851,0.418 2.482,1.256 0.632,0.838 0.948,1.942 0.948,3.313 10e-4,1.409 -0.327,2.545 -0.982,3.407 z" />
    </g>
  </g>
</svg>
