<?xml version="1.0" encoding="UTF-8"?>
<svg width="1024px" height="1024px" viewBox="0 0 1024 1024" version="1.1" xmlns="http://www.w3.org/2000/svg" xmlns:xlink="http://www.w3.org/1999/xlink">
    <title>Workplace</title>
    <g stroke="none" stroke-width="1" fill="none" fill-rule="evenodd">
        <path d="M512,1024 C794.769792,1024 1024,794.769792 1024,512 C1024,229.230208 794.769792,0 512,0 C229.230208,0 0,229.230208 0,512 C0,794.769792 229.230208,1024 512,1024 Z M588.371906,145.551839 C653.099666,158.908361 705.498328,187.676254 755.499666,237.335117 C805.843478,287.67893 833.926421,339.392642 847.625418,407.202676 C856.187291,449.669565 853.447492,517.822074 841.118395,558.919064 C826.391973,608.235452 793.171906,667.141137 771.253512,683.579933 C745.567893,702.416054 716.457525,707.210702 692.826756,696.251505 C669.195987,684.949833 661.319064,670.223411 612.002676,546.589967 C605.495652,529.808696 600.701003,521.589298 598.988629,524.329097 C597.618729,526.726421 584.947157,557.891639 570.563211,593.166555 C540.425418,668.168562 537.685619,673.648161 526.726421,683.237458 C497.273579,710.292977 445.559866,706.868227 423.298997,676.38796 C415.422074,665.771237 304.802676,398.983278 304.802676,390.76388 C304.802676,387.33913 316.104348,390.07893 355.146488,390.76388 L405.832776,391.791304 L430.49097,451.724415 C444.532441,484.602007 460.286288,523.644147 466.450836,538.370569 C472.27291,553.09699 478.094983,563.713712 479.807358,562.343813 C481.177258,560.973913 494.876254,528.438796 509.945151,490.081605 C525.356522,451.724415 540.425418,416.449498 543.507692,411.997324 C546.589967,407.202676 556.179264,399.325753 564.741137,394.188629 C587.002007,381.174582 615.08495,381.174582 637.688294,394.531104 C656.86689,405.490301 662.688963,416.449498 702.416054,515.767224 C716.11505,550.357191 728.444147,578.440134 729.814047,578.440134 C731.183946,578.440134 735.978595,568.850836 740.773244,556.864214 C793.514381,424.668896 718.512375,278.089632 578.782609,240.759866 C547.274916,232.197993 489.73913,233.225418 453.779264,242.472241 C357.886288,267.47291 282.541806,339.735117 252.746488,434.600669 C245.89699,456.861538 240.662207,474.35786 239.494983,513.667559 C240.662207,546.589967 245.89699,569.878261 252.746488,592.13913 C281.171906,681.525084 344.529766,748.307692 429.80602,777.760535 C481.519732,795.569231 523.644147,797.62408 591.796656,785.294983 L602.755853,783.240134 L602.755853,831.186622 L602.755853,879.475585 L590.084281,882.215385 C582.892308,883.585284 564.741137,888.379933 532.548495,888.379933 C494.153846,888.379933 457.546488,883.927759 426.723746,875.365886 C260.623411,829.131773 147.264214,682.210033 147.264214,513.3699 C147.264214,345.214716 263.020736,194.525753 425.011371,152.401338 C468.163211,141.099666 488.792642,140.414716 518.164548,140.414716 C546.591801,140.414716 571.248161,142.12709 588.371906,145.551839 Z" id="Combined-Shape" fill="#4B66A3"></path>
    </g>
</svg>