<?xml version="1.0" standalone="no"?>
<!DOCTYPE svg PUBLIC "-//W3C//DTD SVG 20010904//EN"
 "http://www.w3.org/TR/2001/REC-SVG-20010904/DTD/svg10.dtd">
<svg version="1.0" xmlns="http://www.w3.org/2000/svg"
 width="1466.000000pt" height="1560.000000pt" viewBox="0 0 1466.000000 1560.000000"
 preserveAspectRatio="xMidYMid meet">
<metadata>
Created by potrace 1.13, written by Peter Selinger 2001-2015
</metadata>
<g transform="translate(0.000000,1560.000000) scale(0.100000,-0.100000)"
fill="#000000" stroke="none">
<path d="M7390 15590 c-1947 -109 -3747 -912 -5112 -2283 -690 -693 -1228
-1480 -1621 -2372 -991 -2252 -854 -4866 369 -7001 1143 -1997 3106 -3392
5354 -3804 982 -180 2025 -170 2994 30 54 11 100 20 102 20 2 0 4 372 4 826 0
781 -1 825 -17 820 -201 -62 -585 -138 -880 -175 -318 -40 -415 -45 -783 -45
-388 0 -557 11 -890 59 -1751 252 -3290 1230 -4286 2725 -795 1193 -1145 2651
-983 4105 153 1379 753 2642 1729 3639 1096 1120 2513 1764 4085 1856 1541 90
2986 -457 4065 -1539 547 -549 952 -1184 1218 -1912 209 -569 312 -1159 312
-1784 0 -615 -88 -1150 -285 -1725 -126 -366 -328 -785 -532 -1103 l-50 -77
-111 272 c-409 1004 -903 2221 -1189 2923 -286 705 -300 737 -360 833 -61 98
-192 234 -300 311 -389 278 -865 324 -1289 126 -240 -112 -435 -288 -548 -495
-34 -64 -120 -273 -598 -1455 -60 -148 -129 -317 -152 -375 -24 -58 -205 -504
-402 -992 -198 -488 -362 -884 -365 -880 -3 4 -94 225 -202 492 -166 411 -732
1806 -1076 2655 -54 132 -176 432 -271 668 l-173 427 -864 0 c-475 0 -863 -2
-863 -4 0 -3 260 -647 385 -951 40 -99 254 -625 475 -1170 221 -544 455 -1120
520 -1280 65 -159 298 -733 518 -1275 220 -542 414 -1014 430 -1050 142 -314
475 -560 875 -647 115 -25 379 -25 497 0 387 82 709 314 863 622 30 60 240
574 722 1765 59 146 180 445 270 665 216 533 471 1163 485 1199 6 16 12 27 14
25 2 -2 47 -110 99 -239 52 -129 307 -757 567 -1395 520 -1279 634 -1560 722
-1775 85 -211 107 -255 171 -352 249 -375 764 -596 1221 -523 276 43 538 175
781 393 110 98 175 170 265 291 712 960 1153 2058 1300 3236 34 277 41 381 47
730 9 549 -27 964 -128 1470 -212 1064 -676 2062 -1358 2920 -173 217 -272
327 -505 561 -371 371 -639 592 -1047 866 -884 593 -1867 962 -2934 1102 -338
45 -928 66 -1285 46z"/>
</g>
</svg>
