<svg xmlns="http://www.w3.org/2000/svg" viewBox="0 0 180.0 180.0" width="25" height="25">
            <title>Mozilla</title>
            <path class="p" d="M0 0v185.54h578.55V0zm163.78 139.93h-32V96.87c0-13.22-4.41-18.31-13.05-18.31-10.51 0-14.75 7.46-14.75 18.14v26.64h10.12v16.61h-32V96.87c0-13.22-4.4-18.31-13.05-18.31-10.51 0-14.75 7.46-14.75 18.14v26.64h14.54v16.61H22.22v-16.61h10.17V80.09h-11V63.48h32.87V75c4.58-8.13 12.55-13.05 23.22-13.05 11 0 21.19 5.26 24.92 16.45 4.24-10.17 12.88-16.45 24.92-16.45 13.73 0 26.28 8.31 26.28 26.45v34.94h10.17zm48.65 1.69c-23.56 "></path>
          </svg>
