<?xml version="1.0" standalone="no"?>
<!DOCTYPE svg PUBLIC "-//W3C//DTD SVG 20010904//EN"
 "http://www.w3.org/TR/2001/REC-SVG-20010904/DTD/svg10.dtd">
<svg version="1.0" xmlns="http://www.w3.org/2000/svg"
 width="149.000000pt" height="134.000000pt" viewBox="0 0 149.000000 134.000000"
 preserveAspectRatio="xMidYMid meet">
<metadata>
Created by potrace 1.14, written by Peter Selinger 2001-2017
</metadata>
<g transform="translate(0.000000,134.000000) scale(0.100000,-0.100000)"
fill="#000000" stroke="none">
<path d="M228 1326 c-150 -44 -235 -152 -226 -288 10 -158 155 -308 359 -373
109 -34 203 -40 329 -21 58 9 125 19 150 23 l45 6 -23 -25 c-50 -55 -51 -134
-2 -212 79 -124 283 -183 390 -112 69 45 89 138 50 225 -11 24 -19 46 -16 48
6 6 62 -68 87 -117 15 -28 25 -67 27 -107 4 -53 0 -69 -21 -105 -46 -79 -124
-118 -236 -118 -171 0 -354 109 -419 247 -22 49 -26 71 -26 141 l1 82 -26 -1
c-81 -3 -105 -44 -98 -164 6 -102 50 -190 142 -282 121 -122 280 -181 454
-170 104 6 169 29 228 81 69 60 88 105 88 206 0 77 -3 92 -34 154 -44 89 -133
179 -226 228 -122 63 -155 69 -420 78 -265 9 -316 17 -422 65 -159 73 -254
218 -223 337 26 96 98 148 215 155 l70 4 -51 -24 c-83 -40 -122 -128 -94 -212
17 -51 83 -121 143 -152 92 -46 215 -40 273 14 l26 24 -7 -33 c-4 -18 -18 -60
-31 -92 -13 -33 -24 -61 -24 -63 0 -2 17 -3 38 -3 38 0 39 1 57 58 27 85 32
207 10 276 -46 145 -182 224 -400 232 -74 2 -125 -1 -157 -10z m390 -72 c148
-62 140 -226 -11 -210 -88 9 -159 73 -159 144 0 72 81 104 170 66z m538 -580
c127 -61 125 -208 -4 -208 -125 0 -227 130 -157 199 19 20 34 25 76 25 28 0
66 -7 85 -16z"/>
</g>
</svg>
