<?xml version="1.0" ?><svg height="500" id="svg2" version="1.1" width="500" xmlns="http://www.w3.org/2000/svg" xmlns:cc="http://creativecommons.org/ns#" xmlns:dc="http://purl.org/dc/elements/1.1/" xmlns:inkscape="http://www.inkscape.org/namespaces/inkscape" xmlns:rdf="http://www.w3.org/1999/02/22-rdf-syntax-ns#" xmlns:sodipodi="http://sodipodi.sourceforge.net/DTD/sodipodi-0.dtd" xmlns:svg="http://www.w3.org/2000/svg"><defs id="defs4"/><g id="layer1" transform="translate(0,-552.36218)"><rect height="500" id="rect2990-1" rx="250" ry="250" style="fill:#cc181e;fill-opacity:1;stroke:none" width="500" x="0" y="552.36218"/><g id="layer1-9" transform="translate(-549.00515,80.294372)"/><g id="layer1-6" transform="translate(-575.71429,39.999999)"/><g id="layer1-61" transform="translate(332.85715,4.9999966)"><g id="g2994" transform="matrix(12.258419,0,0,12.258419,54.872837,607.69312)"/><g id="g2996" transform="matrix(12.258419,0,0,12.258419,54.872837,607.69312)"/><g id="g2998" transform="matrix(12.258419,0,0,12.258419,54.872837,607.69312)"/><g id="g3000" transform="matrix(12.258419,0,0,12.258419,54.872837,607.69312)"/><g id="g3002" transform="matrix(12.258419,0,0,12.258419,54.872837,607.69312)"/><g id="g3004" transform="matrix(12.258419,0,0,12.258419,54.872837,607.69312)"/></g><path d="m 249.9,682.31218 c 0,0 -67.15214,-0.0211 -111.925,3.45 -6.25179,0.77022 -19.8915,0.86601 -32.075,14.45 -9.582768,10.36292 -12.7,33.875 -12.7,33.875 0,0 -3.2,27.63205 -3.2,55.25 l 0,25.9 c 0,27.63798 3.2,55.225 3.2,55.225 0,0 3.10716,23.53199 12.7,33.875 12.1835,13.58386 28.17802,13.17962 35.3,14.6 25.5974,2.62073 108.775,3.425 108.775,3.425 0,0 67.24208,-0.11902 112.025,-3.55 6.2518,-0.80023 19.9265,-0.86602 32.1,-14.45 9.58275,-10.34297 12.675,-33.9 12.675,-33.9 0,0 3.225,-27.59701 3.225,-55.225 l 0,-25.875 c 0,-27.62796 -3.225,-55.275 -3.225,-55.275 0,0 -3.08218,-23.51208 -12.675,-33.875 -12.17351,-13.58399 -25.8482,-13.67978 -32.1,-14.45 -44.78292,-3.47126 -111.925,-3.45 -111.925,-3.45 l -0.175,0 z m -39.875,60 100.05,60.025 -100.05,60.025 0,-120.05 z" id="rect2989-7" style="opacity:1;fill:#ffffff;fill-opacity:1;stroke:none"/></g></svg>