<?xml version="1.0" encoding="UTF-8" standalone="no"?>
<svg width="45px" height="30px" viewBox="0 0 45 30" version="1.1" xmlns="http://www.w3.org/2000/svg" xmlns:xlink="http://www.w3.org/1999/xlink" xmlns:sketch="http://www.bohemiancoding.com/sketch/ns">
    <!-- Generator: Sketch 3.3.3 (12081) - http://www.bohemiancoding.com/sketch -->
    <title>Imported Layers</title>
    <desc>Created with Sketch.</desc>
    <defs/>
    <g id="Page-1" stroke="none" stroke-width="1" fill="none" fill-rule="evenodd" sketch:type="MSPage">
        <g id="Website_desktop" sketch:type="MSArtboardGroup" transform="translate(-40.000000, -40.000000)" fill="#0099CC">
            <path d="M83.5493653,52.467395 L82.0246594,50.7498319 L73.8127267,41.5060504 C73.4249956,41.044958 72.8350796,40.6753782 72.0432309,40.3978151 C71.296004,40.132605 70.5346594,40 69.7589451,40 L46.4343233,40 C44.6746594,40 43.2192813,40.5752941 42.0681888,41.7266387 C40.8351636,43.0045378 40.2187771,44.4495798 40.2187771,46.0622689 L40.2187771,63.7594958 C40.2187771,65.4210924 40.8351636,66.8681513 42.0681888,68.1009244 C43.2192813,69.2971429 44.6746594,69.8953782 46.4343233,69.8953782 L69.7589451,69.8953782 C70.6123065,69.8953782 71.3880208,69.7501681 72.0858359,69.4605042 C72.8166762,69.1542017 73.4249956,68.7011765 73.9107939,68.1009244 L82.0246594,58.1868067 L83.5493653,56.3252941 C84.6843233,54.9208403 84.6843233,53.6351261 83.5493653,52.467395 L83.5493653,52.467395 Z M67.6526426,51.2426891 L58.3506258,60.4035294 L52.4048275,54.5739496 C52.3228947,54.5290756 52.2739872,54.4413445 52.2576006,54.3105042 L54.1987771,52.4918487 C54.2804578,52.5367227 54.3684409,52.5755462 54.4622225,52.6080672 L58.3506258,56.6131933 L65.6378527,49.3015126 C65.8297014,49.1260504 65.9887771,49.0219328 66.1153317,48.9891597 L67.9647435,50.7405042 C67.9483569,50.932605 67.8442393,51.1 67.6526426,51.2426891 L67.6526426,51.2426891 Z" id="Imported-Layers" sketch:type="MSShapeGroup"/>
        </g>
    </g>
</svg>