<svg xmlns="http://www.w3.org/2000/svg" xmlns:xlink="http://www.w3.org/1999/xlink" width="34" height="24" viewBox="0 0 34 24">
  <defs>
    <linearGradient id="a" x1="5.02" y1="-540.8" x2="29.02" y2="-540.8" gradientTransform="matrix(1, 0, 0, -1, 0, -526)" gradientUnits="userSpaceOnUse">
      <stop offset="0" stop-color="#de4f57"/>
      <stop offset="1" stop-color="#971057"/>
    </linearGradient>
    <linearGradient id="b" x1="19.97" y1="-531.82" x2="17.04" y2="-548.88" xlink:href="#a"/>
    <linearGradient id="c" x1="19.76" y1="-533.31" x2="9.11" y2="-526.08" xlink:href="#a"/>
  </defs>
  <title>tasks_high</title>
  <g>
    <path d="M9.81,15.68A12.13,12.13,0,0,1,9.2,9.33L6.15,6.28a11.88,11.88,0,0,0-.31,9.4,11.38,11.38,0,0,0,6.78,6.84,12.35,12.35,0,0,0,6.41.61,17.05,17.05,0,0,1-2.38-.61A11.64,11.64,0,0,1,9.81,15.68Z" fill="url(#a)"/>
    <path d="M26.74,4.45a12.5,12.5,0,0,0-1.89-2.14L22,5.18A7.91,7.91,0,0,1,19,19a8.62,8.62,0,0,1-2.81.24,7.91,7.91,0,0,1-7-6.78,8.18,8.18,0,0,1,.18-3l-.12-.12a12.79,12.79,0,0,0,.61,6.35A11.5,11.5,0,0,0,19,23.13,12,12,0,0,0,29,11.29,11.76,11.76,0,0,0,26.74,4.45Z" fill="url(#b)"/>
    <path d="M23.63,1.34a3.89,3.89,0,0,0-4.88.49L17.15,3.41l-.85.85L14.16,6.4a1.33,1.33,0,0,1-.31.18.93.93,0,0,1-1.1-.18l-1-1-.79-.79A2.69,2.69,0,0,0,6.77,5a1.83,1.83,0,0,1-.24.49l4.82,4.64a2.87,2.87,0,0,0,4.15.18l5.74-5.62,2.93-2.87Z" fill="url(#c)"/>
  </g>
</svg>