<?xml version="1.0" encoding="utf-8"?>
<!-- Generator: Adobe Illustrator 19.0.1, SVG Export Plug-In . SVG Version: 6.00 Build 0)  -->
<!DOCTYPE svg PUBLIC "-//W3C//DTD SVG 1.1//EN" "http://www.w3.org/Graphics/SVG/1.1/DTD/svg11.dtd">
<svg version="1.1"
	 id="svg2" sodipodi:docname="evernote.svg" inkscape:version="0.47 r22583" sodipodi:version="0.32" inkscape:output_extension="org.inkscape.output.svg.inkscape" xmlns:dc="http://purl.org/dc/elements/1.1/" xmlns:rdf="http://www.w3.org/1999/02/22-rdf-syntax-ns#" xmlns:sodipodi="http://sodipodi.sourceforge.net/DTD/sodipodi-0.dtd" xmlns:svg="http://www.w3.org/2000/svg" xmlns:inkscape="http://www.inkscape.org/namespaces/inkscape" xmlns:cc="http://creativecommons.org/ns#"
	 xmlns="http://www.w3.org/2000/svg" xmlns:xlink="http://www.w3.org/1999/xlink" x="0px" y="0px" width="256px" height="256px"
	 viewBox="-71 73 256 256" style="enable-background:new -71 73 256 256;" xml:space="preserve">
<style type="text/css">
	.st0{fill:#554B47;}
	.st1{fill:#FFFFFF;}
</style>
<sodipodi:namedview  inkscape:window-maximized="0" inkscape:window-y="0" inkscape:window-x="0" inkscape:window-height="556" inkscape:window-width="867" inkscape:pageshadow="2" inkscape:document-units="px" inkscape:current-layer="layer1" inkscape:pageopacity="0.0" borderopacity="1.0" inkscape:zoom="0.98994949" inkscape:cy="178.60796" inkscape:cx="89.43536" showgrid="false" bordercolor="#666666" pagecolor="#ffffff" id="base">
	</sodipodi:namedview>
<g>
	<path class="st0" d="M158.5,329H-44.5c-14.6,0-26.5-11.8-26.5-26.5V99.5C-71,84.8-59.2,73-44.5,73h203.1
		c14.6,0,26.5,11.8,26.5,26.5v203.1C185,317.2,173.2,329,158.5,329z"/>
	<path class="st1" d="M150.5,191.3l-18-12.3l-14.2,9.7L75,159.1l14.2-9.7l-18-12.3L57,146.8l-14.2-9.7l-18,12.3l14.2,9.7l-43.4,29.6
		l-14.2-9.7l-18,12.3l14.2,9.7l-14.2,9.7l18,12.3l14.2-9.7L39,242.9l-14.2,9.7l18,12.3l14.2-9.7l14.2,9.7l18-12.3L75,242.9
		l43.4-29.6l14.2,9.7l18-12.3l-14.2-9.7L150.5,191.3z M57,230.6L13.6,201L57,171.4l43.4,29.6L57,230.6z"/>
</g>
</svg>
